<svg xmlns="http://www.w3.org/2000/svg" width="19.473" height="22.254" viewBox="0 0 19.473 22.254"><defs><style>.a{fill:#0a5169;}</style></defs><g transform="translate(-32)"><g transform="translate(32)"><path class="a" d="M10.2,1A.907.907,0,1,1,12,1a.907.907,0,1,1-1.8,0ZM6.767,1a.955.955,0,0,1,.9-1,.955.955,0,0,1,.9,1,.955.955,0,0,1-.9,1A.955.955,0,0,1,6.767,1ZM3.383,1a.955.955,0,0,1,.9-1,.955.955,0,0,1,.9,1,.955.955,0,0,1-.9,1A.955.955,0,0,1,3.383,1ZM0,1A.955.955,0,0,1,.9,0a.955.955,0,0,1,.9,1A.955.955,0,0,1,.9,2,.955.955,0,0,1,0,1Z" transform="translate(3.736 14.127)"/><path class="a" d="M50.6,15.735a.869.869,0,0,0,.869-.869V11.649A3.481,3.481,0,0,0,48,8.172H46.951V5.106a5.217,5.217,0,0,0-10.432,0V8.172H35.477A3.481,3.481,0,0,0,32,11.649v7.128a3.481,3.481,0,0,0,3.477,3.477H48a3.481,3.481,0,0,0,3.477-3.477.869.869,0,1,0-1.739,0A1.741,1.741,0,0,1,48,20.516H35.477a1.741,1.741,0,0,1-1.739-1.739V11.649A1.741,1.741,0,0,1,35.477,9.91H48a1.741,1.741,0,0,1,1.739,1.739v3.216A.869.869,0,0,0,50.6,15.735ZM45.212,8.172H38.257V5.106a3.479,3.479,0,0,1,6.955,0Z" transform="translate(-32)"/></g></g></svg>