<svg xmlns="http://www.w3.org/2000/svg" width="19.146" height="13.054" viewBox="0 0 19.146 13.054"><defs><style>.a{fill:#26a59a;}</style></defs><g transform="translate(0 0)"><path class="a" d="M173.278,170.667a2.611,2.611,0,1,0,2.611,2.611A2.613,2.613,0,0,0,173.278,170.667Z" transform="translate(-163.705 -166.751)"/><path class="a" d="M9.573,74.667A10.293,10.293,0,0,0,0,81.194a10.284,10.284,0,0,0,19.147,0A10.288,10.288,0,0,0,9.573,74.667Zm0,10.879a4.351,4.351,0,1,1,4.351-4.351A4.353,4.353,0,0,1,9.573,85.546Z" transform="translate(0 -74.667)"/></g></svg>