<svg xmlns="http://www.w3.org/2000/svg" width="26.892" height="26.964" viewBox="0 0 26.892 26.964"><defs><style>.a{fill:#26a59a;}</style></defs><path class="a" d="M15.12-21.708a14,14,0,0,1,5.058.918,12.754,12.754,0,0,1,4.266,2.7A12.8,12.8,0,0,1,27.4-13.77a14.634,14.634,0,0,1,1.08,5.778q0,.612-.09,1.656A14.968,14.968,0,0,1,28.008-4.1a8.867,8.867,0,0,1-.882,2.25,5.078,5.078,0,0,1-1.6,1.746A4.389,4.389,0,0,1,23,.576,3.422,3.422,0,0,1,21.06.108a2.488,2.488,0,0,1-.954-1.17,6.679,6.679,0,0,1-.378-1.458A7.914,7.914,0,0,1,17.082-.7a8.56,8.56,0,0,1-3.474.7,5.521,5.521,0,0,1-4.05-1.4A4.8,4.8,0,0,1,8.136-4.968a4.448,4.448,0,0,1,.99-3.06,5.4,5.4,0,0,1,2.556-1.584,10.949,10.949,0,0,1,3.15-.468,10.6,10.6,0,0,1,2.628.288,14.759,14.759,0,0,1,1.656.5,8.322,8.322,0,0,0-.36-2.556,3.179,3.179,0,0,0-1.278-1.728,4.689,4.689,0,0,0-2.61-.612,8.11,8.11,0,0,0-2.682.432,7.69,7.69,0,0,0-2.214,1.188l-.792-2.16a10.651,10.651,0,0,1,2.844-1.332,11.011,11.011,0,0,1,3.2-.468,7.676,7.676,0,0,1,3.51.666,4.253,4.253,0,0,1,1.872,1.8,7.4,7.4,0,0,1,.774,2.448,18.7,18.7,0,0,1,.18,2.538v3.888q0,1.044.09,1.944a2.774,2.774,0,0,0,.486,1.422,1.438,1.438,0,0,0,1.224.522,2.169,2.169,0,0,0,1.692-.72,5.009,5.009,0,0,0,1.008-1.818,11.971,11.971,0,0,0,.5-2.25,16.305,16.305,0,0,0,.144-1.98,12.724,12.724,0,0,0-.864-4.734,11.505,11.505,0,0,0-2.43-3.8,11.322,11.322,0,0,0-3.69-2.538,11.766,11.766,0,0,0-4.716-.918,12.03,12.03,0,0,0-4.626.882A11.086,11.086,0,0,0,6.678-16.7,11.38,11.38,0,0,0,4.23-12.96a12.261,12.261,0,0,0-.882,4.68,12.72,12.72,0,0,0,.828,4.626A11.564,11.564,0,0,0,6.516.108,11.1,11.1,0,0,0,10.1,2.664a11.013,11.013,0,0,0,4.59.936,10.1,10.1,0,0,0,2.952-.4,25.122,25.122,0,0,0,2.628-.972l.576,1.584a14.071,14.071,0,0,1-3.06,1.08,14.1,14.1,0,0,1-3.132.36,12.932,12.932,0,0,1-5.058-.99,12.869,12.869,0,0,1-4.158-2.79A13,13,0,0,1,2.61-2.808,14.2,14.2,0,0,1,1.584-8.28a13.847,13.847,0,0,1,1.1-5.652,12.323,12.323,0,0,1,3.006-4.212,13.521,13.521,0,0,1,4.338-2.646A14.294,14.294,0,0,1,15.12-21.708ZM17.064-2.916A4.025,4.025,0,0,0,18.288-3.8,2.915,2.915,0,0,0,18.9-4.842a3.673,3.673,0,0,0,.18-1.134V-7.344q-.5-.108-1.62-.432A9.479,9.479,0,0,0,14.832-8.1a7.451,7.451,0,0,0-2.124.288,3.184,3.184,0,0,0-1.548.954,2.63,2.63,0,0,0-.576,1.782,2.867,2.867,0,0,0,.4,1.494A2.759,2.759,0,0,0,12.1-2.538a3.674,3.674,0,0,0,1.728.378A7.044,7.044,0,0,0,15.5-2.376,8.237,8.237,0,0,0,17.064-2.916Z" transform="translate(-1.584 21.708)"/></svg>