<svg width="23" height="22" viewBox="0 0 23 22" fill="none" xmlns="http://www.w3.org/2000/svg">
<path d="M9.01221 11.0039C9.01221 9.79555 9.99207 8.81567 11.2004 8.81567C12.4088 8.81567 13.3887 9.79555 13.3887 11.0039C13.3887 12.2123 12.4088 13.1921 11.2004 13.1921C9.99207 13.1921 9.01221 12.2123 9.01221 11.0039Z" fill="white"/>
<path d="M15.0847 16.9462C14.1156 17.604 13.0836 17.9997 11.9595 18.1423C11.7847 18.1653 11.7372 18.2312 11.708 18.3876C11.4918 19.5699 11.2664 20.7522 11.0425 21.933C11.0395 21.9498 11.0241 21.9652 10.9965 22.0081C10.8539 21.2567 10.7174 20.5345 10.581 19.8122C10.4874 19.3215 10.3939 18.8293 10.3049 18.3386C10.2835 18.2159 10.2359 18.1637 10.0995 18.1469C6.87767 17.7651 4.2478 15.1382 3.86903 11.9272C3.85216 11.7877 3.8031 11.734 3.66356 11.7079C2.49506 11.4932 1.32656 11.2709 0.1596 11.0501C0.118197 11.0424 0.0783371 11.0286 0.0354004 10.9857C0.516905 10.8937 0.99995 10.8016 1.48145 10.7096C2.20831 10.5716 2.93363 10.4321 3.66049 10.2987C3.79083 10.2741 3.85063 10.2312 3.86903 10.0855C4.25393 6.876 6.85619 4.25993 10.0519 3.87044C10.2175 3.8505 10.2819 3.79223 10.3126 3.62815C10.5288 2.44432 10.7527 1.26357 10.9766 0.0812731C10.9796 0.0644051 10.9935 0.0490705 11.0211 0C11.1207 0.513707 11.2158 0.992144 11.3063 1.47211C11.4443 2.19897 11.5823 2.92429 11.7111 3.65268C11.7372 3.80296 11.8077 3.84897 11.9503 3.86583C12.9655 3.99004 13.907 4.3274 14.7765 4.86411C14.8394 4.90245 14.9314 4.91932 14.9329 5.04353C14.2996 4.73837 13.6448 4.52675 12.9609 4.41481C9.47228 3.8413 6.13855 5.87773 5.12341 9.10411C4.31221 11.6849 5.24607 14.6184 7.52324 16.2699C9.78969 17.9138 12.2417 18.1208 14.8102 17.0244C14.8869 16.9922 14.9528 16.9232 15.0862 16.9477L15.0847 16.9462Z" fill="white"/>
<path d="M6.83931 6.95569C7.64744 5.93288 8.68405 5.24129 9.92154 4.85179C13.6754 3.67257 17.6379 6.15523 18.2068 10.0379C18.2267 10.1729 18.2651 10.2265 18.4046 10.2526C19.6743 10.4903 20.944 10.7372 22.2382 10.9871C22.0466 11.0945 21.8488 11.0945 21.6647 11.1298C20.6113 11.3368 19.5578 11.5392 18.5012 11.7324C18.3065 11.7677 18.2298 11.8336 18.1915 12.0483C17.6793 14.9434 15.4895 17.0642 12.579 17.397C10.3249 17.6546 8.43257 16.8695 6.92519 15.1689C6.87458 15.1121 6.78869 15.0646 6.8117 14.9619L6.80864 14.9665C7.68425 15.6458 8.65798 16.1242 9.75594 16.299C12.1313 16.6793 14.2428 16.1365 15.8897 14.3193C17.8602 12.1464 17.5827 8.97525 15.3116 7.10444C13.8426 5.89454 12.1466 5.44524 10.2681 5.63232C9.00914 5.75807 7.88205 6.22117 6.87764 6.98636C6.86538 6.97563 6.85311 6.96336 6.84238 6.95263L6.83931 6.95569Z" fill="white"/>
<path d="M5.76776 16.1904C5.72156 16.2166 5.69847 16.1843 5.67845 16.1519C5.67537 16.1473 5.68152 16.135 5.6846 16.1257C5.71078 16.1488 5.7385 16.1719 5.76468 16.195L5.7693 16.1889L5.76776 16.1904Z" fill="white"/>
</svg>
