<svg xmlns="http://www.w3.org/2000/svg" width="20.569" height="20.569" viewBox="0 0 20.569 20.569">
  <g id="AI_profile_grey" data-name="AI profile grey" transform="translate(-3.85 -3.85)">
    <path id="Path_6365" data-name="Path 6365" d="M6.611,4.5H21.389A2.111,2.111,0,0,1,23.5,6.611V21.389A2.111,2.111,0,0,1,21.389,23.5H6.611A2.111,2.111,0,0,1,4.5,21.389V6.611A2.111,2.111,0,0,1,6.611,4.5Z" fill="none" stroke="#717171" stroke-linecap="round" stroke-linejoin="round" stroke-width="1.3"/>
    <path id="Path_6366" data-name="Path 6366" d="M13.667,12.083A1.583,1.583,0,1,1,12.083,10.5,1.583,1.583,0,0,1,13.667,12.083Z" transform="translate(-1.778 -1.778)" fill="none" stroke="#717171" stroke-linecap="round" stroke-linejoin="round" stroke-width="1.3"/>
    <path id="Path_6367" data-name="Path 6367" d="M24.389,20.278,19.111,15,7.5,26.611" transform="translate(-0.889 -3.111)" fill="none" stroke="#717171" stroke-linecap="round" stroke-linejoin="round" stroke-width="1.3"/>
  </g>
</svg>
