<svg xmlns="http://www.w3.org/2000/svg" width="103.941" height="90.843" viewBox="0 0 103.941 90.843">
  <g id="Group_1196" data-name="Group 1196" transform="translate(-908.113 -205.579)">
    <path id="Path_1025" data-name="Path 1025" d="M19.728,131.844h84.485a9.641,9.641,0,0,0,8.245-14.739L70.216,45.545a9.751,9.751,0,0,0-16.489,0L11.484,117.1a9.641,9.641,0,0,0,8.245,14.739Z" transform="translate(898.112 164.578)" fill="#db422d"/>
    <path id="Path_1026" data-name="Path 1026" d="M102.2,91,61,160.717h82.393Z" transform="translate(857.887 125.142)" fill="#fff" stroke="#fff" stroke-miterlimit="10" stroke-width="1"/>
    <g id="Group_1195" data-name="Group 1195" transform="translate(-1.135 -2.015)">
      <circle id="Ellipse_70" data-name="Ellipse 70" cx="5.074" cy="5.074" r="5.074" transform="translate(956.143 271.88)" fill="#38ada2"/>
      <path id="Path_1027" data-name="Path 1027" d="M246.72,202.36c0,2.96-2.4,22.245-5.36,22.245S236,205.321,236,202.36a5.36,5.36,0,1,1,10.72,0Z" transform="translate(719.858 41.535)" fill="#38ada2"/>
    </g>
  </g>
</svg>
