<svg xmlns="http://www.w3.org/2000/svg" width="80.451" height="80.451" viewBox="0 0 80.451 80.451">
  <g id="Group_4709" data-name="Group 4709" transform="translate(-506 -364)">
    <path id="Path_1566" data-name="Path 1566" d="M42.226,2A40.226,40.226,0,1,0,82.451,42.226,40.226,40.226,0,0,0,42.226,2Zm0,72.406a32.18,32.18,0,1,1,32.18-32.18A32.18,32.18,0,0,1,42.226,74.406Z" transform="translate(504 362)" fill="#db422d"/>
    <circle id="Ellipse_142" data-name="Ellipse 142" cx="4.023" cy="4.023" r="4.023" transform="translate(542.203 384.113)" fill="#26a59a"/>
    <path id="Path_1567" data-name="Path 1567" d="M15.023,10A4.023,4.023,0,0,0,11,14.023V34.135a4.023,4.023,0,1,0,8.045,0V14.023A4.023,4.023,0,0,0,15.023,10Z" transform="translate(531.203 386.181)" fill="#26a59a"/>
  </g>
</svg>
