<svg xmlns="http://www.w3.org/2000/svg" width="344.081" height="34.928" viewBox="0 0 344.081 34.928">
  <g id="AP_Logo_on_Black" data-name="AP Logo on Black" transform="translate(-114.372 -103.152)">
    <g id="Group_5583" data-name="Group 5583" transform="translate(114.372 103.152)">
      <path id="Path_9596" data-name="Path 9596" d="M133.578,137.507l.123-.123c3,0,3.078-.246,3.078-.657,0-.616-.41-1.6-2.75-7.346H123.2c-2.5,5.7-2.585,6.32-2.585,6.854,0,.985,1.067,1.026,3.324,1.149l.123.123v1.19l-.123.123c-1.477-.082-3.119-.205-4.719-.205s-3.242.123-4.72.205l-.123-.123v-1.19l.123-.123c2.5-.082,2.627-.287,3.776-2.75,3.652-7.8,7.88-17.524,10.752-24.5h1.724c9.029,21.341,10.26,24.3,11.368,26.183.452.78.821,1.026,2.668,1.067l.123.123v1.19l-.123.123c-1.765-.082-3.653-.205-5.54-.205s-3.776.123-5.54.205l-.123-.123Zm-4.966-21.053-4.6,10.958h9.193Z" transform="translate(-114.372 -108.657)" fill="#fff"/>
      <path id="Path_9597" data-name="Path 9597" d="M285.39,169.966c-.287.7-.574,1.4-.78,2.052a12.468,12.468,0,0,1-6.2,1.436c-5.007,0-9.07-3.119-9.07-9.275,0-4.35,1.518-6.607,3.776-7.921,4.637-2.709,5.007-2.873,7.182-2.873,1.929,0,4.391.534,4.8.985l.123.246a39.648,39.648,0,0,0-.739,5.417l-.205.123h-.9l-.205-.123a12.347,12.347,0,0,0-.369-2.421,6.846,6.846,0,0,0-4.35-1.765c-2.955,0-4.843,1.806-4.843,5.417,0,6.074,2.626,9.726,7.018,9.726a8.746,8.746,0,0,0,4.432-1.313Z" transform="translate(-236.553 -142.757)" fill="#fff"/>
      <path id="Path_9598" data-name="Path 9598" d="M354.1,131.122l.123-.164q1.416-.615,3.078-1.477c0-2.093,0-4.227-.123-6.32a16.389,16.389,0,0,0,4.1-1.97l.575.492a46.144,46.144,0,0,0-.452,7.88,46.715,46.715,0,0,0,5.212-.164l.205.205-.328,2.175-.164.123c-.7,0-1.519-.041-2.38-.041s-1.724.041-2.586.041c0,3.242-.041,6.033-.041,9.685,0,2.75,1.026,3.529,2.832,3.529a4.54,4.54,0,0,0,2.339-.616l.41.574a23.8,23.8,0,0,0-2.462,2.627,10.875,10.875,0,0,1-2.544.369c-3.037,0-4.843-1.4-4.843-5.13,0-4.391.246-8.167.246-11.122-.534,0-1.847.123-3.078.205l-.123-.123Z" transform="translate(-303.377 -117.373)" fill="#fff"/>
      <path id="Path_9599" data-name="Path 9599" d="M420.243,120.939l.123-.123a22.849,22.849,0,0,0,6.73-1.683l.575.369c-.164,1.518-.205,4.022-.205,5.581v6.607c0,3.365,0,4.761.328,5.13.205.246,1.108.41,2.667.41l.123.123v1.19l-.123.123c-1.559-.082-3.242-.205-5.171-.205-1.683,0-3.365.123-4.925.205l-.123-.123v-1.19l.123-.123c1.559,0,2.462-.164,2.668-.41.328-.369.328-1.765.328-5.13v-4.843c0-3.57,0-4.227-.41-4.432a13.7,13.7,0,0,0-2.585-.164l-.123-.123Zm5.007-11a2.627,2.627,0,1,1-2.627,2.627A2.645,2.645,0,0,1,425.25,109.94Z" transform="translate(-355.523 -108.504)" fill="#fff"/>
      <path id="Path_9600" data-name="Path 9600" d="M491,153.386c7.182,0,9.685,5.335,9.685,9.891a9.835,9.835,0,0,1-10.1,10.178c-6.607,0-9.439-4.514-9.439-9.521C481.146,157.408,484.922,153.386,491,153.386Zm-.287,1.559c-3.488,0-5.048,2.709-5.048,7.962,0,5.458,1.97,8.988,5.417,8.988s5.089-2.873,5.089-7.387C496.166,158.188,493.786,154.945,490.708,154.945Z" transform="translate(-403.539 -142.757)" fill="#fff"/>
      <path id="Path_9601" data-name="Path 9601" d="M597.452,153.879a7.2,7.2,0,0,1,2.955-.493c4.514,0,6.361,2.873,6.361,6.566,0,2.339-.123,6.033-.123,9.932,0,1.477.328,1.6,2.544,1.6l.205.205v1.026l-.205.205c-1.108-.082-2.175-.205-3.283-.205s-2.175.123-3.283.205l-.451-.369a69.919,69.919,0,0,0,.369-9.029c0-4.063-.041-6.936-3.9-6.936-2.216,0-4.76,1.354-4.76,3.078v6.279c0,3.365,0,4.761.328,5.13.205.246,1.108.41,2.668.41l.123.123v1.19l-.123.123c-1.56-.082-3.242-.205-5.171-.205-1.683,0-3.365.123-4.925.205l-.123-.123v-1.19l.123-.123c1.559,0,2.462-.164,2.668-.41.328-.369.328-1.765.328-5.13V161.1c0-3.57,0-4.227-.41-4.432a13.7,13.7,0,0,0-2.585-.164l-.123-.123v-1.19l.123-.123a22.849,22.849,0,0,0,6.73-1.683l.411.287c-.082.944-.164,2.093-.164,3.488Z" transform="translate(-486.726 -142.757)" fill="#fff"/>
      <path id="Path_9602" data-name="Path 9602" d="M709.229,156.341c3.94-2.544,4.925-2.955,6.731-2.955,3.652,0,7.223,1.478,7.223,5.91,0,2.75-.041,4.761-.041,6.32,0,3.776,0,4.966.123,5.253.246.533.821.616,2.257.616l.123.123v1.19l-.123.123a26.234,26.234,0,0,0-3.2-.205,27.223,27.223,0,0,0-3.16.205l-.246-.205c.041-1.108.164-2.175.164-3.16-1.313.9-3.776,2.955-4.145,3.242a4.293,4.293,0,0,1-2.668.657c-3.324,0-4.966-2.052-4.966-5.007,0-3.817,1.108-4.761,11.778-7.018,0-1.97-.452-5.089-4.638-5.089a6.986,6.986,0,0,0-3.242.78,10.111,10.111,0,0,0-.9,2.134l-.205.082-.9-.287-.123-.164Zm9.849,6.525c-6.977,1.559-7.51,2.667-7.51,4.555a2.763,2.763,0,0,0,2.914,3.078c1.437,0,2.75-.9,4.6-2.791Z" transform="translate(-581.84 -142.757)" fill="#fff"/>
      <path id="Path_9603" data-name="Path 9603" d="M801.37,104.958l.123-.123a22.85,22.85,0,0,0,6.73-1.683l.574.369c-.205,1.231-.205,2.463-.205,14.528l3.078-2.955a6.653,6.653,0,0,1,4.391-1.313c3.488,0,7.264,2.545,7.264,8.5,0,3.2-1.724,6.484-3,7.428-2.216,1.642-3.94,2.791-5.048,3.53a7.378,7.378,0,0,1-3.488.616,7.105,7.105,0,0,1-5.048-1.724l-1.888,1.724-.657-.534c.205-3.078.287-4.309.287-6.977V110.867c0-3.57,0-4.227-.41-4.432a13.683,13.683,0,0,0-2.585-.164l-.123-.123ZM813.8,116.982c-2.627,0-4.843,2.093-5.089,3.16-.082.328-.123,3.283-.123,6.4,0,2.38.123,2.545.615,3.119a5.259,5.259,0,0,0,4.432,1.888c2.955,0,5.581-2.586,5.581-8C819.222,119.978,817.7,116.982,813.8,116.982Z" transform="translate(-656.005 -103.152)" fill="#fff"/>
      <path id="Path_9604" data-name="Path 9604" d="M919.49,104.958l.123-.123a22.848,22.848,0,0,0,6.731-1.683l.575.369c-.164,1.519-.205,4.022-.205,5.581v17.237c0,3.365,0,4.761.328,5.13.205.246,1.108.41,2.668.41l.123.123v1.19l-.123.123c-1.559-.082-3.242-.205-5.171-.205-1.683,0-3.365.123-4.925.205l-.123-.123V132l.123-.123c1.56,0,2.463-.164,2.668-.41.328-.369.328-1.765.328-5.13V110.867c0-3.57,0-4.227-.41-4.432a13.682,13.682,0,0,0-2.586-.164l-.123-.123Z" transform="translate(-749.132 -103.152)" fill="#fff"/>
      <path id="Path_9605" data-name="Path 9605" d="M998.711,169.556a21.667,21.667,0,0,0-.9,2.011,13.163,13.163,0,0,1-6.853,1.888c-5.828,0-9.4-3.858-9.4-9.562,0-3.981.944-6.361,2.668-7.551,2.873-1.97,4.966-2.955,6.936-2.955,7.921,0,7.921,6.238,7.921,8.865l-.123.205a21.7,21.7,0,0,1-6.771.739H986.07c.205,4.391,2.257,7.8,7.182,7.8a9.259,9.259,0,0,0,4.966-1.806Zm-12.764-8.085c2.134.123,3.694.164,5.253.164a26.824,26.824,0,0,0,3.612-.164c0-3.406-.821-6.525-4.35-6.525C986.522,154.945,985.947,159.624,985.947,161.471Z" transform="translate(-798.065 -142.757)" fill="#fff"/>
      <path id="Path_9606" data-name="Path 9606" d="M1137.652,123.431a5.681,5.681,0,0,0,1.806.328c3.53,0,6.156-2.052,6.156-6.238,0-3.694-2.626-5.417-6.525-5.417a13.331,13.331,0,0,0-3.53.492c-.041,1.56-.164,4.1-.164,13.954,0,9.521.123,9.891.574,10.3a6.3,6.3,0,0,0,3.2.533l.123.123v1.19l-.123.123c-2.093-.082-4.063-.205-6.033-.205s-3.94.123-5.992.205l-.123-.123v-1.19l.123-.123a6.222,6.222,0,0,0,3.16-.533c.452-.41.575-.78.575-10.3V122.4c0-9.521-.123-9.891-.575-10.3a6.222,6.222,0,0,0-3.16-.533l-.123-.123v-1.19l.123-.123c2.052.082,4.022.205,5.992.205,2.462,0,4.925-.205,7.223-.205,5.91,0,9.932,1.149,9.932,6.731,0,5.253-4.186,8.618-9.6,8.618a14.057,14.057,0,0,1-2.873-.287l-.533-1.4Z" transform="translate(-912.752 -108.657)" fill="#fff"/>
      <path id="Path_9607" data-name="Path 9607" d="M1244.562,155.192l.123-.123a21.051,21.051,0,0,0,6.854-1.683l.575.369c-.123,1.231-.246,3.119-.246,4.1a18.7,18.7,0,0,0,1.518-1.683c1.437-1.724,2.627-2.791,4.638-2.791a5.543,5.543,0,0,1,1.806.287l.205.246a30.665,30.665,0,0,0-.451,5.171h-.739c-.492-1.149-1.026-1.683-2.873-1.683a3.715,3.715,0,0,0-3.94,3.981v4.555c0,3.365,0,4.761.328,5.13.205.246,1.354.41,3.406.41l.123.123v1.19l-.123.123c-1.806-.082-3.735-.205-5.91-.205-1.683,0-3.365.123-5.171.205l-.123-.123v-1.19l.123-.123c1.806,0,2.709-.164,2.914-.41.328-.369.328-1.765.328-5.13V161.1c0-3.57,0-4.227-.411-4.432a15.043,15.043,0,0,0-2.832-.164l-.123-.123Z" transform="translate(-1005.421 -142.757)" fill="#fff"/>
      <path id="Path_9608" data-name="Path 9608" d="M1472.626,116.818l.082-.164,2.791-1.436q.246-.123.246-.985c0-3.242.041-4.35,1.642-6.238,3.858-4.555,4.8-4.843,6.73-4.843a7.287,7.287,0,0,1,2.3.369,29.915,29.915,0,0,0-.328,3.776l-.452.246a4.568,4.568,0,0,0-3.2-1.436c-1.477,0-2.586.657-2.586,3.119v5.951a30.547,30.547,0,0,0,5.294-.246l.205.287a15.59,15.59,0,0,0-.246,2.052l-.164.123c-1.724-.041-3.365-.082-5.007-.082v9.029c0,3.365,0,4.761.328,5.13.205.246,1.108.41,3.406.41l.123.123v1.19l-.123.123c-2.3-.082-3.981-.205-5.91-.205-1.683,0-3.365.123-5.171.205l-.123-.123V132l.123-.123c1.806,0,2.708-.164,2.914-.41.328-.369.328-1.765.328-5.13v-6.2c0-1.313-.041-2.216-.041-2.75-.328,0-2.052.164-3.037.246l-.123-.123Z" transform="translate(-1185.099 -103.152)" fill="#fff"/>
      <path id="Path_9609" data-name="Path 9609" d="M1538.213,120.939l.123-.123a22.848,22.848,0,0,0,6.731-1.683l.575.369c-.164,1.518-.205,4.022-.205,5.581v6.607c0,3.365,0,4.761.328,5.13.2.246,1.108.41,2.667.41l.123.123v1.19l-.123.123c-1.559-.082-3.242-.205-5.171-.205-1.683,0-3.365.123-4.925.205l-.123-.123v-1.19l.123-.123c1.559,0,2.463-.164,2.668-.41.328-.369.328-1.765.328-5.13v-4.843c0-3.57,0-4.227-.41-4.432a13.7,13.7,0,0,0-2.586-.164l-.123-.123Zm5.007-11a2.627,2.627,0,1,1-2.626,2.627A2.645,2.645,0,0,1,1543.22,109.94Z" transform="translate(-1236.937 -108.504)" fill="#fff"/>
      <path id="Path_9610" data-name="Path 9610" d="M1595.625,104.958l.123-.123a22.848,22.848,0,0,0,6.731-1.683l.575.369c-.164,1.519-.205,4.022-.205,5.581v17.237c0,3.365,0,4.761.328,5.13.205.246,1.108.41,2.667.41l.123.123v1.19l-.123.123c-1.559-.082-3.242-.205-5.171-.205-1.683,0-3.365.123-4.925.205l-.123-.123V132l.123-.123c1.56,0,2.463-.164,2.668-.41.328-.369.328-1.765.328-5.13V110.867c0-3.57,0-4.227-.411-4.432a13.684,13.684,0,0,0-2.586-.164l-.123-.123Z" transform="translate(-1282.201 -103.152)" fill="#fff"/>
      <path id="Path_9611" data-name="Path 9611" d="M1674.847,169.556a21.716,21.716,0,0,0-.9,2.011,13.163,13.163,0,0,1-6.853,1.888c-5.828,0-9.4-3.858-9.4-9.562,0-3.981.944-6.361,2.668-7.551,2.873-1.97,4.966-2.955,6.936-2.955,7.92,0,7.92,6.238,7.92,8.865l-.123.205a21.7,21.7,0,0,1-6.771.739h-6.115c.2,4.391,2.257,7.8,7.182,7.8a9.259,9.259,0,0,0,4.966-1.806Zm-12.763-8.085c2.134.123,3.694.164,5.253.164a26.821,26.821,0,0,0,3.611-.164c0-3.406-.821-6.525-4.35-6.525C1662.658,154.945,1662.083,159.624,1662.083,161.471Z" transform="translate(-1331.135 -142.757)" fill="#fff"/>
    </g>
    <g id="Group_5584" data-name="Group 5584" transform="translate(370.218 107.712)">
      <path id="Path_9612" data-name="Path 9612" d="M1382.047,185.214a3.019,3.019,0,1,1,3.019,3.019A3.019,3.019,0,0,1,1382.047,185.214Z" transform="translate(-1369.661 -170.03)" fill="#fff"/>
      <path id="Path_9613" data-name="Path 9613" d="M1344.275,148.087a9.739,9.739,0,0,1-4.313,1.651c-.241.031-.308.124-.347.338-.3,1.632-.61,3.262-.918,4.893,0,.024-.026.044-.063.1-.2-1.036-.386-2.033-.574-3.03-.128-.678-.258-1.355-.38-2.034a.272.272,0,0,0-.283-.264,9.923,9.923,0,0,1-8.6-8.582.292.292,0,0,0-.284-.3c-1.613-.3-3.224-.6-4.835-.908a.3.3,0,0,1-.171-.089l2-.38c1-.19,2-.384,3.007-.568.179-.033.263-.093.287-.295a9.909,9.909,0,0,1,8.532-8.575.346.346,0,0,0,.359-.333c.3-1.633.608-3.263.916-4.894a.6.6,0,0,1,.061-.112c.137.708.268,1.369.394,2.032.189,1,.381,2,.558,3.008.037.207.132.271.33.3a9.575,9.575,0,0,1,3.9,1.377c.086.053.214.076.215.247a9.949,9.949,0,0,0-2.722-.868,9.638,9.638,0,0,0-10.814,6.47,8.981,8.981,0,0,0,3.311,9.887,9.664,9.664,0,0,0,10.054,1.04A.553.553,0,0,1,1344.275,148.087Z" transform="translate(-1323.511 -124.705)" fill="#fff"/>
      <path id="Path_9614" data-name="Path 9614" d="M1367.7,157.734a8.562,8.562,0,0,1,4.253-2.9,8.9,8.9,0,0,1,11.432,7.157c.027.187.081.261.273.3,1.753.328,3.5.669,5.289,1.013a2.42,2.42,0,0,1-.792.2q-2.18.43-4.365.832a.44.44,0,0,0-.428.436,8.785,8.785,0,0,1-7.745,7.38,8.648,8.648,0,0,1-7.8-3.074c-.07-.079-.189-.144-.157-.285l0,.006a9.345,9.345,0,0,0,12.531-.892,6.766,6.766,0,0,0-.8-9.955,9.442,9.442,0,0,0-11.637-.162Z" transform="translate(-1358.314 -148.136)" fill="#fff"/>
      <path id="Path_9615" data-name="Path 9615" d="M1360.422,229.961c-.063.037-.094-.008-.123-.052,0-.007,0-.023.008-.035l.11.095Z" transform="translate(-1352.514 -207.621)" fill="#fff"/>
    </g>
  </g>
</svg>
