<svg width="340" height="32" viewBox="0 0 340 32" fill="none" xmlns="http://www.w3.org/2000/svg">
<path d="M18.9767 28.5111L19.098 28.3898C22.0586 28.3898 22.1402 28.1473 22.1402 27.7416C22.1402 27.1332 21.7346 26.161 19.4241 20.4822H8.71682C6.24333 26.1191 6.16178 26.7276 6.16178 27.2545C6.16178 28.2267 7.21558 28.2685 9.44653 28.3898L9.56781 28.5111V29.6862L9.44653 29.8074C7.98711 29.7259 6.3646 29.6046 4.7839 29.6046C3.20321 29.6046 1.5807 29.7259 0.12127 29.8074L0 29.6862V28.5111L0.12127 28.3898C2.59477 28.3083 2.71604 28.1055 3.85138 25.6717C7.46021 17.9668 11.6378 8.35513 14.4751 1.46155H16.1791C25.1009 22.55 26.3177 25.4689 27.4133 27.3339C27.8587 28.1034 28.2246 28.348 30.0499 28.3877L30.1712 28.509V29.6841L30.0499 29.8053C28.3062 29.7238 26.4411 29.6025 24.576 29.6025C22.711 29.6025 20.8459 29.7238 19.1022 29.8053L18.9809 29.6841V28.509L18.9767 28.5111ZM14.0694 7.70697L9.52808 18.5356H18.6129L14.0715 7.70697H14.0694Z" fill="#DE4223"/>
<path d="M48.2572 26.8886C47.9729 27.5785 47.6885 28.2664 47.4857 28.9167C45.9844 29.8492 43.6322 30.3364 41.3615 30.3364C36.4145 30.3364 32.4001 27.2545 32.4001 21.1721C32.4001 16.8733 33.9013 14.6424 36.1302 13.346C40.7134 10.6697 41.0772 10.5066 43.2266 10.5066C45.1335 10.5066 47.5651 11.0335 47.9708 11.4789L48.092 11.7214C47.6864 13.6283 47.4836 15.4118 47.3623 17.074L47.1595 17.1953H46.2667L46.0639 17.074C46.0639 16.7897 45.8611 14.9643 45.698 14.6821C45.3739 14.1134 43.143 12.9383 41.3992 12.9383C38.4803 12.9383 36.6132 14.7218 36.6132 18.2909C36.6132 24.2938 39.2079 27.9026 43.5486 27.9026C44.9683 27.9026 46.7936 27.3757 47.929 26.6042L48.253 26.8886H48.2572Z" fill="#DE4223"/>
<path d="M50.1223 13.5885L50.2435 13.4255C51.1761 13.0198 52.1901 12.5327 53.2857 11.966C53.2857 9.89817 53.2857 7.78848 53.1645 5.72061C54.5423 5.31499 55.962 4.58527 57.2207 3.77402L57.7895 4.26119C57.3441 6.85595 57.3441 9.45281 57.3441 12.0476C59.0482 12.0476 61.6429 12.0476 62.4939 11.8845L62.6967 12.0873L62.3726 14.2367L62.2096 14.358C61.5196 14.358 60.7083 14.3183 59.8573 14.3183C59.0063 14.3183 58.1533 14.358 57.3023 14.358C57.3023 17.5612 57.2626 20.319 57.2626 23.9279C57.2626 26.646 58.2766 27.4154 60.0601 27.4154C60.9927 27.4154 61.8855 27.1311 62.3726 26.807L62.7783 27.3736C61.8457 28.2664 60.9948 29.1174 60.3445 29.9684C59.6148 30.1712 58.561 30.3343 57.8313 30.3343C54.8309 30.3343 53.0453 28.9564 53.0453 25.266C53.0453 20.9275 53.2878 17.1953 53.2878 14.2764C52.7609 14.2764 51.4625 14.3977 50.2456 14.4793L50.1243 14.358V13.5865L50.1223 13.5885Z" fill="#DE4223"/>
<path d="M63.9512 12.2901L64.0725 12.1688C64.6412 12.1688 67.9657 11.7235 70.7236 10.5066L71.2923 10.8725C71.1292 12.3737 71.0895 14.8472 71.0895 16.3882V22.918C71.0895 26.2425 71.0895 27.6224 71.4135 27.9883C71.6164 28.2309 72.5092 28.394 74.0501 28.394L74.1714 28.5152V29.6903L74.0501 29.8116C72.5092 29.73 70.8469 29.6088 68.94 29.6088C67.2778 29.6088 65.6156 29.73 64.0746 29.8116L63.9533 29.6903V28.5152L64.0746 28.394C65.6156 28.394 66.5084 28.2309 66.7112 27.9883C67.0353 27.6224 67.0353 26.2446 67.0353 22.918V18.132C67.0353 14.6047 67.0353 13.9544 66.6296 13.7516C66.2637 13.5885 64.4405 13.5885 64.0746 13.5885L63.9533 13.4673V12.2922L63.9512 12.2901ZM68.8982 1.42178C70.3179 1.42178 71.493 2.59685 71.493 4.01655C71.493 5.43625 70.3179 6.61131 68.8982 6.61131C67.4785 6.61131 66.3035 5.43625 66.3035 4.01655C66.3035 2.59685 67.4785 1.42178 68.8982 1.42178Z" fill="#DE4223"/>
<path d="M86.4176 10.5045C93.514 10.5045 95.9875 15.7756 95.9875 20.2772C95.9875 26.9283 90.8774 30.3343 86.012 30.3343C79.4822 30.3343 76.6846 25.8745 76.6846 20.9254C76.6846 14.4772 80.4147 10.5024 86.4176 10.5024V10.5045ZM86.1333 12.0455C82.6854 12.0455 81.1445 14.7218 81.1445 19.9134C81.1445 25.1051 83.0911 28.7954 86.4971 28.7954C89.9031 28.7954 91.5256 25.956 91.5256 21.4962C91.5256 15.2508 89.1734 12.0476 86.1312 12.0476L86.1333 12.0455Z" fill="#DE4223"/>
<path d="M109.413 10.9917C109.616 10.8286 110.833 10.5045 112.332 10.5045C116.792 10.5045 118.617 13.3439 118.617 16.9925C118.617 19.305 118.496 22.9536 118.496 26.807C118.496 28.2664 118.82 28.3877 121.009 28.3877L121.212 28.5905V29.6046L121.009 29.8074C119.913 29.7259 118.86 29.6046 117.764 29.6046C116.668 29.6046 115.615 29.7259 114.519 29.8074L114.074 29.4415C114.439 26.5227 114.439 23.9258 114.439 20.5198C114.439 16.5053 114.4 13.6659 110.586 13.6659C108.397 13.6659 105.882 15.0041 105.882 16.7081V22.9117C105.882 26.2362 105.882 27.6162 106.206 27.9821C106.408 28.2246 107.301 28.3877 108.842 28.3877L108.963 28.509V29.6841L108.842 29.8053C107.301 29.7238 105.639 29.6025 103.732 29.6025C102.07 29.6025 100.408 29.7238 98.8667 29.8053L98.7454 29.6841V28.509L98.8667 28.3877C100.408 28.3877 101.3 28.2246 101.503 27.9821C101.827 27.6162 101.827 26.2383 101.827 22.9117V18.1257C101.827 14.5984 101.827 13.9482 101.422 13.7454C101.056 13.5823 99.2326 13.5823 98.8667 13.5823L98.7454 13.461V12.286L98.8667 12.1647C99.4354 12.1647 102.76 11.7193 105.518 10.5024L105.923 10.7868C105.842 11.7193 105.76 12.8547 105.76 14.2346L109.411 10.9896L109.413 10.9917Z" fill="#DE4223"/>
<path d="M125.876 13.4255C129.77 10.9102 130.742 10.5066 132.527 10.5066C136.136 10.5066 139.666 11.966 139.666 16.3464C139.666 19.0645 139.626 21.0509 139.626 22.5918C139.626 26.3219 139.626 27.4991 139.747 27.7834C139.99 28.3103 140.559 28.3919 141.978 28.3919L142.099 28.5132V29.6882L141.978 29.8095C141.006 29.6882 139.91 29.6067 138.815 29.6067C137.842 29.6067 136.665 29.6882 135.693 29.8095L135.451 29.6067C135.49 28.5111 135.614 27.4573 135.614 26.485C134.315 27.3778 131.884 29.4039 131.518 29.6882C131.03 30.0541 130.261 30.3364 128.881 30.3364C125.596 30.3364 123.974 28.3083 123.974 25.3894C123.974 21.6175 125.069 20.685 135.614 18.454C135.614 16.5074 135.168 13.4255 131.03 13.4255C129.653 13.4255 128.07 13.9524 127.827 14.197C127.624 14.3998 127.016 15.9408 126.934 16.3067L126.732 16.3882L125.839 16.1039L125.718 15.9408L125.881 13.4276L125.876 13.4255ZM135.609 19.8737C128.716 21.4147 128.189 22.5103 128.189 24.3753C128.189 26.4035 129.406 27.4175 131.068 27.4175C132.488 27.4175 133.786 26.5247 135.609 24.6597V19.8737Z" fill="#DE4223"/>
<path d="M143.64 1.78558L143.762 1.66431C144.33 1.66431 147.655 1.21896 150.413 0.0020752L150.981 0.367977C150.779 1.58486 150.779 2.80175 150.779 14.7239L153.821 11.805C154.835 10.8328 156.66 10.5066 158.159 10.5066C161.607 10.5066 165.337 13.0219 165.337 18.9014C165.337 22.0649 163.633 25.3078 162.377 26.2425C160.188 27.865 158.484 29.0003 157.388 29.73C156.698 30.1754 155.32 30.3385 153.94 30.3385C151.709 30.3385 150.289 29.7697 148.951 28.6344L147.086 30.3385L146.438 29.8116C146.641 26.7694 146.722 25.5525 146.722 22.918V7.62537C146.722 4.09808 146.722 3.44782 146.317 3.24501C145.951 3.08192 144.128 3.08192 143.762 3.08192L143.64 2.96065V1.78558ZM155.928 13.668C153.334 13.668 151.142 15.7358 150.9 16.7896C150.818 17.1137 150.779 20.0347 150.779 23.1166C150.779 25.4688 150.9 25.6319 151.387 26.1985C152.562 27.5764 153.902 28.0636 155.767 28.0636C158.686 28.0636 161.283 25.5086 161.283 20.1559C161.283 16.6286 159.782 13.668 155.931 13.668H155.928Z" fill="#DE4223"/>
<path d="M168.338 1.78558L168.459 1.66431C169.028 1.66431 172.352 1.21896 175.11 0.0020752L175.679 0.367977C175.516 1.86922 175.476 4.34271 175.476 5.88368V22.9138C175.476 26.2383 175.476 27.6182 175.8 27.9841C176.003 28.2267 176.896 28.3898 178.437 28.3898L178.558 28.511V29.6861L178.437 29.8074C176.896 29.7258 175.233 29.6046 173.327 29.6046C171.664 29.6046 170.002 29.7258 168.461 29.8074L168.34 29.6861V28.511L168.461 28.3898C170.002 28.3898 170.895 28.2267 171.098 27.9841C171.422 27.6182 171.422 26.2404 171.422 22.9138V7.62538C171.422 4.09808 171.422 3.44782 171.016 3.24501C170.65 3.08192 168.827 3.08192 168.461 3.08192L168.34 2.96065V1.78558H168.338Z" fill="#DE4223"/>
<path d="M198.266 26.4829C197.942 27.1311 197.618 27.8211 197.374 28.4692C196.117 29.2805 193.644 30.3343 190.601 30.3343C184.843 30.3343 181.314 26.5226 181.314 20.8857C181.314 16.9527 182.246 14.6005 183.95 13.4234C186.79 11.4768 188.858 10.5045 190.804 10.5045C198.63 10.5045 198.63 16.6684 198.63 19.2632L198.509 19.466C196.117 20.1957 194.049 20.1957 191.818 20.1957H185.776C185.978 24.5342 188.007 27.9005 192.872 27.9005C194.047 27.9005 195.67 27.4949 197.779 26.117L198.266 26.4829ZM185.654 18.4937C187.764 18.615 189.305 18.6568 190.846 18.6568C192.387 18.6568 193.685 18.6171 194.415 18.4937C194.415 15.1274 193.604 12.0455 190.116 12.0455C186.223 12.0455 185.656 16.6684 185.656 18.4937H185.654Z" fill="#DE4223"/>
<path d="M222.234 14.6006C222.721 14.7636 223.33 14.9246 224.018 14.9246C227.505 14.9246 230.1 12.8965 230.1 8.76076C230.1 5.11011 227.505 3.40814 223.652 3.40814C222.477 3.40814 221.097 3.61096 220.164 3.89532C220.124 5.43629 220.001 7.9516 220.001 17.6825C220.001 27.4134 220.122 27.4552 220.568 27.8608C220.934 28.1849 222.148 28.3877 223.731 28.3877L223.852 28.509V29.6841L223.731 29.8053C221.663 29.7238 219.717 29.6025 217.77 29.6025C215.823 29.6025 213.877 29.7238 211.849 29.8053L211.727 29.6841V28.509L211.849 28.3877C213.39 28.3877 214.607 28.1849 214.97 27.8608C215.416 27.4552 215.539 27.0893 215.539 17.6825V13.5865C215.539 4.17758 215.418 3.81377 214.97 3.40814C214.605 3.08406 213.39 2.88125 211.849 2.88125L211.727 2.75998V1.58282L211.849 1.46155C213.877 1.54309 215.823 1.66436 217.77 1.66436C220.204 1.66436 222.636 1.46155 224.908 1.46155C230.748 1.46155 234.723 2.59689 234.723 8.11259C234.723 13.3042 230.587 16.6287 225.232 16.6287C223.934 16.6287 223.001 16.4656 222.393 16.3443L221.866 14.9665L222.232 14.6006H222.234Z" fill="#DE4223"/>
<path d="M236.306 12.2901L236.427 12.1689C237.238 12.1689 240.563 11.7235 243.199 10.5066L243.768 10.8725C243.647 12.0894 243.525 13.9545 243.525 14.9288C244.092 14.4019 244.579 13.7935 245.027 13.2666C246.446 11.5625 247.621 10.5087 249.61 10.5087C250.3 10.5087 250.948 10.63 251.393 10.7931L251.596 11.0356C251.354 12.2107 251.151 14.4416 251.151 16.1457H250.421C249.934 15.0103 249.407 14.4835 247.582 14.4835C245.392 14.4835 243.688 15.8613 243.688 18.4164V22.918C243.688 26.2425 243.688 27.6225 244.012 27.9884C244.215 28.2309 245.351 28.394 247.379 28.394L247.5 28.5153V29.6903L247.379 29.8116C245.595 29.73 243.688 29.6088 241.539 29.6088C239.877 29.6088 238.215 29.73 236.429 29.8116L236.308 29.6903V28.5153L236.429 28.394C238.212 28.394 239.105 28.2309 239.308 27.9884C239.632 27.6225 239.632 26.2446 239.632 22.918V18.132C239.632 14.6047 239.632 13.9545 239.227 13.7516C238.861 13.5886 237.037 13.5886 236.429 13.5886L236.308 13.4673V12.2922L236.306 12.2901Z" fill="#DE4223"/>
<path d="M284.119 13.507L284.201 13.3439L286.959 11.9242C287.122 11.8427 287.201 11.5186 287.201 10.9499C287.201 7.74666 287.241 6.65105 288.824 4.78599C292.636 0.284358 293.568 0 295.475 0C296.286 0 296.976 0.12127 297.746 0.365902C297.503 2.19123 297.422 3.32657 297.422 4.09601L296.976 4.33855C296.125 3.52729 295.111 2.91885 293.813 2.91885C292.353 2.91885 291.258 3.56702 291.258 6.00079V11.8803C293.65 11.8803 295.232 11.8803 296.489 11.6378L296.692 11.9221C296.61 12.4093 296.449 13.3815 296.449 13.9503L296.286 14.0715C294.582 14.0318 292.962 13.99 291.339 13.99V22.9117C291.339 26.2362 291.339 27.6162 291.663 27.9821C291.866 28.2246 292.759 28.3877 295.03 28.3877L295.151 28.509V29.684L295.03 29.8053C292.759 29.7238 291.097 29.6025 289.19 29.6025C287.528 29.6025 285.865 29.7238 284.08 29.8053L283.958 29.684V28.509L284.08 28.3877C285.863 28.3877 286.756 28.2246 286.959 27.9821C287.283 27.6162 287.283 26.2383 287.283 22.9117V16.7876C287.283 15.4891 287.243 14.5984 287.243 14.0694C286.919 14.0694 285.215 14.2325 284.243 14.312L284.122 14.1907V13.5007L284.119 13.507Z" fill="#DE4223"/>
<path d="M297.704 12.2901L297.825 12.1688C298.394 12.1688 301.718 11.7235 304.476 10.5066L305.045 10.8725C304.882 12.3737 304.842 14.8472 304.842 16.3882V22.918C304.842 26.2425 304.842 27.6224 305.166 27.9883C305.369 28.2309 306.262 28.394 307.803 28.394L307.924 28.5152V29.6903L307.803 29.8116C306.262 29.73 304.6 29.6088 302.693 29.6088C301.03 29.6088 299.368 29.73 297.827 29.8116L297.706 29.6903V28.5152L297.827 28.394C299.368 28.394 300.261 28.2309 300.464 27.9883C300.788 27.6224 300.788 26.2446 300.788 22.918V18.132C300.788 14.6047 300.788 13.9544 300.382 13.7516C300.016 13.5885 298.193 13.5885 297.827 13.5885L297.706 13.4673V12.2922L297.704 12.2901ZM302.651 1.42178C304.071 1.42178 305.246 2.59685 305.246 4.01655C305.246 5.43625 304.071 6.61131 302.651 6.61131C301.231 6.61131 300.056 5.43625 300.056 4.01655C300.056 2.59685 301.231 1.42178 302.651 1.42178Z" fill="#DE4223"/>
<path d="M309.708 1.78558L309.829 1.66431C310.397 1.66431 313.722 1.21896 316.48 0.0020752L317.049 0.367977C316.885 1.86922 316.846 4.34271 316.846 5.88368V22.9138C316.846 26.2383 316.846 27.6182 317.17 27.9841C317.373 28.2267 318.265 28.3898 319.806 28.3898L319.928 28.511V29.6861L319.806 29.8074C318.265 29.7258 316.603 29.6046 314.696 29.6046C313.034 29.6046 311.372 29.7258 309.831 29.8074L309.71 29.6861V28.511L309.831 28.3898C311.372 28.3898 312.265 28.2267 312.467 27.9841C312.792 27.6182 312.792 26.2404 312.792 22.9138V7.62538C312.792 4.09808 312.792 3.44782 312.386 3.24501C312.02 3.08192 310.197 3.08192 309.831 3.08192L309.71 2.96065V1.78558H309.708Z" fill="#DE4223"/>
<path d="M339.636 26.4829C339.312 27.1311 338.988 27.8211 338.743 28.4692C337.487 29.2805 335.013 30.3343 331.971 30.3343C326.213 30.3343 322.683 26.5226 322.683 20.8857C322.683 16.9527 323.616 14.6005 325.32 13.4234C328.159 11.4768 330.227 10.5045 332.174 10.5045C340 10.5045 340 16.6684 340 19.2632L339.879 19.466C337.487 20.1957 335.419 20.1957 333.188 20.1957H327.145C327.348 24.5342 329.376 27.9005 334.242 27.9005C335.417 27.9005 337.039 27.4949 339.149 26.117L339.636 26.4829ZM327.024 18.4937C329.134 18.615 330.675 18.6568 332.216 18.6568C333.757 18.6568 335.055 18.6171 335.785 18.4937C335.785 15.1274 334.974 12.0455 331.486 12.0455C327.593 12.0455 327.026 16.6684 327.026 18.4937H327.024Z" fill="#DE4223"/>
<path d="M265.051 16.5204C265.051 14.8728 266.387 13.5367 268.034 13.5367C269.682 13.5367 271.018 14.8728 271.018 16.5204C271.018 18.168 269.682 19.5041 268.034 19.5041C266.387 19.5041 265.051 18.168 265.051 16.5204Z" fill="#DE4223"/>
<path d="M273.331 24.6225C272.009 25.5195 270.602 26.0589 269.069 26.2534C268.831 26.2848 268.766 26.3747 268.727 26.5879C268.432 28.2 268.124 29.8121 267.819 31.422C267.815 31.445 267.794 31.4659 267.756 31.5245C267.562 30.5 267.376 29.5152 267.19 28.5304C267.062 27.8613 266.935 27.1901 266.813 26.521C266.784 26.3538 266.719 26.2827 266.533 26.2597C262.14 25.739 258.554 22.1574 258.038 17.7791C258.015 17.5888 257.948 17.5157 257.758 17.4801C256.165 17.1874 254.571 16.8842 252.98 16.5831C252.924 16.5727 252.869 16.5539 252.811 16.4953C253.467 16.3699 254.126 16.2444 254.783 16.119C255.774 15.9308 256.763 15.7405 257.754 15.5586C257.931 15.5252 258.013 15.4666 258.038 15.268C258.563 10.8918 262.111 7.32479 266.468 6.7937C266.694 6.76652 266.782 6.68707 266.824 6.46335C267.119 4.8492 267.424 3.23923 267.729 1.62717C267.733 1.60417 267.752 1.58327 267.79 1.51636C267.926 2.2168 268.055 2.86915 268.179 3.52359C268.367 4.51466 268.555 5.50364 268.731 6.4968C268.766 6.70171 268.862 6.76443 269.057 6.78743C270.441 6.95679 271.725 7.41678 272.91 8.14859C272.996 8.20086 273.122 8.22386 273.124 8.39322C272.26 7.97714 271.367 7.6886 270.435 7.53596C265.678 6.75398 261.133 9.53065 259.748 13.9298C258.642 17.4488 259.916 21.4486 263.021 23.7005C266.111 25.9419 269.454 26.2241 272.956 24.7292C273.061 24.6853 273.151 24.5912 273.333 24.6246L273.331 24.6225Z" fill="#DE4223"/>
<path d="M262.088 11.0005C263.19 9.60592 264.603 8.66294 266.291 8.13186C271.409 6.52398 276.812 9.9091 277.588 15.2032C277.615 15.3872 277.667 15.4603 277.857 15.4959C279.589 15.82 281.32 16.1566 283.085 16.4974C282.823 16.6438 282.553 16.6438 282.303 16.6919C280.866 16.9741 279.43 17.2501 277.989 17.5136C277.724 17.5617 277.619 17.6516 277.567 17.9443C276.868 21.8919 273.883 24.7835 269.914 25.2372C266.841 25.5885 264.26 24.518 262.205 22.1992C262.136 22.1219 262.019 22.057 262.05 21.9169L262.046 21.9232C263.24 22.8495 264.568 23.5018 266.065 23.7402C269.304 24.2587 272.183 23.5185 274.428 21.0409C277.115 18.0781 276.737 13.7542 273.64 11.2033C271.637 9.55365 269.325 8.94103 266.763 9.19611C265.047 9.36756 263.51 9.999 262.14 11.0423C262.124 11.0277 262.107 11.011 262.092 10.9963L262.088 11.0005Z" fill="#38ADA2"/>
<path d="M260.627 23.5921C260.564 23.6278 260.533 23.5837 260.505 23.5396C260.501 23.5333 260.509 23.5165 260.514 23.5039C260.549 23.5354 260.587 23.5669 260.623 23.5984L260.629 23.59L260.627 23.5921Z" fill="white"/>
</svg>
