<svg xmlns="http://www.w3.org/2000/svg" width="33.264" height="33.264" viewBox="0 0 33.264 33.264">
  <g id="Arrow" transform="translate(0.368)">
    <g id="Group_1352" data-name="Group 1352" transform="translate(-0.368)">
      <g id="Group_1351" data-name="Group 1351">
        <path id="Path_1098" data-name="Path 1098" d="M16.632,0A16.632,16.632,0,1,0,33.264,16.632,16.65,16.65,0,0,0,16.632,0Zm0,30.687A14.055,14.055,0,1,1,30.687,16.632,14.072,14.072,0,0,1,16.632,30.687Z" fill="#38ada2"/>
      </g>
    </g>
    <path id="Path_9772" data-name="Path 9772" d="M10,17.973a1.049,1.049,0,0,1-.64-.213A.908.908,0,0,1,9,17.132a.882.882,0,0,1,.228-.678l4.48-4.968L9.39,6.509a.881.881,0,0,1-.218-.682A.911.911,0,0,1,9.54,5.2a1.053,1.053,0,0,1,.763-.226,1.021,1.021,0,0,1,.7.365L15.83,10.9a.875.875,0,0,1,0,1.177l-5,5.561A1.037,1.037,0,0,1,10,17.973Z" transform="translate(4.134 5.159)" fill="#38ada2" stroke="#37ada1" stroke-width="0.5"/>
  </g>
</svg>
