<svg xmlns="http://www.w3.org/2000/svg" xmlns:xlink="http://www.w3.org/1999/xlink" width="64" height="62" viewBox="0 0 64 62"><defs><style>.a,.b,.d{fill:#26a59a;}.a{stroke:#707070;}.b{opacity:0.05;}.c{clip-path:url(#a);}</style><clipPath id="a"><rect class="a" width="40" height="40" transform="translate(981 196)"/></clipPath></defs><g transform="translate(-969 -185)"><path class="b" d="M4,0H64a0,0,0,0,1,0,0V62a0,0,0,0,1,0,0H4a4,4,0,0,1-4-4V4A4,4,0,0,1,4,0Z" transform="translate(969 185)"/><g class="c"><g transform="translate(981 196)"><path class="d" d="M.669,37.332h2v2A.667.667,0,0,0,3.336,40h28A.667.667,0,0,0,32,39.332V36.665H30.667v2H4V37.332H19.335V36h-18V7.334H6.669a.667.667,0,0,0,.667-.667V1.335H28V14h1.333V4h1.333V15.334H32v-12a.667.667,0,0,0-.667-.667h-2v-2A.667.667,0,0,0,28.667,0h-22c-.013,0-.025.007-.039.008a.626.626,0,0,0-.178.035c-.02.006-.039.013-.058.021A.656.656,0,0,0,6.2.2l-6,6a.664.664,0,0,0-.133.2c-.009.021-.015.041-.022.062a.629.629,0,0,0-.034.171c0,.015-.009.027-.009.042v30a.667.667,0,0,0,.669.667ZM6,2.277V6H2.278Zm0,0"/><path class="d" d="M20.668,14.667V14H26V10.667a2,2,0,0,0-1.823-1.989A1.335,1.335,0,0,0,24,8.667H5.336a2,2,0,0,0-2,2V32a2,2,0,0,0,2,2h10V32.666H8.669v-2H14V29.333H8.669v-2h4.666V26H8.669V24h4.8V22.666h-4.8v-2h6V19.333h-6v-2h8.666V16H8.669V14H19.335v.667Zm3.388-4.661a.662.662,0,0,1,.612.662v2h-4V10h3.305a.706.706,0,0,0,.083.009ZM5.336,10h2v2.666H4.669v-2A.667.667,0,0,1,5.336,10Zm2,22.665h-2A.667.667,0,0,1,4.669,32V30.666H7.335Zm0-3.333H4.669v-2H7.335Zm0-3.333H4.669V24H7.335Zm0-3.333H4.669v-2H7.335Zm0-3.333H4.669v-2H7.335Zm0-3.333H4.669V14H7.335Zm1.333-3.333V10l10.666,0v2.67Zm0,0"/><path class="d" d="M10,6h5.333V7.334H10Zm0,0"/><path class="d" d="M16.668,6h2.666V7.334H16.668Zm0,0"/><path class="d" d="M10,3.334h9.333V4.668H10Zm0,0"/><path class="d" d="M34.471,31.528l-.085.085a10.71,10.71,0,1,0-2.746,2.969l4.808,4.808a2.081,2.081,0,1,0,2.942-2.942ZM16,26a9.333,9.333,0,1,1,9.333,9.333A9.333,9.333,0,0,1,16,26ZM37.919,38.665a.744.744,0,0,1-.529-.218l-4.724-4.723a10.673,10.673,0,0,0,1.013-1.1l4.768,4.768a.747.747,0,0,1-.528,1.276Zm0,0"/><path class="d" d="M25.334,18a8,8,0,1,0,8,8,8,8,0,0,0-8-8Zm-2.666,8a2.666,2.666,0,1,1,2.666,2.666A2.667,2.667,0,0,1,22.668,26Zm-.775,2.027A8.093,8.093,0,0,1,18.879,26a8.1,8.1,0,0,1,3.013-2.027,3.962,3.962,0,0,0,0,4.054Zm6.884-4.054A8.094,8.094,0,0,1,31.789,26a8.09,8.09,0,0,1-3.013,2.027,3.962,3.962,0,0,0,0-4.054Zm-3.442-4.639a6.674,6.674,0,0,1,6.4,4.809,10.17,10.17,0,0,0-5.985-2.121,3.972,3.972,0,0,0-.825,0,10.17,10.17,0,0,0-5.989,2.121,6.674,6.674,0,0,1,6.4-4.809Zm0,13.332a6.674,6.674,0,0,1-6.4-4.809,10.172,10.172,0,0,0,5.985,2.121,4.021,4.021,0,0,0,.825,0,10.172,10.172,0,0,0,5.989-2.121,6.673,6.673,0,0,1-6.4,4.809Zm0,0"/><path class="d" d="M26.667,26a1.333,1.333,0,1,1-1.333-1.333A1.333,1.333,0,0,1,26.667,26Zm0,0"/></g></g></g></svg>