<svg xmlns="http://www.w3.org/2000/svg" width="525.285" height="240.279" viewBox="0 0 525.285 240.279">
  <g id="Group_7192" data-name="Group 7192" transform="translate(-1063.715 -208.041)">
    <path id="Path_13999" data-name="Path 13999" d="M1133.466,3136s-59.364-107.137,57.635-107.137c61.818,0,36.352-29.395,78.38-63.414s189.01-61.2,220.293,4.494-46.03,115.568,28.678,107.012c89.775-10.281,125.239,59.045,125.239,59.045Z" transform="translate(-54.692 -2687.684)" fill="#c9f7ee"/>
    <g id="Group_7169" data-name="Group 7169" transform="translate(1160.883 431.963)">
      <g id="Group_7168" data-name="Group 7168">
        <rect id="Rectangle_2872" data-name="Rectangle 2872" width="72.435" height="16.356" transform="translate(22.334 0.001)" fill="#58ccc1"/>
        <rect id="Rectangle_2873" data-name="Rectangle 2873" width="72.434" height="16.357" fill="#38ada2"/>
      </g>
    </g>
    <g id="Group_7172" data-name="Group 7172" transform="translate(1267.516 372.928)">
      <g id="Group_7171" data-name="Group 7171" transform="translate(0 0)">
        <g id="Group_7170" data-name="Group 7170" transform="translate(0 0)">
          <rect id="Rectangle_2874" data-name="Rectangle 2874" width="53.936" height="75.389" transform="translate(70.566 75.389) rotate(180)" fill="#cc6d6d"/>
          <rect id="Rectangle_2875" data-name="Rectangle 2875" width="53.936" height="75.389" transform="translate(53.936 75.389) rotate(180)" fill="#db422d"/>
        </g>
      </g>
      <path id="Path_14001" data-name="Path 14001" d="M2511.654,3636.777l16.63,11.32v-11.32Z" transform="translate(-2457.719 -3636.777)" fill="#a83f3f"/>
    </g>
    <g id="Group_7176" data-name="Group 7176" transform="translate(1268.821 236.963)">
      <path id="Path_14011" data-name="Path 14011" d="M2557.519,3043.045c-.833-.126-3.346,2.2-3.346,2.2h0c-5.365.62-13.209,2.045-16.032,2.588-2,.386-7.385-1.45-12.644-3.557-6.254-2.507-12.331-5.4-12.331-5.4-3.47-.177-7.411,6.155-.374,10.18,1.074.615,5.111,1.663,9.759,2.62h0c6.412,1.321,13.987,2.468,16.566,2.065,3-.469,11.474-3.57,16.517-5.946h0l.013-.006.056-.027a6.167,6.167,0,0,1,2.361-.643c.945.056,3.049-1.673,3.113-2.135S2558.353,3043.172,2557.519,3043.045Z" transform="translate(-2456.764 -3013.512)" fill="#ea8888"/>
      <path id="Path_14012" data-name="Path 14012" d="M2503.066,3253.194l-2.954.6s-13.518-15.189-15.6-21.581c-1.116-3.415-8.253-4.891-15.711-6.82-6.492-1.678-13.227-3.7-16.443-7.646-6.914-8.478,4.342-18.894,4.342-18.894s11.968,7.113,22.292,14.461c7.217,5.135,13.63,10.385,14.6,13.4C2495.931,3234.055,2500.908,3248,2503.066,3253.194Z" transform="translate(-2408.862 -3143.901)" fill="#0b0754"/>
      <path id="Path_14013" data-name="Path 14013" d="M2709.061,3493.147h1.662c.557-.087.967-.249,1.538-.323a1.54,1.54,0,0,1,1.345.323l.016.017h7.058c.178-.253.008-.841-.16-1.273a1,1,0,0,0-.661-.6,7.616,7.616,0,0,1-3.576-1.634c-.76-.687-3.671-2.526-3.671-2.526l-.016,0c-.064,0-.368.094-1.692,1.212-.685.577-1.851-.814-1.851-.814a1.67,1.67,0,0,0-.383.519,1.757,1.757,0,0,0-.151,1.083,7.025,7.025,0,0,1-.506,2.618c-.165.484-.3.828-.3.828S2707.631,3492.969,2709.061,3493.147Z" transform="translate(-2618.81 -3378.844)" fill="#060632"/>
      <path id="Path_14014" data-name="Path 14014" d="M2478.987,3213.315l-10.19,12.079c-6.492-1.678-13.227-3.7-16.443-7.646-6.914-8.478,4.342-18.894,4.342-18.894S2468.663,3205.967,2478.987,3213.315Z" transform="translate(-2408.862 -3143.901)" fill="#060632"/>
      <path id="Path_14015" data-name="Path 14015" d="M2411.51,3222.7s-.822,2.591-2.159,6.489c-1.691,4.928-4.21,11.945-6.943,18.453-.6,1.43-1.211,2.836-1.826,4.189-2.272,5.008-4.6,9.3-6.646,11.482-3.68,3.921-12.625,29.134-12.625,29.134l-2.229-.617s-3.108-21.529,7.9-33.78a.78.78,0,0,0,.223-.457.006.006,0,0,0,0-.005c.146-1.813.67-9.934,1.811-18.163.28-2.019.6-4.043.954-5.982.022-.124.046-.247.068-.369,1.675-8.968,3.279-12.957,5.348-14.963l15.221,4.333Z" transform="translate(-2350.645 -3159.597)" fill="#0b0754"/>
      <path id="Path_14016" data-name="Path 14016" d="M2373.567,3610.151h1.662c.556-.087.968-.249,1.538-.323a1.54,1.54,0,0,1,1.345.323l.015.017h7.059c.178-.253.007-.841-.16-1.273a1,1,0,0,0-.661-.6,7.615,7.615,0,0,1-3.575-1.633c-.76-.687-3.671-2.526-3.671-2.526l-.015,0c-.064,0-.368.095-1.692,1.213-.684.577-1.851-.815-1.851-.815a1.674,1.674,0,0,0-.383.519,1.755,1.755,0,0,0-.151,1.083,7.029,7.029,0,0,1-.505,2.618c-.165.484-.3.828-.3.828S2372.137,3609.973,2373.567,3610.151Z" transform="translate(-2345.379 -3474.203)" fill="#060632"/>
      <path id="Path_14017" data-name="Path 14017" d="M2258.6,3080.272s-2.546,6.23-5.483,12.294c-2.47,5.1-5.214,10.08-6.954,11.143-2.454,1.5-9.213,5.727-13.6,8.88,0,0-3.421-.026-3.953.629s-1.758,3.6-1.4,3.9,3.078.16,3.739-.518a6.173,6.173,0,0,1,2.179-1.115l.059-.018.014,0h0c5.328-1.639,13.685-5.054,16.215-6.724,2.178-1.438,7.007-7.386,10.859-12.68h0c2.792-3.837,5.071-7.331,5.451-8.508C2268.223,3079.833,2261.046,3077.8,2258.6,3080.272Z" transform="translate(-2227.147 -3046.447)" fill="#fc9290"/>
      <path id="Path_14018" data-name="Path 14018" d="M2405.07,2911.19a12.856,12.856,0,0,0-.913-1.179,2.865,2.865,0,0,0,1.124-.169c.894-.37,1.3-3.208,1.167-4.05s-1.376-3.276-2.907-3.519-3.114,1.458-3.114,1.458c.283-1.228,2.874-1.936,2.874-1.936-5.336.984-5.064,4.543-5.027,4.872-4.885-1.74-7.753,7.459-7.753,7.459l12.653,7.457s.033-2.032,1.241-1.9C2406.3,2919.888,2407.865,2915.265,2405.07,2911.19Z" transform="translate(-2360.298 -2901.797)" fill="#0b0754"/>
      <path id="Path_14019" data-name="Path 14019" d="M2432.865,3012.329c-2.9,1.368-6.757-.6-6.736-.624.249-.249.162-.994-.067-1.969a14.351,14.351,0,0,0-1.762-4.065c-.208-.353-.415-.7-.664-1.078l.332-.124,5.641-2.26s.913,1.638,1.867,3.131c.809,1.245,1.659,2.365,2.032,2.323C2433.529,3007.642,2437.261,3010.213,2432.865,3012.329Z" transform="translate(-2387.288 -2983.633)" fill="#fc9290"/>
      <path id="Path_14020" data-name="Path 14020" d="M2432.533,3005.234c-.145,2.011-.83,5.641-3.546,6.968a14.352,14.352,0,0,0-1.762-4.065Z" transform="translate(-2390.212 -2986.099)" fill="#ea8888"/>
      <path id="Path_14021" data-name="Path 14021" d="M2397.868,2970.8s7.344-2.895,5.471-7.44-2.187-7.981-6.955-6.324-4.958,3.763-4.7,5.432S2395.91,2971.434,2397.868,2970.8Z" transform="translate(-2361.186 -2946.471)" fill="#fc9290"/>
      <path id="Path_14022" data-name="Path 14022" d="M2396.62,2960.232c3.391-.479,4.381-1.849,4.381-1.849a9.392,9.392,0,0,1-4.958-3.955s-3.811-1.285-6.635.864a1.9,1.9,0,0,0-.357.8c-.647-.212-1.621-.157-2.182,1.673-.844,2.749,2.158,5.75,2.158,5.75.728-.206-.093-2.655-.208-3.962a6.181,6.181,0,0,1,.715-2.778c.359.466,3.937,4.962,8.3,5.141a18.418,18.418,0,0,1-4.407-2.366A5.635,5.635,0,0,0,2396.62,2960.232Z" transform="translate(-2357.199 -2944.381)" fill="#0b0754"/>
      <path id="Path_14023" data-name="Path 14023" d="M2408.623,3042.381c-.062-.219-.129-.447-.2-.68a17.218,17.218,0,0,0,1.853-5.554,11.148,11.148,0,0,0-.352-5.434s-5.094-2.7-7.344-3.045a.1.1,0,0,0-.028-.008c-.026,0-.057-.007-.09-.009-2.271-.313-7.186.69-7.186.69a3.557,3.557,0,0,1-1.727,4.207c-2.675,1.683-5.532-.431-5.532-.431-.086.058-.178.122-.272.188h0s-7.039,4.644-7.671,5.706-3.339,6.316-3.339,6.316.858,4.411,10.367,4.78a21.97,21.97,0,0,1,1.574,5.288c.756,5.989-.121,10.712.759,14.208s16.745,1.5,19.618.83,2.227-3.741,2.448-6.721C2411.781,3058.967,2409.559,3045.685,2408.623,3042.381Z" transform="translate(-2349.064 -3004.32)" fill="#38ada2"/>
      <path id="Path_14024" data-name="Path 14024" d="M2537.036,3067.811a17.234,17.234,0,0,1-1.866,5.579c-.249-1.1-1.265-5.122-2.9-6.948A14.056,14.056,0,0,1,2537.036,3067.811Z" transform="translate(-2475.822 -3035.984)" fill="#3e9d94"/>
    </g>
    <g id="Group_7180" data-name="Group 7180" transform="translate(1181.404 273.896)">
      <path id="Path_14025" data-name="Path 14025" d="M2208.72,3263.787a50.011,50.011,0,0,1,3.592-4.005,10.9,10.9,0,0,1,3.588-1.016c.16.149.167.366-.179.672s-1.666,1.075-1.478,1.163,4.172-1.9,4.746-1.229-.325,3.42-1.86,4.74-6.117,1.883-6.4,2.067C2208.281,3267.74,2208.72,3263.787,2208.72,3263.787Z" transform="translate(-2124.687 -3229.647)" fill="#ea8888"/>
      <path id="Path_14026" data-name="Path 14026" d="M1927.552,3199.52s4.246,5.038,9.654,2.931a16.382,16.382,0,0,0,1.18-4.888c0-.255,0-.5.009-.738.029-2.335.108-3.646.108-3.646h-.006c-.246-.1-8.266-3.4-8.26-3.122C1930.375,3196.373,1927.552,3199.52,1927.552,3199.52Z" transform="translate(-1895.557 -3173.651)" fill="#fc9290"/>
      <path id="Path_14027" data-name="Path 14027" d="M1946.4,3198.01a12.546,12.546,0,0,0,7.352,5.263c.029-2.336.108-3.646.108-3.646h-.006C1953.628,3199.566,1946.165,3197.587,1946.4,3198.01Z" transform="translate(-1910.91 -3180.098)" fill="#ea8888"/>
      <path id="Path_14028" data-name="Path 14028" d="M1944.626,3140.2s-9.02,2.121-10.254-3.517-3.229-9.16,2.478-10.752,7.3.313,8.169,2.094S1946.94,3139.508,1944.626,3140.2Z" transform="translate(-1900.001 -3120.92)" fill="#fc9290"/>
      <path id="Path_14029" data-name="Path 14029" d="M1914.429,3118.752c-.123.079-2.064.675-5.74-6.647a6.377,6.377,0,0,1,.375-5.833c1.345-2.2,6.114-3.924,10.076-4.676s4.913,1.477,5.846,3.718a12.1,12.1,0,0,0,3.808,4.288c-3.417,1.909-7.531-.821-8.958-.372s-1.929,2.7-2.036,3.416-.271,1.319-2.064.675-.811,2.541-.523,3.149C1915.214,3116.471,1915.457,3118.093,1914.429,3118.752Z" transform="translate(-1879.75 -3101.447)" fill="#9e332e"/>
      <g id="Group_7177" data-name="Group 7177" transform="translate(0 69.248)">
        <path id="Path_14030" data-name="Path 14030" d="M1766.044,3895.679h-5.462c-1.145,0-2.417-1.162-2.735-3.289s-2.672-3.289-3.181-5.03,2.1-4.192,2.1-4.192l.436-.568.454-.592,4.326,1.031s.107,1.044.174,2.374c.046.959.072,2.07.018,3.043-.127,2.321.641,4.821,2.677,5.273S1766.044,3895.679,1766.044,3895.679Z" transform="translate(-1754.599 -3806.86)" fill="#060632"/>
        <path id="Path_14031" data-name="Path 14031" d="M1953.836,3920.438h-14.477a1.282,1.282,0,0,1-.307-.092c-.967-.5-.664-4.309-.548-5.485.022-.218.038-.346.038-.346s5.091-4.192,5.791-.982c.022.1.048.2.075.3h0c.884,3,4.834,4.367,7.116,4.748A2.509,2.509,0,0,1,1953.836,3920.438Z" transform="translate(-1904.371 -3831.566)" fill="#060632"/>
        <path id="Path_14032" data-name="Path 14032" d="M1911.048,3497.752s-.773,9.646-1.682,21.24c-1.235,15.751-2.72,35.1-2.867,38.763-.254,6.365-1.273,16.545-1.273,16.545s-2.417,2.419-7.254,1.4a166.532,166.532,0,0,1-5.542-29.909c-.019-.252-.038-.506-.057-.759-1.145-15.653-2.927-48.615-2.927-48.615Z" transform="translate(-1864.502 -3492.599)" fill="#db422d"/>
        <path id="Path_14033" data-name="Path 14033" d="M1911.048,3497.752s-.773,9.646-1.682,21.24l-16.936,26.8c-.019-.252-.038-.506-.057-.759-1.145-15.653-2.927-48.615-2.927-48.615Z" transform="translate(-1864.502 -3492.599)" fill="#e75755"/>
        <path id="Path_14034" data-name="Path 14034" d="M1807.156,3482.079s-13.935,34.933-23.1,51.35-12.026,21-12.026,21-5.25-2.1-5.727-3.531c0,0,3.5-31.693,9.64-39.419,3.467-4.365,7.54-17.466,7.731-22.048s1.241-13.649,1.241-13.649Z" transform="translate(-1764.14 -3475.779)" fill="#db422d"/>
      </g>
      <g id="Group_7178" data-name="Group 7178" transform="translate(4.283 26.427)">
        <path id="Path_14035" data-name="Path 14035" d="M1784.579,3470.789a47.238,47.238,0,0,1-.625,5.033,10.3,10.3,0,0,1-2.23,2.717c-.2-.03-.326-.194-.223-.616s.711-1.729.519-1.7-2.209,3.712-3.012,3.505-1.588-2.823-1.111-4.67,3.721-4.748,3.845-5.046C1782.792,3467.493,1784.579,3470.789,1784.579,3470.789Z" transform="translate(-1777.751 -3427.487)" fill="#ea8888"/>
        <path id="Path_14036" data-name="Path 14036" d="M1798.124,3288.713c1.543.5,1.79.383,1.79.383s7.507-13.668,8.268-14.919,15.939-15.327,15.939-15.327l-3.9-14.546s-17.264,22.356-19.128,25.564c-3.081,5.3-4.886,17.613-4.886,17.613A4.515,4.515,0,0,0,1798.124,3288.713Z" transform="translate(-1792.791 -3244.304)" fill="#060632"/>
      </g>
      <path id="Path_14037" data-name="Path 14037" d="M1890.675,3250.231c-.054,2.987-.228,6.345-.462,9.756q-.022.3-.043.606c-.15,2.113-.312,4.231-.5,6.3-.075.828-.154,1.646-.237,2.45l-.013.109c-.006.3-.043.627-.076.925-.761,7.735-1.559,13.846-1.707,13.94a.867.867,0,0,1-.594.152c-2.028-.255-8.081.205-13.036-.873a37.56,37.56,0,0,1-11.6-4.809c-.506-.3-1.661-1.092-1.567-1.685.092-.651.263-1.593.479-2.776a150.154,150.154,0,0,0,2.492-19.475q.129-2.315.374-4.565a69.272,69.272,0,0,1,2.021-10.9c1.7-6.117,4.2-10.8,7.328-12.635.409-.229,2.611,1.172,4.634,2.47a8.929,8.929,0,0,0,5.746,1.361l1.683,1.861a18.8,18.8,0,0,1,4.8,10.008q.067.5.115,1.057A65.736,65.736,0,0,1,1890.675,3250.231Z" transform="translate(-1841.187 -3203.547)" fill="#120e59"/>
      <path id="Path_14038" data-name="Path 14038" d="M1960.983,3309.035c-.054,2.988-.228,6.345-.462,9.756q-.022.3-.043.607c-11.587-7.253-13.372-20.525-13.372-20.525a31.694,31.694,0,0,1,13.719,3.435A65.624,65.624,0,0,1,1960.983,3309.035Z" transform="translate(-1911.494 -3262.351)" fill="#060632"/>
      <g id="Group_7179" data-name="Group 7179" transform="translate(34.58 29.409)">
        <path id="Path_14039" data-name="Path 14039" d="M1992.739,3265.51c-.6-1.616-1.526-1.511-1.526-1.511s-17.228,4.293-18.774,4.478-18.552-6.64-18.552-6.64-6.693-3-9.829-.261a7.49,7.49,0,0,0-2.211,7.939,7.58,7.58,0,0,0,6.407,5.648c6.938.884,20.781,2.547,23.682,2.143,6.457-.9,21.089-9.345,21.089-9.345A5.424,5.424,0,0,0,1992.739,3265.51Z" transform="translate(-1941.528 -3260.421)" fill="#120e59"/>
      </g>
    </g>
    <g id="man" transform="translate(1351.865 208.041)">
      <g id="Group_7181" data-name="Group 7181" transform="translate(41.783 61.755)">
        <path id="Path_14040" data-name="Path 14040" d="M3098.473,3454s2.393,2.219,1.926,3.795-2.627,2.627-2.919,4.553-1.459,2.977-2.51,2.977h-5.01s-.773-1.355,1.095-1.764,2.573-2.672,2.456-4.774a37.582,37.582,0,0,1,.175-4.9l3.97-.934Z" transform="translate(-3055.045 -3383.825)" fill="#0b0754"/>
        <path id="Path_14041" data-name="Path 14041" d="M2915.515,3486.939a9.206,9.206,0,0,1-2.267.262h-11.329c.038-.337.3-1.538,2.154-1.837,2.093-.34,5.719-1.556,6.527-4.233.027-.085.05-.175.07-.262.642-2.86,5.312.875,5.312.875s.014.115.034.31C2916.125,3483.1,2916.4,3486.5,2915.515,3486.939Z" transform="translate(-2901.919 -3405.7)" fill="#0b0754"/>
        <path id="Path_14042" data-name="Path 14042" d="M2916.565,3099.44s.709,8.85,1.543,19.488c1.133,14.45,2.5,32.2,2.63,35.563.233,5.839,1.168,15.179,1.168,15.179s2.218,2.219,6.656,1.284a152.831,152.831,0,0,0,5.084-27.44c.018-.231.035-.464.052-.7,1.051-14.362,2.685-44.6,2.685-44.6Z" transform="translate(-2913.856 -3094.712)" fill="#6c63ff"/>
        <path id="Path_14043" data-name="Path 14043" d="M2916.565,3099.44s.709,8.85,1.543,19.488l15.538,24.585c.018-.231.035-.464.052-.7,1.051-14.362,2.685-44.6,2.685-44.6Z" transform="translate(-2913.856 -3094.712)" fill="#675fe8"/>
        <path id="Path_14044" data-name="Path 14044" d="M2934.076,3085.059s12.784,32.05,21.191,47.111,11.033,19.265,11.033,19.265,4.816-1.927,5.254-3.24c0,0-3.215-29.078-8.844-36.166-3.181-4.005-6.918-16.025-7.093-20.229s-1.138-12.522-1.138-12.522Z" transform="translate(-2928.127 -3079.279)" fill="#6c63ff"/>
      </g>
      <g id="Group_7182" data-name="Group 7182" transform="translate(0 24.594)">
        <path id="Path_14045" data-name="Path 14045" d="M2684.353,3013.232a38.43,38.43,0,0,0-4.052-.753,8.346,8.346,0,0,0-2.652,1.06c-.027.165.07.3.422.324s1.514-.125,1.44.015-3.418.8-3.455,1.471,1.8,1.924,3.344,2.008,4.592-1.715,4.853-1.738C2686.466,3015.426,2684.353,3013.232,2684.353,3013.232Z" transform="translate(-2676.055 -2987.674)" fill="#fc9290"/>
        <path id="Path_14046" data-name="Path 14046" d="M2711.152,2904.837c-.5-1.584-.381-1.836-.381-1.836s14.058-7.6,15.344-8.372,15.814-16.23,15.814-16.23l14.88,4.1s-23.027,17.541-26.326,19.43c-5.453,3.121-18.082,4.888-18.082,4.888A4.625,4.625,0,0,1,2711.152,2904.837Z" transform="translate(-2704.339 -2878.398)" fill="#db422d"/>
      </g>
      <path id="Path_14047" data-name="Path 14047" d="M2850.336,2807.288s-5.216,9.178-10.315,10.376a13.929,13.929,0,0,1,1.453-5.192c-.509-.6-.955-1.15-1.341-1.643a30.823,30.823,0,0,1-1.894-2.651l1.73-4.653,1.174-3.156a15.184,15.184,0,0,0,1.835,2.644A12.483,12.483,0,0,0,2850.336,2807.288Z" transform="translate(-2808.237 -2790.21)" fill="#fc9290"/>
      <path id="Path_14048" data-name="Path 14048" d="M2842.979,2814.654a9.682,9.682,0,0,1-2.845,7.816,30.823,30.823,0,0,1-1.894-2.651l1.73-4.653A9.9,9.9,0,0,1,2842.979,2814.654Z" transform="translate(-2808.237 -2801.851)" fill="#ea8888"/>
      <path id="Path_14049" data-name="Path 14049" d="M2801.75,2780.016s7.794-3.039,5.827-7.864-2.286-8.466-7.345-6.73-5.27,3.969-5,5.738S2799.672,2780.681,2801.75,2780.016Z" transform="translate(-2773.122 -2761.369)" fill="#fc9290"/>
      <path id="Path_14050" data-name="Path 14050" d="M2882.7,2879.227c-3.145,4.521-26.652,10.561-26.373,7.431a33.957,33.957,0,0,0,0-6.171q-.088-1.006-.25-2.132a49.162,49.162,0,0,0-5.18-15.517c-.237-.459-.484-.92-.74-1.388a47.8,47.8,0,0,1-3.26-7.323c-1.629-4.707-2.285-9.21-1.464-12.154,0-.015.009-.027.013-.042,4.914-2.271,6.818-11.084,6.818-11.084s16.765,3.01,26.155,25.356C2878.415,2856.2,2885.434,2875.293,2882.7,2879.227Z" transform="translate(-2813.808 -2815.049)" fill="#db422d"/>
      <path id="Path_14051" data-name="Path 14051" d="M2881.952,2963.9q-.088-1.006-.25-2.132a49.175,49.175,0,0,0-5.18-15.517c.543-3.293,1.293-6.032,2.116-7.264,3.344-5.011,5.291-5.794,5.291-5.794S2888.944,2954.335,2881.952,2963.9Z" transform="translate(-2839.438 -2898.46)" fill="#e75755"/>
      <g id="Group_7183" data-name="Group 7183" transform="translate(6.42 20.191)">
        <path id="Path_14052" data-name="Path 14052" d="M2720.427,3071.987a50.067,50.067,0,0,0-5.356.5,10.919,10.919,0,0,0-2.952,2.278c.026.217.2.352.646.256s1.856-.7,1.813-.5-4.007,2.224-3.812,3.082,2.942,1.775,4.917,1.327,5.153-3.794,5.473-3.916C2723.865,3073.987,2720.427,3071.987,2720.427,3071.987Z" transform="translate(-2710.759 -3031.772)" fill="#fc9290"/>
        <path id="Path_14053" data-name="Path 14053" d="M2756.122,2896.571c-.929-1.5-.259-2.186-.259-2.186s14.326-11.217,15.449-12.35,6.325-19.177,6.325-19.177,1.79-7.3,5.983-8.108a7.676,7.676,0,0,1,7.809,3.216,7.769,7.769,0,0,1,.526,8.737c-3.658,6.164-11.037,18.4-13.192,20.489-4.8,4.652-20.841,11.153-20.841,11.153A5.558,5.558,0,0,1,2756.122,2896.571Z" transform="translate(-2747.328 -2854.597)" fill="#db422d"/>
      </g>
      <path id="Path_14054" data-name="Path 14054" d="M2795.9,2747.272c.055-.108.214-.223.6-.341a1.62,1.62,0,0,0-.784-.029,2.062,2.062,0,0,0-1.748-1.45,1.229,1.229,0,0,1,.783.722c-1.367-.867-3.9-1.118-10.227.989-8.338,2.777-4.172,7.617-2.909,8s3.59-2.1,5.683-2.442,3.224,2.575,4.021,2.816.344-.421,1.179-1.086,1.315.9,1.3,2,1.61,2.137,1.61,2.137l.955-1.752c.955-1.752.7-8.113-.217-9.258Z" transform="translate(-2760.323 -2745.451)" fill="#0b0754"/>
    </g>
    <path id="Path_14055" data-name="Path 14055" d="M2057.556,3954.911v9.436l-22.335-9.436Z" transform="translate(-801.905 -3523.131)" fill="#6ceade"/>
    <rect id="Rectangle_2877" data-name="Rectangle 2877" width="73.865" height="97.018" transform="translate(1372.93 351.297)" fill="#58ccc1"/>
    <rect id="Rectangle_2878" data-name="Rectangle 2878" width="73.866" height="97.018" transform="translate(1350.154 351.299)" fill="#38ada2"/>
    <path id="Path_14056" data-name="Path 14056" d="M3088.877,3519.853v14.507l-22.774-14.507Z" transform="translate(-1642.083 -3168.555)" fill="#6ceade"/>
  </g>
</svg>
