<svg id="Blog_teal" data-name="Blog teal" xmlns="http://www.w3.org/2000/svg" xmlns:xlink="http://www.w3.org/1999/xlink" width="16.667" height="19.898" viewBox="0 0 16.667 19.898">
  <defs>
    <clipPath id="clip-path">
      <rect id="Rectangle_2645" data-name="Rectangle 2645" width="16.667" height="19.898" fill="#26a59a"/>
    </clipPath>
  </defs>
  <g id="Group_5532" data-name="Group 5532" clip-path="url(#clip-path)">
    <path id="Path_9421" data-name="Path 9421" d="M2.2,19.9a.8.8,0,0,1-.467-.846c.015-.764,0-1.528.006-2.292a.186.186,0,0,0-.137-.213A2.313,2.313,0,0,1,.007,14.256C0,10.649-.007,7.042.01,3.436A3.257,3.257,0,0,1,2.078.255,2.868,2.868,0,0,1,3.186.016Q8.3-.011,13.424.009a3.282,3.282,0,0,1,3.243,3.349c0,.356,0,.712,0,1.068,0,.545-.223.77-.763.771H14.091v.261q0,4.4,0,8.8a2.329,2.329,0,0,1-1.794,2.35,2.988,2.988,0,0,1-.692.068c-1.586.006-3.173,0-4.759.008a.579.579,0,0,0-.33.113c-1.2.94-2.4,1.889-3.6,2.831a4.29,4.29,0,0,1-.442.27ZM12.847,5.2H6.114c-.543,0-.766-.227-.772-.764a11.639,11.639,0,0,0-.047-1.511A1.878,1.878,0,0,0,4,1.381a1.9,1.9,0,0,0-2.04.4,2.209,2.209,0,0,0-.713,1.737q.006,5.332,0,10.664c0,.039,0,.078,0,.117a1.1,1.1,0,0,0,1.081,1.14.632.632,0,0,1,.646.713c0,.55,0,1.1,0,1.651,0,.053.008.106.014.18.086-.065.148-.111.208-.159.905-.713,1.813-1.423,2.713-2.142a1.083,1.083,0,0,1,.714-.245q2.486.008,4.973,0A1.665,1.665,0,0,0,12,15.4a1.093,1.093,0,0,0,.844-1.151q0-4.429,0-8.858V5.2m2.571-1.256c0-.243.009-.475,0-.706a2.041,2.041,0,0,0-2.07-1.987q-3.651-.007-7.3,0c-.047,0-.094.009-.166.017a3.672,3.672,0,0,1,.7,2.677Z" transform="translate(0 0)" fill="#26a59a"/>
    <path id="Path_9422" data-name="Path 9422" d="M68.261,146.308q-1.778,0-3.555,0c-.329,0-.528-.159-.548-.427a.44.44,0,0,1,.338-.477,1.023,1.023,0,0,1,.249-.026q3.526,0,7.052,0a.845.845,0,0,1,.385.1.4.4,0,0,1,.186.434.411.411,0,0,1-.3.363,1.014,1.014,0,0,1-.287.034q-1.758,0-3.516,0" transform="translate(-61.034 -138.3)" fill="#26a59a"/>
    <path id="Path_9423" data-name="Path 9423" d="M68.2,199.8H64.687a.538.538,0,0,1-.482-.195.453.453,0,0,1,.232-.706.961.961,0,0,1,.268-.032q3.526,0,7.052,0a.848.848,0,0,1,.385.1.4.4,0,0,1,.187.434.41.41,0,0,1-.3.364,1,1,0,0,1-.287.034q-1.768,0-3.536,0" transform="translate(-60.995 -189.193)" fill="#26a59a"/>
    <path id="Path_9424" data-name="Path 9424" d="M68.258,252.364h3.536c.34,0,.541.159.559.437a.439.439,0,0,1-.328.466.886.886,0,0,1-.23.029q-3.555,0-7.11,0a.854.854,0,0,1-.229-.031.453.453,0,0,1,0-.868,1.121,1.121,0,0,1,.287-.032q1.758,0,3.516,0" transform="translate(-61.012 -240.082)" fill="#26a59a"/>
  </g>
</svg>
