<svg xmlns="http://www.w3.org/2000/svg" xmlns:xlink="http://www.w3.org/1999/xlink" width="19" height="19" viewBox="0 0 19 19">
  <defs>
    <clipPath id="clip-path">
      <rect id="Rectangle_863" data-name="Rectangle 863" width="19" height="19" transform="translate(751.184 401.184)" fill="#db422d" stroke="#707070" stroke-width="1"/>
    </clipPath>
  </defs>
  <g id="CAL" transform="translate(-751.184 -401.184)" clip-path="url(#clip-path)">
    <g id="calendar" transform="translate(751.032 401.032)">
      <path id="Path_1118" data-name="Path 1118" d="M16.815,1.508H15.081V.6a.6.6,0,0,0-1.206,0v.9H5.429V.6A.6.6,0,1,0,4.223.6v.9H2.488A2.491,2.491,0,0,0,0,4V16.815A2.491,2.491,0,0,0,2.488,19.3H16.815A2.491,2.491,0,0,0,19.3,16.815V4A2.491,2.491,0,0,0,16.815,1.508ZM18.1,16.815A1.282,1.282,0,0,1,16.815,18.1H2.488a1.282,1.282,0,0,1-1.282-1.282V6.824a.189.189,0,0,1,.189-.189H17.908a.189.189,0,0,1,.189.189Z" fill="#db422d"/>
    </g>
  </g>
</svg>
