<svg xmlns="http://www.w3.org/2000/svg" xmlns:xlink="http://www.w3.org/1999/xlink" width="40" height="40" viewBox="0 0 40 40">
  <defs>
    <clipPath id="clip-path">
      <rect id="Rectangle_2116" data-name="Rectangle 2116" width="40" height="40" transform="translate(640 293)" fill="#db422d" stroke="#707070" stroke-width="1"/>
    </clipPath>
  </defs>
  <g id="Mask_Group_89" data-name="Mask Group 89" transform="translate(-640 -293)" clip-path="url(#clip-path)">
    <g id="badge" transform="translate(640 293)">
      <g id="Group_4623" data-name="Group 4623">
        <path id="Path_1494" data-name="Path 1494" d="M35.345,16.424a3.091,3.091,0,0,0-.356-3.842,1.931,1.931,0,0,1-.494-1.736,3.091,3.091,0,0,0-1.72-3.454,1.931,1.931,0,0,1-1.088-1.44,3.091,3.091,0,0,0-2.852-2.6A1.931,1.931,0,0,1,27.3,2.4a3.091,3.091,0,0,0-3.6-1.394A1.931,1.931,0,0,1,21.929.676a3.091,3.091,0,0,0-3.859,0,1.931,1.931,0,0,1-1.774.332A3.091,3.091,0,0,0,12.7,2.4a1.931,1.931,0,0,1-1.535.95,3.091,3.091,0,0,0-2.852,2.6,1.931,1.931,0,0,1-1.088,1.44A3.091,3.091,0,0,0,5.5,10.846a1.931,1.931,0,0,1-.494,1.736,3.091,3.091,0,0,0-.356,3.842,1.931,1.931,0,0,1,.166,1.8,3.091,3.091,0,0,0,1.056,3.711,1.931,1.931,0,0,1,.8,1.616,3.092,3.092,0,0,0,2.325,3.079,1.93,1.93,0,0,1,1.032.674L6.811,35.1a1.4,1.4,0,0,0,1.7,1.87l3.535-1.085a.226.226,0,0,1,.265.11l1.732,3.266a1.4,1.4,0,0,0,2.525-.12l3.365-8.123q.066,0,.132,0l3.365,8.123a1.4,1.4,0,0,0,2.525.12l1.732-3.266a.226.226,0,0,1,.265-.11l3.534,1.085a1.4,1.4,0,0,0,1.7-1.87L29.96,27.3a1.93,1.93,0,0,1,1.032-.674,3.092,3.092,0,0,0,2.325-3.079,1.931,1.931,0,0,1,.8-1.616,3.091,3.091,0,0,0,1.056-3.711,1.933,1.933,0,0,1,.167-1.8ZM15.486,38.689a.225.225,0,0,1-.407.019l-1.732-3.266a1.4,1.4,0,0,0-1.644-.681L8.168,35.846a.225.225,0,0,1-.274-.3l2.864-6.915a3.09,3.09,0,0,0,2.864,1.246,1.932,1.932,0,0,1,1.683.652,3.079,3.079,0,0,0,3.166.957Zm16.346-2.843L28.3,34.761a1.4,1.4,0,0,0-1.644.681l-1.732,3.266a.225.225,0,0,1-.407-.019l-2.984-7.2a3.09,3.09,0,0,0,3.166-.959,1.931,1.931,0,0,1,1.683-.652,3.088,3.088,0,0,0,2.864-1.246l2.864,6.915a.225.225,0,0,1-.275.3Zm2.532-20.062A3.1,3.1,0,0,0,34.1,18.67a1.924,1.924,0,0,1-.657,2.31,3.1,3.1,0,0,0-1.292,2.6A1.924,1.924,0,0,1,30.7,25.493a3.1,3.1,0,0,0-1.915,1.463l0,.006a3.1,3.1,0,0,0-.224.484,1.924,1.924,0,0,1-2.042,1.265,3.1,3.1,0,0,0-2.7,1.047,1.925,1.925,0,0,1-2.361.441,3.1,3.1,0,0,0-.853-.3l-.007,0a3.1,3.1,0,0,0-1.181,0h0a3.1,3.1,0,0,0-.854.3,1.924,1.924,0,0,1-2.361-.441,3.1,3.1,0,0,0-2.7-1.047,1.924,1.924,0,0,1-2.042-1.265,3.107,3.107,0,0,0-.224-.483l0-.007A3.1,3.1,0,0,0,9.3,25.493a1.924,1.924,0,0,1-1.448-1.917,3.1,3.1,0,0,0-1.292-2.6A1.924,1.924,0,0,1,5.9,18.67a3.1,3.1,0,0,0-.267-2.887,1.924,1.924,0,0,1,.222-2.392A3.1,3.1,0,0,0,6.651,10.6a1.925,1.925,0,0,1,1.071-2.15A3.1,3.1,0,0,0,9.469,6.139a1.924,1.924,0,0,1,1.775-1.618,3.1,3.1,0,0,0,2.465-1.526,1.925,1.925,0,0,1,2.24-.868,3.1,3.1,0,0,0,2.85-.533,1.924,1.924,0,0,1,2.4,0,3.1,3.1,0,0,0,2.85.533,1.924,1.924,0,0,1,2.24.868,3.1,3.1,0,0,0,2.465,1.526,1.924,1.924,0,0,1,1.775,1.618,3.1,3.1,0,0,0,1.747,2.314,1.924,1.924,0,0,1,1.071,2.15,3.1,3.1,0,0,0,.793,2.789,1.925,1.925,0,0,1,.221,2.392Z" fill="#db422d"/>
        <path id="Path_1495" data-name="Path 1495" d="M8.9,15.01a.586.586,0,0,0,.653-.51,10.525,10.525,0,0,1,20.89,0,.586.586,0,0,0,1.163-.143,11.7,11.7,0,0,0-23.216-.005.586.586,0,0,0,.51.653Z" fill="#db422d"/>
        <path id="Path_1496" data-name="Path 1496" d="M31.1,16.583a.587.587,0,0,0-.653.51,10.525,10.525,0,0,1-20.89,0,.586.586,0,0,0-1.163.143,11.7,11.7,0,0,0,23.216-.005A.586.586,0,0,0,31.1,16.583Z" fill="#db422d"/>
        <path id="Path_1497" data-name="Path 1497" d="M28.273,13.381a1.123,1.123,0,0,0-1.038-.783l-4.594-.165L21.065,8.116a1.134,1.134,0,0,0-2.13,0l-1.576,4.318-4.594.165a1.134,1.134,0,0,0-.658,2.026l3.62,2.834-1.263,4.42a1.134,1.134,0,0,0,1.724,1.252L20,20.564l3.813,2.567a1.134,1.134,0,0,0,1.724-1.252l-1.263-4.42,3.62-2.834a1.123,1.123,0,0,0,.38-1.243Zm-4.741,3.17a1.129,1.129,0,0,0-.391,1.2L24.382,22.1l-3.749-2.523a1.13,1.13,0,0,0-1.267,0L15.618,22.1l1.241-4.345a1.13,1.13,0,0,0-.391-1.2L12.91,13.766l4.516-.162a1.13,1.13,0,0,0,1.025-.744L20,8.614l1.55,4.245a1.129,1.129,0,0,0,1.025.744l4.516.162Z" fill="#db422d"/>
      </g>
    </g>
  </g>
</svg>
