<svg xmlns="http://www.w3.org/2000/svg" width="79.473" height="90.826" viewBox="0 0 79.473 90.826">
  <g id="password" transform="translate(-32)">
    <g id="Group_38" data-name="Group 38" transform="translate(32)">
      <g id="Group_37" data-name="Group 37">
        <path id="Union_1" data-name="Union 1" d="M41.61,4.081a3.7,3.7,0,1,1,7.365,0,3.7,3.7,0,1,1-7.365,0Zm-13.993,0A3.9,3.9,0,0,1,31.3,0a3.9,3.9,0,0,1,3.682,4.081A3.9,3.9,0,0,1,31.3,8.162,3.9,3.9,0,0,1,27.617,4.081Zm-13.809,0A3.9,3.9,0,0,1,17.491,0a3.9,3.9,0,0,1,3.682,4.081,3.9,3.9,0,0,1-3.682,4.081A3.9,3.9,0,0,1,13.809,4.081ZM0,4.081A3.9,3.9,0,0,1,3.682,0,3.9,3.9,0,0,1,7.365,4.081,3.9,3.9,0,0,1,3.682,8.162,3.9,3.9,0,0,1,0,4.081Z" transform="translate(15.249 57.657)" fill="#38ada2"/>
        <path id="Path_20" data-name="Path 20" d="M107.925,64.217a3.548,3.548,0,0,0,3.548-3.548V47.542A14.208,14.208,0,0,0,97.281,33.35H93.017V20.838a21.292,21.292,0,0,0-42.575,0V33.35H46.192A14.208,14.208,0,0,0,32,47.542V76.634A14.208,14.208,0,0,0,46.192,90.826h51.09a14.208,14.208,0,0,0,14.192-14.192,3.548,3.548,0,1,0-7.1,0,7.1,7.1,0,0,1-7.1,7.1H46.192a7.1,7.1,0,0,1-7.1-7.1V47.542a7.1,7.1,0,0,1,7.1-7.1h51.09a7.1,7.1,0,0,1,7.1,7.1V60.669A3.548,3.548,0,0,0,107.925,64.217Zm-22-30.867H57.538V20.838a14.2,14.2,0,0,1,28.383,0Z" transform="translate(-32)" fill="#db422d"/>
      </g>
    </g>
  </g>
</svg>
