<svg xmlns="http://www.w3.org/2000/svg" width="34.522" height="34.233" viewBox="0 0 34.522 34.233">
  <g id="Group_4977" data-name="Group 4977" transform="translate(-1142.26 -276.533)">
    <path id="Path_6331" data-name="Path 6331" d="M1142.26,278.276a2.733,2.733,0,0,1,.781-1.264,2.633,2.633,0,0,1,2.237-.405c3.793.588,7.588,1.16,11.383,1.739,1.276.195,2.553.382,3.827.589a2.134,2.134,0,0,1,1.914,2.264q.008,3.842,0,7.683v.437c.688.14,1.365.279,2.044.414q5.282,1.049,10.564,2.1a2.114,2.114,0,0,1,1.769,2.182q0,7.229,0,14.457a2.142,2.142,0,0,1-1.73,2.253.5.5,0,0,0-.09.045h-30.88a2.262,2.262,0,0,1-1.4-.895,7.974,7.974,0,0,1-.42-.858Zm5.748,31.038v-.421q0-2.915,0-5.829a2.164,2.164,0,0,1,2.34-2.357q1.972,0,3.943,0a2.145,2.145,0,0,1,2.345,2.342q0,2.932,0,5.863v.4h4.315V281.407c0-.09,0-.18,0-.27a.7.7,0,0,0-.662-.787c-.73-.122-1.464-.224-2.2-.335l-13.382-2.021c-.7-.105-1.018.165-1.018.87q0,14.775,0,29.551c0,.654.266.917.923.918q1.534,0,3.067,0C1147.782,309.333,1147.88,309.322,1148.008,309.314Zm14.419-18.516v18.536h11.917c.769,0,1-.236,1-1.008q0-7.044,0-14.088c0-.745-.151-.922-.878-1.065q-4.393-.867-8.784-1.737C1164.609,291.224,1163.531,291.014,1162.427,290.8Zm-7.222,18.514v-.3q0-3,0-5.994c0-.619-.261-.88-.881-.88q-1.97,0-3.941,0c-.7,0-.925.226-.925.93q0,2.946,0,5.893v.351Z" fill="#26a59a"/>
    <path id="Path_6332" data-name="Path 6332" d="M1192.371,353.317c.46,0,.92-.007,1.379,0a.708.708,0,0,1,.76.719.719.719,0,0,1-.776.708q-1.379.009-2.758,0a.72.72,0,0,1-.777-.708.7.7,0,0,1,.759-.719C1191.429,353.31,1191.9,353.317,1192.371,353.317Z" transform="translate(-43.622 -69.867)" fill="#26a59a"/>
    <path id="Path_6333" data-name="Path 6333" d="M1192.345,402.646c-.448,0-.9,0-1.345,0a.726.726,0,0,1-.8-.721.7.7,0,0,1,.771-.707q1.379-.011,2.758,0a.707.707,0,0,1,.781.7.723.723,0,0,1-.788.73C1193.265,402.651,1192.8,402.646,1192.345,402.646Z" transform="translate(-43.625 -113.45)" fill="#26a59a"/>
    <path id="Path_6334" data-name="Path 6334" d="M1192.362,449.131c.448,0,.9,0,1.345,0,.5.006.8.28.807.707a.723.723,0,0,1-.8.722q-1.362.007-2.724,0a.721.721,0,0,1-.789-.729.709.709,0,0,1,.78-.7C1191.442,449.125,1191.9,449.131,1192.362,449.131Z" transform="translate(-43.625 -157.053)" fill="#26a59a"/>
    <path id="Path_6335" data-name="Path 6335" d="M1192.393,497.039c.46,0,.919-.008,1.379,0a.7.7,0,0,1,.742.7.714.714,0,0,1-.76.724q-1.4.011-2.792,0a.715.715,0,0,1-.759-.725.7.7,0,0,1,.743-.7C1191.428,497.031,1191.911,497.039,1192.393,497.039Z" transform="translate(-43.626 -200.646)" fill="#26a59a"/>
    <path id="Path_6336" data-name="Path 6336" d="M1272.288,354.737c-.448,0-.9,0-1.345,0a.712.712,0,0,1-.79-.722.688.688,0,0,1,.765-.706q1.379-.011,2.757,0a.714.714,0,0,1,.782.7.723.723,0,0,1-.79.729C1273.207,354.741,1272.748,354.737,1272.288,354.737Z" transform="translate(-116.376 -69.855)" fill="#26a59a"/>
    <path id="Path_6337" data-name="Path 6337" d="M1272.275,402.643c-.448,0-.9,0-1.345,0a.708.708,0,0,1-.777-.7.692.692,0,0,1,.777-.728q1.379-.01,2.757,0a.716.716,0,1,1,0,1.428C1273.217,402.649,1272.746,402.643,1272.275,402.643Z" transform="translate(-116.375 -113.448)" fill="#26a59a"/>
    <path id="Path_6338" data-name="Path 6338" d="M1272.314,449.127c.46,0,.919-.007,1.379,0a.716.716,0,1,1-.019,1.427q-1.379.009-2.758,0a.705.705,0,0,1-.768-.71.69.69,0,0,1,.754-.718C1271.372,449.12,1271.843,449.127,1272.314,449.127Z" transform="translate(-116.371 -157.049)" fill="#26a59a"/>
    <path id="Path_6339" data-name="Path 6339" d="M1272.334,497.036c.46,0,.919-.008,1.379,0a.714.714,0,1,1-.013,1.426q-1.4.012-2.791,0a.7.7,0,0,1-.754-.723.683.683,0,0,1,.734-.7C1271.37,497.028,1271.852,497.036,1272.334,497.036Z" transform="translate(-116.377 -200.643)" fill="#26a59a"/>
    <path id="Path_6340" data-name="Path 6340" d="M1416.063,497.033c.46,0,.919-.006,1.379,0a.716.716,0,1,1,0,1.427q-1.4.01-2.791,0a.7.7,0,0,1-.743-.7.688.688,0,0,1,.745-.726C1415.122,497.026,1415.593,497.033,1416.063,497.033Z" transform="translate(-247.184 -200.641)" fill="#26a59a"/>
    <path id="Path_6341" data-name="Path 6341" d="M1416.041,544.945c.471,0,.942-.008,1.412,0a.714.714,0,1,1,.007,1.426q-1.412.013-2.825,0a.7.7,0,0,1-.731-.712.682.682,0,0,1,.724-.712C1415.1,544.937,1415.57,544.946,1416.041,544.945Z" transform="translate(-247.182 -244.238)" fill="#26a59a"/>
    <path id="Path_6342" data-name="Path 6342" d="M1416.057,592.85c.471,0,.942-.008,1.412,0a.714.714,0,1,1-.018,1.426q-1.4.011-2.791,0a.7.7,0,0,1-.752-.725.684.684,0,0,1,.736-.7C1415.115,592.842,1415.586,592.85,1416.057,592.85Z" transform="translate(-247.186 -287.829)" fill="#26a59a"/>
  </g>
</svg>
