<svg width="24" height="24" viewBox="0 0 24 24" fill="none" xmlns="http://www.w3.org/2000/svg">
<path d="M14.914 4H6.414C6.0388 4.00053 5.67915 4.14995 5.41403 4.41544C5.14891 4.68094 5 5.0408 5 5.416V15.33H6.416V5.416H14.916L14.914 4ZM17.038 6.833H9.249C8.87345 6.833 8.51329 6.98219 8.24774 7.24774C7.98219 7.51329 7.833 7.87345 7.833 8.249V18.163C7.833 18.349 7.86963 18.5331 7.94079 18.7049C8.01195 18.8767 8.11625 19.0328 8.24774 19.1643C8.37922 19.2958 8.53532 19.4001 8.70712 19.4712C8.87892 19.5424 9.06305 19.579 9.249 19.579H17.038C17.224 19.579 17.4081 19.5424 17.5799 19.4712C17.7517 19.4001 17.9078 19.2958 18.0393 19.1643C18.1708 19.0328 18.2751 18.8767 18.3462 18.7049C18.4174 18.5331 18.454 18.349 18.454 18.163V8.249C18.454 7.87345 18.3048 7.51329 18.0393 7.24774C17.7737 6.98219 17.4135 6.833 17.038 6.833ZM17.038 18.163H9.249V8.249H17.038V18.163Z" fill="white"/>
</svg>
