<svg id="Component_29_2" data-name="Component 29 – 2" xmlns="http://www.w3.org/2000/svg" width="14" height="14" viewBox="0 0 14 14">
  <path id="Path_1566" data-name="Path 1566" d="M9,2a7,7,0,1,0,7,7A7,7,0,0,0,9,2ZM9,14.6A5.6,5.6,0,1,1,14.6,9,5.6,5.6,0,0,1,9,14.6Z" transform="translate(-2 -2)" fill="#26a59a"/>
  <circle id="Ellipse_142" data-name="Ellipse 142" cx="0.7" cy="0.7" r="0.7" transform="translate(6.3 3.5)" fill="#26a59a"/>
  <path id="Path_1567" data-name="Path 1567" d="M11.7,10a.7.7,0,0,0-.7.7v3.5a.7.7,0,1,0,1.4,0V10.7A.7.7,0,0,0,11.7,10Z" transform="translate(-4.7 -4.4)" fill="#26a59a"/>
</svg>
