<svg xmlns="http://www.w3.org/2000/svg" width="16.922" height="13.452" viewBox="0 0 16.922 13.452">
  <g id="dashboard" transform="translate(0 -52.499)">
    <g id="Group_844" data-name="Group 844" transform="translate(0 52.499)">
      <g id="Group_843" data-name="Group 843" transform="translate(0 0)">
        <path id="Path_412" data-name="Path 412" d="M203.594,123.7a.6.6,0,0,0-.8-.081c-.947.693-5.7,4.179-6.206,4.727a2.15,2.15,0,0,0,0,2.884,1.809,1.809,0,0,0,2.685,0c.51-.548,3.756-5.649,4.4-6.666A.718.718,0,0,0,203.594,123.7Zm-5.221,6.569a.6.6,0,0,1-.895,0,.717.717,0,0,1,0-.961c.2-.211,1.547-1.243,3.206-2.482C199.531,128.6,198.569,130.053,198.373,130.266Z" transform="translate(-189.104 -121.252)" fill="#717171"/>
        <path id="Path_413" data-name="Path 413" d="M3.1,64.035l-.829.4a7.006,7.006,0,0,1-.453-6.007l.95.449a.677.677,0,0,0,.9-.31.657.657,0,0,0-.315-.882l-.938-.443a7.275,7.275,0,0,1,5.516-3.388v.994a.672.672,0,0,0,1.343,0v-.995a7.26,7.26,0,0,1,2.309.6.676.676,0,0,0,.888-.33.657.657,0,0,0-.336-.874,8.71,8.71,0,0,0-9.611,1.732,8.34,8.34,0,0,0-1.061,10.68.678.678,0,0,0,.853.227l1.377-.661a.656.656,0,0,0,.309-.884A.677.677,0,0,0,3.1,64.035Z" transform="translate(0 -52.499)" fill="#717171"/>
        <path id="Path_414" data-name="Path 414" d="M393.141,191.867a.633.633,0,1,0-1.153.521,6.812,6.812,0,0,1-.272,6.138l-.816-.388a.633.633,0,0,0-.544,1.143l1.329.633a.633.633,0,0,0,.8-.22,8.081,8.081,0,0,0,.658-7.826Z" transform="translate(-376.933 -186.522)" fill="#717171"/>
      </g>
    </g>
  </g>
</svg>
