<svg xmlns="http://www.w3.org/2000/svg" width="40" height="40" viewBox="0 0 40 40">
  <g id="del" transform="translate(-0.125)">
    <rect id="Rectangle_1" data-name="Rectangle 1" width="40" height="40" rx="6" transform="translate(0.125)" fill="#db422d" opacity="0.3"/>
    <g id="trash" transform="translate(11 9)">
      <path id="Path_1052" data-name="Path 1052" d="M63.972,2.719H60.234v-.68A2.039,2.039,0,0,0,58.2,0H55.476a2.039,2.039,0,0,0-2.039,2.039v.68H49.7a1.7,1.7,0,0,0-1.7,1.7V5.777a.68.68,0,0,0,.68.68H64.992a.68.68,0,0,0,.68-.68V4.418A1.7,1.7,0,0,0,63.972,2.719ZM54.8,2.039a.681.681,0,0,1,.68-.68H58.2a.681.681,0,0,1,.68.68v.68H54.8Z" transform="translate(-48)" fill="#db422c"/>
      <path id="Path_1053" data-name="Path 1053" d="M73.577,184a.212.212,0,0,0-.212.223l.561,11.769a2.036,2.036,0,0,0,2.036,1.942H86.283a2.036,2.036,0,0,0,2.036-1.942l.561-11.769a.212.212,0,0,0-.212-.223Zm10.265,1.7a.68.68,0,0,1,1.359,0v8.836a.68.68,0,1,1-1.359,0Zm-3.4,0a.68.68,0,0,1,1.359,0v8.836a.68.68,0,1,1-1.359,0Zm-3.4,0a.68.68,0,0,1,1.359,0v8.836a.68.68,0,1,1-1.359,0Z" transform="translate(-72.287 -176.184)" fill="#db422c"/>
    </g>
  </g>
</svg>
