<svg xmlns="http://www.w3.org/2000/svg" xmlns:xlink="http://www.w3.org/1999/xlink" width="18" height="18" viewBox="0 0 18 18">
  <defs>
    <clipPath id="clip-path">
      <rect id="Rectangle_718" data-name="Rectangle 718" width="18" height="18" transform="translate(900 244)" fill="#26a59a" stroke="#707070" stroke-width="1"/>
    </clipPath>
  </defs>
  <g id="Del" transform="translate(-900 -244)" clip-path="url(#clip-path)">
    <g id="Layer_2" data-name="Layer 2" transform="translate(900.451 244)">
      <g id="Layer_1" data-name="Layer 1">
        <path id="Path_1357" data-name="Path 1357" d="M5.265,2.627v-.86A1.717,1.717,0,0,1,6.963.016q1.57-.031,3.142,0a1.735,1.735,0,0,1,1.731,1.78c0,.269,0,.532,0,.834h.343l4.162.016a.666.666,0,0,1,.752.571.654.654,0,0,1-.658.745c-.364.01-.73,0-1.116,0-.035.475-.071.919-.1,1.363-.2,3.277-.418,6.554-.605,9.835a2.849,2.849,0,0,1-1.285,2.43,2.591,2.591,0,0,1-1.424.41c-2.229,0-4.459.01-6.687,0a2.683,2.683,0,0,1-2.686-2.574q-.322-5.091-.659-10.182c-.023-.348-.061-.7-.071-1.044C1.8,4,1.723,3.95,1.544,3.958c-.277.012-.555.006-.833,0A.657.657,0,0,1,0,3.291a.638.638,0,0,1,.7-.645c1.405-.01,2.811-.012,4.216-.017ZM3.169,4c0,.111,0,.2,0,.287.054.938.112,1.876.167,2.814q.242,4.141.486,8.281a1.316,1.316,0,0,0,1.326,1.289q3.4.019,6.793,0a1.315,1.315,0,0,0,1.327-1.258c.082-1.1.149-2.2.215-3.295q.24-3.794.473-7.586c.01-.167.015-.334.024-.532ZM10.526,2.61c0-.3.011-.57,0-.836a.375.375,0,0,0-.389-.4q-1.584-.011-3.169,0a.362.362,0,0,0-.381.342c-.024.291-.006.584-.006.89Z" fill="#26a59a"/>
        <path id="Path_1358" data-name="Path 1358" d="M10.529,10.314V6.827a.658.658,0,0,1,.519-.662.637.637,0,0,1,.7.327.819.819,0,0,1,.083.359q.007,3.46,0,6.92a.667.667,0,0,1-.666.718.658.658,0,0,1-.638-.718c0-1.153,0-2.307,0-3.46Z" fill="#26a59a"/>
        <path id="Path_1359" data-name="Path 1359" d="M6.571,10.329v3.464a.67.67,0,0,1-.5.677.639.639,0,0,1-.7-.293.8.8,0,0,1-.1-.379q-.01-3.478,0-6.956a.649.649,0,0,1,.662-.691.657.657,0,0,1,.645.685C6.574,8,6.571,9.165,6.571,10.329Z" fill="#26a59a"/>
        <path id="Path_1360" data-name="Path 1360" d="M7.9,10.321V6.829a.652.652,0,0,1,.489-.658.636.636,0,0,1,.715.3.836.836,0,0,1,.1.382q.008,3.464,0,6.93a.654.654,0,1,1-1.3,0C7.892,12.63,7.9,11.475,7.9,10.321Z" fill="#26a59a"/>
      </g>
    </g>
  </g>
</svg>
