<svg xmlns="http://www.w3.org/2000/svg" width="40" height="40" viewBox="0 0 40 40">
  <g id="Group_5530" data-name="Group 5530" transform="translate(-9877 -16967)">
    <rect id="Rectangle_1" data-name="Rectangle 1" width="40" height="40" rx="20" transform="translate(9877 16967)" fill="#db422d" opacity="0.096"/>
    <g id="trash" transform="translate(9885.734 16973.365)">
      <path id="Path_1052" data-name="Path 1052" d="M67.843,3.378H63.2V2.533A2.533,2.533,0,0,0,60.666,0H57.288a2.533,2.533,0,0,0-2.533,2.533v.844H50.111A2.111,2.111,0,0,0,48,5.488V7.177a.844.844,0,0,0,.844.844H69.11a.844.844,0,0,0,.844-.844V5.488A2.111,2.111,0,0,0,67.843,3.378Zm-11.4-.844a.845.845,0,0,1,.844-.844h3.378a.846.846,0,0,1,.844.844v.844H56.444Z" transform="translate(-48)" fill="#db422c"/>
      <path id="Path_1053" data-name="Path 1053" d="M73.628,184a.264.264,0,0,0-.264.276l.7,14.621a2.53,2.53,0,0,0,2.53,2.413H89.414a2.53,2.53,0,0,0,2.53-2.413l.7-14.621a.264.264,0,0,0-.264-.276Zm12.752,2.111a.844.844,0,1,1,1.689,0v10.977a.844.844,0,1,1-1.689,0Zm-4.222,0a.844.844,0,1,1,1.689,0v10.977a.844.844,0,1,1-1.689,0Zm-4.222,0a.844.844,0,1,1,1.689,0v10.977a.844.844,0,1,1-1.689,0Z" transform="translate(-72.026 -174.29)" fill="#db422c"/>
    </g>
  </g>
</svg>
