<svg xmlns="http://www.w3.org/2000/svg" width="15.407" height="15.407" viewBox="0 0 15.407 15.407"><defs><style>.a{opacity:0.5;}</style></defs><g class="a"><g transform="translate(5.136)"><path d="M175.742,7.417a.643.643,0,0,0-.575-.355h-1.284V.642a.642.642,0,0,0-1.284,0v6.42h-1.284a.642.642,0,0,0-.514,1.027l1.926,2.568c.008.011.021.015.03.025a.627.627,0,0,0,.148.124.662.662,0,0,0,.066.044.6.6,0,0,0,.539,0,.653.653,0,0,0,.065-.044.626.626,0,0,0,.148-.124c.008-.01.022-.014.03-.025l1.926-2.568A.641.641,0,0,0,175.742,7.417Z" transform="translate(-170.674)"/></g><g transform="translate(0 9.629)"><path d="M14.765,320a.642.642,0,0,0-.642.642v1.926a1.928,1.928,0,0,1-1.926,1.926H3.21a1.928,1.928,0,0,1-1.926-1.926v-1.926a.642.642,0,1,0-1.284,0v1.926a3.213,3.213,0,0,0,3.21,3.21H12.2a3.213,3.213,0,0,0,3.21-3.21v-1.926A.642.642,0,0,0,14.765,320Z" transform="translate(0 -320)"/></g></g></svg>