<svg xmlns="http://www.w3.org/2000/svg" width="25" height="25" viewBox="0 0 25 25">
  <g id="Download" transform="translate(-1243 -206)">
    <circle id="Ellipse_99" data-name="Ellipse 99" cx="12.5" cy="12.5" r="12.5" transform="translate(1243 206)" fill="#db422d" opacity="0.1"/>
    <g id="Group_4981" data-name="Group 4981" transform="translate(1 2)">
      <path id="Union_2" data-name="Union 2" d="M12.161,3.467H.813A.813.813,0,0,1,0,2.655V.813a.813.813,0,1,1,1.625,0v.921h9.75V.813A.812.812,0,1,1,13,.813V2.655a.813.813,0,0,1-.812.813Z" transform="translate(1248 220.345)" fill="#db422d"/>
      <path id="Union_3" data-name="Union 3" d="M3.449,10.246.33,7.8A.931.931,0,0,1,.141,6.6a.777.777,0,0,1,.51-.357.705.705,0,0,1,.585.147L3.122,7.856c0-.019,0-.036,0-.052V.867A.827.827,0,0,1,3.9,0a.825.825,0,0,1,.781.867V7.8s0,0,0,.005L6.556,6.24a.732.732,0,0,1,1.091.176A.929.929,0,0,1,7.488,7.63l-3.117,2.6a.726.726,0,0,1-.922.015Z" transform="translate(1250.599 210)" fill="#db422d"/>
    </g>
  </g>
</svg>
