<svg xmlns="http://www.w3.org/2000/svg" xmlns:xlink="http://www.w3.org/1999/xlink" width="19" height="19" viewBox="0 0 19 19">
  <defs>
    <clipPath id="clip-path">
      <rect id="Rectangle_717" data-name="Rectangle 717" width="19" height="19" transform="translate(683 244)" fill="#26a59a" stroke="#707070" stroke-width="1"/>
    </clipPath>
  </defs>
  <g id="Edit" transform="translate(-683 -244)" clip-path="url(#clip-path)">
    <g id="edit-2" data-name="edit" transform="translate(683 243.981)">
      <path id="Path_1354" data-name="Path 1354" d="M15.042,9.518a.791.791,0,0,0-.792.792v6.333a.792.792,0,0,1-.792.792H2.375a.792.792,0,0,1-.792-.792V5.56a.792.792,0,0,1,.792-.792H8.708a.792.792,0,0,0,0-1.583H2.375A2.378,2.378,0,0,0,0,5.56V16.643a2.378,2.378,0,0,0,2.375,2.375H13.458a2.378,2.378,0,0,0,2.375-2.375V10.31a.791.791,0,0,0-.792-.792Zm0,0" fill="#26a59a"/>
      <path id="Path_1355" data-name="Path 1355" d="M7.423,8.8a.4.4,0,0,0-.108.2l-.56,2.8a.4.4,0,0,0,.389.473.376.376,0,0,0,.078-.008l2.8-.56a.394.394,0,0,0,.2-.109l6.264-6.264-2.8-2.8Zm0,0" fill="#26a59a"/>
      <path id="Path_1356" data-name="Path 1356" d="M18.42.6a1.981,1.981,0,0,0-2.8,0l-1.1,1.1,2.8,2.8,1.1-1.1a1.979,1.979,0,0,0,0-2.8Zm0,0" fill="#26a59a"/>
    </g>
  </g>
</svg>
