<svg xmlns="http://www.w3.org/2000/svg" width="63.231" height="48.123" viewBox="0 0 63.231 48.123">
  <g id="EFFICIENCY" transform="translate(-1042.25 -885.662)">
    <path id="Path_6265" data-name="Path 6265" d="M1077.084,902.185a9.5,9.5,0,0,1-.506,1.285c-.592,1.024-1.274,2-1.818,3.045a2.6,2.6,0,0,0-.133,1.384,2.145,2.145,0,0,0,.433,1.038,2.271,2.271,0,0,0,.972.808c1.082.337,2.2.563,3.307.823a2.288,2.288,0,0,1,2.015,2.508,14.712,14.712,0,0,1-.071,2.071,2.027,2.027,0,0,1-1.665,1.788c-1.147.281-2.3.551-3.446.825a2.5,2.5,0,0,0-1.41,3.356c.575.957,1.168,1.9,1.745,2.857a2.116,2.116,0,0,1-.348,3c-.44.443-.875.894-1.329,1.324a2.065,2.065,0,0,1-2.693.289c-1.014-.61-2.014-1.242-3.03-1.848a2.517,2.517,0,0,0-3.315,1.368c-.274,1.057-.528,2.118-.778,3.181a2.222,2.222,0,0,1-2.474,2.026c-.6.017-1.207.007-1.809-.017a2.111,2.111,0,0,1-2.1-1.722c-.284-1.147-.563-2.293-.82-3.446a1.457,1.457,0,0,0-.992-1.156c-.314-.112-.62-.25-.926-.384a1.388,1.388,0,0,0-1.394.131c-.941.6-1.9,1.171-2.854,1.749a2.194,2.194,0,0,1-3.07-.351c-.444-.442-.894-.876-1.325-1.329a2.034,2.034,0,0,1-.313-2.577c.61-1.039,1.258-2.055,1.878-3.089a2.5,2.5,0,0,0-1.455-3.374q-1.66-.392-3.314-.8a2.141,2.141,0,0,1-1.785-2.187c-.016-.691-.019-1.384,0-2.075a2.065,2.065,0,0,1,1.577-2c1.228-.327,2.478-.574,3.692-.942a2.216,2.216,0,0,0,.99-.789,2.332,2.332,0,0,0,.448-1.1,2.4,2.4,0,0,0-.136-1.319c-.526-1.006-1.17-1.951-1.758-2.925a2.116,2.116,0,0,1,.353-3c.441-.443.878-.892,1.329-1.325a2.045,2.045,0,0,1,2.634-.323c1.019.6,2.018,1.235,3.031,1.846a2.478,2.478,0,0,0,3.391-1.408c.272-1.1.534-2.208.8-3.312a2.108,2.108,0,0,1,2.032-1.808,14.461,14.461,0,0,1,2.472.032,1.947,1.947,0,0,1,1.783,1.572c.306,1.187.608,2.374.874,3.57a1.5,1.5,0,0,0,.987,1.162c.291.113.587.217.868.352a1.4,1.4,0,0,0,1.454-.111c.982-.619,1.975-1.219,2.971-1.817a2.135,2.135,0,0,1,2.9.362,14.9,14.9,0,0,1,1.359,1.386A9.368,9.368,0,0,1,1077.084,902.185Zm-15.31,29.72v0c.179,0,.358.006.536,0,1.026-.041,1.128-.119,1.362-1.091q.368-1.527.721-3.056a2.723,2.723,0,0,1,1.788-2.084c.334-.124.66-.271.99-.409a2.739,2.739,0,0,1,2.622.221c.971.594,1.952,1.172,2.908,1.789a.858.858,0,0,0,1.287-.14,11.8,11.8,0,0,1,1.137-1.136.866.866,0,0,0,.167-1.288c-.625-.977-1.208-1.98-1.821-2.966a2.73,2.73,0,0,1-.213-2.559c.152-.4.33-.78.491-1.172a2.542,2.542,0,0,1,1.8-1.559c.732-.192,1.474-.349,2.208-.54,2.352-.612,2.176-.1,2.17-2.854,0-.044-.005-.09-.005-.134a.887.887,0,0,0-.776-.937c-1.108-.253-2.206-.55-3.316-.79a2.808,2.808,0,0,1-2.183-1.861c-.1-.271-.209-.541-.329-.8a2.782,2.782,0,0,1,.2-2.8c.617-.982,1.212-1.978,1.824-2.963a.762.762,0,0,0-.115-1.077c-.422-.4-.844-.8-1.229-1.233a.864.864,0,0,0-1.286-.169c-.975.629-1.977,1.216-2.967,1.821a2.78,2.78,0,0,1-2.563.207c-.271-.1-.528-.243-.8-.333a2.9,2.9,0,0,1-2.047-2.411c-.2-1.049-.512-2.076-.744-3.119a.883.883,0,0,0-.924-.788c-.513-.012-1.027,0-1.541-.021a1.052,1.052,0,0,0-1.2.982c-.213,1.047-.49,2.081-.724,3.125a2.824,2.824,0,0,1-1.87,2.18c-.272.1-.538.216-.806.327a2.9,2.9,0,0,1-2.81-.211c-.964-.6-1.948-1.179-2.909-1.788a.827.827,0,0,0-1.189.135c-.4.423-.8.84-1.232,1.231a.81.81,0,0,0-.137,1.18c.622.979,1.211,1.98,1.825,2.963a2.718,2.718,0,0,1,.211,2.678c-.116.266-.227.534-.325.806a2.85,2.85,0,0,1-2.26,1.953c-1.091.223-2.166.526-3.251.775a.839.839,0,0,0-.77.922,16.011,16.011,0,0,1-.006,1.6c-.053.708.309.993.945,1.13,1.133.246,2.255.535,3.382.807a2.6,2.6,0,0,1,1.79,1.483c.166.34.287.7.445,1.046a2.848,2.848,0,0,1-.219,2.921c-.561.86-1.077,1.747-1.612,2.623-.521.85-.511.918.217,1.648.3.3.621.582.9.9a.922.922,0,0,0,1.4.183c.969-.639,1.971-1.225,2.965-1.823a2.605,2.605,0,0,1,2.5-.179c.368.158.743.3,1.114.455a2.63,2.63,0,0,1,1.642,1.892c.249,1.017.506,2.032.753,3.05.3,1.226.306,1.236,1.548,1.256C1061.55,931.907,1061.662,931.905,1061.774,931.905Z" transform="translate(0 0.462)" fill="#d31925"/>
    <path id="Path_6266" data-name="Path 6266" d="M1079.894,893.863h.8a1.5,1.5,0,0,0,1.593-2.164q-.316-1.021-.614-2.047a1.4,1.4,0,0,1,.454-1.577,10.75,10.75,0,0,1,2-1.188,1.468,1.468,0,0,1,1.695.466c.56.546,1.1,1.113,1.648,1.666a1.486,1.486,0,0,0,2.223-.318c.372-.686.734-1.378,1.09-2.072a1.589,1.589,0,0,1,1.753-.945,8.4,8.4,0,0,1,1.873.467A1.75,1.75,0,0,1,1095.46,888c-.015.736-.036,1.472-.025,2.209a1.469,1.469,0,0,0,1.733,1.266c.814-.235,1.615-.523,2.439-.7a2.124,2.124,0,0,1,1.156.1,3.9,3.9,0,0,1,1.665,3.012,2.523,2.523,0,0,1-.586,1.082c-.484.553-1.044,1.037-1.565,1.559a1.468,1.468,0,0,0,.347,2.255c.669.357,1.347.7,2.013,1.06a1.7,1.7,0,0,1,.937,2.067c-.463,2.211-.739,2.711-3.2,2.594-.312-.015-.625,0-.937,0a1.479,1.479,0,0,0-1.534,2.106c.2.638.411,1.272.594,1.914a1.663,1.663,0,0,1-.8,2.061c-2.184,1.388-2.491,1.349-4.23-.53-.182-.2-.372-.386-.563-.574a1.483,1.483,0,0,0-2.5.38c-.332.631-.651,1.27-.995,1.894a1.69,1.69,0,0,1-1.969.891,14.571,14.571,0,0,1-1.425-.356,1.652,1.652,0,0,1-1.225-1.71c-.006-.781.005-1.563.006-2.344a1.479,1.479,0,0,0-1.794-1.359c-.728.209-1.447.447-2.174.66a1.7,1.7,0,0,1-2.167-.821c-.059-.095-.114-.193-.171-.289-1.12-1.87-1.09-2.107.482-3.657.254-.251.52-.489.772-.741a1.488,1.488,0,0,0-.432-2.611c-.612-.318-1.228-.635-1.831-.972a1.555,1.555,0,0,1-.874-1.665,9.76,9.76,0,0,1,.488-1.936,1.481,1.481,0,0,1,1.463-.978C1079,893.857,1079.448,893.864,1079.894,893.863Zm20.077,9.222h.872c1,0,1.005,0,1.232-.979a1.057,1.057,0,0,1,.037-.2c.237-.514-.017-.773-.462-.983a13.975,13.975,0,0,1-1.833-.965,2.454,2.454,0,0,1-1.03-1.074c-.479-1.6-.619-2.441.675-3.579.234-.207.443-.442.666-.66,1.2-1.169,1.076-.721.278-2.15a.522.522,0,0,0-.745-.292c-.757.263-1.526.5-2.3.706a2.9,2.9,0,0,1-3.347-2.463c-.02-.758-.022-1.519.024-2.275.032-.517-.141-.8-.655-.886a5.35,5.35,0,0,1-.584-.143.663.663,0,0,0-.907.417c-.231.53-.531,1.03-.8,1.544a2.863,2.863,0,0,1-4.809.759c-.237-.236-.467-.48-.7-.718-1.2-1.21-.742-1.058-2.158-.282a.537.537,0,0,0-.292.759c.235.672.439,1.355.647,2.037a2.877,2.877,0,0,1-2.673,3.631c-.714,0-1.43.027-2.143-.009a.619.619,0,0,0-.739.572c-.043.218-.105.433-.161.649a.638.638,0,0,0,.384.86,12.316,12.316,0,0,1,2,1.07,2.91,2.91,0,0,1,.181,4.708,6.045,6.045,0,0,0-.667.658c-.883.882-.867.873-.233,1.95.229.39.447.536.907.362.665-.253,1.382-.376,2.036-.65,1.41-.589,3.786,1.227,3.562,2.677-.108.7.005,1.427-.034,2.139a.631.631,0,0,0,.612.769,3.084,3.084,0,0,1,.648.16c.435.171.652-.022.836-.4.331-.681.763-1.319,1.037-2.021.489-1.249,3.418-1.73,4.34-.57a16.676,16.676,0,0,0,1.6,1.619.7.7,0,0,0,.5.214,1.317,1.317,0,0,0,1.109-1.883q-.2-.637-.4-1.275a2.822,2.822,0,0,1,2.814-3.8Z" transform="translate(1.849)" fill="#d31925"/>
    <path id="Path_6267" data-name="Path 6267" d="M1069.466,913.226a8.255,8.255,0,1,1-8.187-8.234A8.271,8.271,0,0,1,1069.466,913.226Zm-8.222-6.814a6.806,6.806,0,1,0,6.808,6.809A6.805,6.805,0,0,0,1061.244,906.412Z" transform="translate(0.577 1.041)" fill="#d31925"/>
    <path id="Path_6268" data-name="Path 6268" d="M1094.1,898.743a4.409,4.409,0,0,1-4.473,4.43,4.487,4.487,0,0,1-4.484-4.46,4.564,4.564,0,0,1,4.481-4.494A4.478,4.478,0,0,1,1094.1,898.743Zm-1.421,0a3.048,3.048,0,0,0-3.02-3.1,3.123,3.123,0,0,0-3.087,3.059,3.09,3.09,0,0,0,3.017,3.048A3.013,3.013,0,0,0,1092.679,898.746Z" transform="translate(2.31 0.461)" fill="#d31925"/>
  </g>
</svg>
