<svg xmlns="http://www.w3.org/2000/svg" width="22.275" height="16.706" viewBox="0 0 22.275 16.706"><defs><style>.a{fill:#0a5169;}</style></defs><path class="a" d="M20.186,59.882H2.088A2.091,2.091,0,0,0,0,61.97V74.5a2.091,2.091,0,0,0,2.088,2.088h18.1A2.091,2.091,0,0,0,22.275,74.5V61.97A2.091,2.091,0,0,0,20.186,59.882Zm0,1.392a.692.692,0,0,1,.267.054L11.137,69.4,1.821,61.328a.693.693,0,0,1,.267-.054Zm0,13.922H2.088a.7.7,0,0,1-.7-.7V62.8l9.289,8.05a.7.7,0,0,0,.912,0l9.289-8.05V74.5A.7.7,0,0,1,20.186,75.2Z" transform="translate(0 -59.882)"/></svg>