<svg xmlns="http://www.w3.org/2000/svg" width="119" height="119" viewBox="0 0 119 119">
  <g id="Estimating_Resources" data-name="Estimating Resources" transform="translate(-617 -419)">
    <rect id="Rectangle_874" data-name="Rectangle 874" width="119" height="119" rx="10" transform="translate(617 419)" fill="#38ada2" opacity="0.1"/>
    <path id="Path_1122" data-name="Path 1122" d="M-503.832-2161.563c-.266.251-.533.486-.78.742q-1.47,1.521-2.928,3.053l-2.293,2.4q-1.766,1.844-3.533,3.688-1.3,1.357-2.592,2.718c-.279.292-.547.6-.843.868a1.261,1.261,0,0,0-.364,1.279c.406,2.071.8,4.143,1.2,6.214q.334,1.72.678,3.439a2.27,2.27,0,0,1-.622,2.143c-.822.858-1.614,1.744-2.418,2.618a2.705,2.705,0,0,1-.832.663,1.23,1.23,0,0,1-1.517-.294,5.271,5.271,0,0,1-.614-.892q-2.642-4.756-5.268-9.521-.565-1.022-1.139-2.038a2.028,2.028,0,0,0-.971-.881q-3.34-1.469-6.681-2.935c-1.885-.826-3.775-1.641-5.657-2.474a3.016,3.016,0,0,1-.765-.485,1.246,1.246,0,0,1-.172-1.755,16.607,16.607,0,0,1,1.089-1.281c.6-.675,1.207-1.338,1.8-2.015a2.032,2.032,0,0,1,1.831-.72q2.077.211,4.156.412,2.349.227,4.7.444c.413.039.827.085,1.241.1a1.135,1.135,0,0,0,.947-.376c.778-.882,1.549-1.77,2.323-2.656q.837-.958,1.673-1.918,1.186-1.364,2.369-2.73c.526-.6,1.055-1.206,1.581-1.812q1.184-1.365,2.365-2.733.9-1.042,1.8-2.083c.268-.31.268-.313-.095-.494q-5.156-2.572-10.313-5.143-4.687-2.333-9.377-4.659c-1.3-.648-2.608-1.295-3.908-1.952a3.122,3.122,0,0,1-.625-.417,1.24,1.24,0,0,1-.23-1.8,15.846,15.846,0,0,1,1.108-1.312c.986-1.089,1.985-2.166,2.974-3.253.5-.55.988-1.111,1.484-1.664a1.867,1.867,0,0,1,2.28-.557q4.4,1.541,8.793,3.076l6.011,2.1,7.619,2.661,3.809,1.333a.94.94,0,0,0,1.255-.339q1.477-1.716,2.95-3.435,1.152-1.335,2.313-2.663c1.217-1.392,2.418-2.8,3.66-4.166a7.283,7.283,0,0,1,5.712-2.5,7.214,7.214,0,0,1,4.2,1.42,7.27,7.27,0,0,1,2.985,4.769,7.132,7.132,0,0,1-.989,5.136,10,10,0,0,1-1.287,1.573c-.722.767-1.43,1.547-2.156,2.31q-1.675,1.762-3.365,3.509-1.442,1.5-2.89,2.992c-.183.189-.368.376-.55.566a1.16,1.16,0,0,0-.252,1.457c.257.564.518,1.126.776,1.69q2.1,4.578,4.2,9.155,1.666,3.637,3.328,7.277,1.615,3.535,3.226,7.072c.077.17.138.348.2.523a1.359,1.359,0,0,1-.316,1.462c-.846.948-1.7,1.888-2.554,2.828-.948,1.044-1.9,2.09-2.855,3.125a3.5,3.5,0,0,1-.706.6,1.214,1.214,0,0,1-1.688-.253,9.869,9.869,0,0,1-.842-1.205q-3.254-5.242-6.5-10.491-3.025-4.889-6.048-9.778c-.333-.537-.677-1.067-1.017-1.6C-503.77-2161.478-503.808-2161.528-503.832-2161.563Zm-31.111-23c.236.128.437.245.644.349q2.393,1.195,4.787,2.385,4.278,2.131,8.557,4.262,4.782,2.381,9.563,4.761a5.853,5.853,0,0,1,.947.561,1.25,1.25,0,0,1,.51,1.249,1.793,1.793,0,0,1-.442.884q-.839.98-1.686,1.954l-3.022,3.49-4.134,4.779q-1.475,1.705-2.951,3.41c-.8.921-1.586,1.846-2.382,2.767a1.942,1.942,0,0,1-1.655.729c-.5-.032-1-.091-1.5-.138-1.293-.12-2.586-.232-3.878-.362-1.472-.149-2.942-.323-4.415-.471a1.952,1.952,0,0,0-2.061,1.031c-.077.137-.049.185.085.243.821.354,1.639.717,2.459,1.074q4.366,1.9,8.733,3.8a2.6,2.6,0,0,1,1.3,1.128c.795,1.439,1.581,2.882,2.375,4.321q1.7,3.082,3.406,6.159c.086.155.186.3.283.459a1.9,1.9,0,0,0,.913-.972,2.407,2.407,0,0,0,.041-1.348c-.26-1.3-.533-2.6-.787-3.9-.334-1.715-.654-3.432-.982-5.148a2.944,2.944,0,0,1-.057-1.267,2.57,2.57,0,0,1,.747-1.166q1.543-1.6,3.081-3.2t3.081-3.224q1.572-1.642,3.146-3.283,1.184-1.236,2.368-2.471c.876-.911,1.75-1.824,2.632-2.729a7.547,7.547,0,0,1,.873-.808,1.244,1.244,0,0,1,1.42-.107,2,2,0,0,1,.725.726q1.4,2.249,2.8,4.5,2.532,4.089,5.06,8.181,2.9,4.679,5.8,9.356c.153.247.325.483.52.772.06-.083.1-.144.142-.2q.575-.64,1.155-1.276c.589-.643,1.168-1.3,1.778-1.919a1.063,1.063,0,0,0,.291-1.44l-.044-.1q-.487-1.06-.973-2.121-1.632-3.565-3.264-7.131-1.657-3.622-3.314-7.244-1.59-3.479-3.175-6.96c-.336-.74-.669-1.481-.982-2.231a1.27,1.27,0,0,1,.176-1.341c.1-.125.192-.251.3-.366q1.466-1.536,2.938-3.068t2.949-3.083q1.407-1.473,2.81-2.948c.635-.672,1.288-1.33,1.883-2.034a4.206,4.206,0,0,0,1.042-3.182,4.336,4.336,0,0,0-1.877-3.324,4.474,4.474,0,0,0-5.868.623c-.3.323-.589.667-.88,1q-1.422,1.635-2.843,3.272-1.4,1.61-2.792,3.223-.765.882-1.533,1.76c-.681.78-1.366,1.557-2.045,2.338a1.467,1.467,0,0,1-1.724.455c-1.166-.4-2.334-.8-3.5-1.206q-5.268-1.837-10.534-3.678-4.663-1.627-9.327-3.25c-1.016-.354-2.037-.7-3.052-1.051a1.377,1.377,0,0,0-1.613.428c-.016.017-.033.033-.048.051l-2.121,2.32C-534.367-2185.2-534.641-2184.9-534.943-2184.564Z" transform="translate(1188.273 2642.215)" fill="#38ada2"/>
  </g>
</svg>
