<svg xmlns="http://www.w3.org/2000/svg" xmlns:xlink="http://www.w3.org/1999/xlink" width="40" height="40" viewBox="0 0 40 40">
  <defs>
    <clipPath id="clip-path">
      <rect id="Asset_1" data-name="Asset 1" width="40" height="40" transform="translate(972 293)" fill="#db422d" stroke="#707070" stroke-width="1"/>
    </clipPath>
  </defs>
  <g id="Mask_Group_90" data-name="Mask Group 90" transform="translate(-972 -293)" clip-path="url(#clip-path)">
    <g id="Layer_2" data-name="Layer 2" transform="translate(971.994 294.862)">
      <g id="Layer_1" data-name="Layer 1">
        <path id="Path_1498" data-name="Path 1498" d="M31.151,18.978c-2.25,0-4.446.1-6.627-.031a8.692,8.692,0,0,0-5.435,1.459c-2.207,1.409-4.524,2.647-6.807,3.934a.919.919,0,0,0-.547.954c.04.856.011,1.716.011,2.659h7.335v8.313H2.954V28.021h7.318c0-1.1.027-2.138-.025-3.173,0-.175-.317-.381-.528-.5Q5.243,21.814.755,19.3c-.225-.126-.448-.261-.749-.437L.7,17.628c.261.132.49.238.709.362,2.992,1.678,5.99,3.347,8.963,5.052a1.114,1.114,0,0,0,1.295-.013c3-1.753,6.027-3.477,9.049-5.2a2.027,2.027,0,0,1,.925-.3c3.505-.023,7.009-.017,10.514-.017.137,0,.277.027.509.05V27.979h7.341v8.3H23.892V28h7.259Zm-5.8,15.816H38.543v-5.3H25.351ZM4.419,34.82H17.6V29.505H4.419Z" fill="#db422d"/>
        <path id="Path_1499" data-name="Path 1499" d="M3.814,18.358,3.6,17.023c.452-.076.847-.135,1.24-.214a.728.728,0,0,0,.5-1.205c-.362-.536-.706-1.013-1.062-1.526.128-.147.217-.257.315-.36l1.787-1.85c.561.4,1.058.751,1.562,1.1.572.4,1.089.191,1.213-.513.1-.563.191-1.127.3-1.734l.784-.13V8.29H2.954V0H19.092V8.258H11.807v2.331l.734.135c.1.551.216,1.131.324,1.716.137.742.648.965,1.253.542.486-.338.969-.683,1.438-1.015L17.7,14.191c-.28.4-.62.887-.954,1.375-.456.658-.233,1.144.572,1.28.351.055.7.122,1.108.191-.038.261-.069.488-.1.715s-.072.414-.122.7c-.835-.133-1.631-.248-2.418-.4-.122-.025-.242-.21-.305-.347a15.245,15.245,0,0,1-.614-1.514.879.879,0,0,1,.084-.626c.208-.381.5-.694.717-1.064a.572.572,0,0,0-.027-.475.427.427,0,0,0-.4-.025c-.948,1.1-1.972.818-3.076.3-.381-.177-.572-.326-.61-.742a4.937,4.937,0,0,0-.191-1.053c-.042-.143-.208-.334-.334-.345a.434.434,0,0,0-.343.3c.029,1.247-.6,1.838-1.768,2.22a1.282,1.282,0,0,1-1.381-.154c-.32-.24-.988-.572-1.087-.462-.454.479.175.784.4,1.091.393.526.273.91.114,1.512a2.06,2.06,0,0,1-2.3,1.663,6.062,6.062,0,0,0-.635.092C3.982,18.423,3.936,18.394,3.814,18.358ZM17.607,1.465H4.447v5.3H17.607Z" fill="#db422d"/>
        <path id="Path_1500" data-name="Path 1500" d="M14.174,18.69a3.164,3.164,0,1,1-3.1-3.173,3.126,3.126,0,0,1,3.1,3.173Zm-3.16,1.653a1.68,1.68,0,0,0,.048-3.358,1.716,1.716,0,0,0-1.743,1.7,1.688,1.688,0,0,0,1.7,1.653Z" fill="#db422d"/>
      </g>
    </g>
  </g>
</svg>
