<svg xmlns="http://www.w3.org/2000/svg" xmlns:xlink="http://www.w3.org/1999/xlink" width="21" height="21" viewBox="0 0 21 21">
  <defs>
    <clipPath id="clip-path">
      <rect id="Rectangle_631" data-name="Rectangle 631" width="21" height="21" transform="translate(31 14)" fill="#717171" stroke="#707070" stroke-width="0.3"/>
    </clipPath>
  </defs>
  <g id="Events" transform="translate(-31 -14)" clip-path="url(#clip-path)">
    <g id="event" transform="translate(31 14)">
      <g id="Group_4330" data-name="Group 4330">
        <g id="Group_4329" data-name="Group 4329">
          <path id="Path_1103" data-name="Path 1103" d="M18.826,2.278q-.064,0-.129,0H17.078V.886A.983.983,0,0,0,15.99,0H14.5a.871.871,0,0,0-.961.886V2.277H7.464V.886A.871.871,0,0,0,6.5,0H5.01A.983.983,0,0,0,3.922.886V2.277H2.3A1.872,1.872,0,0,0,.379,4.1q0,.064,0,.129V18.849A2.059,2.059,0,0,0,2.3,21H18.7a2.059,2.059,0,0,0,1.923-2.151V4.225A1.872,1.872,0,0,0,18.826,2.278ZM14.5,1.012h1.569V3.8H14.5Zm-9.488,0H6.452V3.8H5.01V1.012Zm14.6,17.837a1.051,1.051,0,0,1-.911,1.139H2.3a1.051,1.051,0,0,1-.911-1.139V8.1H19.608V18.849Zm0-14.624V7.084H1.392V4.225A.86.86,0,0,1,2.3,3.289H3.922v.557a1.041,1.041,0,0,0,1.088.961H6.5a.936.936,0,0,0,.961-.91q0-.026,0-.051V3.289h6.072v.557a.936.936,0,0,0,.91.961H15.99a1.041,1.041,0,0,0,1.088-.961V3.289H18.7a.86.86,0,0,1,.911.936Z" fill="#717171" stroke="#707070" stroke-width="0.3"/>
          <path id="Path_1104" data-name="Path 1104" d="M7.692,15l-.455,2.53a.506.506,0,0,0,.734.531l2.277-1.189,2.277,1.189.228.051a.481.481,0,0,0,.3-.1.506.506,0,0,0,.2-.481L12.8,15l1.847-1.771a.556.556,0,0,0,.126-.531.531.531,0,0,0-.4-.329l-2.53-.38L10.7,9.69a.506.506,0,0,0-.911,0l-1.139,2.3-2.53.38a.531.531,0,0,0-.4.329.557.557,0,0,0,.126.531Zm1.392-2.049a.455.455,0,0,0,.354-.278l.81-1.619.81,1.619a.455.455,0,0,0,.354.278l1.8.253-1.29,1.24a.531.531,0,0,0-.152.455l.3,1.8-1.594-.86-.228-.051-.228.051-1.594.86.3-1.8a.531.531,0,0,0-.152-.455l-1.29-1.24Z" fill="#717171" stroke="#707070" stroke-width="0.3"/>
        </g>
      </g>
    </g>
  </g>
</svg>
