<svg id="group" xmlns="http://www.w3.org/2000/svg" width="19" height="14.044" viewBox="0 0 19 14.044">
  <path id="group-2" data-name="group" d="M10,12.261a4.131,4.131,0,1,0-2.921-1.21A4.118,4.118,0,0,0,10,12.261Zm6.609.826a2.062,2.062,0,1,0-1.461-.6A2.061,2.061,0,0,0,16.609,13.087Zm0,.487a3.451,3.451,0,0,0-2.41.8A6.619,6.619,0,0,0,10,13.087a6.513,6.513,0,0,0-4.206,1.292,3.483,3.483,0,0,0-2.4-.8c-1.807,0-2.891.9-2.891,1.8,0,.45,1.084.9,2.891.9a7.919,7.919,0,0,0,1.341-.11l-.033.223c0,.826,1.988,1.652,5.3,1.652,3.108,0,5.3-.826,5.3-1.652l-.017-.211a8.5,8.5,0,0,0,1.324.1c1.694,0,2.891-.452,2.891-.9,0-.9-1.134-1.8-2.891-1.8ZM3.391,13.087a2.061,2.061,0,1,0-1.462-.6,2.058,2.058,0,0,0,1.462.6Z" transform="translate(-0.5 -4)" fill="#26a59a"/>
</svg>
