<svg xmlns="http://www.w3.org/2000/svg" xmlns:xlink="http://www.w3.org/1999/xlink" width="64" height="62" viewBox="0 0 64 62">
  <defs>
    <clipPath id="clip-path">
      <rect id="Rectangle_631" data-name="Rectangle 631" width="40" height="40" transform="translate(31.642 14.642)" fill="#26a59a" stroke="#707070" stroke-width="1"/>
    </clipPath>
  </defs>
  <g id="Group_5700" data-name="Group 5700" transform="translate(-296 -187)">
    <path id="_5aa737ee-d142-476f-b3d8-e863e2b56648-getty-688398000" data-name="5aa737ee-d142-476f-b3d8-e863e2b56648-getty-688398000" d="M4,0H64a0,0,0,0,1,0,0V62a0,0,0,0,1,0,0H4a4,4,0,0,1-4-4V4A4,4,0,0,1,4,0Z" transform="translate(296 187)" fill="#26a59a" opacity="0.05"/>
    <g id="Mask_Group_26" data-name="Mask Group 26" transform="translate(277.358 184.357)" clip-path="url(#clip-path)">
      <g id="event" transform="translate(33.642 15.642)">
        <g id="Group_4330" data-name="Group 4330" transform="translate(0)">
          <g id="Group_4329" data-name="Group 4329">
            <path id="Path_1103" data-name="Path 1103" d="M33.761,4.122q-.116,0-.233,0H30.6V1.6A1.779,1.779,0,0,0,28.629,0h-2.7a1.577,1.577,0,0,0-1.74,1.6V4.12H13.2V1.6A1.577,1.577,0,0,0,11.46,0h-2.7A1.779,1.779,0,0,0,6.79,1.6V4.12H3.86A3.388,3.388,0,0,0,.379,7.413q0,.116,0,.233V34.108A3.726,3.726,0,0,0,3.86,38H33.528a3.726,3.726,0,0,0,3.48-3.892V7.646A3.388,3.388,0,0,0,33.761,4.122ZM25.928,1.831h2.839V6.867H25.928Zm-17.169,0h2.61V6.867H8.759V1.831ZM35.176,34.108a1.9,1.9,0,0,1-1.648,2.06H3.86a1.9,1.9,0,0,1-1.648-2.06V14.651H35.176V34.108Zm0-26.463v5.174H2.212V7.646A1.556,1.556,0,0,1,3.86,5.952H6.79V6.959A1.884,1.884,0,0,0,8.759,8.7h2.7A1.694,1.694,0,0,0,13.2,7.052q0-.046,0-.093V5.952H24.188V6.959A1.694,1.694,0,0,0,25.835,8.7h2.794A1.884,1.884,0,0,0,30.6,6.959V5.952h2.93a1.557,1.557,0,0,1,1.648,1.694Z" transform="translate(-0.378 0)" fill="#26a59a"/>
            <path id="Path_1104" data-name="Path 1104" d="M9.524,20.147,8.651,25a.971.971,0,0,0,1.408,1.019l4.369-2.282L18.8,26.021l.437.1a.922.922,0,0,0,.583-.194A.971.971,0,0,0,20.2,25l-.874-4.855,3.544-3.4a1.068,1.068,0,0,0,.243-1.019,1.02,1.02,0,0,0-.777-.631l-4.855-.728L15.3,9.953a.971.971,0,0,0-1.748,0L11.369,14.37,6.515,15.1a1.019,1.019,0,0,0-.777.631,1.068,1.068,0,0,0,.243,1.019Zm2.67-3.932a.874.874,0,0,0,.68-.534l1.553-3.107,1.553,3.107a.874.874,0,0,0,.68.534l3.447.485-2.476,2.379a1.02,1.02,0,0,0-.291.874l.583,3.447-3.058-1.651-.437-.1-.437.1L10.932,23.4l.583-3.447a1.019,1.019,0,0,0-.291-.874L8.748,16.7Z" transform="translate(3.453 6.347)" fill="#26a59a"/>
          </g>
        </g>
      </g>
    </g>
  </g>
</svg>
