<svg xmlns="http://www.w3.org/2000/svg" width="14.869" height="27.501" viewBox="0 0 14.869 27.501">
  <path id="Path_9946" data-name="Path 9946" d="M36.386.006,32.819,0c-4.007,0-6.6,2.656-6.6,6.768V9.889H22.638a.561.561,0,0,0-.561.561v4.521a.561.561,0,0,0,.561.561h3.586V26.94a.561.561,0,0,0,.561.561h4.678a.561.561,0,0,0,.561-.561V15.532h4.193a.561.561,0,0,0,.561-.561l0-4.521a.561.561,0,0,0-.561-.561H32.023V7.243c0-1.271.3-1.917,1.959-1.917h2.4a.561.561,0,0,0,.56-.561V.566A.561.561,0,0,0,36.386.006Z" transform="translate(-22.077)" fill="#cb4e38"/>
</svg>
