<svg xmlns="http://www.w3.org/2000/svg" xmlns:xlink="http://www.w3.org/1999/xlink" width="18" height="18" viewBox="0 0 18 18">
  <defs>
    <clipPath id="clip-path">
      <rect id="Rectangle_930" data-name="Rectangle 930" width="18" height="18" transform="translate(31 14)" fill="#7e7e7e" stroke="#707070" stroke-width="1"/>
    </clipPath>
  </defs>
  <g id="Events" transform="translate(-31 -14)" clip-path="url(#clip-path)">
    <g id="event" transform="translate(31.325 14)">
      <g id="Group_4259" data-name="Group 4259" transform="translate(0)">
        <g id="Group_4258" data-name="Group 4258">
          <path id="Path_2022" data-name="Path 2022" d="M16.219,1.956q-.055,0-.111,0h-1.39V.76A.844.844,0,0,0,13.784,0H12.5a.748.748,0,0,0-.826.76V1.955H6.462V.76A.748.748,0,0,0,5.637,0H4.355a.844.844,0,0,0-.934.76V1.955H2.03A1.608,1.608,0,0,0,.379,3.518q0,.055,0,.111V16.186A1.768,1.768,0,0,0,2.03,18.032H16.109a1.768,1.768,0,0,0,1.651-1.847V3.628A1.608,1.608,0,0,0,16.219,1.956ZM12.5.869h1.347v2.39H12.5Zm-8.147,0H5.593v2.39H4.355V.869ZM16.891,16.186a.9.9,0,0,1-.782.978H2.03a.9.9,0,0,1-.782-.978V6.952H16.891v9.233Zm0-12.557V6.083H1.248V3.628a.739.739,0,0,1,.782-.8h1.39V3.3a.894.894,0,0,0,.934.826H5.637a.8.8,0,0,0,.826-.782q0-.022,0-.044V2.824h5.214V3.3a.8.8,0,0,0,.782.826h1.326a.894.894,0,0,0,.934-.826V2.824h1.39a.739.739,0,0,1,.782.8Z" transform="translate(-0.378)" fill="#7e7e7e"/>
          <path id="Path_2023" data-name="Path 2023" d="M7.41,14.212l-.391,2.173a.435.435,0,0,0,.63.456L9.6,15.82l1.955,1.021.2.043a.413.413,0,0,0,.261-.087.435.435,0,0,0,.174-.413L11.8,14.212l1.586-1.521a.478.478,0,0,0,.109-.456.456.456,0,0,0-.348-.282l-2.173-.326L9.995,9.65a.435.435,0,0,0-.782,0l-.978,1.977-2.173.326a.456.456,0,0,0-.348.282.478.478,0,0,0,.109.456ZM8.6,12.453a.391.391,0,0,0,.3-.239l.7-1.39.7,1.39a.391.391,0,0,0,.3.239l1.543.217-1.108,1.065a.456.456,0,0,0-.13.391l.261,1.543L9.8,14.929l-.2-.043-.2.043-1.369.739L8.3,14.125a.456.456,0,0,0-.13-.391L7.062,12.67Z" transform="translate(-1.13 -1.329)" fill="#7e7e7e"/>
        </g>
      </g>
    </g>
  </g>
</svg>
