<svg xmlns="http://www.w3.org/2000/svg" width="14.765" height="19.383" viewBox="0 0 14.765 19.383"><defs><style>.a{fill:#7e7e7e;}</style></defs><g transform="translate(-61)"><path class="a" d="M62.7,19.383H74.061a1.705,1.705,0,0,0,1.7-1.7v-12H71.79a1.705,1.705,0,0,1-1.7-1.7V0H62.7A1.705,1.705,0,0,0,61,1.7V17.68A1.705,1.705,0,0,0,62.7,19.383Zm1.7-10.26a.568.568,0,0,1,.568-.568H71.79a.568.568,0,0,1,.568.568V14.8a.568.568,0,0,1-.568.568H64.975a.568.568,0,0,1-.568-.568Z"/><path class="a" d="M181,256h5.679v4.543H181Z" transform="translate(-115.457 -246.308)"/><path class="a" d="M331.568,13h3.642L331,8.789v3.642A.568.568,0,0,0,331.568,13Z" transform="translate(-259.778 -8.456)"/></g></svg>