<svg xmlns="http://www.w3.org/2000/svg" width="35" height="35" viewBox="0 0 35 35">
  <path id="Subtraction_10" data-name="Subtraction 10" d="M31,35H4a4,4,0,0,1-4-4V4A4,4,0,0,1,4,0H31a4,4,0,0,1,4,4V31A4.005,4.005,0,0,1,31,35ZM16.556,26.049c.124,0,.253,0,.39.01h.012l.052,0c.121,0,.245.008.369.008a2.949,2.949,0,0,0,.818-.091l.049.067c.227-.039.456-.06.679-.081a4.688,4.688,0,0,0,1.189-.215c.041,0,.089.005.143.005a2.71,2.71,0,0,0,.455-.038c.051-.022.094-.04.132-.056a.8.8,0,0,0,.291-.171.167.167,0,0,1,.045-.006.239.239,0,0,1,.118.038l.014.008c.075-.011.151-.017.225-.023a.9.9,0,0,0,.535-.149l.023.054.007,0a1.938,1.938,0,0,1,.747-.278.454.454,0,0,1,.1-.079c.052-.036.1-.069.1-.093s-.015-.019-.039-.024a.084.084,0,0,1,.037-.009.087.087,0,0,1,.043.014.07.07,0,0,0,.035.015c.015,0,.032-.012.052-.037l-.062.113a6.23,6.23,0,0,0,1.45-.662h.022a.861.861,0,0,0,.379-.169,2.053,2.053,0,0,1,.357-.19,1.028,1.028,0,0,1,.2-.154c.125-.082.253-.167.276-.281l.041.041c.177-.118.413-.3.719-.548a.279.279,0,0,0,.117-.186.4.4,0,0,1,.046-.126l.05.032a.337.337,0,0,0,.039-.272c0-.017-.006-.033-.008-.049a.375.375,0,0,0,.1-.093.435.435,0,0,1,.088-.089.831.831,0,0,0-.046.348.624.624,0,0,0,.14-.242c.037-.1.069-.179.146-.207.109-.145.144-.257.1-.308a.085.085,0,0,0,.024-.014.07.07,0,0,1,.03-.015.009.009,0,0,1,.007,0,.054.054,0,0,1,0,.037.608.608,0,0,0,.08-.276c.005-.015,0-.024,0-.03l0,.013c0,.006,0,.011,0,.016a.313.313,0,0,1-.021.041c-.007.013-.014.025-.019.037a.319.319,0,0,1-.013-.086c0-.056-.006-.11-.067-.113,0,.015,0,.028,0,.038a.153.153,0,0,1-.025.107.267.267,0,0,1,.078-.28.043.043,0,0,1,.019-.005c.023,0,.033.027.042.055l0,.007c.007.024.014.047.028.047s.016-.006.027-.019a3.091,3.091,0,0,0-.053-.326.1.1,0,0,0-.012-.051c0,.014.007.029.01.044l0,.007c0,.052-.035.1-.07.1a.039.039,0,0,1-.027-.011l.005.135-.06-.025a1.078,1.078,0,0,1-.11.279,1.273,1.273,0,0,0-.109.264l.1-.045a.631.631,0,0,0-.044.125c-.024.088-.049.179-.141.219a.049.049,0,0,0,0-.037.051.051,0,0,0-.036-.016.1.1,0,0,1-.032-.01c0,.007,0,.014,0,.022a.109.109,0,0,1-.03.075l-.044-.084c.032.09-.065.195-.136.271a.315.315,0,0,0-.061.076l0-.027c-.055.04-.06.052-.058.057s.013.007.027.007.032,0,.036.011,0,.021-.019.04a.091.091,0,0,1-.056.023.122.122,0,0,1-.054-.018.141.141,0,0,0-.065-.019.112.112,0,0,0-.045.01c-.021.025-.044.054-.069.085a1.224,1.224,0,0,1-.474.425,4.96,4.96,0,0,0-.36.4.117.117,0,0,1-.059.026.033.033,0,0,1-.03-.021c-.007-.013-.011-.021-.019-.021s-.027.015-.053.048c-.006-.035-.037-.056-.066-.077l-.014-.01c0,.018-.035.045-.071.07s-.078.056-.073.076.02.018.051.021c-.209.106-.431.219-.634.344a.072.072,0,0,0,.034-.073.06.06,0,0,0-.064-.037.814.814,0,0,1-.419.3.1.1,0,0,0,.055.049.069.069,0,0,1,.048.061l-.018.02a.193.193,0,0,1-.086.068.427.427,0,0,1-.032-.035.174.174,0,0,0-.137-.082.258.258,0,0,0-.1.022c0-.065.073-.092.133-.113.035-.012.063-.022.064-.037s-.009-.02-.03-.033a.569.569,0,0,1,.4-.245h.016c.019-.034.027-.054.023-.061a.008.008,0,0,0-.008,0,.146.146,0,0,0-.044.016l-.008,0a.184.184,0,0,1-.065.019.031.031,0,0,1-.033-.029.736.736,0,0,0-.135.1,1.112,1.112,0,0,1-.226.153.064.064,0,0,0,.031.032c.009.006.017.01.018.018s-.01.027-.036.053a.2.2,0,0,1-.152.087.218.218,0,0,1-.087-.022l-.013-.006a.139.139,0,0,0-.048-.016h-.007a.305.305,0,0,1,.036-.028.3.3,0,0,0,.044-.035.313.313,0,0,0-.156.071.457.457,0,0,1-.129.073.052.052,0,0,1-.014-.047c.009-.029.056-.044.106-.061s.12-.04.127-.083l-.129-.053c-.1.032-.1.063-.11.091s-.01.057-.122.081l.007-.054-.118.076a.107.107,0,0,0,.1.078.17.17,0,0,0,.075-.02c-.016.089-.046.092-.1.1a.418.418,0,0,0-.162.045c-.006.016-.008.027-.005.031a.007.007,0,0,0,.006,0,.086.086,0,0,0,.026-.008l.006,0a.105.105,0,0,1,.039-.01.031.031,0,0,1,.031.021.036.036,0,0,1,.007.031c-.009.035-.073.066-.135.1l-.043.021a.217.217,0,0,1-.067.014c-.037,0-.048-.02-.061-.043a.092.092,0,0,0-.05-.049.246.246,0,0,1,.111-.042c.016,0,.025.006.026.019.033-.029.05-.054.048-.075s-.027-.039-.051-.053-.041-.025-.043-.042.007-.025.025-.041c-.1,0-.118.04-.139.078a.151.151,0,0,1-.043.054.173.173,0,0,0-.061.026.157.157,0,0,0,.061-.026c.009,0,.012,0,.015,0a.055.055,0,0,1,.007.036c0,.021,0,.044.019.052-.049.07-.089.1-.127.1A.154.154,0,0,1,22.6,24.5l-.01-.008a.192.192,0,0,0-.121-.053.186.186,0,0,0-.079.02c.039.048-.01.106-.056.161s-.076.09-.066.129c.006.023.028.042.067.058l-.011.008a.361.361,0,0,1-.17.084.056.056,0,0,0,0-.042.058.058,0,0,0-.035-.026c-.014-.006-.027-.011-.029-.023s.006-.031.028-.056l-.088.022.1-.135c-.05-.014-.112-.025-.173-.036a.992.992,0,0,1-.175-.04c-.025.015-.039.029-.041.041a.034.034,0,0,0,.01.027c.005.008.011.015.008.023s-.021.024-.057.038a.034.034,0,0,0,.006-.035c-.008-.016-.036-.025-.075-.025a.227.227,0,0,0-.054.007c.04,0,.061.012.065.03.009.039-.062.1-.113.129a.328.328,0,0,1-.076.009.219.219,0,0,1-.158-.049.009.009,0,0,1,0-.01l.091-.085a.054.054,0,0,1-.031.016.032.032,0,0,1-.02-.009.042.042,0,0,0-.028-.011.091.091,0,0,0-.042.014c-.007.023-.02.052-.034.083a1.2,1.2,0,0,0-.047.122.145.145,0,0,1-.063.014.267.267,0,0,1-.057-.007h-.006a.182.182,0,0,0-.035-.006.028.028,0,0,0-.014,0l.119-.076a.188.188,0,0,1-.054.01.061.061,0,0,1-.06-.04c-.013-.022-.023-.041-.055-.041a.179.179,0,0,0-.064.016l-.032.076a.051.051,0,0,1-.038-.019.028.028,0,0,1,0-.024.219.219,0,0,1-.094.046.281.281,0,0,0-.056.022l-.02-.043a.456.456,0,0,0-.05.038.226.226,0,0,1-.132.069.118.118,0,0,1-.067-.022.1.1,0,0,0,.064.038.1.1,0,0,0,.039-.012l.009,0a.176.176,0,0,1,.072-.016.208.208,0,0,1,.041,0c.018.013.026.025.024.037-.005.029-.071.048-.12.061a.237.237,0,0,0-.044.015c0-.031-.018-.046-.047-.046a.391.391,0,0,0-.129.042.464.464,0,0,1-.109.039A.733.733,0,0,0,20.122,25a.535.535,0,0,1-.051-.023l-.024.082c-.013-.034-.031-.052-.056-.052a.2.2,0,0,0-.087.036l-.008,0a.225.225,0,0,1-.108.042.088.088,0,0,1-.026,0,.081.081,0,0,0,.024-.078.078.078,0,0,0-.066-.045.068.068,0,0,1,.028.052c0,.033-.038.061-.074.088s-.075.056-.059.086c-.044,0-.068-.014-.076-.03s.006-.049.023-.079.044-.077.017-.106a.11.11,0,0,1-.09.039.4.4,0,0,1-.046,0,.369.369,0,0,0-.045,0,.075.075,0,0,0-.078.052c.036.006.053.014.056.024s-.019.031-.043.05a.174.174,0,0,0-.05.048h-.026c-.029,0-.044,0-.047-.009s0-.012.007-.019.013-.019.009-.028-.018-.017-.043-.023c-.045.014-.1.06-.1.1,0,.012.008.028.04.038l-.007,0a.3.3,0,0,0-.111.03.33.33,0,0,1-.118.03.15.15,0,0,1-.069-.017.022.022,0,0,1-.006-.021c.007-.019.052-.027.091-.035s.061-.012.063-.022,0-.009-.011-.014c-.122.006-.145.053-.17.1a.176.176,0,0,1-.153.113.054.054,0,0,1,.043.048c0,.051-.059.125-.133.16-.062,0-.089-.008-.09-.016s.013-.013.037-.024.073-.034.076-.059a.039.039,0,0,0-.018-.033l-.1.02a.063.063,0,0,1-.03-.05c0-.04.053-.079.1-.116s.094-.069.093-.1a.05.05,0,0,0-.027-.039l-.1.047c.022-.035.049-.1.006-.13-.012.047-.082.053-.134.053l-.056,0h-.044c-.015,0-.023,0-.026,0s0,.02,0,.024a.011.011,0,0,0,.009,0,.089.089,0,0,0,.026-.007.1.1,0,0,1,.027-.007.009.009,0,0,1,.007,0,.02.02,0,0,1,0,.016.29.29,0,0,0-.1.052.267.267,0,0,1-.161.061.3.3,0,0,1-.063-.007c.02-.011.031-.023.033-.036s-.009-.032-.022-.048-.029-.036-.013-.053a.079.079,0,0,0-.023,0c-.019,0-.026.013-.033.026a.049.049,0,0,1-.048.034.146.146,0,0,1-.04-.007l.013-.043H17.7a3.617,3.617,0,0,0-1.237.155.541.541,0,0,0-.254-.1c-.051-.013-.11-.028-.175-.047.029.009.041.019.04.031s-.06.045-.1.049l-.1-.09a.29.29,0,0,0-.119-.023,1,1,0,0,0-.269.053l-.036.011a.1.1,0,0,1-.028-.063.13.13,0,0,0-.065-.022.093.093,0,0,0-.068.039.09.09,0,0,1-.038.029l-.068-.067-.023.056a.45.45,0,0,1-.067,0,.221.221,0,0,1-.168-.053.059.059,0,0,1-.009-.055h-.005c-.029.008-.057.015-.059.028s.006.016.021.026a1.657,1.657,0,0,0-.625-.112c.083.035.082.059.08.106v.018c-.013.025-.022.035-.031.035a.036.036,0,0,1-.02-.01l-.006,0a.066.066,0,0,0-.04-.014.089.089,0,0,0-.038.01.071.071,0,0,0-.016-.039c-.01-.015-.019-.03-.013-.041s.021-.016.049-.019a1.358,1.358,0,0,0-.57-.161,2.6,2.6,0,0,1-.413-.081c-.046,0-.056.009-.066.019a.077.077,0,0,1-.027.018.871.871,0,0,0-.381-.129,1.168,1.168,0,0,1-.311-.085.047.047,0,0,1,0,.051.151.151,0,0,1-.136.067.216.216,0,0,1-.058-.008.183.183,0,0,1-.041.006.045.045,0,0,1-.034-.011c-.013-.013-.012-.037-.012-.065a.149.149,0,0,0-.047-.136.239.239,0,0,1-.051,0,.551.551,0,0,1-.187-.036L11.9,24.5a.351.351,0,0,1-.072.007.333.333,0,0,1-.219-.074h.015a.5.5,0,0,1-.087-.057.383.383,0,0,0-.127-.073.068.068,0,0,1-.05.017.4.4,0,0,1-.1-.019h-.005a.411.411,0,0,0-.1-.019.076.076,0,0,0-.044.011.009.009,0,0,1,0-.01s0-.01,0-.024l-.031.058-.135-.094a.2.2,0,0,0,.042-.015.143.143,0,0,1,.066-.017.157.157,0,0,0-.077-.039c-.017,0-.025.014-.032.028l0,.007a.06.06,0,0,1-.057.035c-.092,0-.1-.031-.117-.064a.141.141,0,0,0-.024-.044h.008a.086.086,0,0,1,.064.03.06.06,0,0,0,.034.021c.017,0,.025-.009.026-.015s-.015-.017-.031-.027-.045-.026-.039-.041l-.007,0a.063.063,0,0,0-.025.009l-.007,0a.1.1,0,0,1-.048.014.1.1,0,0,1-.052-.017l-.04-.019c-.062-.029-.146-.068-.153-.105a.029.029,0,0,1,.009-.026h-.013a.362.362,0,0,1-.091-.013.337.337,0,0,0-.076-.013h-.017l.012.009c.049.036.132.1.125.141l-.007,0c-.055-.016-.157-.046-.159-.08l.046,0a.262.262,0,0,1-.067-.022.217.217,0,0,0-.064-.021.013.013,0,0,0-.012,0c0,.006,0,.017.005.034l-.059-.129a.1.1,0,0,1-.039.007.5.5,0,0,1-.172-.053l-.045-.019a.207.207,0,0,1,.032-.044c.019-.022.037-.043.034-.069s-.027-.054-.074-.088l-.167-.013c-.042-.018-.064-.036-.067-.054a.042.042,0,0,1,.018-.036.306.306,0,0,0-.215-.082l-.053,0-.053,0a.19.19,0,0,1-.165-.082c.043-.006.066-.016.072-.032s-.018-.051-.051-.088l-.019-.021A.064.064,0,0,1,9.1,23.2a.063.063,0,0,1-.031-.009.027.027,0,0,0,.005.014c.005.006.016.006.028.006a.065.065,0,0,1,.075.052c0,.013-.01.02-.021.02a.165.165,0,0,1-.063-.027.239.239,0,0,0-.055-.026c-.022-.141-.158-.254-.3-.374a1.211,1.211,0,0,1-.313-.332c-.012.017-.024.025-.036.025s-.046-.028-.07-.057a.183.183,0,0,0-.074-.066c.014-.009.021-.018.022-.028s-.025-.042-.057-.067-.091-.073-.089-.124l-.055.1a.315.315,0,0,0-.16-.155c-.07-.04-.13-.074-.11-.162-.006-.022-.006-.037,0-.044a.015.015,0,0,1,.012-.005.217.217,0,0,1,.084.044L7.916,22c.009-.083-.053-.149-.112-.213s-.128-.137-.091-.22a.115.115,0,0,0-.034.012.121.121,0,0,1-.053.016.127.127,0,0,1-.089-.052c0-.035,0-.08,0-.122,0-.105,0-.174.017-.174a.26.26,0,0,0-.028-.046.14.14,0,0,1-.032-.128c.022,0,.035.021.048.041l.013.019a.836.836,0,0,0-.1-.317l-.014-.029a.385.385,0,0,0,.048-.214.734.734,0,0,1,.041-.242.153.153,0,0,1-.01-.154c.015-.052.028-.1-.028-.116a.074.074,0,0,0,.034-.014l.005,0a.367.367,0,0,0-.032-.065.2.2,0,0,1-.041-.144l.072.049a.054.054,0,0,0,.024.007c.039,0,.057-.06.074-.112s.023-.074.04-.084l-.01,0h0c-.007,0-.01,0-.011,0s0-.019.01-.035.029-.06,0-.075l.013-.092c.019-.063.014-.076.01-.087s-.008-.022.034-.112c.012-.023.026-.035.039-.035s.031.018.037.034.009.036,0,.046a.37.37,0,0,0,.125-.192l.013-.033a.244.244,0,0,0,.056-.065l.007-.01c.007,0,.012-.009.017-.023a.123.123,0,0,1,.059-.047l.038.059a.467.467,0,0,0,.068-.228.02.02,0,0,0-.006-.014,4.064,4.064,0,0,0,.572-.6.053.053,0,0,0-.008.036c.005,0,.009-.007.013-.021s.032-.044.047-.066c.029-.043.054-.081.075-.081a.018.018,0,0,1,.012,0,.091.091,0,0,1,.08-.043.228.228,0,0,0,.117-.042.018.018,0,0,0,0-.009.064.064,0,0,0-.029-.034.753.753,0,0,0,.3-.2.93.93,0,0,1,.331-.222.165.165,0,0,0-.027.073l0,.019-.019.016c0,.006.006.008.007.008s.008-.007.012-.023l.059-.048a2.749,2.749,0,0,0,.384-.357.149.149,0,0,0,0,.029.072.072,0,0,1-.021.067.686.686,0,0,0,.3-.239c-.027,0-.042.008-.044.015s0,.009.006.014.008.011.007.017-.008.01-.019.015c-.029,0-.044-.011-.045-.027,0-.043.093-.122.16-.142l.009.011a.669.669,0,0,0,.121-.076.567.567,0,0,1,.133-.079c.02,0,.03,0,.031.006s-.007.011-.022.022-.033.022-.032.033,0,.008.01.011a.085.085,0,0,0,.067.025.529.529,0,0,0,.173-.045l.047-.019a.319.319,0,0,1,.072-.026l.021-.025c.02-.025.04-.049.027-.068a.1.1,0,0,1,.052-.022.045.045,0,0,1,.033.018.045.045,0,0,0,.033.018.059.059,0,0,0,.024-.006c.056-.078.113-.149.173-.224l.052-.065c0,.011.014.02.03.03s.041.026.042.045-.007.027-.025.042a.949.949,0,0,0,.329-.255c.033-.036.065-.07.1-.1a1.341,1.341,0,0,0,.238-.087c.049-.021.095-.04.122-.049.01.008.014.014.013.018s-.014.008-.029.011-.053.009-.055.032l.133.031c-.035.012-.054.024-.057.038s.009.027.022.042.027.029.026.045a.041.041,0,0,1-.016.028,1.622,1.622,0,0,1,.511-.124l.086-.013c-.026-.015-.038-.028-.037-.041s.053-.047.107-.069.146-.059.131-.106a.338.338,0,0,1,.1-.02.061.061,0,0,1,.066.045c.009.02.017.038.05.04a2.172,2.172,0,0,1,.448-.111c.067-.012.13-.022.193-.036a.022.022,0,0,1,0,.023,1.882,1.882,0,0,1,.239-.061,1.27,1.27,0,0,0,.435-.145.061.061,0,0,0,0,.018c0,.015,0,.03-.032.048h.015c.08,0,.094-.026.1-.058s.016-.058.085-.058a.453.453,0,0,1,.065.006l-.049.059a.433.433,0,0,1,.2-.031.438.438,0,0,0,.254-.055c.007.021-.012.034-.033.047l-.017.012c.048-.012.1-.021.148-.03a.781.781,0,0,0,.3-.1.043.043,0,0,1,.009.036c0,.02-.026.039-.063.057a.246.246,0,0,0,.038,0,.185.185,0,0,0,.117-.045.175.175,0,0,1,.111-.045.2.2,0,0,1,.036,0,.18.18,0,0,1,.1.043.785.785,0,0,1,.254-.065c.04-.006.075-.011.1-.017.017.026.054.039.111.058l.056.019c.36-.014.728-.015,1.085-.015.408,0,.83,0,1.241-.022.023.022.031.039.027.052s-.043.027-.079.033-.062.011-.067.025,0,.016.012.027c0-.035.018-.048.061-.048a.77.77,0,0,1,.079.007l.027,0a1.358,1.358,0,0,0,.161.011h.037l.008.014h.024a.3.3,0,0,1,.1.019.326.326,0,0,0,.1.02.247.247,0,0,0,.038,0v-.025a.109.109,0,0,1,.04-.007.245.245,0,0,1,.113.039l.007,0a.22.22,0,0,0,.094.036.067.067,0,0,0,.057-.035l.078.076a.131.131,0,0,1,.08-.031.2.2,0,0,1,.071.017l.005,0a.225.225,0,0,0,.082.019.186.186,0,0,0,.08-.019l-.018.016a.345.345,0,0,0,.13.022.966.966,0,0,0,.127-.011l.013,0a.8.8,0,0,1,.1-.009c.047,0,.075.012.09.038h.008c.054,0,.109.006.161.006.124,0,.194-.019.218-.061.03.042-.007.087-.031.105.283.032.579.09.865.145.319.062.62.121.9.146a.019.019,0,0,1,.006.016c0,.008-.013.012-.024.017l-.017.008a1.1,1.1,0,0,1,.43.126.913.913,0,0,0,.361.108.377.377,0,0,0,.109-.016l.11-.041a.159.159,0,0,1,.05.086.133.133,0,0,0,.034.065.085.085,0,0,1,.025,0,.515.515,0,0,1,.141.034.511.511,0,0,0,.143.035.064.064,0,0,0,.039-.01.03.03,0,0,1,0,.024c0,.007-.011.01-.02.014s-.018.007-.021.015a.7.7,0,0,0,.219.058.574.574,0,0,1,.244.074l-.057.011c.234.16.484.344.726.523a11.763,11.763,0,0,0,1.218.828c.037.026.057.049.06.07a.066.066,0,0,1-.018.05c-.013.018-.023.033,0,.051a2.792,2.792,0,0,1,.879,1.161c.088.17.17.33.261.473a1.277,1.277,0,0,0,.377.62,5,5,0,0,0-1.587-3.1c-.178-.133-.393-.267-.6-.4-.17-.106-.331-.207-.462-.3a12.541,12.541,0,0,0-4.2-1.556c.021.013.029.025.026.036s-.066.039-.119.039l-.017-.03-.126.04c-.04,0-.061-.016-.061-.033s.04-.043.093-.043h.011c-.411-.074-.787-.115-1.185-.158-.166-.018-.337-.037-.51-.058-.013.024-.045.035-.1.035l-.066,0-.066,0c-.042,0-.086.005-.1.042-.008-.006-.011-.01-.011-.014s.006-.008.013-.013a.1.1,0,0,0,.016-.012l-.071,0c-.08,0-.143.006-.2.006a1.338,1.338,0,0,1-.522-.118c-.358-.03-.729-.045-1.1-.045a20.033,20.033,0,0,0-3.5.351,13.091,13.091,0,0,0-4.4,1.753,1.233,1.233,0,0,1-.29.32,1.38,1.38,0,0,0-.322.358l-.013-.045a.674.674,0,0,1-.278.228,2.1,2.1,0,0,0-.248.151c.014.016,0,.036-.009.055s-.019.032-.013.045.016.017.036.023c-.013.064-.068.081-.132.1a.27.27,0,0,0-.177.116l-.005,0h0l0,0c.006.006.018.019.016.029s-.006.008-.014.01c-.06.13-.08.165-.093.165s-.009,0-.014-.011l-.006-.007a.047.047,0,0,0-.038-.018c-.047,0-.122.055-.231.168a3.761,3.761,0,0,0-.517,2.279.034.034,0,0,1,.031-.033c.017,0,.03.017.035.046-.075.057-.035.133.008.214a.326.326,0,0,1,.055.173c-.023,0-.043-.038-.061-.07l-.015-.026a1.629,1.629,0,0,0,.195.6,2.846,2.846,0,0,1,.131.3l-.049-.054a.192.192,0,0,0,.053.065,2.314,2.314,0,0,1,.21.314,1.067,1.067,0,0,0,.3.376H7.64a.014.014,0,0,0-.014.007c-.009.017.02.056.05.1a.444.444,0,0,1,.054.087.615.615,0,0,1,.326.259.758.758,0,0,0,.335.279l-.024.016A7.055,7.055,0,0,0,10.5,24.825a4.745,4.745,0,0,1,.454.212,3,3,0,0,0,.9.341h.009c.037,0,.045-.01.051-.022a.033.033,0,0,1,.036-.02h.013c.033.01.048.019.05.028s-.007.013-.016.019-.017.012-.017.019a.017.017,0,0,0,.008.013,1.668,1.668,0,0,1,.487.125,3.251,3.251,0,0,0,.351.111.206.206,0,0,1,.051-.011c.026,0,.05-.007.057-.019a.022.022,0,0,0,0-.02,1.639,1.639,0,0,0,.62.161,2.089,2.089,0,0,1,.493.1c-.018-.03-.022-.05-.015-.064s.027-.02.059-.02a.906.906,0,0,1,.126.014,1,1,0,0,0,.138.015l.029,0c.041.01.053.026.057.038a.039.039,0,0,1-.012.037,3.711,3.711,0,0,1,.691.106.47.47,0,0,0,.14-.022.425.425,0,0,1,.127-.022.41.41,0,0,1,.09.011.348.348,0,0,0,.253.062h.064a.784.784,0,0,1,.2.017.045.045,0,0,1,0-.045.276.276,0,0,1,.21-.066.49.49,0,0,1,.128.017l-.057.116C16.366,26.052,16.456,26.049,16.556,26.049Zm.5-2.338a1.124,1.124,0,0,1,.142.012,1.162,1.162,0,0,0,.148.013.342.342,0,0,0,.292-.138l.031.112a.729.729,0,0,1,.26-.113.451.451,0,0,0,.351-.256.309.309,0,0,0,.135.03.212.212,0,0,0,.1-.021c.008-.033.015-.057.022-.078a.346.346,0,0,0,.007-.212.012.012,0,0,1,.009,0c.021,0,.06.041.086.069l.013.014a.2.2,0,0,1,.053-.006h.076a.113.113,0,0,0,.091-.028.13.13,0,0,0,.01-.109l.059.08v-.006c.006-.109.014-.258.125-.258l.026,0a.3.3,0,0,1-.023-.083.159.159,0,0,0-.085-.137s0-.006.007-.006a.107.107,0,0,1,.042.024l.005,0a.105.105,0,0,0,.034.021s0-.01-.008-.035l.076.124a.668.668,0,0,0,.257-.471.172.172,0,0,0,.05.009c.052,0,.063-.042.075-.086s.026-.1.084-.114a.094.094,0,0,1,.006-.092c.019-.043.039-.087-.059-.162l.083.034a.918.918,0,0,0,.05-.081A.811.811,0,0,1,19.8,21.6a.03.03,0,0,0,.009-.024c0-.022-.033-.043-.065-.066l-.032-.023.006-.016,0-.01.046.012a.152.152,0,0,0-.036-.037l.022-.059.025.012.051.025c.025-.023-.006-.06-.034-.091l-.018-.022.009-.03.009-.03h.02a.056.056,0,0,0,.019-.04.047.047,0,0,0-.019-.033l0-.017,0-.017.01,0a.309.309,0,0,0,0-.034,2.767,2.767,0,0,0,.058-.479,1.581,1.581,0,0,0,.373.1l.01,0a1.82,1.82,0,0,1-.045-.9c.013-.113.026-.229.035-.356L20.2,19.4a.763.763,0,0,1-.184-.343c-.066-.1-.127-.207-.193-.321a1.848,1.848,0,0,0-.984-1,.138.138,0,0,1-.1.121l.014-.043-.087.07c-.007,0-.015-.007-.013-.023,0-.035.052-.094.083-.094a2.135,2.135,0,0,0-.389-.14c-.087-.025-.177-.051-.266-.085-.02.055-.042.063-.063.063L18,17.6l-.021,0c-.019,0-.042.009-.057.072a.057.057,0,0,1,.008-.043.22.22,0,0,0,.01-.022l-.008,0a.485.485,0,0,1-.12.026c-.061,0-.091-.05-.172-.183a1.694,1.694,0,0,0-.48-.068,3.382,3.382,0,0,0-1.366.377,3.049,3.049,0,0,0-1.154,1.444.309.309,0,0,1,.092.227.276.276,0,0,0,.076.2l-.066-.034c.018.032.023.055.017.071s-.038.033-.079.048a.538.538,0,0,0-.116.053.075.075,0,0,1,.047.031c.009.014.019.028.1.044.015.01.022.018.02.024s-.038.013-.079.015-.1,0-.107.023a.02.02,0,0,0,0,.021l-.01,0,.007,0c.047.014.048.016.049.018a.014.014,0,0,1-.01,0c.03.043.045.065.041.071h-.007a.093.093,0,0,1-.026-.005l-.021-.006A.315.315,0,0,0,14.489,20a.218.218,0,0,0-.149.058,1.9,1.9,0,0,0,.035.329,1.058,1.058,0,0,1,.01.466.112.112,0,0,1,.06-.012c.027,0,.045.006.046.015-.056.008-.085.018-.088.031s.018.023.039.036.044.027.044.041-.006.013-.017.019h-.006a.1.1,0,0,1-.065-.021l-.014-.009a.157.157,0,0,0-.008.166.154.154,0,0,1,0,.158c.053.043.043.1.032.157s-.02.11.046.132c-.058.006-.064.03-.07.056a.075.075,0,0,1-.02.043h.015c.053,0,.086.01.1.03s.01.063,0,.1a.13.13,0,0,0,0,.1.091.091,0,0,0,.066.033l-.045.014.057.117,0,.005a1.259,1.259,0,0,0,.467.612.409.409,0,0,1,.1.193c.038.119.078.242.216.267a.1.1,0,0,0,.06-.038c.014-.015.027-.029.044-.03a.023.023,0,0,1,.007.017c0,.014-.016.027-.033.042s-.032.028-.035.042l.005,0h.024c.067,0,.1.054.137.111a.308.308,0,0,0,.093.108.168.168,0,0,1,.035-.021.1.1,0,0,0,.06-.06c.006.124.092.143.176.162s.145.032.171.113c.029-.118.06-.133.083-.133a.107.107,0,0,1,.039.011.114.114,0,0,0,.04.01.047.047,0,0,0,.023-.006c.018.018,0,.074-.025.115a.307.307,0,0,1,.242.118.151.151,0,0,0,.069-.049c.022-.022.042-.042.063-.042a.038.038,0,0,1,.027.013.11.11,0,0,0,.02.077.05.05,0,0,0,.038.013.244.244,0,0,0,.035,0,.259.259,0,0,1,.036,0,.057.057,0,0,1,.049.021c.009-.11.068-.192.113-.192a.046.046,0,0,1,.038.023l-.045.193A.3.3,0,0,1,17.056,23.712Zm8.707-8.8v0a.092.092,0,0,1-.052.1.094.094,0,0,0-.039.135c-.009.064.095.184.1.189.044-.132.166-.169.321-.205l.008-.017c.018-.038.038-.081.078-.091a.617.617,0,0,1,.175-.136.484.484,0,0,0,.21-.191.069.069,0,0,1-.038-.049l.014.011-.021-.036h0a.027.027,0,0,1,.02.012.05.05,0,0,1,.015.028c.017-.019.032-.038.046-.057a.42.42,0,0,1,.082-.089c-.02-.021-.015-.028-.01-.035a.015.015,0,0,0,0-.02l0,0c.005-.035.008-.048.029-.048a.291.291,0,0,1,.064.014,1,1,0,0,0,.234-.214,1.465,1.465,0,0,1,.143-.148,2.269,2.269,0,0,0,.161-.231c.045-.07.091-.143.144-.21a.106.106,0,0,1-.02-.088.107.107,0,0,0-.011-.076l.02.022a.031.031,0,0,1,0-.025.016.016,0,0,1,.013,0l.021,0h.005a.185.185,0,0,0,.041,0,.035.035,0,0,1-.013-.019c0-.006,0-.012-.029-.032,0-.006-.005-.01,0-.011h0a.084.084,0,0,1,.031.012.111.111,0,0,0,.034.014l.006-.006h0l-.007-.008-.008-.008a.061.061,0,0,0,0-.017c0-.006,0-.01,0-.011h0s.006,0,.012.009l.018.016a.1.1,0,0,0,.065.026h.005a.6.6,0,0,0,.031-.069.224.224,0,0,1,.1-.137.071.071,0,0,1-.029-.026.125.125,0,0,0,.03.014s0-.01,0-.021,0-.016,0-.019h.01a.048.048,0,0,1,.015.024l0,.006a.042.042,0,0,0,.04-.029c.008-.015.015-.029.039-.029,0-.024.018-.029.036-.034s.022-.006.026-.014a.025.025,0,0,0,0-.02c.007.01.014.015.021.015h.016l.009,0c-.015-.022-.02-.035-.016-.042s.015-.009.027-.01.025,0,.029-.01,0-.015,0-.027l.014.014a.657.657,0,0,1,.055-.06.353.353,0,0,0,.107-.161c.011-.019.036-.025.063-.032s.075-.018.077-.062a.048.048,0,0,0-.015-.022c-.006-.006-.012-.012-.013-.018h0c.008,0,.014.006.019.012a.043.043,0,0,0,.016.015c-.008-.031.014-.038.038-.046a.082.082,0,0,0,.035-.018.082.082,0,0,1-.007-.014.054.054,0,0,0-.02-.027.082.082,0,0,0,.02,0c.026,0,.034-.02.041-.039s.015-.038.041-.038H28.5c-.029-.02-.04-.033-.042-.043a.02.02,0,0,1,.007-.016.02.02,0,0,0,.007-.019h0c.01,0,.027.015.038.028l0,.01.01,0-.006-.008c.012-.029.021-.041.064-.049a.056.056,0,0,0-.008-.028c0-.011-.01-.022-.006-.029a.01.01,0,0,1,.008-.005.052.052,0,0,0,.026.011c.01,0,.013-.009.016-.018s.006-.018.017-.018c-.03-.025-.048-.058-.043-.073a.011.011,0,0,1,.012-.007l.057.059a.108.108,0,0,1,.051-.075.117.117,0,0,0,.056-.126l.037.027a.167.167,0,0,1,.044-.087.145.145,0,0,0,.042-.127h.007a.1.1,0,0,0,.069-.024c0-.013,0-.022-.006-.03a.158.158,0,0,0-.029-.074h0a.09.09,0,0,1,.042.017L29,11.795c.017,0,.033,0,.039-.015s0-.022-.008-.041l.029.026c-.012-.047-.012-.075,0-.088a.026.026,0,0,1,.021-.009h.011a.12.12,0,0,1-.013-.032.071.071,0,0,0-.039-.051h0a.033.033,0,0,1,.017.008c.009.007.013.009.015.009s0,0,0-.013l.034.047a.259.259,0,0,0,.089-.154l0-.009a.055.055,0,0,0,.025.008c.014,0,.019-.012.025-.025s.014-.032.037-.032a.029.029,0,0,1,.009-.032c.011-.013.022-.026-.009-.067l.03.025.017-.013a.219.219,0,0,1,.07-.043.01.01,0,0,0,.006-.006c0-.008-.005-.021-.013-.034a.107.107,0,0,1-.016-.035l.03.026a.227.227,0,0,0-.051-.084l-.018-.023.01,0a.01.01,0,0,0,.008,0,.01.01,0,0,1,.01-.005l.011,0a.354.354,0,0,0,.061.106.009.009,0,0,0,.006,0c0-.007,0-.02,0-.033s-.005-.023,0-.027h.006a.032.032,0,0,1,.016.006.017.017,0,0,0,.015-.009c0-.009,0-.023-.017-.041h.006a.042.042,0,0,1,.022.022c.009-.01.012-.019,0-.04h-.005v0h-.006c-.007-.012-.011-.02-.015-.028a.134.134,0,0,0-.042-.051l0,.01c0,.006,0,.011,0,.014-.018-.013-.024-.028-.02-.036a.008.008,0,0,1,.008,0,.036.036,0,0,1,.019.008.123.123,0,0,1,.037.04.066.066,0,0,0,.028.029l-.042-.089v0h0a.063.063,0,0,1-.041-.027l.008.029-.031-.029c0,.012-.012.016-.022.021s-.026.011-.022.035l.039.022s0,.013,0,.022,0,.018,0,.022l-.006,0a.048.048,0,0,1-.019-.007.1.1,0,0,0-.029-.031l-.014-.012,0,.007c0,.007.006.012,0,.014l-.041-.043c.015.019.02.03.018.038s-.009.01-.016.012-.008,0-.009.006l-.008-.007h-.007c-.005,0,0,.008.01.014s.021.015.021.02h0c-.013,0-.027-.012-.043-.025a.212.212,0,0,0-.049-.035.071.071,0,0,0-.008.026c0,.021-.008.045-.033.045a.062.062,0,0,1-.02,0,.214.214,0,0,0,.01.1h0a.039.039,0,0,1-.024-.013c-.009-.009-.015-.015-.018-.015s0,0,0,.012a.479.479,0,0,0-.053-.048l-.006,0a.015.015,0,0,1,0,.019c0,.008-.007.017.028.039a.092.092,0,0,0-.064.056c0-.01-.031-.043-.053-.053a.093.093,0,0,1,.018.07.025.025,0,0,1-.016.015.238.238,0,0,0,.036.03.2.2,0,0,1,.037.031l0,.008c0,.009.008.016.006.019l-.02-.014c-.031-.027-.066-.057-.084-.057a.01.01,0,0,0-.007,0c-.014-.016-.019-.025-.018-.03s0-.006.007-.007,0,0,0,0,0-.008-.025-.024-.024-.044-.017-.057a.019.019,0,0,1,.018-.011.039.039,0,0,1,.019.006c-.014-.024-.02-.027-.023-.027l-.005,0-.006,0c-.006,0-.015-.006-.027-.018a.048.048,0,0,0,0,.029.076.076,0,0,1,0,.043.152.152,0,0,0,.021.018.058.058,0,0,1,.024.03c.007.012.009.021.007.024h0a.076.076,0,0,1-.039-.016c-.023-.017-.028-.018-.028-.018l0-.021h-.005a.007.007,0,0,0-.006,0s0,.01,0,.016,0,.017,0,.021c-.021-.018-.03-.028-.029-.034s0-.005.006-.007.007,0,.007-.008,0-.011-.01-.02l-.055-.034a.009.009,0,0,0,0,.006c0,.007.007.016.015.025s.015.017.013.022,0,0-.01,0l-.021-.023,0,.025c.015.015.048.044.062.044a.006.006,0,0,0,.006,0l.009.01c.011.015.016.023.015.026h-.016c-.008,0-.012,0-.012.01s.013.015.016.015l0,0h0s.01,0,.019.013c.029.025.026.037.024.049V11.4a.009.009,0,0,1-.007,0c-.009,0-.022-.011-.036-.023a.213.213,0,0,0-.032-.025.014.014,0,0,1,0-.011H28.8a.023.023,0,0,1,.015.009.145.145,0,0,0-.056-.059.108.108,0,0,1-.04-.038H28.71s0,0,0,0,.006.015.014.027a.126.126,0,0,1,.014.022s0,0,0,.01,0-.005,0-.01a.1.1,0,0,1,.023.021.2.2,0,0,0,.025.025c.021.031.021.037.02.039h0a.106.106,0,0,1-.039-.023l-.01-.007a.133.133,0,0,0-.052-.031,0,0,0,0,0-.005.005.259.259,0,0,1,.06.073.221.221,0,0,0,.083.087c.006.014.011.027.008.032a.213.213,0,0,0-.042-.031.086.086,0,0,1-.035-.037l-.007.007-.04-.058a.6.6,0,0,0-.057-.026.38.38,0,0,1-.046-.021.065.065,0,0,0,.024.031c.01.008.019.016.017.027a.063.063,0,0,0-.042-.029.008.008,0,0,0-.006,0c.029,0,.06.056.064.072a.01.01,0,0,1-.008,0,.115.115,0,0,1-.058-.03l-.02-.035a.006.006,0,0,1,0,0h0l-.008,0a.031.031,0,0,0-.011-.006s0,0,0,.005l.017.021c.019.023.042.052.062.075l0,.006h0l-.012,0-.011,0-.016-.034,0,0h0c-.007,0-.019-.01-.03-.019s-.023-.019-.028-.019a.007.007,0,0,0,0,.007l.029.036a.071.071,0,0,1-.027-.021.024.024,0,0,1,.005.021.017.017,0,0,0,0,.011l-.023-.02a.19.19,0,0,0,.011.021c.008.015.014.026.012.029h0a.043.043,0,0,1-.023-.009.105.105,0,0,0,.028.017s0,0,0-.006,0-.006,0-.008h.013c.034.023.031.037.029.046a.014.014,0,0,0,0,.008c-.018-.019-.026-.021-.028-.021s0,.013,0,.022,0,.017,0,.019l-.03-.017-.022-.012.034.04c-.018-.015-.028-.023-.033-.023s0,.009.005.02.007.017.005.02h-.006a.158.158,0,0,0-.065-.054.169.169,0,0,1,.06.066.14.14,0,0,0,.033.042c-.02,0-.039-.024-.059-.049a.279.279,0,0,0-.048-.05c.009.013.009.017.009.019s0,0-.006,0h-.009s0,0,0,0,0,.007.017.026c.018,0,.026.016.036.032a.163.163,0,0,0,.017.025l-.007,0c-.006,0-.01-.005-.015-.012a.058.058,0,0,0-.029-.023.122.122,0,0,0,.06.065l-.006,0a.03.03,0,0,0,0,.015c0,.01,0,.017,0,.02H28.5a.027.027,0,0,1-.012,0c-.02-.014-.018-.023-.016-.03s0-.011-.011-.019a.008.008,0,0,0,0,.006c0,.011.016.031.033.052s.04.046.037.06a.271.271,0,0,1,.089.1h-.006c-.012,0-.015-.007-.019-.017a.086.086,0,0,0-.037-.045v.015a.219.219,0,0,1-.072-.082.178.178,0,0,0-.06-.069l.012.029a.357.357,0,0,0-.061-.061c.011.011.016.021.015.027s-.007.007-.011.008-.006,0-.006,0,.013.014.014.014v0h0s0,0,.008.006a.087.087,0,0,0,.014.03c.009.015.019.031.015.037s0,0-.007,0a.2.2,0,0,0-.043-.039.128.128,0,0,1-.028-.024h-.006a.068.068,0,0,0,.013.016c.009.01.011.015.01.017h-.007l-.021-.023c-.041.033-.084.086-.031.2a.108.108,0,0,0-.068-.019H28.2c.02,0,.036.033.036.041l-.049-.029h-.008a.008.008,0,0,0-.007,0c-.006.009,0,.035.014.058l0,.012-.032-.025-.01,0c0,.005,0,.015.016.03a.125.125,0,0,1,.012.015l-.035-.02.027.027a.02.02,0,0,1,0,.017.009.009,0,0,1-.008,0c-.006,0-.021,0-.048-.031a.061.061,0,0,0,.02.026h-.011a.047.047,0,0,0-.044.049c.017,0,.028.012.048.03l.013.011c.015.016.018.02.018.021l-.006,0-.007,0s0,0,0,.012l-.018-.014c-.014-.009-.026-.018-.03-.033a.1.1,0,0,0-.034-.008c-.025,0-.035.019-.044.037a.066.066,0,0,1-.029.036.042.042,0,0,0,.012.022l.009.012a.074.074,0,0,0-.025-.006c-.017,0-.021.012-.026.025s-.009.025-.026.026a.207.207,0,0,1,.066.08.009.009,0,0,1,0,.007c.006.012.005.013,0,.013h0c-.005,0-.017-.01-.036-.026a.306.306,0,0,0-.063-.046.042.042,0,0,1,.007.036.009.009,0,0,1-.005.006l-.006-.007c.01.019.012.032.009.038a.009.009,0,0,1-.008,0l-.01,0-.005,0h0l-.018,0-.017,0s-.006,0-.006,0c.018.021.016.029.014.037a.028.028,0,0,0,0,.025l-.011,0,.031.029-.031,0-.01-.014a.153.153,0,0,1-.018-.028h-.006s0,0-.005,0,.007.012.017.022a.128.128,0,0,1,.028.034c0,.007,0,.011,0,.013h0a.043.043,0,0,1-.02-.01l-.017-.01s0-.007,0-.008h.013c-.008-.015-.012-.017-.016-.017h-.007a.017.017,0,0,1-.011-.005l.006.008c.012.015.019.024.017.028a.027.027,0,0,0-.01.006.019.019,0,0,1-.013.007c-.007,0-.016-.006-.027-.017a.049.049,0,0,1,.008.023.038.038,0,0,0,.007.02H27.8a.076.076,0,0,1,.045.017c0,.009,0,.02-.007.02a.016.016,0,0,1-.009,0l-.005-.013a.012.012,0,0,1,0,.01c0,.006,0,.011.012.022l-.045-.025c.018.023.015.033.012.043a.046.046,0,0,0,0,.008l-.025-.025c-.023-.023-.044-.044-.06-.044h-.005l.023.047s0,.005-.006.005-.013-.006-.027-.022a.011.011,0,0,0-.009.006c0,.011.01.033.024.055s.024.036.02.043,0,0-.006,0c-.037-.045-.048-.046-.065-.047l.008.013c0,.007.007.01.006.012l.005,0s0,0,0-.006-.006-.013-.006-.014h0a.022.022,0,0,1,.011,0c.019.016.017.022.015.027a.011.011,0,0,0,0,.009.122.122,0,0,0-.057-.023.043.043,0,0,0-.035.024.048.048,0,0,1-.04.024h-.01c.019.017.025.024.025.029s0,0,0,.006-.009.005,0,.015c-.016-.017-.021-.019-.023-.019s0,.005,0,.009,0,.011,0,.013h0a.019.019,0,0,1-.01,0l.052.042c-.006,0-.008,0-.009,0s0,.018.008.03l0,0c.006.014.01.023.008.026h0a.048.048,0,0,1-.025-.011c-.022,0-.032-.033-.037-.047a.043.043,0,0,0-.024-.012l-.006,0s0,.013,0,.022,0,.019,0,.023h-.006a.046.046,0,0,1-.024-.01l.016.015a.17.17,0,0,1,.049.063l-.038-.013c-.02-.006-.04-.012-.044-.019a.086.086,0,0,0,0,.013c0,.006,0,.011,0,.014h-.006l-.009,0a.046.046,0,0,1-.012-.021l0-.006a.015.015,0,0,0-.012,0c-.006.009,0,.027,0,.047l0,.009a.056.056,0,0,0-.03-.012.04.04,0,0,0-.022.009.051.051,0,0,1-.026.009H27.34c.01.014.013.021.011.025s-.005,0-.009.005-.006,0-.007,0,0,.009.023.031l-.02-.014a.368.368,0,0,0,.022.033c.015.022.025.036.023.041l-.04-.04c-.014-.014-.024-.021-.03-.021s-.007,0-.009.006,0,.007-.008.007L27.3,13h0l0,0s0,0,0,.006,0,.009.011.016l.005.022a.025.025,0,0,0,.007.019.018.018,0,0,1,0,.022h0c-.008,0-.017-.007-.029-.02a.06.06,0,0,1-.014-.019.027.027,0,0,0-.014,0,.008.008,0,0,0-.006,0s0,.012,0,.02h0v.005h0a.011.011,0,0,0-.009,0h0l0,0h0l-.01,0-.03-.034v0a.141.141,0,0,0,.03.065h-.007a.039.039,0,0,0-.03.014.1.1,0,0,0-.018.071.04.04,0,0,0-.009-.013s0,0,0,.006a.07.07,0,0,0,0,.02c0,.009,0,.013,0,.014h0s0,0-.009-.006v.005h0a.031.031,0,0,1-.015-.006.051.051,0,0,0-.02-.007l-.006,0a.13.13,0,0,0,.024.024l-.014,0c-.017,0-.018.016-.018.034s0,.038-.023.038a.184.184,0,0,1-.016-.019l-.005-.007-.006-.008c0-.008-.005-.009-.006-.009s0,0,.006.009v.006a.206.206,0,0,0,.019.1l-.009-.008a.1.1,0,0,1-.022-.029c-.014.019-.012.042.008.07h.005s0-.007-.006-.01-.01-.009-.01-.011a.066.066,0,0,1,.043.055.006.006,0,0,1-.006,0l-.007-.005a.023.023,0,0,0,0,.022.023.023,0,0,1,0,.022c-.014-.006-.014-.009-.014-.014s0-.009-.012-.017a.073.073,0,0,0-.042-.021.023.023,0,0,0-.017.007c0,.006-.006.008-.008.008l.005.01a.1.1,0,0,0,.021.028l0,0L27,13.5a.024.024,0,0,1-.012-.006c-.011-.009-.016-.013-.019-.013l.065.113-.019-.015a.111.111,0,0,1-.04-.04c-.009.019.013.057.034.094.009.015.017.03.023.042-.009,0-.011.016-.013.029a.065.065,0,0,1,0,.016C27,13.715,27,13.714,27,13.713l.006,0s0,0-.007-.01l-.041-.02c0-.01-.012-.023-.029-.036a.128.128,0,0,1-.034-.033.018.018,0,0,1,0,.015c-.007.013-.029.019-.047.024l-.011,0c.037.024.037.036.037.05s0,.025.024.047c0,.005,0,.008-.008.008s-.021-.011-.033-.022a.087.087,0,0,0-.028-.02.051.051,0,0,1-.023.046.068.068,0,0,0-.018.021l-.011-.011a.055.055,0,0,1-.009.028.067.067,0,0,0,0,.072.009.009,0,0,1-.005,0,.072.072,0,0,1-.018-.023c-.006,0-.007,0-.007,0s.008.017.018.028.019.021.017.025l-.009,0h-.006l-.022-.029a.018.018,0,0,1,0,.014s-.007.006-.013.007-.012,0-.014.008,0,.014.006.027a.1.1,0,0,1-.018-.023l0-.008a.061.061,0,0,1,0,.019.062.062,0,0,0,.008.059.1.1,0,0,1-.038-.045h0s0,0-.005,0,0,.014.009.024.013.021.011.026l-.006,0h0a.1.1,0,0,1-.034-.015.047.047,0,0,1,0,.043.038.038,0,0,0,0,.016.1.1,0,0,0-.033-.017L26.584,14l-.027.028a.366.366,0,0,0-.122.206c-.034-.022-.036-.034-.038-.044s0-.017-.023-.029c.015.014.021.021.021.027s0,.006-.007.008a.029.029,0,0,0-.014.023l-.008-.005c0,.006,0,.007-.007.007h-.013a.008.008,0,0,0-.006,0,.009.009,0,0,0,0,.008l.013.011s0,.008,0,.01H26.35a.054.054,0,0,1-.019,0,.065.065,0,0,0-.017,0c0,.008,0,.014.013.025l-.039-.023c.011.015.015.023.013.026l-.009,0s-.009,0-.011,0,0,.005,0,.01-.011,0-.012,0,0,.015,0,.028l0,.006c0,.012.005.021,0,.024h0a.024.024,0,0,1-.015-.006.08.08,0,0,0,.028.085.291.291,0,0,1-.051-.05.374.374,0,0,1-.034.063.213.213,0,0,0-.044.149.052.052,0,0,1-.017-.018l-.005-.007c.009.032-.011.038-.028.043s-.022.007-.026.016,0,.029.021.056l.031.043A.163.163,0,0,1,26.1,14.7a.16.16,0,0,0-.029-.018.027.027,0,0,1,0,.029c0,.009-.007.019.01.038a.061.061,0,0,1-.021-.02l-.009-.011c-.01,0,0,.021,0,.038s.007.027,0,.033a.007.007,0,0,1-.006,0l-.013-.02a.262.262,0,0,0-.2.069.114.114,0,0,0-.013.1s0,.007,0,.007-.018-.009-.028-.018l-.007-.006a.056.056,0,0,0-.016-.012Zm-16.569.024a.11.11,0,0,1,.089.057c.023.031.045.06.09.06a.158.158,0,0,0,.055-.012h.012a.419.419,0,0,0,.182-.095c-.14-.054-.186-.182-.23-.345L9.377,14.6c-.041-.02-.092-.045-.1-.087a.731.731,0,0,1-.151-.188.565.565,0,0,0-.21-.227.069.069,0,0,1-.049.038l.01-.016-.038.02c0-.015.025-.036.037-.036a.56.56,0,0,0-.06-.051.478.478,0,0,1-.1-.089.046.046,0,0,1-.027.015.018.018,0,0,1-.011,0,.018.018,0,0,0-.011,0l-.009,0c-.026-.009-.04-.013-.046-.022s0-.035.006-.081a1.16,1.16,0,0,0-.237-.256,1.753,1.753,0,0,1-.16-.152,2.77,2.77,0,0,0-.249-.176c-.077-.05-.156-.1-.23-.16a.135.135,0,0,1-.063.02.133.133,0,0,1-.027,0,.123.123,0,0,0-.028,0,.127.127,0,0,0-.052.013l.022-.02H7.585a.019.019,0,0,1-.015-.005c-.006-.007,0-.019,0-.036a.216.216,0,0,0,0-.045.033.033,0,0,1-.019.012c-.006,0-.013,0-.032.028l-.01,0s0-.016.007-.028l0-.009c.01-.019.013-.03.011-.034h0l0,0h0s-.005,0-.006.006l-.009.008H7.484c0-.005,0-.009.005-.013a.11.11,0,0,0,.041-.09.729.729,0,0,0-.071-.033.257.257,0,0,1-.15-.112c0,.006-.02.029-.028.029.012-.019.017-.029.015-.033l0,0-.015,0a.067.067,0,0,1-.017,0c-.006,0-.005-.007,0-.01a.053.053,0,0,1,.025-.015l.007,0a.049.049,0,0,0-.032-.042c-.016-.009-.032-.018-.031-.045h0c-.025,0-.032-.015-.038-.033l0-.005c-.005-.014-.01-.028-.024-.028l-.012,0c.018-.014.016-.021.014-.03a.029.029,0,0,1,0-.018.079.079,0,0,1-.038.017c-.014,0-.016-.015-.019-.03S7.1,12.5,7.082,12.5a.046.046,0,0,0-.018,0l.014-.013a.833.833,0,0,1-.065-.06.415.415,0,0,0-.173-.119A.111.111,0,0,1,6.8,12.25c-.011-.038-.023-.077-.068-.08a.043.043,0,0,0-.024.015.035.035,0,0,1-.017.012c-.005-.008,0-.015.013-.023a.045.045,0,0,0,.014-.015H6.71c-.024,0-.032-.021-.041-.042a.1.1,0,0,0-.022-.038.063.063,0,0,1-.015.008.049.049,0,0,0-.025.019c.01-.043-.016-.054-.041-.065s-.046-.02-.043-.052c-.02.029-.034.041-.044.041a.025.025,0,0,1-.016-.008.025.025,0,0,0-.016-.008c-.007-.008.01-.028.024-.038a.074.074,0,0,1-.055-.068H6.411a.068.068,0,0,0-.021,0,.091.091,0,0,1-.027.008.01.01,0,0,1-.011-.009c.009-.014.012-.024.01-.031s-.01-.009-.018-.012-.021-.007-.02-.02a.1.1,0,0,1-.067.045.016.016,0,0,1-.012,0,.017.017,0,0,1,0-.013l.059-.052a.128.128,0,0,1-.08-.057.141.141,0,0,0-.112-.067l-.022,0,.027-.038a.192.192,0,0,1-.095-.049.172.172,0,0,0-.115-.049H5.881a.107.107,0,0,0-.027-.079l-.032,0a.149.149,0,0,0-.077.028c-.005-.01.008-.032.015-.046l0,0a.113.113,0,0,1-.009-.034c0-.022-.007-.044-.029-.044a.074.074,0,0,0-.031.009l.026-.029a.257.257,0,0,1-.056.008.053.053,0,0,1-.041-.013.037.037,0,0,1-.007-.03.1.1,0,0,1-.032.013.064.064,0,0,0-.05.038c0-.005,0-.015.007-.022s.009-.013.008-.015a.027.027,0,0,0-.013,0l.047-.032a.291.291,0,0,0-.159-.1l-.016-.006a.042.042,0,0,0,.006-.031c0-.01-.015-.016-.026-.021s-.034-.017-.035-.041H5.345a.038.038,0,0,1-.029-.012.039.039,0,0,0-.025-.011.08.08,0,0,0-.043.018l.025-.029-.016-.02A.245.245,0,0,1,5.209,11a.01.01,0,0,0-.01-.007.077.077,0,0,0-.03.012.1.1,0,0,1-.036.015l.026-.029a.222.222,0,0,0-.085.05l-.024.018c0-.015,0-.018,0-.021s-.006-.005,0-.021a.324.324,0,0,0,.107-.059c0-.006-.006-.009-.015-.009l-.02,0-.024,0s-.008,0-.009,0,0-.01.006-.021-.008-.018-.018-.018a.064.064,0,0,0-.037.02.01.01,0,0,1,0-.007.039.039,0,0,1,.024-.025.044.044,0,0,0-.024-.009.052.052,0,0,0-.02,0h0a.012.012,0,0,0-.008,0l0,0h0V10.9s0,.005,0,.006a.148.148,0,0,1-.028.016.129.129,0,0,0-.053.042l.012,0,.01,0s0,0,.006.006a.055.055,0,0,1-.032.016.011.011,0,0,1-.01-.005c0-.005,0-.015.006-.025a.112.112,0,0,1,.04-.036c.013-.008.024-.015.028-.027l-.092.04-.012.005.012-.005.007,0c0,.007-.006.025-.027.043l.03-.007L4.884,11c.014,0,.018.013.023.024s.011.023.03.023h.007L4.967,11l.009,0h.01L5,11a.012.012,0,0,1,.011,0s0,.012,0,.023a.087.087,0,0,0-.029.027l-.015.018.007,0a.043.043,0,0,1,.013,0l-.042.04a.064.064,0,0,1,.034-.017c.009,0,.013.007.017.014s.006.015.01.015L5,11.126c0,.007,0,.011,0,.012s.007,0,.012-.012l0-.006c.005-.008.012-.017.018-.017s-.009.027-.024.044a.2.2,0,0,0-.035.05.078.078,0,0,0,.028.01.067.067,0,0,1,.045.023.043.043,0,0,1,0,.034.165.165,0,0,0,.034,0,.323.323,0,0,0,.066-.008c0,.011-.008.021-.016.03s-.012.012-.011.014h.011a.4.4,0,0,0-.043.048l-.008.01a.084.084,0,0,0-.012.015l.012-.015c.005,0,.007,0,.009,0a.021.021,0,0,1,.009,0l.01,0c.009,0,.018-.009.03-.03a.108.108,0,0,0,.065.07.1.1,0,0,0-.055.052.124.124,0,0,1,.057-.018.031.031,0,0,1,.032.02.253.253,0,0,0,.028-.036.185.185,0,0,1,.032-.038.084.084,0,0,1,.026-.01.05.05,0,0,1-.014.025c-.031.037-.064.075-.05.089-.015.013-.024.018-.03.018A.01.01,0,0,1,5.22,11.5s0-.007-.006-.007-.008,0-.023.024a.076.076,0,0,1-.046.02.024.024,0,0,1-.022-.011.031.031,0,0,1,0-.03c-.016.009-.025.016-.027.021a.008.008,0,0,0,0,.006c0,.005.008.012-.016.034a.028.028,0,0,0,.013,0l.018,0,.022,0a.048.048,0,0,1,.022,0,.159.159,0,0,0,.017-.021.091.091,0,0,1,.052-.031c.01.01-.005.033-.016.05s-.013.02-.012.022l-.022.005a.013.013,0,0,0,0,.01.008.008,0,0,0,.007,0l.011,0,.012,0a.014.014,0,0,1,.012.005c-.017.02-.027.028-.034.028s-.007,0-.009-.007-.005-.008-.01-.008a.032.032,0,0,0-.018.01l-.034.056a.009.009,0,0,0,.008.005c.007,0,.015-.007.023-.014s.016-.014.022-.014.006,0,.008.01l-.024.022.027,0c.016-.017.046-.053.042-.066a.006.006,0,0,0,0,0c.021-.017.031-.024.036-.024s0,.006,0,.01,0,.018.011.02.016-.014.016-.016l-.006,0s0-.007.011-.019.03-.025.038-.025l.012,0h.007c.01.009-.005.027-.021.045a.228.228,0,0,0-.024.031h0c-.006,0-.008,0-.008,0s0-.009.009-.019a.126.126,0,0,0-.058.055.09.09,0,0,1-.04.04.016.016,0,0,0,0,.012.048.048,0,0,0,.028-.012.115.115,0,0,1,.023-.014l.005,0v0c0-.006.008-.014.016-.022a.139.139,0,0,0,.025-.027.117.117,0,0,1,.039-.02c0,.005-.005.02-.022.043s-.038.053-.034.063a.006.006,0,0,0,.006,0,.24.24,0,0,1,.072-.058.2.2,0,0,0,.087-.084.114.114,0,0,1,.029-.007c.005,0,.008,0,.008.006a.112.112,0,0,0-.033.038.083.083,0,0,1-.037.036l.009.007-.06.04a.618.618,0,0,0-.023.059.41.41,0,0,1-.019.048.057.057,0,0,0,.031-.024c.007-.009.014-.018.024-.018a.066.066,0,0,0-.026.041.009.009,0,0,0,0,.008c0-.03.056-.06.074-.064a.014.014,0,0,1,0,.011.112.112,0,0,1-.029.058l-.035.019-.011.006.012-.006a.007.007,0,0,1,0,.008c0,.006-.007.01-.006.012h.007l.022-.018c.023-.018.05-.04.072-.06.006,0,.007.008,0,.015s0,.014,0,.015l-.035.013s0,0,0,0-.009.02-.019.033-.02.024-.017.029,0,0,.007,0l.035-.029a.062.062,0,0,1-.019.027l-.01.007,0,0,.006,0a.027.027,0,0,1,.017-.005h.015l-.019.023.018-.009a.1.1,0,0,1,.03-.013c.005,0,0,.011-.005.025.012-.019.018-.028.017-.031H5.475s0-.006,0-.012c.013-.021.025-.031.037-.031h.015c-.013.016-.02.025-.018.029s0,0,.007,0l.014,0,.014,0a.008.008,0,0,1,.006,0c-.008.016-.013.027-.018.036l-.008.018.039-.034c-.016.019-.024.029-.022.032a.048.048,0,0,0,.021-.005.062.062,0,0,1,.019-.005c.005,0,.006.005,0,.009A.141.141,0,0,0,5.53,12a.16.16,0,0,1,.065-.058.129.129,0,0,0,.044-.034c0,.021-.023.04-.048.059a.25.25,0,0,0-.05.049c.01-.007.014-.009.017-.009a.01.01,0,0,1,0,.011s0,.008,0,.01a.048.048,0,0,0,.027-.015c0-.019.016-.027.032-.037a.163.163,0,0,0,.026-.017c.006.01,0,.016-.01.023a.05.05,0,0,0-.022.03c.015,0,.061-.035.066-.059,0,.005,0,.005.005.005l.014,0,.013,0a.008.008,0,0,1,.007,0s0,.009,0,.018-.018.017-.023.017H5.682s-.009,0-.013.011a.01.01,0,0,0,.008,0c.011,0,.027-.013.045-.028l.007-.006c.019-.016.04-.034.055-.034a.3.3,0,0,1,.106-.089c0,.018,0,.021-.015.025a.08.08,0,0,0-.045.038l.015,0a.21.21,0,0,1-.082.071.165.165,0,0,0-.068.058l.029-.009a.274.274,0,0,0-.06.061c.01-.01.018-.016.024-.016s.008,0,.011.009,0,.011.006.011.015-.014.014-.015H5.713s0,0,0-.009a.092.092,0,0,0,.031-.014.1.1,0,0,1,.035-.015l.005,0a.014.014,0,0,1,0,.011.11.11,0,0,0-.039.039.112.112,0,0,1-.024.028h0s.007,0,.013-.009.012-.011.016-.011,0,0,0,.009l-.021.02a.145.145,0,0,0,.116.062.234.234,0,0,0,.092-.022.1.1,0,0,0-.017.07c0,.009,0,.019,0,.031,0-.02.034-.036.043-.036l-.028.05a.017.017,0,0,0,0,.014.013.013,0,0,0,.011,0,.2.2,0,0,0,.058-.018l0,0L6,12.317c0,.007,0,.011,0,.013a.061.061,0,0,0,.029-.017.115.115,0,0,1,.018-.013l-.02.034.027-.025h.008a.013.013,0,0,1,.013.007s0,.019-.03.052a.044.044,0,0,0,.028-.021.047.047,0,0,0,.006.036.064.064,0,0,0,.047.027c0-.019.012-.031.032-.053l.008-.01c.018-.018.02-.018.021-.018a.014.014,0,0,1,0,.006s0,.006,0,.008a.023.023,0,0,0,.012,0,.149.149,0,0,0-.015.02c-.009.013-.017.026-.032.028-.02.055.007.069.034.082a.078.078,0,0,1,.039.031.033.033,0,0,0,.021-.01l.014-.01a.056.056,0,0,0,0,.036.04.04,0,0,0,.025.018c.014.005.027.011.028.029a.178.178,0,0,1,.083-.066h.006l.012,0s0,.014-.024.037a.265.265,0,0,0-.045.064.056.056,0,0,1,.026-.008c.009,0,.015,0,.016.008l-.007.007a.075.075,0,0,1,.031-.01.012.012,0,0,1,.01,0,.019.019,0,0,1,0,.017c0,.007,0,.015-.006.023s-.005.024,0,.026c.014-.013.023-.015.028-.015l.01,0,.01,0a.032.032,0,0,0,.017-.006.1.1,0,0,1-.006.011l.03-.031v.031l-.013.009a.1.1,0,0,1-.028.017.017.017,0,0,0,0,.011c.007,0,.014-.008.023-.017a.115.115,0,0,1,.033-.027l.011,0c.005,0,0,.013-.006.021a.123.123,0,0,0-.01.018l-.007,0s0,0,0-.007,0-.006,0-.006c-.019.01-.017.014-.016.019s0,.008-.005.016l.007,0,.009-.006a.047.047,0,0,1,.02-.012l.009.01a.021.021,0,0,1,.009.015c0,.008-.006.017-.017.028a.056.056,0,0,1,.025-.008.042.042,0,0,0,.02-.006v-.006a.066.066,0,0,1,.017-.047c.009,0,.018,0,.02,0s0,.006,0,.011l-.011.005H6.59l.006,0c.007,0,.013-.007.023-.022l-.03.056a.05.05,0,0,1,.03-.014l.013,0,.01,0-.026.026c-.026.026-.049.048-.042.066l.048-.023s0,0,.005,0-.007.015-.02.029,0,.01.011.01a.131.131,0,0,0,.048-.022l.006,0a.108.108,0,0,1,.038-.018.011.011,0,0,1,.006.013c-.043.03-.044.042-.045.058v.006c.013-.013.021-.019.026-.019l0-.005,0,0a.044.044,0,0,1-.014.007s0,0,0-.014.016-.016.02-.016h.005l.008,0c-.035.062-.015.078.007.1a.052.052,0,0,1,.027.053c.017-.019.024-.025.029-.025s0,0,.006.005a.011.011,0,0,0,.009.005l.007,0c-.013.014-.019.021-.018.025s.005,0,.01,0,.012,0,.014,0,0,.008,0,.015l.043-.056s0,.008,0,.01a.008.008,0,0,0,.007,0,.1.1,0,0,0,.029-.009.09.09,0,0,1,.027-.01c.005,0,0,.011-.007.028s-.029.031-.044.037l-.006,0c-.007.012-.01.021-.007.025s.008,0,.013,0h.026c.006,0,.01,0,.012,0s0,.014-.009.029l.014-.015a.153.153,0,0,1,.063-.05c0,.012-.007.024-.01.037a.111.111,0,0,1-.018.048l.014,0,.01,0c.006,0,0,.01,0,.016a.035.035,0,0,1-.022.012c0,.012,0,.018.015.018A.161.161,0,0,0,7,13.125a.043.043,0,0,0,0,.053.046.046,0,0,1,.011.033.043.043,0,0,1,.022-.011c.005,0,.007,0,.009.009s0,.009.006.009.015-.007.031-.023l-.015.02.029-.019a.145.145,0,0,1,.045-.025l-.04.04c-.014.014-.021.023-.02.03s0,.007.008.009.009.005.007.011l0,0s.005-.006.007-.006.006.006.008.006.009,0,.016-.01l.022-.005a.028.028,0,0,0,.02-.005.023.023,0,0,1,.013,0l.012,0a.077.077,0,0,1-.039.043c0,.008-.005.015,0,.02a.015.015,0,0,0,.013,0h.012c0-.006.005-.009.012-.014a.031.031,0,0,0-.008.013c.009,0,.013,0,.016,0H7.191l-.011,0a.015.015,0,0,0,0,.012l0,.005h0s0,.006,0,.015l-.032.031,0,0a.128.128,0,0,0,.063-.029.049.049,0,0,0,.014.036.105.105,0,0,0,.071.025h.01a.036.036,0,0,0-.014.011l.007,0,.019,0,.014,0s0,.006,0,.01h.006s0,.008,0,.016-.01.022-.006.029a.208.208,0,0,0,.023-.025.029.029,0,0,0,0,.024c.006.009.019.01.034.011s.041,0,.041.029a.107.107,0,0,0-.024.015l-.01.007.007,0h.026a.2.2,0,0,0,.082-.018l-.015.013a.11.11,0,0,1-.025.019.042.042,0,0,0,.028.01.065.065,0,0,0,.025-.005l.019-.012s0-.006,0-.007h0s0,0-.008.008l-.009.009a.059.059,0,0,1,.049-.041c.006,0,.009,0,.009.006l-.006.007a.019.019,0,0,0,.013,0h.019a.022.022,0,0,1,.014,0c-.005.014-.01.014-.015.015s-.01,0-.017.011c-.033.041-.016.055-.007.063s.006,0,.005.007l.005,0a.093.093,0,0,0,.033-.024h.006s0,.011-.011.021-.011.014-.01.017l.118-.066-.013.019a.105.105,0,0,1-.042.043l.011,0a.257.257,0,0,0,.091-.037l.038-.019,0,.005c0,.006.021.008.033.01l.014,0c-.009.012-.011.012-.012.012s0-.006-.005-.006-.005,0-.01.006l-.019.043c-.016,0-.026.013-.036.027a.115.115,0,0,1-.034.034h.005c.02,0,.03.028.037.051l.005.015c.022-.037.036-.037.048-.037h.008A.056.056,0,0,0,7.9,13.7s.007,0,.008.007-.01.024-.022.037a.085.085,0,0,0-.019.027.061.061,0,0,1,.05.026.076.076,0,0,0,.023.019.021.021,0,0,1,0,.006l-.005,0a.06.06,0,0,1,.03.011A.074.074,0,0,0,8,13.853a.087.087,0,0,0,.036-.009.013.013,0,0,1,0,.006.053.053,0,0,1-.022.017.014.014,0,0,0,0,.007h0a.052.052,0,0,0,.027-.016c.008-.008.019-.018.025-.018s.005.007,0,.016l-.03.02h.007c.011,0,.014.007.016.015s0,.016.015.016A.055.055,0,0,0,8.1,13.9a.069.069,0,0,1-.023.018l-.006,0a.07.07,0,0,1,.02.005.066.066,0,0,0,.024.006.081.081,0,0,0,.036-.011.119.119,0,0,1-.046.038.01.01,0,0,0,0,.008h0a.042.042,0,0,0,.022-.007.079.079,0,0,1,.027-.013s.005,0,.005.008a.064.064,0,0,1-.014.033.046.046,0,0,1,.023-.007.059.059,0,0,1,.018,0l.017,0a.225.225,0,0,0-.014.037l-.006.019.031.029a.417.417,0,0,0,.22.135c-.02.034-.032.036-.043.038s-.018,0-.03.022c.013-.014.021-.02.026-.02s.006,0,.009.008a.034.034,0,0,0,.024.016l-.006.007.006,0a.018.018,0,0,1,0,.013.018.018,0,0,0,0,.013.009.009,0,0,0,.007,0l.013-.013.008,0c.005,0,0,.014,0,.023s-.006.019,0,.022.011,0,.025-.015l-.022.041c.013-.01.021-.014.025-.014a.009.009,0,0,1,0,.009c0,.005,0,.01,0,.012H8.5a.02.02,0,0,0,0,.011.016.016,0,0,0,.012,0,.1.1,0,0,0,.022,0l.02,0s.005,0,.006,0,0,.008-.006.016a.106.106,0,0,0,.026,0,.094.094,0,0,0,.063-.03.216.216,0,0,1-.051.051.476.476,0,0,1,.065.037.256.256,0,0,0,.143.054H8.82a.057.057,0,0,1-.021.021l0,0a.021.021,0,0,1,.013,0c.019,0,.026.014.031.03s.011.031.028.031a.1.1,0,0,0,.05-.021l.044-.029a.157.157,0,0,1-.021.036.167.167,0,0,0-.018.029A.031.031,0,0,1,8.94,14.6a.036.036,0,0,1,.014,0,.04.04,0,0,0,.014,0,.039.039,0,0,0,.024-.012.055.055,0,0,1-.019.02l-.011.009s.005.006.013.006a.113.113,0,0,0,.026,0,.128.128,0,0,1,.026,0c.008,0,.012,0,.012.008l-.02.013c.006.089.033.239.152.239a.169.169,0,0,0,.037,0s.006,0,.007,0-.008.019-.022.034-.015.017-.014.02h.014Zm12.647-2.151h0a.066.066,0,0,1-.017.09c-.024.027-.05.054.006.121.012.055.142.144.148.148,0-.116.095-.164.229-.218l0-.014c0-.034.01-.076.044-.089a.415.415,0,0,1,.118-.141.327.327,0,0,0,.131-.188.079.079,0,0,1-.05-.038l.016.007-.03-.029h0a.065.065,0,0,1,.044.029.455.455,0,0,0,.026-.056.267.267,0,0,1,.046-.083c-.025-.016-.023-.023-.021-.03a.014.014,0,0,0,0-.017l0-.006c0-.016,0-.026,0-.032s.012-.007.028-.007l.048,0a.658.658,0,0,0,.146-.212.948.948,0,0,1,.084-.145,1.566,1.566,0,0,0,.075-.22,1.814,1.814,0,0,1,.065-.2.106.106,0,0,1-.044-.072.1.1,0,0,0-.034-.063l.025.016c-.007-.011-.009-.018-.007-.022s.013-.006.028-.006h.045a.039.039,0,0,1-.017-.014c0-.005-.007-.01-.037-.024-.005,0-.008-.008-.007-.009h0a.1.1,0,0,1,.03.006.164.164,0,0,0,.034.008l.005,0-.009-.01-.008-.006a.054.054,0,0,0-.006-.015c0-.006,0-.008,0-.009h0a.033.033,0,0,1,.013.006l.018.01a.129.129,0,0,0,.06.017l.017,0a.466.466,0,0,0,.007-.06c0-.051.007-.1.05-.132a.091.091,0,0,1-.036-.02.164.164,0,0,0,.031.009s0-.008-.006-.017-.01-.014-.008-.016h.008a.07.07,0,0,1,.019.017l.006.006c.023,0,.025-.016.028-.03s.005-.027.028-.03l.008.011s0-.006-.005-.011a.017.017,0,0,1,0-.017c0-.008.013-.013.022-.017s.018-.008.02-.015a.022.022,0,0,0-.007-.018.044.044,0,0,0,.023.01l.009,0,.01,0h.005c-.022-.018-.029-.028-.028-.035s.012-.009.022-.012.021-.005.023-.012,0-.013-.011-.023l.016.009a.442.442,0,0,1,.031-.058.242.242,0,0,0,.048-.15c0-.018.025-.028.048-.037s.061-.026.049-.062a.06.06,0,0,0-.021-.017.042.042,0,0,1-.017-.013h0a.034.034,0,0,1,.021.009.066.066,0,0,0,.018.011.03.03,0,0,1-.006-.023c0-.01.014-.016.026-.023a.058.058,0,0,0,.026-.021.069.069,0,0,1-.011-.011.053.053,0,0,0-.022-.017l.005,0c.031,0,.033-.019.034-.04s0-.038.032-.038c-.034-.015-.048-.025-.051-.033a.015.015,0,0,1,0-.013.015.015,0,0,0,0-.017h0a.1.1,0,0,1,.043.018v.011l.008-.006-.007-.005c0-.026.005-.038.042-.05a.062.062,0,0,0-.016-.023c-.008-.009-.016-.018-.015-.024a.007.007,0,0,1,.005,0,.075.075,0,0,0,.025.007.01.01,0,0,0,.008,0,.019.019,0,0,0,0-.014c0-.009,0-.018.011-.019-.037-.018-.065-.045-.062-.058s0-.006.011-.007l.067.041a.073.073,0,0,1,.023-.069.087.087,0,0,0,.012-.115l.042.018a.117.117,0,0,1,.012-.08.112.112,0,0,0,0-.115.087.087,0,0,0,.063-.029l-.014-.025a.191.191,0,0,0-.05-.061s0,0,.006,0a.177.177,0,0,1,.041.011l.029-.009c.015,0,.028-.007.031-.017s0-.019-.02-.035l.035.018c-.018-.028-.036-.061-.028-.077s.011-.01.023-.01c-.007-.008-.014-.017-.02-.025a.083.083,0,0,0-.05-.038h.007a.037.037,0,0,1,.014,0l.016.006s0-.007-.008-.01l.045.036a.179.179,0,0,0,.034-.143V9.4a.071.071,0,0,0,.02,0c.017,0,.018-.012.02-.025s0-.029.025-.031a.025.025,0,0,1,0-.03c.006-.012.012-.025-.028-.056l.034.02.011-.014a.151.151,0,0,1,.051-.048.006.006,0,0,0,0,0c0-.006-.01-.016-.022-.027a.123.123,0,0,1-.026-.029l.035.018a.289.289,0,0,0-.069-.062l-.026-.02,0,0h.007c.008,0,.009,0,.009,0s0,0,.012,0h.005a.386.386,0,0,0,.089.083.005.005,0,0,0,0,0c0-.006-.005-.017-.012-.027s-.013-.019-.01-.024h.008l.014,0c.006,0,.01-.005.011-.01s-.01-.02-.03-.034a.047.047,0,0,1,.034.016c0-.01,0-.02-.011-.035,0,0,0,0-.006-.006l.006.006v0h-.006a.086.086,0,0,1-.028-.021A.16.16,0,0,0,23.964,9L23.971,9s.008.009.007.011c-.022-.01-.031-.022-.029-.029s0,0,.009,0l.017,0a.16.16,0,0,1,.045.029.081.081,0,0,0,.035.021l-.067-.069,0,0h0a.1.1,0,0,1-.043-.018l.016.023-.037-.022c0,.011-.006.016-.014.02s-.02.013-.009.034l.042.014s0,.011.007.018.009.015.007.019,0,0-.007,0l-.017,0a.111.111,0,0,0-.038-.023l-.015-.007a.026.026,0,0,1,.007.007c0,.005.006.008.006.01l-.048-.03c.019.014.026.023.026.029s-.006.008-.01.011-.006,0-.007.006l-.01,0c-.007,0-.01,0-.01,0s.006,0,.015.008.03.013.028.019h0a.134.134,0,0,1-.047-.018.236.236,0,0,0-.056-.023.051.051,0,0,0,0,.023c0,.013,0,.028,0,.036a.026.026,0,0,1-.021.007h-.012a.188.188,0,0,0,.039.081h0a.052.052,0,0,1-.023-.007l0,0a.064.064,0,0,0-.017-.009s0,0,0,.01a.638.638,0,0,0-.062-.033l-.007,0c.01.007.009.012.009.017s0,.015.037.027a.067.067,0,0,0-.041.059A.137.137,0,0,0,23.6,9.21c.027.026.039.046.037.059a.016.016,0,0,1-.009.013.383.383,0,0,0,.04.019.264.264,0,0,1,.045.024c.01.01.018.017.017.022a.128.128,0,0,1-.028-.011.3.3,0,0,0-.087-.035.009.009,0,0,0-.008,0c-.018-.012-.026-.02-.026-.025s0,0,0-.006l0,0s-.009-.008-.03-.017-.036-.041-.033-.05a.015.015,0,0,1,.016-.009l.016,0c-.019-.018-.025-.021-.029-.021l0,0a.011.011,0,0,1-.008,0,.063.063,0,0,1-.028-.012.045.045,0,0,0,.01.025.068.068,0,0,1,.013.036l.024.012a.075.075,0,0,1,.031.023c.01.011.015.017.013.021h0a.106.106,0,0,1-.04-.01l-.018-.007-.012,0L23.5,9.247c-.007,0-.009,0-.009,0s0,.008.005.014.01.015.005.019c-.026-.013-.036-.02-.037-.026s0,0,0-.007,0,0,0-.008-.005-.01-.015-.017l-.061-.021a.005.005,0,0,0,0,0c0,.006.011.013.021.02s.02.014.019.018,0,0-.007.005L23.4,9.237l.011.022a.242.242,0,0,0,.069.029h.005c.006,0,.035.021.034.025s0,0-.007,0-.011,0-.014,0a.008.008,0,0,0,0,.007.065.065,0,0,0,.019.011l0,0h0a.051.051,0,0,1,.02.008c.034.017.035.028.037.038h0v.005a.008.008,0,0,1-.007,0,.118.118,0,0,1-.039-.016.286.286,0,0,0-.036-.017.011.011,0,0,1,0-.01H23.5a.031.031,0,0,1,.016.006.175.175,0,0,0-.069-.043.126.126,0,0,1-.049-.029c-.009,0-.01,0-.011,0s.009.012.02.021a.133.133,0,0,1,.02.018.006.006,0,0,0,0,.007s0-.006,0-.007a.1.1,0,0,1,.029.016.207.207,0,0,0,.029.017c.032.026.03.03.03.031h0a.162.162,0,0,1-.045-.016l-.006,0a.228.228,0,0,0-.056-.019l0,0a.535.535,0,0,1,.075.058.272.272,0,0,0,.1.064h0l0,0c.009.011.015.019.013.023a.239.239,0,0,0-.048-.022.108.108,0,0,1-.043-.025l0,.007-.054-.045a.54.54,0,0,0-.062-.015.358.358,0,0,1-.046-.011.074.074,0,0,0,.031.023c.012.006.022.01.025.021a.081.081,0,0,0-.046-.02s-.006,0-.007,0a.144.144,0,0,1,.08.054s-.007,0-.011,0a.133.133,0,0,1-.058-.019l-.029-.026,0,0h0l-.01,0-.01,0v.005l.027.019c.023.017.05.036.074.051l0,.006h-.013l-.009,0-.026-.026,0,0h0a.1.1,0,0,1-.032-.012.108.108,0,0,0-.03-.013s0,0,0,.007l.037.027a.077.077,0,0,1-.031-.013.026.026,0,0,1,.011.017.015.015,0,0,0,0,.008L23.28,9.48l.012.012c.017.015.025.024.024.027h0a.055.055,0,0,1-.021,0,.1.1,0,0,0,.03.011s0,0,0-.005l0-.006.007,0c.043.014.045.027.046.035a.013.013,0,0,0,0,.006.1.1,0,0,0-.031-.014s0,.009,0,.018.008.014.007.016l-.034-.01L23.3,9.557l.042.027a.1.1,0,0,0-.036-.015s0,.008.01.017.012.015.011.018a.3.3,0,0,0-.081-.038.22.22,0,0,1,.074.049.163.163,0,0,0,.044.032.143.143,0,0,1-.067-.033.338.338,0,0,0-.061-.037c.013.011.014.014.014.016s0,0-.009,0-.007,0-.008,0,.006.009.023.019a.064.064,0,0,1,.042.023.2.2,0,0,0,.024.02l-.006,0a.034.034,0,0,1-.017-.009.072.072,0,0,0-.033-.015.146.146,0,0,0,.075.049h0l0,0s0,.007.005.011.009.013.007.016h-.008l-.01,0c-.023-.01-.024-.017-.024-.023s0-.01-.016-.014v0c0,.009.022.023.044.038s.053.035.054.049a.306.306,0,0,1,.112.074l-.006,0h0a.024.024,0,0,1-.021-.012.1.1,0,0,0-.048-.033l0,.013a.273.273,0,0,1-.09-.061.211.211,0,0,0-.075-.05l.019.023-.008-.005a.312.312,0,0,0-.067-.038c.014.008.022.015.022.02s0,.006-.007.008-.005,0-.005,0a.059.059,0,0,0,.018.01V9.722s0,0,0,0l.008,0a.1.1,0,0,0,.022.023c.016.015.028.026.026.031s0,0-.009,0a.161.161,0,0,0-.048-.029.164.164,0,0,1-.031-.016h0a.078.078,0,0,0,.017.011c.015.01.014.012.014.013h-.007L23.2,9.75c-.029.035-.049.083.033.172a.12.12,0,0,0-.045-.01l-.023,0-.028,0a.066.066,0,0,1,.046.032l-.053-.018h-.006s-.007,0-.008,0,.016.031.032.049l.007.008-.037-.016h-.009c0,.007.011.015.022.023l.017.013L23.108,10l.032.02c0,.007.006.012,0,.015a.008.008,0,0,1-.008,0,.12.12,0,0,1-.051-.021.068.068,0,0,0,.024.018.041.041,0,0,0-.029.014.04.04,0,0,0,0,.036.147.147,0,0,1,.064.025l0,0,.023.016-.011,0s0,.006,0,.01l-.022-.01A.068.068,0,0,1,23.1,10.1l-.026,0c-.032,0-.034.019-.037.038a.042.042,0,0,1-.015.033.045.045,0,0,0,.015.015l.014.012-.018,0c-.021,0-.022.013-.022.026s0,.023-.016.026a.233.233,0,0,1,.085.06v.006h0c.006.005.009.009.009.01h0a.152.152,0,0,1-.039-.017.356.356,0,0,0-.072-.031A.039.039,0,0,1,23,10.3l-.011,0c.016.017.022.027.02.032s0,0-.01,0H22.99l-.008,0h-.026c-.007,0-.011,0-.011,0,.022.015.023.023.024.03a.025.025,0,0,0,.01.019h0l-.008,0,.038.022-.03,0-.015-.012a.178.178,0,0,1-.022-.018c-.007,0-.009,0-.01,0s.011.01.024.018a.163.163,0,0,1,.034.023c.008.009.007.011.006.011h0a.053.053,0,0,1-.018,0l-.021-.007s-.006-.006-.006-.007h.014c-.012-.01-.016-.011-.019-.011l-.008,0h0a.021.021,0,0,1-.011,0s0,0,.011.009.022.017.021.02a.016.016,0,0,0-.007.006.013.013,0,0,1-.012.008.064.064,0,0,1-.028-.011.048.048,0,0,1,.015.019.043.043,0,0,0,.012.017l.016,0a.076.076,0,0,1,.037.011c0,.007,0,.012,0,.015h-.013l-.007-.011a.012.012,0,0,1,0,.009c0,.005,0,.01.017.018l-.047-.016c.023.017.023.026.024.035a.043.043,0,0,0,0,.008l-.031-.018a.169.169,0,0,0-.065-.03l-.008,0,.035.036s0,.006,0,.006a.075.075,0,0,1-.03-.015s-.006,0-.006.005.02.029.04.046.033.028.031.033,0,0-.007,0c-.039-.029-.052-.031-.063-.031h-.011l.005,0c.01.006.019.012.019.016l.005,0s0,0,0-.005l0,0c-.006-.006-.006-.007-.006-.008h0l.01,0c.022.011.022.016.022.021a.01.01,0,0,0,0,.008.17.17,0,0,0-.053-.013c-.021,0-.026.012-.031.025a.035.035,0,0,1-.038.026c.023.013.031.019.031.023s-.006.008-.006.009,0,0,0,.007a.064.064,0,0,0-.026-.012s0,0,0,.009,0,.009,0,.01h-.015l.064.032h-.007c0,.006,0,.016.013.025l0,0c.011.011.017.018.016.021h0a.066.066,0,0,1-.023-.005c-.022,0-.041-.026-.049-.036a.059.059,0,0,0-.023-.007s-.005,0-.006,0,0,.012.006.019.009.016.007.02h-.007a.06.06,0,0,1-.023-.006l.026.016a.178.178,0,0,1,.056.042l-.035,0a.165.165,0,0,1-.05-.01l.008.012c0,.006.007.008.006.01h-.013a.043.043,0,0,1-.019-.016h-.007a.006.006,0,0,0-.006,0c0,.009.008.024.02.041l0,.005a.076.076,0,0,0-.025-.006.029.029,0,0,0-.022.01.033.033,0,0,1-.026.012c.012.009.018.016.018.02s0,0-.006.005,0,0-.005,0,0,.008.031.023l-.024-.009.028.023c.022.018.037.029.036.035l-.048-.031a.081.081,0,0,0-.032-.014c-.006,0-.007,0-.008.007s0,.007-.006.007h0l0,0c.006,0,.009.005.01.007l0,.006s0,0,.015.012l.011.016a.033.033,0,0,0,.012.017.019.019,0,0,1,.009.019h0a.1.1,0,0,1-.05-.028l-.011,0s-.007,0-.008,0,0,.01,0,.018l-.008.01a.012.012,0,0,1-.009,0h-.007l-.038-.023a.128.128,0,0,0,.048.052.035.035,0,0,0-.029.018.077.077,0,0,0,0,.064l-.012-.009,0,0a.069.069,0,0,0,.009.014c.007.009.008.012.008.013h0l-.009,0s0,0-.005,0l-.007,0a.084.084,0,0,0-.021,0,.009.009,0,0,0-.007,0,.183.183,0,0,0,.027.016h-.006a.016.016,0,0,0-.014,0c0,.006,0,.016,0,.028s.007.023,0,.029a.017.017,0,0,1-.014.006.218.218,0,0,0-.034-.027l0,.007a.219.219,0,0,0,.051.087l-.014-.009a.118.118,0,0,1-.027-.02c-.006.011-.007.031.029.058h.007l-.011-.006c-.009,0-.012-.007-.013-.008a.073.073,0,0,1,.056.043h-.012c0,.006,0,.012,0,.018s.008.013,0,.019-.015-.006-.017-.01,0-.008-.016-.013a.1.1,0,0,0-.04-.012.018.018,0,0,0-.019.013s0,0,0,0l.011.01a.116.116,0,0,0,.026.019l0,0a.044.044,0,0,1-.016-.006l-.005,0-.013-.005.093.088-.023-.01a.151.151,0,0,1-.047-.027c0,.017.029.046.06.075l.034.033c-.007.006,0,.017,0,.027a.06.06,0,0,1,0,.014C22.6,11.6,22.6,11.6,22.6,11.6l0,0s0,0-.007-.006l-.043-.013c0-.009-.018-.018-.038-.027a.157.157,0,0,1-.042-.024.016.016,0,0,1,0,.013c0,.011-.021.02-.036.026l-.008,0c.041.015.044.026.048.038s.007.022.037.038l-.006.007h0a.1.1,0,0,1-.035-.014.1.1,0,0,0-.031-.013.035.035,0,0,1-.007.041.044.044,0,0,0-.01.02h0l-.005,0-.007,0a.042.042,0,0,1,0,.025.059.059,0,0,0,.019.059.026.026,0,0,1-.009,0,.086.086,0,0,1-.018-.014c-.005,0-.006,0-.006,0s.01.012.025.022.025.016.024.02,0,0-.011,0l-.03-.022c0,.006.005.009,0,.012s-.005.005-.01.007-.009,0-.01.008,0,.012.013.021a.083.083,0,0,1-.023-.017l-.006-.005a.051.051,0,0,1,0,.017c0,.012,0,.025.025.049a.135.135,0,0,1-.049-.032c-.006,0-.007,0-.007,0s.006.01.017.02.018.016.017.02l-.006,0h0a.082.082,0,0,1-.033-.007.046.046,0,0,1,.016.035.029.029,0,0,0,0,.013.115.115,0,0,0-.034-.009l-.022,0-.016.028a.25.25,0,0,0-.046.19c-.038-.014-.044-.024-.049-.032s-.008-.014-.029-.022c.02.011.026.016.027.02s0,0,0,.007a.02.02,0,0,0-.006.021l-.008,0v0s-.006,0-.011,0-.009,0-.011,0,0,0,0,.007l.014.007s.006.006,0,.008h-.008l-.014,0-.015,0-.005,0s.007.008.022.018l-.042-.014c.019.015.021.02.02.022s0,0-.008,0-.008,0-.008,0,0,0,0,.009-.008,0-.009,0,.005.018.013.028.011.016.01.018h0a.033.033,0,0,1-.014,0c0,.022.006.042.052.071a.29.29,0,0,1-.063-.037.271.271,0,0,1-.011.056.168.168,0,0,0,.006.135l-.028-.018a.029.029,0,0,1,.008.023c0,.008-.011.012-.02.016s-.017.008-.019.016.01.025.036.047l.041.032a.2.2,0,0,1-.038-.014.191.191,0,0,0-.032-.012.025.025,0,0,1,.011.024c0,.008,0,.017.02.03a.076.076,0,0,1-.024-.013l-.012-.008,0,0c0,.006.007.018.015.029s.015.022.013.027l-.022-.012c-.092.016-.147.044-.164.083a.094.094,0,0,0,.018.09.007.007,0,0,1-.006,0,.07.07,0,0,1-.026-.009.115.115,0,0,0-.027-.012Zm-4.415-.2h0c-.071.051-.105.1-.1.133s.023.046.06.063c0,.008-.018.008-.035.008a.072.072,0,0,0-.027,0,.055.055,0,0,1,.028.077c-.008.031-.017.062.064.089a.505.505,0,0,0,.2.05c-.057-.09.006-.169.094-.264l-.006-.014c-.013-.028-.027-.06,0-.083a.323.323,0,0,1,.035-.156.25.25,0,0,0,.022-.2l-.019,0a.085.085,0,0,1-.042-.009l.018,0-.041-.01s.007-.005.017-.005a.077.077,0,0,1,.037.007.366.366,0,0,0,0-.052.215.215,0,0,1,0-.085c-.03,0-.031-.007-.032-.012a.01.01,0,0,0-.008-.009l0,0c-.011-.013-.017-.021-.015-.027s.019-.017.064-.034a.517.517,0,0,0,.024-.225.771.771,0,0,1,0-.146,1.144,1.144,0,0,0-.042-.2,1.356,1.356,0,0,1-.04-.176.11.11,0,0,1-.074-.036.108.108,0,0,0-.06-.035l.03,0c-.012-.005-.017-.01-.017-.014s.011-.011.026-.018a.243.243,0,0,0,.035-.019.045.045,0,0,1-.022,0,.037.037,0,0,0-.018,0l-.025,0c-.01,0-.011,0-.011,0s.007,0,.03-.009.038-.007.038-.012,0,0,0,0c-.018,0-.019,0-.019,0a.045.045,0,0,0-.012-.009l-.008-.006.006,0h.025a.126.126,0,0,0,.077-.02.39.39,0,0,0-.023-.049c-.022-.041-.044-.083-.021-.121l-.008,0h-.01c-.012,0-.024,0-.025,0,.024,0,.035,0,.036-.006s-.007-.005-.015-.008-.016-.006-.016-.009,0,0,.007,0a.06.06,0,0,1,.025,0l.007,0a.025.025,0,0,0,.01-.036.023.023,0,0,1,.011-.034l.012.005s0,0-.011-.005-.012-.008-.012-.013.005-.015.011-.022.011-.013.01-.018,0-.005-.009-.008c.018,0,.022-.006.026-.01a.026.026,0,0,1,.012-.008c-.029,0-.04-.009-.042-.016s.006-.012.013-.018.016-.013.014-.019-.008-.01-.021-.014l.019,0a.337.337,0,0,1,0-.058.19.19,0,0,0-.031-.135c-.005-.015.009-.031.024-.047s.027-.03.026-.046a.032.032,0,0,0-.013-.022.067.067,0,0,0-.026,0,.046.046,0,0,1-.023,0s.007,0,.011,0h.036a.027.027,0,0,1-.017-.015c0-.009,0-.018.012-.027a.044.044,0,0,0,.013-.026l-.013,0a.06.06,0,0,0-.022,0h-.013c.015-.006.024-.012.027-.021a.037.037,0,0,0-.007-.029c-.008-.015-.017-.031.009-.045l-.024,0h-.013c-.028,0-.028-.008-.029-.015a.012.012,0,0,0-.007-.013.047.047,0,0,1,.029-.005h.017l.005.009.005-.008h-.01c-.011-.021-.014-.032.013-.057a.065.065,0,0,0-.024-.01c-.012,0-.024-.007-.025-.013a.006.006,0,0,1,0-.006c.018,0,.028-.006.03-.011s0-.008,0-.013-.006-.008,0-.012a.01.01,0,0,1,.006-.006h-.012c-.042,0-.068-.01-.071-.019s0-.007.007-.01l.078.005c-.021-.018-.018-.04-.014-.063a.073.073,0,0,0-.046-.093l.046,0a.1.1,0,0,1-.028-.066.1.1,0,0,0-.058-.087.07.07,0,0,0,.041-.05l-.024-.012a.214.214,0,0,0-.074-.024c0-.006.016-.009.034-.012l.015,0a.076.076,0,0,1,.019-.02c.01-.009.02-.017.018-.025s-.013-.013-.035-.018h.04l-.011,0c-.023-.013-.051-.029-.051-.043s.006-.013.018-.019a.147.147,0,0,1-.032-.009.105.105,0,0,0-.041-.009l-.022,0s.008,0,.022-.006.016,0,.016,0,0,0-.013,0l.057.007c.013-.043-.011-.079-.039-.12l-.007-.01c.016,0,.026-.007.029-.013s0-.013,0-.02-.011-.024.006-.035a.021.021,0,0,1-.016-.021c0-.012,0-.024-.052-.03l.04,0,0-.014a.126.126,0,0,1,.022-.058V9.142s-.016-.008-.031-.011a.129.129,0,0,1-.037-.011h.04a.277.277,0,0,0-.091-.018l-.034,0c.014-.005.013-.008.013-.011s0-.006.013-.011a.528.528,0,0,0,.117.025l0,0c0-.005-.013-.011-.024-.016s-.021-.01-.02-.014,0-.005.02-.008.006-.007,0-.01-.017-.011-.042-.014a.044.044,0,0,1,.02,0,.05.05,0,0,1,.017,0c0-.011-.006-.017-.027-.023,0,0,0,0-.008,0l.008,0s-.005,0-.006.006l-.031-.006a.163.163,0,0,0-.051-.006h-.014l.011,0c.006,0,.009,0,.01,0h-.007c-.022,0-.032-.006-.032-.011s.008-.008.022-.01h.017l.028,0a.184.184,0,0,0,.033,0l.016,0L17.33,8.97s.006,0,.005,0-.017.008-.038.008h-.011l.025.011-.042,0c.007.009,0,.016,0,.023a.02.02,0,0,0,0,.015s.005.008.013.012l.043-.007s.009.009.017.013.015.008.014.011,0,.005-.02.008l-.018,0h-.043l.011,0,.007,0h-.065c.029,0,.042.006.045.012s0,.009,0,.012,0,.005,0,.007h-.011c-.005,0-.008,0-.008.005h.036c.009,0,.014,0,.015,0a.135.135,0,0,1-.05.006.288.288,0,0,0-.06.006.04.04,0,0,0,.011.017c.008.009.017.02.015.029s-.01.014-.025.019a.205.205,0,0,0,.073.045s-.009.005-.023.005h-.005c-.016,0-.023,0-.024,0s0,0,.009.006H17.14a.012.012,0,0,1,.01.008s0,.01.021.01l.026,0a.051.051,0,0,0-.008.059.114.114,0,0,0-.039,0,.165.165,0,0,0-.035,0c.037.009.058.02.062.031a.012.012,0,0,1,0,.012h.045l.032,0h.018l.012,0c.01,0,.014,0,.014.006l-.039,0c-.044,0-.089,0-.09.016-.022,0-.032,0-.035-.008a.007.007,0,0,1,0-.007V9.37s0,0-.012,0H17.1c-.039,0-.053-.016-.053-.024s.009-.014.025-.017l-.029,0c-.007,0-.008,0-.009,0s-.011.009-.036.009c0,.006.011.01.02.015a.063.063,0,0,1,.03.023h.042a.074.074,0,0,1,.024,0c.015,0,.022.007.022.01s-.02.008-.053.012l-.021,0L17.041,9.4s-.007,0-.007.006.005.005.011.008.016.007.014.013h-.017c-.023,0-.027,0-.029,0s0,0,0-.006a.007.007,0,0,0,0-.007s-.009,0-.021-.006l-.064.009v0s.016.005.029.006.024,0,.025.006,0,0,0,.007l-.032,0,.02.011c.06,0,.075-.005.078-.009h.008c.008,0,.034,0,.035,0s0,0-.006.005-.009.005-.01.009a.007.007,0,0,0,0,.006H17.1c0-.006.009-.007.022-.007h.009c.029,0,.036.007.041.013a.007.007,0,0,1,0,.006c0,.006-.023.007-.042.007a.31.31,0,0,0-.041,0s-.007,0-.006-.006,0,0,.015,0H17.1a.138.138,0,0,0-.044-.006h-.03l-.038,0a.081.081,0,0,1-.026,0c-.005,0-.008,0-.008.006s.015.006.029.009l.023,0s0,0,.006.006,0,0,0,0,.006,0,.012,0h.054c.041.007.041.01.042.011s-.015.005-.048.008S17,9.5,17,9.51a.058.058,0,0,0,.02,0h0a.391.391,0,0,1,.066.007H17.1a.389.389,0,0,0,.075.009.324.324,0,0,0,.045,0c.014,0,.028.008.028.013l-.018,0h-.052a.191.191,0,0,1-.033,0V9.55l-.068-.013-.052.014a.441.441,0,0,1-.055.013.071.071,0,0,0,.026,0h.018a.034.034,0,0,1,.026.007l-.021,0a.054.054,0,0,0-.033.008l.013,0h.018a.182.182,0,0,1,.064.011.1.1,0,0,1-.062.02L16.973,9.6l-.014,0h.012a.008.008,0,0,1-.007,0c-.006,0-.012,0-.012,0a1.247,1.247,0,0,0,.126.013c0,.007-.007.009-.014.011l-.008,0-.034-.01c0,.007-.019.008-.036.009s-.032,0-.033.005,0,0,0,0L17,9.647l-.009,0h-.024a.034.034,0,0,1,.019.009.017.017,0,0,0,.009.005h-.03l.021.006c.023.005.03.008.03.011s0,0-.024.007c.023,0,.033,0,.034-.006l0,0s-.006,0-.005,0,0,0,.009-.006l.021,0c.022,0,.028.007.032.012l0,0h-.006c-.02,0-.03,0-.03,0s.006.006.015.01.014.007.013.009a.258.258,0,0,0-.034.007l-.023,0,.051,0-.018,0h0c-.013,0-.019,0-.02,0s.008,0,.016.007.021.007.021.009,0,0-.005,0l-.041,0a.123.123,0,0,0-.042.005.028.028,0,0,1,.011,0h.021a.249.249,0,0,1,.055.006.241.241,0,0,0,.055.007.063.063,0,0,1-.029,0l-.039,0h-.009l-.049,0h-.019c.019,0,.019,0,.019.006s0,0-.006.006-.007,0-.006.006.01,0,.029.006a.041.041,0,0,1,.021-.005.136.136,0,0,1,.027,0,.206.206,0,0,0,.031,0,.012.012,0,0,1-.012.006h-.026a.056.056,0,0,0-.02,0,.148.148,0,0,0,.058.01.088.088,0,0,0,.03,0c0,.006.005.008.01.01s.015.007.015.01-.005,0-.016.007h-.006c-.018,0-.022,0-.025-.007a.013.013,0,0,0-.013-.006h-.01v0c.005.007.033.009.06.011a.151.151,0,0,1,.068.013.11.11,0,0,1,.033,0,.416.416,0,0,1,.1.013.023.023,0,0,1-.015.007l-.014,0-.006,0a.1.1,0,0,0-.032-.005h-.02l.009.007-.017,0h-.017a.361.361,0,0,1-.072-.009.316.316,0,0,0-.064-.009l-.027,0,.027.009c-.018,0-.041,0-.061,0L17,9.85c.017,0,.027,0,.029.008s0,.006,0,.009,0,0,0,0l.013,0h.008l0,0,.009,0a.117.117,0,0,0,.032.008c.021,0,.036.007.037.012s0,0-.007.006a.111.111,0,0,0-.026,0l-.028,0h-.038s0,0,.013,0,.021,0,.022,0,0,0-.005,0l-.028,0c-.009.037,0,.084.113.117a.116.116,0,0,0-.063.022l-.022.014.006,0h.012a.072.072,0,0,1,.037.008l-.055.009c-.007,0-.01,0-.01.008s.033.018.057.025l-.037,0c-.007,0-.011,0-.01,0s.014,0,.027.005a.13.13,0,0,1,.027,0l-.039.005.038,0c.007,0,.011.007.01.01s-.024.012-.06.012a.075.075,0,0,0,.024,0h.011c-.016.007-.021.016-.022.022a.032.032,0,0,0,.014.03.207.207,0,0,1,.074-.006l.027,0c-.007,0-.012,0-.012.005l.007,0H17.14a.06.06,0,0,1-.026,0c-.023.006-.036.014-.041.024a.038.038,0,0,0,0,.031c0,.011.01.022,0,.033a.053.053,0,0,0,.021,0l.018,0c-.016,0-.026.009-.029.016s0,.012,0,.019.01.018,0,.026h.025c.036,0,.08.006.081.014s.013,0,.013,0-.015,0-.044,0a.392.392,0,0,0-.078.007c.023,0,.028.012.029.015l-.01,0c.022,0,.033.01.033.015s0,.007-.012.01l-.022.007c-.009,0-.017.007-.018.01.027,0,.031.008.035.013a.026.026,0,0,0,.016.01.009.009,0,0,1-.006,0h.017l.026,0-.024.013a.293.293,0,0,1-.048-.007s-.008,0-.007.006.014,0,.029,0a.183.183,0,0,1,.041,0c.011,0,.011.005.011.006s0,0-.019,0l-.022,0c-.007,0-.007,0-.008,0s0,0,.005,0,.005,0,.005,0l-.015,0c-.007,0-.008,0-.01,0s0,0-.015,0l.012,0c.025,0,.03,0,.03.007a.011.011,0,0,0,0,.007c0,.008,0,.015-.031.015h-.007a.062.062,0,0,1,.023.009.058.058,0,0,0,.019.008l0,0a.074.074,0,0,1,.046-.014s.01.007.01.011,0,0-.011,0l-.012,0a.009.009,0,0,1,.006.006s0,.007.015.007h.011l-.052.01c.029,0,.033.009.038.016l0,.005h-.067c-.019,0-.04,0-.047.011l.049.013c0,.006,0,.008-.017.008h-.017s0,0,0,.006.029.012.055.017.045.008.046.014,0,0-.007.007a.287.287,0,0,0-.042,0,.055.055,0,0,0-.03.007l0,0,.016,0c.009,0,.013,0,.014,0h.006l-.008,0-.012,0s0,0,.012,0h.008c.016,0,.018,0,.021.006a.01.01,0,0,0,.007,0c-.035,0-.056.011-.064.022a.029.029,0,0,0,0,.023c0,.013,0,.026-.021.037h.011c.022,0,.026,0,.027,0s0,.009,0,.01,0,0,.007,0h-.01c-.013,0-.019,0-.02,0s0,0,.005.006.008.005.007.008,0,0-.013.006l.07,0-.007,0c0,.007.016.011.031.015s.025.007.025.01,0,0-.027.007a.042.042,0,0,1-.017,0,.128.128,0,0,1-.039-.009l-.006,0c-.016,0-.024.006-.024.01s.008.009.016.013.015.009.014.012,0,.006-.028.008h.027a.217.217,0,0,1,.073.008l-.035.012a.21.21,0,0,1-.045.013l.012,0c.008,0,.01,0,.01.006s0,0-.011.006a.044.044,0,0,1-.025-.005l-.005,0a.01.01,0,0,0,0,.008c0,.008.02.016.038.023l.006,0c-.032,0-.036.014-.039.023a.03.03,0,0,1-.017.02c.017,0,.024,0,.026.008s0,0,0,.006,0,0,0,.005.008,0,.021,0a.011.011,0,0,1-.007,0l.036.006a.164.164,0,0,1,.047.01l-.056,0h-.008c-.017,0-.027,0-.03.005a.007.007,0,0,0,0,.007c0,.006,0,.008-.005.008h.016v.006a.038.038,0,0,0,.019,0l.018.007a.032.032,0,0,0,.019.007.017.017,0,0,1,.017.011s0,0-.018,0a.186.186,0,0,1-.04,0c-.013,0-.016.006-.016.009s.006.008.012.012h0l0,0a.009.009,0,0,0-.006.01c0,.005,0,.007-.013.009l-.044,0a.133.133,0,0,0,.067.022.029.029,0,0,0-.017.024c0,.017.019.037.036.048l-.015,0,.006,0,.016.008c.008,0,.012.005.012.006a.016.016,0,0,1-.01,0l0,0s0,0-.015.006-.022,0-.024.01h.033c-.01,0-.016.007-.017.012s.007.013.015.02.017.014.016.021,0,.007-.01.011a.263.263,0,0,0-.035-.005h-.007l.006,0a.215.215,0,0,0,.088.045h-.018a.158.158,0,0,1-.033,0c0,.015.018.026.053.032,0,0,.005,0,0,0s-.005,0-.012,0h-.014a.074.074,0,0,1,.024,0c.024,0,.045.007.047.014l-.011,0c0,.006.006.009.013.013s.013.006.013.013h-.012a.013.013,0,0,1-.007,0,.028.028,0,0,0-.015,0h-.005a.073.073,0,0,0-.048.013.015.015,0,0,0,0,.013v.006h.006a.151.151,0,0,0,.04.006c0,.005-.007.006-.016.006s-.021,0-.022,0l.117.024a.056.056,0,0,1-.017,0l-.031,0a.079.079,0,0,1-.023,0c.006.014.049.023.09.033l.045.011c0,.008,0,.015.011.022a.047.047,0,0,1,.009.011h-.009c-.007,0-.008,0-.008,0s-.005-.006-.01-.006l-.043.009s-.005-.006-.022-.006h-.05l-.022,0a.015.015,0,0,1,.01.01c0,.01-.009.024-.019.034l-.005.006.018,0h.01a.042.042,0,0,1,.033.01c.008.006.017.013.05.013,0,.012-.022.012-.04.013a.123.123,0,0,0-.034,0,.029.029,0,0,1,.016.034.036.036,0,0,0,0,.02h-.015a.038.038,0,0,1,.013.02c0,.013.01.028.053.039l-.04,0s0,0,0,0,.015,0,.031.006.031,0,.031.006,0,0-.01.007l-.035-.005c.007,0,.01,0,.01.007s0,.006,0,.009-.006.007-.005.01.007.007.018.01l0,0a.073.073,0,0,1-.019,0l-.008,0a.045.045,0,0,1,.01.012c.006.009.012.018.044.026h-.011a.151.151,0,0,1-.047-.006s-.005,0-.005,0,.013.006.026.009.023.005.024.008a.074.074,0,0,1-.035.012.049.049,0,0,1,.03.02.038.038,0,0,0,.011.01.185.185,0,0,0-.044.009l-.013,0c0,.01,0,.021,0,.031a.2.2,0,0,0,.053.162l-.018,0h-.011a.056.056,0,0,1-.028-.006.043.043,0,0,0-.021-.005h-.016c.022,0,.031,0,.033,0s0,0,0,.007a.016.016,0,0,0,0,.019h-.009l0,0s0,0-.008.007-.008,0-.008.006,0,0,.005,0h.016c.006,0,.009,0,.009,0s0,0-.02.009-.017.005-.016.007.009,0,.028,0l-.045.007c.028,0,.028.006.028.007s0,0-.005.005-.007,0-.006.006,0,0,.008.005-.005.007-.005.008.014.012.025.017.018.008.017.011,0,0-.016,0a.091.091,0,0,0,.076.03l-.005,0h-.022l-.041,0a.209.209,0,0,1,.017.047.142.142,0,0,0,.071.1l-.033,0c.01,0,.017.009.018.015s0,.014-.009.021-.011.013-.008.02.021.015.054.02l.052.007a.252.252,0,0,1-.037.005.209.209,0,0,0-.037.005c.016,0,.019.008.022.013s.007.011.026.013l-.006,0H17.4c0,.009.013.014.026.019s.024.011.025.015h-.026Zm-3.553.343h0a.091.091,0,0,0,.037.006.689.689,0,0,0,.169-.035c-.091-.067-.067-.171-.027-.3l-.013-.014c-.023-.023-.049-.049-.039-.082a.377.377,0,0,1-.035-.168.3.3,0,0,0-.067-.211.1.1,0,0,1-.054.018l.01-.009-.04.007c0-.01.033-.02.047-.02a.168.168,0,0,0-.023-.048.244.244,0,0,1-.038-.086.082.082,0,0,1-.025.006.01.01,0,0,1-.01-.006.011.011,0,0,0-.011-.006.074.074,0,0,0-.026.008.049.049,0,0,1,.019-.009l.006,0-.007,0c-.014-.008-.023-.013-.024-.02s.013-.027.044-.059a.6.6,0,0,0-.075-.236.9.9,0,0,1-.06-.147,1.334,1.334,0,0,0-.123-.181,1.622,1.622,0,0,1-.114-.163.227.227,0,0,1-.039,0,.087.087,0,0,1-.045-.011.085.085,0,0,0-.044-.011l-.025,0,.028-.011c-.012,0-.019,0-.021-.008s.005-.015.016-.028a.215.215,0,0,0,.023-.031l-.008,0h-.015a.077.077,0,0,0-.039.014h-.009c0-.005.009-.012.021-.021s.032-.022.03-.027,0,0,0,0,0,0,0,0l-.006,0-.013,0-.014,0-.01,0s0,0,.012-.007a.14.14,0,0,0,.078-.058.44.44,0,0,0-.042-.038c-.039-.032-.079-.065-.073-.116a.1.1,0,0,1-.037.016c.019-.012.027-.019.027-.022s-.007,0-.014,0h-.007c-.012,0-.015,0-.016,0s0,0,.006-.007a.057.057,0,0,1,.025,0h.008a.027.027,0,0,0-.006-.038.027.027,0,0,1,0-.039h.013s-.006,0-.013,0a.019.019,0,0,1-.016-.007.035.035,0,0,1,0-.027c0-.009,0-.018,0-.023a.018.018,0,0,0-.015,0c.019-.007.021-.013.024-.02a.026.026,0,0,1,.008-.012l-.011,0-.021,0c-.007,0-.011,0-.013,0s0-.014.005-.022.008-.019,0-.024-.007-.005-.016-.005h-.009l.018-.007a.388.388,0,0,1-.026-.058.214.214,0,0,0-.086-.12c-.012-.014-.006-.036,0-.059s.017-.061-.018-.073a.055.055,0,0,0-.024.005.055.055,0,0,1-.019.006c0-.008.009-.011.017-.013A.065.065,0,0,0,13,10.255a.029.029,0,0,1-.022-.008c-.006-.008,0-.02,0-.032a.055.055,0,0,0,0-.032l-.014,0a.065.065,0,0,0-.033.009.044.044,0,0,0,.017-.03c0-.011-.01-.019-.019-.026s-.028-.023-.01-.046a.137.137,0,0,1-.052.022c-.008,0-.011,0-.013-.01a.014.014,0,0,0-.013-.01c0-.007.023-.017.041-.023-.019-.017-.026-.027-.013-.062a.022.022,0,0,0-.011,0h-.033c-.006,0-.009,0-.011,0a.007.007,0,0,1,0-.006c.015-.009.023-.017.023-.022s0-.009-.009-.012-.009-.007-.01-.011a.012.012,0,0,1,0-.009.173.173,0,0,1-.069.02c-.009,0-.014,0-.016-.005s0-.007,0-.011l.074-.027c-.027-.01-.033-.033-.04-.057a.081.081,0,0,0-.083-.074l.041-.023a.108.108,0,0,1-.054-.056.1.1,0,0,0-.09-.064.078.078,0,0,0,.016-.065l-.03,0-.024,0a.271.271,0,0,0-.052.007c0-.007.014-.017.029-.026l.009-.006a.08.08,0,0,1,.009-.026c.006-.013.011-.025.007-.033s-.01-.007-.022-.007l-.019,0,.036-.016c-.047,0-.071-.009-.076-.021s0-.015.008-.025l-.032,0a.088.088,0,0,0-.061.018s.007-.009.017-.015.014-.008.013-.009H12.4l.055-.014c-.006-.049-.046-.076-.088-.105l-.009-.006c.013-.009.02-.017.02-.024s-.006-.013-.012-.019-.021-.019-.01-.037a.022.022,0,0,1-.023-.015.025.025,0,0,0-.027-.017.14.14,0,0,0-.034.006l.036-.016,0-.016a.145.145,0,0,1-.005-.065.007.007,0,0,0,0-.006.012.012,0,0,0-.009,0l-.022,0-.012,0-.021,0h-.007l.035-.016h-.007a.355.355,0,0,0-.086.02l-.031.009c.01-.011.008-.014.007-.016s0-.006.007-.016h.007a.481.481,0,0,0,.112-.022V9.043s-.016-.005-.028-.006-.024,0-.025-.006,0-.008.015-.016a.013.013,0,0,0,0-.012.014.014,0,0,0-.012,0,.116.116,0,0,0-.034.008l0,0a.056.056,0,0,1,.032-.014.021.021,0,0,0-.022-.013h-.012s0,.007,0,.008a.15.15,0,0,1-.031.006.163.163,0,0,0-.063.021h.018l.005,0a.064.064,0,0,1-.027.007c-.008,0-.013,0-.014-.006s0-.011.017-.018a.165.165,0,0,1,.049-.018.082.082,0,0,0,.038-.016l-.094.013-.014,0,.015,0c0,.012-.019.021-.039.027l.028,0-.04.016c.009.006.008.014.007.022s0,.022.02.025l.038-.023s.011,0,.019.006.018,0,.019.006,0,.009-.015.017a.1.1,0,0,0-.041.015L12.06,9.1l.012,0h.006l-.047.02.025,0a.015.015,0,0,1,.012,0,.011.011,0,0,1,0,.009c0,.008,0,.011,0,.012l-.009,0s-.005.008,0,.009a.042.042,0,0,0,.015-.007l.005,0a.07.07,0,0,1,.023-.01c0,.01-.02.019-.043.03a.284.284,0,0,0-.05.028.048.048,0,0,0,.019.014c.011.006.024.013.026.024s0,.017-.016.027a.21.21,0,0,0,.086.016c0,.008-.018.015-.029.019s-.016.007-.016.008,0,0,.01,0c-.019.007-.038.017-.056.026a.307.307,0,0,1-.067.028l-.007,0-.014,0h.008l.013,0a.078.078,0,0,1-.012.011c-.006,0-.012.01-.011.012h.011a.128.128,0,0,1-.021.009c-.012,0-.023.009-.024.014A.219.219,0,0,0,12,9.341a.061.061,0,0,1,.027-.011.011.011,0,0,1,.008,0,.013.013,0,0,0,.009,0,.084.084,0,0,0,.037-.017.063.063,0,0,0,.02.065l0,0h-.008a.122.122,0,0,0-.064.026l.013,0h.024a.042.042,0,0,1,.033.01.017.017,0,0,1,0,.014.372.372,0,0,0,.039-.02.25.25,0,0,1,.047-.021l.021,0h.007a.269.269,0,0,1-.033.018c-.04.019-.081.039-.077.052a.1.1,0,0,1-.029.007.009.009,0,0,1-.008-.007s0,0,0-.006a.076.076,0,0,0-.032.013A.126.126,0,0,1,12,9.473c-.014,0-.023,0-.025-.011s0-.017.016-.025c-.035.007-.034.011-.034.016s0,.011-.03.022a.048.048,0,0,0,.026.007.068.068,0,0,1,.036.011l.024-.012a.071.071,0,0,1,.037-.011h.016c.005,0,.008,0,.009,0s-.014.016-.042.032a.1.1,0,0,0-.02.013l-.02,0s0,.007,0,.009.008,0,.015,0,.017,0,.018.007a.123.123,0,0,1-.04.015c-.006,0-.006-.005-.006-.008s0-.008-.009-.008l-.016,0L11.9,9.57c0,.005,0,.006.007.006a.077.077,0,0,0,.022-.006l.022,0c.006,0,.006.007,0,.01l-.031.009.024.005c.022-.011.066-.031.066-.04a.116.116,0,0,1,.039-.015s0,0,0,.007-.007.009-.006.013a.007.007,0,0,0,.005,0c.017-.005.021-.007.021-.008s0-.01.016-.015a.091.091,0,0,1,.037-.011.029.029,0,0,1,.017.005.007.007,0,0,1,0,.006c0,.008-.018.015-.034.022a.3.3,0,0,0-.037.019h0c-.005,0-.008,0-.008,0s0-.007.016-.012A.18.18,0,0,0,12,9.59a.14.14,0,0,1-.051.022s-.005.007,0,.009l0,0a.134.134,0,0,0,.025-.005L12,9.611s0,0,.008,0,0,0,0,0a.073.073,0,0,1,.025-.013.206.206,0,0,0,.034-.015.215.215,0,0,1,.038-.007c0,.007-.015.017-.037.028s-.058.031-.057.039A.533.533,0,0,1,12.1,9.62a.276.276,0,0,0,.112-.043h.021c.007,0,.011,0,.012,0A.3.3,0,0,0,12.2,9.6a.12.12,0,0,1-.048.019l0,.007-.068.016c-.017.012-.033.026-.048.038a.443.443,0,0,1-.037.03h0a.066.066,0,0,0,.029-.009.064.064,0,0,1,.027-.01l.008,0a.074.074,0,0,0-.046.028.172.172,0,0,1,.087-.028c0,.019-.038.043-.05.046l-.04.006s0,0,0,.006S12,9.761,12,9.763c.02,0,.04-.011.061-.018l.061-.02a.014.014,0,0,1-.007.015s-.007.006-.007.007l-.036,0c0,.01-.016.019-.031.026s-.027.013-.027.017,0,0,0,0l.043-.013a.019.019,0,0,1-.009.006l-.017.007h0a.026.026,0,0,1,.013,0l.01,0-.025.012h.005l.017,0,.024,0s.006,0,.006,0,0,0-.019.017c.02-.012.029-.017.028-.02s0,0,0,0-.006,0-.007,0,0,0,.006-.009a.086.086,0,0,1,.04-.015.025.025,0,0,1,.013,0l.006,0c-.021.009-.032.014-.031.018s.009,0,.017,0,.017,0,.017,0a.407.407,0,0,0-.035.025l-.011.009.048-.018c-.023.011-.035.017-.034.02s0,0,.007,0h.027c.006,0,.007,0,.007,0s0,0,0,.005a.188.188,0,0,0-.076.036.223.223,0,0,1,.085-.03.178.178,0,0,0,.05-.015.15.15,0,0,1-.071.034.42.42,0,0,0-.062.023l.011,0H12.1c0,.005,0,.008,0,.009s0,.006,0,.008h.006a.085.085,0,0,0,.024-.005.068.068,0,0,1,.044-.019.21.21,0,0,0,.031-.008c0,.009-.008.011-.019.014a.072.072,0,0,0-.032.016.155.155,0,0,0,.083-.031.015.015,0,0,0,.015.007c.009,0,.016,0,.017,0s0,.007-.011.013a.059.059,0,0,1-.024.008.015.015,0,0,1-.008,0,.014.014,0,0,0-.007,0,.026.026,0,0,0-.014.006s0,0,.009,0a.223.223,0,0,0,.054-.015.236.236,0,0,1,.057-.014l.01,0a.327.327,0,0,1,.127-.045c-.005.014-.013.015-.025.016a.1.1,0,0,0-.055.017l.012.005a.287.287,0,0,1-.1.036.232.232,0,0,0-.085.029l.029,0a.392.392,0,0,0-.079.032l.007,0,.016,0a.009.009,0,0,1,.007,0,.008.008,0,0,1,0,.007s0,.008,0,.009.02-.007.02-.008h0s0,0,.007-.006h.005a.2.2,0,0,0,.03,0,.183.183,0,0,1,.029,0s.007,0,.008,0,0,0,0,.009a.156.156,0,0,0-.052.021.156.156,0,0,1-.033.015l0,0,.008,0,.021-.005s0,0,0,.007l-.027.009c.007.034.025.075.111.075l.042,0a.116.116,0,0,0-.05.05l-.012.02a.065.065,0,0,1,.045-.017h.008l-.047.031c-.005,0-.007.009-.006.011s.01.006.026.006h.043l-.036.017c-.006.005-.008.008-.007.01h0a.09.09,0,0,0,.025-.006.121.121,0,0,1,.023-.006l-.033.023.035-.015c.009,0,.014,0,.015.007s-.018.022-.051.035h.005a.059.059,0,0,0,.03-.01.036.036,0,0,0-.012.031.038.038,0,0,0,.026.027.134.134,0,0,1,.054-.033l.01,0,.026-.009-.006.005s0,0,0,0h.012l-.019.011a.083.083,0,0,1-.039.016c-.02.014-.03.027-.031.039a.041.041,0,0,0,.016.029.041.041,0,0,1,.017.031h0a.053.053,0,0,0,.018,0l.017-.005c-.013.011-.02.02-.02.028s.006.012.012.017.018.014.01.028a.252.252,0,0,1,.094-.032s.008,0,.009,0h.012s0,.006-.034.021a.38.38,0,0,0-.07.039h.009c.014,0,.022,0,.025.006l-.007.007,0,0h.017c.006,0,.014,0,.016.005s0,.008-.008.013l-.015.016c-.006.007-.013.014-.013.018l.014,0h.012a.022.022,0,0,1,.012,0,.021.021,0,0,0,.013,0h.007a.019.019,0,0,1-.006.007l.04-.016-.017.023-.021.005-.026.006s0,.007,0,.008a.078.078,0,0,0,.027-.008.168.168,0,0,1,.041-.013h0c.012,0,.012,0,.012,0s0,.005-.019.014l-.015.009h-.006s0,0,0-.006,0,0,0-.005c-.021,0-.022.008-.023.011s0,.006-.012.01l.014,0h.005l.02,0a.058.058,0,0,1,0,.01c0,.007.005.015-.025.028h.029l.013,0a.088.088,0,0,1,.04-.034c.007,0,.013,0,.013.007s0,.006-.009.009h-.012a.01.01,0,0,1,.007,0,.01.01,0,0,0,.007,0,.053.053,0,0,0,.023-.01l-.047.032.009,0,.015,0a.026.026,0,0,1,.017.006l.006,0-.03.012c-.034.013-.066.025-.069.04l.05-.005c0,.008-.011.014-.029.023a.006.006,0,0,0,0,.006s0,0,.01,0a.252.252,0,0,0,.043-.007.263.263,0,0,1,.045-.008s.007,0,.008,0,0,0,0,.009c-.052.014-.057.022-.066.035l.016,0h.01l.007,0h-.006l-.012,0s0,0,.007-.009a.058.058,0,0,1,.022-.007.012.012,0,0,1,.008,0,.013.013,0,0,0,.008,0c-.03.02-.046.034-.049.047a.032.032,0,0,0,.007.025.031.031,0,0,1,0,.044.107.107,0,0,1,.033-.013l0,.005s0,.007.008.007c-.021.01-.024.013-.024.015s0,0,.007,0,.009,0,.01.005,0,.006-.01.011l.063-.032s-.005.006,0,.008,0,0,.011,0h.019l.023,0s.008,0,.008,0,0,0-.021.018a.09.09,0,0,1-.053.017H12.7c-.013.008-.019.014-.018.018s.01.006.02.007.018,0,.019.007-.007.011-.022.02l.02-.009a.222.222,0,0,1,.076-.024l-.027.026a.147.147,0,0,1-.037.032h.019s.006,0,.006,0,0,0-.008.011a.063.063,0,0,1-.02,0h-.009a.011.011,0,0,0,0,.01c0,.007.022.008.04.009h.012c-.028.016-.027.027-.026.039a.032.032,0,0,1-.007.026l.01,0h.01a.008.008,0,0,1,.006,0,.007.007,0,0,1,0,.006s0,.005,0,.006h.006l.014,0,0,0,.029-.007a.268.268,0,0,1,.05-.011l-.048.021c-.027.011-.031.017-.032.02s0,.005,0,.007a.008.008,0,0,1,0,.006s0,0,0,.006l.007,0,.007,0c0,.005,0,.007.007.007l.017,0h.037l.011,0a.018.018,0,0,1,.012.005c0,.01-.046.024-.053.024s-.013.011-.012.015.01.006.018.007.006-.006.017-.008a.035.035,0,0,0-.013.009.008.008,0,0,0,0,.01.013.013,0,0,1-.007.015l-.041.014s0,0,.014,0a.191.191,0,0,0,.056-.009.031.031,0,0,0-.005.031.07.07,0,0,0,.049.032l-.011.005H12.9a.052.052,0,0,0,.019,0c.009,0,.012,0,.013,0s-.005,0-.009.007h0s0,0-.01.01-.019.014-.019.02a.124.124,0,0,0,.03-.012c-.007.007-.011.013-.01.018s.012.011.023.014.022.008.024.015a.017.017,0,0,1,0,.015.182.182,0,0,0-.031.007l-.01,0,.006,0a.2.2,0,0,0,.072.013h.024L13,11.412a.1.1,0,0,1-.028.008.033.033,0,0,0,.033.015.113.113,0,0,0,.029,0s0,0,0-.005l-.01,0-.014.005a.093.093,0,0,1,.056-.021c.007,0,.012,0,.013,0l-.009.007c0,.007.01.007.018.008s.013,0,.016.006-.013.008-.017.008h-.007a.03.03,0,0,0-.014.005c-.047.023-.04.037-.036.045s0,.005,0,.007l.012,0a.1.1,0,0,0,.033-.01c0,.006-.006.01-.015.015s-.016.008-.016.01l.125-.022-.019.011a.145.145,0,0,1-.051.02.038.038,0,0,0,.025.006.481.481,0,0,0,.075-.01l.043-.007c0,.01.011.014.02.018l.012.006-.008,0-.007,0,0-.006-.009,0-.035.027-.006,0a.111.111,0,0,0-.038.016.158.158,0,0,1-.045.019.015.015,0,0,1,.013.005c.006.008,0,.025,0,.039l0,.012a.1.1,0,0,1,.045-.018l.013,0a.043.043,0,0,0,.016,0,.1.1,0,0,0,.036-.009h0l0,.006c0,.007-.017.014-.033.022a.108.108,0,0,0-.031.018.034.034,0,0,1,.029.03.047.047,0,0,0,.009.019l-.006,0h-.008a.037.037,0,0,1,.02.014.051.051,0,0,0,.045.02h.02l-.01,0a.069.069,0,0,1-.028.008s0,0,0,.006a.079.079,0,0,0,.03-.007.126.126,0,0,1,.028-.008c0,.005,0,.008,0,.013l-.034.009c.007,0,.011,0,.013,0s0,.007,0,.011,0,.008,0,.011.006,0,.013,0h.013a.074.074,0,0,1-.025.008l-.011,0a.045.045,0,0,1,.015.008.05.05,0,0,0,.033.01l.02,0a.161.161,0,0,1-.057.018s0,.005,0,.006l0,0,.021,0,.02,0s.006,0,.006,0v.006a.068.068,0,0,1-.026.02h.006a.048.048,0,0,1,.03.009.032.032,0,0,0,.013.006.122.122,0,0,0-.033.025l-.012.011.013.03a.224.224,0,0,0,.118.141.094.094,0,0,1-.048.019h-.014a.052.052,0,0,0-.028.01l.007,0,.022-.005c.005,0,.006,0,.006.008a.019.019,0,0,0,.013.018l-.008,0,0,0s0,.006,0,.01-.005.007,0,.01,0,0,.007,0l.014-.007h.006s0,.008-.009.016-.015.014-.014.016a.082.082,0,0,0,.028-.006l-.038.025.013,0h.011s0,.007,0,.008,0,.007,0,.009,0,0,.008,0h.007c-.007.007-.007.009-.006.01s.017.006.03.006.02,0,.021,0,0,0-.013.011a.062.062,0,0,0,.036.012.133.133,0,0,0,.049-.012.309.309,0,0,1-.067.028.24.24,0,0,1,.038.042.156.156,0,0,0,.108.072.058.058,0,0,1-.021.008l-.01,0a.029.029,0,0,1,.023.008c0,.006,0,.016,0,.025s0,.017,0,.022a.023.023,0,0,0,.019.006.188.188,0,0,0,.041-.006l.051-.013a.191.191,0,0,1-.034.021.175.175,0,0,0-.03.018h.011a.021.021,0,0,1,.015.006.022.022,0,0,0,.016.006l.021,0a.08.08,0,0,1-.026.01l-.013,0c0,.008.018.009.032.009s.028,0,.031.006l-.023.01c-.03.054-.062.128-.037.173a.091.091,0,0,0,.082.039c0,.011-.018.018-.031.024s-.021.009-.021.011c.05.008.055.038.059.066s.011.064.079.064h.018Z" fill="#b8b8b8"/>
</svg>
