<svg id="Macro" xmlns="http://www.w3.org/2000/svg" width="15.709" height="19.335" viewBox="0 0 15.709 19.335">
  <g id="Group_98" data-name="Group 98" transform="translate(0)">
    <path id="Path_85" data-name="Path 85" d="M63.534,3.8,59.909.175A.6.6,0,0,0,59.48,0H49.813A1.813,1.813,0,0,0,48,1.812v15.71a1.813,1.813,0,0,0,1.813,1.813H61.9a1.813,1.813,0,0,0,1.813-1.813V4.229A.6.6,0,0,0,63.534,3.8ZM62.5,17.522a.6.6,0,0,1-.6.6H49.813a.6.6,0,0,1-.6-.6V1.812a.6.6,0,0,1,.6-.6h9.063V3.625a1.208,1.208,0,0,0,1.208,1.208H62.5Z" transform="translate(-48 0)" fill="#7e7e7e"/>
  </g>
</svg>
