<svg xmlns="http://www.w3.org/2000/svg" width="17.742" height="19.713" viewBox="0 0 17.742 19.713">
  <g id="Price_list" data-name="Price list" transform="translate(-39.993 -16)">
    <path id="Path_92" data-name="Path 92" d="M165.045,19.382,161.76,16.1a.329.329,0,0,0-.232-.1h-8.214A1.316,1.316,0,0,0,152,17.314v9.528h.657V17.314a.658.658,0,0,1,.657-.657H161.2v1.971a1.316,1.316,0,0,0,1.314,1.314h1.971V34.4a.658.658,0,0,1-.657.657H153.314a.656.656,0,0,1-.438-.167l-.438.49a1.312,1.312,0,0,0,.876.335h10.513a1.316,1.316,0,0,0,1.314-1.314V19.614a.329.329,0,0,0-.1-.232Zm-3.189-.753V17.122l2.164,2.164h-1.507A.658.658,0,0,1,161.856,18.628Z" transform="translate(-107.407)" fill="#7e7e7e"/>
    <path id="Path_93" data-name="Path 93" d="M184,48h1.314v.657H184Z" transform="translate(-138.093 -30.686)" fill="#7e7e7e"/>
    <path id="Path_94" data-name="Path 94" d="M232,48h2.3v.657H232Z" transform="translate(-184.121 -30.686)" fill="#7e7e7e"/>
    <path id="Path_95" data-name="Path 95" d="M184,80h1.971v.657H184Z" transform="translate(-138.093 -61.372)" fill="#7e7e7e"/>
    <path id="Path_96" data-name="Path 96" d="M184,128h2.3v.657H184Z" transform="translate(-138.093 -107.4)" fill="#7e7e7e"/>
    <path id="Path_97" data-name="Path 97" d="M256,128h2.628v.657H256Z" transform="translate(-207.136 -107.4)" fill="#7e7e7e"/>
    <path id="Path_98" data-name="Path 98" d="M184,160h2.957v.657H184Z" transform="translate(-138.093 -138.086)" fill="#7e7e7e"/>
    <path id="Path_99" data-name="Path 99" d="M224,192h3.285v.657H224Z" transform="translate(-176.45 -168.772)" fill="#7e7e7e"/>
    <path id="Path_100" data-name="Path 100" d="M320,192h2.957v.657H320Z" transform="translate(-268.507 -168.772)" fill="#7e7e7e"/>
    <path id="Path_101" data-name="Path 101" d="M408,192h1.314v.657H408Z" transform="translate(-352.893 -168.772)" fill="#7e7e7e"/>
    <path id="Path_102" data-name="Path 102" d="M184,224h3.285v.657H184Z" transform="translate(-138.093 -199.458)" fill="#7e7e7e"/>
    <path id="Path_103" data-name="Path 103" d="M280,224h2.957v.657H280Z" transform="translate(-230.15 -199.458)" fill="#7e7e7e"/>
    <path id="Path_104" data-name="Path 104" d="M368,224h2.957v.657H368Z" transform="translate(-314.536 -199.458)" fill="#7e7e7e"/>
    <path id="Path_105" data-name="Path 105" d="M184,256h4.928v.657H184Z" transform="translate(-138.093 -230.144)" fill="#7e7e7e"/>
    <path id="Path_106" data-name="Path 106" d="M320,256h2.957v.657H320Z" transform="translate(-268.507 -230.144)" fill="#7e7e7e"/>
    <path id="Path_107" data-name="Path 107" d="M408,256h1.314v.657H408Z" transform="translate(-352.893 -230.144)" fill="#7e7e7e"/>
    <path id="Path_108" data-name="Path 108" d="M224.329,408a.329.329,0,0,0-.329.328V410.3a.329.329,0,0,0,.329.329H226.3a.329.329,0,0,0,.329-.329v-1.971A.329.329,0,0,0,226.3,408Zm1.643,1.971h-1.314v-1.314h1.314Z" transform="translate(-176.45 -375.901)" fill="#7e7e7e"/>
    <path id="Path_109" data-name="Path 109" d="M304,371.943a.328.328,0,0,0,.328.329H306.3a.329.329,0,0,0,.329-.329v-3.614A.329.329,0,0,0,306.3,368h-1.971a.329.329,0,0,0-.329.329Zm.657-3.285h1.314v2.957h-1.314Z" transform="translate(-253.164 -337.544)" fill="#7e7e7e"/>
    <path id="Path_110" data-name="Path 110" d="M384.328,341.585H386.3a.329.329,0,0,0,.329-.329v-4.928A.329.329,0,0,0,386.3,336h-1.971a.329.329,0,0,0-.329.329v4.928A.329.329,0,0,0,384.328,341.585Zm.329-4.928h1.314v4.271h-1.314Z" transform="translate(-329.879 -306.858)" fill="#7e7e7e"/>
    <path id="Path_111" data-name="Path 111" d="M40.651,278.846a2.96,2.96,0,0,1,2.817-2.953l-.421.421.465.465.986-.986a.329.329,0,0,0,0-.465l-.986-.986-.465.465.427.427a3.614,3.614,0,0,0-1.674,6.742l.329-.569a2.969,2.969,0,0,1-1.479-2.562Z" transform="translate(0 -247.733)" fill="#7e7e7e"/>
    <path id="Path_112" data-name="Path 112" d="M108.6,310.908a3.627,3.627,0,0,0-1.807-3.13l-.329.569a2.957,2.957,0,0,1-1.339,5.515l.421-.421-.465-.465-.986.986a.329.329,0,0,0,0,.465l.986.986.465-.465-.427-.427a3.618,3.618,0,0,0,3.481-3.611Z" transform="translate(-61.378 -279.794)" fill="#7e7e7e"/>
    <path id="Path_113" data-name="Path 113" d="M99.793,345.875a.329.329,0,0,0,.1-.232V344h-.657v1.507l-.889.889.465.465Z" transform="translate(-55.953 -314.529)" fill="#7e7e7e"/>
  </g>
</svg>
