<svg xmlns="http://www.w3.org/2000/svg" width="17.04" height="17.043" viewBox="0 0 17.04 17.043">
  <path id="Path_9640" data-name="Path 9640" d="M679.5-151.94a2.048,2.048,0,0,1-.365-.24.721.721,0,0,1-.161-.828.771.771,0,0,1,.764-.486c.344-.005.688,0,1.032,0h.191v-3.087h-.216q-2.512,0-5.025,0a1.433,1.433,0,0,1-.425-.054.762.762,0,0,1-.508-.807.768.768,0,0,1,.718-.686c.077,0,.155-.005.233-.005h5.22v-9.279h-4.609v3.078h.194c.849,0,1.7,0,2.546,0a.781.781,0,0,1,.821.542.756.756,0,0,1-.693,1c-1.231.012-2.462.011-3.693,0a.758.758,0,0,1-.743-.815c0-.821,0-1.642,0-2.463v-1.343h-7.718v5.648h3.589v-.185c0-.876,0-1.753,0-2.629a.772.772,0,0,1,1.05-.737.765.765,0,0,1,.5.685,1.287,1.287,0,0,1,0,.133q0,3.52,0,7.039a.806.806,0,0,1-.5.821.775.775,0,0,1-1.053-.736c-.007-.865,0-1.731,0-2.6v-.213h-3.594v6.688H674.9a.89.89,0,0,1,.7.25.776.776,0,0,1-.25,1.24l-.149.067h-9.119a.83.83,0,0,1-.6-.819q0-7.705,0-15.411a.767.767,0,0,1,.813-.813h15.407a1.081,1.081,0,0,1,.23.024.841.841,0,0,1,.589.574v15.845a.953.953,0,0,1-.6.6Z" transform="translate(-665.484 168.983)" fill="#7e7e7e"/>
</svg>
