<svg xmlns="http://www.w3.org/2000/svg" xmlns:xlink="http://www.w3.org/1999/xlink" width="17.54" height="18.54" viewBox="0 0 17.54 18.54">
  <defs>
    <clipPath id="clip-path">
      <rect id="Rectangle_927" data-name="Rectangle 927" width="17.54" height="18.54" transform="translate(562 197)" fill="#717171" stroke="#707070" stroke-width="0.2"/>
    </clipPath>
  </defs>
  <g id="Swag" transform="translate(-562 -197)" clip-path="url(#clip-path)">
    <g id="souvenir" transform="translate(563.971 197.5)">
      <g id="Group_4255" data-name="Group 4255" transform="translate(0 0)">
        <g id="Group_4254" data-name="Group 4254">
          <path id="Path_2009" data-name="Path 2009" d="M12.012,26.76h-6.8a.2.2,0,0,1-.2-.221l.763-8.924a.257.257,0,1,0-.512-.044L4.5,26.494a.718.718,0,0,0,.715.779h6.8a.257.257,0,1,0,0-.514Z" transform="translate(-4.495 -9.734)" fill="#717171"/>
          <path id="Path_2009_-_Outline" data-name="Path 2009 - Outline" d="M12.012,27.374h-6.8a.818.818,0,0,1-.815-.888l.763-8.924a.359.359,0,0,1,.386-.325.357.357,0,0,1,.325.386L5.11,26.547a.1.1,0,0,0,.1.113h6.8a.357.357,0,0,1,0,.714Zm-6.5-9.939a.158.158,0,0,0-.156.144L4.6,26.5a.618.618,0,0,0,.616.671h6.8a.157.157,0,1,0,0-.314h-6.8a.3.3,0,0,1-.3-.33l.763-8.924a.157.157,0,0,0-.143-.17Z" transform="translate(-4.495 -9.734)" fill="#707070"/>
          <path id="Path_2010" data-name="Path 2010" d="M19.2,16.761,18.165,4.648a.714.714,0,0,0-.715-.657H15.14V2.735a2.735,2.735,0,1,0-5.471,0V3.992H7.359a.714.714,0,0,0-.715.657l-.17,1.988a.257.257,0,0,0,.512.044l.17-1.988a.2.2,0,0,1,.2-.187h2.31v.569a.857.857,0,1,0,.514,0V4.506h4.443v.569a.857.857,0,1,0,.514,0V4.506h2.31a.2.2,0,0,1,.2.187L18.688,16.8a.2.2,0,0,1-.2.221H14.323a.257.257,0,1,0,0,.514h4.162a.718.718,0,0,0,.715-.779ZM10.269,5.892a.343.343,0,1,1-.343-.343A.343.343,0,0,1,10.269,5.892Zm-.086-1.9V2.735a2.221,2.221,0,1,1,4.443,0V3.992Zm5.043,1.9a.343.343,0,1,1-.343-.343A.343.343,0,0,1,15.226,5.892Z" transform="translate(-5.606 0)" fill="#717171"/>
          <path id="Path_2010_-_Outline" data-name="Path 2010 - Outline" d="M18.485,17.64H14.323a.357.357,0,0,1,0-.714h4.162a.1.1,0,0,0,.1-.113L17.554,4.7a.1.1,0,0,0-.1-.1H15.24V5a.957.957,0,1,1-.714,0v-.4H10.283V5a.957.957,0,1,1-.714,0v-.4H7.359a.1.1,0,0,0-.1.1l-.17,1.988a.359.359,0,0,1-.386.325.357.357,0,0,1-.325-.386l.17-1.988a.813.813,0,0,1,.815-.748h2.21V2.735a2.835,2.835,0,1,1,5.671,0V3.892h2.21a.813.813,0,0,1,.815.748L19.3,16.752a.818.818,0,0,1-.815.888Zm-4.162-.514a.157.157,0,1,0,0,.314h4.162a.618.618,0,0,0,.616-.671L18.066,4.657a.614.614,0,0,0-.616-.565H15.04V2.735a2.635,2.635,0,1,0-5.271,0V4.092H7.359a.614.614,0,0,0-.616.565l-.17,1.988a.157.157,0,0,0,.143.17.158.158,0,0,0,.17-.143l.17-1.988a.3.3,0,0,1,.3-.278h2.41v.742L9.7,5.17a.757.757,0,1,0,.454,0l-.07-.022V4.406h4.643v.742l-.07.022a.757.757,0,1,0,.454,0l-.07-.022V4.406h2.41a.3.3,0,0,1,.3.278L18.788,16.8a.3.3,0,0,1-.3.33Zm.56-10.791a.443.443,0,1,1,0-.886h0a.443.443,0,0,1,0,.886Zm0-.686a.243.243,0,1,0,.243.243.243.243,0,0,0-.243-.243Zm-4.957.686a.443.443,0,0,1,0-.886h0a.443.443,0,0,1,0,.886Zm0-.686a.243.243,0,1,0,.243.243.243.243,0,0,0-.243-.243Zm4.8-1.557H10.083V2.735a2.321,2.321,0,1,1,4.643,0Zm-4.443-.2h4.243V2.735a2.121,2.121,0,1,0-4.243,0Z" transform="translate(-5.606 0)" fill="#707070"/>
          <path id="Path_2011" data-name="Path 2011" d="M19.244,19.391a.556.556,0,0,0-.308-.949l-.752-.109a.042.042,0,0,1-.032-.023l-.336-.682a.556.556,0,0,0-1,0l-.336.682a.042.042,0,0,1-.032.023l-.752.109a.556.556,0,0,0-.308.949l.544.53a.042.042,0,0,1,.012.037l-.128.749a.556.556,0,0,0,.807.586l.673-.354a.042.042,0,0,1,.039,0l.673.354a.556.556,0,0,0,.807-.586l-.128-.749a.042.042,0,0,1,.012-.037Zm-.9.162a.556.556,0,0,0-.16.492l.128.749a.042.042,0,0,1-.061.044l-.673-.354a.556.556,0,0,0-.518,0l-.673.354a.042.042,0,0,1-.061-.044l.128-.749a.556.556,0,0,0-.16-.492l-.544-.53a.042.042,0,0,1,.023-.072l.752-.109a.556.556,0,0,0,.419-.3l.336-.682a.042.042,0,0,1,.076,0l.336.682a.556.556,0,0,0,.419.3l.752.109a.042.042,0,0,1,.023.072Z" transform="translate(-10.518 -9.724)" fill="#717171"/>
          <path id="Path_2011_-_Outline" data-name="Path 2011 - Outline" d="M16.365,21.458a.657.657,0,0,1-.646-.768l.123-.719-.522-.509a.656.656,0,0,1,.364-1.119l.722-.1.323-.654a.656.656,0,0,1,1.177,0l.323.654.722.1a.656.656,0,0,1,.364,1.119l-.522.509.123.719a.657.657,0,0,1-.646.768h0a.66.66,0,0,1-.306-.076l-.646-.34-.646.34A.66.66,0,0,1,16.365,21.458Zm.952-4.04a.453.453,0,0,0-.409.254l-.336.682a.142.142,0,0,1-.107.078l-.752.109a.456.456,0,0,0-.253.778L16,19.85a.142.142,0,0,1,.041.126l-.128.749a.457.457,0,0,0,.449.534.46.46,0,0,0,.213-.053l.673-.354a.144.144,0,0,1,.132,0l.673.354a.459.459,0,0,0,.213.053.457.457,0,0,0,.449-.534l-.128-.749a.142.142,0,0,1,.041-.126l.544-.53a.456.456,0,0,0-.253-.778l-.752-.109a.142.142,0,0,1-.107-.078l-.336-.682A.453.453,0,0,0,17.317,17.418Zm-.951,3.526a.141.141,0,0,1-.083-.028.14.14,0,0,1-.057-.139l.128-.749a.456.456,0,0,0-.131-.4l-.544-.53a.142.142,0,0,1,.079-.243l.752-.109a.456.456,0,0,0,.343-.25l.336-.681a.142.142,0,0,1,.255,0l.336.682a.456.456,0,0,0,.343.249l.752.109a.142.142,0,0,1,.079.242l-.544.531a.456.456,0,0,0-.131.4l.128.749a.139.139,0,0,1-.056.139.142.142,0,0,1-.083.028.14.14,0,0,1-.067-.017l-.673-.354a.464.464,0,0,0-.425,0l-.673.354A.141.141,0,0,1,16.365,20.945ZM15.9,19.033l.46.449a.656.656,0,0,1,.189.581l-.109.634.569-.3a.667.667,0,0,1,.611,0l.569.3-.109-.634a.656.656,0,0,1,.189-.581l.46-.449-.636-.092a.656.656,0,0,1-.494-.359l-.285-.577-.285.576a.656.656,0,0,1-.494.359Z" transform="translate(-10.518 -9.724)" fill="#707070"/>
          <path id="Path_2012" data-name="Path 2012" d="M14.467,28.163a.256.256,0,0,0,.108.346,1.872,1.872,0,0,1,.751,1.592.257.257,0,0,0,.256.24H15.6a.257.257,0,0,0,.24-.273,2.344,2.344,0,0,0-1.025-2.013A.258.258,0,0,0,14.467,28.163Z" transform="translate(-10.078 -15.736)" fill="#717171"/>
          <path id="Path_2012_-_Outline" data-name="Path 2012 - Outline" d="M14.7,27.926a.36.36,0,0,1,.165.04,2.444,2.444,0,0,1,1.078,2.095.357.357,0,0,1-.333.38.359.359,0,0,1-.38-.333,1.772,1.772,0,0,0-.7-1.51.351.351,0,0,1-.173-.208.357.357,0,0,1,.342-.463Zm.887,2.316h.01a.157.157,0,0,0,.146-.167,2.241,2.241,0,0,0-.971-1.93.157.157,0,0,0-.224.186.154.154,0,0,0,.077.091,1.971,1.971,0,0,1,.805,1.674A.157.157,0,0,0,15.582,30.241Z" transform="translate(-10.078 -15.736)" fill="#707070"/>
          <path id="Path_2013" data-name="Path 2013" d="M23.629,28.51a.257.257,0,0,0-.239-.455,2.344,2.344,0,0,0-1.025,2.013.257.257,0,0,0,.24.273h.017a.257.257,0,0,0,.256-.24,1.874,1.874,0,0,1,.751-1.591Z" transform="translate(-14.529 -15.737)" fill="#717171"/>
          <path id="Path_2013_-_Outline" data-name="Path 2013 - Outline" d="M23.508,27.926a.357.357,0,0,1,.168.672,1.778,1.778,0,0,0-.7,1.51.358.358,0,0,1-.38.333.357.357,0,0,1-.333-.38,2.445,2.445,0,0,1,1.078-2.095A.358.358,0,0,1,23.508,27.926Zm-.886,2.315a.157.157,0,0,0,.156-.147,1.977,1.977,0,0,1,.8-1.672.157.157,0,0,0-.073-.3.155.155,0,0,0-.072.018,2.242,2.242,0,0,0-.971,1.93.157.157,0,0,0,.146.167Z" transform="translate(-14.529 -15.737)" fill="#707070"/>
          <path id="Path_2014" data-name="Path 2014" d="M19.414,27.787v2.019a.257.257,0,0,0,.514,0V27.787a.257.257,0,1,0-.514,0Z" transform="translate(-12.872 -15.458)" fill="#717171"/>
          <path id="Path_2014_-_Outline" data-name="Path 2014 - Outline" d="M19.671,27.43a.357.357,0,0,1,.357.357v2.019a.357.357,0,1,1-.714,0V27.787A.357.357,0,0,1,19.671,27.43Zm0,2.533a.157.157,0,0,0,.157-.157V27.787a.157.157,0,1,0-.314,0v2.019A.157.157,0,0,0,19.671,29.963Z" transform="translate(-12.872 -15.458)" fill="#707070"/>
        </g>
      </g>
    </g>
  </g>
</svg>
