<svg xmlns="http://www.w3.org/2000/svg" width="13.804" height="9.111" viewBox="0 0 13.804 9.111">
  <g id="Video" transform="translate(-1.05 -7.05)">
    <path id="Path_2019" data-name="Path 2019" d="M28.106,10.05a.45.45,0,0,1,.45.45v5.865a.45.45,0,0,1-.712.366L23.738,13.8a.45.45,0,0,1,0-.732l4.106-2.933A.45.45,0,0,1,28.106,10.05Zm-.45,5.441V11.374l-2.881,2.058Z" transform="translate(-13.702 -1.827)" fill="#717171"/>
    <path id="Path_2020" data-name="Path 2020" d="M2.673,7.05H9.125a1.625,1.625,0,0,1,1.623,1.623v5.865a1.625,1.625,0,0,1-1.623,1.623H2.673A1.625,1.625,0,0,1,1.05,14.538V8.673A1.625,1.625,0,0,1,2.673,7.05Zm6.452,8.211a.724.724,0,0,0,.723-.723V8.673a.724.724,0,0,0-.723-.723H2.673a.724.724,0,0,0-.723.723v5.865a.724.724,0,0,0,.723.723Z" transform="translate(0 0)" fill="#717171"/>
  </g>
</svg>
