<svg xmlns="http://www.w3.org/2000/svg" width="20.03" height="18.01" viewBox="0 0 20.03 18.01">
  <g id="Component_115_1" data-name="Component 115 – 1" transform="translate(0)">
    <g id="Group_4967" data-name="Group 4967" transform="translate(0.022 2)">
      <path id="Path_9225" data-name="Path 9225" d="M21.87,11.5c-.64-1.11-4.16-6.68-10.14-6.5C6.2,5.14,3,10,2.13,11.5a1,1,0,0,0,0,1c.63,1.09,4,6.5,9.89,6.5h.25c5.53-.14,8.74-5,9.6-6.5A1,1,0,0,0,21.87,11.5ZM12.22,17c-4.31.1-7.12-3.59-8-5,1-1.61,3.61-4.9,7.61-5,4.29-.11,7.11,3.59,8,5-1.03,1.61-3.61,4.9-7.61,5Z" transform="translate(-1.996 -4.996)" fill="#38ada2"/>
      <path id="Path_9226" data-name="Path 9226" d="M12,8.5A3.5,3.5,0,1,0,15.5,12,3.5,3.5,0,0,0,12,8.5Zm0,5A1.5,1.5,0,1,1,13.5,12,1.5,1.5,0,0,1,12,13.5Z" transform="translate(-1.996 -4.996)" fill="#38ada2"/>
    </g>
    <g id="Group_4966" data-name="Group 4966" transform="translate(-714.996 -490.996)">
      <path id="Path_9227" data-name="Path 9227" d="M4.71,3.29A1,1,0,1,0,3.29,4.71l5.63,5.63a3.5,3.5,0,0,0,4.74,4.74l5.63,5.63a1,1,0,1,0,1.42-1.42ZM12,13.5A1.5,1.5,0,0,1,10.5,12v-.07l1.56,1.56Z" transform="translate(713 488)" fill="#38ada2"/>
      <path id="Path_9228" data-name="Path 9228" d="M12.22,17c-4.3.1-7.12-3.59-8-5A13.7,13.7,0,0,1,6.46,9.28L5,7.87A15.89,15.89,0,0,0,2.13,11.5a1,1,0,0,0,0,1c.63,1.09,4,6.5,9.89,6.5h.25a9.48,9.48,0,0,0,3.23-.67l-1.58-1.58a7.74,7.74,0,0,1-1.7.25Z" transform="translate(713 488)" fill="#38ada2"/>
      <path id="Path_9229" data-name="Path 9229" d="M21.87,11.5C21.23,10.39,17.7,4.82,11.73,5a9.48,9.48,0,0,0-3.23.67l1.58,1.58A7.74,7.74,0,0,1,11.78,7c4.29-.11,7.11,3.59,8,5a13.7,13.7,0,0,1-2.29,2.72L19,16.13a15.89,15.89,0,0,0,2.91-3.63,1,1,0,0,0-.04-1Z" transform="translate(713 488)" fill="#38ada2"/>
    </g>
  </g>
</svg>
