<svg xmlns="http://www.w3.org/2000/svg" width="34.641" height="38.415" viewBox="0 0 34.641 38.415">
  <g id="_x31_68-hubspot" transform="translate(-48.597 -26)">
    <g id="Group_4972" data-name="Group 4972" transform="translate(48.597 26)">
      <path id="Path_6330" data-name="Path 6330" d="M66.769,41.876a9.757,9.757,0,0,0-1.11,12.95l-3.714,3.736a3.064,3.064,0,0,0-1.05-.187,3.029,3.029,0,1,0,3.031,3.031,2.836,2.836,0,0,0-.143-.908l3.752-3.767A9.767,9.767,0,1,0,74.97,39.325V34.7a3.428,3.428,0,0,0,2.116-3.219,3.516,3.516,0,1,0-7.03,0A3.428,3.428,0,0,0,72.171,34.7V39.3a9.71,9.71,0,0,0-3.2,1.02c-2.071-1.568-8.816-6.43-12.673-9.364a3.972,3.972,0,1,0-1.771,2.319Zm6.715,12.275a5.177,5.177,0,1,1,5.177-5.177A5.178,5.178,0,0,1,73.484,54.151Z" transform="translate(-48.597 -26)" fill="#ff7a59"/>
    </g>
  </g>
</svg>
