<svg xmlns="http://www.w3.org/2000/svg" width="14" height="16.209" viewBox="0 0 14 16.209">
  <g id="Line" transform="translate(-1326.437 -413.852)">
    <path id="Path_24803" data-name="Path 24803" d="M1340.437,415.642a1.7,1.7,0,0,0-1.258-1.7,2.072,2.072,0,0,0-.577-.084q-5.255-.008-10.51,0a1.586,1.586,0,0,0-1.652,1.557c0,1.612,0,3.224,0,4.837,0,.024,0,.047,0,.07,0,.913,0,3.173,0,4.086,0,.448.25.684.725.684q.925,0,1.85,0h.2v.215c0,1.3.008,2.606,0,3.909a.772.772,0,0,0,.56.848H1339.9l.13-.062a.649.649,0,0,0,.409-.573c0-.042,0-.084,0-.127Q1340.437,422.471,1340.437,415.642Zm-11.221,8.751v.206c-.068,0-.111.011-.155.011h-1.883c-.205,0-.232-.026-.232-.22,0-.834,0-2.818,0-3.826,0-.019,0-.038,0-.058v-.171c0-.028,0-.056,0-.084q0-2.389,0-4.777a1.07,1.07,0,0,1,.795-1.089,1.123,1.123,0,0,1,1.463.893c.009.094.014.189.014.284Q1329.217,419.978,1329.216,424.393Zm10.714,4.844c0,.314-.033.346-.362.346H1330.1c-.349,0-.374-.023-.374-.348q0-6.369.006-12.738c0-.29-.009-.58-.011-.87a1.606,1.606,0,0,0-.458-1.289c.083,0,.115-.007.146-.007q4.582,0,9.164.005a1.553,1.553,0,0,1,.615.129,1.205,1.205,0,0,1,.741,1.2Q1339.928,422.449,1339.93,429.237Z" fill="#7f7f7f"/>
    <path id="Path_24804" data-name="Path 24804" d="M1353.775,464.2h-7.668a.239.239,0,0,0,0,.478h7.668a.239.239,0,1,0,0-.478Z" transform="translate(-15.162 -39.287)" fill="#7f7f7f"/>
    <path id="Path_24805" data-name="Path 24805" d="M1351.653,473.928h-5.546a.239.239,0,0,0,0,.478h5.546a.239.239,0,1,0,0-.478Z" transform="translate(-15.162 -46.876)" fill="#7f7f7f"/>
    <path id="Path_24806" data-name="Path 24806" d="M1353.775,454.476h-7.668a.239.239,0,0,0,0,.478h7.668a.239.239,0,1,0,0-.478Z" transform="translate(-15.162 -31.698)" fill="#7f7f7f"/>
    <rect id="Rectangle_1102" data-name="Rectangle 1102" width="8.146" height="0.478" rx="0.239" transform="translate(1330.707 420.641)" fill="#7f7f7f"/>
    <path id="Path_24807" data-name="Path 24807" d="M1353.775,435.024h-7.668a.239.239,0,0,0,0,.478h7.668a.239.239,0,1,0,0-.478Z" transform="translate(-15.162 -16.52)" fill="#7f7f7f"/>
    <path id="Path_24808" data-name="Path 24808" d="M1353.775,425.3h-7.668a.239.239,0,0,0,0,.478h7.668a.239.239,0,1,0,0-.478Z" transform="translate(-15.162 -8.931)" fill="#7f7f7f"/>
  </g>
</svg>
