<svg xmlns="http://www.w3.org/2000/svg" xmlns:xlink="http://www.w3.org/1999/xlink" width="64" height="62" viewBox="0 0 64 62">
  <defs>
    <clipPath id="clip-path">
      <rect id="Rectangle_640" data-name="Rectangle 640" width="40" height="40" transform="translate(970 198)" fill="#26a59a" stroke="#707070" stroke-width="1"/>
    </clipPath>
  </defs>
  <g id="Group_5702" data-name="Group 5702" transform="translate(-960 -187)">
    <path id="_5aa737ee-d142-476f-b3d8-e863e2b56648-getty-688398000" data-name="5aa737ee-d142-476f-b3d8-e863e2b56648-getty-688398000" d="M4,0H64a0,0,0,0,1,0,0V62a0,0,0,0,1,0,0H4a4,4,0,0,1-4-4V4A4,4,0,0,1,4,0Z" transform="translate(960 187)" fill="#26a59a" opacity="0.05"/>
    <g id="Mask_Group_19" data-name="Mask Group 19" transform="translate(2)" clip-path="url(#clip-path)">
      <g id="file" transform="translate(970 198)">
        <g id="Group_4302" data-name="Group 4302">
          <g id="Group_4301" data-name="Group 4301">
            <path id="Path_1058" data-name="Path 1058" d="M34.94,5.3H31.566V1.928A1.933,1.933,0,0,0,29.639,0H5.06A1.933,1.933,0,0,0,3.133,1.928V32.771A1.933,1.933,0,0,0,5.06,34.7H8.434v3.374A1.933,1.933,0,0,0,10.362,40H26.747a5.625,5.625,0,0,0,3.331-1.321l5.385-5.069a5.118,5.118,0,0,0,1.4-3.249V7.229A1.934,1.934,0,0,0,34.94,5.3ZM8.434,7.229V33.253H5.06a.488.488,0,0,1-.482-.482V1.928a.488.488,0,0,1,.482-.482H29.639a.489.489,0,0,1,.482.482V5.3H10.361A1.933,1.933,0,0,0,8.434,7.229ZM34.472,32.558l-5.385,5.069a2.558,2.558,0,0,1-.413.3V33.494a1.208,1.208,0,0,1,1.2-1.2H34.7A2.023,2.023,0,0,1,34.472,32.558Zm.949-2.2a2.248,2.248,0,0,1-.066.482H29.879a2.656,2.656,0,0,0-2.651,2.651v5a2.521,2.521,0,0,1-.482.058H10.361a.488.488,0,0,1-.482-.482V7.229a.488.488,0,0,1,.482-.482H34.94a.488.488,0,0,1,.482.482Z" fill="#26a59a"/>
          </g>
        </g>
        <g id="Group_4304" data-name="Group 4304">
          <g id="Group_4303" data-name="Group 4303">
            <path id="Path_1059" data-name="Path 1059" d="M29.639,12.048H15.663a.723.723,0,1,0,0,1.446H29.639a.723.723,0,0,0,0-1.446Z" fill="#26a59a"/>
          </g>
        </g>
        <g id="Group_4306" data-name="Group 4306">
          <g id="Group_4305" data-name="Group 4305">
            <path id="Path_1060" data-name="Path 1060" d="M29.639,21.687H15.663a.723.723,0,1,0,0,1.446H29.639a.723.723,0,1,0,0-1.446Z" fill="#26a59a"/>
          </g>
        </g>
        <g id="Group_4308" data-name="Group 4308">
          <g id="Group_4307" data-name="Group 4307">
            <path id="Path_1061" data-name="Path 1061" d="M23.374,26.506H15.663a.723.723,0,1,0,0,1.446h7.711a.723.723,0,0,0,0-1.446Z" fill="#26a59a"/>
          </g>
        </g>
        <g id="Group_4310" data-name="Group 4310">
          <g id="Group_4309" data-name="Group 4309">
            <path id="Path_1062" data-name="Path 1062" d="M29.639,16.867H15.663a.723.723,0,1,0,0,1.446H29.639a.723.723,0,1,0,0-1.446Z" fill="#26a59a"/>
          </g>
        </g>
      </g>
    </g>
  </g>
</svg>
