<svg xmlns="http://www.w3.org/2000/svg" width="30.058" height="30.058" viewBox="0 0 30.058 30.058"><defs><style>.a{fill:#26a59a;}</style></defs><path class="a" d="M0,23.794V26.3c0,2.072,5.049,3.757,11.272,3.757S22.543,28.373,22.543,26.3V23.794C20.119,25.5,15.686,26.3,11.272,26.3S2.425,25.5,0,23.794ZM18.786,7.514c6.223,0,11.272-1.685,11.272-3.757S25.009,0,18.786,0,7.514,1.685,7.514,3.757,12.563,7.514,18.786,7.514ZM0,17.635v3.029c0,2.072,5.049,3.757,11.272,3.757s11.272-1.685,11.272-3.757V17.635c-2.425,2-6.863,3.029-11.272,3.029S2.425,19.631,0,17.635Zm24.422.646c3.364-.652,5.636-1.861,5.636-3.252V12.522a14.416,14.416,0,0,1-5.636,2.025ZM11.272,9.393C5.049,9.393,0,11.495,0,14.09s5.049,4.7,11.272,4.7,11.272-2.1,11.272-4.7S17.494,9.393,11.272,9.393ZM24.146,12.7c3.522-.634,5.912-1.879,5.912-3.305V6.886C27.974,8.36,24.392,9.152,20.624,9.34A6.574,6.574,0,0,1,24.146,12.7Z"/></svg>