<svg xmlns="http://www.w3.org/2000/svg" xmlns:xlink="http://www.w3.org/1999/xlink" width="21" height="21" viewBox="0 0 21 21">
  <defs>
    <clipPath id="clip-path">
      <rect id="Rectangle_663" data-name="Rectangle 663" width="21" height="21" transform="translate(35.5 184.5)" fill="#717171" stroke="#707070" stroke-width="1"/>
    </clipPath>
  </defs>
  <g id="Insight_Sheets" data-name="Insight Sheets" transform="translate(-35.5 -184.5)" clip-path="url(#clip-path)">
    <g id="copy-two-paper-sheets-interface-symbol" transform="translate(36.312 184)">
      <g id="_x33__21_">
        <g id="Group_4389" data-name="Group 4389">
          <path id="Path_1151" data-name="Path 1151" d="M14.781,0H6.906A2.734,2.734,0,0,0,4.281,2.625l-.759.018A2.628,2.628,0,0,0,1,5.25V18.375A2.734,2.734,0,0,0,3.625,21h9.844a2.734,2.734,0,0,0,2.625-2.625h.656a2.734,2.734,0,0,0,2.625-2.625V5.266ZM13.469,19.688H3.625a1.376,1.376,0,0,1-1.312-1.313V5.25a1.3,1.3,0,0,1,1.25-1.291l.719-.022V15.75a2.734,2.734,0,0,0,2.625,2.625h7.875A1.376,1.376,0,0,1,13.469,19.688Zm4.594-3.938a1.376,1.376,0,0,1-1.313,1.312H6.906A1.376,1.376,0,0,1,5.594,15.75V2.625A1.376,1.376,0,0,1,6.906,1.313h6.563c-.011,1.511,0,2.641,0,2.641a2.7,2.7,0,0,0,2.625,2.609h1.969ZM16.094,5.25c-.7,0-1.312-1.27-1.312-1.951V1.333h0L18.063,5.25ZM14.781,9.2H8.875a.656.656,0,1,0,0,1.311h5.906a.656.656,0,1,0,0-1.311Zm0,3.278H8.875a.656.656,0,1,0,0,1.311h5.906a.656.656,0,1,0,0-1.311Z" transform="translate(-1)" fill="#717171"/>
        </g>
      </g>
    </g>
  </g>
</svg>
