<svg xmlns="http://www.w3.org/2000/svg" xmlns:xlink="http://www.w3.org/1999/xlink" width="40" height="40" viewBox="0 0 40 40">
  <defs>
    <clipPath id="clip-path">
      <rect id="Rectangle_2117" data-name="Rectangle 2117" width="40" height="40" transform="translate(308 388)" fill="#db422d" stroke="#707070" stroke-width="1"/>
    </clipPath>
  </defs>
  <g id="Mask_Group_91" data-name="Mask Group 91" transform="translate(-308 -388)" clip-path="url(#clip-path)">
    <g id="dollar" transform="translate(308 388)">
      <path id="Path_1501" data-name="Path 1501" d="M16.094,16.875A3.911,3.911,0,0,0,20,20.781a2.344,2.344,0,1,1-2.344,2.344.781.781,0,0,0-1.562,0,3.913,3.913,0,0,0,3.125,3.828v1.641a.781.781,0,0,0,1.563,0V26.953A3.906,3.906,0,0,0,20,19.219a2.344,2.344,0,1,1,2.344-2.344.781.781,0,0,0,1.563,0,3.913,3.913,0,0,0-3.125-3.828V11.406a.781.781,0,0,0-1.562,0v1.641A3.913,3.913,0,0,0,16.094,16.875Z" fill="#db422d"/>
      <path id="Path_1502" data-name="Path 1502" d="M20,0A20.361,20.361,0,0,0,0,20,20.361,20.361,0,0,0,20,40,20.362,20.362,0,0,0,40,20,20.362,20.362,0,0,0,20,0Zm0,38.438A18.92,18.92,0,0,1,1.563,20,18.92,18.92,0,0,1,20,1.563,18.92,18.92,0,0,1,38.438,20,18.92,18.92,0,0,1,20,38.438Z" fill="#db422d"/>
      <path id="Path_1503" data-name="Path 1503" d="M23.292,5.076a.781.781,0,1,0-.361,1.52A14.2,14.2,0,0,1,33.75,20,14.11,14.11,0,0,1,20,33.75,14.11,14.11,0,0,1,6.25,20,14.2,14.2,0,0,1,17.069,6.6a.781.781,0,0,0-.361-1.52A15.78,15.78,0,0,0,4.688,20,15.7,15.7,0,0,0,20,35.313,15.7,15.7,0,0,0,35.313,20,15.78,15.78,0,0,0,23.292,5.076Z" fill="#db422d"/>
      <circle id="Ellipse_131" data-name="Ellipse 131" cx="0.781" cy="0.781" r="0.781" transform="translate(19.219 4.766)" fill="#db422d"/>
    </g>
  </g>
</svg>
