<?xml version="1.0" encoding="UTF-8"?><svg id="Layer_2" xmlns="http://www.w3.org/2000/svg" viewBox="0 0 24.58 25.13"><g id="Layer_1-2"><path d="M10.53,25.13c-3.2-.04-6.09-.69-8.85-1.98-.89-.42-1.28-.87-.51-1.8,.75-.91,.81-1.98,.25-3.04C-2.5,10.9,1.9,1.03,11.88,.1c3.85-.36,7.47,.24,10.97,1.84,.94,.43,1.36,.86,.54,1.87-.86,1.05-.57,2.21-.02,3.38,2.34,4.97,1.24,10.76-2.69,14.41-2.91,2.71-6.5,3.42-10.14,3.54ZM12.35,3.76c-4.79-.01-8.73,3.88-8.74,8.65-.01,4.89,3.84,8.84,8.65,8.87,4.75,.03,8.7-3.9,8.75-8.67,.04-4.86-3.85-8.84-8.66-8.85Z"/><path d="M18.77,12.57c-.01,3.64-2.83,6.44-6.47,6.43-3.68,0-6.51-2.87-6.49-6.56,.02-3.57,2.95-6.49,6.5-6.48,3.61,0,6.48,2.93,6.46,6.61Zm-4.26-.38c1.01,0,1.82-.8,1.83-1.81,0-1-.81-1.83-1.8-1.84-.99-.01-1.82,.82-1.83,1.82-.01,1,.8,1.82,1.81,1.83Z"/></g></svg>