<svg xmlns="http://www.w3.org/2000/svg" width="25.439" height="25.444" viewBox="0 0 25.439 25.444">
  <g id="Group_5559" data-name="Group 5559" transform="translate(0.001 0)">
    <path id="Path_13" data-name="Path 13" d="M25.823,7.481a9.3,9.3,0,0,0-.591-3.087A6.518,6.518,0,0,0,21.508.671,9.321,9.321,0,0,0,18.422.08C17.06.015,16.627,0,13.173,0S9.286.015,7.929.075A9.3,9.3,0,0,0,4.843.666,6.208,6.208,0,0,0,2.586,2.137,6.264,6.264,0,0,0,1.12,4.389,9.322,9.322,0,0,0,.528,7.476C.464,8.838.449,9.27.449,12.724s.015,3.887.075,5.244a9.3,9.3,0,0,0,.592,3.087,6.517,6.517,0,0,0,3.723,3.723,9.322,9.322,0,0,0,3.087.591c1.357.06,1.789.075,5.244.075s3.887-.015,5.244-.075a9.3,9.3,0,0,0,3.087-.591,6.508,6.508,0,0,0,3.723-3.723,9.328,9.328,0,0,0,.591-3.087c.06-1.357.075-1.789.075-5.244s-.005-3.887-.065-5.244ZM23.532,17.869a6.974,6.974,0,0,1-.437,2.361,4.221,4.221,0,0,1-2.416,2.416,7,7,0,0,1-2.361.437c-1.342.06-1.745.075-5.139.075s-3.8-.015-5.14-.075a6.97,6.97,0,0,1-2.361-.437A3.915,3.915,0,0,1,4.216,21.7a3.956,3.956,0,0,1-.949-1.461,7,7,0,0,1-.437-2.361c-.06-1.342-.075-1.745-.075-5.14s.015-3.8.075-5.139a6.97,6.97,0,0,1,.437-2.361,3.867,3.867,0,0,1,.954-1.461,3.95,3.95,0,0,1,1.461-.949,7,7,0,0,1,2.361-.437c1.342-.06,1.745-.075,5.139-.075s3.8.015,5.14.075a6.974,6.974,0,0,1,2.361.437,3.912,3.912,0,0,1,1.461.949,3.955,3.955,0,0,1,.949,1.461,7,7,0,0,1,.437,2.361c.06,1.342.075,1.745.075,5.139s-.015,3.793-.075,5.135Zm0,0" transform="translate(-0.449 0)" fill="#cb4e38"/>
    <path id="Path_14" data-name="Path 14" d="M131.485,124.5a6.536,6.536,0,1,0,6.536,6.536A6.538,6.538,0,0,0,131.485,124.5Zm0,10.776a4.24,4.24,0,1,1,4.24-4.24A4.241,4.241,0,0,1,131.485,135.276Zm0,0" transform="translate(-118.761 -118.312)" fill="#cb4e38"/>
    <path id="Path_15" data-name="Path 15" d="M365.5,90.128a1.526,1.526,0,1,1-1.526-1.526A1.526,1.526,0,0,1,365.5,90.128Zm0,0" transform="translate(-344.457 -84.197)" fill="#cb4e38"/>
  </g>
</svg>
