<svg xmlns="http://www.w3.org/2000/svg" width="24.059" height="22.996" viewBox="0 0 24.059 22.996">
  <g id="Link" transform="translate(-1591.004 -4344.537)">
    <g id="linkedin" transform="translate(1591.005 4344.537)">
      <path id="Path_77" data-name="Path 77" d="M2.918-.668A2.688,2.688,0,1,0,2.85,4.693h.033A2.689,2.689,0,1,0,2.918-.668Zm0,0" transform="translate(0 0.668)" fill="#919191"/>
      <path id="Path_78" data-name="Path 78" d="M8.109,198.313h5.157v15.516H8.109Zm0,0" transform="translate(-7.805 -190.833)" fill="#919191"/>
      <path id="Path_79" data-name="Path 79" d="M231.02,188.625c-2.782,0-4.648,2.614-4.648,2.614v-2.25h-5.157v15.516h5.157V195.84a3.534,3.534,0,0,1,.17-1.259,2.823,2.823,0,0,1,2.646-1.886c1.866,0,2.613,1.423,2.613,3.509v8.3h5.157v-8.9c0-4.766-2.544-6.983-5.937-6.983Zm0,0" transform="translate(-212.899 -181.509)" fill="#919191"/>
    </g>
  </g>
</svg>
