<svg width="16" height="16" viewBox="0 0 16 16" fill="none" xmlns="http://www.w3.org/2000/svg">
<g clip-path="url(#clip0_8_6)">
<path d="M14.8147 6.84116L12.2667 9.38816C12.2284 9.42868 12.1824 9.46112 12.1314 9.48356C12.0803 9.506 12.0253 9.51798 11.9696 9.5188C11.9139 9.51962 11.8586 9.50926 11.8069 9.48833C11.7553 9.4674 11.7083 9.43634 11.6689 9.39696C11.6294 9.35758 11.5983 9.3107 11.5773 9.25908C11.5562 9.20746 11.5458 9.15215 11.5465 9.09642C11.5472 9.04069 11.5591 8.98567 11.5815 8.93461C11.6038 8.88355 11.6362 8.8375 11.6767 8.79916L14.2247 6.25216C14.8212 5.65431 15.1562 4.84423 15.1562 3.99966C15.1562 3.15509 14.8212 2.34501 14.2247 1.74716C13.9305 1.44951 13.5794 1.21413 13.1923 1.05505C12.8053 0.895956 12.3901 0.816415 11.9717 0.82116C11.1289 0.825341 10.3208 1.15746 9.71865 1.74716L7.17065 4.29416C6.57411 4.89201 6.23908 5.70209 6.23908 6.54666C6.23908 7.39123 6.57411 8.20131 7.17065 8.79916C7.46773 9.10369 7.82686 9.34072 8.22365 9.49416C8.32578 9.53736 8.4071 9.6186 8.45039 9.72069C8.49369 9.82278 8.49558 9.93771 8.45565 10.0412C8.43625 10.0934 8.40637 10.1411 8.36786 10.1814C8.32935 10.2217 8.28302 10.2537 8.2317 10.2754C8.18039 10.2971 8.12517 10.3081 8.06945 10.3077C8.01372 10.3074 7.95867 10.2956 7.90765 10.2732C7.41136 10.0689 6.96038 9.76844 6.58065 9.38916C6.20514 9.01724 5.90705 8.57458 5.70362 8.08678C5.50018 7.59897 5.39544 7.07569 5.39544 6.54716C5.39544 6.01863 5.50018 5.49535 5.70362 5.00754C5.90705 4.51974 6.20514 4.07708 6.58065 3.70516L9.12865 1.15816C9.8842 0.412823 10.9038 -0.00349441 11.9651 2.20973e-05C13.0264 0.00353861 14.0433 0.426604 14.7939 1.17693C15.5445 1.92726 15.9679 2.94396 15.9718 4.00527C15.9757 5.06657 15.5597 6.08535 14.8147 6.84116ZM8.07565 5.68316C8.0245 5.66241 7.96977 5.65194 7.91457 5.65234C7.85937 5.65275 7.8048 5.66402 7.75396 5.68552C7.70312 5.70702 7.65701 5.73831 7.61827 5.77763C7.57952 5.81695 7.5489 5.86351 7.52815 5.91466C7.5074 5.96581 7.49693 6.02055 7.49734 6.07574C7.49774 6.13094 7.50901 6.18552 7.53051 6.23636C7.55201 6.2872 7.58331 6.3333 7.62262 6.37205C7.66194 6.41079 7.7085 6.44141 7.75965 6.46216C8.15237 6.62341 8.51 6.85945 8.81265 7.15716C9.4092 7.75501 9.74423 8.56509 9.74423 9.40966C9.74423 10.2542 9.4092 11.0643 8.81265 11.6622L6.26465 14.2092C5.97048 14.5068 5.61939 14.7422 5.23232 14.9013C4.84525 15.0604 4.43011 15.1399 4.01165 15.1352C3.16886 15.131 2.36079 14.7989 1.75865 14.2092C1.1621 13.6113 0.827077 12.8012 0.827077 11.9567C0.827077 11.1121 1.1621 10.302 1.75865 9.70416L4.30665 7.15716C4.38121 7.07821 4.42203 6.97329 4.42044 6.86471C4.41884 6.75613 4.37495 6.65245 4.29809 6.57573C4.22124 6.49901 4.1175 6.45529 4.00891 6.45388C3.90033 6.45247 3.79548 6.49347 3.71665 6.56816L1.16865 9.11516C0.419965 9.87158 0 10.8929 0 11.9572C0 13.0214 0.419965 14.0427 1.16865 14.7992C1.54176 15.1729 1.98491 15.4695 2.47275 15.6718C2.96058 15.8741 3.48353 15.9783 4.01165 15.9783C4.53978 15.9783 5.06272 15.8741 5.55056 15.6718C6.03839 15.4695 6.48155 15.1729 6.85465 14.7992L9.40265 12.2522C9.77817 11.8802 10.0763 11.4376 10.2797 10.9498C10.4831 10.462 10.5879 9.93868 10.5879 9.41016C10.5879 8.88163 10.4831 8.35835 10.2797 7.87054C10.0763 7.38274 9.77817 6.94008 9.40265 6.56816C9.02293 6.18888 8.57194 5.88745 8.07565 5.68316Z" fill="#DB422D"/>
</g>
<defs>
<clipPath id="clip0_8_6">
<rect width="16" height="16" fill="white"/>
</clipPath>
</defs>
</svg>
