<svg id="linkedin" xmlns="http://www.w3.org/2000/svg" width="28.553" height="27.292" viewBox="0 0 28.553 27.292">
  <path id="Path_77" data-name="Path 77" d="M3.463-.668A3.19,3.19,0,1,0,3.382,5.7h.04A3.191,3.191,0,1,0,3.463-.668Zm0,0" transform="translate(0 0.668)" fill="#cb4e38"/>
  <path id="Path_78" data-name="Path 78" d="M8.109,198.313H14.23v18.415H8.109Zm0,0" transform="translate(-7.748 -189.436)" fill="#cb4e38"/>
  <path id="Path_79" data-name="Path 79" d="M232.852,188.625c-3.3,0-5.516,3.1-5.516,3.1v-2.671h-6.121v18.415h6.121V197.188a4.194,4.194,0,0,1,.2-1.494,3.35,3.35,0,0,1,3.14-2.238c2.215,0,3.1,1.689,3.1,4.164v9.851h6.12V196.913c0-5.656-3.02-8.288-7.046-8.288Zm0,0" transform="translate(-211.346 -180.18)" fill="#cb4e38"/>
</svg>
