<svg xmlns="http://www.w3.org/2000/svg" width="35" height="35" viewBox="0 0 35 35">
  <g id="linkedin" transform="translate(0 0.001)">
    <circle id="Ellipse_80" data-name="Ellipse 80" cx="17.5" cy="17.5" r="17.5" transform="translate(0 -0.001)" fill="#db422d"/>
    <g id="Group_1436" data-name="Group 1436" transform="translate(8.444 7.477)">
      <path id="Path_1136" data-name="Path 1136" d="M46.58,35.4v7.215H42.4V35.883c0-1.69-.6-2.844-2.118-2.844a2.288,2.288,0,0,0-2.146,1.53,2.863,2.863,0,0,0-.139,1.019v7.026H33.811s.056-11.4,0-12.581h4.184v1.783c-.008.014-.02.028-.028.041h.028v-.041a4.153,4.153,0,0,1,3.77-2.078c2.752,0,4.815,1.8,4.815,5.662ZM29.435,23.969a2.18,2.18,0,1,0-.055,4.348h.027a2.181,2.181,0,1,0,.028-4.348ZM27.317,42.614H31.5V30.033H27.317Z" transform="translate(-27.068 -23.969)" fill="#fff"/>
    </g>
  </g>
</svg>
