<svg xmlns="http://www.w3.org/2000/svg" width="28.097" height="34.621" viewBox="0 0 28.097 34.621">
  <g id="Group_4978" data-name="Group 4978" transform="translate(-322.517 -495.574)">
    <path id="Path_6349" data-name="Path 6349" d="M17.048,1h0A14.048,14.048,0,0,1,31.1,14.908v.01a16.453,16.453,0,0,1-1.9,7.17,34.928,34.928,0,0,1-4.1,6.3,49.645,49.645,0,0,1-6.359,6.615,2.631,2.631,0,0,1-3.4-.017l0,0a54.441,54.441,0,0,1-6.318-6.612A35.033,35.033,0,0,1,4.9,22.078,16.372,16.372,0,0,1,3,14.919v-.01A14.049,14.049,0,0,1,17.048,1ZM29.1,14.923A12.048,12.048,0,0,0,17.048,3h0A12.049,12.049,0,0,0,5,14.924c0,3.434,1.93,7.651,5.575,12.2a52.271,52.271,0,0,0,6.065,6.35.631.631,0,0,0,.818,0l.054-.043A48.353,48.353,0,0,0,23.571,27.1C26.091,23.939,29.095,19.264,29.1,14.923Zm-12.048-7.4a6.709,6.709,0,1,1-6.709,6.709A6.716,6.716,0,0,1,17.048,7.524Zm0,11.417a4.709,4.709,0,1,0-4.709-4.709A4.714,4.714,0,0,0,17.048,18.942Z" transform="translate(319.517 494.574)" fill="#26a59a"/>
  </g>
</svg>
