<svg xmlns="http://www.w3.org/2000/svg" width="149.994" height="69.73" viewBox="0 0 149.994 69.73">
  <g id="Logo" transform="translate(-70.176 -69.577)">
    <path id="Path_1224" data-name="Path 1224" d="M555.551,470.039" transform="translate(-416.611 -343.729)" fill="#eaeaea"/>
    <path id="Path_1225" data-name="Path 1225" d="M483.882,479.813" transform="translate(-355.094 -352.12)" fill="#eaeaea"/>
    <path id="Path_1226" data-name="Path 1226" d="M377.381,302.706v-1.175c.157-.011.3-.029.433-.027,2.061.037,4.12.1,6.182.111,1.426,0,2.853-.064,4.267-.1h.567a4.955,4.955,0,0,1,.032,1.173,1.87,1.87,0,0,1-.308.057c-.419,0-.84-.011-1.259,0-.382.016-.765.052-1.143.1a.943.943,0,0,0-.881.836,7.511,7.511,0,0,0-.132,1.084c-.046,2.024-.1,4.047-.109,6.073-.018,3.193,0,6.385,0,9.578q0,2.9.123,5.8c.018.437.077.872.109,1.309a1.182,1.182,0,0,0,1,1.139,4.476,4.476,0,0,0,.808.123c.419.023.838.011,1.259.016.16,0,.321,0,.492.014a1.542,1.542,0,0,1,.057.615c0,.2,0,.4,0,.619a15.524,15.524,0,0,1-1.929-.052c-.638,0-1.277-.016-1.915-.023s-1.277-.012-1.915-.012-1.248,0-1.861.014-1.277.025-1.915.029-1.266.105-1.915.071a1.541,1.541,0,0,1-.055-.612v-.619c.155-.016.278-.039.4-.041.456,0,.913,0,1.368-.016a2.825,2.825,0,0,0,1.009-.219,1.225,1.225,0,0,0,.81-1.018c.05-.357.105-.724.119-1.088.053-1.439.123-2.879.132-4.32.021-3.814.018-7.626.014-11.44,0-1.385-.012-2.773-.053-4.158-.025-.856-.116-1.71-.178-2.564a1.116,1.116,0,0,0-.922-1.08,6.18,6.18,0,0,0-1.134-.15c-.437-.025-.875,0-1.314-.009a1.93,1.93,0,0,1-.244-.038Z" transform="translate(-263.658 -199.067)" fill="#eaeaea"/>
    <path id="Path_1227" data-name="Path 1227" d="M762.192,405.956H759.6a4.611,4.611,0,0,0,.093.462,3.923,3.923,0,0,1-.307,3.022,5.157,5.157,0,0,1-1.749,1.993,6.6,6.6,0,0,1-4.021,1.193,1.442,1.442,0,0,0-1.13.412c-.2.189-.424.357-.6.558a.995.995,0,0,0,.474,1.719,3.7,3.7,0,0,0,.909.178c.546.036,1.093.052,1.64.043,1.095-.02,2.188-.073,3.281-.093a14.948,14.948,0,0,1,1.528.05,2.206,2.206,0,0,1,1.74,1.091,4.516,4.516,0,0,1,.7,2.161,5.72,5.72,0,0,1-2.054,4.8,7.616,7.616,0,0,1-3.058,1.647,11.053,11.053,0,0,1-5.518.154,5.213,5.213,0,0,1-2.65-1.451,3.857,3.857,0,0,1-.465-4.964,1.151,1.151,0,0,1,.454-.375c.535-.282,1.07-.567,1.585-.861a1.87,1.87,0,0,0,.554-.408c-.178-.082-.348-.15-.506-.225a7.545,7.545,0,0,1-.735-.357,1.052,1.052,0,0,1-.535-.961,2.109,2.109,0,0,1,.779-1.733c.473-.371.972-.713,1.457-1.07.111-.08.257-.134.3-.328-.153-.054-.3-.1-.451-.162-.337-.135-.685-.255-1.007-.419a3.341,3.341,0,0,1-1.828-2.514,4.9,4.9,0,0,1,2.368-5.18,8.424,8.424,0,0,1,4.1-1.18,5.171,5.171,0,0,1,3.388,1.045,1.117,1.117,0,0,0,.754.242c1.13-.021,2.262.029,3.388-.095.139-.016.294-.055.4.1s.023.307-.064.451C762.619,405.234,762.418,405.578,762.192,405.956Zm-6.838,11.589v-.027h-1.97a5.087,5.087,0,0,0-.6.021,3.283,3.283,0,0,0-2.414,1.685,1.347,1.347,0,0,0-.136.357,4.313,4.313,0,0,0-.134,1.945,3.3,3.3,0,0,0,.833,1.694,3.8,3.8,0,0,0,1.961,1.129,6.855,6.855,0,0,0,2.5.132,6.03,6.03,0,0,0,2.179-.677,4.5,4.5,0,0,0,2.045-2.273,3.53,3.53,0,0,0,.244-1.771,2.746,2.746,0,0,0-.744-1.6,1.722,1.722,0,0,0-1.3-.606Zm-4.424-9.858h.034c.011.218.012.439.034.654a4.229,4.229,0,0,0,.642,1.961,3.031,3.031,0,0,0,5.49-.733,5.171,5.171,0,0,0-.13-3.17,3.318,3.318,0,0,0-.339-.683,2.986,2.986,0,0,0-2.8-1.494,2.81,2.81,0,0,0-2.76,2.229c-.093.4-.118.824-.175,1.245Z" transform="translate(-581.562 -286.315)" fill="#eaeaea"/>
    <path id="Path_1228" data-name="Path 1228" d="M875.838,370.432a2.016,2.016,0,0,1-.021.786,43.473,43.473,0,0,0-4.948,0,2.147,2.147,0,0,1-.025-.326c.148-1.856.212-3.716.225-5.576,0-.966,0-1.933-.036-2.9a7.2,7.2,0,0,0-.13-1.139,2.544,2.544,0,0,0-1.717-2.031,4.345,4.345,0,0,0-4.5,1.036,1.88,1.88,0,0,0-.6,1.2c-.046.654-.109,1.309-.11,1.961,0,1.733.018,3.466.036,5.2,0,.308.045.617.07.927a.556.556,0,0,0,.464.535c.357.078.713.13,1.07.178.287.039.578.057.861.082a2.731,2.731,0,0,1,.068.811,2.192,2.192,0,0,1-.343.041q-3.365-.161-6.727,0h-.287a1.426,1.426,0,0,1-.045-.788,1.046,1.046,0,0,1,.535-.141c.357-.052.713-.1,1.082-.16a.684.684,0,0,0,.613-.667c.045-.435.089-.872.1-1.309.018-1.07.021-2.152.021-3.229q0-5.254-.012-10.509c0-.729-.062-1.457-.1-2.186a.638.638,0,0,0-.014-.164c-.059-.428-.187-.562-.628-.619-.216-.029-.437-.034-.654-.041s-.439,0-.656,0a2.812,2.812,0,0,1-.289-.037c-.012-.16-.032-.3-.034-.442s.013-.25.021-.4c.3-.046.581-.1.867-.132a15.2,15.2,0,0,0,3.566-.827.549.549,0,0,1,.562-.014,10.36,10.36,0,0,1-.021,1.426c0,.474-.034.947-.05,1.426s-.036.984-.046,1.476-.018.984-.025,1.478-.014.984-.016,1.478,0,.949,0,1.426v1.533a1.458,1.458,0,0,0,.273-.135c.5-.43.99-.863,1.483-1.3l.371-.325a3.487,3.487,0,0,1,2.088-.861,6.344,6.344,0,0,1,2.591.3c.137.048.275.1.408.155a3.7,3.7,0,0,1,2.363,3.209,29.321,29.321,0,0,1,.084,3.5c-.018,1.168-.055,2.334-.061,3.5,0,.492.053.982.087,1.474a2.006,2.006,0,0,0,.055.323.654.654,0,0,0,.556.535c.3.052.613.086.922.121A1.677,1.677,0,0,1,875.838,370.432Z" transform="translate(-677.171 -240.252)" fill="#eaeaea"/>
    <path id="Path_1229" data-name="Path 1229" d="M486.082,416.553a3.518,3.518,0,0,1,0,.8c-.574-.018-1.114-.043-1.656-.052s-1.13-.011-1.7,0-1.084.032-1.656.05c0-.178-.012-.344,0-.5.13-1.473.193-2.947.205-4.425.009-1.148.02-2.3,0-3.447a9.146,9.146,0,0,0-.123-1.305,2.7,2.7,0,0,0-2.042-2.318,3.985,3.985,0,0,0-4.258,1.1,2.154,2.154,0,0,0-.626,1.426c-.029.692-.084,1.384-.084,2.075,0,1.713.021,3.429.039,5.142,0,.237.034.472.052.713a.627.627,0,0,0,.5.587,5.652,5.652,0,0,0,.913.146,9.011,9.011,0,0,1,.938.039,1.783,1.783,0,0,1,.016.781,14.352,14.352,0,0,1-1.476-.025c-.492,0-.984-.014-1.476-.021s-.949-.014-1.426-.011-.984.014-1.476.029-.979.032-1.487.048a1.657,1.657,0,0,1-.052-.756c.189-.137.4-.061.59-.077.344-.029.69-.043,1.034-.077a1.085,1.085,0,0,0,.312-.094.579.579,0,0,0,.376-.5c.036-.357.084-.726.093-1.089.064-2.808.078-5.616.009-8.425a3.13,3.13,0,0,0-.077-.592.467.467,0,0,0-.408-.389c-.234-.034-.469-.071-.7-.084-.308-.014-.62,0-.931,0a2.689,2.689,0,0,1-.275-.032,1.933,1.933,0,0,1,.012-.793c.273-.046.535-.1.8-.134a14.021,14.021,0,0,0,3.313-.908,4.207,4.207,0,0,1,.464-.162.246.246,0,0,1,.31.221,4.239,4.239,0,0,1,0,.437c0,.583-.016,1.168-.021,1.751,0,.084-.032.178.086.259.143-.014.228-.143.332-.232.535-.469,1.07-.936,1.592-1.426a3.211,3.211,0,0,1,1.532-.8,5.725,5.725,0,0,1,4.087.483,3.507,3.507,0,0,1,1.8,2.109,7.51,7.51,0,0,1,.228,1.123,16.391,16.391,0,0,1,.08,2.512c-.029,1.514-.052,3.031-.059,4.539,0,.473.057.945.093,1.426a.811.811,0,0,0,.7.8,4.788,4.788,0,0,0,.649.075,6.83,6.83,0,0,1,.863,0Z" transform="translate(-342.493 -286.385)" fill="#eaeaea"/>
    <path id="Path_1230" data-name="Path 1230" d="M1054.675,413.318h.865a3.24,3.24,0,0,1,.056.366c.016.455.025.911.034,1.367a1.046,1.046,0,0,0,.512.913,5.775,5.775,0,0,0,4.6.85,2.967,2.967,0,0,0,1.587-1.014,2.318,2.318,0,0,0,.535-1.94,1.74,1.74,0,0,0-.954-1.325,6.615,6.615,0,0,0-1.656-.535c-.924-.21-1.847-.423-2.766-.651a6.693,6.693,0,0,1-.929-.317,4.025,4.025,0,0,1-.674-.357,2.852,2.852,0,0,1-1.312-2.227,4.083,4.083,0,0,1,2.675-4.313,6.578,6.578,0,0,1,1.917-.417,10.519,10.519,0,0,1,4.8.779,13.57,13.57,0,0,1-.082,1.672c-.029.535-.014,1.086-.064,1.624a2.179,2.179,0,0,1-.8.023,1.156,1.156,0,0,1-.114-.647,2,2,0,0,0-1.163-1.836,4.3,4.3,0,0,0-3.274-.44,2.424,2.424,0,0,0-1.205.713,2.159,2.159,0,0,0-.471,2.238,1.46,1.46,0,0,0,.772.881,6.938,6.938,0,0,0,1.545.535c.815.194,1.637.357,2.452.551.478.112.954.241,1.427.391a2.759,2.759,0,0,1,1.951,2.352,4.075,4.075,0,0,1-1.1,3.578,5.8,5.8,0,0,1-3.368,1.783,10.373,10.373,0,0,1-3.21.032c-.7-.1-1.4-.242-2.1-.371a2.993,2.993,0,0,1-.371-.1c-.333-.107-.385-.178-.332-.513a21.418,21.418,0,0,0,.226-2.778C1054.693,413.911,1054.675,413.64,1054.675,413.318Z" transform="translate(-844.828 -286.769)" fill="#eaeaea"/>
    <path id="Path_1231" data-name="Path 1231" d="M596.706,413.323a2.829,2.829,0,0,1,.831,0c.014.132.034.253.037.376.011.419.011.838.025,1.259a1.266,1.266,0,0,0,.683,1.105,6.014,6.014,0,0,0,4.042.838,3.032,3.032,0,0,0,2.163-1.351,2.253,2.253,0,0,0,.357-1.722,1.766,1.766,0,0,0-.923-1.286,6.172,6.172,0,0,0-1.651-.556c-.941-.214-1.885-.422-2.819-.663a6.194,6.194,0,0,1-1.177-.435,2.9,2.9,0,0,1-1.722-2.649,4.037,4.037,0,0,1,2.51-4.047,6.338,6.338,0,0,1,2.011-.485,10.258,10.258,0,0,1,4.862.783c0,.016.018.032.025.048a.125.125,0,0,1,.016.052q-.094,1.581-.191,3.156a1.351,1.351,0,0,1-.836.016c-.014-.169-.039-.346-.041-.524a2.111,2.111,0,0,0-1.248-1.961,4.252,4.252,0,0,0-3.229-.389,2.293,2.293,0,0,0-1.683,1.573,2.236,2.236,0,0,0-.027,1.189,1.482,1.482,0,0,0,.854,1.07,7.429,7.429,0,0,0,1.127.414c.776.2,1.56.357,2.341.551q.877.209,1.749.44a2.937,2.937,0,0,1,2.188,2.821,4.209,4.209,0,0,1-1.362,3.388,5.8,5.8,0,0,1-3.133,1.562,10.32,10.32,0,0,1-3.268.03c-.685-.1-1.364-.235-2.045-.357a3.289,3.289,0,0,1-.526-.148.3.3,0,0,1-.223-.382,20.086,20.086,0,0,0,.246-3.541A.815.815,0,0,1,596.706,413.323Z" transform="translate(-451.682 -286.763)" fill="#eaeaea"/>
    <path id="Path_1232" data-name="Path 1232" d="M985.086,378.315c0-1.48-.018-2.953-.1-4.447a9.624,9.624,0,0,1,1.223-.588c.391-.194.786-.382,1.214-.588l.38.266c-.109,1.765-.189,3.511-.23,5.294a2.273,2.273,0,0,0,.375.059c1.113-.02,2.223-.046,3.336-.071h.3a10.789,10.789,0,0,1-.123,1.448c-.121.012-.225.034-.326.034l-3.01.009c-.161,0-.323.011-.517.018a3.15,3.15,0,0,0-.036.333q0,3.364.011,6.729c0,.4.052.8.087,1.2a1.69,1.69,0,0,0,2.295,1.5,2.539,2.539,0,0,0,.551-.234c.161-.084.308-.193.478-.3.214.089.31.278.44.469a8.614,8.614,0,0,1-.59.733c-.21.251-.426.5-.635.753a.823.823,0,0,1-.4.274,4.912,4.912,0,0,1-2.7.116,2.949,2.949,0,0,1-1.07-.515,2.247,2.247,0,0,1-.877-1.4,6.436,6.436,0,0,1-.105-1.305q.014-3.775.029-7.549c0-.2-.012-.394-.02-.615a4.831,4.831,0,0,0-1.1-.02h-1.118a.858.858,0,0,1-.028-.57C983.57,378.993,984.346,378.729,985.086,378.315Z" transform="translate(-783.33 -260.172)" fill="#eaeaea"/>
    <path id="Path_1233" data-name="Path 1233" d="M690.483,416.872a2.855,2.855,0,0,1,.018.783.805.805,0,0,1-.193.05c-2.364-.123-4.728-.1-7.109-.013a1.89,1.89,0,0,1-.041-.241v-.522a1.247,1.247,0,0,1,.615-.146c.326-.037.653-.064.977-.111.5-.071.585-.157.676-.635a3.6,3.6,0,0,0,.066-.535c.1-2.935.162-5.868.032-8.8-.036-.81-.344-.993-.988-1-.435,0-.87-.014-1.314-.023a1.734,1.734,0,0,1-.041-.833,2.79,2.79,0,0,1,.913-.178,15.78,15.78,0,0,0,3.475-.938c.052-.02.1-.045.152-.062.357-.111.567.055.535.424-.13,1.961-.141,3.935-.168,5.905,0,.583-.027,1.166-.03,1.749,0,1.294,0,2.589.126,3.88.068.736.271.934,1.009,1.05.269.043.535.073.811.114A4.716,4.716,0,0,1,690.483,416.872Z" transform="translate(-526.137 -286.721)" fill="#eaeaea"/>
    <g id="Group_4447" data-name="Group 4447" transform="translate(70.177 69.577)">
      <path id="Path_1234" data-name="Path 1234" d="M86.349,69.582c.078.178.15.319.214.467q3.113,7.234,6.223,14.467,2.193,5.1,4.393,10.2c.137.317.287.631.442.94a4.742,4.742,0,0,0,.332.565,1.783,1.783,0,0,0,1.307.806c.357.043.726.078,1.088.116l.276.03a1.519,1.519,0,0,1,.055.6v.59a1,1,0,0,1-.615.062c-.929-.025-1.86-.08-2.789-.091-2.079-.023-4.158-.03-6.24.075-.4.02-.8,0-1.22,0a4.345,4.345,0,0,1-.029-1.248c.683-.046,1.318-.084,1.952-.134a9.182,9.182,0,0,0,.975-.118.67.67,0,0,0,.581-.92,5.046,5.046,0,0,0-.21-.679C92.244,93.153,91.4,91,90.548,88.831a2.531,2.531,0,0,0-.328-.043H79.165c-.071,0-.144.011-.242.018a1.927,1.927,0,0,0-.128.225c-.69,1.667-1.385,3.332-2.063,5a13.912,13.912,0,0,0-.448,1.35,1.706,1.706,0,0,0-.071.809.592.592,0,0,0,.428.515,7.249,7.249,0,0,0,.906.2c.667.093,1.339.162,2.031.244a4.114,4.114,0,0,1,.041,1.264c-.653.034-1.264-.087-1.879-.082s-1.248-.014-1.86-.018-1.277,0-1.915,0-1.248,0-1.86.029-1.234.061-1.863.093a4.173,4.173,0,0,1-.037-1.212c.143-.118.294-.077.433-.087.472-.039.945-.071,1.416-.116a1.248,1.248,0,0,0,.984-.615c.164-.262.317-.535.455-.809,1.3-2.63,2.505-5.308,3.689-7.993q2.623-5.955,5.253-11.909c.843-1.918,1.674-3.844,2.412-5.805.037-.1.084-.2.134-.312Zm-1.583,5.563c-.2.128-.223.323-.291.485Q83.1,78.9,81.729,82.181c-.612,1.462-1.227,2.922-1.835,4.386-.064.155-.2.308-.112.5.546.073,5.9.1,9.519.046.125,0,.25-.02.369-.03.011-.057.034-.1.021-.127Q87.235,81.051,84.766,75.145Z" transform="translate(-70.177 -69.577)" fill="#eaeaea"/>
      <path id="Path_1235" data-name="Path 1235" d="M861.626,140.336l-1.145,1.036-.449-.15a.749.749,0,0,1-.038-.178c.05-.654.114-1.309.152-1.961s.078-1.348.08-2.022c0-3.557.014-7.114,0-10.671,0-1.248-.077-2.478-.127-3.718a3.961,3.961,0,0,0-.095-.649c-.073-.357-.178-.456-.551-.5-.325-.036-.654-.03-.983-.05a1.635,1.635,0,0,1-.713-.07v-.729c.191-.036.367-.077.535-.1a15.9,15.9,0,0,0,3.981-.929c.526-.21.66.089.653.456a6.632,6.632,0,0,1-.082.815,17.341,17.341,0,0,0-.125,2.457q-.01,3.147-.012,6.292c0,.125.011.251.016.357.123.078.178,0,.244-.062.4-.4.808-.792,1.193-1.207a4.944,4.944,0,0,1,3.359-1.508,5.157,5.157,0,0,1,1.737.143A5.015,5.015,0,0,1,873,131.072a7.681,7.681,0,0,1-.251,4.939,10.077,10.077,0,0,1-.446,1,5.194,5.194,0,0,1-1.59,1.919c-.891.64-1.77,1.285-2.66,1.922a4.01,4.01,0,0,1-2.418.738,11.253,11.253,0,0,1-1.364-.068,5.1,5.1,0,0,1-2.122-.829C862,140.584,861.833,140.479,861.626,140.336Zm1.1-5.349h0v2.853a1.2,1.2,0,0,0,.431.963,4.635,4.635,0,0,0,3.111,1.286,3.766,3.766,0,0,0,3.4-1.828,6.62,6.62,0,0,0,.838-1.95,8.882,8.882,0,0,0,.194-2.988,5.765,5.765,0,0,0-.515-2,3.635,3.635,0,0,0-2.095-1.972,4.2,4.2,0,0,0-4.739,1.319,2.447,2.447,0,0,0-.631,1.647c.014.891.007,1.785.007,2.678Z" transform="translate(-746.183 -112.484)" fill="#eaeaea"/>
      <path id="Path_1236" data-name="Path 1236" d="M638.777,186.556a1.856,1.856,0,0,1-.034.849c-.5-.018-.984-.039-1.471-.052s-.984-.021-1.478-.027-.949,0-1.426,0-.986,0-1.478.02-.977.036-1.473.053a1.9,1.9,0,0,1-.036-.79,1.69,1.69,0,0,1,.6-.052c.326-.021.658-.012.979-.066.567-.094.724-.264.752-.826.052-1.02.1-2.042.109-3.061.009-2.043-.011-4.087-.023-6.13a3.755,3.755,0,0,0-.055-.6.535.535,0,0,0-.5-.492c-.271-.027-.535-.064-.815-.075-.326-.012-.654,0-.995,0a1.4,1.4,0,0,1-.022-.827c.3-.048.581-.1.868-.141a13.681,13.681,0,0,0,3.209-.881,4.184,4.184,0,0,1,.517-.178.246.246,0,0,1,.308.226,3.061,3.061,0,0,1,0,.382c-.009.6-.021,1.2-.029,1.806,0,.071.012.143.025.26a1.074,1.074,0,0,0,.241-.114c.5-.432,1.016-.84,1.471-1.311a3.965,3.965,0,0,1,2.58-1.17,5.834,5.834,0,0,1,2.945.43,4.258,4.258,0,0,1,1.383.963,3.564,3.564,0,0,1,.915,1.835,9.919,9.919,0,0,1,.178,1.961c0,.949-.036,1.9-.045,2.853-.011,1-.02,2.008-.009,3.01,0,.437.057.874.094,1.309a.81.81,0,0,0,.713.779,3.883,3.883,0,0,0,.6.062c.271.011.544,0,.833,0a1.662,1.662,0,0,1,.025.84,41.1,41.1,0,0,0-4.967,0,2.7,2.7,0,0,1-.031-.373c.043-.765.095-1.53.139-2.293.111-1.9.1-3.792.08-5.69a9.326,9.326,0,0,0-.126-1.36,2.76,2.76,0,0,0-1.8-2.229,4.133,4.133,0,0,0-4.363.883,2.363,2.363,0,0,0-.76,1.589c-.025.674-.077,1.348-.077,2.022,0,1.715.013,3.43.027,5.146,0,.253.041.508.064.761a.6.6,0,0,0,.464.551,4.375,4.375,0,0,0,.856.148C638.067,186.574,638.388,186.556,638.777,186.556Z" transform="translate(-551.859 -158.579)" fill="#eaeaea"/>
      <path id="Path_1237" data-name="Path 1237" d="M766.932,187.628a4.253,4.253,0,0,1-.041-1.205,6.589,6.589,0,0,0-.07-1.237c-.118.075-.21.123-.291.178-.843.64-1.692,1.271-2.523,1.926a2.822,2.822,0,0,1-1.872.637,5.816,5.816,0,0,1-1.836-.232,3,3,0,0,1-2.14-2.7,4.825,4.825,0,0,1,.189-2,4.075,4.075,0,0,1,2.5-2.662,13.757,13.757,0,0,1,2.318-.64c1.141-.237,2.288-.451,3.432-.676.07-.014.137-.039.232-.066a2.357,2.357,0,0,0,.035-.314,4.744,4.744,0,0,0-.235-1.4,2.871,2.871,0,0,0-1.878-1.922,4.535,4.535,0,0,0-3.566.234.892.892,0,0,0-.5.535c-.153.448-.34.892-.515,1.325-.039.1-.089.191-.144.3a3.943,3.943,0,0,1-.792-.216v-1.977s.068-.043.132-.077c.767-.423,1.519-.87,2.3-1.262a6.388,6.388,0,0,1,4.529-.419,4.072,4.072,0,0,1,1.248.535,3.463,3.463,0,0,1,1.712,2.662c.089.981.139,1.961.168,2.947.041,1.458.043,2.919.068,4.377,0,.437.037.875.057,1.312a1.85,1.85,0,0,0,.02.328c.057.5.262.7.779.735.218.014.437,0,.656,0,.143,0,.285.016.444.025a2.467,2.467,0,0,1,.023.906c-.5.037-.989-.046-1.474-.043s-.986-.011-1.478,0S767.435,187.609,766.932,187.628Zm-.118-7.71a1.343,1.343,0,0,0-.253,0,26.759,26.759,0,0,0-3.527.965,8.2,8.2,0,0,0-1.048.462,2.382,2.382,0,0,0-1.214,1.6,3.451,3.451,0,0,0-.057,1.41,2.111,2.111,0,0,0,2.074,1.822,3.955,3.955,0,0,0,2.088-.535,6.908,6.908,0,0,0,1.82-1.635.876.876,0,0,0,.178-.612q-.013-1.639-.021-3.281A1.431,1.431,0,0,0,766.815,179.919Z" transform="translate(-660.666 -158.819)" fill="#eaeaea"/>
      <path id="Path_1238" data-name="Path 1238" d="M527.871,187.883a6.147,6.147,0,0,1-2.154-.287,5.936,5.936,0,0,1-3.762-3.422,8.262,8.262,0,0,1-.444-5.41,6.578,6.578,0,0,1,5.117-4.992,7.959,7.959,0,0,1,4.636.178,5.923,5.923,0,0,1,4.076,4.786,8.272,8.272,0,0,1-.146,3.794,7.117,7.117,0,0,1-4.844,5,6.749,6.749,0,0,1-2.478.348Zm4.844-6.429a11.95,11.95,0,0,0-.212-2.284,7.367,7.367,0,0,0-.975-2.594,3.887,3.887,0,0,0-3.71-1.961,3.532,3.532,0,0,0-3.209,2.179,6.033,6.033,0,0,0-.535,2.163,11.75,11.75,0,0,0,.141,2.778,8.744,8.744,0,0,0,1.164,3.159,3.807,3.807,0,0,0,3.12,1.935,3.519,3.519,0,0,0,3.138-1.325,4.255,4.255,0,0,0,.776-1.555,9.523,9.523,0,0,0,.3-2.494Z" transform="translate(-457.344 -158.777)" fill="#eaeaea"/>
      <path id="Path_1239" data-name="Path 1239" d="M1052.026,180.241a8.848,8.848,0,0,1-1.491.278,26.916,26.916,0,0,1-2.842.119c-1.6.014-3.209.018-4.814.025h-.508a1.727,1.727,0,0,0-.054.344,7.4,7.4,0,0,0,.535,2.555,4.55,4.55,0,0,0,4,2.878,6.643,6.643,0,0,0,4.076-.99c.178-.1.344-.191.5-.273.167.078.255.178.205.319-.112.326-.237.651-.357.975-.057.153-.2.207-.324.276a10.41,10.41,0,0,1-2.5.97,9.555,9.555,0,0,1-3.261.225,6.026,6.026,0,0,1-5.4-4.572,9.818,9.818,0,0,1-.246-3.149,8.467,8.467,0,0,1,.629-2.7,4.83,4.83,0,0,1,1.487-2,8.824,8.824,0,0,1,3.494-1.742,6.272,6.272,0,0,1,3.609.205,4.765,4.765,0,0,1,3.14,3.58,7.59,7.59,0,0,1,.162,2.5A.931.931,0,0,1,1052.026,180.241Zm-2.652-.7a6.751,6.751,0,0,0-.357-2.91,2.852,2.852,0,0,0-1.672-1.694,3.817,3.817,0,0,0-1.769-.239,3.045,3.045,0,0,0-1.664.617,3.6,3.6,0,0,0-1.268,1.927,8.332,8.332,0,0,0-.3,2.156c0,.03.029.062.057.123.087.012.191.034.3.039,2.02.112,4.04.111,6.062.055a5.477,5.477,0,0,0,.608-.075Z" transform="translate(-902.204 -158.868)" fill="#eaeaea"/>
      <path id="Path_1240" data-name="Path 1240" d="M984.594,140.545a2.086,2.086,0,0,1-.023.8c-2.375-.112-4.739-.084-7.12.014a1.436,1.436,0,0,1-.041-.808,3.616,3.616,0,0,1,.929-.134c.253-.027.506-.057.756-.1a.626.626,0,0,0,.549-.649c.037-.747.105-1.494.107-2.239q.011-6.786,0-13.574c0-.492-.016-.986-.054-1.476-.041-.555-.137-.658-.686-.735-.3-.043-.619-.027-.927-.039a2.535,2.535,0,0,1-.667-.043,1.858,1.858,0,0,1,.018-.82l1.575-.23a12.317,12.317,0,0,0,2.945-.8,1.617,1.617,0,0,1,.152-.064.274.274,0,0,1,.372.267c0,.146,0,.292-.014.437-.132,2.075-.207,4.154-.209,6.24v9.628q0,1.177.037,2.354c.011.382.068.763.087,1.145a.562.562,0,0,0,.5.565c.321.066.647.1.974.139a2.777,2.777,0,0,1,.744.127Z" transform="translate(-848.856 -112.534)" fill="#eaeaea"/>
      <path id="Path_1241" data-name="Path 1241" d="M391.211,149.92c-.776-.039-1.5.059-2.255.039-.012-.111-.027-.2-.029-.282a2.077,2.077,0,0,1,.014-.3l2.211-.974a1.07,1.07,0,0,0,.077-.622c-.025-1.095-.061-2.188-.089-3.281v-.635l2.427-1.139.357.253c-.048.891-.109,1.783-.144,2.674s-.048,1.744-.071,2.633a6.061,6.061,0,0,0,1.33.054c.437,0,.875-.011,1.312-.021s.868-.027,1.328-.041a2.1,2.1,0,0,1,0,.713c-.018.235-.061.469-.1.724-.139.012-.262.034-.387.034h-3.01c-.141,0-.284.021-.439.032a3.135,3.135,0,0,0-.039.346c0,2.263,0,4.523.021,6.786a9.06,9.06,0,0,0,.1,1.248,1.69,1.69,0,0,0,2.3,1.36,2.434,2.434,0,0,0,.824-.421,2.148,2.148,0,0,1,.191-.109,1.486,1.486,0,0,1,.433.464c-.114.143-.221.285-.335.423-.292.357-.587.7-.877,1.048a.826.826,0,0,1-.392.283,4.873,4.873,0,0,1-2.8.1,3.336,3.336,0,0,1-.749-.328,2.275,2.275,0,0,1-1.18-1.976c-.036-.674-.021-1.35-.02-2.024q0-3.366.012-6.733C391.233,150.167,391.222,150.082,391.211,149.92Z" transform="translate(-343.767 -132.361)" fill="#eaeaea"/>
      <path id="Path_1242" data-name="Path 1242" d="M307.149,174.485l-.4,3.835a2.674,2.674,0,0,1-.813.023c-.02-.13-.046-.25-.055-.369-.021-.328-.032-.656-.055-.982a1.3,1.3,0,0,0-.713-1.093,5.379,5.379,0,0,0-2.116-.688,5.49,5.49,0,0,0-1.9.095,3.4,3.4,0,0,0-2.4,1.983,5.006,5.006,0,0,0-.423,1.635,9.907,9.907,0,0,0,.205,3.316,6.476,6.476,0,0,0,1.175,2.446,4.566,4.566,0,0,0,3.9,1.829,7,7,0,0,0,2.552-.535l.681-.287.357.289a.631.631,0,0,1-.039.178c-.606.945-.342.768-1.385,1.216a7.91,7.91,0,0,1-3.138.649,9.238,9.238,0,0,1-2.225-.214,5.732,5.732,0,0,1-4.379-4.217,8.378,8.378,0,0,1-.3-2.924,7.827,7.827,0,0,1,.579-2.657,5.336,5.336,0,0,1,2.043-2.434,17.59,17.59,0,0,1,2.755-1.45,7.175,7.175,0,0,1,3.439-.424,7.04,7.04,0,0,1,2.364.633A2.515,2.515,0,0,1,307.149,174.485Z" transform="translate(-263.713 -158.911)" fill="#eaeaea"/>
      <path id="Path_1243" data-name="Path 1243" d="M465.427,186.857v.806a12.727,12.727,0,0,1-1.478-.03c-.474,0-.949-.014-1.426-.018s-.986,0-1.478,0-.949,0-1.426.018-.979.034-1.475.052a1.6,1.6,0,0,1-.057-.772,1.426,1.426,0,0,1,.638-.146c.344-.039.69-.07,1.032-.121.374-.057.556-.207.588-.6.025-.291.077-.579.084-.87.03-1.259.037-2.518.075-3.775.046-1.514-.011-3.031-.054-4.54a3.922,3.922,0,0,0-.037-.546.653.653,0,0,0-.61-.6,3.7,3.7,0,0,0-.546-.032h-1.1a1.6,1.6,0,0,1-.073-.84,2.141,2.141,0,0,1,.357-.111,16.193,16.193,0,0,0,4.069-1.029,1.569,1.569,0,0,1,.205-.077.357.357,0,0,1,.469.369,2.264,2.264,0,0,1-.016.328c-.112,1.548-.111,3.1-.139,4.648-.021,1.095-.061,2.188-.055,3.282,0,1,.055,2.006.1,3.008a4.388,4.388,0,0,0,.109.756.642.642,0,0,0,.5.535c.357.078.713.141,1.07.205C464.972,186.789,465.186,186.819,465.427,186.857Z" transform="translate(-403.121 -158.869)" fill="#eaeaea"/>
      <path id="Path_1244" data-name="Path 1244" d="M473.7,127.9a1.621,1.621,0,0,1,1.615,1.653A1.644,1.644,0,1,1,473.7,127.9Z" transform="translate(-415.092 -119.638)" fill="#eaeaea"/>
    </g>
    <g id="Group_4448" data-name="Group 4448" transform="translate(151.823 103.821)">
      <path id="Path_1245" data-name="Path 1245" d="M747.811,383.081a.151.151,0,0,0-.039.05A.053.053,0,0,0,747.811,383.081Z" transform="translate(-733.423 -372.911)" fill="#eaeaea"/>
      <path id="Path_1246" data-name="Path 1246" d="M746.85,383.432c-.036.009-.084,0-.105.041-.028,0,0-.057-.045-.034-.02.055.071.068.153.037h0a.038.038,0,0,1,0-.044Z" transform="translate(-732.502 -373.212)" fill="#eaeaea"/>
      <path id="Path_1247" data-name="Path 1247" d="M747.849,383.748l.014.012A.034.034,0,0,0,747.849,383.748Z" transform="translate(-733.49 -373.484)" fill="#eaeaea"/>
      <path id="Path_1248" data-name="Path 1248" d="M735.219,388.583a.108.108,0,0,0-.043.018A.112.112,0,0,0,735.219,388.583Z" transform="translate(-722.607 -377.634)" fill="#eaeaea"/>
      <path id="Path_1249" data-name="Path 1249" d="M755.749,377.3a.081.081,0,0,0-.011-.02Z" transform="translate(-740.263 -367.93)" fill="#eaeaea"/>
      <path id="Path_1250" data-name="Path 1250" d="M660.3,365.422Z" transform="translate(-658.352 -357.752)" fill="#eaeaea"/>
      <path id="Path_1251" data-name="Path 1251" d="M701.928,345.062Z" transform="translate(-694.071 -340.277)" fill="#eaeaea"/>
      <path id="Path_1252" data-name="Path 1252" d="M670.06,355.031l-.013.011C670.052,355.052,670.056,355.045,670.06,355.031Z" transform="translate(-666.71 -348.834)" fill="#eaeaea"/>
      <path id="Path_1253" data-name="Path 1253" d="M725.817,390.624a.038.038,0,0,0,0,.012.033.033,0,0,0,0-.012Z" transform="translate(-714.573 -379.384)" fill="#eaeaea"/>
      <path id="Path_1254" data-name="Path 1254" d="M758.752,372.228v.036a.072.072,0,0,0,0-.036Z" transform="translate(-742.849 -363.595)" fill="#eaeaea"/>
      <path id="Path_1255" data-name="Path 1255" d="M728.626,390.061l.012-.011Z" transform="translate(-716.991 -378.892)" fill="#eaeaea"/>
      <path id="Path_1256" data-name="Path 1256" d="M655.8,371.818V371.8A.032.032,0,0,0,655.8,371.818Z" transform="translate(-654.482 -363.235)" fill="#eaeaea"/>
      <path id="Path_1257" data-name="Path 1257" d="M758.788,374.8v.021C758.788,374.829,758.793,374.8,758.788,374.8Z" transform="translate(-742.879 -365.805)" fill="#eaeaea"/>
      <path id="Path_1258" data-name="Path 1258" d="M668.8,342.934a8.7,8.7,0,0,0-2.96-1.1c.052.032-.014.053-.068.052l-.011-.02-.089.029c-.078-.009-.036-.057.03-.053-.415-.075-.79-.1-1.195-.153-.032.061-.212-.016-.232.052-.018-.014,0-.016.012-.029a.992.992,0,0,1-.556-.077,12.545,12.545,0,0,0-3.243.216,9.272,9.272,0,0,0-3.1,1.236c-.1.178-.323.278-.432.478v-.032c-.109.148-.178.13-.371.267.023.027-.057.068.009.086-.018.091-.159.048-.218.153-.018-.011.029.02,0,.029-.128.284,0-.075-.269.21a2.655,2.655,0,0,0-.357,1.6c0-.027.039-.037.047.009-.089.07.054.178.045.273-.021,0-.039-.045-.053-.068a2.416,2.416,0,0,0,.232.64c.139.178.225.414.357.49-.052,0,.041.089.059.135.178.032.268.319.465.378l-.018.011a5.028,5.028,0,0,0,1.5.84,4.628,4.628,0,0,0,.95.39c.066,0,.025-.034.077-.028.084.027-.011.032.018.055a3.69,3.69,0,0,1,.59.166c.028-.012.089,0,.075-.036.216.13.554.095.785.178-.068-.112.15-.027.237-.039.046.011.048.036.032.053a2.526,2.526,0,0,1,.487.075c.1,0,.134-.052.251-.025.068.075.25.025.366.055-.025-.061.127-.1.241-.066l-.039.082a7.067,7.067,0,0,0,1.351-.057l.034.046a7.418,7.418,0,0,0,1.316-.209,1.863,1.863,0,0,0,.421-.023.853.853,0,0,0,.3-.16.164.164,0,0,1,.125.029c.2-.029.4,0,.535-.121l.016.037a1.37,1.37,0,0,1,.535-.2c.036-.05.2-.118.109-.139.064-.029.066.053.118-.012l-.045.078a4.408,4.408,0,0,0,1.022-.467c.134.016.325-.178.535-.253.089-.1.308-.178.335-.307l.028.029c.144-.1.328-.241.506-.387.105-.086.061-.128.114-.219l.036.023a.279.279,0,0,0,.021-.226c.075-.05.061-.073.13-.128a.583.583,0,0,0-.032.246c.107-.1.1-.28.2-.316.07-.093.105-.178.068-.218.016,0,.052-.048.048,0a.445.445,0,0,0,.055-.194c0,.016-.021.037-.028.055-.02-.055,0-.137-.055-.141,0,.046.011.054-.016.1a.189.189,0,0,1,.055-.2c.057-.029.036.118.084.061a1.954,1.954,0,0,0-.038-.23c0,.046-.039.089-.068.062v.095l-.043-.018c-.032.15-.112.228-.155.383l.07-.032c-.043.082-.034.2-.13.242.011-.045-.027-.032-.048-.045a.077.077,0,0,1-.023.068l-.03-.059c.032.091-.127.207-.139.244v-.02c-.114.082.052.011-.011.082s-.084-.032-.155,0c-.086.1-.223.307-.382.357a3.585,3.585,0,0,0-.253.284c-.093.064-.039-.07-.114.021,0-.029-.034-.045-.055-.061,0,.032-.178.105-.066.118-.144.073-.307.157-.451.246.048-.03.039-.082-.014-.082a.566.566,0,0,1-.3.214c.023.046.066.025.073.077-.016.016-.039.052-.073.062-.041-.039-.068-.116-.178-.068,0-.091.205-.077.118-.128a.392.392,0,0,1,.291-.178c.066-.116-.082.034-.094-.039-.089.046-.114.1-.255.178.012.034.064.018,0,.073-.1.123-.178.023-.216.032.016-.016.041-.029.057-.045-.094.014-.107.068-.2.1-.059-.078.143-.066.155-.135l-.091-.037c-.143.046-.009.087-.164.121v-.037l-.084.053a.08.08,0,0,0,.125.041c-.02.105-.068.039-.187.1-.023.064.052-.023.071.025s-.059.073-.12.1c-.105.036-.071-.036-.125-.055.018-.014.1-.048.1-.016.11-.1-.091-.082-.014-.148-.105,0-.084.061-.128.093.03,0,0,.055.028.066-.13.187-.141-.061-.3.011.062.077-.189.178-.039.246a.271.271,0,0,1-.126.064c.028-.071-.087-.027-.023-.1l-.062.016.073-.095c-.078-.021-.2-.034-.244-.053-.082.05.041.05-.057.091.029-.041-.041-.05-.085-.037.1,0,.021.084-.034.112-.091.021-.178-.02-.166-.036l.064-.059c-.041.036-.027-.025-.086,0-.012.037-.043.1-.057.144-.055.027-.105-.011-.125,0l.086-.055c-.118.037-.045-.086-.164-.039l-.023.054c-.02,0-.034-.014-.03-.03-.023.025-.08.032-.105.048l-.014-.03c-.048.029-.1.109-.178.061.062.066.064-.011.159,0,.066.046-.08.068-.1.078,0-.082-.135.016-.2.025a.859.859,0,0,0-.1-.046l-.018.057c-.037-.1-.123.043-.2.02.032-.037.023-.077-.03-.086.078.07-.1.109-.073.159-.134-.012.02-.1-.025-.152-.057.068-.148-.023-.178.059.1.016-.009.052-.027.086-.119,0,.016-.036-.069-.055-.048.016-.109.082-.029.1-.071-.011-.143.071-.225.029-.036-.046.144-.034.1-.064-.166,0-.073.127-.226.152.068.021.011.112-.064.146-.178-.011.073-.034,0-.093l-.068.014c-.1-.078.194-.152.1-.216l-.071.034c.014-.025.036-.07,0-.091-.014.062-.178.025-.178.037-.013.052.059-.016.048.023-.077.016-.109.1-.232.075.064-.037-.027-.068,0-.1-.059-.02-.016.061-.1.034v-.03a2.846,2.846,0,0,0-.975.109c-.048-.05-.148-.059-.3-.105.068.02,0,.052-.041.055l-.071-.064a.478.478,0,0,0-.3.028.073.073,0,0,1-.02-.044c-.077-.046-.087.025-.12.034l-.048-.046-.016.039c-.084.013-.191-.009-.178-.073-.032,0-.066.016-.029.041a1.164,1.164,0,0,0-.442-.08c.066.028.057.046.055.087-.032.064-.03-.02-.094.011,0-.025-.059-.062.014-.07a2.921,2.921,0,0,0-.692-.178c-.05,0-.039.016-.066.027-.134-.1-.335-.077-.487-.152.029.037-.045.1-.135.077-.114.027-.018-.086-.094-.146a.357.357,0,0,1-.168-.021v-.009a.251.251,0,0,1-.2-.046h.011c-.05-.023-.1-.078-.152-.091-.043.043-.159-.041-.209,0v-.023l-.021.041-.094-.066c.028,0,.043-.023.077-.023-.1-.073-.053.025-.121.021s-.068-.043-.1-.077c.041,0,.052.034.075.036.057-.016-.041-.034-.032-.059s-.045.039-.1,0-.164-.068-.13-.105c-.052,0-.1-.023-.139-.018.036.027.1.073.1.105-.039-.011-.116-.032-.116-.057h.034c-.034,0-.13-.068-.1,0l-.043-.095c-.045.02-.118-.02-.178-.046.023-.046.1-.07,0-.141l-.118-.009c-.052-.023-.057-.041-.034-.064-.144-.125-.244.014-.342-.112.087-.012.046-.046,0-.1a.041.041,0,0,1-.05,0c0,.034.057-.011.077.052,0,.039-.066-.016-.1-.023-.028-.178-.33-.3-.433-.5-.043.061-.078-.055-.127-.068.064-.039-.089-.08-.087-.155l-.039.071c-.048-.125-.218-.109-.191-.223-.02-.075.059,0,.087.009.014-.121-.193-.193-.143-.3-.03,0-.062.052-.125-.016,0-.078,0-.218.016-.209-.027-.05-.055-.059-.043-.123.021,0,.029.025.043.041a.647.647,0,0,0-.084-.244c.05-.055.018-.219.062-.321-.061-.07.053-.166-.03-.193,0,0,.023,0,.03-.011-.014-.045-.064-.094-.052-.148l.05.034c.064.032.064-.114.1-.134-.05.012.028-.057,0-.078l.009-.064c.028-.1-.023-.023.032-.139.032-.064.071.014.053.032a.311.311,0,0,0,.1-.159.21.21,0,0,0,.044-.053l.013-.016a.091.091,0,0,1,.041-.034l.027.043a.286.286,0,0,0,.045-.178,2.887,2.887,0,0,0,.4-.424c-.013.025,0,.039,0,.011.039-.048.071-.119.094-.1.036-.052.064-.009.139-.061a.031.031,0,0,0-.021-.03c.159-.041.262-.237.446-.3-.013.011-.018.045-.023.066a2.263,2.263,0,0,0,.312-.285c0,.025.01.041-.014.068a.515.515,0,0,0,.212-.169c-.071.011,0,.025-.036.043-.084,0,.016-.1.082-.119h0c.091-.046.086-.068.178-.109.068,0-.045.034-.009.05.052.059.23-.048.255-.046s.045-.048.032-.066c.068-.046.05.029.1,0,.05-.071.105-.135.159-.2,0,.021.087.036.034.082a1.017,1.017,0,0,0,.3-.25,2.489,2.489,0,0,0,.253-.1c.037.028-.046.011-.05.043l.094.021c-.105.037.032.064-.018.109a1.447,1.447,0,0,1,.421-.1c-.111-.062.164-.082.143-.152.15-.048.089.043.152.046a2.707,2.707,0,0,1,.453-.1.016.016,0,0,1,0,.016,2.135,2.135,0,0,0,.476-.144c0,.016.011.028-.023.046.148,0,.014-.1.187-.077l-.034.043c.1-.048.205.011.319-.061,0,.02-.02.029-.036.041a1.025,1.025,0,0,0,.319-.089c.016.023,0,.046-.037.066.11.02.112-.077.212-.059a.115.115,0,0,1,.07.03,1.01,1.01,0,0,1,.248-.059c.014.023.055.032.118.055.535-.021,1.1,0,1.639-.027.084.082-.13.039-.075.1,0-.066.093-.014.257-.02v.011c.071,0,.107.037.178.025v-.018c.084-.034.166.1.218.025l.055.054c.087-.064.121.041.225-.009l-.012.011c.125.05.282-.041.321.029.112,0,.241.014.273-.037a.053.053,0,0,1-.021.073c.415.046.865.178,1.248.207.014.018-.011.02-.025.029.244,0,.43.214.635.153l.077-.029c.045.041.027.073.059.107.057-.018.2.073.246.039.014.03-.021.021-.027.037.094.052.241.032.326.093H668.2c.455.31.974.736,1.369.952.1.07-.012.089.03.121.4.255.574.788.8,1.152a.891.891,0,0,0,.266.437,3.5,3.5,0,0,0-1.118-2.182A4.317,4.317,0,0,1,668.8,342.934Zm-12.263,1.64a.021.021,0,0,0,.021,0c-.016.02-.025.025-.021,0Zm.021,0a.4.4,0,0,1,.032-.064h0a.241.241,0,0,1-.036.061Zm.077-.139a.11.11,0,0,1,.023-.043Z" transform="translate(-654.419 -337.311)" fill="#eaeaea"/>
      <path id="Path_1259" data-name="Path 1259" d="M693.535,396.2h-.055Z" transform="translate(-686.823 -384.161)" fill="#eaeaea"/>
      <path id="Path_1260" data-name="Path 1260" d="M657.475,377.591h0l-.036-.041a.132.132,0,0,0,.036.041Z" transform="translate(-655.885 -368.157)" fill="#eaeaea"/>
      <path id="Path_1261" data-name="Path 1261" d="M647.4,323.988v-.011Z" transform="translate(-647.265 -322.178)" fill="#eaeaea"/>
      <path id="Path_1262" data-name="Path 1262" d="M658.957,334.692Z" transform="translate(-657.184 -331.376)" fill="#eaeaea"/>
      <path id="Path_1263" data-name="Path 1263" d="M659.649,334.791Z" transform="translate(-657.785 -331.461)" fill="#eaeaea"/>
      <path id="Path_1264" data-name="Path 1264" d="M657.451,333.439Z" transform="translate(-655.895 -330.301)" fill="#eaeaea"/>
      <path id="Path_1265" data-name="Path 1265" d="M647.089,321.676Z" transform="translate(-647.004 -320.2)" fill="#eaeaea"/>
      <path id="Path_1266" data-name="Path 1266" d="M654.381,327.014Z" transform="translate(-653.257 -324.785)" fill="#eaeaea"/>
      <path id="Path_1267" data-name="Path 1267" d="M659.654,334.711h.012C659.67,334.7,659.659,334.708,659.654,334.711Z" transform="translate(-657.788 -331.381)" fill="#eaeaea"/>
      <path id="Path_1268" data-name="Path 1268" d="M657.9,333.619Z" transform="translate(-656.278 -330.456)" fill="#eaeaea"/>
      <path id="Path_1269" data-name="Path 1269" d="M658.108,330.434h.009A.007.007,0,0,0,658.108,330.434Z" transform="translate(-656.461 -327.718)" fill="#eaeaea"/>
      <path id="Path_1270" data-name="Path 1270" d="M646.526,321.824Z" transform="translate(-646.514 -320.332)" fill="#eaeaea"/>
      <path id="Path_1271" data-name="Path 1271" d="M648.812,326.41Z" transform="translate(-648.476 -324.267)" fill="#eaeaea"/>
      <path id="Path_1272" data-name="Path 1272" d="M647.122,324.068s-.018.03,0,.02-.025.02-.021.029a.1.1,0,0,0,.041-.064h0A.084.084,0,0,1,647.122,324.068Z" transform="translate(-647.014 -322.241)" fill="#eaeaea"/>
      <path id="Path_1273" data-name="Path 1273" d="M649.081,326.673Z" transform="translate(-648.708 -324.493)" fill="#eaeaea"/>
      <path id="Path_1274" data-name="Path 1274" d="M646.727,322.717h-.009Z" transform="translate(-646.685 -321.098)" fill="#eaeaea"/>
      <path id="Path_1275" data-name="Path 1275" d="M647.144,324.169a.029.029,0,0,0,.016,0S647.156,324.16,647.144,324.169Z" transform="translate(-647.05 -322.338)" fill="#eaeaea"/>
      <path id="Path_1276" data-name="Path 1276" d="M647.8,323.112c.032-.037.02,0,.036-.011-.036.036.018,0,0,.032l.03-.039c0,.034.071-.036.039.016,0,.018-.027.025-.036.029-.027.048.057,0,.023.043.014-.014.034-.041.055-.046a.1.1,0,0,1-.02.059c-.007,0,.025-.011.02,0a.026.026,0,0,1-.02.009c0,.02.025.011.045,0-.02.034.011.036,0,.061.037-.029,0,.032.048-.011l-.011.014c.016-.009.046-.032.054-.03l-.028.029c-.034.032,0,.021,0,.037.016-.023,0,0,.025-.013h.014c.018,0,.014-.012.03,0s-.028.036-.028.029c0,.021,0,.018.018.018s0,0,0-.009v.009h0a.008.008,0,0,0,0,.009h0a.009.009,0,0,1,0,.011l-.023.021a.135.135,0,0,0,.048-.02c0,.036.045.045.068.043h0c.016-.011.036-.012.021,0,.014,0-.009.021,0,.032l.016-.018c-.011.043.055,0,.054.045l-.025.018a.156.156,0,0,0,.084-.013.18.18,0,0,1-.029.023.034.034,0,0,0,.037,0h0c.013-.027.045-.036.045-.025h0c.011.009.021,0,.032,0s-.011,0-.021.018,0,.043,0,.05a.078.078,0,0,0,.027-.02c.016,0-.016.025-.009.029l.087-.052c-.011,0-.023.039-.045.046.02.009.068-.025.1-.037,0,.011.028.011.034.012s0,0-.018.009l-.013.03c-.012,0-.03.034-.05.043.02,0,.027.029.034.046.03-.05.036,0,.07-.043.021,0-.021.037-.023.05.029,0,.034.025.052.032h0c.023,0,.034.03.077.009,0,0-.012.016-.021.018s.046-.045.041,0l-.021.014c.027,0,0,.034.041.016a.059.059,0,0,1-.021.016c.018,0,.025.016.057,0a.082.082,0,0,1-.032.027c0,.023.041-.023.039,0a.05.05,0,0,1-.011.025c.02-.012.034,0,.045,0a.121.121,0,0,0-.016.039.356.356,0,0,0,.178.116c-.027.044-.034.011-.052.043.029-.032.018,0,.043,0h0c.012,0,0,.023.014.02v-.009c.027-.014-.021.057.02.02l-.016.029c.041-.029,0,.023.037,0h0c0,.029.062-.016.039.018a.059.059,0,0,0,.062-.018.167.167,0,0,1-.036.036c.052.023.089.07.159.064a.049.049,0,0,1-.018.016c.052-.013.011.077.085.027l.03-.02c0,.014-.023.034-.027.046s.025.014.048,0c0,.012-.014.012-.021.02s.052-.012.054,0l-.014.009c0,.091.037.178.134.166.02,0-.029.039-.02.041.087-.009.066.114.178.073.048.009.135-.066.135-.066-.1-.037-.132-.132-.162-.242-.03-.016-.073-.034-.082-.066-.1-.08-.134-.232-.253-.292a.047.047,0,0,1-.034.027v-.011l-.027.014c-.009,0,.018-.029.028-.025a.883.883,0,0,1-.11-.1c-.032.029-.021-.016-.052.014l.014-.013c-.041,0-.043,0-.03-.07a2.269,2.269,0,0,0-.28-.287c-.105-.086-.227-.15-.337-.237-.062.034-.061,0-.12.018l.016-.014c-.036,0-.016-.023-.018-.061-.016.016-.012,0-.036.029s.027-.052,0-.048c0-.011-.016.018-.009,0-.059.011.02-.011.012-.07-.055-.032-.13-.045-.157-.1,0,0-.016.025-.021.021.039-.052-.027,0-.016-.027a.049.049,0,0,1,.021-.011c0-.037-.045-.025-.045-.062-.037,0-.02-.059-.053-.045.02-.016,0-.02.009-.034-.066.045-.018-.052-.068-.029l.009-.009c-.052-.041-.093-.1-.167-.125-.034-.02-.02-.1-.075-.1-.012,0-.02.018-.028.02s.016-.018.02-.027c-.037,0-.032-.037-.052-.055s-.018,0-.029.02c.014-.057-.062-.034-.059-.082-.037.055-.037.014-.055.018s.009-.02.02-.027a.052.052,0,0,1-.039-.048c-.014,0-.041.02-.045,0,.025-.039-.021-.021-.021-.045-.023.032-.059.041-.059.02l.041-.037c-.059,0-.064-.1-.152-.086l.02-.027c-.066-.011-.08-.077-.162-.07a.075.075,0,0,0-.02-.055.146.146,0,0,0-.077.023.055.055,0,0,1,.013-.036c.013-.011,0-.073-.048-.048l.018-.02c-.034,0-.077.013-.073-.025-.021.014-.045,0-.059.036-.011,0,.028-.037,0-.023l.034-.023a.229.229,0,0,0-.125-.073c.021-.045-.037-.029-.039-.066-.03.009-.025-.037-.073,0l.018-.02a.255.255,0,0,1-.046-.066c0-.016-.036.013-.054.014l.018-.02a.241.241,0,0,0-.077.048c0-.021-.009,0,0-.029a.233.233,0,0,0,.075-.043c0-.02-.066.02-.045-.02s-.018-.018-.043,0a.027.027,0,0,1,.021-.025.027.027,0,0,0-.03,0h0a.076.076,0,0,0-.057.041c.011,0,.016-.009.02,0s-.041.012-.027-.011.043-.027.048-.045l-.066.029c.011,0,0,.014-.014.032h.021l-.021.021c.021,0,.011.037.043.032l.016-.029c.009,0,.046-.014.03.02-.011,0-.02.02-.03.032s.016-.009.016,0l-.03.027c.041-.032.034.011.045,0h0c0,.029.018-.023.027-.016s-.036.043-.043.066.064,0,.052.046a.176.176,0,0,0,.071,0c.011,0-.037.037-.011.03a.351.351,0,0,0-.036.041c.014-.012.018.021.041-.021a.078.078,0,0,0,.046.05s-.032.02-.039.037c.03-.016.055-.018.062,0a.666.666,0,0,1,.043-.052s.02-.011.021,0-.059.066-.048.078c-.041.037-.016-.025-.048.02s-.059.009-.046-.014c-.043.023,0,.011-.028.043h.053c.02,0,.014-.023.034-.032.046-.023,0,.041,0,.046h-.016c0,.02.023,0,.03.011-.041.048-.02-.009-.05.016l-.023.039c.011.018.039-.034.043,0l-.018.014h.02c.016-.018.039-.046.027-.05.046-.039.014,0,.034,0s0,0,.016-.029.03-.016.039-.016-.02.034-.032.053-.018,0,0-.016c-.037.014-.043.059-.07.068s.023,0,.037-.009a.1.1,0,0,0,.032-.036c.082-.053-.036.061,0,.064.037-.046.08-.041.112-.1.011,0,.027-.009.025,0-.032.027-.014.03-.048.052h0l-.043.029c-.013.027-.02.057-.03.075.021,0,.025-.032.041-.029-.018.011-.023.03-.02.034s.039-.043.052-.045-.009.041-.018.048l-.025.014c.011,0-.014.018,0,.014l.068-.055c.013,0,0,.023,0,.021l-.027.009c.018,0-.041.048-.018.048l.025-.02a.041.041,0,0,1-.013.02h.023l-.014.016c.014,0,.053-.034.03,0,.03-.043,0,0,0-.03s.032-.018.037-.02c-.037.039.009.016.016.021s-.013.027-.018.037l.027-.025c-.045.052.023,0,.014.021a.1.1,0,0,0-.039.045c.029-.043.055-.037.077-.064,0,.025-.048.046-.069.077.034-.025,0,.032.036,0,0-.02.023-.023.041-.037,0,.014-.018.016-.021.037s.043-.025.046-.041c0,.014.041-.016.027.016s-.023,0-.036.018.062-.052.084-.045a.179.179,0,0,1,.071-.064c0,.025-.02,0-.043.045h.011c-.03.05-.082.05-.105.091h.02a.2.2,0,0,0-.043.043c.028-.029.023,0,.03,0s-.012,0,0-.016.055-.037.052-.011-.029.036-.045.046.029-.029.023,0l-.014.014a.107.107,0,0,0,.146.029c-.018.029-.011.039-.013.071,0-.014.023-.025.03-.025l-.02.036c0,.025.03,0,.052,0l-.018.023c-.009.027.023,0,.032-.011l-.014.023.02-.018c.018,0,.023.011,0,.041a.029.029,0,0,0,.021-.02.038.038,0,0,0,.036.048c0-.016.011-.023.028-.045s0,.009.021,0c-.013.012-.018.032-.032.034-.021.061.036.05.052.08.009,0,.014,0,.023-.014-.018.048.034.029.036.059.011-.018.052-.054.062-.046s-.032.043-.039.068a.032.032,0,0,1,.03,0h0c.02-.011.036-.011.03,0h0v.034c.027-.025.025,0,.05-.016a.035.035,0,0,0,0,.011l.022-.021v.021a.121.121,0,0,1-.028.02c0,.027.023-.016.041-.023s0,.012,0,.025h0c0,.011,0,.011-.014.025s.027-.025.029-.013.021.011,0,.034a.036.036,0,0,0,.032-.011.048.048,0,0,1,.013-.037s.02,0,.011.011h0s.012.014.028-.014l-.021.039c.02-.016.027,0,.037,0-.023.025-.053.048-.048.064l.034-.016a.044.044,0,0,1-.011.023c-.011.014.082-.05.077-.014-.034.023-.03.03-.032.045s.014-.014.018-.012-.023.018-.009,0,.018,0,.025-.009C647.728,323.082,647.8,323.062,647.8,323.112Zm.337.234Z" transform="translate(-646.48 -320.176)" fill="#eaeaea"/>
      <path id="Path_1277" data-name="Path 1277" d="M648.319,325.635Z" transform="translate(-648.053 -323.599)" fill="#eaeaea"/>
      <path id="Path_1278" data-name="Path 1278" d="M686.033,323.117Z" transform="translate(-680.432 -321.441)" fill="#eaeaea"/>
      <path id="Path_1279" data-name="Path 1279" d="M681.912,315.954Z" transform="translate(-676.887 -315.293)" fill="#eaeaea"/>
      <path id="Path_1280" data-name="Path 1280" d="M681.405,312.5l-.039.025c0,.016.048-.016.039,0H681.4c.021-.011.054-.025.046-.03.059-.02.011,0,.027.009s0,0,.027-.016.032,0,.041,0-.032.02-.052.032-.014,0,0-.011c-.037,0-.064.034-.091.036s.021,0,.036,0a.094.094,0,0,0,.043-.02c.093-.021-.059.037-.037.045.053-.027.085-.012.141-.05h.021c-.039.012-.027.02-.066.029h0l-.048.011c-.023.016-.045.037-.061.048.02,0,.036-.018.048-.012-.021,0-.034.018-.032.021a.108.108,0,0,1,.064-.021.254.254,0,0,1-.037.032h-.029c.012,0-.02.011,0,.012l.082-.029c.011,0-.014.016-.009.016h-.027c.012,0-.057.029-.037.032l.03-.009-.02.011h0c.014,0,.061-.014.025.009.045-.025,0,0,.016-.023s.036,0,.041,0c-.05.02,0,.012,0,.02l-.034.025.034-.012c-.062.029.02,0,0,.02a.126.126,0,0,0-.054.025c.045-.027.064-.016.094-.032-.013.018-.062.025-.094.041.039-.011-.018.023.03,0,.011-.014.03-.011.052-.02s-.021,0-.036.021a.106.106,0,0,0,.059-.021c0,.011.041,0,.014.016s-.02,0-.039,0,.077-.025.093-.016a.229.229,0,0,1,.089-.032c0,.02-.021,0-.057.023h0c-.048.03-.093.02-.132.046h.02a.289.289,0,0,0-.055.023c.037-.014.016.011.025.009s-.011,0,.014-.011.064-.014.048,0a.417.417,0,0,0-.059.025c-.011.011.037-.014.023,0h-.018c0,.029.023.061.109.05-.029.018-.029.027-.045.05a.045.045,0,0,1,.037-.011l-.032.021c-.018.016.021.011.045.011l-.025.012c-.021.018.023,0,.032,0l-.023.016.025-.011c.018,0,.016.012-.025.029a.045.045,0,0,0,.029-.011c-.021.018-.013.036,0,.043s.02-.016.045-.027,0,0,.02,0c-.016,0-.029.02-.043.02-.048.039,0,.045,0,.07s.014,0,.027,0c-.037.032.014.029,0,.052.016-.011.068-.029.073-.02.039,0-.048.025-.066.041h.025c.021,0,.036,0,.021.011h0s-.021.021-.016.025c.034-.012.018,0,.05,0h-.013l.029-.011-.012.016h-.034c-.014.018.027,0,.045-.009s0,.011-.014.018h0s0,.009-.023.016.034-.011.028,0,.013.012-.02.025h.032a.062.062,0,0,1,.028-.025s.016,0,0,.011h0s0,.012.03,0l-.036.023h.034c-.03.013-.068.023-.07.037h.036l-.02.016c-.02.016.093-.02.071,0s-.041.016-.048.027a.055.055,0,0,1,.021,0c.016-.009-.027,0,0,0h.027c-.075.046,0,.046-.032.082.045-.02.016,0,.034,0-.046.02.013,0-.012.025l.045-.023c-.021.023.077-.011.025.02-.011.011-.034.011-.043.012-.046.029.05,0,0,.037a.222.222,0,0,1,.068-.023.313.313,0,0,1-.045.041c.011,0,.027,0,.013.009a.045.045,0,0,1-.021,0c0,.014.014.012.036.014-.032.02,0,.029-.023.046.043-.012,0,.021.039,0h-.009a.252.252,0,0,1,.059-.013l-.037.014c-.043.018,0,.018-.021.027.023-.014,0,0,.027,0h.043c.011,0-.041.02-.037.016s0,.014,0,.016,0,0,.011,0h-.009l-.028.011h.05c-.018.025.012.041.034.045h.016c.014,0-.018.012-.018.021h.021c-.029.029.043.018.023.045h-.029a.155.155,0,0,0,.075.009.179.179,0,0,1-.034.011.036.036,0,0,0,.045,0c.029-.016-.016,0-.016,0s.053-.016.048-.009h0c0,.009.02,0,.025.011s-.011,0-.027.009c-.045.021-.021.032-.025.037a.106.106,0,0,0,.032,0c.016,0-.025.016-.021.018l.091-.016a.229.229,0,0,1-.053.023c.012.011.068,0,.1,0l.023.016c-.023.012,0,0-.02,0l-.025.02a.4.4,0,0,1-.062.023c.02,0,.009.025,0,.039.05-.029.032,0,.078-.016.014.009-.036.021-.043.032.025,0,.016.025.027.034H682.3c.02,0,.012.029.061.023a.084.084,0,0,1-.027.009c-.011.02.061-.025.039,0h-.025c.027,0-.013.025.027.02a.1.1,0,0,1-.025,0c.014,0,.014.016.048.011a.113.113,0,0,1-.039.012c-.014.016.045-.009.034,0a.052.052,0,0,1-.019.014c.021,0,.025,0,.036.009a.126.126,0,0,0-.032.025c.02.045.032.095.093.121-.043.029-.034,0-.064.02.039-.016.014,0,.034.011h0c.011,0-.012.016,0,.018h.011c.029,0-.045.037,0,.018l-.027.018c.048-.012-.009.016.032.009h0c-.016.02.059,0,.025.02a.081.081,0,0,0,.061,0,.254.254,0,0,1-.046.02c.032.027.041.07.1.08a.062.062,0,0,1-.021,0c.05,0-.027.059.059.037l.036-.009c-.011.011-.034.02-.045.029.023,0,.014.016.045,0a.106.106,0,0,1-.029.011c0,.011.05,0,.043.014h-.016c-.037.07-.057.144.032.148.016,0-.041.023-.036.025.077.011,0,.1.111.091.036.016.144-.02.144-.02-.066-.048-.046-.125-.02-.21-.018-.02-.045-.039-.037-.068-.046-.078,0-.2-.071-.267a.065.065,0,0,1-.041.012h-.018s.029-.016.036-.014a.418.418,0,0,1-.046-.094c-.039.016-.009-.016-.052,0a.042.042,0,0,1,.018,0c-.031-.014-.032-.014,0-.057a1.194,1.194,0,0,0-.1-.269c-.045-.086-.118-.157-.168-.242-.068.012-.048-.02-.109-.011h.02c-.034,0,0-.02.012-.046-.021.009-.009,0-.045.012s.046-.032.027-.034c.013,0-.021.009-.011,0-.054,0,.021,0,.045-.048-.03-.034-.085-.059-.08-.109,0,0-.025.016-.028.011.057-.029-.021,0,0-.023a.066.066,0,0,1,.023,0c.016-.028-.027-.027,0-.055-.032,0,.012-.046-.023-.045.025,0,.014-.014.025-.023-.075.02.011-.041-.043-.036h.012c-.023-.041-.029-.095-.08-.127-.02-.023.032-.078-.013-.093-.011,0-.025.011-.032,0s.021,0,.028-.014c-.034,0,0-.034-.016-.052s-.018,0-.034,0c.039-.039-.036-.037-.009-.073-.057.034-.037,0-.055,0s.016-.012.028-.016-.018-.018,0-.043-.045,0-.039,0c.039-.025,0-.021,0-.037-.036.018-.069.02-.057,0l.052-.02c-.046-.016,0-.086-.086-.093l.029-.016c-.05-.021-.029-.073-.1-.084a.054.054,0,0,0,.011-.046.177.177,0,0,0-.075,0l.027-.023c.009-.007.036-.053-.018-.046l.025-.011c-.032,0-.071,0-.048-.034a.114.114,0,0,0-.066.014c-.027.014.041-.021.012-.016l.039-.011c0-.037-.036-.055-.068-.078.039-.029-.018-.029,0-.055-.029,0,0-.034-.059-.018l.025-.011a.132.132,0,0,1,0-.057c0-.014-.036,0-.052,0l.025-.011a.331.331,0,0,0-.087.02c.014-.016,0,0,.011-.023a.3.3,0,0,0,.084-.016c0-.016-.064,0-.027-.023,0-.014,0-.016-.043,0,.012,0,.018-.016.034-.016s0-.011-.023,0h0a.2.2,0,0,0-.066.02h.016c-.029.009-.041,0-.018-.013s.048-.011.062-.025l-.068.009s0,.013-.027.02h.02l-.028.011c.016.009,0,.029.02.034l.027-.016s.046,0,.016.02a.11.11,0,0,0-.041.016h.014l-.05.018c.064-.025.032.011.045.011H681.5c-.016.02.025-.014.03,0s-.052.025-.068.039.052.016.021.046a.145.145,0,0,0,.061.011s-.05.02-.023.02a.934.934,0,0,1-.087.037s-.029.02-.009.016a.055.055,0,0,0-.032.016.152.152,0,0,0,.064-.039c.039-.025.011.016.057-.014a.043.043,0,0,0,.014.046.071.071,0,0,0-.05.02c.032,0,.055,0,.052.014.02-.01.04-.02.061-.028h.019c-.032.016-.082.037-.078.048-.052.02,0-.021-.05,0s-.053,0-.03-.021c-.048.011,0,.011-.045.027,0,0,.032,0,.043.013s.023-.016.043-.016c.05,0-.025.029-.027.032h-.043c-.012.014.02,0,.02.014C681.4,312.529,681.443,312.49,681.405,312.5Zm.647,1.175Z" transform="translate(-676.425 -311.991)" fill="#eaeaea"/>
      <path id="Path_1281" data-name="Path 1281" d="M681.882,315.273Z" transform="translate(-676.864 -314.706)" fill="#eaeaea"/>
      <path id="Path_1282" data-name="Path 1282" d="M686.255,317.543Z" transform="translate(-680.615 -316.657)" fill="#eaeaea"/>
      <path id="Path_1283" data-name="Path 1283" d="M682.2,312.117Z" transform="translate(-677.143 -311.998)" fill="#eaeaea"/>
      <path id="Path_1284" data-name="Path 1284" d="M682.749,312.115Z" transform="translate(-677.611 -311.996)" fill="#eaeaea"/>
      <path id="Path_1285" data-name="Path 1285" d="M682.008,316.2Z" transform="translate(-676.969 -315.501)" fill="#eaeaea"/>
      <path id="Path_1286" data-name="Path 1286" d="M681.59,313.964h.014S681.608,313.96,681.59,313.964Z" transform="translate(-676.618 -313.582)" fill="#eaeaea"/>
      <path id="Path_1287" data-name="Path 1287" d="M686.389,324.126Z" transform="translate(-680.731 -322.308)" fill="#eaeaea"/>
      <path id="Path_1288" data-name="Path 1288" d="M685.738,322.892Z" transform="translate(-680.174 -321.248)" fill="#eaeaea"/>
      <path id="Path_1289" data-name="Path 1289" d="M688.4,326.627Z" transform="translate(-682.456 -324.454)" fill="#eaeaea"/>
      <path id="Path_1290" data-name="Path 1290" d="M687.727,320.826Z" transform="translate(-681.885 -319.475)" fill="#eaeaea"/>
      <path id="Path_1291" data-name="Path 1291" d="M709.965,321.427Z" transform="translate(-700.973 -319.99)" fill="#eaeaea"/>
      <path id="Path_1292" data-name="Path 1292" d="M707.31,313.464Z" transform="translate(-698.694 -313.154)" fill="#eaeaea"/>
      <path id="Path_1293" data-name="Path 1293" d="M706.83,313.461s-.034,0-.014.009h-.036a.148.148,0,0,0,.075-.011Z" transform="translate(-698.239 -313.152)" fill="#eaeaea"/>
      <path id="Path_1294" data-name="Path 1294" d="M706.429,312.461h.045c.061,0,0,0,.021.02s0,0,.03,0,.032,0,.037.011-.037,0-.061.009-.011-.009.009,0a.287.287,0,0,0-.1,0c-.023,0,.02.009.032.014h.048c.095.016-.068.011-.052.025a.688.688,0,0,0,.15.009c.011,0,.025,0,.018.011h-.071l-.048-.009a.352.352,0,0,0-.075.02h.011a.111.111,0,0,1,.068,0c0,.009-.037.016-.048.014h.05c.011,0-.02,0-.014.011h-.025c.009.011-.062,0-.046.012h.032a.085.085,0,0,1-.032,0c.023,0,.018.009.027.011h-.021c.014,0,.061.011.02.016.05,0,0,0,.023-.014a.026.026,0,0,1,.041.011c-.053,0,0,.011,0,.016h0c-.07,0,.016.011,0,.016a.147.147,0,0,0-.059,0,.525.525,0,0,1,.1,0c-.018.011-.066,0-.1,0,.039,0-.027.012.025.016.016-.009.032,0,.055,0h-.041a.112.112,0,0,0,.062,0c-.011,0,.037.012,0,.02s-.014-.012-.037-.009.08,0,.091.02a.24.24,0,0,1,.094,0c-.014.014-.02,0-.061,0h0a1,1,0,0,0-.139-.009h.02a.315.315,0,0,0-.061,0c.039,0,.009.014.02.016s-.009,0,.016,0,.064.009.043.02a.537.537,0,0,0-.064,0c-.014,0,.039,0,.021.009h-.02c0,.027,0,.059.078.082a.116.116,0,0,0-.061.025.054.054,0,0,1,.039,0h-.039c-.023,0,.014.018.036.025h-.028c-.025,0,.021,0,.03.011h0c.016,0,.009.014-.034.014a.045.045,0,0,0,.029,0c-.025,0-.025.025-.011.037a.132.132,0,0,1,.052,0h.018a.116.116,0,0,1-.048,0c-.059.016-.013.041-.023.061a.112.112,0,0,0,.027,0c-.046.013,0,.029-.018.043.02,0,.073,0,.075.009a.581.581,0,0,0-.077.011c.018,0,.023.011.02.014h0c.021,0,.032.011.014.018h0s-.028.011-.025.014c.036,0,.014.012.046.016h.016l-.018.009h-.034c-.021.011.029,0,.045.009s0,0-.021.011h0c-.007,0,0,.016-.027.014.018,0,.014,0,.029.011a.055.055,0,0,1,.036-.011s.013.011,0,.011h0s0,.012.029,0h-.043c.025,0,.023.009.03.016h-.08l.034.009h-.025c-.025,0,.093.016.064.03s-.045,0-.055,0h.046c-.087.011-.021.037-.062.057.048,0,.014.009.032.013-.05,0,.009.011-.021.014h.05c-.029.011.075.018.016.025a.07.07,0,0,1-.045,0c-.053.009.045.025-.016.03a.261.261,0,0,1,.071,0,.471.471,0,0,1-.057.018c.009,0,.025,0,0,.011a.035.035,0,0,1-.02,0c-.012.009,0,.016.027.025-.037,0-.018.02-.039.03.046,0-.02.016.041.018h-.018a.428.428,0,0,1,.059.011h-.039c-.046,0-.014.012-.03.014h.039c.011.009.02,0,.025.012s-.046,0-.041,0-.009.011,0,.016,0,0,.011,0h-.041a.183.183,0,0,0,.048.016c-.027.014,0,.041.014.052h0s.032.011.012.011c.013,0-.021,0-.025.012h.023c-.039.014.032.03,0,.045h-.03a.157.157,0,0,0,.066.036H706.6c0,.009,0,.018.037.023s-.018,0-.016,0,.055,0,.048.011h0c0,.009.018.009.018.018s0,0-.029,0c-.05,0-.032.02-.037.021a.122.122,0,0,0,.032,0h-.027l.091.018a.251.251,0,0,1-.057,0c0,.014.064.021.094.03a.182.182,0,0,1,.014.023h-.05c0-.009-.046,0-.066,0,.018,0,0,.025-.011.036.057,0,.027.014.078.014.009.012-.041,0-.052.011.02.012,0,.025.013.037h-.011c.016.011,0,.029.046.041h-.028c-.018.011.064,0,.034.016H706.7c.025,0-.023.016.016.027a.068.068,0,0,1-.025,0c.011,0,0,.02.039.027a.112.112,0,0,1-.043,0c-.02,0,.045.011.028.018H706.7c.02,0,.02.016.029.021a.153.153,0,0,0-.039.009.162.162,0,0,0,.037.135c-.05,0-.032-.011-.066,0,.043,0,.013,0,.027.021h0c.009,0-.018,0,0,.016h.011c.029,0-.057.016,0,.018h-.032c.05,0-.016.011.025.02h0c-.021.011.054.023.014.027a.082.082,0,0,0,.055.021.222.222,0,0,1-.052,0c.02.034.009.073.062.1h-.023c.045.02-.048.039.039.054h-.014c.023,0,0,.018.039.02a.114.114,0,0,1-.03,0c0,.009.046.02.034.027H706.8c-.062.045-.111.1-.03.137.014.011-.048,0-.043,0,.066.037-.039.082.064.116a.355.355,0,0,0,.143.036c-.041-.064,0-.121.066-.178-.009-.021-.027-.05,0-.068-.011-.084.078-.166.039-.251a.065.065,0,0,1-.043,0h.021a.358.358,0,0,1,0-.1c-.043,0,0-.016-.047-.018a.047.047,0,0,1,.02,0c-.021-.023-.023-.025.03-.046a1.015,1.015,0,0,0,.018-.262,1.981,1.981,0,0,0-.057-.266c-.068-.014-.036-.034-.094-.05h.021c-.03-.014,0-.018.032-.036h-.046c-.046,0,.055-.011.037-.02h-.011c-.048-.023.021,0,.061-.025-.014-.041-.055-.082-.03-.121h-.03c.064,0-.018-.012,0-.02a.068.068,0,0,1,.023,0c.027-.018-.013-.032.016-.05-.029-.016.028-.034,0-.045.025,0,.02,0,.032-.011-.077-.011.027-.03-.025-.046h.012a.186.186,0,0,0-.023-.135c-.036-.045.059-.053.027-.082s-.027,0-.034,0h.032c-.03-.014,0-.032,0-.048a.066.066,0,0,0-.034,0c.052-.02-.018-.047.02-.066-.066,0-.036-.011-.052-.018s.02,0,.032,0-.009-.023.009-.039-.043-.011-.032-.02c.045,0,0-.02.018-.029-.039,0-.071-.011-.053-.02h.055c-.036-.03.027-.075-.043-.111h.032c-.037-.037,0-.073-.061-.109a.048.048,0,0,0,.029-.034.192.192,0,0,0-.069-.025.056.056,0,0,0,.034-.011c.011-.011.054-.032,0-.045h.027c-.028-.014-.062-.032-.03-.046-.025,0-.034-.018-.066-.011s.046,0,.018-.009h.039c.011-.034-.011-.059-.032-.091.048,0,0-.03.021-.048-.027-.011.011-.029-.048-.036h.027a.12.12,0,0,1,.018-.05c0-.011-.034-.011-.048-.02h.028a.321.321,0,0,0-.087-.016c.02,0,0,0,.018-.014a.38.38,0,0,0,.082.018c.012-.011-.059-.023-.016-.03.009,0,0-.016-.032-.018h.032c.014,0,0-.012-.018-.016h0a.23.23,0,0,0-.068-.009h.014s-.037-.014-.011-.016.048.009.066,0l-.066-.018c.013,0,0,.009-.03,0h-.013c.011.014-.02.023,0,.036h.03s.043.016,0,.023a.239.239,0,0,0-.043,0h-.039c.069,0,.025.02.036.023h-.009c-.021.011.028,0,.03,0a.317.317,0,0,0-.078.009c-.021.009.041.032,0,.046a.156.156,0,0,0,.052.032c0,.009-.053,0-.03.009h-.052c.014,0,0,.018.039.011a.036.036,0,0,0,0,.043.1.1,0,0,0-.054,0c.032,0,.052.02.041.03h.086c-.036,0-.089,0-.091.012-.055,0,0-.02-.048-.014s-.046-.023-.02-.029c-.048-.009,0,0-.052,0,0,0,.028.012.036.027s.027,0,.046,0c.05.012-.036.016-.037.018h-.012c-.016,0,.016.011.012.02-.064,0,0-.014-.046-.016h-.045C706.4,312.457,706.445,312.446,706.429,312.461Zm.141,1.2h0s0,0,0,0Z" transform="translate(-697.906 -312.022)" fill="#eaeaea"/>
      <path id="Path_1295" data-name="Path 1295" d="M706.793,314.619Z" transform="translate(-698.246 -314.143)" fill="#eaeaea"/>
      <path id="Path_1296" data-name="Path 1296" d="M708.289,326.557Z" transform="translate(-699.532 -324.393)" fill="#eaeaea"/>
      <path id="Path_1297" data-name="Path 1297" d="M708.339,312.073Z" transform="translate(-699.571 -311.959)" fill="#eaeaea"/>
      <path id="Path_1298" data-name="Path 1298" d="M708.835,312.278Z" transform="translate(-700.003 -312.137)" fill="#eaeaea"/>
      <path id="Path_1299" data-name="Path 1299" d="M707.318,322.455Z" transform="translate(-698.698 -320.872)" fill="#eaeaea"/>
      <path id="Path_1300" data-name="Path 1300" d="M707.426,323.733Z" transform="translate(-698.789 -321.968)" fill="#eaeaea"/>
      <path id="Path_1301" data-name="Path 1301" d="M707.505,322.743Z" transform="translate(-698.862 -321.121)" fill="#eaeaea"/>
      <path id="Path_1302" data-name="Path 1302" d="M709.91,318.129Z" transform="translate(-700.919 -317.157)" fill="#eaeaea"/>
      <path id="Path_1303" data-name="Path 1303" d="M706.55,315.212Z" transform="translate(-698.034 -314.654)" fill="#eaeaea"/>
      <path id="Path_1304" data-name="Path 1304" d="M707.035,313.426h.014S707.051,313.428,707.035,313.426Z" transform="translate(-698.458 -313.123)" fill="#eaeaea"/>
      <path id="Path_1305" data-name="Path 1305" d="M741.785,312.466Z" transform="translate(-728.285 -312.299)" fill="#eaeaea"/>
      <path id="Path_1306" data-name="Path 1306" d="M739.446,318.837Z" transform="translate(-726.273 -317.764)" fill="#eaeaea"/>
      <path id="Path_1307" data-name="Path 1307" d="M740.719,312.264h-.011Z" transform="translate(-727.361 -312.118)" fill="#eaeaea"/>
      <path id="Path_1308" data-name="Path 1308" d="M741.462,312.018Z" transform="translate(-728.009 -311.915)" fill="#eaeaea"/>
      <path id="Path_1309" data-name="Path 1309" d="M737.646,322.162Z" transform="translate(-724.731 -320.622)" fill="#eaeaea"/>
      <path id="Path_1310" data-name="Path 1310" d="M734.765,322.274Z" transform="translate(-722.26 -320.718)" fill="#eaeaea"/>
      <path id="Path_1311" data-name="Path 1311" d="M738.689,313.8Z" transform="translate(-725.627 -313.447)" fill="#eaeaea"/>
      <path id="Path_1312" data-name="Path 1312" d="M734.142,323.235Z" transform="translate(-721.719 -321.538)" fill="#eaeaea"/>
      <path id="Path_1313" data-name="Path 1313" d="M733.312,326.477Z" transform="translate(-721.01 -324.323)" fill="#eaeaea"/>
      <path id="Path_1314" data-name="Path 1314" d="M738.147,314.278Z" transform="translate(-725.163 -313.854)" fill="#eaeaea"/>
      <path id="Path_1315" data-name="Path 1315" d="M739.314,312.738c-.011,0-.027-.02-.032-.016a.137.137,0,0,0,.071.027h0l-.025-.016S739.3,312.724,739.314,312.738Z" transform="translate(-726.141 -312.519)" fill="#eaeaea"/>
      <path id="Path_1316" data-name="Path 1316" d="M730.621,314.857c0,.039.1.1.1.1,0-.086.075-.118.162-.153,0-.025,0-.062.032-.073.037-.089.162-.128.178-.232a.053.053,0,0,1-.036-.027h.011l-.021-.02s.032.012.032.02a.493.493,0,0,1,.05-.1c-.036-.023,0-.02-.03-.043a.049.049,0,0,1,.016.011c0-.032,0-.036.052-.03.082-.071.1-.178.162-.251s.059-.2.1-.294c-.052-.046-.013-.052-.055-.095l.018.011c-.018-.029.014-.014.046-.02-.021-.011,0-.011-.037-.027s.055.016.045,0-.021-.011,0,0c-.029-.046.016.016.066,0,.011-.048,0-.109.041-.135,0,0-.028-.011-.027-.016.059.027,0-.021.018-.016a.093.093,0,0,1,.018.016c.032,0,0-.039.041-.041-.016-.029.045-.02.021-.046.021.016.021,0,.034,0-.061-.048.041-.018,0-.057h.011c.02-.046.061-.084.055-.146,0-.03.082-.025.07-.07,0-.011-.023-.014-.027-.021s.02.011.03.014c-.02-.029.023-.029.032-.046s-.009-.016-.027-.021c.055,0,.009-.055.054-.055-.062-.027-.025-.029-.034-.045s.02,0,.03.012,0-.027.03-.036c0-.011-.032-.03-.018-.036.043.016.012-.02.034-.02-.036-.018-.057-.045-.036-.046l.046.029c-.014-.046.066-.061.025-.13l.03.012c-.012-.055.043-.071,0-.137a.059.059,0,0,0,.045-.02.17.17,0,0,0-.047-.061H732c.011,0,.064,0,.027-.043l.025.012c-.018-.027-.037-.062,0-.061-.02-.016-.02-.036-.052-.045,0,0,.043.02.02,0l.032.025a.136.136,0,0,0,.023-.107c.046.014.012-.032.044-.037-.018-.023.025-.023-.021-.061l.025.014a.147.147,0,0,1,.043-.043c.012,0-.023-.027-.031-.043l.025.012a.325.325,0,0,0-.068-.059h.023a.28.28,0,0,0,.062.059c.016,0-.037-.05,0-.037.014,0,.009-.018-.018-.034a.036.036,0,0,1,.028.014c.009.014,0-.014,0-.025h0c-.023-.016-.018-.023-.055-.041,0,.009.013.012,0,.016s-.025-.032,0-.023.037.032.057.036l-.046-.05a.086.086,0,0,1-.032-.009l.011.016-.027-.016c0,.018-.03.012-.016.037l.03.011s.028.036,0,.025a.135.135,0,0,0-.038-.021s.013.012,0,.012l-.032-.021c.041.029,0,.027,0,.034h0c-.025,0,.027.011.023.02s-.05-.025-.073-.029.018.052-.025.046a.137.137,0,0,0,.027.057c0,.009-.046-.029-.032,0a.5.5,0,0,0-.05-.025c.018.013-.012.016.032.03a.048.048,0,0,0-.029.043.156.156,0,0,0-.045-.029c.025.023.034.043.02.05a.639.639,0,0,1,.061.03c.028.018.014.014.011.016-.032-.016-.078-.043-.086-.032-.046-.03.016-.016-.034-.037s-.027-.048,0-.039c-.036-.034-.009,0-.048-.02,0,.011.018.027.016.043s.027.009.039.025-.039,0-.043,0v-.011c-.02,0,0,.018,0,.025-.057-.029,0-.016-.03-.039l-.043-.014c-.013.011.043.029.021.034l-.02-.012v.016c.02.011.052.027.052.018.05.034,0,.011,0,.029s0,0,.03.011.025.023.027.03-.036-.013-.057-.02,0-.014.013,0c-.025-.029-.066-.03-.082-.052s.013.02.021.029a.136.136,0,0,0,.041.023c.073.061-.066-.025-.059,0,.053.027.062.061.127.082,0,.009.018.02.009.02a.131.131,0,0,1-.062-.034h0l-.037-.032a.231.231,0,0,1-.077-.018c.011.016.036.016.039.03-.016-.014-.036-.016-.037-.012a.1.1,0,0,1,.057.037c0,.009-.041,0-.048-.011l-.023-.021c.014.014-.018,0-.011,0l.071.05c0,.011-.021,0-.018,0l-.018-.02c0,.016-.055-.029-.048-.011l.027.02a.062.062,0,0,1-.029-.014c.02.012.011.016.018.023l-.018-.009c.009.011.046.039,0,.023.046.02,0,0,.027,0s.027.025.03.029c-.046-.027-.011,0-.014.014l-.039-.011.03.02c-.062-.032,0,.02-.014.016a.139.139,0,0,0-.053-.029c.048.02.052.043.082.057-.021,0-.055-.036-.089-.05.032.025-.03,0,.014.029.018,0,.029.018.046.03-.009,0-.02-.012-.039-.016a.108.108,0,0,0,.052.034c-.013,0,.026.03,0,.021s0-.02-.029-.027.066.046.068.064a.211.211,0,0,1,.078.052c-.021,0-.014-.016-.053-.03v.009c-.054-.02-.071-.064-.116-.077l.013.016a.278.278,0,0,0-.052-.03c.034.02,0,.02,0,.025s0-.011.016,0,.052.041.027.041-.041-.02-.055-.032.034.02.014.02l-.016-.011c-.02.023-.036.057.023.121-.032-.012-.039,0-.068,0a.046.046,0,0,1,.032.023l-.037-.013c-.023,0,0,.025.018.043l-.027-.011c-.027,0,.014.018.021.025l-.027-.009.023.014c.009.016,0,.02-.039,0a.039.039,0,0,0,.025.014c-.027,0-.037.014-.03.034a.115.115,0,0,1,.048.02c.039.025-.009,0,.013.018-.014-.009-.034-.011-.041-.025-.061-.012-.032.034-.055.048s.011.011.021.02c-.048-.011-.014.03-.039.034.018,0,.064.037.061.046.028.027-.048-.023-.073-.027.014.012.014.023.009.023h0c.016.016.021.029,0,.025h-.03c.03.02,0,.021.03.039h-.013l.027.014h-.02l-.027-.021c-.023,0,.023.018.034.03s-.011,0-.023,0h0c-.009,0-.011,0-.027-.009s.03.02.021.021,0,.018-.032,0c.012.011,0,.014.02.025a.05.05,0,0,1,.037,0s0,.016,0,.011h0s0,.011.021.021l-.041-.014c.021.014.016.021.018.03-.03-.016-.061-.039-.073-.032l.025.025h-.025c-.025,0,.071.064.039.061s-.037-.021-.05-.021.016.011.016.014-.023-.018,0-.009.013.014.018.02c-.082-.03-.039.029-.085.027.043.023,0,.016.021.029-.043-.025,0,.016-.027,0l.045.021c-.032,0,.055.055,0,.032-.016,0-.03-.02-.036-.027-.052-.018.025.046-.03.023a.232.232,0,0,1,.059.041.316.316,0,0,1-.059-.011c0,.011.02.02,0,.016a.037.037,0,0,1-.016-.014c-.016,0,0,.02.01.037-.036-.014-.029.011-.052.011.037.029-.025,0,.027.037h-.016c.013.012.045.034.045.041l-.034-.021c-.043-.025-.016.009-.039,0,.032.012,0,0,.023.02v.011c0,.014.016.011.014.025s-.041-.02-.036-.02-.014,0-.009.016,0,0,.011,0h-.011a.016.016,0,0,1,0,.009h-.009l-.027-.016s.021.032.034.037c-.032,0-.027.039-.016.059s-.014-.011,0,0,.021.027,0,.018-.021,0-.029,0l.021.013c-.043,0,.009.046-.023.048l-.023-.02a.153.153,0,0,0,.038.066.14.14,0,0,1-.029-.02.049.049,0,0,0,.02.041c.02.018-.014-.009-.011-.011s.046.032.036.034h0s.011.018,0,.027,0-.009-.023-.016a.088.088,0,0,0-.045,0,.168.168,0,0,0,.025.02c0,.012-.027-.011-.028,0l.069.064a.1.1,0,0,1-.052-.029c0,.016.045.052.066.077-.009,0,0,.023,0,.029s0,0-.014-.014l-.03-.009c0-.011-.041-.021-.055-.036.011.016-.016.025-.029.03.054.02.016.029.061.053,0,.016-.039-.014-.052-.014s-.009.029-.012.043h0c0,.02-.016.029.018.064a.127.127,0,0,1-.023-.016c-.023,0,.055.034.022.034l-.02-.016c.016.02-.028,0,0,.034a.076.076,0,0,1-.021-.016c0,.014,0,.021.02.046a.1.1,0,0,1-.034-.023c-.021,0,.034.03.014.03h-.023c-.005,0,0,.027.014.034a.183.183,0,0,0-.039,0,.207.207,0,0,0-.045.153c-.048-.018-.021-.025-.055-.037.037.02,0,.014.013.034h0c0,.011-.021,0-.013.012h.011c.021.02-.057-.012-.011.018l-.03-.011c.039.032-.02,0,.012.032h0c-.025,0,.034.048,0,.032,0,.014,0,.029.037.05a.229.229,0,0,1-.045-.025c0,.043-.032.078,0,.135l-.02-.012c.028.041-.064.016,0,.073l.028.023a.24.24,0,0,1-.05-.018c.018.016,0,.02.023.037a.127.127,0,0,1-.025-.016c-.011,0,.028.043.014.045l-.013-.011c-.078.014-.153.046-.1.121,0,.016-.045-.02-.043-.011S730.55,314.768,730.621,314.857Zm.572-1.364h0s0-.005,0-.005Z" transform="translate(-718.683 -311.903)" fill="#eaeaea"/>
      <path id="Path_1317" data-name="Path 1317" d="M739.573,312.726a.032.032,0,0,0,.009.012S739.586,312.737,739.573,312.726Z" transform="translate(-726.387 -312.521)" fill="#eaeaea"/>
      <path id="Path_1318" data-name="Path 1318" d="M739.818,312.928h-.009Z" transform="translate(-726.589 -312.691)" fill="#eaeaea"/>
      <path id="Path_1319" data-name="Path 1319" d="M757.922,332.075Z" transform="translate(-742.133 -329.126)" fill="#eaeaea"/>
      <path id="Path_1320" data-name="Path 1320" d="M764.106,324.381Z" transform="translate(-747.44 -322.522)" fill="#eaeaea"/>
      <path id="Path_1321" data-name="Path 1321" d="M767.8,322.3v-.009Z" transform="translate(-750.611 -320.739)" fill="#eaeaea"/>
      <path id="Path_1322" data-name="Path 1322" d="M765.092,323.7Z" transform="translate(-748.291 -321.933)" fill="#eaeaea"/>
      <path id="Path_1323" data-name="Path 1323" d="M763.965,329.426Z" transform="translate(-747.316 -326.852)" fill="#eaeaea"/>
      <path id="Path_1324" data-name="Path 1324" d="M760.839,332.835h0a.039.039,0,0,0,0,.011A.016.016,0,0,0,760.839,332.835Z" transform="translate(-744.638 -329.783)" fill="#eaeaea"/>
      <path id="Path_1325" data-name="Path 1325" d="M756.769,333.462Z" transform="translate(-741.144 -330.315)" fill="#eaeaea"/>
      <path id="Path_1326" data-name="Path 1326" d="M764.354,324.129Z" transform="translate(-747.654 -322.305)" fill="#eaeaea"/>
      <path id="Path_1327" data-name="Path 1327" d="M757.781,332.492Z" transform="translate(-742.013 -329.488)" fill="#eaeaea"/>
      <path id="Path_1328" data-name="Path 1328" d="M766.614,322.9Z" transform="translate(-749.598 -321.256)" fill="#eaeaea"/>
      <path id="Path_1329" data-name="Path 1329" d="M766.43,322.638a.033.033,0,0,0,0,.014S766.439,322.65,766.43,322.638Z" transform="translate(-749.44 -321.03)" fill="#eaeaea"/>
      <path id="Path_1330" data-name="Path 1330" d="M768.679,322.158Z" transform="translate(-751.367 -320.609)" fill="#eaeaea"/>
      <path id="Path_1331" data-name="Path 1331" d="M768.846,322.7Z" transform="translate(-751.513 -321.083)" fill="#eaeaea"/>
      <path id="Path_1332" data-name="Path 1332" d="M766.178,322.61s-.03-.018-.02,0-.02-.025-.027-.023a.116.116,0,0,0,.064.041h0a.105.105,0,0,1-.018-.018Z" transform="translate(-749.182 -320.979)" fill="#eaeaea"/>
      <path id="Path_1333" data-name="Path 1333" d="M752.507,322.191c-.018-.023-.009-.029-.041-.055,0,.011.009.016,0,.02s-.014-.041,0-.025.027.041.046.048l-.03-.062c0,.009-.014,0-.03-.016v.02l-.021-.02c0,.02-.036.009-.03.039l.027.016c0,.009.016.046-.018.029,0-.011-.018-.02-.03-.03s.009.016,0,.016l-.027-.03c.034.041-.009.03,0,.041h0c-.027,0,.023.018.016.025s-.043-.036-.064-.045,0,.062-.043.046a.15.15,0,0,0,0,.068c-.009.009-.039-.037-.03-.011a.377.377,0,0,0-.041-.037c.014.014-.02.016.021.041a.064.064,0,0,0-.046.041.143.143,0,0,0-.037-.037c.018.029.02.054,0,.061.025.023.029.02.052.043s.011.02,0,.02-.066-.059-.078-.05c-.037-.041.023-.014-.021-.046s-.011-.057.014-.043c-.025-.043-.011,0-.043-.029v.05c0,.018.023.014.032.034s-.039,0-.045,0V322.3c-.02,0,0,.021-.009.029-.048-.041,0-.018-.018-.048l-.039-.025c-.018.009.034.037.009.041l-.014-.016v.018c.018.016.045.039.048.029.039.046,0,.012,0,.034s0,0,.027.016.018.029.016.037-.032-.02-.052-.032,0-.016.014,0c-.014-.036-.057-.045-.068-.068s0,.021.011.036a.14.14,0,0,0,.034.032c.054.08-.059-.037-.062-.011.046.037.043.078.1.112,0,.011.011.023,0,.023-.027-.032-.03-.016-.052-.05h0l-.028-.041c-.027-.014-.055-.023-.073-.034,0,.02.03.025.028.041-.012-.018-.03-.025-.034-.02s.043.039.045.052-.041-.011-.046-.02l-.014-.027c0,.016-.016-.012-.014,0l.055.068c0,.012-.023,0-.021,0l-.011-.025c0,.016-.048-.041-.046-.02l.02.025a.048.048,0,0,1-.02-.014v.021l-.016-.014c0,.016.034.052,0,.029.041.03,0,0,.03,0s.018.032.02.037c-.039-.037-.014.009-.02.014l-.037-.02.025.029c-.053-.046,0,.021-.02.012a.1.1,0,0,0-.045-.037c.045.028.037.053.064.077-.023,0-.046-.048-.075-.07.023.034-.03,0,0,.034.02,0,.023.025.037.041-.013,0-.014-.016-.036-.023a.087.087,0,0,0,.043.046c-.014,0,.016.039-.014.023s0-.023-.02-.034.052.062.046.082a.179.179,0,0,1,.062.071c-.025,0,0-.02-.043-.043v.011c-.05-.03-.052-.082-.093-.105v.02a.238.238,0,0,0-.043-.043c.027.029,0,.021,0,.029s0-.011.016,0,.037.053.012.05-.036-.029-.046-.045.027.029,0,.025l-.014-.016c-.03.023-.059.061-.021.139-.028-.018-.039-.011-.068-.014.014,0,.025.023.025.029l-.034-.02c-.023,0,0,.029,0,.052l-.023-.018c-.025-.011.009.023.012.03l-.025-.014.018.02c0,.018-.009.023-.039,0a.035.035,0,0,0,.02.021.032.032,0,0,0-.045.032c.014,0,.023.011.043.029s-.009,0,0,.02c-.013-.011-.03-.018-.034-.032-.059-.023-.046.032-.075.046,0,.009,0,.014.014.025-.046-.02-.027.03-.055.032.018.011.052.052.046.061s-.043-.034-.066-.043a.027.027,0,0,1,0,.029h0c.011.02.011.034,0,.029h0s-.03-.009-.032,0a.068.068,0,0,0,.018.05l-.011-.009.021.02h-.021a.2.2,0,0,1-.02-.029c-.025,0,.018.023.023.041s-.013,0-.025,0h0c-.011,0-.011,0-.023-.014s.023.027.014.027-.011.02-.034,0a.033.033,0,0,0,.011.03.061.061,0,0,1,.037.012s0,.02-.013.011v-.009c0,.009-.013.011.014.027l-.037-.021a.031.031,0,0,1,0,.036c-.025-.023-.048-.053-.064-.048l.016.034a.044.044,0,0,1-.023-.011c-.014-.011.052.082.018.075s-.03-.032-.045-.034.014.016.012.018-.016-.023,0-.009,0,.018.011.025c-.075-.046-.052.025-.1.016.036.032,0,.018.011.034-.036-.036,0,.016-.03,0l.039.03c-.032,0,.037.071-.014.037-.018,0-.025-.027-.028-.036-.048-.029.009.055-.041.021a.175.175,0,0,1,.046.055.333.333,0,0,1-.059-.021c-.005-.007.012.025,0,.018a.04.04,0,0,1-.011-.02c-.018,0-.009.023,0,.043-.032-.021-.034,0-.059,0,.029.037-.03,0,.014.046l-.014-.011c.009.016.034.046.032.052l-.027-.029c-.032-.032-.023,0-.036,0,.021.014,0,0,.012.023v.016c0,.016.013.014,0,.029s-.036-.029-.03-.029-.018,0-.016.016,0,0,.009,0h-.009a.017.017,0,0,1,0,.011h0a.036.036,0,0,1,0-.009h-.011l-.021-.025a.146.146,0,0,0,.021.048c-.034,0-.043.037-.039.061h0c.011.014.013.034,0,.02,0,.014-.02-.011-.03,0l.018.016c-.041-.014,0,.052-.041.048l-.018-.025a.147.147,0,0,0,.014.08.106.106,0,0,1-.021-.029.077.077,0,0,0,0,.05c.011.025-.012-.012,0-.016s.036.043.025.043h0v.03c0,.009,0-.011-.018-.021s-.041,0-.048,0a.106.106,0,0,0,.02.027c0,.016-.023-.016-.027-.011l.048.08c-.009-.011-.036-.023-.043-.041a.477.477,0,0,0,.039.1c-.009,0,0,.025-.011.032s0,0-.009-.018l-.029-.014c0-.013-.036-.03-.045-.048,0,.02-.025.025-.043.029.048.032,0,.034.043.068,0,.02-.036-.021-.048-.025,0,.027-.021.03-.028.046h0c0,.021-.029.03,0,.073a.09.09,0,0,1-.018-.021c-.025,0,.045.046.009.039l-.016-.02c.009.025-.032,0-.014.039a.078.078,0,0,1-.016-.021c0,.016-.014.023,0,.055a.076.076,0,0,1-.027-.032c-.023,0,.023.041,0,.037a.067.067,0,0,1-.023-.011c.012.02,0,.032,0,.041a.137.137,0,0,0-.037-.018.305.305,0,0,0-.1.166c-.045-.029-.013-.034-.043-.052.032.029,0,.016,0,.041h0c0,.012-.023,0-.018.011h0c.014.027-.055-.023-.018.02l-.027-.016c.03.041-.021,0,0,.037h0c-.027,0,.018.061-.016.037a.057.057,0,0,0,.02.061.178.178,0,0,1-.036-.036c-.02.05-.064.082-.055.15a.046.046,0,0,1-.016-.018c.014.052-.073,0-.023.082l.021.03c-.014,0-.032-.023-.045-.029s-.012.023.009.046c-.012,0-.012-.014-.021-.021s.014.052,0,.052l-.009-.014c-.087,0-.178.029-.153.119,0,.02-.039-.029-.039-.02.012.084-.107.057-.064.164a.344.344,0,0,0,.069.134c.032-.095.121-.121.227-.144.014-.029.028-.07.061-.077.071-.093.218-.118.271-.23a.048.048,0,0,1-.027-.034h.011l-.014-.025c0-.009.029.02.027.029a.709.709,0,0,1,.091-.1c-.029-.03.014-.02-.016-.052l.012.014c0-.037,0-.041.066-.025a2,2,0,0,0,.266-.255c.08-.1.136-.21.214-.312-.036-.061,0-.059-.021-.116l.014.016c0-.036.021-.014.057-.016-.018-.016,0-.011-.029-.036s.052.027.046,0c.009.009-.018-.016,0-.009-.013-.055.011.02.068.016.029-.052.039-.121.094-.144,0,0-.025-.016-.021-.02.05.039,0-.025.025-.016a.042.042,0,0,1,.011.021c.036,0,.021-.043.059-.041,0-.034.055-.014.041-.048.016.02.021,0,.034.011-.045-.064.05-.012.027-.064l.009.011c.037-.048.1-.084.114-.155.018-.032.1-.014.1-.066,0-.011-.018-.02-.02-.029s.018.016.027.02c-.009-.034.036-.029.052-.046s0-.018-.02-.029c.055.016.03-.059.077-.052-.055-.037-.014-.037-.02-.055s.018.009.027.02c0-.02.014-.029.045-.036,0-.012-.021-.039,0-.043.039.025.021-.02.043-.018-.03-.025-.043-.059-.021-.055l.037.041c0-.055.091-.057.075-.141l.027.02c0-.064.071-.073.061-.151a.073.073,0,0,0,.054-.016.158.158,0,0,0-.025-.073s.025,0,.034.014.07,0,.045-.045l.021.018c0-.032-.014-.075.021-.068-.014-.021,0-.043-.037-.059,0-.011.037.029.021,0l.023.034a.2.2,0,0,0,.064-.116c.043.025.025-.034.061-.034-.009-.029.036-.021,0-.07l.021.018a.216.216,0,0,1,.063-.039c.016,0-.014-.034-.016-.052l.021.018a.253.253,0,0,0-.05-.075c.021,0,0-.009.027,0a.256.256,0,0,0,.043.075c.02,0-.022-.064.018-.043s.016-.016,0-.039a.025.025,0,0,1,.023.02c.005.02,0-.014,0-.029A.232.232,0,0,0,752.507,322.191ZM750.94,323.6Z" transform="translate(-735.179 -320.567)" fill="#eaeaea"/>
      <path id="Path_1334" data-name="Path 1334" d="M697.685,356.282a2.005,2.005,0,0,1,0-.883.721.721,0,0,1-.168-.294c-.212-.317-.38-.793-.829-.929a.1.1,0,0,1-.071.086l.009-.03-.061.05c-.03,0,.02-.084.05-.082a4.628,4.628,0,0,0-.462-.159c-.036.1-.084-.016-.112.093a.06.06,0,0,1,.014-.046c-.121.036-.121.037-.21-.109a1.87,1.87,0,0,0-1.3.219,2.185,2.185,0,0,0-.813,1.018c.12.135.014.178.118.3l-.046-.025c.048.086-.039.064-.127.121.057.02,0,.032.1.053.071.048-.148,0-.114.057-.032,0,.057.014.025.014.091.128-.048-.036-.178.075a2.241,2.241,0,0,1,.03.56c0-.009.073-.014.075,0-.159.025.046.055-.014.089a.091.091,0,0,1-.059-.02c-.062.087.048.143-.009.228.078.061-.036.178.055.2-.064,0-.037.046-.064.07.2,0-.014.162.13.178l-.032.011a1.07,1.07,0,0,0,.371.517c.089.073.061.294.221.324.034,0,.048-.046.073-.048s-.039.046-.043.071c.1-.02.109.109.178.153.025-.02.05-.016.068-.057,0,.16.2.07.244.193.041-.164.086-.057.13-.082.014.012,0,.053-.018.08a.217.217,0,0,1,.178.084c.043,0,.077-.091.112-.055,0,.118.091.027.125.073,0-.1.073-.168.107-.119l-.032.135c.143-.064.357.093.5-.1l.021.078c.148-.114.339-.055.43-.26a.2.2,0,0,0,.164,0,.327.327,0,0,0,.02-.2c.014-.014.055.034.077.055.066-.018.193.041.161-.1l.043.055c0-.094.011-.2.105-.178-.028-.059,0-.114-.077-.155,0-.025.091.075.057,0l.054.087a.475.475,0,0,0,.178-.332c.121.037.055-.107.148-.135-.034-.066.075-.093-.037-.178h0l.057.025a1.26,1.26,0,0,1,.116-.178c.025-.027-.025-.052-.062-.078v-.018h.032a.121.121,0,0,0-.025-.027l.016-.043.054.027c.021-.021-.016-.053-.037-.08l.013-.041h.014a.032.032,0,0,0,0-.052v-.023h0a.09.09,0,0,0,0-.025,1.921,1.921,0,0,0,.041-.337,1.285,1.285,0,0,0,.287.094Z" transform="translate(-686.847 -347.89)" fill="#eaeaea"/>
      <path id="Path_1335" data-name="Path 1335" d="M693.723,371.169Z" transform="translate(-687.032 -362.682)" fill="#eaeaea"/>
      <path id="Path_1336" data-name="Path 1336" d="M702.811,384.692l.009-.014h-.02Z" transform="translate(-694.817 -374.28)" fill="#eaeaea"/>
      <path id="Path_1337" data-name="Path 1337" d="M693.53,373.194h0l-.023-.014A.05.05,0,0,0,693.53,373.194Z" transform="translate(-686.849 -364.41)" fill="#eaeaea"/>
    </g>
  </g>
</svg>
