<svg xmlns="http://www.w3.org/2000/svg" width="84.122" height="39.102" viewBox="0 0 84.122 39.102">
  <g id="Group_4449" data-name="Group 4449" transform="translate(-70.181 -69.58)">
    <path id="Path_1224" data-name="Path 1224" d="M555.551,470.039" transform="translate(-446.808 -368.643)" fill="#dd4124"/>
    <path id="Path_1225" data-name="Path 1225" d="M483.882,479.813" transform="translate(-380.833 -377.641)" fill="#dd4124"/>
    <path id="Path_1226" data-name="Path 1226" d="M377.375,302.178v-.659c.088-.006.166-.016.243-.015,1.156.021,2.311.057,3.467.062.8,0,1.6-.036,2.393-.056.1,0,.2,0,.318,0a2.779,2.779,0,0,1,.018.658,1.046,1.046,0,0,1-.173.032c-.235,0-.471-.006-.706,0-.214.009-.429.029-.641.056a.529.529,0,0,0-.494.469,4.214,4.214,0,0,0-.074.608c-.026,1.135-.055,2.27-.061,3.406-.01,1.791,0,3.581,0,5.372q0,1.627.069,3.252c.01.245.043.489.061.734a.663.663,0,0,0,.563.639,2.51,2.51,0,0,0,.453.069c.235.013.47.006.706.009.09,0,.18,0,.276.008a.865.865,0,0,1,.032.345c0,.111,0,.222,0,.347a8.716,8.716,0,0,1-1.082-.029c-.358,0-.716-.009-1.074-.013s-.716-.007-1.074-.007-.7,0-1.044.008-.716.014-1.074.016-.71.059-1.074.04a.864.864,0,0,1-.031-.343c0-.111,0-.222,0-.347.087-.009.156-.022.224-.023.256,0,.512,0,.767-.009a1.585,1.585,0,0,0,.566-.123.687.687,0,0,0,.454-.571c.028-.2.059-.406.067-.61.03-.807.069-1.615.074-2.423.012-2.139.01-4.277.008-6.416,0-.777-.007-1.555-.03-2.332-.014-.48-.065-.959-.1-1.438a.626.626,0,0,0-.517-.606,3.467,3.467,0,0,0-.636-.084c-.245-.014-.491,0-.737-.005A1.077,1.077,0,0,1,377.375,302.178Z" transform="translate(-282.775 -213.497)" fill="#dd4124"/>
    <path id="Path_1227" data-name="Path 1227" d="M755.839,404.724h-1.452a2.61,2.61,0,0,0,.052.259,2.2,2.2,0,0,1-.172,1.695,2.891,2.891,0,0,1-.981,1.118,3.7,3.7,0,0,1-2.255.669.809.809,0,0,0-.634.231c-.111.106-.238.2-.336.313a.558.558,0,0,0,.266.964,2.073,2.073,0,0,0,.51.1c.306.02.613.029.92.024.614-.011,1.227-.041,1.84-.052a8.391,8.391,0,0,1,.857.028,1.237,1.237,0,0,1,.976.612,2.533,2.533,0,0,1,.394,1.212,3.208,3.208,0,0,1-1.152,2.691,4.271,4.271,0,0,1-1.715.924,6.2,6.2,0,0,1-3.095.086,2.924,2.924,0,0,1-1.486-.814,2.163,2.163,0,0,1-.261-2.784.646.646,0,0,1,.255-.21c.3-.158.6-.318.889-.483a1.048,1.048,0,0,0,.311-.229c-.1-.046-.195-.084-.284-.126a4.222,4.222,0,0,1-.412-.2.59.59,0,0,1-.3-.539,1.183,1.183,0,0,1,.437-.972c.265-.208.545-.4.817-.6.062-.045.144-.075.166-.184-.086-.03-.171-.057-.253-.091-.189-.076-.384-.143-.565-.235a1.874,1.874,0,0,1-1.025-1.41,2.751,2.751,0,0,1,1.328-2.905,4.725,4.725,0,0,1,2.3-.662,2.9,2.9,0,0,1,1.9.586.626.626,0,0,0,.423.136c.634-.012,1.269.016,1.9-.053.078-.009.165-.031.223.056s.013.172-.036.253C756.079,404.319,755.966,404.512,755.839,404.724Zm-3.835,6.5v-.015c-.368,0-.737,0-1.105,0a2.854,2.854,0,0,0-.337.012,1.841,1.841,0,0,0-1.354.945.751.751,0,0,0-.076.2,2.42,2.42,0,0,0-.075,1.091,1.851,1.851,0,0,0,.467.95,2.133,2.133,0,0,0,1.1.633,3.844,3.844,0,0,0,1.4.074,3.383,3.383,0,0,0,1.222-.38,2.521,2.521,0,0,0,1.147-1.275,1.979,1.979,0,0,0,.137-.993,1.54,1.54,0,0,0-.417-.9.966.966,0,0,0-.728-.34Zm-2.481-5.529.019,0c.006.122.007.246.019.367a2.373,2.373,0,0,0,.36,1.1,1.7,1.7,0,0,0,3.079-.411,2.9,2.9,0,0,0-.073-1.778,1.859,1.859,0,0,0-.19-.383,1.675,1.675,0,0,0-1.568-.838,1.576,1.576,0,0,0-1.548,1.25C749.569,405.228,749.555,405.464,749.523,405.7Z" transform="translate(-623.714 -307.068)" fill="#dd4124"/>
    <path id="Path_1228" data-name="Path 1228" d="M868.49,361.231a1.132,1.132,0,0,1-.012.441,24.391,24.391,0,0,0-2.775,0,1.2,1.2,0,0,1-.014-.183c.083-1.041.119-2.084.126-3.127,0-.542,0-1.084-.02-1.625a4.05,4.05,0,0,0-.073-.639,1.427,1.427,0,0,0-.963-1.139,2.437,2.437,0,0,0-2.524.581,1.054,1.054,0,0,0-.336.673c-.026.367-.061.734-.062,1.1,0,.972.01,1.944.02,2.916,0,.173.025.346.039.52a.312.312,0,0,0,.26.3c.2.044.4.073.6.1.161.022.324.032.483.046a1.535,1.535,0,0,1,.038.455,1.229,1.229,0,0,1-.192.023c-1.258-.06-2.516-.062-3.773,0-.05,0-.1,0-.161,0a.8.8,0,0,1-.025-.442.586.586,0,0,1,.3-.079c.2-.029.4-.057.607-.09a.384.384,0,0,0,.344-.374c.025-.244.05-.489.055-.734.01-.6.012-1.207.012-1.811q0-2.947-.007-5.894c0-.409-.035-.817-.054-1.226,0-.031,0-.061-.008-.092-.033-.24-.105-.315-.352-.347-.121-.016-.245-.019-.367-.023s-.246,0-.368,0a1.566,1.566,0,0,1-.162-.021c-.007-.09-.018-.169-.019-.248s.007-.14.012-.227c.168-.026.326-.056.486-.074a8.523,8.523,0,0,0,2-.464.308.308,0,0,1,.315-.008,5.832,5.832,0,0,1-.012.8c0,.266-.019.531-.028.8s-.02.552-.026.828-.01.552-.014.829-.008.552-.009.829,0,.532,0,.8v.86a.819.819,0,0,0,.153-.076c.279-.241.555-.484.832-.727l.208-.182a1.955,1.955,0,0,1,1.171-.483,3.558,3.558,0,0,1,1.453.166c.077.027.154.054.229.087a2.076,2.076,0,0,1,1.325,1.8,16.44,16.44,0,0,1,.047,1.962c-.01.655-.031,1.309-.034,1.964,0,.276.03.551.049.827a1.122,1.122,0,0,0,.031.181.367.367,0,0,0,.312.3c.171.029.344.048.517.068A.94.94,0,0,1,868.49,361.231Z" transform="translate(-726.249 -257.664)" fill="#dd4124"/>
    <path id="Path_1229" data-name="Path 1229" d="M478.662,410.716a1.978,1.978,0,0,1,0,.446c-.322-.01-.625-.024-.929-.029s-.634-.006-.951,0-.608.018-.929.028c0-.1-.007-.193,0-.281.073-.826.108-1.653.115-2.482.005-.644.011-1.289,0-1.933a5.132,5.132,0,0,0-.069-.732,1.513,1.513,0,0,0-1.145-1.3,2.235,2.235,0,0,0-2.388.616,1.208,1.208,0,0,0-.351.8c-.016.388-.047.776-.047,1.164,0,.961.012,1.923.022,2.884,0,.133.019.265.029.4a.352.352,0,0,0,.278.329,3.171,3.171,0,0,0,.512.082,5.053,5.053,0,0,1,.526.022,1,1,0,0,1,.009.438,8.062,8.062,0,0,1-.828-.014c-.276,0-.552-.008-.828-.012s-.532-.008-.8-.006-.552.008-.828.016-.549.018-.834.027a.929.929,0,0,1-.029-.424c.106-.077.222-.034.331-.043.193-.016.387-.024.58-.043a.608.608,0,0,0,.175-.053.325.325,0,0,0,.211-.279c.02-.2.047-.407.052-.611.036-1.575.044-3.15.005-4.725a1.756,1.756,0,0,0-.043-.332.262.262,0,0,0-.229-.218c-.131-.019-.263-.04-.395-.047-.173-.008-.348,0-.522,0a1.488,1.488,0,0,1-.154-.018,1.084,1.084,0,0,1,.007-.445c.153-.026.3-.055.451-.075a7.868,7.868,0,0,0,1.858-.509,2.361,2.361,0,0,1,.26-.091.138.138,0,0,1,.174.124,2.379,2.379,0,0,1,0,.245c0,.327-.009.655-.012.982,0,.047-.018.1.048.145.08-.008.128-.08.186-.13.3-.263.6-.525.893-.8a1.8,1.8,0,0,1,.859-.446,3.211,3.211,0,0,1,2.292.271,1.967,1.967,0,0,1,1.007,1.183,4.217,4.217,0,0,1,.128.63,9.191,9.191,0,0,1,.045,1.409c-.016.849-.029,1.7-.033,2.546,0,.265.032.53.052.8a.455.455,0,0,0,.391.447,2.681,2.681,0,0,0,.364.042A3.827,3.827,0,0,1,478.662,410.716Z" transform="translate(-367.311 -307.156)" fill="#dd4124"/>
    <path id="Path_1230" data-name="Path 1230" d="M1054.575,409.09h.485a1.785,1.785,0,0,1,.031.205c.009.255.014.511.019.767a.587.587,0,0,0,.287.512,3.239,3.239,0,0,0,2.578.477,1.664,1.664,0,0,0,.89-.569,1.3,1.3,0,0,0,.3-1.088.976.976,0,0,0-.535-.743,3.711,3.711,0,0,0-.929-.3c-.518-.118-1.036-.237-1.551-.365a3.743,3.743,0,0,1-.521-.178,2.254,2.254,0,0,1-.378-.2,1.6,1.6,0,0,1-.736-1.249,2.29,2.29,0,0,1,1.5-2.419,3.689,3.689,0,0,1,1.075-.234,5.9,5.9,0,0,1,2.69.437,7.58,7.58,0,0,1-.046.938c-.016.3-.008.609-.036.911a1.223,1.223,0,0,1-.447.013.649.649,0,0,1-.064-.363,1.122,1.122,0,0,0-.652-1.03,2.414,2.414,0,0,0-1.836-.247,1.36,1.36,0,0,0-.676.4,1.211,1.211,0,0,0-.264,1.255.819.819,0,0,0,.433.494,3.893,3.893,0,0,0,.867.3c.457.109.918.2,1.375.309.268.063.535.135.8.219a1.547,1.547,0,0,1,1.094,1.319,2.286,2.286,0,0,1-.617,2.007,3.252,3.252,0,0,1-1.889,1,5.819,5.819,0,0,1-1.8.018c-.394-.054-.785-.136-1.177-.208a1.685,1.685,0,0,1-.208-.055c-.187-.06-.216-.1-.186-.288a12,12,0,0,0,.127-1.558C1054.578,409.423,1054.575,409.271,1054.575,409.09Z" transform="translate(-906.058 -307.56)" fill="#dd4124"/>
    <path id="Path_1231" data-name="Path 1231" d="M596.576,409.084a1.586,1.586,0,0,1,.466,0c.008.074.019.142.021.211.006.235.006.47.014.706a.71.71,0,0,0,.383.62,3.373,3.373,0,0,0,2.267.47,1.7,1.7,0,0,0,1.213-.758,1.263,1.263,0,0,0,.2-.966.991.991,0,0,0-.518-.721,3.463,3.463,0,0,0-.926-.312c-.528-.12-1.057-.237-1.581-.372a3.475,3.475,0,0,1-.66-.244,1.629,1.629,0,0,1-.966-1.486,2.264,2.264,0,0,1,1.408-2.27,3.553,3.553,0,0,1,1.128-.272,5.753,5.753,0,0,1,2.727.439c0,.009.01.018.014.027a.071.071,0,0,1,.009.029c-.035.591-.071,1.182-.107,1.77a.758.758,0,0,1-.469.009c-.008-.095-.022-.194-.023-.294a1.184,1.184,0,0,0-.7-1.1,2.385,2.385,0,0,0-1.811-.218,1.286,1.286,0,0,0-.944.882,1.255,1.255,0,0,0-.015.667.831.831,0,0,0,.479.6,4.164,4.164,0,0,0,.632.232c.435.114.875.2,1.313.309.328.078.655.16.981.247a1.647,1.647,0,0,1,1.227,1.582,2.361,2.361,0,0,1-.764,1.9,3.252,3.252,0,0,1-1.757.876,5.786,5.786,0,0,1-1.833.017c-.384-.055-.765-.132-1.147-.2a1.845,1.845,0,0,1-.295-.083.17.17,0,0,1-.125-.214,11.266,11.266,0,0,0,.138-1.986A.456.456,0,0,1,596.576,409.084Z" transform="translate(-484.421 -307.548)" fill="#dd4124"/>
    <path id="Path_1232" data-name="Path 1232" d="M984.079,375.846c0-.83-.01-1.656-.054-2.494a5.4,5.4,0,0,1,.686-.33c.219-.109.441-.214.681-.33l.213.149c-.061.99-.106,1.969-.129,2.969a1.269,1.269,0,0,0,.21.033c.624-.011,1.247-.026,1.871-.04.049,0,.1,0,.169,0a6.059,6.059,0,0,1-.069.812c-.068.007-.126.019-.183.019l-1.688.005c-.09,0-.181.006-.29.01a1.813,1.813,0,0,0-.02.187c0,1.258,0,2.516.006,3.774,0,.224.029.449.049.672a.948.948,0,0,0,1.287.84,1.421,1.421,0,0,0,.309-.131c.09-.047.173-.108.268-.168.12.05.174.156.247.263a4.824,4.824,0,0,1-.331.411c-.118.141-.239.28-.356.422a.461.461,0,0,1-.223.154,2.756,2.756,0,0,1-1.512.065,1.655,1.655,0,0,1-.6-.289,1.26,1.26,0,0,1-.492-.787,3.616,3.616,0,0,1-.059-.732q.008-2.117.016-4.234c0-.111-.007-.221-.011-.345a2.708,2.708,0,0,0-.618-.011h-.627a.481.481,0,0,1-.016-.32C983.229,376.226,983.664,376.078,984.079,375.846Z" transform="translate(-840.105 -279.03)" fill="#dd4124"/>
    <path id="Path_1233" data-name="Path 1233" d="M687.262,411.058a1.6,1.6,0,0,1,.01.439.452.452,0,0,1-.108.028c-1.326-.069-2.652-.057-3.987-.007a1.06,1.06,0,0,1-.023-.135c0-.1,0-.2,0-.293a.7.7,0,0,1,.345-.082c.183-.021.366-.036.548-.062.278-.04.328-.088.379-.356a2,2,0,0,0,.037-.3c.056-1.646.091-3.291.018-4.938-.02-.454-.193-.557-.554-.559-.244,0-.488-.008-.737-.013a.972.972,0,0,1-.023-.467,1.563,1.563,0,0,1,.512-.1,8.849,8.849,0,0,0,1.949-.526c.029-.011.056-.025.085-.035.2-.062.318.031.3.238-.073,1.1-.079,2.207-.094,3.312,0,.327-.015.654-.017.981,0,.726,0,1.452.071,2.176.038.413.152.524.566.589.151.024.3.041.455.064C687.088,411.021,687.176,411.041,687.262,411.058Z" transform="translate(-564.27 -307.508)" fill="#dd4124"/>
    <g id="Group_4447" data-name="Group 4447" transform="translate(70.181 69.58)">
      <path id="Path_1234" data-name="Path 1234" d="M79.247,69.58c.044.1.084.179.12.262q1.746,4.057,3.49,8.114,1.23,2.859,2.464,5.718c.077.178.161.354.248.527a2.66,2.66,0,0,0,.186.317,1,1,0,0,0,.733.452c.2.024.407.044.61.065l.155.017a.852.852,0,0,1,.031.338c0,.111,0,.223,0,.331a.56.56,0,0,1-.345.035c-.521-.014-1.043-.045-1.564-.051-1.166-.013-2.332-.017-3.5.042-.223.011-.448,0-.684,0a2.437,2.437,0,0,1-.016-.7c.383-.026.739-.047,1.095-.075a5.151,5.151,0,0,0,.547-.066.376.376,0,0,0,.326-.516,2.829,2.829,0,0,0-.118-.381c-.472-1.209-.946-2.417-1.423-3.633a1.421,1.421,0,0,0-.184-.024q-3.1,0-6.2,0c-.04,0-.081.006-.136.01a1.079,1.079,0,0,0-.072.126c-.387.935-.777,1.869-1.157,2.807-.1.246-.176.5-.251.757a.957.957,0,0,0-.04.454.332.332,0,0,0,.24.289,4.066,4.066,0,0,0,.508.11c.374.052.751.091,1.139.137a2.307,2.307,0,0,1,.023.709c-.366.019-.709-.049-1.054-.046s-.7-.008-1.043-.01-.716,0-1.074,0-.7,0-1.043.016-.692.034-1.045.052a2.34,2.34,0,0,1-.021-.68c.08-.066.165-.043.243-.049.265-.022.53-.04.794-.065a.7.7,0,0,0,.552-.345c.092-.147.178-.3.255-.454.731-1.475,1.405-2.977,2.069-4.483q1.471-3.34,2.946-6.679c.473-1.076.939-2.156,1.353-3.256.021-.056.047-.111.075-.175ZM78.359,72.7c-.111.072-.125.181-.163.272q-.773,1.836-1.54,3.674c-.343.82-.688,1.639-1.029,2.46-.036.087-.113.173-.063.281.306.041,3.309.056,5.339.026.07,0,.14-.011.207-.017.006-.032.019-.055.012-.071Q79.744,76.012,78.359,72.7Z" transform="translate(-70.181 -69.58)" fill="#dd4124"/>
      <path id="Path_1235" data-name="Path 1235" d="M859.928,131.22l-.642.581-.252-.084a.427.427,0,0,1-.021-.1c.028-.367.064-.734.085-1.1s.044-.756.045-1.134c0-1.995.008-3.99,0-5.985,0-.7-.043-1.39-.071-2.085a2.225,2.225,0,0,0-.053-.364c-.041-.2-.1-.256-.309-.28-.182-.02-.367-.017-.551-.028a.917.917,0,0,1-.4-.039v-.409c.107-.02.206-.043.3-.056a8.915,8.915,0,0,0,2.233-.521c.295-.118.37.05.366.256a3.712,3.712,0,0,1-.046.457,9.733,9.733,0,0,0-.07,1.378q-.006,1.765-.007,3.529c0,.07.006.141.009.2.069.044.1,0,.137-.035.224-.225.453-.444.669-.677a2.773,2.773,0,0,1,1.884-.846,2.892,2.892,0,0,1,.974.08,2.813,2.813,0,0,1,2.1,2.066,4.308,4.308,0,0,1-.141,2.77,5.621,5.621,0,0,1-.25.559,2.914,2.914,0,0,1-.892,1.076c-.5.359-.993.721-1.492,1.078a2.249,2.249,0,0,1-1.356.414,6.31,6.31,0,0,1-.765-.038,2.862,2.862,0,0,1-1.19-.465C860.136,131.359,860.044,131.3,859.928,131.22Zm.618-3h0c0,.532,0,1.064,0,1.6a.676.676,0,0,0,.242.54,2.6,2.6,0,0,0,1.745.721,2.112,2.112,0,0,0,1.906-1.025,3.712,3.712,0,0,0,.47-1.094,4.982,4.982,0,0,0,.109-1.676,3.233,3.233,0,0,0-.289-1.123,2.039,2.039,0,0,0-1.175-1.106,2.353,2.353,0,0,0-2.658.74,1.372,1.372,0,0,0-.354.924C860.55,127.221,860.546,127.722,860.546,128.223Z" transform="translate(-795.185 -115.602)" fill="#dd4124"/>
      <path id="Path_1236" data-name="Path 1236" d="M635.518,180.724a1.041,1.041,0,0,1-.019.476c-.278-.01-.552-.022-.825-.029s-.552-.012-.829-.015-.532,0-.8,0-.553,0-.829.011-.548.02-.826.03a1.067,1.067,0,0,1-.02-.443.948.948,0,0,1,.338-.029c.183-.012.369-.007.549-.037.318-.053.406-.148.422-.463.029-.572.058-1.145.061-1.717.005-1.146-.006-2.292-.013-3.438a2.119,2.119,0,0,0-.031-.335.3.3,0,0,0-.283-.276c-.152-.015-.3-.036-.457-.042-.183-.007-.367,0-.558,0a.785.785,0,0,1-.012-.464c.167-.027.326-.057.487-.079a7.674,7.674,0,0,0,1.8-.494,2.345,2.345,0,0,1,.29-.1.138.138,0,0,1,.173.127,1.744,1.744,0,0,1,0,.214c-.005.338-.012.675-.016,1.013,0,.04.007.08.014.146a.6.6,0,0,0,.135-.064c.278-.242.57-.471.825-.735a2.224,2.224,0,0,1,1.447-.656,3.272,3.272,0,0,1,1.652.241,2.389,2.389,0,0,1,.776.54,2,2,0,0,1,.513,1.029,5.567,5.567,0,0,1,.1,1.1c0,.532-.02,1.064-.025,1.6-.006.563-.011,1.126-.005,1.688,0,.245.032.49.053.734a.454.454,0,0,0,.4.437,2.174,2.174,0,0,0,.334.035c.152.006.305,0,.467,0a.932.932,0,0,1,.014.471,23.054,23.054,0,0,0-2.786,0,1.528,1.528,0,0,1-.017-.209c.024-.429.053-.858.078-1.286.062-1.063.056-2.127.045-3.191a5.21,5.21,0,0,0-.071-.763,1.548,1.548,0,0,0-1.011-1.25,2.318,2.318,0,0,0-2.447.495,1.326,1.326,0,0,0-.426.891c-.014.378-.043.756-.043,1.134,0,.962.007,1.924.015,2.886,0,.142.023.285.036.427a.337.337,0,0,0,.26.309,2.453,2.453,0,0,0,.48.083C635.12,180.734,635.3,180.724,635.518,180.724Z" transform="translate(-586.774 -165.036)" fill="#dd4124"/>
      <path id="Path_1237" data-name="Path 1237" d="M763.066,181.437a2.389,2.389,0,0,1-.023-.676,3.694,3.694,0,0,0-.039-.694c-.066.042-.118.069-.163.1-.473.359-.949.713-1.415,1.08a1.583,1.583,0,0,1-1.05.357,3.262,3.262,0,0,1-1.03-.13,1.68,1.68,0,0,1-1.2-1.513,2.709,2.709,0,0,1,.106-1.122,2.286,2.286,0,0,1,1.4-1.493,7.714,7.714,0,0,1,1.3-.359c.64-.133,1.283-.253,1.925-.379.039-.008.077-.022.13-.037a1.324,1.324,0,0,0,.02-.176,2.661,2.661,0,0,0-.132-.784,1.61,1.61,0,0,0-1.053-1.078,2.543,2.543,0,0,0-2,.131.5.5,0,0,0-.279.3c-.086.251-.191.5-.289.743-.022.055-.05.107-.081.17a2.209,2.209,0,0,1-.444-.121v-1.109s.038-.024.074-.043c.43-.237.852-.488,1.291-.708a3.583,3.583,0,0,1,2.54-.235,2.284,2.284,0,0,1,.7.3,1.942,1.942,0,0,1,.96,1.493c.05.55.078,1.1.094,1.653.023.818.024,1.637.038,2.455,0,.245.021.491.032.736,0,.061,0,.123.011.184.032.283.147.393.437.412.122.008.245,0,.368,0,.08,0,.16.009.249.014a1.384,1.384,0,0,1,.013.508c-.283.021-.555-.026-.827-.024s-.553-.006-.829,0S763.348,181.426,763.066,181.437ZM763,177.113a.754.754,0,0,0-.142,0,15.009,15.009,0,0,0-1.978.541,4.607,4.607,0,0,0-.588.259,1.336,1.336,0,0,0-.681.9,1.937,1.937,0,0,0-.032.791,1.184,1.184,0,0,0,1.163,1.022,2.218,2.218,0,0,0,1.171-.3,3.874,3.874,0,0,0,1.021-.917.491.491,0,0,0,.1-.343c-.005-.613-.008-1.227-.012-1.84A.8.8,0,0,0,763,177.113Z" transform="translate(-703.47 -165.282)" fill="#dd4124"/>
      <path id="Path_1238" data-name="Path 1238" d="M524.963,181.571a3.448,3.448,0,0,1-1.208-.161,3.329,3.329,0,0,1-2.11-1.919,4.634,4.634,0,0,1-.249-3.034,3.689,3.689,0,0,1,2.87-2.8,4.464,4.464,0,0,1,2.6.1,3.322,3.322,0,0,1,2.286,2.684,4.641,4.641,0,0,1-.082,2.128,3.992,3.992,0,0,1-2.717,2.807A3.785,3.785,0,0,1,524.963,181.571Zm2.717-3.606a6.7,6.7,0,0,0-.119-1.281,4.131,4.131,0,0,0-.547-1.455,2.18,2.18,0,0,0-2.081-1.1,1.981,1.981,0,0,0-1.8,1.222,3.385,3.385,0,0,0-.3,1.213,6.593,6.593,0,0,0,.079,1.558,4.905,4.905,0,0,0,.653,1.772,2.135,2.135,0,0,0,1.75,1.085,1.974,1.974,0,0,0,1.76-.743,2.387,2.387,0,0,0,.435-.872A5.342,5.342,0,0,0,527.68,177.965Z" transform="translate(-485.412 -165.25)" fill="#dd4124"/>
      <path id="Path_1239" data-name="Path 1239" d="M1046.527,177.329a4.96,4.96,0,0,1-.836.156,15.1,15.1,0,0,1-1.594.067c-.9.008-1.8.01-2.7.014h-.285a.975.975,0,0,0-.03.193,4.155,4.155,0,0,0,.3,1.433,2.552,2.552,0,0,0,2.241,1.614,3.726,3.726,0,0,0,2.286-.555c.1-.056.193-.107.278-.153.094.044.143.1.115.179-.063.183-.133.365-.2.547-.032.086-.111.116-.182.155a5.84,5.84,0,0,1-1.4.544,5.359,5.359,0,0,1-1.829.126,3.38,3.38,0,0,1-3.026-2.564,5.5,5.5,0,0,1-.138-1.766,4.752,4.752,0,0,1,.353-1.516,2.71,2.71,0,0,1,.834-1.119,4.949,4.949,0,0,1,1.96-.977,3.518,3.518,0,0,1,2.024.115,2.673,2.673,0,0,1,1.761,2.008,4.253,4.253,0,0,1,.091,1.4A.516.516,0,0,1,1046.527,177.329Zm-1.487-.393a3.786,3.786,0,0,0-.2-1.632,1.6,1.6,0,0,0-.938-.95,2.141,2.141,0,0,0-.992-.134,1.708,1.708,0,0,0-.933.346,2.017,2.017,0,0,0-.711,1.081,4.672,4.672,0,0,0-.168,1.209c0,.017.016.035.032.069.049.007.107.019.166.022,1.133.063,2.266.062,3.4.031C1044.81,176.976,1044.92,176.952,1045.041,176.936Z" transform="translate(-962.506 -165.345)" fill="#dd4124"/>
      <path id="Path_1240" data-name="Path 1240" d="M981.422,131.358a1.168,1.168,0,0,1-.013.45c-1.332-.063-2.658-.047-3.993.008a.805.805,0,0,1-.023-.453,2.031,2.031,0,0,1,.521-.075c.142-.015.284-.032.424-.058a.351.351,0,0,0,.308-.364c.021-.419.059-.838.06-1.256q.006-3.806,0-7.613c0-.276-.009-.553-.03-.828-.023-.311-.077-.369-.385-.412-.171-.024-.347-.015-.52-.022a1.421,1.421,0,0,1-.374-.024,1.043,1.043,0,0,1,.01-.46l.883-.129a6.906,6.906,0,0,0,1.652-.451c.028-.012.056-.027.085-.036a.154.154,0,0,1,.209.15c0,.082,0,.164-.008.245-.074,1.164-.116,2.33-.117,3.5q0,2.7,0,5.4,0,.66.021,1.32c.006.214.038.428.049.642a.315.315,0,0,0,.278.317c.18.037.363.057.546.078A1.558,1.558,0,0,1,981.422,131.358Z" transform="translate(-905.297 -115.651)" fill="#dd4124"/>
      <path id="Path_1241" data-name="Path 1241" d="M390.208,146.761c-.435-.022-.841.033-1.265.022-.007-.062-.015-.11-.016-.158s0-.1.008-.168l1.24-.546a.6.6,0,0,0,.043-.349c-.014-.614-.034-1.227-.05-1.84,0-.112,0-.224,0-.356l1.361-.639.2.142c-.027.5-.061,1-.081,1.5s-.027.978-.04,1.477a3.4,3.4,0,0,0,.746.03c.245,0,.491-.006.736-.012s.487-.015.745-.023a1.177,1.177,0,0,1,0,.4c-.01.132-.034.263-.054.406-.078.007-.147.019-.217.019-.563,0-1.125,0-1.688,0-.079,0-.159.012-.246.018a1.759,1.759,0,0,0-.022.194c0,1.269,0,2.537.012,3.806a5.089,5.089,0,0,0,.055.7.948.948,0,0,0,1.291.763,1.365,1.365,0,0,0,.462-.236,1.2,1.2,0,0,1,.107-.061.833.833,0,0,1,.243.26c-.064.08-.124.16-.188.237-.164.2-.329.392-.492.588a.463.463,0,0,1-.22.159,2.733,2.733,0,0,1-1.571.054,1.87,1.87,0,0,1-.42-.184,1.276,1.276,0,0,1-.662-1.108c-.02-.378-.012-.757-.011-1.135q0-1.888.007-3.776C390.22,146.9,390.214,146.852,390.208,146.761Z" transform="translate(-363.603 -136.916)" fill="#dd4124"/>
      <path id="Path_1242" data-name="Path 1242" d="M302.1,174.12l-.225,2.151a1.5,1.5,0,0,1-.456.013c-.011-.073-.026-.14-.031-.207-.012-.184-.018-.368-.031-.551a.729.729,0,0,0-.4-.613,3.017,3.017,0,0,0-1.187-.386,3.079,3.079,0,0,0-1.068.053,1.909,1.909,0,0,0-1.344,1.112,2.807,2.807,0,0,0-.237.917,5.556,5.556,0,0,0,.115,1.86,3.632,3.632,0,0,0,.659,1.372,2.561,2.561,0,0,0,2.189,1.026,3.924,3.924,0,0,0,1.431-.3l.382-.161.2.162a.353.353,0,0,1-.022.1c-.34.53-.192.431-.777.682a4.436,4.436,0,0,1-1.76.364,5.181,5.181,0,0,1-1.248-.12,3.215,3.215,0,0,1-2.456-2.365,4.7,4.7,0,0,1-.17-1.64,4.39,4.39,0,0,1,.325-1.49,2.993,2.993,0,0,1,1.146-1.365,9.865,9.865,0,0,1,1.545-.813,4.024,4.024,0,0,1,1.929-.238,3.948,3.948,0,0,1,1.326.355C301.993,174.06,302.046,174.091,302.1,174.12Z" transform="translate(-277.743 -165.388)" fill="#dd4124"/>
      <path id="Path_1243" data-name="Path 1243" d="M462.192,181.038v.452a7.139,7.139,0,0,1-.829-.017c-.266,0-.532-.008-.8-.01s-.553,0-.829,0-.532,0-.8.01-.549.019-.827.029a.9.9,0,0,1-.032-.433.8.8,0,0,1,.358-.082c.193-.022.387-.039.579-.068.21-.032.312-.116.33-.336.014-.163.043-.325.047-.488.017-.706.021-1.412.042-2.117.026-.849-.006-1.7-.03-2.546a2.2,2.2,0,0,0-.021-.306.366.366,0,0,0-.342-.338,2.074,2.074,0,0,0-.306-.018c-.2,0-.408,0-.616,0a.9.9,0,0,1-.041-.471,1.2,1.2,0,0,1,.2-.062,9.083,9.083,0,0,0,2.282-.577.875.875,0,0,1,.115-.043.2.2,0,0,1,.263.207c0,.061,0,.123-.009.184-.063.868-.062,1.738-.078,2.607-.012.614-.034,1.227-.031,1.841,0,.562.031,1.125.055,1.687a2.458,2.458,0,0,0,.061.424.36.36,0,0,0,.278.3c.2.044.4.079.6.115C461.937,181,462.057,181.017,462.192,181.038Z" transform="translate(-427.252 -165.344)" fill="#dd4124"/>
      <path id="Path_1244" data-name="Path 1244" d="M472.962,127.9a.909.909,0,0,1,.906.927.922.922,0,1,1-.906-.927Z" transform="translate(-440.098 -123.269)" fill="#dd4124"/>
    </g>
    <g id="Group_4448" data-name="Group 4448" transform="translate(115.968 88.84)">
      <path id="Path_1245" data-name="Path 1245" d="M747.794,383.081a.085.085,0,0,0-.022.028C747.782,383.106,747.791,383.1,747.794,383.081Z" transform="translate(-739.724 -377.434)" fill="#dd4124"/>
      <path id="Path_1246" data-name="Path 1246" d="M746.783,383.432c-.02.005-.047,0-.059.023-.016,0,0-.032-.025-.019-.011.031.04.038.086.021h0A.021.021,0,0,1,746.783,383.432Z" transform="translate(-738.735 -377.757)" fill="#dd4124"/>
      <path id="Path_1247" data-name="Path 1247" d="M747.849,383.748l.008.007S747.854,383.75,747.849,383.748Z" transform="translate(-739.795 -378.048)" fill="#dd4124"/>
      <path id="Path_1248" data-name="Path 1248" d="M735.2,388.583a.061.061,0,0,0-.024.01A.063.063,0,0,0,735.2,388.583Z" transform="translate(-728.126 -382.499)" fill="#dd4124"/>
      <path id="Path_1249" data-name="Path 1249" d="M755.744,377.289a.048.048,0,0,0-.006-.011Z" transform="translate(-747.058 -372.092)" fill="#dd4124"/>
      <path id="Path_1250" data-name="Path 1250" d="M660.3,365.422h0Z" transform="translate(-659.207 -361.177)" fill="#dd4124"/>
      <path id="Path_1251" data-name="Path 1251" d="M701.928,345.062h0Z" transform="translate(-697.521 -342.435)" fill="#dd4124"/>
      <path id="Path_1252" data-name="Path 1252" d="M670.054,355.031l-.007.006C670.05,355.043,670.052,355.039,670.054,355.031Z" transform="translate(-668.175 -351.612)" fill="#dd4124"/>
      <path id="Path_1253" data-name="Path 1253" d="M725.817,390.624a.019.019,0,0,0,0,.007A.021.021,0,0,0,725.817,390.624Z" transform="translate(-719.51 -384.377)" fill="#dd4124"/>
      <path id="Path_1254" data-name="Path 1254" d="M758.752,372.228l0,.02A.042.042,0,0,0,758.752,372.228Z" transform="translate(-749.832 -367.443)" fill="#dd4124"/>
      <path id="Path_1255" data-name="Path 1255" d="M728.626,390.056l.007-.006Z" transform="translate(-722.1 -383.849)" fill="#dd4124"/>
      <path id="Path_1256" data-name="Path 1256" d="M655.8,371.81V371.8A.018.018,0,0,0,655.8,371.81Z" transform="translate(-655.06 -367.053)" fill="#dd4124"/>
      <path id="Path_1257" data-name="Path 1257" d="M758.788,374.8s0,.008,0,.012S758.791,374.8,758.788,374.8Z" transform="translate(-749.865 -369.812)" fill="#dd4124"/>
      <path id="Path_1258" data-name="Path 1258" d="M663.068,342.354a4.875,4.875,0,0,0-1.66-.615c.029.018-.008.03-.038.029l-.006-.011-.05.016c-.044-.005-.02-.032.017-.03-.233-.042-.443-.058-.67-.086-.018.034-.119-.009-.13.029-.01-.008,0-.009.007-.016a.556.556,0,0,1-.312-.043,7.035,7.035,0,0,0-1.819.121,5.2,5.2,0,0,0-1.739.693c-.054.1-.181.156-.242.268l0-.018c-.061.083-.1.073-.208.15.013.015-.032.038.005.048-.01.051-.089.027-.122.086-.01-.006.016.011,0,.016-.072.159,0-.042-.151.118a1.49,1.49,0,0,0-.2.9c0-.015.022-.021.026.005-.05.039.03.1.025.153-.012,0-.022-.025-.03-.038a1.355,1.355,0,0,0,.13.359c.078.1.126.232.2.275-.029,0,.023.05.033.076.1.018.15.179.261.212l-.01.006a2.82,2.82,0,0,0,.844.471,2.592,2.592,0,0,0,.533.219c.037,0,.014-.019.043-.016.047.015-.006.018.01.031a2.076,2.076,0,0,1,.331.093c.016-.007.05,0,.042-.02.121.073.311.053.44.1-.038-.063.084-.015.133-.022.026.006.027.02.018.03a1.419,1.419,0,0,1,.273.042c.057,0,.075-.029.141-.014.038.042.14.014.205.031-.014-.034.071-.055.135-.037l-.022.046a3.963,3.963,0,0,0,.758-.032l.019.026a4.161,4.161,0,0,0,.738-.117,1.044,1.044,0,0,0,.236-.013.479.479,0,0,0,.167-.09.092.092,0,0,1,.07.016c.11-.016.224,0,.3-.068l.009.021a.768.768,0,0,1,.3-.112c.02-.028.113-.066.061-.078.036-.016.037.03.066-.007l-.025.044a2.468,2.468,0,0,0,.573-.262c.075.009.182-.1.3-.142.05-.056.173-.1.188-.172l.016.016c.081-.054.184-.135.284-.217.059-.048.034-.072.064-.123l.02.013a.156.156,0,0,0,.012-.127c.042-.028.034-.041.073-.072a.328.328,0,0,0-.018.138c.06-.056.056-.157.113-.177.039-.052.059-.1.038-.122.009,0,.029-.027.027,0a.249.249,0,0,0,.031-.109c0,.009-.012.021-.016.031-.011-.031,0-.077-.031-.079,0,.026.006.03-.009.058a.106.106,0,0,1,.031-.11c.032-.016.02.066.047.034a1.108,1.108,0,0,0-.021-.129c0,.026-.022.05-.038.035l0,.053-.024-.01c-.018.084-.063.128-.087.215l.039-.018c-.024.046-.019.113-.073.136.006-.025-.015-.018-.027-.025,0,.012,0,.029-.013.038l-.017-.033c.018.051-.071.116-.078.137l0-.011c-.064.046.029.006-.006.046s-.047-.018-.087,0c-.048.058-.125.172-.214.2a2.019,2.019,0,0,0-.142.159c-.052.036-.022-.039-.064.012,0-.016-.019-.025-.031-.034,0,.018-.1.059-.037.066-.081.041-.172.088-.253.138.027-.017.022-.046-.008-.046a.318.318,0,0,1-.166.12c.013.026.037.014.041.043-.009.009-.022.029-.041.035-.023-.022-.038-.065-.1-.038,0-.051.115-.043.066-.072a.22.22,0,0,1,.163-.1c.037-.065-.046.019-.053-.022-.05.026-.064.058-.143.1.007.019.036.01,0,.041-.057.069-.1.013-.121.018.009-.009.023-.016.032-.025-.053.008-.06.038-.113.057-.033-.044.08-.037.087-.076l-.051-.021c-.08.026-.005.049-.092.068l0-.021-.047.03c.006.019.028.044.07.023-.011.059-.038.022-.105.056-.013.036.029-.013.04.014s-.033.041-.067.058c-.059.02-.04-.02-.07-.031.01-.008.054-.027.054-.009.062-.054-.051-.046-.008-.083-.059,0-.047.034-.072.052.017,0,0,.031.016.037-.073.105-.079-.034-.167.006.035.043-.106.1-.022.138a.152.152,0,0,1-.071.036c.016-.04-.049-.015-.013-.058l-.035.009.041-.053c-.044-.012-.113-.019-.137-.03-.046.028.023.028-.032.051.016-.023-.023-.028-.048-.021.054,0,.012.047-.019.063-.051.012-.1-.011-.093-.02l.036-.033c-.023.02-.015-.014-.048,0-.007.021-.024.055-.032.081-.031.015-.059-.006-.07,0l.048-.031c-.066.021-.025-.048-.092-.022l-.013.03c-.011,0-.019-.008-.017-.017-.013.014-.045.018-.059.027l-.008-.017c-.027.016-.057.061-.1.034.035.037.036-.006.089,0,.037.026-.045.038-.056.044,0-.046-.076.009-.112.014-.023-.014-.042-.019-.056-.026l-.01.032c-.021-.056-.069.024-.112.011.018-.021.013-.043-.017-.048.044.039-.056.061-.041.089-.075-.007.011-.057-.014-.085-.032.038-.083-.013-.1.033.054.009-.005.029-.015.048-.067,0,.009-.02-.039-.031-.027.009-.061.046-.016.054-.04-.006-.08.04-.126.016-.02-.026.081-.019.054-.036-.093,0-.041.071-.127.085.038.012.006.063-.036.082-.1-.006.041-.019,0-.052l-.038.008c-.056-.044.109-.085.055-.121l-.04.019c.008-.014.02-.039,0-.051-.008.035-.1.014-.1.021-.007.029.033-.009.027.013-.043.009-.061.057-.13.042.036-.021-.015-.038,0-.054-.033-.011-.009.034-.057.019l0-.017a1.594,1.594,0,0,0-.547.061c-.027-.028-.083-.033-.169-.059.038.011,0,.029-.023.031l-.04-.036a.268.268,0,0,0-.168.016.041.041,0,0,1-.011-.025c-.043-.026-.049.014-.067.019l-.027-.026-.009.022c-.047.007-.107-.005-.1-.041-.018,0-.037.009-.016.023a.652.652,0,0,0-.248-.045c.037.016.032.026.031.049-.018.036-.017-.011-.053.006,0-.014-.033-.035.008-.039a1.64,1.64,0,0,0-.388-.1c-.028,0-.022.009-.037.015-.075-.057-.188-.043-.273-.085.016.021-.025.058-.076.043-.064.015-.01-.048-.053-.082a.2.2,0,0,1-.094-.012l0-.005a.141.141,0,0,1-.115-.026h.006c-.028-.013-.054-.044-.085-.051-.024.024-.089-.023-.117,0,0,0,0,0,0-.013l-.012.023-.053-.037c.016,0,.024-.013.043-.013-.055-.041-.03.014-.068.012s-.038-.024-.055-.043c.023,0,.029.019.042.02.032-.009-.023-.019-.018-.033s-.025.022-.054,0-.092-.038-.073-.059c-.029,0-.055-.013-.078-.01.02.015.057.041.054.059-.022-.006-.065-.018-.065-.032h.019c-.019,0-.073-.038-.055,0l-.024-.053c-.025.011-.066-.011-.1-.026.013-.026.054-.039,0-.079l-.066-.005c-.029-.013-.032-.023-.019-.036-.081-.07-.137.008-.192-.063.049-.007.026-.026,0-.056a.023.023,0,0,1-.028,0c0,.019.032-.006.043.029,0,.022-.037-.009-.055-.013-.016-.1-.185-.168-.243-.279-.024.034-.044-.031-.071-.038.036-.022-.05-.045-.049-.087l-.022.04c-.027-.07-.122-.061-.107-.125-.011-.042.033,0,.049.005.008-.068-.108-.108-.08-.171-.017,0-.035.029-.07-.009,0-.044,0-.122.009-.117-.015-.028-.031-.033-.024-.069.012,0,.016.014.024.023a.363.363,0,0,0-.047-.137c.028-.031.01-.123.035-.18-.034-.039.03-.093-.017-.108,0,0,.013,0,.017-.006-.008-.025-.036-.053-.029-.083l.028.019c.036.018.036-.064.055-.075-.028.007.016-.032,0-.044l.005-.036c.016-.055-.013-.013.018-.078.018-.036.04.008.03.018a.175.175,0,0,0,.055-.089.117.117,0,0,0,.025-.03s0,0,.007-.009a.051.051,0,0,1,.023-.019l.015.024c.016-.018.034-.089.025-.1a1.621,1.621,0,0,0,.226-.238c-.007.014,0,.022,0,.006.022-.027.04-.067.053-.056.02-.029.036-.005.078-.034,0,0,0-.014-.012-.017.089-.023.147-.133.25-.166-.007.006-.01.025-.013.037a1.279,1.279,0,0,0,.175-.16c0,.014.006.023-.008.038a.29.29,0,0,0,.119-.095c-.04.006,0,.014-.02.024-.047,0,.009-.056.046-.067l0,0c.051-.026.048-.038.1-.061.038,0-.025.019-.005.028.029.033.129-.027.143-.026s.025-.027.018-.037c.038-.026.028.016.056,0,.028-.04.059-.076.089-.114,0,.012.049.02.019.046a.569.569,0,0,0,.169-.14,1.412,1.412,0,0,0,.142-.054c.021.016-.026.006-.028.024l.053.012c-.059.021.018.036-.01.061a.812.812,0,0,1,.236-.054c-.062-.035.092-.046.08-.085.084-.027.05.024.085.026a1.525,1.525,0,0,1,.254-.058.009.009,0,0,1,0,.009,1.2,1.2,0,0,0,.267-.081c0,.009.006.016-.013.026.083,0,.008-.058.105-.043l-.019.024c.056-.027.115.006.179-.034,0,.011-.011.016-.02.023a.576.576,0,0,0,.179-.05c.009.013,0,.026-.021.037.062.011.063-.043.119-.033.014,0,.039.013.039.017a.569.569,0,0,1,.139-.033c.008.013.031.018.066.031.3-.012.615,0,.919-.015.047.046-.073.022-.042.054,0-.037.052-.008.144-.011l0,.006c.04,0,.06.021.1.014v-.01c.047-.019.093.058.122.014l.031.03c.049-.036.068.023.126-.005l-.007.006c.07.028.158-.023.18.016.063,0,.135.008.153-.021.011.015,0,.033-.012.041.233.026.485.1.7.116.008.01-.006.011-.014.016.137,0,.241.12.356.086l.043-.016c.025.023.015.041.033.06.032-.01.113.041.138.022.008.017-.012.012-.015.021.053.029.135.018.183.052l-.022,0c.255.174.546.413.768.534.056.039-.007.05.017.068.226.143.322.442.45.646a.5.5,0,0,0,.149.245,1.961,1.961,0,0,0-.627-1.224C663.36,342.534,663.183,342.436,663.068,342.354Zm-6.878.92a.012.012,0,0,0,.012,0C656.193,343.285,656.188,343.288,656.19,343.273Zm.012,0a.222.222,0,0,1,.018-.036l0,0C656.214,343.252,656.207,343.264,656.2,343.272Zm.043-.078a.061.061,0,0,1,.013-.024Z" transform="translate(-655 -339.257)" fill="#dd4124"/>
      <path id="Path_1259" data-name="Path 1259" d="M693.511,396.2l.006,0-.037,0Z" transform="translate(-689.746 -389.505)" fill="#dd4124"/>
      <path id="Path_1260" data-name="Path 1260" d="M657.459,377.573v0l-.02-.023A.073.073,0,0,0,657.459,377.573Z" transform="translate(-656.567 -372.339)" fill="#dd4124"/>
      <path id="Path_1261" data-name="Path 1261" d="M647.4,323.983l0-.006Z" transform="translate(-647.324 -323.025)" fill="#dd4124"/>
      <path id="Path_1262" data-name="Path 1262" d="M658.956,334.692h0S658.952,334.695,658.956,334.692Z" transform="translate(-657.961 -332.889)" fill="#dd4124"/>
      <path id="Path_1263" data-name="Path 1263" d="M659.649,334.791h0Z" transform="translate(-658.603 -332.98)" fill="#dd4124"/>
      <path id="Path_1264" data-name="Path 1264" d="M657.451,333.439v0Z" transform="translate(-656.578 -331.736)" fill="#dd4124"/>
      <path id="Path_1265" data-name="Path 1265" d="M647.089,321.676l0,0Z" transform="translate(-647.041 -320.905)" fill="#dd4124"/>
      <path id="Path_1266" data-name="Path 1266" d="M654.381,327.014l0,0,0,0Z" transform="translate(-653.75 -325.821)" fill="#dd4124"/>
      <path id="Path_1267" data-name="Path 1267" d="M659.654,334.708l.007,0C659.663,334.7,659.657,334.706,659.654,334.708Z" transform="translate(-658.607 -332.897)" fill="#dd4124"/>
      <path id="Path_1268" data-name="Path 1268" d="M657.9,333.619h0Z" transform="translate(-656.99 -331.902)" fill="#dd4124"/>
      <path id="Path_1269" data-name="Path 1269" d="M658.108,330.433h.005S658.111,330.431,658.108,330.433Z" transform="translate(-657.184 -328.967)" fill="#dd4124"/>
      <path id="Path_1270" data-name="Path 1270" d="M646.526,321.824l0,0Z" transform="translate(-646.519 -321.044)" fill="#dd4124"/>
      <path id="Path_1271" data-name="Path 1271" d="M648.812,326.41l0,0Z" transform="translate(-648.623 -325.265)" fill="#dd4124"/>
      <path id="Path_1272" data-name="Path 1272" d="M647.112,324.061s-.01.017,0,.011-.014.011-.012.016a.057.057,0,0,0,.023-.036h0A.05.05,0,0,1,647.112,324.061Z" transform="translate(-647.051 -323.093)" fill="#dd4124"/>
      <path id="Path_1273" data-name="Path 1273" d="M649.081,326.673l0,0Z" transform="translate(-648.871 -325.507)" fill="#dd4124"/>
      <path id="Path_1274" data-name="Path 1274" d="M646.723,322.717l-.005,0Z" transform="translate(-646.699 -321.866)" fill="#dd4124"/>
      <path id="Path_1275" data-name="Path 1275" d="M647.144,324.167a.016.016,0,0,0,.009,0S647.151,324.162,647.144,324.167Z" transform="translate(-647.091 -323.197)" fill="#dd4124"/>
      <path id="Path_1276" data-name="Path 1276" d="M647.218,322.449c.018-.021.011,0,.02-.006-.02.02.01,0,0,.018l.017-.022c0,.019.04-.02.022.009,0,.01-.015.014-.02.016-.015.027.032,0,.013.024.008-.008.019-.023.031-.026,0,.013-.007.031-.011.033s.014-.006.011,0a.015.015,0,0,1-.011.005c0,.011.014.006.025,0-.011.019.006.02,0,.034.021-.016,0,.018.027-.006l-.006.008c.009-.005.026-.018.03-.017l-.016.016c-.019.018,0,.012,0,.021.009-.013,0,0,.014-.007l.008,0c.01,0,.008-.007.017,0s-.016.02-.016.016c0,.012,0,.01.01.01s0,0,0-.005l0,.005h0a.005.005,0,0,0,0,.005s0,0,0,0a.005.005,0,0,1,0,.006l-.013.012s.022-.005.027-.011c0,.02.025.025.038.024,0,0-.009.006,0,0s.02-.007.012,0c.008,0-.005.012,0,.018l.009-.01c-.006.024.031,0,.03.025l-.014.01a.087.087,0,0,0,.047-.007.1.1,0,0,1-.016.013.019.019,0,0,0,.021,0h0c.007-.015.025-.02.025-.014l0,0c.006.005.012,0,.018,0s-.006,0-.012.01,0,.024,0,.028a.044.044,0,0,0,.015-.011c.009,0-.009.014-.005.016l.049-.029c-.006,0-.013.022-.025.026.011.005.038-.014.055-.021,0,.006.016.006.019.007s0,0-.01.005l-.007.017c-.007,0-.017.019-.028.024.011,0,.015.016.019.026.017-.028.02,0,.039-.024.012,0-.012.021-.013.028.016,0,.019.014.029.018l0,0c.013,0,.019.017.043.005,0,0-.007.009-.012.01s.026-.025.023,0l-.012.008c.015,0,0,.019.023.009a.033.033,0,0,1-.012.009c.01,0,.014.009.032,0a.047.047,0,0,1-.018.015c0,.013.023-.013.022,0a.028.028,0,0,1-.006.014c.011-.007.019,0,.025,0a.071.071,0,0,0-.009.022.2.2,0,0,0,.1.065c-.015.025-.019.006-.029.024.016-.018.01,0,.024,0l0,0c.007,0,0,.013.008.011l0-.005c.015-.008-.012.032.011.011l-.009.016c.023-.016,0,.013.021,0l0,0c0,.016.035-.009.022.01a.033.033,0,0,0,.035-.01.092.092,0,0,1-.02.02c.029.013.05.039.089.036a.027.027,0,0,1-.01.009c.029-.007.006.043.048.015l.017-.011c0,.008-.013.019-.015.026s.014.008.027,0c0,.007-.008.007-.012.011s.029-.007.03,0l-.008.005c0,.051.021.1.075.093.011,0-.016.022-.011.023.049-.005.037.064.1.041.027.005.076-.037.076-.037-.057-.021-.074-.074-.091-.136-.017-.009-.041-.019-.046-.037-.056-.045-.075-.13-.142-.164a.027.027,0,0,1-.019.015l0-.006-.015.008c-.005,0,.01-.016.016-.014a.494.494,0,0,1-.062-.056c-.018.016-.012-.009-.029.008,0,0,0,0,.008-.007-.023,0-.024,0-.017-.039a1.279,1.279,0,0,0-.157-.161c-.059-.048-.127-.084-.189-.133-.035.019-.034,0-.067.01l.009-.008c-.02,0-.009-.013-.01-.034-.009.009-.007,0-.02.016s.015-.029,0-.027c0-.006-.009.01-.005,0-.033.006.011-.006.007-.039-.031-.018-.073-.025-.088-.058,0,0-.009.014-.012.012.022-.029-.015,0-.009-.015a.028.028,0,0,1,.012-.006c0-.021-.025-.014-.025-.035-.021,0-.011-.033-.03-.025.011-.009,0-.011.005-.019-.037.025-.01-.029-.038-.016l.005-.005c-.029-.023-.052-.058-.094-.07-.019-.011-.011-.056-.042-.058-.007,0-.011.01-.016.011s.009-.01.011-.015c-.021,0-.018-.021-.029-.031s-.01,0-.016.011c.008-.032-.035-.019-.033-.046-.021.031-.021.008-.031.01s.005-.011.011-.015a.029.029,0,0,1-.022-.027c-.008,0-.023.011-.025,0,.014-.022-.012-.012-.012-.025-.013.018-.033.023-.033.011l.023-.021c-.033,0-.036-.055-.085-.048l.011-.015c-.037-.006-.045-.043-.091-.039a.042.042,0,0,0-.011-.031.081.081,0,0,0-.043.013s0-.014.007-.02,0-.041-.027-.027l.01-.011c-.019,0-.043.007-.041-.014-.012.008-.025,0-.033.02-.006,0,.016-.021,0-.013l.019-.013a.128.128,0,0,0-.07-.041c.012-.025-.021-.016-.022-.037-.017.005-.014-.021-.041,0l.01-.011a.145.145,0,0,1-.026-.037c0-.009-.02.007-.03.008l.01-.011a.135.135,0,0,0-.043.027c0-.012-.005,0,0-.016a.131.131,0,0,0,.042-.024c0-.011-.037.011-.025-.011s-.01-.01-.024,0c0,0,0-.011.012-.014a.015.015,0,0,0-.017,0s0,0,0,0-.017,0-.032.023c.006,0,.009-.005.011,0s-.023.007-.015-.006.024-.015.027-.025l-.037.016c.006,0,0,.008-.008.018l.012,0-.012.012c.012,0,.006.021.024.018l.009-.016c.005,0,.026-.008.017.011-.006,0-.011.011-.017.018s.009-.005.009,0l-.017.015c.023-.018.019.006.025,0l0,0c0,.016.01-.013.015-.009s-.02.024-.024.037.036,0,.029.026a.1.1,0,0,0,.04,0c.006,0-.021.021-.006.017a.2.2,0,0,0-.02.023c.008-.007.01.012.023-.012a.044.044,0,0,0,.026.028s-.018.011-.022.021c.017-.009.031-.01.035,0a.361.361,0,0,1,.024-.029s.011-.006.012,0-.033.037-.027.044c-.023.021-.009-.014-.027.011s-.033.005-.026-.008c-.024.013,0,.006-.016.024.007,0,.019,0,.03,0s.008-.013.019-.018c.026-.013,0,.023,0,.026l-.009,0c0,.011.013,0,.017.006-.023.027-.011-.005-.028.009l-.013.022c.006.01.022-.019.024,0l-.01.008h.011c.009-.01.022-.026.015-.028.026-.022.008,0,.019,0s0,0,.009-.016.017-.009.022-.009-.011.019-.018.03-.01,0,0-.009c-.021.008-.024.033-.039.038s.013,0,.021-.005.014-.013.018-.02c.046-.03-.02.034,0,.036.021-.026.045-.023.063-.056.006,0,.015-.005.014,0-.018.015-.008.017-.027.029l0,0-.024.016c-.007.015-.011.032-.017.042.012,0,.014-.018.023-.016-.01.006-.013.017-.011.019s.022-.024.029-.025-.005.023-.01.027l-.014.008c.006,0-.008.01,0,.008l.038-.031c.007,0,0,.013,0,.012l-.015.005c.01,0-.023.027-.01.027l.014-.011a.022.022,0,0,1-.007.011c.007,0,.009,0,.013,0l-.008.009c.008,0,.03-.019.017,0,.017-.024,0,0,0-.017s.018-.01.021-.011c-.021.022.005.009.009.012s-.007.015-.01.021l.015-.014c-.025.029.013,0,.008.012a.057.057,0,0,0-.022.025c.016-.024.031-.021.043-.036,0,.014-.027.026-.039.043.019-.014,0,.018.02,0,0-.011.013-.013.023-.021,0,.008-.01.009-.012.021s.024-.014.026-.023c0,.008.023-.009.015.009s-.013,0-.02.01.035-.029.047-.025a.1.1,0,0,1,.04-.036c0,.014-.011,0-.024.025h.006c-.017.028-.046.028-.059.051l.011,0a.113.113,0,0,0-.024.024c.016-.016.013,0,.017,0s-.007,0,0-.009.031-.021.029-.006-.016.02-.025.026.016-.016.013,0l-.008.008a.06.06,0,0,0,.082.016c-.01.016-.006.022-.007.04,0-.008.013-.014.017-.014l-.011.02c0,.014.017,0,.029,0l-.01.013c-.005.015.013,0,.018-.006l-.008.013.011-.01c.01,0,.013.006,0,.023a.016.016,0,0,0,.012-.011.021.021,0,0,0,.02.027c0-.009.006-.013.016-.025s0,.005.012,0c-.007.007-.01.018-.018.019-.012.034.02.028.029.045.005,0,.008,0,.013-.008-.01.027.019.016.02.033.006-.01.029-.03.035-.026s-.018.024-.022.038c.009-.005.016,0,.017,0l0,0c.011-.006.02-.006.017,0h0s0,.017,0,.019c.015-.014.014,0,.028-.009a.022.022,0,0,0,0,.006l.012-.012v.012a.067.067,0,0,1-.016.011c0,.015.013-.009.023-.013s0,.007,0,.014,0-.006,0,0,0,.006-.008.014.015-.014.016-.007.012.006,0,.019c.009,0,.011,0,.018-.006a.027.027,0,0,1,.007-.021s.011,0,.006.006l0,0s.007.008.016-.008l-.012.022c.011-.009.015,0,.021,0-.013.014-.03.027-.027.036l.019-.009s0,.005-.006.013.046-.028.043-.008c-.019.013-.017.017-.018.025s.008-.008.01-.007-.013.01-.005,0,.01,0,.014-.005C647.18,322.432,647.221,322.421,647.218,322.449Zm.189.131h0Z" transform="translate(-646.48 -320.859)" fill="#dd4124"/>
      <path id="Path_1277" data-name="Path 1277" d="M648.318,325.635s0,0,0,0S648.315,325.635,648.318,325.635Z" transform="translate(-648.168 -324.55)" fill="#dd4124"/>
      <path id="Path_1278" data-name="Path 1278" d="M686.033,323.117h0Z" transform="translate(-682.891 -322.234)" fill="#dd4124"/>
      <path id="Path_1279" data-name="Path 1279" d="M681.912,315.954h0Z" transform="translate(-679.093 -315.64)" fill="#dd4124"/>
      <path id="Path_1280" data-name="Path 1280" d="M681.388,312.28l-.022.014c0,.009.027-.009.022,0l-.012,0,.009,0c.012-.006.03-.014.026-.017.033-.011.006,0,.015.005s0,0,.015-.009.018,0,.023,0-.018.011-.029.018-.008,0,0-.006c-.021,0-.036.019-.051.02s.012,0,.02,0,.018-.007.024-.011c.052-.012-.033.021-.021.025.03-.015.048-.007.079-.028.006,0,.015,0,.012,0-.022.007-.015.011-.037.016v0l-.027.006c-.013.009-.025.021-.034.027.011,0,.02-.01.027-.007-.012,0-.019.01-.018.012a.061.061,0,0,1,.036-.012s-.016.016-.021.018l-.016,0c.007,0-.011.006,0,.007l.046-.016c.006,0-.008.009-.005.009h-.015c.007,0-.032.016-.021.018l.017-.005-.011.006c.007,0,.007,0,.011,0l-.011,0c.008,0,.034-.008.014.005.025-.014,0,0,.009-.013s.02,0,.023,0c-.028.011,0,.007,0,.011l-.019.014.019-.007c-.035.016.011,0,0,.011a.071.071,0,0,0-.03.014c.025-.015.036-.009.053-.018-.007.01-.035.014-.053.023.022-.006-.01.013.017,0,.006-.008.017-.006.029-.011s-.012,0-.02.012a.059.059,0,0,0,.033-.012c0,.006.023,0,.008.009s-.011,0-.022,0,.043-.014.052-.009a.129.129,0,0,1,.05-.018c0,.011-.012,0-.032.013l0,0c-.027.017-.052.011-.074.026h.011a.161.161,0,0,0-.031.013c.021-.008.009.006.014.005s-.006,0,.008-.006.036-.008.027,0a.238.238,0,0,0-.033.014c-.006.006.021-.008.013,0l-.01,0c0,.016.013.034.061.028-.016.01-.016.015-.025.028a.025.025,0,0,1,.021-.006l-.018.012c-.01.009.012.006.025.006l-.014.007c-.012.01.013,0,.018,0l-.013.009.014-.006c.01,0,.009.007-.014.016a.025.025,0,0,0,.016-.006c-.012.01-.007.02,0,.024s.011-.009.025-.015,0,0,.011,0c-.009,0-.016.011-.024.011-.027.022,0,.025,0,.039s.008,0,.015,0c-.021.018.008.016,0,.029.009-.006.038-.016.041-.011.022,0-.027.014-.037.023.01,0,.014,0,.014,0h0c.012,0,.02,0,.012.006h0s-.012.012-.009.014c.019-.007.01,0,.028,0a.017.017,0,0,0-.007,0l.016-.006-.007.009-.019,0c-.008.01.015,0,.025-.005s0,.006-.008.01,0,0,0,0,0,.005-.013.009.019-.006.016,0,.007.007-.011.014c.01,0,.009,0,.018,0a.035.035,0,0,1,.016-.014s.009,0,0,.006h0s0,.007.017,0l-.02.013c.014,0,.014,0,.019,0-.017.007-.038.013-.039.021l.02,0s0,0-.011.009.052-.011.04,0-.023.009-.027.015a.031.031,0,0,1,.012,0c.009-.005-.015,0,0,0s.01,0,.015,0c-.042.026,0,.026-.018.046.025-.011.009,0,.019,0-.026.011.007,0-.007.014l.025-.013c-.012.013.043-.006.014.011-.006.006-.019.006-.024.007-.026.016.028,0,0,.021a.123.123,0,0,1,.038-.013.176.176,0,0,1-.025.023c.006,0,.015,0,.007.005a.026.026,0,0,1-.012,0c0,.008.008.007.02.008-.018.011,0,.016-.013.026.024-.007,0,.012.022,0l-.005,0a.139.139,0,0,1,.033-.007l-.021.008c-.024.01,0,.01-.012.015.013-.008,0,0,.015,0h.008c.008,0,.01,0,.016,0s-.023.011-.021.009,0,.008,0,.009,0,0,.006,0l-.005,0,0,0h0l0,0a0,0,0,0,0,0,0s0,0,0,0,0,0,0,0l-.016.006s.021,0,.028,0c-.01.014.007.023.019.025h0s.02,0,.009,0c.008,0-.01.007-.01.012l.012,0c-.016.016.024.01.013.025l-.016,0a.087.087,0,0,0,.042.005.1.1,0,0,1-.019.006s.009.009.025,0-.009,0-.009,0,.03-.009.027-.005h0c0,.005.011,0,.014.006s-.006,0-.015.005c-.025.012-.012.018-.014.021a.058.058,0,0,0,.018,0c.009,0-.014.009-.012.01l.051-.009a.128.128,0,0,1-.03.013c.007.006.038,0,.056,0,0,0,.01.007.013.009-.013.007,0,0-.011,0l-.014.011s-.024.011-.035.013c.011,0,.005.014,0,.022.028-.016.018,0,.044-.009.008.005-.02.012-.024.018.014,0,.009.014.015.019h-.005c.011,0,.007.016.034.013a.046.046,0,0,1-.015.005c-.006.011.034-.014.022,0l-.014,0c.015,0-.007.014.015.011a.056.056,0,0,1-.014,0c.008,0,.008.009.027.006a.063.063,0,0,1-.022.007c-.008.009.025-.005.019,0a.03.03,0,0,1-.011.008c.012,0,.014,0,.02.005a.071.071,0,0,0-.018.014c.011.025.018.053.052.068-.024.016-.019,0-.036.011.022-.009.008,0,.019.006h0c.006,0-.007.009,0,.01l.006,0c.016,0-.025.021,0,.01l-.015.01c.027-.007-.005.009.018.005h0c-.009.011.033,0,.014.011.006,0,.014.008.034,0a.138.138,0,0,1-.026.011c.018.015.023.039.057.045a.037.037,0,0,1-.012,0c.028,0-.015.033.033.021l.02-.005c-.006.006-.019.011-.025.016.013,0,.008.009.025,0a.06.06,0,0,1-.016.006c0,.006.028,0,.024.008l-.009,0c-.021.039-.032.081.018.083.009,0-.023.013-.02.014.043.006,0,.055.062.051.02.009.081-.011.081-.011-.037-.027-.026-.07-.011-.118-.01-.011-.025-.022-.021-.038-.026-.044,0-.11-.04-.15a.036.036,0,0,1-.023.007l.006,0-.016,0s.016-.009.02-.008a.233.233,0,0,1-.026-.053c-.022.009-.005-.009-.029,0a.024.024,0,0,1,.01,0c-.017-.008-.018-.008,0-.032a.667.667,0,0,0-.054-.151c-.025-.048-.066-.088-.094-.136-.038.007-.027-.011-.061-.006l.011,0c-.019,0,0-.011.007-.026-.012.005-.005,0-.025.007s.026-.018.015-.019c.007,0-.012.005-.006,0-.03,0,.012,0,.025-.027-.017-.019-.048-.033-.045-.061,0,0-.014.009-.016.006.032-.016-.012,0,0-.013a.037.037,0,0,1,.013,0c.009-.016-.015-.015,0-.031-.018,0,.007-.026-.013-.025.014,0,.008-.008.014-.013-.042.011.006-.023-.024-.02l.007,0c-.013-.023-.016-.053-.045-.071-.011-.013.018-.044-.007-.052-.006,0-.014.006-.018,0s.012,0,.016-.008c-.019,0,0-.019-.009-.029s-.01,0-.019,0c.022-.022-.02-.021-.005-.041-.032.019-.021,0-.031,0s.009-.007.016-.009-.01-.01,0-.024-.025,0-.022,0c.022-.014,0-.012,0-.021-.02.01-.039.011-.032,0l.029-.011c-.026-.009,0-.048-.048-.052l.016-.009c-.028-.012-.016-.041-.057-.047a.03.03,0,0,0,.006-.026.1.1,0,0,0-.042,0s.01-.009.015-.013.02-.03-.01-.026l.014-.006c-.018,0-.04,0-.027-.019-.014,0-.022,0-.037.008s.023-.012.007-.009l.022-.006c0-.021-.02-.031-.038-.044.022-.016-.01-.016,0-.031-.016,0,0-.019-.033-.01l.014-.006a.074.074,0,0,1,0-.032c0-.008-.02,0-.029,0l.014-.006a.185.185,0,0,0-.049.011c.008-.009,0,0,.006-.013a.167.167,0,0,0,.047-.009c0-.009-.036,0-.015-.013,0-.008,0-.009-.024,0,.007,0,.01-.009.019-.009s0-.006-.013,0,0,0,0,0a.11.11,0,0,0-.037.011c.007,0,.01,0,.009,0-.016.005-.023,0-.01-.007s.027-.006.035-.014l-.038.005s0,.007-.015.011h.011l-.016.006c.009.005,0,.016.011.019l.015-.009s.026,0,.009.011a.063.063,0,0,0-.023.009s.01,0,.008,0l-.028.01c.036-.014.018.006.025.006h-.005c-.009.011.014-.008.017,0s-.029.014-.038.022.029.009.012.026a.081.081,0,0,0,.034.006s-.028.011-.013.011a.509.509,0,0,1-.049.021s-.016.011-.005.009c-.005,0-.017.006-.018.009a.085.085,0,0,0,.036-.022c.022-.014.006.009.032-.008a.024.024,0,0,0,.008.026s-.02,0-.028.011c.018,0,.031,0,.029.008a.375.375,0,0,1,.034-.016s.012,0,.011,0c-.018.009-.046.021-.044.027-.029.011,0-.012-.028,0s-.03,0-.017-.012c-.027.006,0,.006-.025.015,0,0,.018,0,.024.007s.013-.009.024-.009c.028,0-.014.016-.015.018H681.4c-.007.008.011,0,.011.008C681.384,312.295,681.409,312.273,681.388,312.28Zm.363.659h0S681.752,312.938,681.751,312.939Z" transform="translate(-678.594 -312.05)" fill="#dd4124"/>
      <path id="Path_1281" data-name="Path 1281" d="M681.881,315.273s0,0,0,0S681.879,315.273,681.881,315.273Z" transform="translate(-679.066 -315.012)" fill="#dd4124"/>
      <path id="Path_1282" data-name="Path 1282" d="M686.255,317.543h0l0,0Z" transform="translate(-683.091 -317.103)" fill="#dd4124"/>
      <path id="Path_1283" data-name="Path 1283" d="M682.2,312.117h0Z" transform="translate(-679.363 -312.107)" fill="#dd4124"/>
      <path id="Path_1284" data-name="Path 1284" d="M682.749,312.115h0Z" transform="translate(-679.867 -312.105)" fill="#dd4124"/>
      <path id="Path_1285" data-name="Path 1285" d="M682.008,316.2h0Z" transform="translate(-679.181 -315.865)" fill="#dd4124"/>
      <path id="Path_1286" data-name="Path 1286" d="M681.59,313.963h.008S681.6,313.961,681.59,313.963Z" transform="translate(-678.801 -313.806)" fill="#dd4124"/>
      <path id="Path_1287" data-name="Path 1287" d="M686.388,324.126h0S686.384,324.128,686.388,324.126Z" transform="translate(-683.214 -323.163)" fill="#dd4124"/>
      <path id="Path_1288" data-name="Path 1288" d="M685.738,322.892h0Z" transform="translate(-682.617 -322.027)" fill="#dd4124"/>
      <path id="Path_1289" data-name="Path 1289" d="M688.4,326.627h0Z" transform="translate(-685.066 -325.465)" fill="#dd4124"/>
      <path id="Path_1290" data-name="Path 1290" d="M687.727,320.826h0Z" transform="translate(-684.45 -320.125)" fill="#dd4124"/>
      <path id="Path_1291" data-name="Path 1291" d="M709.965,321.427h0l0,0S709.969,321.428,709.965,321.427Z" transform="translate(-704.921 -320.678)" fill="#dd4124"/>
      <path id="Path_1292" data-name="Path 1292" d="M707.31,313.464h0Z" transform="translate(-702.477 -313.347)" fill="#dd4124"/>
      <path id="Path_1293" data-name="Path 1293" d="M706.808,313.46s-.019,0-.008.005c-.007,0-.018,0-.02,0a.083.083,0,0,0,.042-.006Z" transform="translate(-701.989 -313.344)" fill="#dd4124"/>
      <path id="Path_1294" data-name="Path 1294" d="M706.419,312.268h-.013l.008,0c.013,0,.033,0,.03,0,.034,0,0,0,.012.011s0,0,.017,0,.018,0,.021.006-.021,0-.034.005-.006-.005.005,0c-.02-.006-.041,0-.054,0s.011.005.018.008a.256.256,0,0,1,.027,0c.053.009-.038.006-.029.014.034,0,.047.011.084.005.006,0,.014,0,.01.006-.023,0-.018,0-.04,0v0l-.027-.005c-.016,0-.031.009-.042.011.01,0,.022,0,.028,0-.012,0-.022,0-.022,0a.062.062,0,0,1,.038,0c0,.005-.021.009-.027.008l-.014,0s-.013,0-.007,0l.049,0c.006,0-.011,0-.008.006l-.014,0c.005.006-.035,0-.026.007l.018,0a.048.048,0,0,1-.018,0c.013,0,.01.005.015.006h-.012c.008,0,.034.006.011.009.028,0,0,0,.013-.008s.02,0,.023.006c-.03,0,0,.006,0,.009l-.022,0h.02c-.039,0,.009.006,0,.009a.082.082,0,0,0-.033,0,.294.294,0,0,1,.056,0c-.01.006-.037,0-.057,0,.022,0-.015.007.014.009.009-.005.018,0,.031,0s-.013,0-.023,0a.063.063,0,0,0,.035,0c-.006,0,.021.007,0,.011s-.008-.007-.021-.005.045,0,.051.011a.135.135,0,0,1,.053,0c-.008.008-.011,0-.034,0l0,0c-.032,0-.052-.009-.078-.005l.011,0a.179.179,0,0,0-.034,0c.022,0,.005.008.011.009s-.005,0,.009,0,.036.005.024.011a.3.3,0,0,0-.036,0c-.008,0,.022,0,.012.005h-.011c0,.015,0,.033.044.046a.065.065,0,0,0-.034.014.03.03,0,0,1,.022,0l-.022,0c-.013,0,.008.01.02.014h-.016c-.014,0,.012,0,.017.006l-.015,0h.015c.009,0,.005.008-.019.008a.025.025,0,0,0,.016,0c-.014,0-.014.014-.006.021a.074.074,0,0,1,.029,0c.026,0,0,0,.01,0a.065.065,0,0,1-.027,0c-.033.009-.007.023-.013.034a.064.064,0,0,0,.015,0c-.026.007,0,.016-.01.024.011,0,.041,0,.042.005.021,0-.03,0-.043.006.01,0,.013.006.011.008h0c.012,0,.018.006.008.01h0s-.016.006-.014.008c.02,0,.008.007.026.009h.009l-.01.005-.019,0c-.012.006.016,0,.025.005s0,0-.012.006,0,0,0,0-.006,0-.015,0,.02,0,.016,0,0,.009-.015.008c.01,0,.008,0,.016.006a.031.031,0,0,1,.02-.006s.007.006,0,.006h0s0,.007.016,0l-.024,0c.014,0,.013.005.017.009-.019,0-.04,0-.045,0l.019.005s0,0-.014,0,.052.009.036.017-.025,0-.031,0,.011,0,.012,0-.016,0,0,0,.009,0,.014,0c-.049.006-.012.021-.035.032.027,0,.008.005.018.007-.028,0,.005.006-.012.008h.028c-.016.006.042.01.009.014a.039.039,0,0,1-.025,0c-.03.005.025.014-.009.017a.146.146,0,0,1,.04,0,.277.277,0,0,1-.032.01c.005,0,.014,0,0,.006a.019.019,0,0,1-.011,0c-.007.005,0,.009.015.014-.021,0-.01.011-.022.017.026,0-.011.009.023.01h-.01a.242.242,0,0,1,.033.006h-.022c-.026,0-.008.007-.017.008.015,0,0,0,.015,0l.007,0c.006.005.011,0,.014.007s-.026,0-.023,0-.005.006,0,.009,0,0,.006,0h-.006s0,0,0,0h0l0,0s0,0,0,0,0,0,0,0,0,0,0,0h-.017s.019.009.027.009c-.015.008,0,.023.008.029h0s.018.006.007.006c.007,0-.012,0-.014.007h.013c-.022.008.018.017,0,.025l-.017,0a.088.088,0,0,0,.037.02l-.02,0c0,.005,0,.01.021.013s-.01,0-.009,0,.031,0,.027.006h0c0,.005.01.005.01.01s0,0-.016,0c-.028,0-.018.011-.021.012a.069.069,0,0,0,.018,0c.007,0-.016,0-.015,0l.051.01a.138.138,0,0,1-.032,0c0,.008.036.012.053.017,0,0,.007.01.008.013-.015,0,0,0-.011,0l-.017,0c0-.005-.026,0-.037,0,.01,0,0,.014-.006.02.032,0,.015.008.044.008.005.007-.023,0-.029.006.011.007,0,.014.007.021h-.006c.009.006,0,.016.026.023h-.016c-.01.006.036,0,.019.009l-.014,0c.014,0-.013.009.009.015a.038.038,0,0,1-.014,0c.006,0,0,.011.022.015a.062.062,0,0,1-.024,0c-.011,0,.025.006.016.01l-.012,0c.011,0,.011.009.016.012a.088.088,0,0,0-.022.005.091.091,0,0,0,.021.076c-.028,0-.018-.006-.037,0,.024,0,.007,0,.015.012h0c.005,0-.01,0,0,.009h.006c.016,0-.032.009,0,.01l-.018,0c.028,0-.009.006.014.011h0c-.012.006.03.013.008.015,0,0,.01.011.031.012a.126.126,0,0,1-.029,0c.011.019.005.041.035.058h-.013c.025.011-.027.022.022.03l.021,0c-.008,0-.022,0-.029,0,.013,0,0,.01.022.011a.064.064,0,0,1-.017,0c0,.005.026.011.019.015h-.009c-.035.025-.062.057-.017.077.008.006-.027,0-.024,0,.037.021-.022.046.036.065a.2.2,0,0,0,.08.02c-.023-.036,0-.068.037-.1-.005-.012-.015-.028,0-.038-.006-.047.044-.093.022-.141a.036.036,0,0,1-.024,0h.007l-.016,0s.019,0,.021,0a.2.2,0,0,1,0-.054c-.024,0,0-.009-.026-.01a.028.028,0,0,1,.011,0c-.012-.013-.013-.014.017-.026a.567.567,0,0,0,.01-.147c0-.05-.025-.1-.032-.149-.038-.008-.02-.019-.053-.028h.012c-.017-.008,0-.01.018-.02-.014,0,0,0-.026,0s.031-.006.021-.011c.008,0-.013,0-.006,0-.027-.013.012,0,.034-.014-.008-.023-.031-.046-.017-.068,0,0-.017,0-.017,0,.036,0-.01-.007,0-.011a.037.037,0,0,1,.013,0c.015-.01-.007-.018.009-.028-.016-.009.016-.019,0-.025.014,0,.011,0,.018-.006-.043-.006.015-.017-.014-.026h.007c0-.024.007-.051-.013-.076s.033-.03.015-.046-.015,0-.019,0,.013,0,.018,0c-.017-.008,0-.018,0-.027a.037.037,0,0,0-.019,0c.029-.011-.01-.026.011-.037-.037,0-.02-.006-.029-.01s.011,0,.018,0-.005-.013.005-.022-.024-.006-.018-.011c.025,0,0-.011.01-.016-.022,0-.04-.006-.03-.011l.031,0c-.02-.017.015-.042-.024-.062h.018c-.021-.021,0-.041-.034-.061a.027.027,0,0,0,.016-.019.108.108,0,0,0-.039-.014s.013,0,.019-.006.03-.018,0-.025h.015c-.016-.008-.035-.018-.017-.026-.014,0-.019-.01-.037-.006s.026,0,.01-.005l.022,0c.006-.019-.006-.033-.018-.051.027,0,0-.017.012-.027-.015-.006.006-.016-.027-.02h.015a.067.067,0,0,1,.01-.028c0-.006-.019-.006-.027-.011h.016a.18.18,0,0,0-.049-.009c.011,0,0,0,.01-.008a.212.212,0,0,0,.046.01c.007-.006-.033-.013-.009-.017.005,0,0-.009-.018-.01.005,0,.01,0,.018,0s0-.007-.01-.009,0,0,0,0a.128.128,0,0,0-.038-.005c.006,0,.01,0,.008,0s-.021-.008-.006-.009.027.005.037,0l-.037-.01c.007,0,0,.005-.017,0l.01,0h-.017c.006.008-.011.013,0,.02l.017,0s.024.009,0,.013a.137.137,0,0,0-.024,0s.01,0,.007,0h-.029c.039,0,.014.011.02.013h-.005c-.012.006.016,0,.017,0s-.032,0-.044.005.023.018,0,.026a.089.089,0,0,0,.029.018c0,.005-.03,0-.017.005h-.029c.008,0,0,.01.022.006a.02.02,0,0,0,0,.024.054.054,0,0,0-.03,0c.018,0,.029.011.023.017.019,0,.019,0,.038,0,0,0,.011,0,.01,0-.02,0-.05,0-.051.007-.031,0,0-.011-.027-.008s-.026-.013-.011-.016c-.027-.005,0,0-.029,0,0,0,.016.007.02.015s.015,0,.026,0c.028.007-.02.009-.021.01l-.007,0c-.009,0,.009.006.007.011-.036,0,0-.008-.026-.009l-.025,0C706.4,312.266,706.428,312.26,706.419,312.268Zm.079.675,0,0S706.5,312.942,706.5,312.943Z" transform="translate(-701.638 -312.079)" fill="#dd4124"/>
      <path id="Path_1295" data-name="Path 1295" d="M706.792,314.619s0,0,0,0S706.79,314.618,706.792,314.619Z" transform="translate(-701.998 -314.409)" fill="#dd4124"/>
      <path id="Path_1296" data-name="Path 1296" d="M708.289,326.557h0Z" transform="translate(-703.377 -325.4)" fill="#dd4124"/>
      <path id="Path_1297" data-name="Path 1297" d="M708.339,312.073h0Z" transform="translate(-703.421 -312.066)" fill="#dd4124"/>
      <path id="Path_1298" data-name="Path 1298" d="M708.835,312.278h0Z" transform="translate(-703.881 -312.256)" fill="#dd4124"/>
      <path id="Path_1299" data-name="Path 1299" d="M707.318,322.455h0Z" transform="translate(-702.483 -321.624)" fill="#dd4124"/>
      <path id="Path_1300" data-name="Path 1300" d="M707.425,323.733h0S707.421,323.732,707.425,323.733Z" transform="translate(-702.58 -322.8)" fill="#dd4124"/>
      <path id="Path_1301" data-name="Path 1301" d="M707.505,322.743h0Z" transform="translate(-702.657 -321.89)" fill="#dd4124"/>
      <path id="Path_1302" data-name="Path 1302" d="M709.91,318.129h0l0,0Z" transform="translate(-704.867 -317.641)" fill="#dd4124"/>
      <path id="Path_1303" data-name="Path 1303" d="M706.55,315.212h0Z" transform="translate(-701.773 -314.956)" fill="#dd4124"/>
      <path id="Path_1304" data-name="Path 1304" d="M707.035,313.426l.008,0S707.044,313.427,707.035,313.426Z" transform="translate(-702.224 -313.313)" fill="#dd4124"/>
      <path id="Path_1305" data-name="Path 1305" d="M741.785,312.466l0,0S741.787,312.467,741.785,312.466Z" transform="translate(-734.213 -312.429)" fill="#dd4124"/>
      <path id="Path_1306" data-name="Path 1306" d="M739.446,318.837l0,0v0Z" transform="translate(-732.057 -318.292)" fill="#dd4124"/>
      <path id="Path_1307" data-name="Path 1307" d="M740.714,312.264l-.006,0Z" transform="translate(-733.222 -312.239)" fill="#dd4124"/>
      <path id="Path_1308" data-name="Path 1308" d="M741.462,312.018l0,0Z" transform="translate(-733.916 -312.017)" fill="#dd4124"/>
      <path id="Path_1309" data-name="Path 1309" d="M737.646,322.162h0l0,0S737.648,322.165,737.646,322.162Z" transform="translate(-730.402 -321.355)" fill="#dd4124"/>
      <path id="Path_1310" data-name="Path 1310" d="M734.765,322.274h0Z" transform="translate(-727.751 -321.458)" fill="#dd4124"/>
      <path id="Path_1311" data-name="Path 1311" d="M738.689,313.8s0,0,0,0S738.688,313.8,738.689,313.8Z" transform="translate(-731.362 -313.659)" fill="#dd4124"/>
      <path id="Path_1312" data-name="Path 1312" d="M734.141,323.234h0S734.138,323.232,734.141,323.234Z" transform="translate(-727.173 -322.339)" fill="#dd4124"/>
      <path id="Path_1313" data-name="Path 1313" d="M733.312,326.477h0Z" transform="translate(-726.412 -325.326)" fill="#dd4124"/>
      <path id="Path_1314" data-name="Path 1314" d="M738.147,314.278l0,0Z" transform="translate(-730.864 -314.097)" fill="#dd4124"/>
      <path id="Path_1315" data-name="Path 1315" d="M739.3,312.731c-.006,0-.015-.011-.018-.009a.077.077,0,0,0,.04.015h0l-.014-.009S739.293,312.723,739.3,312.731Z" transform="translate(-731.911 -312.665)" fill="#dd4124"/>
      <path id="Path_1316" data-name="Path 1316" d="M730.611,313.6c0,.022.058.058.058.058,0-.048.042-.066.091-.086,0-.014,0-.035.018-.041.021-.05.091-.072.1-.13a.03.03,0,0,1-.02-.015l.006,0-.012-.011s.018.007.018.011a.275.275,0,0,1,.028-.055c-.02-.013,0-.011-.017-.024a.028.028,0,0,1,.009.006c0-.018,0-.02.029-.017.046-.04.057-.1.091-.141s.033-.111.055-.165c-.029-.026-.007-.029-.031-.053l.01.006c-.01-.016.008-.008.026-.011-.012-.006,0-.006-.021-.015s.031.009.025,0-.012-.006,0,0c-.016-.026.009.009.037,0,.006-.027,0-.061.023-.076,0,0-.016-.006-.015-.009.033.015,0-.012.01-.009a.047.047,0,0,1,.01.009c.018,0,0-.022.023-.023-.009-.016.025-.011.012-.026.012.009.012,0,.019,0-.034-.027.023-.01,0-.032l.006,0c.011-.026.034-.047.031-.082,0-.017.046-.014.039-.039,0-.006-.013-.008-.015-.012s.011.006.017.008c-.011-.016.013-.016.018-.026s-.005-.009-.015-.012c.031,0,.005-.031.03-.031-.035-.015-.014-.016-.019-.025s.011,0,.017.007,0-.015.017-.02c0-.006-.018-.017-.01-.02.024.009.007-.011.019-.011-.02-.01-.032-.025-.02-.026l.026.016c-.008-.026.037-.034.014-.073l.017.007c-.007-.031.024-.04,0-.077a.033.033,0,0,0,.025-.011.094.094,0,0,0-.026-.034s.014,0,.02,0,.036,0,.015-.024l.014.007c-.01-.015-.021-.035,0-.034-.011-.009-.011-.02-.029-.025,0,0,.024.011.011,0l.018.014a.076.076,0,0,0,.013-.06c.026.008.007-.018.025-.021-.01-.013.014-.013-.012-.034l.014.008a.082.082,0,0,1,.024-.024c.007,0-.013-.015-.017-.024l.014.007a.181.181,0,0,0-.038-.033c.011,0,0,0,.013,0a.155.155,0,0,0,.035.033c.009,0-.021-.028,0-.021.008,0,.005-.01-.01-.019,0,0,.011,0,.016.008s0-.008,0-.014h0c-.013-.009-.01-.013-.031-.023,0,.005.007.007,0,.009s-.014-.018,0-.013.021.018.032.02l-.026-.028s-.007,0-.018-.005l.006.009-.015-.009c0,.01-.017.007-.009.021l.017.006s.016.02,0,.014a.075.075,0,0,0-.021-.012s.007.007,0,.007l-.018-.012c.023.016,0,.015,0,.019l0,0c-.014,0,.015.006.013.011s-.028-.014-.041-.016.01.029-.014.026a.079.079,0,0,0,.015.032c0,.005-.026-.016-.018,0a.275.275,0,0,0-.028-.014c.01.007-.007.009.018.017a.027.027,0,0,0-.016.024s-.016-.014-.025-.016c.014.013.019.024.011.028.017.009.018.007.034.017s.008.008.006.009c-.018-.009-.044-.024-.048-.018-.026-.017.009-.009-.019-.021s-.015-.027,0-.022c-.02-.019-.005,0-.027-.011,0,.006.01.015.009.024s.015.005.022.014-.022,0-.024,0l0-.006c-.011,0,0,.01,0,.014-.032-.016,0-.009-.017-.022l-.024-.008c-.007.006.024.016.012.019l-.011-.007,0,.009c.011.006.029.015.029.01.028.019,0,.006,0,.016s0,0,.017.006.014.013.015.017-.02-.007-.032-.011,0-.008.007,0c-.014-.016-.037-.017-.046-.029s.007.011.012.016.017.011.023.013c.041.034-.037-.014-.033,0,.03.015.035.034.071.046,0,.005.01.011.005.011s-.018-.005-.035-.019l0,0-.021-.018c-.016,0-.032-.006-.043-.01.006.009.02.009.022.017-.009-.008-.02-.009-.021-.007a.058.058,0,0,1,.032.021c0,.005-.023,0-.027-.006l-.013-.012c.008.008-.01,0-.006,0l.04.028c0,.006-.012,0-.01,0l-.01-.011c0,.009-.031-.016-.027-.006l.015.011a.035.035,0,0,1-.016-.008c.011.007.006.009.01.013l-.01-.005c.005.006.026.022,0,.013.026.011,0,0,.015,0s.015.014.017.016c-.026-.015-.006,0-.008.008l-.022-.006.017.011c-.035-.018,0,.011-.008.009a.079.079,0,0,0-.03-.016c.027.011.029.024.046.032-.012,0-.031-.02-.05-.028.018.014-.017,0,.008.016.01,0,.016.01.026.017-.005,0-.011-.007-.022-.009a.06.06,0,0,0,.029.019c-.007,0,.015.017,0,.012s0-.011-.016-.015.037.026.038.036a.118.118,0,0,1,.044.029c-.012,0-.008-.009-.03-.017v.005c-.03-.011-.04-.036-.065-.043l.007.009a.156.156,0,0,0-.029-.017c.019.011,0,.011,0,.014s0-.006.009,0,.029.023.015.023-.023-.011-.031-.018.019.011.008.011l-.009-.006c-.011.013-.02.032.013.068-.018-.007-.022,0-.038,0a.026.026,0,0,1,.018.013l-.021-.007c-.013,0,0,.014.01.024l-.015-.006c-.015,0,.008.01.012.014l-.015-.005.013.008c.005.009,0,.011-.022,0a.022.022,0,0,0,.014.008c-.015,0-.021.008-.017.019a.065.065,0,0,1,.027.011c.022.014-.005,0,.007.01-.008-.005-.019-.006-.023-.014-.034-.007-.018.019-.031.027s.006.006.012.011c-.027-.006-.008.017-.022.019.01,0,.036.021.034.026.016.015-.027-.013-.041-.015.008.007.008.013.005.013l0,0c.009.009.012.016,0,.014h0s-.017,0-.017,0c.017.011,0,.012.017.022l-.007,0,.015.008h-.011l-.015-.012c-.013,0,.013.01.019.017s-.006,0-.013,0,.005,0,0,0-.006,0-.015-.005.017.011.012.012,0,.01-.018,0c.007.006,0,.008.011.014a.028.028,0,0,1,.021,0s0,.009,0,.006l0,0s0,.006.012.012l-.023-.008c.012.008.009.012.01.017-.017-.009-.034-.022-.041-.018l.014.014s0,0-.014,0,.04.036.022.034-.021-.012-.028-.012.009.006.009.008-.013-.01,0-.005.007.008.01.011c-.046-.017-.022.016-.048.015.024.013,0,.009.012.016-.024-.014,0,.009-.015,0l.025.012c-.018,0,.031.031,0,.018-.009,0-.017-.011-.02-.015-.029-.01.014.026-.017.013a.131.131,0,0,1,.033.023.176.176,0,0,1-.033-.006c0,.006.011.011,0,.009a.021.021,0,0,1-.009-.008c-.009,0,0,.011.006.021-.02-.008-.016.006-.029.006.021.016-.014,0,.015.021l-.009,0c.007.007.025.019.025.023l-.019-.012c-.024-.014-.009.005-.022,0,.018.007,0,0,.013.011l0,.006c0,.008.009.006.008.014s-.023-.011-.02-.011-.008,0-.005.009,0,0,.006,0l-.006,0a.008.008,0,0,1,0,.005h0a.016.016,0,0,1,0,0s0,0,0,0,0,0,0,0h-.005l-.015-.009s.012.018.019.021c-.018,0-.015.022-.009.033s-.008-.006,0,0,.012.015,0,.01-.012,0-.016,0l.012.007c-.024,0,.005.026-.013.027l-.013-.011a.086.086,0,0,0,.021.037.084.084,0,0,1-.016-.011c0,.005,0,.013.011.023s-.008-.005-.006-.006.026.018.02.019l0,0s.006.01,0,.015,0-.005-.013-.009-.021,0-.025,0a.092.092,0,0,0,.014.011c0,.007-.015-.006-.016,0l.039.036c-.006,0-.022-.008-.029-.016,0,.009.025.029.037.043-.005,0,0,.013,0,.016s0,0-.008-.008l-.017-.005c0-.006-.023-.012-.031-.02.006.009-.009.014-.016.017.03.011.009.016.034.03,0,.009-.022-.008-.029-.008s-.005.016-.007.024l0,0c0,.011-.009.016.01.036a.076.076,0,0,1-.013-.009c-.013,0,.031.019.012.019l-.011-.009c.009.011-.016,0,0,.019a.043.043,0,0,1-.012-.009c0,.008,0,.012.011.026a.055.055,0,0,1-.019-.013c-.012,0,.019.017.008.017s-.01,0-.013,0,0,.015.008.019a.1.1,0,0,0-.022,0,.116.116,0,0,0-.025.086c-.027-.01-.012-.014-.031-.021.021.011,0,.008.007.019h0c0,.006-.012,0-.007.007l.006,0c.012.011-.032-.007-.006.01l-.017-.006c.022.018-.011,0,.007.018l0,0c-.014,0,.019.027,0,.018,0,.008,0,.016.021.028a.129.129,0,0,1-.025-.014c0,.024-.018.044,0,.076l-.011-.007c.016.023-.036.009,0,.041l.016.013c-.008,0-.021-.008-.028-.01.01.009,0,.011.013.021a.069.069,0,0,1-.014-.009c-.006,0,.016.024.008.025l-.007-.006c-.044.008-.086.026-.058.068,0,.009-.025-.011-.024-.006C730.636,313.553,730.571,313.55,730.611,313.6Zm.321-.765v0S730.934,312.832,730.933,312.832Z" transform="translate(-723.915 -312)" fill="#dd4124"/>
      <path id="Path_1317" data-name="Path 1317" d="M739.573,312.726a.018.018,0,0,0,.005.007S739.58,312.732,739.573,312.726Z" transform="translate(-732.177 -312.668)" fill="#dd4124"/>
      <path id="Path_1318" data-name="Path 1318" d="M739.814,312.928l-.005,0Z" transform="translate(-732.394 -312.852)" fill="#dd4124"/>
      <path id="Path_1319" data-name="Path 1319" d="M757.922,332.075l0,0Z" transform="translate(-749.066 -330.478)" fill="#dd4124"/>
      <path id="Path_1320" data-name="Path 1320" d="M764.106,324.381l0,0Z" transform="translate(-754.758 -323.395)" fill="#dd4124"/>
      <path id="Path_1321" data-name="Path 1321" d="M767.8,322.3l0-.005Z" transform="translate(-758.159 -321.479)" fill="#dd4124"/>
      <path id="Path_1322" data-name="Path 1322" d="M765.092,323.7s0,0,0,0S765.091,323.7,765.092,323.7Z" transform="translate(-755.668 -322.766)" fill="#dd4124"/>
      <path id="Path_1323" data-name="Path 1323" d="M763.965,329.426l0,0,0,0Z" transform="translate(-754.627 -328.039)" fill="#dd4124"/>
      <path id="Path_1324" data-name="Path 1324" d="M760.839,332.835h0a.022.022,0,0,0,0,.006S760.84,332.839,760.839,332.835Z" transform="translate(-751.752 -331.18)" fill="#dd4124"/>
      <path id="Path_1325" data-name="Path 1325" d="M756.768,333.461v0S756.765,333.458,756.768,333.461Z" transform="translate(-748.004 -331.753)" fill="#dd4124"/>
      <path id="Path_1326" data-name="Path 1326" d="M764.354,324.129l0,0Z" transform="translate(-754.987 -323.163)" fill="#dd4124"/>
      <path id="Path_1327" data-name="Path 1327" d="M757.781,332.492h0Z" transform="translate(-748.937 -330.864)" fill="#dd4124"/>
      <path id="Path_1328" data-name="Path 1328" d="M766.614,322.9l0,0Z" transform="translate(-757.07 -322.035)" fill="#dd4124"/>
      <path id="Path_1329" data-name="Path 1329" d="M766.43,322.638a.017.017,0,0,0,0,.008S766.435,322.645,766.43,322.638Z" transform="translate(-756.9 -321.793)" fill="#dd4124"/>
      <path id="Path_1330" data-name="Path 1330" d="M768.679,322.158l0,0Z" transform="translate(-758.969 -321.346)" fill="#dd4124"/>
      <path id="Path_1331" data-name="Path 1331" d="M768.846,322.7v0S768.848,322.7,768.846,322.7Z" transform="translate(-759.124 -321.85)" fill="#dd4124"/>
      <path id="Path_1332" data-name="Path 1332" d="M766.158,322.6s-.017-.01-.011,0-.011-.014-.015-.013a.065.065,0,0,0,.036.023l0,0A.056.056,0,0,1,766.158,322.6Z" transform="translate(-756.625 -321.742)" fill="#dd4124"/>
      <path id="Path_1333" data-name="Path 1333" d="M751.318,322.151c-.01-.013-.005-.016-.023-.031,0,.006.005.009,0,.011s-.008-.023,0-.014.015.023.026.027l-.017-.035c0,.005-.008,0-.017-.009l0,.011-.012-.011c0,.011-.02.005-.017.022l.015.009c0,.005.009.026-.01.016,0-.006-.01-.011-.017-.017s.005.009,0,.009l-.015-.017c.019.023-.005.017,0,.023l0,0c-.015,0,.013.01.009.014s-.024-.02-.036-.025,0,.035-.024.026a.084.084,0,0,0,0,.038c-.005.005-.022-.021-.017-.006a.222.222,0,0,0-.023-.021c.008.008-.011.009.012.023a.036.036,0,0,0-.026.023s-.012-.017-.021-.021c.01.016.011.03,0,.034.014.013.016.011.029.024s.006.011,0,.011-.037-.033-.044-.028c-.021-.023.013-.008-.012-.026s-.006-.032.008-.024c-.014-.024-.006,0-.024-.016,0,.006,0,.018,0,.028s.013.008.018.019-.022,0-.025,0l0-.008c-.011,0,0,.012-.005.016-.027-.023,0-.01-.01-.027l-.022-.014c-.01.005.019.021.005.023l-.008-.009v.01c.01.009.025.022.027.016.022.026,0,.007,0,.019s0,0,.015.009.01.016.009.021-.018-.011-.029-.018,0-.009.008,0c-.008-.02-.032-.025-.038-.038s0,.012.006.02.013.014.019.018c.03.045-.033-.021-.035-.006.026.021.024.044.056.063,0,.006.006.013,0,.013-.015-.018-.017-.009-.029-.028l0,0-.016-.023c-.015-.008-.031-.013-.041-.019,0,.011.017.014.016.023-.007-.01-.017-.014-.019-.011s.024.022.025.029-.023-.006-.026-.011l-.008-.015c0,.009-.009-.007-.008,0l.031.038c0,.007-.013,0-.012,0l-.006-.014c0,.009-.027-.023-.026-.011l.011.014a.027.027,0,0,1-.011-.008c0,.007,0,.009,0,.012l-.009-.008c0,.009.019.029,0,.016.023.017,0,0,.017,0s.01.018.011.021c-.022-.021-.008.005-.011.008l-.021-.011.014.016c-.03-.026,0,.012-.011.007a.058.058,0,0,0-.025-.021c.025.016.021.03.036.043-.013,0-.026-.027-.042-.039.013.019-.017,0,0,.019.011,0,.013.014.021.023-.007,0-.008-.009-.02-.013a.049.049,0,0,0,.024.026c-.008,0,.009.022-.008.013s0-.013-.011-.019.029.035.026.046a.1.1,0,0,1,.035.04c-.014,0,0-.011-.024-.024v.006c-.028-.017-.029-.046-.052-.059l0,.011a.138.138,0,0,0-.024-.024c.015.016,0,.012,0,.016s0-.006.009,0,.021.03.007.028-.02-.016-.026-.025.015.016,0,.014l-.008-.009c-.017.013-.033.034-.012.078-.016-.01-.022-.006-.038-.008.008,0,.014.013.014.016l-.019-.011c-.013,0,0,.016,0,.029l-.013-.01c-.014-.006.005.013.007.017l-.014-.008.01.011c0,.01-.005.013-.022,0a.02.02,0,0,0,.011.012.018.018,0,0,0-.025.018c.008,0,.013.006.024.016s-.005,0,0,.011c-.007-.006-.017-.01-.019-.018-.033-.013-.026.018-.042.026,0,.005,0,.008.008.014-.026-.011-.015.017-.031.018.01.006.029.029.026.034s-.024-.019-.037-.024c.005.009,0,.016,0,.016l0,0c.006.011.006.019,0,.016h0s-.017-.005-.018,0,0,.014.01.028l-.006-.005.012.011h-.012a.117.117,0,0,1-.011-.016c-.014,0,.01.013.013.023s-.007,0-.014,0,.006,0,0,0-.006,0-.013-.008.013.015.008.015-.006.011-.019,0c0,.009,0,.01.006.017a.034.034,0,0,1,.021.007s0,.011-.007.006l0-.005c0,.005-.007.006.008.015l-.021-.012a.017.017,0,0,1,0,.02c-.014-.013-.027-.03-.036-.027l.009.019s-.005,0-.013-.006.029.046.01.042-.017-.018-.025-.019.008.009.007.01-.009-.013,0-.005,0,.01.006.014c-.042-.026-.029.014-.056.009.02.018,0,.01.006.019-.02-.02,0,.009-.017,0l.022.017c-.018,0,.021.04-.008.021-.01,0-.014-.015-.016-.02-.027-.016.005.031-.023.012.008.008.022.019.026.031-.012-.005-.03-.008-.033-.012s.007.014,0,.01a.023.023,0,0,1-.006-.011c-.01,0-.005.013,0,.024-.018-.012-.019,0-.033,0,.016.021-.017,0,.008.026l-.008-.006c.005.009.019.026.018.029l-.015-.016c-.018-.018-.013,0-.02,0,.012.008,0,0,.007.013l0,.009c0,.009.007.008,0,.016s-.02-.016-.017-.016-.01,0-.009.009,0,0,.005,0l-.005,0a.009.009,0,0,1,0,.006h0a.016.016,0,0,1,0-.005,0,0,0,0,0,0,0s0,0,0,0,0,0-.006,0l-.012-.014s.006.022.012.027c-.019,0-.024.021-.022.034,0,0-.006-.008,0,0s.007.019,0,.011c0,.008-.011-.006-.017,0l.01.009c-.023-.008,0,.029-.023.027l-.01-.014a.083.083,0,0,0,.008.045.06.06,0,0,1-.012-.016c0,.006-.006.014,0,.028s-.007-.007,0-.009.02.024.014.024l0,0c0,.005,0,.012,0,.017s0-.006-.01-.012-.023,0-.027,0a.06.06,0,0,0,.011.015c0,.009-.013-.009-.015-.006l.027.045c-.005-.006-.02-.013-.024-.023,0,.011.015.037.022.054-.005,0,0,.014-.006.018s0,0-.005-.01l-.016-.008c0-.007-.02-.017-.025-.027,0,.011-.014.014-.024.016.027.018,0,.019.024.038,0,.011-.02-.012-.027-.014,0,.015-.012.017-.016.026l0,0c0,.012-.016.017,0,.041a.05.05,0,0,1-.01-.012c-.014,0,.025.026.005.022l-.009-.011c.005.014-.018,0-.008.022a.046.046,0,0,1-.009-.012c0,.009-.008.013,0,.031a.042.042,0,0,1-.015-.018c-.013,0,.013.023,0,.021a.038.038,0,0,1-.013-.006c.007.011,0,.018,0,.023a.078.078,0,0,0-.021-.01.171.171,0,0,0-.058.093c-.025-.016-.007-.019-.024-.029.018.016,0,.009,0,.023l0,0c0,.007-.013,0-.01.006l0,0c.008.015-.031-.013-.01.011l-.015-.009c.017.023-.012,0,0,.021l0,0c-.015,0,.01.034-.009.021a.032.032,0,0,0,.011.034.1.1,0,0,1-.02-.02c-.011.028-.036.046-.031.084a.026.026,0,0,1-.009-.01c.008.029-.041,0-.013.046l.012.017c-.008,0-.018-.013-.025-.016s-.007.013.005.026c-.007,0-.007-.008-.012-.012s.008.029,0,.029l-.005-.008c-.049,0-.1.016-.086.067,0,.011-.022-.016-.022-.011.007.047-.06.032-.036.092,0,.026.039.075.039.075.018-.053.068-.068.127-.081.008-.016.016-.039.034-.043.04-.052.122-.066.152-.129a.027.027,0,0,1-.015-.019l.006,0-.008-.014c0-.005.016.011.015.016a.388.388,0,0,1,.051-.058c-.016-.017.008-.011-.009-.029,0,0,0,0,.007.008,0-.021,0-.023.037-.014a1.124,1.124,0,0,0,.149-.143c.045-.054.076-.118.12-.175-.02-.034,0-.033-.012-.065l.008.009c0-.02.012-.008.032-.009-.01-.009,0-.006-.016-.02s.029.015.026,0c.005.005-.01-.009,0-.005-.007-.031.006.011.038.009.016-.029.022-.068.053-.081,0,0-.014-.009-.012-.011.028.022,0-.014.014-.009a.024.024,0,0,1,.006.012c.02,0,.012-.024.033-.023,0-.019.031-.008.023-.027.009.011.012,0,.019.006-.025-.036.028-.007.015-.036l.005.006c.021-.027.054-.047.064-.087.01-.018.054-.008.055-.037,0-.006-.01-.011-.011-.016s.01.009.015.011c-.005-.019.02-.016.029-.026s0-.01-.011-.016c.031.009.017-.033.043-.029-.031-.021-.008-.021-.011-.031s.01.005.015.011c0-.011.008-.016.025-.02,0-.007-.012-.022,0-.024.022.014.012-.011.024-.01-.017-.014-.024-.033-.012-.031l.021.023c0-.031.051-.032.042-.079l.015.011c0-.036.04-.041.034-.085a.041.041,0,0,0,.03-.009.089.089,0,0,0-.014-.041s.014,0,.019.008.039,0,.025-.025l.012.01c0-.018-.008-.042.012-.038-.008-.012,0-.024-.021-.033,0-.006.021.016.012,0l.013.019a.11.11,0,0,0,.036-.065c.024.014.014-.019.034-.019-.005-.016.02-.012,0-.039l.012.01a.119.119,0,0,1,.035-.022c.009,0-.008-.019-.009-.029l.012.01a.14.14,0,0,0-.028-.042c.012,0,0-.005.015,0a.142.142,0,0,0,.024.042c.011,0-.012-.036.01-.024s.009-.009,0-.022c0,0,.01,0,.013.011s0-.008,0-.016S751.318,322.15,751.318,322.151Zm-.879.792v0S750.44,322.943,750.439,322.943Z" transform="translate(-741.599 -321.297)" fill="#dd4124"/>
      <path id="Path_1334" data-name="Path 1334" d="M695.852,355.255a1.126,1.126,0,0,1,0-.495.405.405,0,0,1-.094-.165c-.119-.178-.213-.445-.465-.521a.054.054,0,0,1-.04.048l.005-.017-.034.028c-.017,0,.011-.047.028-.046a2.609,2.609,0,0,0-.259-.089c-.02.056-.047-.009-.063.052,0-.012,0-.014.008-.026-.068.02-.068.021-.118-.061a1.049,1.049,0,0,0-.73.123,1.225,1.225,0,0,0-.456.571c.067.076.008.1.066.169l-.026-.014c.027.048-.022.036-.071.068.032.011,0,.018.058.03.04.027-.083,0-.064.032-.018,0,.032.008.014.008.051.072-.027-.02-.1.042a1.254,1.254,0,0,1,.017.314c0-.005.041-.008.042,0-.089.014.026.031-.008.05a.051.051,0,0,1-.033-.011c-.035.049.027.08-.005.128.044.034-.02.1.031.114-.036,0-.021.026-.036.039.112,0-.008.091.073.1l-.018.006a.6.6,0,0,0,.208.29c.05.041.034.165.124.182.019,0,.027-.026.041-.027s-.022.026-.024.04c.056-.011.061.061.1.086.014-.011.028-.009.038-.032,0,.09.114.039.137.108.023-.092.048-.032.073-.046.008.007,0,.03-.01.045a.122.122,0,0,1,.1.047c.024,0,.043-.051.063-.031,0,.066.051.015.07.041,0-.055.041-.094.06-.067l-.018.076c.08-.036.2.052.28-.054l.012.044c.083-.064.19-.031.241-.146a.114.114,0,0,0,.092,0,.184.184,0,0,0,.011-.115c.008-.008.031.019.043.031.037-.01.108.023.09-.056l.024.031c0-.053.006-.113.059-.1-.016-.033,0-.064-.043-.087,0-.014.051.042.032,0l.03.049a.266.266,0,0,0,.1-.186c.068.021.031-.06.083-.076-.019-.037.042-.052-.021-.1h0l.032.014a.708.708,0,0,1,.065-.1c.014-.015-.014-.029-.035-.044l0-.01.018,0a.069.069,0,0,0-.014-.015l.009-.024.03.015c.012-.012-.009-.03-.021-.045l.007-.023h.008a.018.018,0,0,0,0-.029l0-.013,0,0a.054.054,0,0,0,0-.014,1.079,1.079,0,0,0,.023-.189A.724.724,0,0,0,695.852,355.255Z" transform="translate(-689.773 -350.605)" fill="#dd4124"/>
      <path id="Path_1335" data-name="Path 1335" d="M693.723,371.169v0A0,0,0,0,0,693.723,371.169Z" transform="translate(-689.97 -366.466)" fill="#dd4124"/>
      <path id="Path_1336" data-name="Path 1336" d="M702.806,384.686l.005-.008H702.8Z" transform="translate(-698.322 -378.903)" fill="#dd4124"/>
      <path id="Path_1337" data-name="Path 1337" d="M693.52,373.188v0l-.013-.008S693.511,373.185,693.52,373.188Z" transform="translate(-689.772 -368.318)" fill="#dd4124"/>
    </g>
  </g>
</svg>
