<svg xmlns="http://www.w3.org/2000/svg" width="55.583" height="38.649" viewBox="0 0 55.583 38.649">
  <g id="Group_4823" data-name="Group 4823" transform="translate(-0.001)">
    <path id="Path_6270" data-name="Path 6270" d="M1108.441,44.684a5.219,5.219,0,0,1,3.9,1.7,5.7,5.7,0,0,1,1.63,4.086,5.611,5.611,0,0,1-1.63,4.063,5.257,5.257,0,0,1-3.9,1.675,5.31,5.31,0,0,1-3.953-1.675,5.609,5.609,0,0,1-1.629-4.063,5.7,5.7,0,0,1,1.629-4.086A5.271,5.271,0,0,1,1108.441,44.684Z" transform="translate(-1080.099 -24.36)" fill="#f7f4f2"/>
    <g id="Group_4759" data-name="Group 4759" transform="translate(51.391 26.259)">
      <path id="Path_6271" data-name="Path 6271" d="M1128.5,50.262c-.021-.432-.178.224-.061-.285a.207.207,0,0,1,.061.285" transform="translate(-1128.393 -49.977)" fill="#f7f4f2"/>
    </g>
    <g id="Group_4761" data-name="Group 4761" transform="translate(4.201 13.441)">
      <g id="Group_4760" data-name="Group 4760">
        <path id="Path_6272" data-name="Path 6272" d="M1133.337,49.963c-.731-1.165-1.277-2.875-2.572-3.689-.136-.1.223-.164-.1-.387-1.271-.688-2.932-2.056-4.389-3.05l.128-.025c-.274-.2-.742-.135-1.047-.3.019-.049.131-.02.085-.119-.14.107-.6-.183-.786-.126-.1-.107-.047-.212-.188-.342l-.248.093c-.657.2-1.248-.477-2.033-.492.047-.029.127-.037.082-.094-1.221-.11-2.657-.509-3.99-.659.063-.048.132-.15.068-.237-.1.167-.514.144-.872.122-.128-.22-.631.07-1.029-.089l.042-.037c-.333.158-.44-.179-.72.028l-.176-.17c-.166.252-.43-.187-.7-.082l0,.057c-.247.04-.359-.1-.586-.077l-.018-.033c-.528.02-.822-.147-.823.065-.173-.183.513-.045.242-.309-1.741.09-3.515.017-5.253.085-.2-.073-.328-.1-.376-.175a3.01,3.01,0,0,0-.8.2c.057-.008-.12-.1-.212-.105-.323-.061-.328.249-.682.187.132-.065.175-.138.122-.212a3.268,3.268,0,0,1-1.022.285c.049-.04.131-.073.112-.133-.361.228-.7.04-1.02.2l.11-.135c-.557-.082-.127.269-.6.249.105-.057.061-.1.073-.151a6.792,6.792,0,0,1-1.523.464.051.051,0,0,0,.01-.053,8.667,8.667,0,0,0-1.45.334c-.2-.008,0-.3-.482-.147.069.228-.807.289-.455.489a4.631,4.631,0,0,0-1.35.309c.161-.142-.281-.229.056-.346l-.3-.07c.011-.105.278-.045.16-.138a7.81,7.81,0,0,1-.812.309,3.236,3.236,0,0,1-.968.8c.205-.175-.223-.207-.076-.3-.184.232-.367.452-.539.692-.159.073-.1-.167-.319-.017.036.057-.053.135-.105.212-.076-.008-.65.334-.815.147-.11-.053.244-.159.03-.159-.3.131-.282.2-.575.351l-.019-.025c-.211.061-.53.362-.261.382.138-.057-.113-.105.116-.138a1.661,1.661,0,0,1-.679.542c.08-.086.038-.135.046-.216a7.73,7.73,0,0,1-1.041.949c.05.1.048-.265.141-.252-.624.179-.952.863-1.495.969.056-.061.131.107.108.086-.24.163-.328.028-.444.191-.073-.061-.177.167-.3.322-.031.119-.068,0,.054-.122a9.233,9.233,0,0,1-1.358,1.446c.055.036-.051.443-.14.545l-.085-.135c-.16.045-.259.391-.381.334-.042.346.566-1.03.438-.614-.168.008-.163.59-.269.4-.155.24-.17.546-.414.713.058-.057-.065-.306-.17-.1-.174.37-.007.135-.1.447l-.029.209c.122.068-.16.313.046.243-.128,0-.118.546-.335.436l-.161-.11c-.043.172.119.33.165.472-.022.017-.069.053-.1.037.266.085-.1.391.1.614-.144.33-.038.856-.2,1.03a2.073,2.073,0,0,1,.269.782c-.043-.053-.071-.13-.136-.135-.036.209.051.237.139.4-.061-.029-.035.415-.048.667.2.22.3.065.4.053-.16.359.5.586.458.978-.091-.053-.34-.269-.278-.028-.086.37.456.317.609.716l.124-.229c-.008.241.483.371.278.5.156.045.271.416.408.22.332.636,1.3,1.01,1.389,1.6.106.025.288.2.315.073-.059-.2-.245-.057-.243-.163a.13.13,0,0,0,.158-.016c.145.166.277.276,0,.317.318.4.633-.041,1.1.358-.073.07-.056.131.109.2l.379.028c.324.232.09.306.018.452.2.082.435.209.576.147l.139.3c-.1-.22.2,0,.313,0l-.11,0c0,.077.251.147.375.184.015-.107-.2-.252-.308-.339.13-.016.277.074.444.057-.111.122.266.26.417.339.166.11.261-.045.311-.017-.028.077.287.138.1.187-.073,0-.109-.135-.239-.114.093.11.022.237.312.244.218.008.072-.3.388-.07-.108,0-.15.054-.243.074l.3.212.068-.13c.031.053,0,.053.009.076.157-.105.528.159.666.025.175.045.325.22.483.294h-.036a.808.808,0,0,0,.658.15l-.019.028a1.121,1.121,0,0,0,.538.07c.247.192-.065.554.3.469.289.082.521-.127.433-.249.488.241,1.131.159,1.562.484.089-.036.05-.085.212-.085.754.237,1.649.163,2.219.546-.236.025-.039.142-.047.224.207-.1.2.17.3-.037,0-.135.03-.192-.179-.281a3.757,3.757,0,0,1,1.42.257c-.122-.077-.017-.1.09-.13-.061.2.281.272.551.232l.049-.127.156.151c.1-.029.138-.253.384-.107a.233.233,0,0,0,.063.142,1.53,1.53,0,0,1,.957-.093l.227.2c.127-.012.345-.113.129-.178.492.146.814.175.967.337a9.076,9.076,0,0,1,3.128-.35l-.028.1c.271.081.136-.172.324-.11-.084.093.212.187,0,.309.391.085.493-.187.74-.24.033-.127-.2.089-.156-.074.04-.04.537.077.585-.122.1.07.034.216-.013.294l.23-.107c.3.2-.636.44-.317.693l.219-.045c.223.187-.571.265-.012.3.235-.11.421-.4.2-.469.492-.085.2-.464.728-.489.154.1-.42.062-.307.209.262.133.493-.131.72-.094-.252-.049-.062-.26.093-.309.277.065-.157.2.224.179.053-.11.392-.229.084-.277.111-.26.4.028.583-.187.143.158-.344.444.083.484-.085-.159.485-.285.235-.509.168.029.2.159.1.277.247.077.52-.382.642-.061l.055-.184c.081.045.191.074.323.15.206-.024.618-.337.642-.076.062-.037.528-.1.318-.253-.306-.056-.309.187-.509-.024.235.158.41-.1.563-.192l.045.1c.093-.057.323-.077.363-.2-.065.07-.012.13.07.138l.074-.17c.384-.151.146.244.526.126l-.272.175c.06-.04.221.077.4-.008.045-.15.144-.346.183-.464.2-.11.131.13.313-.057l-.243.229c-.034.053.239.183.53.113.177-.09.416-.35.106-.358.146-.037.367-.008.277.122.316-.13-.08-.135.182-.294.137.062.531.1.784.172l-.235.3.2-.048c-.209.248.168.105.074.333a.875.875,0,0,0,.408-.207c-.48-.192.321-.542.123-.786.5-.232.54.566.957-.036-.113-.045.076-.334-.229-.151.336-.077.134-.337.549-.358-.243.212.4.167.047.477,0-.1-.255.008-.311.053.17.061.065.289.4.175.2-.1.476-.2.383-.334-.064-.15-.3.127-.23-.077.384-.2.542.017.6-.322a.256.256,0,0,1-.4-.13l.266-.17-.017.122c.493-.107.066-.241.524-.387l.292.118c-.036.22-.686.179-.495.432.3-.107.342-.281.645-.326-.052.053-.131.094-.183.142.11-.028.369.294.694-.1.177-.176.012-.122-.028-.232.451-.232.531-.411.815-.563.042.232.517-.243.3.127a1.257,1.257,0,0,0-.933.549c.278.167-.383.122-.379.412.381-.155.468.09.6.215.112-.033.185-.146.236-.2-.022-.167-.158-.1-.234-.249a1.82,1.82,0,0,0,.946-.684c.172,0,.2.163.048.26.467-.288.985-.554,1.449-.789-.419-.045.453-.359.142-.419-.264.1-.556.061-.492-.119.15-.073.056.1.145.111.1-.237.41.016.461-.289-.36.334.1.317.134.533.238-.293.069.135.365-.068a11.279,11.279,0,0,1,.812-.908c.51-.167.95-.823,1.225-1.153.231-.1.3.172.5.009.2-.229-.331,0,.032-.261l.009.062c.043-.131.629-.546.414-.848l.131.252c.066-.053.062-.15.078-.22.069.041.187,0,.155.142.309-.133.28-.517.417-.777l-.222.1c.132-.5.39-.746.5-1.226l.135.056-.011-.3c.115.105.282-.142.191-.317a6.579,6.579,0,0,1,.146.851c-.156.183-.086-.281-.269-.192a.607.607,0,0,0-.176.631c.086-.159.053-.184.052-.33.206.012.118.272.179.452.038-.09.135-.2.084-.244a1.224,1.224,0,0,1-.174.692c.02-.228-.161.053-.178-.048.156.105.045.4-.193.716-.327.118-.3.692-.645,1.014a1.857,1.857,0,0,1,.1-.786c-.225.175-.182.249-.421.412a.894.894,0,0,1-.068.724l-.111-.073c-.173.293-.033.432-.369.7-.572.469-1.162.928-1.624,1.238l-.093-.093c-.084.415-.787.659-1.074.981-.669.248-1.282.859-1.71.81a14.027,14.027,0,0,1-3.275,1.495l.141-.252c-.169.212-.176-.053-.379.04.294.07-.233.286-.35.444a4.387,4.387,0,0,0-1.7.639l-.053-.122c-.434.371-1.085.294-1.713.387a.533.533,0,0,0-.4-.09,2.73,2.73,0,0,1-.953.514,5.952,5.952,0,0,1-1.351.073,23.74,23.74,0,0,1-4.216.668l-.111-.15c-1.394.395-3.128.073-4.33.183l.129-.26c-.369-.1-.855.016-.774.211-.37-.1-.952.062-1.172-.178-.378-.086-.481.081-.805.077a8.851,8.851,0,0,0-1.775-.257l.177.045c.088-.049.111-.159-.066-.2-.281.04-.974-.232-.76.126-.737-.3-1.825-.183-2.515-.6.043.1-.148.073-.241.113a11.849,11.849,0,0,0-1.892-.533c-.093-.074.21-.094-.058-.179-.168-.017-.036.105-.246.093a14.739,14.739,0,0,1-3.048-1.25,16.085,16.085,0,0,1-4.824-2.691l.056-.037c-.638-.191-.9-1.107-1.493-1.213-.055-.15-.356-.435-.191-.435-.459-.269-.741-1.16-1.261-1.707a.412.412,0,0,0,.121.147,7.881,7.881,0,0,1-.744-2.064c.046.073.1.207.169.215.033-.313-.427-.655-.141-.876-.028-.17-.171-.1-.146,0a8.517,8.517,0,0,1,1.166-5.179c.883-.913.452.237.863-.672.1-.025-.054-.122,0-.09.188-.334.635-.2.7-.489-.21-.057.045-.192-.03-.277.615-.435.841-.379,1.188-.854l.028.1c.35-.639,1.075-.961,1.383-1.531a29.7,29.7,0,0,1,9.935-3.958,40.163,40.163,0,0,1,10.393-.692,3.179,3.179,0,0,0,1.785.244c-.039.04-.1.045-.039.09.062-.216.637.033.741-.164,1.3.159,2.5.249,3.829.489-.214-.012-.349.142-.1.172l.283-.09.033.065c.175,0,.381-.065.218-.167A27.852,27.852,0,0,1,1128.2,42.8c.659.469,1.673,1.03,2.4,1.572a11.2,11.2,0,0,1,3.585,6.991,2.861,2.861,0,0,1-.851-1.4" transform="translate(-1086.307 -38.546)" fill="#f7f4f2"/>
      </g>
    </g>
    <g id="Group_4762" data-name="Group 4762" transform="translate(51.142 27.057)">
      <path id="Path_6273" data-name="Path 6273" d="M1128.5,50.7c-.121.081-.223.358-.33.105.1-.012.239-.147.33-.105" transform="translate(-1128.172 -50.689)" fill="#f7f4f2"/>
    </g>
    <g id="Group_4763" data-name="Group 4763" transform="translate(46.188 32.252)">
      <path id="Path_6274" data-name="Path 6274" d="M1123.892,55.477c.01.033-.11.025-.139.02.069-.056.088-.178.177-.175-.071.062-.029.094-.038.155" transform="translate(-1123.753 -55.322)" fill="#f7f4f2"/>
    </g>
    <g id="Group_4764" data-name="Group 4764" transform="translate(44.691 32.838)">
      <path id="Path_6275" data-name="Path 6275" d="M1122.419,56.329c-.017-.093.291-.358.488-.484Z" transform="translate(-1122.418 -55.845)" fill="#f7f4f2"/>
    </g>
    <g id="Group_4765" data-name="Group 4765" transform="translate(42.838 33.587)">
      <path id="Path_6276" data-name="Path 6276" d="M1120.882,56.66c-.171-.012-.149-.07.036-.147.034.041-.017.09-.036.147" transform="translate(-1120.765 -56.513)" fill="#f7f4f2"/>
    </g>
    <g id="Group_4766" data-name="Group 4766" transform="translate(42.621 33.925)">
      <path id="Path_6277" data-name="Path 6277" d="M1120.879,56.872a.412.412,0,0,1-.307.016c.037.073.287-.183.307-.016" transform="translate(-1120.572 -56.814)" fill="#f7f4f2"/>
    </g>
    <g id="Group_4767" data-name="Group 4767" transform="translate(38.891 34.95)">
      <path id="Path_6278" data-name="Path 6278" d="M1117.609,57.775c-.085.033-.254.163-.364.085.111.045.395-.24.364-.085" transform="translate(-1117.245 -57.729)" fill="#f7f4f2"/>
    </g>
    <g id="Group_4768" data-name="Group 4768" transform="translate(37.378 35.476)">
      <path id="Path_6279" data-name="Path 6279" d="M1116.091,58.3c-.057,0-.084-.009-.143.033-.112-.017-.018-.11.065-.139Z" transform="translate(-1115.896 -58.198)" fill="#f7f4f2"/>
    </g>
    <g id="Group_4769" data-name="Group 4769" transform="translate(7.064 29.736)">
      <path id="Path_6280" data-name="Path 6280" d="M1088.86,53.078l.148.118-.092.037Z" transform="translate(-1088.86 -53.078)" fill="#f7f4f2"/>
    </g>
    <g id="Group_4770" data-name="Group 4770" transform="translate(11.619 19.029)">
      <path id="Path_6281" data-name="Path 6281" d="M1092.923,43.588c.143-.142.161.016.2.012-.148.09,0-.135-.2-.012" transform="translate(-1092.923 -43.529)" fill="#f7f4f2"/>
    </g>
    <g id="Group_4771" data-name="Group 4771" transform="translate(18.667 15.863)">
      <path id="Path_6282" data-name="Path 6282" d="M1099.289,40.885l-.058.016-.023-.2Z" transform="translate(-1099.208 -40.706)" fill="#f7f4f2"/>
    </g>
    <g id="Group_4773" data-name="Group 4773" transform="translate(0 4.368)">
      <g id="Group_4772" data-name="Group 4772">
        <path id="Path_6283" data-name="Path 6283" d="M1092.819,39.831c-.349.131-.28-.265-.558-.235-.026,0,.128-.127.063-.13-.3.068-.4-.237-.426-.529l.045-.029c0-.053-.157.037-.174-.012.024-.025.044-.025.068-.065-.078.07-.09-.02-.156.025.015-.04.072-.1.086-.147l-.1.065c-.241.159-.11-.126-.277-.085a.15.15,0,0,0,.056-.053c-.227.02-.344-.13-.51-.2a.52.52,0,0,0,.113-.113.189.189,0,0,1-.2.056c.072-.105-.136.033-.127-.056l.021-.017c-.119.07.01-.1-.122,0l.049-.089c-.135.121.023-.107-.064-.062l-.023.028c-.053.009,0-.065-.045-.065l.012-.016c-.081-.012-.042-.11-.136-.008.059-.1.083.008.167-.135a1.113,1.113,0,0,1-.569-.371.388.388,0,0,1,.053-.126c-.036.008-.08-.037-.142,0a.16.16,0,0,0,.035-.077c.007-.065-.137.082-.127.009a.265.265,0,0,0,.1-.086c-.1.054-.127,0-.184,0a.194.194,0,0,0,.068-.048c-.12.057-.048-.077-.132-.053l.067-.045c.016-.119-.13.11-.135.024.028-.008.046-.036.071-.056-.141.068-.174-.029-.248-.029a.232.232,0,0,0,.025-.025c-.056-.024-.072-.1-.164-.1.007-.041.14-.139.073-.159-.108.118-.125-.025-.221.135-.022-.057-.044-.163-.108-.147.059-.028.115-.163.158-.138l.042-.1c.049-.045.01.041.06-.028-.021-.008-.113-.008-.11-.04-.1.045-.253.15-.317.122.067-.025.109-.142.144-.151l-.28.164c-.022-.009.084-.1.03-.09a.243.243,0,0,1-.087.061c.007-.02-.1-.033.005-.159.035-.048.049,0,.071-.056-.032-.025-.071.012-.1-.017l.014-.016c0-.033-.106,0-.145.081.011.017.061-.077.049-.025-.077.057-.13.041-.161.017a.551.551,0,0,0,.09-.073.513.513,0,0,1-.278.036c-.053.057.111-.081.091-.048.013-.131-.223,0-.168-.164.018,0-.068.086-.055.07-.021-.033.055-.114.009-.1.042-.048-.038,0-.07-.008-.042.025.016-.028.037-.02-.064.016-.237-.008-.234-.135-.028.033-.144.077-.155.062l.074-.07c.028-.053-.054-.037,0-.1-.112.062.186.033.082.065.046-.07-.165.062-.064-.028-.03-.025-.135.033-.1-.062,0,.02.118-.077.09-.093-.053-.025-.044.025-.1.016l-.049.012c-.067.07-.027-.045-.086.049.051-.065-.091-.02.022-.13l.092-.09c-.023-.009-.119.068-.17.1l.032-.045c-.135.138-.03-.053-.153.037.009-.082-.089-.09-.024-.2-.068.02-.141.045-.145-.016a.088.088,0,0,0,.062-.029c.019-.061-.021-.028-.061-.024.024-.017.037-.119.062-.192-.067.016-.129.1-.175.147.105-.164-.164.016-.076-.139.027-.012.1-.033.114-.09.1-.163-.148.057-.127-.048l-.1.126c.049-.09-.123.008-.009-.105-.053.028-.012-.082-.113.037.023-.159-.217-.1-.069-.339-.027.008-.033-.033-.083.029-.043.081.065-.021.03.024-.011,0-.043.025-.058.041,0-.045-.005-.07.1-.142.019-.114-.228.146-.246.044.046-.044.058-.065.034-.073l-.108.049c-.02-.054.079-.127.151-.209-.033,0-.055-.033-.119.021l.068-.127c-.049.09-.062.033-.09.045l.028-.012c.027-.037-.016-.037-.037-.037a.161.161,0,0,0-.038.119c-.043.024-.052,0-.1.033.078-.074.018-.09.009-.11,0-.037-.086.048-.089.04.037-.04-.025-.037.043-.077.019-.008-.021.053.022.025.016-.04.083-.11.009-.082-.055.02-.138.159-.129.074a.408.408,0,0,0,.092-.062l0-.07-.067.07a.114.114,0,0,1,.028-.037c-.081.066-.074-.028-.16.049-.025-.008.01-.082,0-.105l.009,0c.019-.062-.035-.057-.1-.025l.016-.016c-.007-.017-.043-.029-.1,0,.022-.077.241-.277.127-.216-.03-.025-.166.09-.2.147-.005-.1-.17-.033-.114-.187-.035.02-.047.045-.077.045-.048-.1-.235-.062-.165-.257.049-.008.069-.07.105-.11-.077.045.04-.085-.067.016-.06.066-.09.094-.093.144a.118.118,0,0,1-.112-.155.1.1,0,0,1-.072.061c.1-.1.081-.142.022-.13l-.062.057.044-.077c-.028.012-.132.122-.1.036l.055-.073c-.074.028-.191.082-.169,0l.063-.114c-.021,0-.093.037-.1.082,0-.1-.02-.135.038-.229a.345.345,0,0,1-.469-.09l.047-.045c.016-.068-.09.07-.077.021.051-.037.072-.114.142-.151.009-.081-.122.037-.166.037-.06.057.055-.02-.022.053-.024.017-.005-.1-.1-.008a.633.633,0,0,1,.136-.139l-.064.021c.074-.131.242-.135.339-.294l-.035,0c.072-.118.157-.061.137-.142a.549.549,0,0,0-.229.2c-.069-.02-.228.2-.27.142.037-.065.052.028.114-.057.046-.1-.086,0-.083-.048-.01.056-.117.13-.148.133.016-.068.1-.073.072-.118-.056.049-.127.057-.133.122-.126.11-.006-.07-.113.008.068-.1.221-.163.222-.244-.071.09-.153.07-.247.209a.319.319,0,0,1,.125-.142c.025-.074-.194.1-.049-.07l-.086.077c.019-.037.028-.065.059-.122-.018-.02-.169.057-.049-.07-.019.008-.058-.04-.122.065-.022.077.091-.036,0,.1.072-.113-.052-.024-.1-.008l.043-.053c-.027.012-.039-.02-.1.028a.143.143,0,0,0,.065-.077l-.079.065c-.073,0,.113-.138.055-.155l.083-.028c-.018,0,.035-.077-.006-.07-.069.062-.159.13-.215.175-.049.012.063-.085-.023-.033l.1-.056c.026-.021.087-.131.057-.155-.04.008-.16.077-.167.142-.015-.012,0-.074.062-.11-.054-.009-.064.077-.131.093.03-.057.056-.155.1-.24l.137-.09-.019-.017c.11-.068.053-.081.157-.166,0-.025-.046-.009-.083,0-.105.192-.24.172-.36.322-.089-.012.287-.374.026-.2-.026.044-.151.126-.079.118-.019-.045-.155.118-.139.025.083-.029.1-.172.222-.216-.046.045-.01.057.009.049.037-.065.134-.139.1-.172-.033,0-.063-.028-.128.049s.039.02-.051.09c-.066-.009.042-.139-.11-.012.037.012-.034.1-.086.158l-.062,0,.056-.049c-.012-.081-.105.086-.138.029l.076-.127c.1-.081.03.1.161-.053-.025-.037-.105.033-.1-.033l.049-.012c-.007-.016.166-.22.015-.147-.064.025-.055.049-.108.1-.064-.028-.131.017-.171-.008.108-.1-.045-.062.093-.139-.044.077.034.139.147.049.1-.142.021.057.154-.065-.037-.04.083-.163.155-.252-.006-.017-.049.008-.067.016-.077.074-.062.086-.137.167-.024-.061-.106-.057-.2,0,.021-.054.1-.127.124-.119a.254.254,0,0,1-.147-.158c-.086.158-.083-.021-.159.105a.33.33,0,0,1-.13.207c-.009-.025.053-.053.071-.09-.086.054.072-.138-.052-.048.086,0,.155-.147.256-.24-.086.024.068-.07.034-.1a.531.531,0,0,1-.225.012c.041-.138-.12-.113-.166-.15.025-.073.145-.172.139-.212-.03-.025-.092.142-.086.049l.025-.017c-.037.012,0-.15-.169,0l.128-.11c0-.016-.031,0-.049.012.037-.04.062-.085.1-.1.052-.105-.067-.036-.1-.061l-.049.09c-.1.012-.066-.09-.137-.107l.067-.07-.066.017c.069-.065.086-.13.018-.09l.233-.1c-.018.057-.1.062-.154.142s.015.094.085.033c-.009-.024-.024-.008-.061,0,.085-.1.108-.077.182-.13-.012,0,0-.045-.028-.017.062-.033.085-.02.117,0-.055.021-.047.074-.081.094.084-.085.136-.085.148-.029-.068.122.126,0,.14.062a.75.75,0,0,1-.242.135c-.016.07.03.025.015.093a.8.8,0,0,1,.247-.155l-.059.065c.061,0,.15-.1.173-.045a.8.8,0,0,0,.146.212l-.058.065c.157-.11.14.037.234.009.007.122.2.068.126.212a.724.724,0,0,1,.4.231l-.108.074c.086-.049-.036.07,0,.073.046-.1.119-.07.187-.113-.017.122.124.105.232.081l-.058.065c.159-.077.117.082.156.155-.019.033-.065.107-.042.114a.458.458,0,0,1,.246-.073.242.242,0,0,1,.062.178c.263-.028.3.187.519.22l-.062.086c.28-.041.3.252.487.272l-.132.118c0,.074.11.041.187-.061,0,.073.144.016.066.142.012.057.1-.02.145-.008.024.113.061.126.149.163l-.009-.02c-.034.02-.086.073-.077.1.058-.012.058.122.178-.057-.013.155.233.082.188.265.034-.045.059-.037.093-.061.063.057.048.2.165.178-.01.029-.083.057-.062.086.029,0,.052-.057.092-.062.174.012.127.269.238.334.239.07.369.269.537.4l-.031.028c.164-.07.009.237.217.093-.015.045.035.062-.031.111.12-.045.043.187.2.138,0-.008-.011,0-.03,0,0,.122.137.081.143.2a.16.16,0,0,0-.071.036c-.031.082.181-.077.054.086.016.011.081-.066.067-.07.085.191.324.232.5.334.02.187-.23.26-.044.223-.019.037.058-.053.031-.02.071-.012-.108.216-.012.155.078-.1.063-.037.117-.09.008.119-.057.212.058.192l-.049.045c.187-.082.187.053.385-.057.352.277.746.481,1.08.757a7.259,7.259,0,0,1,.9.921c-.044.2-.035.2.1.224-.024.016-.033.016-.045.04.1-.1.066.045.168-.048a2.841,2.841,0,0,0,.355.317c-.029-.008-.119.07-.09.081l.086-.044-.024.036a.151.151,0,0,0,.111-.085c.388.192.491.679.814.936.03.107.168.163.265.212.1.354.2.656.52.778,0,0-.282.24-.436.211" transform="translate(-1082.56 -30.454)" fill="#f7f4f2"/>
      </g>
    </g>
    <g id="Group_4775" data-name="Group 4775" transform="translate(15.838 0.025)">
      <g id="Group_4774" data-name="Group 4774">
        <path id="Path_6284" data-name="Path 6284" d="M1101.145,35.538c-.352.025-.105-.252-.352-.289-.018-.008.169-.065.116-.082-.287-.012-.224-.257-.1-.477l.052-.012c.022-.04-.148-.008-.139-.044a.328.328,0,0,0,.089-.034c-.1.034-.065-.033-.141-.016.032-.028.108-.057.144-.09l-.116.028c-.275.066-.029-.118-.188-.121a.249.249,0,0,0,.072-.025c-.2-.033-.223-.172-.328-.257a.853.853,0,0,0,.151-.061c-.116.044-.159.02-.194,0,.11-.062-.129,0-.08-.066l.027-.008c-.132.025.055-.07-.1-.028l.084-.057c-.168.061.07-.073-.024-.057l-.032.017c-.049,0,.029-.049-.007-.057l.018-.009c-.062-.028.019-.089-.109-.036.1-.057.065.025.2-.065-.194-.086-.232-.244-.3-.387a.393.393,0,0,1,.1-.082c-.032,0-.047-.045-.118-.028a.169.169,0,0,0,.065-.049c.037-.049-.154.033-.109-.02a.373.373,0,0,0,.128-.04c-.11.016-.109-.025-.154-.037a.328.328,0,0,0,.08-.025c-.127.017,0-.065-.085-.065l.079-.02c.071-.085-.161.053-.124-.008a.265.265,0,0,0,.085-.029c-.15.02-.13-.057-.192-.073a.122.122,0,0,0,.031-.008c-.034-.033-.01-.094-.088-.111.026-.033.183-.073.138-.1-.148.065-.091-.045-.249.048.009-.045.04-.126-.02-.126.064-.009.174-.1.2-.074l.081-.061c.062-.02-.011.033.063-.008-.013-.012-.09-.029-.072-.054-.1.012-.284.062-.322.025.067,0,.159-.081.191-.077l-.312.057c-.014-.008.117-.053.068-.057a.392.392,0,0,1-.1.029c.015-.017-.063-.049.08-.119.055-.028.042.012.086-.028-.014-.025-.064,0-.078-.033l.019-.008c.014-.025-.085-.025-.157.028,0,.017.085-.04.05,0-.09.025-.128,0-.141-.024a.687.687,0,0,0,.11-.033.527.527,0,0,1-.25-.033c-.07.028.133-.037.1-.017.074-.094-.183-.049-.061-.155.016,0-.1.049-.078.037,0-.029.1-.07.055-.07.058-.029-.028-.012-.053-.025-.047.012.026-.016.039,0-.061,0-.192-.056-.129-.146-.039.016-.158.028-.159.012l.094-.033c.049-.037-.027-.041.052-.077-.124.02.138.065.037.065.072-.045-.168.012-.039-.037-.015-.02-.128,0-.053-.061-.012.011.136-.037.12-.054-.031-.028-.048.009-.091-.008h-.045c-.09.037,0-.04-.1.017.072-.037-.067-.033.082-.094l.119-.045a.835.835,0,0,0-.19.04.137.137,0,0,1,.049-.028c-.18.073,0-.045-.146,0,.047-.056-.03-.085.074-.146-.065,0-.139,0-.113-.045a.152.152,0,0,0,.067-.009c.045-.04,0-.024-.041-.028.028-.008.089-.082.144-.13a.707.707,0,0,0-.216.073c.166-.1-.143-.025,0-.118.028,0,.1,0,.137-.04.166-.1-.149.008-.081-.065l-.142.073c.084-.057-.108-.017.043-.077-.057.008.03-.065-.111,0,.1-.11-.135-.114.1-.261-.028,0-.012-.033-.084,0s.065,0,.013.025a.17.17,0,0,0-.067.016c.025-.033.028-.048.155-.085.07-.077-.261.062-.228-.012.059-.025.079-.036.064-.048l-.113.012c.009-.045.126-.077.225-.119-.026-.012-.03-.036-.109-.012l.117-.077c-.084.054-.067.012-.1.012h.028c.041-.025.007-.033-.011-.036a.2.2,0,0,0-.09.077c-.047.011-.044-.009-.1,0,.1-.04.057-.061.061-.081s-.1.02-.094.011c.05-.02,0-.028.074-.048.019,0-.044.037,0,.025s.122-.062.048-.057c-.056,0-.192.085-.143.028.028,0,.067-.016.105-.025l.038-.053-.09.037a.086.086,0,0,1,.04-.02c-.1.028-.048-.037-.157,0-.017-.011.047-.061.052-.081h.009c.045-.041,0-.049-.067-.037l.02-.008c0-.012-.021-.029-.078-.02.056-.054.333-.155.209-.131-.014-.024-.181.029-.233.066.041-.074-.127-.062-.005-.164-.039.009-.061.025-.088.02.007-.081-.166-.1-.014-.223.046,0,.09-.037.14-.062-.086.02.075-.053-.065,0-.079.037-.119.053-.143.086-.061-.025-.086-.082-.02-.139a.147.147,0,0,1-.089.033c.129-.053.137-.09.081-.093l-.08.033.075-.049c-.029,0-.168.062-.1,0l.081-.041c-.074,0-.2.021-.14-.033l.105-.068a.143.143,0,0,0-.119.036c.051-.073.047-.1.141-.158-.272.033-.328-.07-.347-.164l.061-.02c.045-.048-.108.029-.074,0a1.38,1.38,0,0,1,.189-.082c.048-.057-.119,0-.155-.008-.078.033.056,0-.043.036-.029.009.04-.073-.078-.028a.9.9,0,0,1,.179-.073l-.065,0c.127-.081.268-.048.424-.146l-.026-.012c.114-.07.158-.009.181-.074a.763.763,0,0,0-.287.1c-.049-.028-.286.1-.295.049.063-.041.031.028.124-.021s-.07-.02-.046-.053a.329.329,0,0,1-.186.07c.045-.045.115-.033.114-.07-.07.025-.133.017-.168.062-.158.053.028-.053-.1-.02.1-.054.262-.074.3-.131-.1.049-.159.017-.3.1a.4.4,0,0,1,.173-.081c.055-.045-.21.033-.008-.062l-.109.04a1.241,1.241,0,0,1,.106-.077c-.006-.02-.167,0-.007-.061-.019,0-.029-.04-.134.02-.056.053.093-.008-.049.073.113-.073-.031-.028-.078-.028l.061-.028c-.028,0-.022-.025-.092,0a.236.236,0,0,0,.091-.041l-.1.029c-.062-.012.161-.077.12-.1l.083,0c-.018,0,.065-.048.029-.053-.089.033-.2.065-.265.09-.046,0,.093-.053,0-.033l.113-.02c.03-.009.135-.077.121-.1a.346.346,0,0,0-.206.07c-.008-.012.038-.054.1-.07-.043-.017-.091.045-.155.04.053-.033.12-.1.2-.155l.155-.036-.006-.017c.123-.028.082-.049.209-.09.013-.02-.034-.016-.07-.012-.179.119-.282.074-.454.159-.07-.025.417-.212.119-.142-.043.028-.187.061-.123.07.007-.037-.186.056-.128-.009.083-.008.167-.105.29-.113-.061.02-.036.04-.017.036.063-.04.179-.073.166-.1-.025-.012-.039-.037-.13.008s.024.02-.084.053c-.051-.02.1-.094-.086-.028.025.016-.078.065-.147.1l-.054-.012.07-.02c.03-.065-.127.036-.127-.012l.123-.077c.119-.037-.023.085.159,0,0-.028-.1,0-.066-.045l.046,0c0-.012.245-.13.083-.107-.065,0-.068.025-.138.054-.04-.033-.117-.017-.14-.041.139-.053-.008-.053.145-.085-.074.049-.038.11.1.07.155-.086-.008.045.16-.017-.012-.036.148-.1.25-.155,0-.012-.046,0-.064,0-.1.037-.093.049-.194.094.01-.053-.061-.065-.165-.045.043-.037.141-.074.158-.062a.135.135,0,0,1-.047-.146c-.147.1-.058-.033-.183.045a.5.5,0,0,1-.207.126c0-.02.069-.033.1-.053-.1.02.128-.09-.018-.049.07.021.2-.073.326-.122-.083,0,.09-.036.076-.065a.474.474,0,0,1-.194-.036c.1-.094-.045-.11-.066-.147.055-.045.2-.094.217-.127-.013-.024-.145.086-.1.021l.03-.009c-.038,0,.066-.11-.142-.033l.159-.057c.011-.012-.027,0-.046,0a.386.386,0,0,1,.129-.053c.1-.07-.037-.04-.053-.065l-.083.053c-.09-.012-.012-.077-.063-.105l.09-.037-.064,0c.089-.029.135-.077.057-.057l.245-.033c-.045.04-.117.028-.2.077s-.032.068.056.04c0-.02-.016-.012-.053-.008a.62.62,0,0,1,.213-.062c-.008,0,.025-.033-.015-.016.066-.012.082,0,.1.024-.056,0-.073.041-.111.054.109-.045.154-.037.136.008-.116.077.106.025.087.073a1,1,0,0,1-.267.049c-.045.048.015.025-.031.073a1.04,1.04,0,0,1,.278-.065l-.079.037c.053.012.172-.041.166,0a.423.423,0,0,0,.019.184l-.079.037c.184-.049.1.056.192.056-.054.09.13.09,0,.179.106.074.205.135.221.252l-.126.033c.094-.016-.064.041-.038.054.085-.062.134-.029.212-.045-.073.085.054.1.153.105l-.081.037c.172-.025.058.085.056.146-.031.021-.1.062-.088.074a.6.6,0,0,1,.24,0,.17.17,0,0,1-.037.147c.233.033.165.2.327.269l-.092.053c.254.025.128.244.275.3l-.167.061c-.037.054.073.049.185-.008-.037.053.112.045-.013.122-.017.045.092,0,.125.02-.036.09-.011.107.044.155l0-.02c-.038.008-.109.037-.112.057.055,0-.009.1.176,0-.085.11.155.107.029.232.051-.028.068-.016.106-.025.027.054-.057.159.053.164-.023.02-.1.024-.092.048.026.009.069-.028.105-.025.138.045-.024.224.037.3.165.1.178.272.255.4l-.04.017c.169-.017-.105.175.136.113-.033.029,0,.049-.08.074.122-.009-.054.146.1.142,0,0-.008,0-.027,0-.063.094.075.09.022.179a.211.211,0,0,0-.076.012c-.066.053.187-.02,0,.073.007.012.1-.033.09-.037-.02.159.158.241.257.351-.073.142-.315.142-.142.155-.034.02.073-.025.035-.008.065,0-.191.133-.084.11.112-.057.071-.012.141-.041-.05.086-.15.142-.042.151l-.063.024c.2-.024.129.077.347.037.161.277.391.5.536.778a3.811,3.811,0,0,1,.307.863c-.131.133-.124.138-.028.183a.13.13,0,0,0-.058.025c.134-.053.035.045.164,0a1.294,1.294,0,0,0,.146.3c-.021-.008-.132.029-.115.045l.093-.016-.035.02a.2.2,0,0,0,.132-.04c.231.223.082.6.229.854-.027.09.062.155.119.216-.087.277-.15.521.062.676,0,0-.351.118-.467.065" transform="translate(-1096.685 -26.58)" fill="#f7f4f2"/>
      </g>
    </g>
    <g id="Group_4777" data-name="Group 4777" transform="translate(27.201 0.033)">
      <g id="Group_4776" data-name="Group 4776">
        <path id="Path_6285" data-name="Path 6285" d="M1107.917,35.6c-.333-.11,0-.252-.208-.371-.015-.016.182,0,.138-.028-.258-.114-.1-.3.1-.44l.052.008c.037-.025-.133-.057-.11-.085a.384.384,0,0,0,.1,0c-.1,0-.047-.049-.123-.062.039-.012.121-.012.166-.025l-.117-.016c-.279-.045.019-.11-.126-.172l.076,0c-.171-.1-.139-.224-.2-.334a.666.666,0,0,0,.164,0c-.125,0-.155-.04-.179-.068.127-.012-.115-.049-.046-.086l.028,0c-.132-.029.077-.04-.082-.062l.1-.016c-.179-.008.092-.037,0-.057h-.037c-.042-.02.047-.028.017-.048h.02c-.047-.045.053-.07-.087-.07.111-.017.051.04.213.016a.523.523,0,0,1-.119-.435.514.514,0,0,1,.127-.029c-.028-.016-.026-.053-.1-.068,0,.008.071-.009.078-.017.054-.025-.153-.028-.091-.057a.338.338,0,0,0,.135.012c-.109-.025-.092-.057-.128-.085a.23.23,0,0,0,.082.008c-.123-.033.026-.057-.052-.085l.081.012c.1-.045-.168-.017-.111-.053l.091.008c-.147-.037-.1-.094-.148-.13h.033c-.018-.041.027-.082-.037-.122.037-.017.2,0,.167-.037-.161,0-.066-.073-.249-.049.026-.033.087-.089.032-.113.061.016.2-.017.211.012l.1-.021c.066,0-.022.021.061.017-.007-.017-.071-.061-.045-.073-.1-.029-.284-.054-.3-.1.063.021.178-.011.206,0l-.311-.061c-.008-.017.128,0,.086-.025a.357.357,0,0,1-.1-.017c.018,0-.04-.061.119-.068.062,0,.033.024.09.008,0-.029-.056-.029-.058-.057h.021c.024-.016-.067-.053-.156-.033-.006.012.1,0,.049.017-.092-.017-.119-.045-.12-.074a.776.776,0,0,0,.113.012.528.528,0,0,1-.217-.118c-.076,0,.138.016.1.02.105-.049-.148-.107,0-.15.013.008-.107,0-.086,0,.01-.025.12-.025.08-.04.064,0-.021-.02-.04-.037-.047-.008.031,0,.038.008-.055-.024-.154-.118-.059-.17-.043,0-.157-.033-.152-.049l.1.009c.061-.012-.008-.045.077-.045-.121-.029.1.1.01.065.083-.009-.159-.049-.024-.041,0-.024-.115-.048-.022-.073-.017,0,.138.02.131,0-.018-.037-.048-.012-.081-.04l-.042-.017c-.1,0,.013-.033-.1-.02.079,0-.049-.053.112-.049l.127,0a1.369,1.369,0,0,0-.19-.037c.011,0,.037,0,.057,0-.194,0,.017-.037-.133-.057.067-.033.006-.082.127-.1-.058-.025-.129-.049-.086-.077a.109.109,0,0,0,.065.016c.057-.016.006-.02-.026-.036a1.64,1.64,0,0,0,.183-.057.8.8,0,0,0-.227-.02c.192-.02-.123-.07.051-.1a.217.217,0,0,0,.141.017c.192-.025-.141-.045-.049-.082l-.158.009c.1-.017-.093-.054.068-.049-.056-.012.054-.045-.1-.04.132-.062-.078-.147.2-.184-.026-.008,0-.028-.08-.024s.062.02,0,.024c0-.008-.047-.008-.068-.012.035-.016.046-.033.175-.011.1-.045-.264-.045-.2-.1.064,0,.089,0,.078-.016l-.11-.029c.026-.036.146-.02.255-.02-.019-.02-.014-.04-.094-.048l.136-.025c-.1.016-.065-.017-.092-.025l.027.008c.046,0,.017-.024,0-.033a.174.174,0,0,0-.114.037c-.048-.012-.037-.025-.093-.037.106,0,.076-.033.086-.045s-.1-.02-.092-.024c.056,0,.01-.029.087-.017.018.008-.054.017-.006.025.042-.012.138-.008.067-.033-.053-.017-.21,0-.142-.029a.6.6,0,0,0,.108.017l.055-.029-.1,0a.152.152,0,0,1,.046,0c-.1-.012-.031-.049-.146-.053-.011-.017.066-.033.078-.049l.008,0c.057-.02.02-.045-.046-.057h.021c.008-.012-.008-.033-.065-.045.073-.025.367-.008.245-.037,0-.025-.177-.04-.24-.028.065-.045-.093-.1.058-.139a.362.362,0,0,1-.087-.016c.038-.065-.114-.142.076-.2.04.02.1,0,.152,0-.086-.016.09-.02-.058-.025a.4.4,0,0,0-.166.017c-.047-.04-.047-.1.034-.122a.134.134,0,0,1-.093,0c.14,0,.161-.028.111-.048l-.085,0,.089-.012c-.027-.012-.179-.012-.1-.033l.091-.008c-.069-.02-.187-.053-.115-.077l.125-.02a.171.171,0,0,0-.125-.012c.075-.04.084-.07.192-.082-.262-.073-.272-.179-.253-.265l.064,0c.059-.025-.112-.012-.067-.029.061.009.132-.016.206,0,.067-.033-.11-.04-.139-.061-.084,0,.053.016-.053.012-.03,0,.065-.045-.062-.053a1.021,1.021,0,0,1,.194,0l-.062-.02c.149-.025.265.057.449.029l-.021-.017c.133-.017.15.049.2,0a.758.758,0,0,0-.3-.021c-.035-.04-.3-.02-.292-.065.074-.012.018.037.122.029s-.057-.045-.021-.062a.351.351,0,0,1-.2-.012c.06-.02.12.017.133-.016-.073,0-.128-.037-.179-.008-.166-.012.046-.037-.082-.054.115-.008.269.033.327,0-.112,0-.152-.045-.319-.024a.452.452,0,0,1,.189-.009c.071-.02-.205-.048.018-.053l-.115-.008c.037,0,.065-.017.128-.025,0-.016-.156-.057.018-.053-.018-.008-.01-.049-.131-.033-.073.025.089.028-.074.045.132-.02-.018-.037-.062-.053h.067c-.027-.009-.011-.029-.084-.037a.27.27,0,0,0,.1,0l-.1-.012c-.05-.033.181-.008.15-.04l.08.024c-.018,0,.078-.016.046-.033-.093,0-.205-.016-.277-.024-.042-.017.1-.009.009-.025l.112.025c.031,0,.155-.017.151-.045a.345.345,0,0,0-.218-.012c0-.017.056-.033.123-.02-.033-.033-.1,0-.158-.025.062-.008.151-.04.241-.062l.156.029v-.02c.125.024.1-.009.228,0,.02-.012-.024-.028-.058-.036-.211.033-.289-.041-.482-.029-.052-.048.469-.033.167-.081-.049.008-.2-.017-.14.016.02-.028-.193-.02-.114-.057.08.029.2-.025.311.012-.064,0-.049.02-.031.025.075-.012.2,0,.2-.028-.019-.017-.022-.041-.123-.037s.012.025-.1.016c-.038-.036.13-.045-.066-.061.016.025-.1.028-.174.028l-.046-.025.074,0c.053-.045-.133-.012-.113-.053l.145-.02c.125.008-.056.061.147.053.009-.028-.094-.037-.043-.061l.041.016c.007-.008.276-.016.118-.057-.062-.02-.073,0-.148,0-.022-.045-.1-.057-.112-.086.148,0,.013-.048.166-.02-.086.017-.078.077.063.094.176-.017-.025.036.154.045,0-.037.177-.033.29-.041.008-.008-.04-.016-.058-.024-.106,0-.1.008-.214.008.028-.037-.031-.074-.135-.1a.3.3,0,0,1,.169.008.116.116,0,0,1,.015-.139c-.174.029-.04-.053-.185-.033a.475.475,0,0,1-.241.033c.011-.016.076,0,.113-.008-.1-.016.153-.028,0-.045.056.041.212.008.349.017-.077-.033.1,0,.1-.029a.524.524,0,0,1-.165-.1c.13-.045,0-.11,0-.147.068-.02.223-.008.25-.029,0-.024-.167.017-.1-.02l.03,0c-.036-.012.105-.07-.117-.077l.167.008c.016,0-.022-.012-.04-.016a.711.711,0,0,1,.139,0c.115-.021-.018-.045-.022-.074l-.1.017c-.078-.041.02-.07-.015-.114l.1,0-.057-.025c.093,0,.153-.017.075-.033l.238.065c-.057.02-.117-.02-.212-.008s-.057.048.036.053c.01-.012-.011-.012-.046-.025a.758.758,0,0,1,.22.029c-.006-.009.035-.021-.008-.021.066.017.076.029.08.057-.053-.02-.084.008-.122,0,.119,0,.155.029.122.057-.137.025.087.062.051.1a1.142,1.142,0,0,1-.265-.057c-.061.025,0,.025-.057.049a.992.992,0,0,1,.28.049h-.089c.045.028.176.028.153.061a.38.38,0,0,0-.055.163l-.089,0c.189.025.069.082.154.114-.085.056.085.126-.068.155.068.1.136.187.1.293l-.128-.016c.094.016-.074.011-.055.028.1-.02.134.025.212.037-.1.048.009.105.1.15h-.089c.165.04.02.09-.007.142-.037.008-.12.017-.111.033a.616.616,0,0,1,.223.082.156.156,0,0,1-.092.11c.2.113.073.228.194.345l-.1.009c.222.113.02.257.134.354l-.177-.012c-.055.033.046.073.172.065-.054.028.086.073-.059.093-.033.033.082.041.105.065-.066.062-.052.086-.018.147l.011-.016c-.039-.009-.114-.009-.127.008.049.02-.047.082.165.057-.122.065.1.147-.066.212a.209.209,0,0,1,.109.016c0,.053-.117.11-.017.155-.029.012-.1-.012-.105.008.022.017.076,0,.109.021.108.089-.112.178-.084.26.112.147.056.3.074.436l-.043,0c.163.049-.166.11.079.147-.04.012-.019.045-.1.036.114.037-.109.1.038.155,0,0-.005-.008-.023-.012-.094.054.035.1-.051.159a.192.192,0,0,0-.074-.016c-.082.02.179.048-.026.061,0,.012.1.012.1,0-.081.122.05.256.1.387-.122.093-.345,0-.193.077-.039.008.078.008.036.008.058.028-.229.045-.121.065.126-.012.07.012.147.012-.082.057-.2.07-.1.114l-.066,0c.187.053.088.114.3.159.039.288.159.565.185.85a3.219,3.219,0,0,1-.059.84c-.174.065-.169.073-.1.146a.167.167,0,0,0-.062,0c.143,0,.013.053.15.057a1.153,1.153,0,0,0,.014.309c-.016-.017-.132-.025-.122,0l.091.02-.041,0a.213.213,0,0,0,.138.016c.123.272-.164.538-.128.806-.059.062-.006.151.023.22-.189.2-.343.387-.211.594a1.156,1.156,0,0,1-.454-.113" transform="translate(-1106.82 -26.587)" fill="#f7f4f2"/>
      </g>
    </g>
    <g id="Group_4779" data-name="Group 4779" transform="translate(38.187)">
      <g id="Group_4778" data-name="Group 4778">
        <path id="Path_6286" data-name="Path 6286" d="M1116.693,35.686c-.229-.272.145-.252.026-.472,0-.025.157.09.137.037-.161-.24.076-.346.329-.391l.04.033c.047-.008-.083-.122-.047-.142a.406.406,0,0,0,.082.049c-.085-.057-.012-.074-.073-.122.042.008.112.048.159.057l-.092-.074c-.219-.183.077-.1-.014-.232l.063.041c-.092-.184,0-.294.012-.432a.677.677,0,0,0,.142.081c-.105-.065-.113-.113-.118-.158.119.048-.073-.107.008-.107l.023.017c-.1-.09.087,0-.039-.1l.1.033c-.149-.1.1.008.035-.057l-.032-.016c-.027-.041.057-.009.041-.041l.019.009c-.017-.065.084-.045-.038-.11.106.04.021.065.176.122a.667.667,0,0,1,.141-.493.515.515,0,0,1,.127.029c-.017-.025.008-.066-.047-.114a.125.125,0,0,0,.079.02c.06,0-.118-.1-.048-.1a.334.334,0,0,0,.111.073c-.081-.077-.047-.1-.063-.146a.261.261,0,0,0,.066.048c-.091-.09.055-.045,0-.11l.065.049c.11,0-.14-.094-.068-.107a.482.482,0,0,0,.075.053c-.108-.11-.034-.142-.056-.2a.107.107,0,0,0,.028.016c.006-.048.068-.065.037-.138.041,0,.169.1.166.045-.141-.077-.018-.107-.192-.172.042-.02.128-.048.093-.1.045.045.182.077.177.114l.1.028c.055.033-.032.009.044.045,0-.02-.029-.093,0-.093-.071-.077-.219-.192-.212-.244.044.048.162.073.178.1l-.235-.216c0-.016.114.062.088.02a.469.469,0,0,1-.082-.065c.019,0,0-.081.141-.012.058.025.016.041.075.054.013-.029-.034-.057-.02-.086l.018.012c.031-.008-.029-.09-.117-.11-.011.008.086.04.036.037-.074-.057-.078-.1-.065-.13a.52.52,0,0,0,.092.065.5.5,0,0,1-.123-.22c-.066-.037.111.081.073.068.121,0-.07-.183.089-.15.008.012-.1-.049-.077-.04.023-.021.118.036.092,0,.057.028-.007-.033-.014-.057-.035-.033.03.012.028.028-.035-.048-.067-.191.045-.2-.038-.017-.118-.11-.106-.119l.084.054c.058.016.016-.045.092-.009-.091-.085.031.155-.029.074.078.033-.11-.127,0-.054.011-.028-.073-.105.022-.085-.019,0,.109.09.113.065.006-.045-.035-.036-.048-.081l-.025-.037c-.084-.049.029-.025-.074-.065.073.033-.013-.077.125,0l.108.068c0-.02-.1-.09-.145-.13l.054.02c-.168-.093.035-.028-.086-.118.077,0,.051-.082.166-.037-.038-.053-.085-.11-.034-.118a.122.122,0,0,0,.049.045c.059.012.018-.017,0-.049a.969.969,0,0,0,.191.033.769.769,0,0,0-.187-.13c.179.073-.068-.13.1-.073.018.02.062.081.115.085.179.07-.1-.114,0-.105l-.143-.07c.1.033-.051-.1.088-.017-.042-.04.071-.016-.067-.09.148,0,.012-.183.276-.085-.018-.02.017-.028-.055-.065s.043.053-.011.029c0-.012-.036-.034-.054-.045.042,0,.059-.012.162.068.106.009-.207-.17-.123-.2.055.037.077.045.077.02l-.078-.082c.042-.02.138.054.233.107-.007-.028.01-.049-.055-.1l.131.045c-.1-.033-.049-.045-.067-.07l.018.025c.043.016.029-.017.024-.033a.155.155,0,0,0-.119-.02c-.037-.033-.019-.045-.062-.082.091.053.083,0,.1,0s-.073-.065-.067-.068c.049.028.023-.021.084.028.012.017-.054-.012-.017.02.042.008.126.057.078,0-.037-.04-.186-.1-.11-.1.019.02.055.045.084.07l.065,0-.083-.048a.364.364,0,0,1,.042.02c-.084-.057,0-.062-.1-.127,0-.02.077,0,.1-.008l.006.008c.059.008.04-.033-.009-.082l.018.012c.012,0,.012-.036-.031-.077.078.012.325.172.233.086.012-.029-.132-.127-.193-.147.083-.012-.027-.142.128-.11-.03-.029-.054-.037-.066-.062.071-.045-.021-.2.174-.155.025.041.084.049.132.077-.066-.061.09.025-.037-.056a.36.36,0,0,0-.155-.062c-.019-.061.015-.122.1-.105a.13.13,0,0,1-.078-.049c.12.07.155.053.125,0l-.073-.045.084.028c-.018-.02-.15-.1-.067-.077l.084.037c-.048-.057-.134-.147-.057-.135l.12.04a.146.146,0,0,0-.1-.073c.09,0,.112-.028.214.012-.187-.2-.138-.314-.074-.387l.054.033c.065,0-.091-.065-.042-.062.049.037.125.049.179.1.078,0-.073-.1-.085-.13-.072-.045.037.04-.054-.012-.024-.02.083-.016-.026-.081a.839.839,0,0,1,.168.1l-.042-.049c.142.045.2.184.373.249l-.008-.029c.126.045.1.122.169.1a.688.688,0,0,0-.253-.167c-.007-.061-.253-.166-.218-.207.071.025-.006.045.091.086s-.027-.07.015-.07a.347.347,0,0,1-.167-.11c.065.008.1.073.126.048-.061-.04-.092-.1-.151-.1-.138-.09.059-.008-.044-.09.108.045.218.164.288.159-.1-.049-.109-.118-.265-.184a.451.451,0,0,1,.168.09c.072.012-.153-.15.046-.048l-.1-.062c.036.012.065.017.126.037.011-.017-.1-.13.046-.045-.012-.016.017-.053-.1-.093-.078-.012.061.068-.089,0,.126.049,0-.045-.026-.077l.059.029c-.018-.021.007-.033-.054-.074a.192.192,0,0,0,.089.045l-.083-.061c-.026-.057.16.081.154.033l.055.065c-.012-.017.078.02.059-.012-.079-.049-.169-.118-.23-.159-.025-.036.1.045.025-.02l.084.077c.024.02.144.062.155.033a.332.332,0,0,0-.181-.122c.006-.012.066,0,.119.041-.012-.045-.09-.045-.127-.1.06.021.156.029.244.057l.122.1.011-.016c.1.081.089.033.2.11.025,0-.007-.037-.03-.065-.2-.07-.23-.179-.4-.266-.02-.073.425.2.189,0-.048-.016-.163-.114-.131-.057.035-.016-.157-.113-.068-.11.055.065.186.07.266.163-.055-.033-.055,0-.042.012.071.025.167.1.184.065-.006-.024,0-.053-.084-.1s-.006.033-.1-.033c-.012-.057.137.02-.026-.09,0,.029-.1-.02-.167-.056l-.025-.049.061.04c.071-.02-.109-.077-.068-.11l.137.049c.1.073-.082.036.1.126.022-.024-.063-.081,0-.081l.026.036c.01,0,.251.119.136,0-.042-.048-.061-.04-.126-.077,0-.053-.056-.105-.051-.138.126.077.04-.045.156.061-.084-.028-.112.041,0,.127.163.07-.04.02.11.118.024-.033.173.054.275.1.012-.008-.023-.04-.036-.053-.091-.057-.1-.045-.193-.1.047-.025.016-.09-.063-.164.054.012.144.07.145.09a.15.15,0,0,1,.092-.133c-.168-.054-.009-.066-.146-.119a.432.432,0,0,1-.228-.085c.018-.012.066.037.1.049-.072-.066.149.045.029-.049.025.073.179.114.3.187-.05-.07.084.049.1.02a.445.445,0,0,1-.086-.183c.136.02.062-.107.079-.147.072.012.2.1.233.094.012-.029-.156-.066-.073-.066l.025.017c-.025-.028.13-.017-.057-.135l.139.094c.018,0-.012-.029-.025-.041a.434.434,0,0,1,.12.07c.113.033.011-.057.021-.082l-.1-.033c-.044-.081.058-.065.052-.122l.083.049-.036-.053c.078.053.144.057.083.008l.17.179c-.061-.012-.091-.077-.181-.114s-.077.02,0,.074c.018-.009,0-.021-.025-.049.12.061.1.082.175.135,0-.008.041,0,.006-.02.048.045.048.065.038.093-.037-.045-.079-.033-.109-.057.1.057.121.1.074.119-.131-.045.045.1-.009.118a.894.894,0,0,1-.2-.187c-.065,0-.011.028-.077.02a1.021,1.021,0,0,1,.219.187l-.078-.04c.025.048.139.113.1.135a.472.472,0,0,0-.14.138l-.077-.045c.151.118.015.118.068.2-.105.012,0,.164-.145.119a.433.433,0,0,1-.075.342l-.1-.082c.072.065-.071-.025-.065,0,.1.028.1.09.164.142-.113,0-.052.11,0,.2l-.078-.04c.122.122-.032.1-.086.138-.035-.012-.112-.04-.112-.02a.531.531,0,0,1,.146.192.189.189,0,0,1-.14.065c.112.212-.065.265-.026.44l-.1-.04c.131.22-.125.265-.08.415l-.149-.093c-.065,0,0,.09.116.147-.064,0,.032.118-.105.065-.046.016.049.077.056.113-.093.033-.093.062-.1.139l.018-.012c-.03-.025-.1-.062-.114-.053.031.048-.088.056.111.142-.142,0,0,.2-.174.175.053.02.054.045.084.07-.028.056-.165.056-.1.15-.03-.008-.078-.065-.1-.045.012.025.066.037.085.07.045.142-.2.126-.22.223.017.2-.118.322-.178.469l-.036-.02c.116.127-.207.028-.013.183-.042-.008-.042.033-.108-.016.079.093-.153.053-.055.175.006,0,0-.008-.013-.025-.112.008-.027.122-.132.135a.28.28,0,0,0-.055-.053c-.083-.017.128.138-.058.053-.006.012.085.057.084.049-.139.085-.1.28-.131.435-.159.033-.305-.163-.213-.016-.037-.012.066.045.028.024.035.057-.224-.068-.141,0,.114.053.054.049.121.085-.1.017-.21-.028-.15.065l-.057-.036c.135.142.012.155.176.3-.128.309-.179.648-.316.945-.193.256-.261.577-.52.806-.189-.017-.188-.009-.168.1a.133.133,0,0,0-.052-.033c.123.073-.017.061.1.135a1.562,1.562,0,0,0-.163.313c0-.025-.1-.09-.1-.065l.068.065-.037-.016a.175.175,0,0,0,.112.085c-.045.33-.444.456-.563.741-.086.033-.09.15-.1.232-.279.114-.517.22-.516.492,0,0-.307-.207-.334-.334" transform="translate(-1116.617 -26.558)" fill="#f7f4f2"/>
      </g>
    </g>
    <g id="Group_4781" data-name="Group 4781" transform="translate(46.907 4.585)">
      <g id="Group_4780" data-name="Group 4780">
        <path id="Path_6287" data-name="Path 6287" d="M1124.424,40.044c-.137-.342.247-.257.207-.525,0-.025.129.13.128.065-.077-.294.211-.374.491-.383l.03.045c.053,0-.039-.15,0-.167.026.025.027.045.067.07-.068-.077.015-.085-.029-.15.04.016.1.073.145.09l-.068-.1c-.159-.237.119-.1.074-.261a.148.148,0,0,0,.05.057c-.028-.22.114-.322.177-.481a.536.536,0,0,0,.116.114.181.181,0,0,1-.063-.192c.1.074-.036-.133.049-.121l.017.024c-.072-.118.093.012,0-.118l.087.053c-.119-.135.1.025.058-.061l-.028-.025c-.012-.049.064,0,.059-.037l.017.012c.008-.077.1-.037,0-.13.1.061,0,.077.138.167a.968.968,0,0,1,.334-.529.44.44,0,0,1,.12.057c-.006-.033.035-.074-.006-.135a.238.238,0,0,0,.074.036c.064.009-.084-.133-.01-.122a.238.238,0,0,0,.086.1c-.056-.1-.011-.122-.009-.175a.232.232,0,0,0,.049.07c-.059-.118.074-.045.044-.127l.049.065c.114.025-.11-.126-.03-.126a.293.293,0,0,0,.058.07c-.073-.139.02-.167.018-.237l.023.025c.025-.053.1-.065.093-.151.042.009.138.139.157.077-.12-.11.019-.118-.138-.22.054-.016.152-.033.135-.093.03.057.161.113.142.155l.093.045c.045.048-.038.008.029.057.01-.021.005-.107.036-.1-.045-.1-.156-.249-.128-.309.026.065.141.11.148.146l-.166-.276c.009-.021.1.085.086.033a.344.344,0,0,1-.062-.086c.019.009.03-.09.151.012.052.037,0,.045.059.07.025-.028-.015-.07.01-.1l.017.012c.034,0,0-.1-.082-.139-.016.008.074.062.024.049-.055-.077-.044-.127-.019-.159a.323.323,0,0,0,.072.09.48.48,0,0,1-.046-.265c-.055-.053.085.11.05.085.127.02,0-.212.15-.15,0,.016-.082-.07-.066-.057.031-.02.11.057.1.012.048.045,0-.033.007-.065-.026-.04.027.016.018.037-.017-.062,0-.224.123-.216-.031-.028-.081-.142-.066-.155l.068.077c.054.029.035-.048.1,0-.063-.11-.026.179-.058.077.069.045-.066-.164.025-.062.021-.028-.036-.13.055-.09-.019,0,.081.114.1.09.021-.048-.025-.045-.021-.093l-.012-.049c-.068-.07.04-.025-.052-.085.063.053.015-.085.128.028l.088.09c.009-.02-.072-.113-.1-.167l.047.033c-.139-.133.047-.024-.044-.146.08.012.084-.082.186-.012-.018-.065-.047-.139.011-.139a.121.121,0,0,0,.033.062c.059.02.026-.02.019-.057.017.025.117.04.186.07-.018-.065-.1-.131-.147-.175.161.105-.022-.159.131-.07.011.028.034.1.089.113.161.11-.058-.142.044-.118l-.123-.1c.086.049-.016-.118.1,0-.03-.053.079-.008-.037-.11.154.029.083-.2.322-.053-.011-.025.029-.028-.034-.082s.026.066-.022.029c0-.008-.025-.04-.039-.057.044,0,.066,0,.142.105.11.021-.15-.223-.055-.24.044.049.066.062.073.037l-.052-.107c.052-.016.125.082.205.155a.1.1,0,0,0-.022-.113l.121.07c-.086-.049-.033-.057-.044-.086l.011.029c.037.028.036-.017.037-.037a.192.192,0,0,0-.118-.04c-.026-.041,0-.049-.032-.1.073.073.084.02.105.011s-.051-.085-.044-.085c.04.037.033-.025.076.045.008.017-.052-.025-.025.017.04.02.109.085.08.016s-.157-.142-.076-.13a.809.809,0,0,0,.062.094l.069,0-.069-.065a.218.218,0,0,1,.037.028c-.065-.081.022-.068-.055-.158.008-.02.081.016.1.008l0,.008c.06.02.055-.028.023-.09l.015.017c.014,0,.026-.04,0-.094.076.029.275.244.212.135.022-.028-.092-.163-.146-.2.091,0,.025-.163.175-.1-.021-.033-.044-.048-.048-.077.092-.04.052-.22.242-.147.01.049.068.07.11.107-.048-.073.084.045-.019-.065-.065-.057-.1-.09-.139-.094a.1.1,0,0,1,.144-.1.109.109,0,0,1-.063-.068c.1.1.144.081.128.025l-.059-.062.078.045c-.011-.025-.121-.13-.04-.1l.072.057c-.028-.074-.083-.187-.007-.164l.11.066c0-.021-.037-.09-.081-.094.1.008.128-.012.22.045-.121-.252-.026-.37.069-.444l.044.049c.065.016-.07-.09-.023-.077.038.048.113.073.15.142.081.012-.04-.118-.04-.159-.058-.061.022.053-.052-.025-.018-.024.092,0,0-.093a.8.8,0,0,1,.139.138l-.026-.065c.131.077.139.24.3.339l0-.033c.114.073.063.155.14.138a.58.58,0,0,0-.2-.228c.015-.065-.2-.229-.15-.265.066.036-.021.048.063.11s0-.082.043-.077a.289.289,0,0,1-.135-.147c.065.02.073.1.113.073-.048-.053-.059-.122-.121-.13-.11-.126.066,0-.01-.11.094.07.164.22.24.224-.086-.074-.068-.151-.208-.244a.335.335,0,0,1,.144.122c.07.028-.1-.187.066-.04l-.077-.09c.032.02.063.033.118.065.018-.017-.059-.167.065-.045-.008-.02.037-.053-.065-.122-.077-.025.036.09-.1-.008.113.073.021-.045,0-.094l.052.045c-.011-.025.018-.037-.03-.09a.174.174,0,0,0,.077.065l-.066-.081c0-.07.139.113.15.061l.032.082c-.007-.02.074.036.066,0-.062-.07-.132-.159-.179-.215-.011-.045.085.065.033-.02l.058.1c.019.025.129.09.151.062-.008-.037-.082-.155-.143-.163.011-.017.07,0,.11.061,0-.049-.077-.065-.1-.13.055.033.15.061.234.105l.089.13.018-.016c.069.11.08.053.164.158.026,0,.008-.044-.007-.077-.186-.11-.173-.24-.322-.362.007-.081.369.294.2.037-.045-.028-.129-.15-.117-.082.044-.016-.121-.155-.03-.133.034.076.169.105.216.22-.044-.045-.055-.012-.047.008.065.037.138.135.167.1,0-.029.026-.057-.051-.122s-.018.036-.089-.054c.008-.065.136.045.008-.105-.011.037-.1-.037-.154-.09l-.008-.057.048.054c.079-.009-.084-.1-.03-.131l.125.077c.082.1-.1.025.056.155.033-.02-.035-.1.029-.09l.011.045c.015,0,.22.172.142.025-.026-.065-.048-.057-.1-.11.026-.061-.018-.126,0-.163.1.105.058-.04.139.093-.077-.045-.131.029-.044.139.144.105-.05.02.069.15.037-.033.161.085.249.159.015,0-.011-.045-.018-.065-.074-.077-.085-.062-.166-.139.06-.02.052-.1,0-.191.051.024.123.1.117.122a.209.209,0,0,1,.146-.131c-.153-.093.018-.081-.105-.158a.373.373,0,0,1-.205-.135c.021-.008.055.053.088.073-.051-.085.139.074.048-.048,0,.081.146.155.238.256-.027-.085.07.066.1.037a.479.479,0,0,1-.022-.22c.136.049.105-.105.139-.15.069.028.168.146.208.142.022-.025-.139-.094-.052-.082l.019.025c-.016-.037.142,0-.008-.163l.11.126c.018,0,0-.028-.011-.048.04.036.084.065.1.1.106.057.034-.062.055-.09l-.088-.049c-.015-.1.084-.061.1-.126l.07.065-.018-.065c.062.073.128.09.083.025l.111.228c-.06-.025-.066-.1-.147-.155s-.088.008-.026.082c.022-.009.007-.025-.008-.062.1.09.077.107.132.179,0-.012.044,0,.015-.025.032.062.026.082,0,.11-.021-.053-.069-.045-.091-.081.084.085.088.133.032.142-.121-.07.008.122-.055.133a.791.791,0,0,1-.138-.24c-.066-.016-.022.029-.089.012a.785.785,0,0,1,.157.24l-.066-.056c.008.056.1.146.053.166a.694.694,0,0,0-.2.127l-.065-.057c.113.155-.029.135,0,.224-.117,0-.058.187-.2.11a.635.635,0,0,1-.209.37l-.076-.105c.051.085-.066-.04-.069-.008.1.048.072.118.118.187-.118-.025-.1.113-.071.215l-.066-.057c.081.155-.073.107-.142.142-.033-.02-.1-.068-.11-.044a.491.491,0,0,1,.081.235.234.234,0,0,1-.172.053c.037.252-.168.281-.194.484l-.084-.061c.053.269-.23.272-.241.452l-.12-.13c-.07-.008-.034.1.066.179-.07,0-.011.138-.136.056-.055.012.022.1.015.139-.11.02-.121.053-.153.135l.022,0c-.022-.036-.077-.085-.1-.081.016.056-.112.053.063.175-.15-.02-.068.22-.248.167.046.036.039.056.062.093-.052.057-.194.037-.165.147-.029-.008-.058-.082-.084-.062,0,.029.055.054.063.09-.008.167-.257.11-.314.212-.059.228-.246.342-.366.5l-.029-.033c.073.163-.226,0-.085.2-.039-.017-.054.033-.105-.033.047.118-.179.033-.125.187.008,0,0-.012,0-.033-.121-.009-.073.13-.19.13a.145.145,0,0,0-.037-.07c-.081-.033.08.175-.081.049-.011.012.066.077.07.065-.179.073-.212.3-.3.464-.179.012-.257-.229-.216-.049-.034-.02.053.057.021.029.015.068-.21-.11-.15-.017.1.077.038.061.093.114-.114,0-.207-.065-.181.048l-.045-.048c.084.183-.047.175.067.37-.252.322-.433.688-.687,1a6.478,6.478,0,0,1-.852.819c-.192-.053-.193-.045-.212.077-.018-.02-.018-.029-.042-.045.1.1-.04.065.052.163a2.281,2.281,0,0,0-.288.33c0-.028-.072-.118-.085-.09l.046.082-.033-.025a.156.156,0,0,0,.086.11c-.172.362-.638.44-.869.738-.105.024-.151.155-.2.243-.334.077-.623.159-.725.464,0,0-.243-.28-.223-.427" transform="translate(-1124.395 -30.647)" fill="#f7f4f2"/>
      </g>
    </g>
    <g id="Group_4782" data-name="Group 4782" transform="translate(33.596 26.571)">
      <path id="Path_6288" data-name="Path 6288" d="M1112.7,50.342c-.066-.135-.282.065-.119-.086.128.017.223.041.119.086" transform="translate(-1112.523 -50.256)" fill="#f7f4f2"/>
    </g>
    <g id="Group_4784" data-name="Group 4784" transform="translate(21.349 19.038)">
      <g id="Group_4783" data-name="Group 4783">
        <path id="Path_6289" data-name="Path 6289" d="M1113.828,50.643c-.845-.3-.118-.936-.765-1.218-.049-.033.437-.13.3-.2-.732-.184-.622-.819-.547-1.568l.123-.045c.011-.142-.4.008-.417-.11.066-.054.118-.049.192-.139-.219.139-.222-.077-.4.017.048-.1.2-.229.249-.351l-.257.151c-.607.354-.26-.317-.667-.216.052-.045.1-.068.132-.13-.549.094-.838-.212-1.254-.244a1.42,1.42,0,0,0,.195-.358c-.161.265-.3.28-.413.293.089-.314-.269.2-.3,0l.033-.065c-.194.285-.053-.224-.248.127l.029-.253c-.169.411-.049-.256-.185-.056l-.024.089c-.091.086-.066-.138-.143-.081l.006-.053c-.164.073-.2-.179-.26.163,0-.281.161-.1.165-.514a3.893,3.893,0,0,1-1.507.216,1.084,1.084,0,0,1-.14-.294c-.042.077-.182.094-.194.277a.379.379,0,0,0-.094-.187c-.119-.113-.021.391-.146.265a.7.7,0,0,0-.037-.337c-.024.289-.14.272-.212.387a.537.537,0,0,0-.022-.207c-.019.325-.215-.009-.244.211l-.033-.2c-.232-.176.1.41-.075.321a.629.629,0,0,0-.055-.22c.012.383-.21.342-.262.518a.372.372,0,0,0-.031-.077c-.094.1-.279.053-.316.272-.091-.049-.238-.432-.324-.289.22.342-.114.269.211.6-.129,0-.363,0-.34.155-.053-.15-.357-.345-.3-.435l-.219-.142c-.093-.139.1-.008-.048-.155-.035.048-.062.268-.137.257.088.256.342.651.275.785-.061-.158-.344-.288-.359-.37.127.232.27.464.418.684-.016.049-.243-.207-.21-.085a.917.917,0,0,1,.166.207c-.047-.017-.045.2-.369-.028-.136-.082-.014-.114-.16-.164-.053.077.054.164.007.241l-.044-.029c-.084.012.036.237.252.314.034-.025-.2-.127-.075-.107.164.167.163.277.12.346a1.175,1.175,0,0,0-.216-.183,1.61,1.61,0,0,1,.287.574c.165.1-.278-.2-.182-.172-.32.012.187.444-.213.391-.021-.033.25.1.2.081-.052.054-.3-.056-.231.025-.151-.057.024.077.055.142.1.065-.078-.016-.08-.065.109.127.239.436-.012.521.1.025.355.187.338.215l-.24-.073c-.153,0-.007.118-.219.077.277.142-.176-.346.025-.192-.208-.02.351.232.026.135-.01.074.249.187.013.216.043-.012-.332-.122-.323-.062.029.119.113.053.183.151l.093.065c.24.036-.046.085.23.081-.2-.008.1.151-.3.107l-.315-.049c.021.053.33.11.467.15a.752.752,0,0,1-.145.009c.484.036-.045.1.327.167-.178.085-.023.22-.32.268.151.07.328.119.228.2a.394.394,0,0,0-.166-.033c-.139.061-.011.065.068.105a1.761,1.761,0,0,0-.431.212,1.577,1.577,0,0,0,.57-.025c-.462.139.325.135-.082.289-.073-.008-.25-.057-.359.025-.452.167.379.061.179.212l.379-.122c-.226.105.257.077-.136.179.142-.009-.094.15.274.028-.251.26.3.281-.281.647.07,0,.036.082.211-.016.179-.127-.164.012-.037-.062.02.017.119-.024.168-.044-.059.081-.065.133-.379.223-.157.22.635-.175.573.012-.145.07-.192.11-.148.135l.278-.07c-.01.107-.286.232-.517.374.068.025.09.09.273,0l-.245.241c.175-.176.163-.057.231-.074l-.068.017c-.09.077.007.085.052.093a.476.476,0,0,0,.173-.248c.113-.049.114,0,.247-.057-.222.147-.105.179-.1.228-.018.074.216-.105.219-.09-.108.086.03.07-.143.164-.045.016.079-.107-.031-.054-.064.09-.25.237-.071.176.133-.049.4-.346.324-.176-.064.029-.148.094-.234.142l-.047.156.185-.159c-.039.048-.061.057-.081.085.208-.155.143.045.364-.138.043.012-.062.175-.053.223l-.019.009c-.065.133.05.113.189.02l-.037.036c.005.034.077.049.193-.036-.073.179-.578.712-.318.529.066.04.366-.281.441-.419,0,.2.322-.037.209.325.066-.073.092-.13.15-.163.1.187.427-.09.341.4-.087.068-.1.22-.159.345.129-.179-.042.232.122-.1a1.017,1.017,0,0,0,.124-.4c.138-.065.267-.025.251.192a.379.379,0,0,1,.091-.216c-.122.326-.066.412.027.306l.069-.2-.028.22c.041-.061.145-.424.141-.215a1.869,1.869,0,0,0-.044.223c.1-.155.235-.415.255-.232l-.01.309a.414.414,0,0,0,.079-.3,1.136,1.136,0,0,1,.136.509c.27-.636.468-.648.667-.619l0,.158c.065.147.007-.28.051-.17a3.283,3.283,0,0,1,.044.517c.1.167.08-.289.118-.367-.02-.207-.022.142-.046-.127,0-.073.125.147.086-.166a2.553,2.553,0,0,1,.071.48l.024-.163c.131.358-.04.679.1,1.119l.049-.061c.113.322-.1.4.071.484a1.534,1.534,0,0,0-.065-.753c.105-.11-.084-.745.027-.745.071.175-.076.065,0,.313.11.241.077-.17.144-.093a1,1,0,0,1-.1-.489c.089.13.04.3.124.314-.033-.184-.008-.33-.1-.44-.091-.4.1.093.045-.224.115.272.125.664.255.782a4.32,4.32,0,0,0-.2-.782,1.411,1.411,0,0,1,.164.447c.106.142-.075-.521.138-.008l-.09-.272c.047.085.092.142.175.277.047-.009-.036-.408.141-.012-.007-.049.089-.074-.076-.326-.127-.142.034.229-.161-.126.172.28.052-.077.026-.187l.079.146c-.013-.065.042-.053-.033-.215a.654.654,0,0,0,.123.215l-.1-.232c0-.142.232.391.26.286l.046.2c-.009-.04.133.155.128.062-.1-.212-.225-.464-.311-.628-.023-.105.152.216.058-.008l.1.265c.031.073.232.309.284.269a.965.965,0,0,0-.268-.472c.02-.017.136.081.212.232.009-.1-.148-.2-.188-.351.105.114.29.249.466.4l.182.354.039-.028c.139.288.171.17.341.455.061.017.028-.1,0-.187-.4-.354-.368-.627-.7-.977-.01-.159.824.834.413.187-.1-.077-.311-.383-.265-.232.085-.012-.3-.383-.109-.289.1.183.39.3.526.57-.108-.118-.123-.053-.1-.008.15.11.326.359.389.3.007-.07.053-.122-.136-.289-.2-.191-.033.07-.208-.146,0-.127.308.138-.023-.22-.008.068-.222-.114-.358-.249l-.048-.122.128.135c.157.02-.228-.244-.138-.272l.3.2c.221.22-.193.008.2.339.059-.041-.123-.224.018-.184.025.037.021.062.047.1.025-.008.566.4.325.073-.091-.138-.135-.122-.282-.24.015-.122-.125-.26-.113-.325.3.223.1-.074.369.2-.2-.094-.267.033-.011.285.372.232-.1.033.228.33.074-.065.406.2.642.358.035-.016-.043-.113-.066-.155-.207-.17-.226-.133-.446-.3.123-.049.068-.224-.113-.411.13.045.347.2.341.248a.411.411,0,0,1,.246-.337c-.422-.135-.022-.172-.371-.289a1.1,1.1,0,0,1-.568-.212c.041-.016.167.09.257.122-.186-.146.37.107.056-.1.082.158.464.256.76.427-.132-.167.214.114.254.028a1.333,1.333,0,0,1-.245-.452c.341,0,.113-.3.132-.4.179-.009.541.138.622.085.012-.082-.416-.049-.218-.118l.072.028c-.078-.053.309-.159-.224-.309l.4.122c.043-.012-.046-.053-.084-.082a1.011,1.011,0,0,1,.339.082c.3-.025-.017-.179-.015-.26l-.252.011c-.173-.166.089-.223.017-.37l.241.025-.141-.094c.233.041.388-.028.194-.09.193.086.388.179.577.281-.149.053-.282-.1-.525-.082-.209.012-.165.147.064.2.034-.048-.019-.057-.1-.105.336.02.312.1.528.167-.009-.029.1-.062-.007-.077.155.077.171.138.165.24-.121-.085-.212,0-.3-.037.292.054.368.164.268.269-.353.016.161.272.033.395a2.353,2.353,0,0,1-.592-.358c-.166.045-.012.09-.179.13a1.752,1.752,0,0,1,.633.362l-.214-.057c.083.13.389.229.287.342a4.055,4.055,0,0,0-.37.562l-.2-.09c.386.289.023.376.133.586-.295.09-.081.554-.472.432a1.516,1.516,0,0,1-.582,1.063l-.172-.28c.111.223-.164-.1-.181-.017.236.13.155.309.245.5-.3-.053-.325.289-.338.591l-.135-.179c.1.447-.305.26-.517.317-.067-.07-.2-.224-.244-.179a1.053,1.053,0,0,1-.066.656.652.652,0,0,1-.528-.02c-.293.659-.9.468-1.379.834l-.067-.252c-.475.607-1.144.1-1.6.309l.1-.435c-.11-.155-.317.068-.342.382-.112-.15-.4.142-.4-.237-.117-.118-.222.151-.36.175a.738.738,0,0,0-.63-.272l.054.049c.065-.077.137-.252.086-.3-.145.082-.285-.26-.417.265-.129-.395-.755-.1-.782-.619-.058.135-.135.118-.216.183-.235-.142-.26-.553-.583-.488.015-.082.21-.151.138-.229-.083,0-.125.147-.234.155-.517-.093-.428-.8-.711-1.038a3.446,3.446,0,0,1-1.191-1.657l.1-.033c-.459-.068.222-.61-.416-.59.084-.077,0-.2.2-.224-.316-.1.135-.517-.25-.692-.005.024.017.033.066.053.2-.281-.168-.456.036-.741a.286.286,0,0,0,.189.065c.2-.105-.461-.207.049-.285-.007-.057-.26-.033-.243,0a6.886,6.886,0,0,0-.1-1.8c.4-.354.847.17.554-.24.1,0-.184-.07-.081-.045-.106-.167.6-.029.369-.184-.312-.065-.15-.11-.331-.17.28-.179.557-.114.4-.387l.148.077c-.335-.391,0-.534-.379-.965a7.01,7.01,0,0,1,2.6-3.262,6,6,0,0,1,4.169-.7c.286.472.287.464.676.35-.029.07-.054.077-.044.147.092-.351.249.024.362-.3a14.785,14.785,0,0,1,1.48.508c-.1,0-.258.241-.16.266l.2-.159-.031.1a.3.3,0,0,0,.226-.272c1.445.432,1.981,1.958,2.66,2.976a2.305,2.305,0,0,0,.539.941,6.421,6.421,0,0,0,.024,2.826s-.928-.126-1.157-.427" transform="translate(-1101.6 -43.537)" fill="#f7f4f2"/>
      </g>
    </g>
    <g id="Group_4785" data-name="Group 4785" transform="translate(33.286 26.812)">
      <path id="Path_6290" data-name="Path 6290" d="M1112.764,50.474a.87.87,0,0,1-.517.025c.168,0,.358-.04.517-.025" transform="translate(-1112.247 -50.471)" fill="#f7f4f2"/>
    </g>
    <g id="Group_4786" data-name="Group 4786" transform="translate(31.375 28.298)">
      <path id="Path_6291" data-name="Path 6291" d="M1110.718,51.9c.047.024-.075-.012-.1-.021,0-.024-.13-.105-.04-.081,0,.025.081.061.143.1" transform="translate(-1110.542 -51.796)" fill="#f7f4f2"/>
    </g>
    <g id="Group_4787" data-name="Group 4787" transform="translate(31.061 28.448)">
      <path id="Path_6292" data-name="Path 6292" d="M1110.45,52.211a.407.407,0,0,1-.187-.281Z" transform="translate(-1110.262 -51.93)" fill="#f7f4f2"/>
    </g>
    <g id="Group_4788" data-name="Group 4788" transform="translate(30.348 28.515)">
      <path id="Path_6293" data-name="Path 6293" d="M1109.783,52.127c-.122-.057-.175-.11-.151-.138a1.2,1.2,0,0,1,.151.138" transform="translate(-1109.626 -51.989)" fill="#f7f4f2"/>
    </g>
    <g id="Group_4789" data-name="Group 4789" transform="translate(30.596 28.823)">
      <path id="Path_6294" data-name="Path 6294" d="M1110.026,52.338c-.015.028-.1-.02-.179-.07.109.09-.021-.1.179.07" transform="translate(-1109.847 -52.264)" fill="#f7f4f2"/>
    </g>
    <g id="Group_4790" data-name="Group 4790" transform="translate(29.852 29.034)">
      <path id="Path_6295" data-name="Path 6295" d="M1109.257,52.519c0,.016.047.146-.073.016.09.085-.063-.207.073-.016" transform="translate(-1109.184 -52.453)" fill="#f7f4f2"/>
    </g>
    <g id="Group_4791" data-name="Group 4791" transform="translate(29.682 29.324)">
      <path id="Path_6296" data-name="Path 6296" d="M1109.149,52.875c-.015,0-.034-.025-.021.016a.327.327,0,0,1-.094-.179Z" transform="translate(-1109.033 -52.711)" fill="#f7f4f2"/>
    </g>
    <g id="Group_4792" data-name="Group 4792" transform="translate(24.261 27.517)">
      <path id="Path_6297" data-name="Path 6297" d="M1104.264,51.1l.088.024-.155.033Z" transform="translate(-1104.197 -51.099)" fill="#f7f4f2"/>
    </g>
    <g id="Group_4793" data-name="Group 4793" transform="translate(24.847 24.289)">
      <path id="Path_6298" data-name="Path 6298" d="M1104.732,48.251c-.063-.093.14.053.164.062-.005.045-.157-.119-.164-.062" transform="translate(-1104.72 -48.22)" fill="#f7f4f2"/>
    </g>
    <g id="Group_4794" data-name="Group 4794" transform="translate(25.504 22.142)">
      <path id="Path_6299" data-name="Path 6299" d="M1105.487,46.57l-.011.012-.169-.277Z" transform="translate(-1105.306 -46.305)" fill="#f7f4f2"/>
    </g>
  </g>
</svg>
