<svg xmlns="http://www.w3.org/2000/svg" xmlns:xlink="http://www.w3.org/1999/xlink" width="40" height="40" viewBox="0 0 40 40">
  <defs>
    <clipPath id="clip-path">
      <rect id="Rectangle_2115" data-name="Rectangle 2115" width="40" height="40" transform="translate(970 198)" fill="#db422d" stroke="#707070" stroke-width="1"/>
    </clipPath>
  </defs>
  <g id="Mask_Group_88" data-name="Mask Group 88" transform="translate(-970 -198)" clip-path="url(#clip-path)">
    <g id="file" transform="translate(970 198)">
      <g id="Group_4614" data-name="Group 4614">
        <g id="Group_4613" data-name="Group 4613">
          <path id="Path_1489" data-name="Path 1489" d="M34.94,5.3H31.566V1.928A1.933,1.933,0,0,0,29.639,0H5.06A1.933,1.933,0,0,0,3.133,1.928V32.771A1.933,1.933,0,0,0,5.06,34.7H8.434v3.374A1.933,1.933,0,0,0,10.362,40H26.747a5.625,5.625,0,0,0,3.331-1.321l5.385-5.069a5.118,5.118,0,0,0,1.4-3.249V7.229A1.934,1.934,0,0,0,34.94,5.3ZM8.434,7.229V33.253H5.06a.488.488,0,0,1-.482-.482V1.928a.488.488,0,0,1,.482-.482H29.639a.489.489,0,0,1,.482.482V5.3H10.361A1.933,1.933,0,0,0,8.434,7.229ZM34.472,32.558l-5.385,5.069a2.558,2.558,0,0,1-.413.3V33.494a1.208,1.208,0,0,1,1.2-1.2H34.7A2.023,2.023,0,0,1,34.472,32.558Zm.949-2.2a2.248,2.248,0,0,1-.066.482H29.879a2.656,2.656,0,0,0-2.651,2.651v5a2.521,2.521,0,0,1-.482.058H10.361a.488.488,0,0,1-.482-.482V7.229a.488.488,0,0,1,.482-.482H34.94a.488.488,0,0,1,.482.482Z" fill="#db422d"/>
        </g>
      </g>
      <g id="Group_4616" data-name="Group 4616">
        <g id="Group_4615" data-name="Group 4615">
          <path id="Path_1490" data-name="Path 1490" d="M29.639,12.048H15.663a.723.723,0,1,0,0,1.446H29.639a.723.723,0,0,0,0-1.446Z" fill="#db422d"/>
        </g>
      </g>
      <g id="Group_4618" data-name="Group 4618">
        <g id="Group_4617" data-name="Group 4617">
          <path id="Path_1491" data-name="Path 1491" d="M29.639,21.687H15.663a.723.723,0,1,0,0,1.446H29.639a.723.723,0,1,0,0-1.446Z" fill="#db422d"/>
        </g>
      </g>
      <g id="Group_4620" data-name="Group 4620">
        <g id="Group_4619" data-name="Group 4619">
          <path id="Path_1492" data-name="Path 1492" d="M23.374,26.506H15.663a.723.723,0,1,0,0,1.446h7.711a.723.723,0,0,0,0-1.446Z" fill="#db422d"/>
        </g>
      </g>
      <g id="Group_4622" data-name="Group 4622">
        <g id="Group_4621" data-name="Group 4621">
          <path id="Path_1493" data-name="Path 1493" d="M29.639,16.867H15.663a.723.723,0,1,0,0,1.446H29.639a.723.723,0,1,0,0-1.446Z" fill="#db422d"/>
        </g>
      </g>
    </g>
  </g>
</svg>
