<svg xmlns="http://www.w3.org/2000/svg" xmlns:xlink="http://www.w3.org/1999/xlink" width="21" height="21" viewBox="0 0 21 21">
  <defs>
    <clipPath id="clip-path">
      <rect id="Rectangle_670" data-name="Rectangle 670" width="21" height="21" transform="translate(31 14)" fill="#db422d" stroke="#db422d" stroke-width="0.3"/>
    </clipPath>
  </defs>
  <g id="Manage_Roles" data-name="Manage Roles" transform="translate(-31 -14)" clip-path="url(#clip-path)">
    <g id="settings" transform="translate(31 14)">
      <path id="Path_1159" data-name="Path 1159" d="M11.159,21H9.841a1.935,1.935,0,0,1-1.933-1.933v-.446a8.478,8.478,0,0,1-1.316-.546l-.316.316a1.933,1.933,0,0,1-2.734,0l-.932-.931a1.933,1.933,0,0,1,0-2.734l.316-.316a8.478,8.478,0,0,1-.546-1.316H1.933A1.935,1.935,0,0,1,0,11.159V9.841A1.935,1.935,0,0,1,1.933,7.908h.446a8.48,8.48,0,0,1,.546-1.316L2.61,6.275a1.933,1.933,0,0,1,0-2.734l.932-.932a1.933,1.933,0,0,1,2.734,0l.316.316a8.486,8.486,0,0,1,1.316-.546V1.933A1.935,1.935,0,0,1,9.841,0h1.318a1.935,1.935,0,0,1,1.933,1.933v.446a8.478,8.478,0,0,1,1.316.546l.316-.316a1.933,1.933,0,0,1,2.734,0l.932.931a1.933,1.933,0,0,1,0,2.734l-.316.316a8.479,8.479,0,0,1,.546,1.316h.446A1.935,1.935,0,0,1,21,9.841v1.318a1.935,1.935,0,0,1-1.933,1.933h-.446a8.48,8.48,0,0,1-.546,1.316l.316.316a1.933,1.933,0,0,1,0,2.734l-.932.932a1.933,1.933,0,0,1-2.734,0l-.316-.316a8.486,8.486,0,0,1-1.316.546v.446A1.935,1.935,0,0,1,11.159,21ZM6.8,16.782a7.252,7.252,0,0,0,1.88.78.615.615,0,0,1,.462.6v.908a.7.7,0,0,0,.7.7h1.318a.7.7,0,0,0,.7-.7v-.908a.615.615,0,0,1,.462-.6,7.252,7.252,0,0,0,1.88-.78.615.615,0,0,1,.748.095l.643.643a.7.7,0,0,0,.994,0l.932-.932a.7.7,0,0,0,0-.994l-.644-.644a.615.615,0,0,1-.095-.748,7.251,7.251,0,0,0,.78-1.88.615.615,0,0,1,.6-.461h.908a.7.7,0,0,0,.7-.7V9.841a.7.7,0,0,0-.7-.7h-.908a.615.615,0,0,1-.6-.461,7.252,7.252,0,0,0-.78-1.88.615.615,0,0,1,.095-.748l.643-.643a.7.7,0,0,0,0-.994l-.932-.932a.7.7,0,0,0-.994,0l-.644.644a.615.615,0,0,1-.748.095,7.252,7.252,0,0,0-1.88-.78.615.615,0,0,1-.462-.6V1.933a.7.7,0,0,0-.7-.7H9.841a.7.7,0,0,0-.7.7v.908a.615.615,0,0,1-.462.6,7.252,7.252,0,0,0-1.88.78.615.615,0,0,1-.748-.095L5.405,3.48a.7.7,0,0,0-.994,0l-.932.932a.7.7,0,0,0,0,.994l.644.644a.615.615,0,0,1,.095.748,7.251,7.251,0,0,0-.78,1.88.615.615,0,0,1-.6.461H1.933a.7.7,0,0,0-.7.7v1.318a.7.7,0,0,0,.7.7h.908a.615.615,0,0,1,.6.461,7.252,7.252,0,0,0,.78,1.88.615.615,0,0,1-.095.748l-.643.643a.7.7,0,0,0,0,.994l.932.932a.7.7,0,0,0,.994,0l.644-.644a.618.618,0,0,1,.748-.094Z" fill="#db422d" stroke="#db422d" stroke-width="0.3"/>
      <path id="Path_1160" data-name="Path 1160" d="M10.5,15.069A4.569,4.569,0,1,1,15.069,10.5,4.574,4.574,0,0,1,10.5,15.069Zm0-7.908A3.339,3.339,0,1,0,13.839,10.5,3.342,3.342,0,0,0,10.5,7.161Z" fill="#db422d" stroke="#db422d" stroke-width="0.3"/>
    </g>
  </g>
</svg>
