<svg xmlns="http://www.w3.org/2000/svg" width="119" height="119" viewBox="0 0 119 119">
  <g id="Matterport_Training" data-name="Matterport Training" transform="translate(-617 -419)">
    <rect id="Rectangle_874" data-name="Rectangle 874" width="119" height="119" rx="10" transform="translate(617 419)" fill="#38ada2" opacity="0.1"/>
    <g id="Group_1341" data-name="Group 1341" transform="translate(-284.533 -871.059)">
      <g id="pc" transform="translate(924.534 1292.444)">
        <g id="Group_1322" data-name="Group 1322" transform="translate(0 24.615)">
          <g id="Group_1321" data-name="Group 1321">
            <path id="Path_1075" data-name="Path 1075" d="M64.821,24.615H7.667A7.676,7.676,0,0,0,0,32.282V68.526a7.676,7.676,0,0,0,7.667,7.667H26.18L23.95,87.345H16.728a1.394,1.394,0,0,0,0,2.788H55.76a1.394,1.394,0,1,0,0-2.788H48.539l-2.23-11.152H64.821a7.676,7.676,0,0,0,7.667-7.667V32.282a7.676,7.676,0,0,0-7.667-7.667ZM26.793,87.345l2.23-11.152H43.465L45.7,87.345H26.8ZM69.7,68.526A4.885,4.885,0,0,1,64.821,73.4H7.667a4.885,4.885,0,0,1-4.879-4.879V65.041H69.7Zm0-6.273H2.788V59.465h8.364a1.394,1.394,0,0,0,0-2.788H2.788v-24.4A4.885,4.885,0,0,1,7.667,27.4H64.821A4.885,4.885,0,0,1,69.7,32.282V62.253Z" transform="translate(0 -24.615)" fill="#38ada2"/>
          </g>
        </g>
        <g id="Group_1324" data-name="Group 1324" transform="translate(33.456 66.435)">
          <g id="Group_1323" data-name="Group 1323">
            <path id="Path_1076" data-name="Path 1076" d="M239.1,320a2.788,2.788,0,1,0,2.788,2.788A2.788,2.788,0,0,0,239.1,320Z" transform="translate(-236.308 -320)" fill="#38ada2"/>
          </g>
        </g>
        <g id="Group_1326" data-name="Group 1326" transform="translate(31.97 40.554)">
          <g id="Group_1325" data-name="Group 1325">
            <path id="Path_1077" data-name="Path 1077" d="M241.5,147.956,238.541,145l2.464-2.464a1.394,1.394,0,0,0-.672-2.344l-12.814-2.957a1.394,1.394,0,0,0-1.672,1.672l2.957,12.814a1.394,1.394,0,0,0,2.344.672l2.464-2.464,2.957,2.957a1.394,1.394,0,0,0,1.971,0l2.957-2.957a1.394,1.394,0,0,0,0-1.973Zm-3.943,1.971L234.6,146.97a1.394,1.394,0,0,0-1.971,0l-1.672,1.672-1.89-8.19,8.19,1.89-1.672,1.671a1.394,1.394,0,0,0,0,1.971l2.957,2.957Z" transform="translate(-225.811 -137.198)" fill="#38ada2"/>
          </g>
        </g>
        <g id="Group_1328" data-name="Group 1328" transform="translate(26.732 35.316)">
          <g id="Group_1327" data-name="Group 1327">
            <path id="Path_1078" data-name="Path 1078" d="M192.59,102l-1.39-1.39a1.394,1.394,0,1,0-1.971,1.971l1.394,1.394A1.394,1.394,0,1,0,192.59,102Z" transform="translate(-188.816 -100.201)" fill="#38ada2"/>
          </g>
        </g>
        <g id="Group_1330" data-name="Group 1330" transform="translate(24.423 40.893)">
          <g id="Group_1329" data-name="Group 1329">
            <path id="Path_1079" data-name="Path 1079" d="M175.869,139.587H173.9a1.394,1.394,0,1,0,0,2.788h1.971a1.394,1.394,0,1,0,0-2.788Z" transform="translate(-172.504 -139.587)" fill="#38ada2"/>
          </g>
        </g>
        <g id="Group_1332" data-name="Group 1332" transform="translate(26.733 45.074)">
          <g id="Group_1331" data-name="Group 1331">
            <path id="Path_1080" data-name="Path 1080" d="M192.591,169.533a1.394,1.394,0,0,0-1.971,0l-1.394,1.394A1.4,1.4,0,1,0,191.2,172.9l1.394-1.394a1.394,1.394,0,0,0,0-1.973Z" transform="translate(-188.817 -169.124)" fill="#38ada2"/>
          </g>
        </g>
        <g id="Group_1334" data-name="Group 1334" transform="translate(36.491 35.316)">
          <g id="Group_1333" data-name="Group 1333">
            <path id="Path_1081" data-name="Path 1081" d="M261.514,100.61a1.394,1.394,0,0,0-1.971,0l-1.4,1.39a1.394,1.394,0,1,0,1.971,1.971l1.394-1.394a1.394,1.394,0,0,0,0-1.967Z" transform="translate(-257.74 -100.201)" fill="#38ada2"/>
          </g>
        </g>
        <g id="Group_1336" data-name="Group 1336" transform="translate(32.309 33.007)">
          <g id="Group_1335" data-name="Group 1335">
            <path id="Path_1082" data-name="Path 1082" d="M229.6,83.888a1.394,1.394,0,0,0-1.394,1.394v1.971a1.394,1.394,0,1,0,2.788,0V85.282a1.394,1.394,0,0,0-1.394-1.394Z" transform="translate(-228.203 -83.888)" fill="#38ada2"/>
          </g>
        </g>
        <g id="Group_1338" data-name="Group 1338" transform="translate(13.94 56.678)">
          <g id="Group_1337" data-name="Group 1337">
            <path id="Path_1083" data-name="Path 1083" d="M101.222,252.2a1.353,1.353,0,0,0-.079-.262,1.41,1.41,0,0,0-.128-.24,1.355,1.355,0,0,0-.385-.385,1.384,1.384,0,0,0-.241-.128,1.311,1.311,0,0,0-.261-.079,1.372,1.372,0,0,0-.544,0,1.311,1.311,0,0,0-.261.079,1.382,1.382,0,0,0-.626.513,1.418,1.418,0,0,0-.128.24,1.4,1.4,0,0,0-.079.806,1.31,1.31,0,0,0,.079.261,1.382,1.382,0,0,0,.513.626,1.383,1.383,0,0,0,.241.128,1.365,1.365,0,0,0,1.066,0,1.383,1.383,0,0,0,.626-.513,1.383,1.383,0,0,0,.128-.241,1.309,1.309,0,0,0,.079-.261,1.339,1.339,0,0,0,0-.544Z" transform="translate(-98.462 -251.081)" fill="#38ada2"/>
          </g>
        </g>
      </g>
    </g>
  </g>
</svg>
