<svg id="Group_5573" data-name="Group 5573" xmlns="http://www.w3.org/2000/svg" xmlns:xlink="http://www.w3.org/1999/xlink" width="52.968" height="40.099" viewBox="0 0 52.968 40.099">
  <defs>
    <clipPath id="clip-path">
      <rect id="Rectangle_2721" data-name="Rectangle 2721" width="52.967" height="8.491" fill="#fff"/>
    </clipPath>
  </defs>
  <g id="Group_5561" data-name="Group 5561" transform="translate(-532.084 -263.768)">
    <path id="Path_9947" data-name="Path 9947" d="M172.887,123.786a3.074,3.074,0,0,1,2.365.946c.1.113.266.234.218.391a6,6,0,0,1-1.174,2.449c-.119-.17.025-.3.114-.445a4.649,4.649,0,0,0,.424-.956c.1-.287.184-.473.266-.7.075-.2.108-.322-.039-.466a2.935,2.935,0,0,0-2.348-.892,1.612,1.612,0,0,1,.957,1.013l-.067.053c-.666-.423-1.066-.456-1.465-.12a7.986,7.986,0,0,1,1.653.449l-.011.339a1.353,1.353,0,0,1-.082.341,1.706,1.706,0,0,1-.783.846c-.634.272-1.187.089-1.762-.593l-.109-.253a2.457,2.457,0,0,1,.037-1.349l-.685.5a.594.594,0,0,0-.358.224l-.725.381c.037-.531.08-1.008.1-1.486a.64.64,0,0,1,.473-.623c.62-.234,1.233-.485,1.849-.73l2.048-.8a45.11,45.11,0,0,1-10.316-1.387c-1.524-.377-3.012-.87-4.506-1.345l-.128-.047-.123-.042-.2-.092a.482.482,0,0,1,.131-.348,10.631,10.631,0,0,1,6.98-4.793,11.745,11.745,0,0,1,4.129.067,11.012,11.012,0,0,1,4.636,2.251l1.016.987a13.212,13.212,0,0,1,1.234,1.723c.074.132.14.191.3.1a6.559,6.559,0,0,0,2.573-2.344,6.172,6.172,0,0,0,1.018-2.8,3.474,3.474,0,0,1-.22,4.33,12.367,12.367,0,0,1-1.523.972,8.033,8.033,0,0,0,5.731-3.542,3.342,3.342,0,0,1-.072,1.195,6.76,6.76,0,0,1-.838,2.386,3.48,3.48,0,0,1-2.359,1.655,13.639,13.639,0,0,1-3.766-.234,7.084,7.084,0,0,1,.232.931l-2.214.26.785.375a8.129,8.129,0,0,1-1.176-.041" transform="translate(389.646 165.207)" fill="#020202"/>
    <path id="Path_9948" data-name="Path 9948" d="M3.6,271.089a4.064,4.064,0,0,1-.323-.351,13.749,13.749,0,0,1-3.257-8.457,13.957,13.957,0,0,1,.709-5.2,5.481,5.481,0,0,1,.517-1.215,1.387,1.387,0,0,1,.564.234c.941.448,1.88.9,2.819,1.354-.033.093-.063.186-.1.278a10.291,10.291,0,0,0-.752,3.328,10.556,10.556,0,0,0,.529,4.051,10.989,10.989,0,0,0,1.962,3.475c-.3.253-.608.494-.89.763-.57.542-1.219,1.189-1.78,1.74" transform="translate(542.948 28.086)" fill="#d6d8d9"/>
    <path id="Path_9949" data-name="Path 9949" d="M41.437,15.694c-.939-.452-1.878-.906-2.819-1.354-.163-.078-.4-.176-.564-.234a2.061,2.061,0,0,1,.154-.406,14.073,14.073,0,0,1,9.91-7.711c.2-.046.416-.055.624-.081q.038.421.076.842c.086.954.29,1.895.3,2.856A10.631,10.631,0,0,0,42.14,14.4a.482.482,0,0,0-.131.348,3.55,3.55,0,0,0-.572.947" transform="translate(506.142 269.848)" fill="#949598"/>
    <path id="Path_9950" data-name="Path 9950" d="M467.318,593.252a13.44,13.44,0,0,1-4.2,4.81,14.043,14.043,0,0,1-6.861,2.588,2.2,2.2,0,0,1-.254,0c-.009-.126-.017-.253-.029-.38-.1-1.036-.3-2.062-.314-3.106a.44.44,0,0,1,.282-.068,10.292,10.292,0,0,0,6.04-2.617,13.116,13.116,0,0,0,2.2-2.674.609.609,0,0,1,.363.1q1.387.674,2.773,1.35" transform="translate(102.233 -296.829)" fill="#bd2642"/>
    <path id="Path_9951" data-name="Path 9951" d="M364.3,3.892c-.012-.961-.216-1.9-.3-2.856l-.076-.842a12.8,12.8,0,0,1,4.167-.046,13.8,13.8,0,0,1,4.614,1.466,10.748,10.748,0,0,1,2.9,2.112c-.113.1-.182.181-.288.273-.8.69-1.516,1.456-2.248,2.211a11.012,11.012,0,0,0-4.636-2.251,11.745,11.745,0,0,0-4.129-.067" transform="translate(190.96 275.562)" fill="#d6d8d9"/>
    <path id="Path_9952" data-name="Path 9952" d="M152.5,675.992c.017,1.044.217,2.07.314,3.106.012.126.019.253.028.379A13.923,13.923,0,0,1,142.22,675.9l2.566-2.6a10.935,10.935,0,0,0,3.953,2.22,12.318,12.318,0,0,0,3.762.47" transform="translate(405.393 -375.658)" fill="#fd3259"/>
    <path id="Path_9953" data-name="Path 9953" d="M718.592,334.637l-2.773-1.35a.609.609,0,0,0-.363-.1,16.751,16.751,0,0,0,.738-1.781l.241-.793a10.434,10.434,0,0,0,.191-4.24,4.68,4.68,0,0,0-.234-1.029,7.1,7.1,0,0,0-.232-.931,13.636,13.636,0,0,0,3.765.234,14.211,14.211,0,0,1-1.081,9.548c-.074.152-.168.294-.252.44" transform="translate(-149.041 -38.215)" fill="#fd3259"/>
    <path id="Path_9954" data-name="Path 9954" d="M677.757,145.484a6.559,6.559,0,0,1-2.573,2.344c-.156.087-.222.029-.3-.1A13.208,13.208,0,0,0,673.654,146c.848-.809,1.685-1.63,2.481-2.49" transform="translate(-108.611 136.757)" fill="#fa335a"/>
    <path id="Path_9955" data-name="Path 9955" d="M113.449,644.642l-2.566,2.6a9.763,9.763,0,0,1-1.063-1.072c.561-.551,1.21-1.2,1.78-1.74.283-.269.593-.509.89-.763l.958.972" transform="translate(436.73 -346.997)" fill="#f3f1f1"/>
    <path id="Path_9956" data-name="Path 9956" d="M646.169,114.6c-.8.861-1.633,1.682-2.481,2.49l-1.016-.987c.732-.755,1.452-1.521,2.248-2.211.106-.092.171-.175.288-.273a6.151,6.151,0,0,1,.962.98" transform="translate(-78.645 165.665)" fill="#f3f1f1"/>
    <path id="Path_9957" data-name="Path 9957" d="M778.428,250.836a6.2,6.2,0,0,1-1.761.419,12.364,12.364,0,0,0,1.523-.973l.238.553" transform="translate(-208.245 33.487)" fill="#fa335a"/>
    <path id="Path_9958" data-name="Path 9958" d="M135.883,278.968a10.438,10.438,0,0,1-.191,4.24,12.928,12.928,0,0,0-1.478.517,53.087,53.087,0,0,1-5.694,1.486c-.323.069-.7.015-.971.292a28.907,28.907,0,0,1-8.324-.477c-1.249-.25-2.455-.65-3.67-1.021a10.558,10.558,0,0,1-.529-4.052,10.291,10.291,0,0,1,.752-3.328c.035-.092.065-.185.1-.278a3.548,3.548,0,0,1,.572-.947l.2.092a.094.094,0,0,0,.123.042l.128.047a2.375,2.375,0,0,0,1.057.562A40.7,40.7,0,0,0,123.58,278a42.9,42.9,0,0,0,4.775.9c.439.058,1.048-.094,1.456.163-.616.244-1.363.548-1.983.782a.64.64,0,0,0-.473.623c-.02.478-.064.955-.1,1.486l.725-.381A5.883,5.883,0,0,0,127.9,284a.268.268,0,0,0,.262.233c.6.1,1.192.18,1.789.265.035.005.089.007.091-.056-.01-.108-.138-.077-.189-.17.235-.039.364-.083.591-.121.279-.055-.028-.035.3-.105a3.392,3.392,0,0,0,.737-.2c.249-.107.538-.059.766-.266a6.007,6.007,0,0,0,1.174-2.449c.049-.157-.114-.278-.218-.391a3.074,3.074,0,0,0-2.365-.946,4.716,4.716,0,0,1,.469-.325,2.829,2.829,0,0,1,1.74.278c.038-.27-.3-.445-.383-.594a1.355,1.355,0,0,1,.309-.012c.972-.063,1.945-.121,2.917-.179m-15.827,4.878-.254.1c.288.2.663.049.948.239-.014.11-.181.015-.166.145a8.888,8.888,0,0,0,1.766-.176c.4-.029.519-.262.518-.619a13.133,13.133,0,0,0-.1-2.162c.312.175.636.4.991.6-.039-.535-.09-1.013-.1-1.492a.638.638,0,0,0-.473-.624q-2.346-.92-4.69-1.849c-.117-.046-.232-.117-.363-.055q-.674.314-1.346.633a5.393,5.393,0,0,0,1.12-.039.81.81,0,0,1,.8.345c-.657.249-.722.324-.82.779.467-.486,1.138-.3,1.674-.281a.842.842,0,0,1,.383.258l-.625.076a2.812,2.812,0,0,0-1.843.945c-.091.1-.221.213-.175.365a5.9,5.9,0,0,0,1.126,2.382.521.521,0,0,0,.424.235l1.2.206" transform="translate(431.702 9.194)" fill="#f7c78a"/>
    <path id="Path_9959" data-name="Path 9959" d="M185.386,284.416c-.808-.1-1.017-.1-1.456-.163a42.9,42.9,0,0,1-4.775-.9,40.69,40.69,0,0,1-5.619-1.86,2.374,2.374,0,0,1-1.057-.562c1.494.475,2.982.968,4.506,1.345a45.113,45.113,0,0,0,10.316,1.387l-1.914.749" transform="translate(376.126 3.841)" fill="#d29e63"/>
    <path id="Path_9960" data-name="Path 9960" d="M519.274,484.209a1.51,1.51,0,0,1-.766.266l-.345.065-.185.042-.408.052-.263,0-.321.012-.448,0H516.3a1.906,1.906,0,0,1-1.124-.2,2.553,2.553,0,0,1,.951-1.368c.575.682,1.128.866,1.762.593a1.706,1.706,0,0,0,.783-.846c.408.179.467.671.674,1-.073.107-.175.211-.074.385" transform="translate(44.668 -191.43)" fill="#faf9f8"/>
    <path id="Path_9961" data-name="Path 9961" d="M635.8,353.831c-.973.059-1.945.124-2.917.179-.063,0-.17.009-.271.012a1.665,1.665,0,0,0-.723-.108c.334-.221.613-.555,1.071-.518a8.117,8.117,0,0,0,1.176.041l-.785-.375,2.214-.26a4.683,4.683,0,0,1,.234,1.029" transform="translate(-68.218 -65.669)" fill="#d29e63"/>
    <path id="Path_9962" data-name="Path 9962" d="M575.878,420.8a7.994,7.994,0,0,0-1.653-.449c.4-.336.8-.3,1.465.12l.052.138c.091-.057.04-.125.015-.191a1.613,1.613,0,0,0-.957-1.013,2.935,2.935,0,0,1,2.348.892.346.346,0,0,1,.05.438c-.407.234-.9.055-1.32.065" transform="translate(-12.443 -130.087)" fill="#d6d8d9"/>
    <path id="Path_9963" data-name="Path 9963" d="M507.76,459.448a10.3,10.3,0,0,0,1.519-.305,5.389,5.389,0,0,1-2.233.58c.051.092.382.154.366.228,0,0-.019.031-.267,0-.6-.079-1.194-.17-1.789-.265a.268.268,0,0,1-.262-.233,5.882,5.882,0,0,1,.084-2.426.593.593,0,0,1,.358-.223c.014.258-.153.489-.112.751l-.052.1-.016.252a2.543,2.543,0,0,0-.013,1.369,2.475,2.475,0,0,0,1.124.2h.236l.448,0" transform="translate(54.502 -166.257)" fill="#d88864"/>
    <path id="Path_9964" data-name="Path 9964" d="M515.648,442.924c-.04-.262.126-.493.112-.752l.686-.5a2.457,2.457,0,0,0-.037,1.349c-.267.114-.58.077-.829.252q.008-.126.016-.252l.052-.1" transform="translate(44.279 -151.628)" fill="#d6d8d9"/>
    <path id="Path_9965" data-name="Path 9965" d="M512.6,483.063c.248-.175.562-.139.829-.252l.109.253a2.552,2.552,0,0,0-.951,1.368,2.543,2.543,0,0,1,.013-1.369" transform="translate(47.259 -191.413)" fill="#bfc1c2"/>
    <path id="Path_9966" data-name="Path 9966" d="M622.461,473.764c-.206-.324-.265-.816-.674-1,.035-.1.05-.207.082-.341.162.161.328.336.584.215.169-.08.339.049.489.056-.068.175-.1.284-.168.462a2.428,2.428,0,0,1-.314.6" transform="translate(-58.445 -181.372)" fill="#bfc1c2"/>
    <path id="Path_9967" data-name="Path 9967" d="M625.372,460.366c-.15-.007-.321-.135-.489-.056-.255.12-.422-.055-.584-.216q.006-.169.011-.339c.423-.01.919.155,1.326-.079-.087.254-.152.418-.264.689" transform="translate(-60.874 -169.039)" fill="#d6d8d9"/>
    <path id="Path_9968" data-name="Path 9968" d="M612.087,386.489a1.384,1.384,0,0,1,.85.174.589.589,0,0,1,.218.528,2.828,2.828,0,0,0-1.74-.278c.262-.177.425-.281.672-.423" transform="translate(-48.413 -98.245)" fill="#d88864"/>
    <path id="Path_9969" data-name="Path 9969" d="M164.959,278.254a.094.094,0,0,1-.123-.042l.123.042" transform="translate(383.518 6.474)" fill="#d29e63"/>
    <path id="Path_9970" data-name="Path 9970" d="M131.4,537.632c1.214.371,2.42.771,3.669,1.021a28.915,28.915,0,0,0,8.324.477c.409-.03.82-.045,1.227-.091a36.643,36.643,0,0,0,6.675-1.41,16.742,16.742,0,0,1-.738,1.781,13.126,13.126,0,0,1-2.2,2.674,10.291,10.291,0,0,1-6.04,2.617.44.44,0,0,0-.282.068,12.318,12.318,0,0,1-3.762-.47,10.934,10.934,0,0,1-3.953-2.22l-.958-.972a10.987,10.987,0,0,1-1.962-3.475" transform="translate(415.853 -244.434)" fill="#020101"/>
    <path id="Path_9971" data-name="Path 9971" d="M504.958,514.241a36.654,36.654,0,0,1-6.675,1.41c-.407.046-.818.062-1.227.091.267-.277.648-.223.971-.292a53.135,53.135,0,0,0,5.694-1.486,12.923,12.923,0,0,1,1.478-.517l-.241.793" transform="translate(62.194 -221.046)" fill="#d29e63"/>
    <path id="Path_9972" data-name="Path 9972" d="M203.384,381.528a2.382,2.382,0,0,1,.855.5c-.537-.021-1.208-.206-1.675.281.031-.473.163-.53.82-.779" transform="translate(347.028 -93.453)" fill="#d88864"/>
    <path id="Path_9973" data-name="Path 9973" d="M188.817,405.7c0,.2.122.342.072.509a1.512,1.512,0,0,0-1.881-.337l1.885.417c.1.232,0,.462-.01.693l-.172.338a1.368,1.368,0,0,1-2.476-.245.584.584,0,0,1-.072-.218,1.517,1.517,0,0,1-.034-.554,1.676,1.676,0,0,1,1.094-1.357,2.936,2.936,0,0,0-2.24.76c-.2.186-.3.36-.13.609l.185.508a3.3,3.3,0,0,0,.472,1.1c.022.142.127.274.049.427a5.9,5.9,0,0,1-1.126-2.382c-.046-.152.085-.261.175-.365a2.812,2.812,0,0,1,1.843-.945l.625-.076" transform="translate(364.573 -115.756)" fill="#080706"/>
    <path id="Path_9974" data-name="Path 9974" d="M170.05,352.819a5.391,5.391,0,0,1-1.12.039q.673-.316,1.346-.633c.131-.061.246.009.363.055q2.344.926,4.69,1.848a.638.638,0,0,1,.473.625c.014.479.065.957.1,1.492" transform="translate(379.559 -65.089)" fill="#080706"/>
    <path id="Path_9975" data-name="Path 9975" d="M217.611,481.685c.079-.153-.027-.285-.049-.427.189-.047.119-.233.186-.346.132-.221.184-.524.54-.506a1.368,1.368,0,0,0,2.476.245c.225-.047.4.169.543.307a1.62,1.62,0,0,1,.433.81c.025.274-.153.309-.368.339a8.927,8.927,0,0,1-2.134.019l-1.2-.206a.521.521,0,0,1-.424-.235" transform="translate(332.521 -189.086)" fill="#faf9f8"/>
    <path id="Path_9976" data-name="Path 9976" d="M225.917,451.7a8.923,8.923,0,0,0,2.134-.019c.215-.031.393-.065.368-.339a4.685,4.685,0,0,0-.083-1.8c-.054-.264-.188-.384-.194-.6.169.1.324.179.5.291a12.947,12.947,0,0,1,.091,2.147c0,.358-.121.59-.518.619a10.2,10.2,0,0,1-1.891.192c.1-.142.277-.051.292-.161a8.784,8.784,0,0,1-2.142-.609c.081-.031,1.144.227,1.448.274" transform="translate(325.841 -158.659)" fill="#d88864"/>
    <path id="Path_9977" data-name="Path 9977" d="M600.546,535.057l.185-.042" transform="translate(-37.901 -241.906)" fill="#f7c78a"/>
    <path id="Path_9978" data-name="Path 9978" d="M618.948,450.454c.025.066.076.134-.015.19l-.052-.138.067-.053" transform="translate(-55.634 -160.118)" fill="#020202"/>
    <path id="Path_9979" data-name="Path 9979" d="M516.106,479.711l-.052.1.052-.1" transform="translate(43.82 -188.416)" fill="#bfc1c2"/>
    <path id="Path_9980" data-name="Path 9980" d="M194.945,416.8c-.171-.249-.073-.423.13-.609a2.936,2.936,0,0,1,2.24-.76,1.676,1.676,0,0,0-1.094,1.357,1.883,1.883,0,0,0-1.277.012" transform="translate(354.481 -126.239)" fill="#d6d8d9"/>
    <path id="Path_9981" data-name="Path 9981" d="M316.013,461.783a4.376,4.376,0,0,1,.14,1.974,4,4,0,0,0-.408-.7c-.17-.182-.326-.421-.567-.417l.172-.337c.257-.062.59-.086.664-.519" transform="translate(238.108 -171.076)" fill="#bfc1c2"/>
    <path id="Path_9982" data-name="Path 9982" d="M197.534,453.651a1.884,1.884,0,0,1,1.277-.012,2.965,2.965,0,0,0,.038.592l-1.13-.072-.185-.508" transform="translate(351.893 -163.092)" fill="#d6d8d9"/>
    <path id="Path_9983" data-name="Path 9983" d="M319.138,439.5c-.074.433-.437.281-.694.343.007-.231.109-.46.01-.693a.133.133,0,0,1,0-.079c.05-.167-.072-.311-.072-.509a1.268,1.268,0,0,1,.594.341c.006.213.169.371.167.6" transform="translate(235.013 -148.616)" fill="#d6d8d9"/>
    <path id="Path_9984" data-name="Path 9984" d="M203.169,472.767l1.13.072a1.041,1.041,0,0,0,.068.18.819.819,0,0,0-.485.514c-.048.143-.114.313-.189.513a4.364,4.364,0,0,1-.524-1.278" transform="translate(346.443 -181.699)" fill="#bfc1c2"/>
    <path id="Path_9985" data-name="Path 9985" d="M265.119,438.886a.134.134,0,0,0,0,.079l-1.885-.416a1.512,1.512,0,0,1,1.881.337" transform="translate(288.344 -148.432)" fill="#f3f1f1"/>
    <rect id="Rectangle_2718" data-name="Rectangle 2718" width="31.235" height="28.306" transform="translate(542.948 275.561)" fill="none"/>
  </g>
  <g id="Group_5565" data-name="Group 5565">
    <path id="Path_10006" data-name="Path 10006" d="M2156.5,0V.183h.38V1.275h.206V.183h.38V0Z" transform="translate(-2105.844 0)" fill="#fff"/>
    <path id="Path_10007" data-name="Path 10007" d="M2205.99,0l-.341.648h-.011L2205.3,0h-.244V1.275h.2V.3h.009l.1.206.279.51.28-.51.1-.206h.009v.976h.2V0Z" transform="translate(-2153.256 0)" fill="#fff"/>
    <path id="Path_10008" data-name="Path 10008" d="M5.487,10.15,3.635,13.713H3.613L1.76,10.15H0v6.584H1.559V14.063L1.486,12.52l.055-.01.623,1.375,1.46,2.684,1.46-2.684.623-1.375.055.01-.073,1.542v2.671H7.247V10.15Z" transform="translate(0 -9.911)" fill="#fff"/>
    <g id="Group_5564" data-name="Group 5564">
      <g id="Group_5563" data-name="Group 5563" clip-path="url(#clip-path)">
        <path id="Path_10009" data-name="Path 10009" d="M2018.97,5.156a1.506,1.506,0,0,0,1.7,1.667h.959V5.474h-1.046V2.6h1.133V1.276h-1.259V0h-1.488Z" transform="translate(-1971.547 -0.001)" fill="#fff"/>
        <path id="Path_10010" data-name="Path 10010" d="M1858.792,54.285h-.263a1.5,1.5,0,0,0-1.482,1.038h-.053V54.285h-1.613v5.547h1.613V56.676a.95.95,0,0,1,.281-.707,2.37,2.37,0,0,1,1.517-.335Z" transform="translate(-1811.8 -53.01)" fill="#fff"/>
        <path id="Path_10011" data-name="Path 10011" d="M1179.983,54.285h-.263a1.5,1.5,0,0,0-1.482,1.038h-.053V54.285h-1.613v5.547h1.613V56.676a.951.951,0,0,1,.281-.707,2.372,2.372,0,0,1,1.518-.335Z" transform="translate(-1148.936 -53.01)" fill="#fff"/>
        <path id="Path_10012" data-name="Path 10012" d="M920,51.706c0-1.809.959-2.986,2.681-2.986,1.9,0,2.659,1.373,2.659,2.921v.48h-3.673v.054c0,.642.346,1.09,1.264,1.09a1.813,1.813,0,0,0,1.406-.686l.806,1a3.1,3.1,0,0,1-2.4.948A2.515,2.515,0,0,1,920,51.706m1.667-.621v.087h2.005v-.1c0-.7-.316-1.166-.959-1.166a1.046,1.046,0,0,0-1.046,1.177" transform="translate(-898.387 -47.576)" fill="#fff"/>
        <path id="Path_10013" data-name="Path 10013" d="M1597.871,51.706c0-1.842,1-2.986,2.681-2.986s2.681,1.144,2.681,2.986a2.684,2.684,0,1,1-5.362,0m3.683.414v-.992c0-.719-.371-1.134-1-1.134s-1,.414-1,1.134v.992c0,.719.37,1.134,1,1.134s1-.414,1-1.134" transform="translate(-1560.339 -47.576)" fill="#fff"/>
        <path id="Path_10014" data-name="Path 10014" d="M754.267,0h-1.45V.665c0,.392-.131.61-.567.61h-.4V2.6h.806V5.155a1.506,1.506,0,0,0,1.7,1.667h.959V5.473h-1.046V2.6H755.4V1.275h-1.133Z" transform="translate(-734.188)" fill="#fff"/>
        <path id="Path_10015" data-name="Path 10015" d="M583.287,0h-1.449V.665c0,.392-.131.61-.567.61h-.4V2.6h.806V5.155a1.506,1.506,0,0,0,1.7,1.667h.959V5.473h-1.046V2.6h1.133V1.275h-1.133Z" transform="translate(-567.224)" fill="#fff"/>
        <path id="Path_10016" data-name="Path 10016" d="M1346.823,48.719a1.549,1.549,0,0,0-1.536,1.09h-.055V48.85h-1.613v7.216h1.613V53.438h.055a1.562,1.562,0,0,0,1.536,1.09c1.449,0,2.2-.883,2.2-2.823s-.752-2.986-2.2-2.986m.523,3.487a.936.936,0,0,1-1.057,1.014c-.61,0-1.057-.316-1.057-.839V50.866c0-.523.447-.839,1.057-.839a1.075,1.075,0,0,1,1.057,1.188Z" transform="translate(-1312.058 -47.575)" fill="#fff"/>
        <path id="Path_10017" data-name="Path 10017" d="M346.063,54.4a1.089,1.089,0,0,1-1.09-1h-.065a1.546,1.546,0,0,1-1.678,1.133,1.594,1.594,0,0,1-1.776-1.667c0-1.21.937-1.787,2.452-1.787h.9V50.89c0-.556-.272-.9-.948-.9a1.412,1.412,0,0,0-1.231.676l-.959-.85a2.5,2.5,0,0,1,2.311-1.09c1.613,0,2.441.741,2.441,2.092V53.05h.534V54.4Zm-1.253-1.733v-.676h-.785c-.621,0-.948.229-.948.643V52.8c0,.414.272.61.752.61.534,0,.981-.218.981-.741" transform="translate(-333.433 -47.577)" fill="#fff"/>
      </g>
    </g>
  </g>
</svg>
