<svg id="Media_tango" data-name="Media tango" xmlns="http://www.w3.org/2000/svg" xmlns:xlink="http://www.w3.org/1999/xlink" width="22.496" height="18.979" viewBox="0 0 22.496 18.979">
  <defs>
    <clipPath id="clip-path">
      <rect id="Rectangle_2274" data-name="Rectangle 2274" width="22.496" height="18.978" fill="#db422d"/>
    </clipPath>
  </defs>
  <g id="Group_4992" data-name="Group 4992" clip-path="url(#clip-path)">
    <path id="Path_6355" data-name="Path 6355" d="M2.636,18.978H19.859a.774.774,0,0,1,.121-.041,2.991,2.991,0,0,0,2.514-2.948c0-5.989,0-8.457,0-14.446A1.49,1.49,0,0,0,20.958,0Q13.875,0,6.793,0a1.729,1.729,0,0,0-.5.073A1.5,1.5,0,0,0,5.248,1.625c0,2.109,0,2.809,0,4.917v.3H4.96c-1.252,0-2.5,0-3.755,0a1.061,1.061,0,0,0-.84.305A3.781,3.781,0,0,0,0,7.732v8.609a.95.95,0,0,1,.041.121,2.967,2.967,0,0,0,2.176,2.412c.137.043.28.07.42.1m2.355-.749c.014-.041.015-.058.024-.067a3.39,3.39,0,0,0,.991-2.583Q6,11.039,6,.159c0-.71,0,2.1,0,1.391a.745.745,0,0,1,.816-.8h14.1a.757.757,0,0,1,.828.836c0,5.946,0,8.37,0,14.316a2.593,2.593,0,0,1-.069.608,2.241,2.241,0,0,1-2.279,1.72H4.991ZM5.248,7.595v.269c0,3.325,0,4.536,0,7.86,0,.154,0,.308-.018.461a2.317,2.317,0,0,1-2.334,2.041A2.255,2.255,0,0,1,.75,15.916c0-3.31,0-4.507,0-7.817,0-.39.117-.5.515-.5H5.248" transform="translate(0 0)" fill="#db422d"/>
    <path id="Path_6356" data-name="Path 6356" d="M226.555,143.14c0,.243,0,.476,0,.709a.636.636,0,0,1-.4.685.653.653,0,0,1-.751-.2,2.527,2.527,0,0,0-1.675-.794c.038.122.067.223.1.322.1.32.222.636.309.96a.7.7,0,0,1-.573.9,4.544,4.544,0,0,1-1,0,.687.687,0,0,1-.58-.532c-.171-.513-.347-1.024-.511-1.539a.282.282,0,0,0-.232-.22,1.867,1.867,0,0,1,.4-3.68c.541-.014,1.083,0,1.625-.006a2.828,2.828,0,0,0,2.209-.889.578.578,0,0,1,.686-.142.594.594,0,0,1,.4.578c0,.269,0,.539,0,.825a1.536,1.536,0,0,1,1.217.627,1.467,1.467,0,0,1,.279.992,1.539,1.539,0,0,1-1.495,1.407m-2.978-2.655v2.221a9.945,9.945,0,0,1,1.186.317,8.933,8.933,0,0,1,1.021.558V139.6a3.574,3.574,0,0,1-2.207.884m-.776.012c-.412,0-.8-.017-1.186,0a1.111,1.111,0,0,0-1.045.981,1.058,1.058,0,0,0,.8,1.2,10.4,10.4,0,0,0,1.434.079Zm.612,4.5c-.167-.5-.317-.958-.472-1.412-.012-.035-.055-.082-.085-.083-.207-.007-.415,0-.649,0l.432,1.306a.271.271,0,0,0,.039.1c.035.037.083.086.127.088.188.01.376,0,.607,0m3.151-2.635a.74.74,0,0,0,.73-.868.668.668,0,0,0-.73-.582Z" transform="translate(-206.913 -130.518)" fill="#db422d"/>
    <path id="Path_6357" data-name="Path 6357" d="M124.658,36.543h-6.565c-.073,0-.147,0-.219,0a.375.375,0,0,1-.352-.356.381.381,0,0,1,.325-.383,1.274,1.274,0,0,1,.2-.006h13.2a1.363,1.363,0,0,1,.2.005.365.365,0,0,1,.325.379.358.358,0,0,1-.341.361c-.073.007-.146,0-.219,0h-6.543" transform="translate(-110.623 -33.692)" fill="#db422d"/>
    <path id="Path_6358" data-name="Path 6358" d="M124.655,74.126H131.2a1.793,1.793,0,0,1,.241.006.367.367,0,0,1,.079.709.971.971,0,0,1-.3.033q-6.576,0-13.152,0c-.044,0-.088,0-.132,0a.39.39,0,0,1-.413-.39.376.376,0,0,1,.417-.357q1.976,0,3.952,0h2.766" transform="translate(-110.622 -69.775)" fill="#db422d"/>
    <path id="Path_6359" data-name="Path 6359" d="M124.629,113.207h-6.521a1.948,1.948,0,0,1-.263-.01.365.365,0,0,1-.325-.356.37.37,0,0,1,.31-.371,1.294,1.294,0,0,1,.24-.014h13.151a1.09,1.09,0,0,1,.261.021.367.367,0,0,1-.026.717,1.527,1.527,0,0,1-.263.012h-6.565" transform="translate(-110.622 -105.855)" fill="#db422d"/>
    <path id="Path_6360" data-name="Path 6360" d="M124.256,272.273h6.212a1.138,1.138,0,0,1,.262.012.368.368,0,0,1,.041.7.966.966,0,0,1-.3.034q-6.2,0-12.4,0h-.088c-.286-.005-.466-.157-.46-.388s.174-.361.458-.361h6.278" transform="translate(-110.622 -256.291)" fill="#db422d"/>
    <path id="Path_6361" data-name="Path 6361" d="M120.148,145.169q-1.086,0-2.171,0c-.289,0-.467-.151-.46-.382s.181-.366.457-.366q2.171,0,4.342,0c.276,0,.447.147.448.373s-.169.373-.445.374c-.724,0-1.447,0-2.171,0" transform="translate(-110.618 -135.943)" fill="#db422d"/>
    <path id="Path_6362" data-name="Path 6362" d="M120.175,177.206c-.709,0-1.418,0-2.127,0a.745.745,0,0,1-.278-.043.337.337,0,0,1-.215-.37.35.35,0,0,1,.3-.327.979.979,0,0,1,.175-.008H122.4a.373.373,0,1,1,.013.745c-.329.01-.658,0-.987,0h-1.25" transform="translate(-110.652 -166.099)" fill="#db422d"/>
    <path id="Path_6363" data-name="Path 6363" d="M120.194,209.038q-1.042,0-2.083,0a1.167,1.167,0,0,1-.261-.018.342.342,0,0,1-.278-.348.337.337,0,0,1,.243-.352.931.931,0,0,1,.281-.032q2.094,0,4.188,0a1.125,1.125,0,0,1,.239.018.353.353,0,0,1,.289.383.348.348,0,0,1-.316.339,1.7,1.7,0,0,1-.241.01h-2.061" transform="translate(-110.67 -196.061)" fill="#db422d"/>
    <path id="Path_6364" data-name="Path 6364" d="M119.767,241c-.6,0-1.2,0-1.8,0-.276,0-.449-.147-.45-.371s.176-.376.447-.376q1.8,0,3.6,0c.278,0,.446.145.447.374s-.166.373-.444.374c-.6,0-1.2,0-1.8,0" transform="translate(-110.618 -226.15)" fill="#db422d"/>
  </g>
</svg>
