<svg xmlns="http://www.w3.org/2000/svg" width="19.771" height="19.767" viewBox="0 0 19.771 19.767">
  <g id="Mew_role" data-name="Mew role" transform="translate(-1729.195 -724.061)">
    <path id="Path_1351" data-name="Path 1351" d="M1860,728.992a4.941,4.941,0,1,1,4.9,4.953A4.931,4.931,0,0,1,1860,728.992Zm4.93,3.3a3.287,3.287,0,1,0-3.284-3.263A3.28,3.28,0,0,0,1864.925,732.289Z" transform="translate(-124.206 0)" fill="#db422d"/>
    <path id="Path_1352" data-name="Path 1352" d="M1802.912,952.3a32.02,32.02,0,0,1,3.221.1,5.542,5.542,0,0,1,4.618,3.583,5.426,5.426,0,0,1,.406,2.19c0,.5,0,1.008,0,1.512a.826.826,0,1,1-1.649.026c-.012-.546.006-1.092,0-1.638a4.135,4.135,0,0,0-4.141-4.1q-2.407-.008-4.813,0a4.116,4.116,0,0,0-4.215,4.232c0,.5,0,.991,0,1.487a.827.827,0,0,1-.793.87.8.8,0,0,1-.847-.811,20.2,20.2,0,0,1,.092-2.639,5.706,5.706,0,0,1,5.257-4.762c.956-.041,1.915-.007,2.872-.007Z" transform="translate(-62.192 -216.73)" fill="#db422d"/>
    <path id="Path_1353" data-name="Path 1353" d="M1731.669,842.494c-.571,0-1.107.005-1.643,0a.809.809,0,0,1-.792-.587.753.753,0,0,1,.285-.87,1.4,1.4,0,0,1,.634-.186c.493-.027.987-.008,1.514-.008,0-.479,0-.938,0-1.4a1.918,1.918,0,0,1,.049-.5.8.8,0,0,1,.825-.571.77.77,0,0,1,.744.667c.043.433.025.871.033,1.307,0,.15,0,.3,0,.477.11.005.2.013.287.013.437,0,.873,0,1.31.005a.826.826,0,1,1-.018,1.649c-.5,0-.991,0-1.486,0a.453.453,0,0,0-.078.02c0,.078-.013.166-.014.254,0,.437.006.873,0,1.31a.827.827,0,1,1-1.649-.019C1731.666,843.553,1731.669,843.042,1731.669,842.494Z" transform="translate(0 -108.55)" fill="#db422d"/>
  </g>
</svg>
