<svg xmlns="http://www.w3.org/2000/svg" width="34.569" height="39.188" viewBox="0 0 34.569 39.188">
  <g id="New_Sign_Ups_Today_" data-name="New Sign Ups (Today)" transform="translate(949.891 -1282.478)">
    <path id="Path_1589" data-name="Path 1589" d="M-855.885,1282.478c.549.1,1.1.177,1.647.309a6.9,6.9,0,0,1,5.391,5.953,15.674,15.674,0,0,1-1.957,10.088,6.471,6.471,0,0,1-4.968,3.437,6.592,6.592,0,0,1-6.48-2.674,13.578,13.578,0,0,1-2.357-6.023,14.481,14.481,0,0,1-.23-4.031,7.4,7.4,0,0,1,3.231-5.793,8.019,8.019,0,0,1,3.551-1.191c.138-.016.274-.049.411-.074Z" transform="translate(-78.177 0)" fill="#fff"/>
    <path id="Path_1590" data-name="Path 1590" d="M-922.445,1522.669a9.286,9.286,0,0,0-8.69,4.891c-1.854,3.328-1.582,6.671.42,9.938-.719.074-1.411.16-2.106.215a36.157,36.157,0,0,1-9.913-.8,34.577,34.577,0,0,1-5.959-1.625,1.523,1.523,0,0,1-1.193-1.762,37.973,37.973,0,0,1,1.307-8.556,10,10,0,0,1,.856-1.993,4.96,4.96,0,0,1,2.945-2.168c1.075-.392,2.141-.81,3.2-1.245.238-.1.325.021.447.145a7.951,7.951,0,0,0,4.208,2.344,8.469,8.469,0,0,0,8-2.229.631.631,0,0,1,.836-.144c1.231.516,2.492.962,3.734,1.451A3.764,3.764,0,0,1-922.445,1522.669Z" transform="translate(0 -218.038)" fill="#fff"/>
    <path id="Path_1591" data-name="Path 1591" d="M-692.457,1590.02a7.587,7.587,0,0,1-7.665,7.518,7.582,7.582,0,0,1-7.472-7.631,7.59,7.59,0,0,1,7.6-7.5A7.594,7.594,0,0,1-692.457,1590.02Zm-8.866-1.35c-.637,0-1.234-.013-1.829.006a2.105,2.105,0,0,0-.741.14,1.263,1.263,0,0,0-.712,1.425,1.279,1.279,0,0,0,1.225,1.02c.672.016,1.345,0,2.057,0,0,.165,0,.288,0,.412,0,.536-.009,1.072,0,1.607a1.271,1.271,0,0,0,1.249,1.285,1.273,1.273,0,0,0,1.336-1.237c.025-.445.008-.892.009-1.339,0-.236,0-.472,0-.727.711,0,1.36.01,2.009,0a1.278,1.278,0,0,0,1.288-1.208,1.279,1.279,0,0,0-1.163-1.366,9.623,9.623,0,0,0-.994-.018c-.376,0-.752,0-1.141,0,0-.677.006-1.288,0-1.9a1.311,1.311,0,0,0-1.3-1.4,1.3,1.3,0,0,0-1.294,1.4C-701.327,1587.383-701.323,1587.994-701.323,1588.67Z" transform="translate(-222.866 -275.873)" fill="#fff"/>
  </g>
</svg>
