<svg xmlns="http://www.w3.org/2000/svg" xmlns:xlink="http://www.w3.org/1999/xlink" width="21" height="21" viewBox="0 0 21 21">
  <defs>
    <clipPath id="clip-path">
      <rect id="Rectangle_631" data-name="Rectangle 631" width="21" height="21" transform="translate(31 14)" fill="#717171" stroke="#707070" stroke-width="0.3"/>
    </clipPath>
  </defs>
  <g id="Orders" transform="translate(-31 -14)" clip-path="url(#clip-path)">
    <g id="sent" transform="translate(31 14)">
      <g id="Group_4332" data-name="Group 4332">
        <g id="Group_4331" data-name="Group 4331">
          <path id="Path_1105" data-name="Path 1105" d="M19.561,5.8l-.016-.027a.991.991,0,0,0-.074-.128L16.55.59A1.185,1.185,0,0,0,15.528,0H5.473A1.185,1.185,0,0,0,4.45.591L1.48,5.742a.616.616,0,0,0-.06.144,1.04,1.04,0,0,0-.065.362v13.3A1.449,1.449,0,0,0,2.8,21H18.2a1.449,1.449,0,0,0,1.447-1.447V6.2c0-.018,0-.036,0-.053A.612.612,0,0,0,19.561,5.8ZM11.137,1.231H15.5L17.8,5.2H11.137Zm-5.635,0h4.4V5.2H3.211ZM18.413,19.553a.217.217,0,0,1-.216.216H2.8a.217.217,0,0,1-.216-.216V6.435H18.413Z" fill="#717171" stroke="#707070" stroke-width="0.3"/>
        </g>
      </g>
      <g id="Group_4334" data-name="Group 4334">
        <g id="Group_4333" data-name="Group 4333">
          <path id="Path_1106" data-name="Path 1106" d="M13.294,11.075a.616.616,0,0,0-.87,0L9.675,13.823,8.619,12.767a.615.615,0,1,0-.87.87L9.24,15.129a.615.615,0,0,0,.87,0l3.183-3.183A.615.615,0,0,0,13.294,11.075Z" fill="#717171" stroke="#707070" stroke-width="0.3"/>
        </g>
      </g>
    </g>
  </g>
</svg>
