<svg xmlns="http://www.w3.org/2000/svg" width="546.838" height="284.746" viewBox="0 0 546.838 284.746">
  <g id="Group_4905" data-name="Group 4905" transform="translate(-151 -273.298)">
    <g id="Floor" transform="translate(151 273.298)">
      <ellipse id="Floor-2" data-name="Floor" cx="273.419" cy="142.373" rx="273.419" ry="142.373" fill="#f5f5f5"/>
    </g>
    <g id="Shadows" transform="translate(163.265 291.898)">
      <ellipse id="Shadow" cx="14.76" cy="10.4" rx="14.76" ry="10.4" transform="translate(473.849)" fill="#e6e6e6"/>
      <g id="Shadow-2" data-name="Shadow" transform="translate(0 96.554)">
        <path id="Shadow-3" data-name="Shadow" d="M1255.246,548.782,1163.66,495.9a11.456,11.456,0,0,0-10.365,0l-91.586,52.877c-2.862,1.653-2.862,4.331,0,5.984l41.714,24.084-38.959,22.481c-7.913,4.569-20.791,4.565-28.7,0l-61.28-35.38c-3.381-1.952-5.244-4.4-5.244-6.9s1.863-4.952,5.244-6.9l54.306-31.353a2.394,2.394,0,0,0-2.394-4.147l-54.306,31.353c-4.925,2.844-7.638,6.768-7.638,11.051s2.714,8.206,7.638,11.05l61.28,35.38a36.528,36.528,0,0,0,33.492,0l41.354-23.863,45.083,26.029a11.453,11.453,0,0,0,10.365,0l91.587-52.878C1258.108,553.113,1258.108,550.435,1255.246,548.782Z" transform="translate(-964.449 -494.665)" fill="#e6e6e6"/>
      </g>
      <path id="Shadow-4" data-name="Shadow" d="M1059.588,494.568c3.885,2.243,4.043,5.947.157,8.19s-10.344,2.177-14.23-.066-3.886-5.882,0-8.125A15.55,15.55,0,0,1,1059.588,494.568Z" transform="translate(-949.061 -398.462)" fill="#e6e6e6"/>
    </g>
    <g id="Character_2" data-name="Character 2" transform="translate(350.831 285.362)">
      <g id="Group_4904" data-name="Group 4904">
        <g id="Group_4898" data-name="Group 4898" transform="translate(123.142 7.927)">
          <path id="Path_9171" data-name="Path 9171" d="M1354.706,547.779c-4.742,0-9.936-1.551-15.264-4.627l-59.759-34.5c-9.232-5.331-16.745-18.342-16.745-29V429.512a9.544,9.544,0,0,0-14.315-8.266l-20.989,12.119a2.394,2.394,0,0,1-2.394-4.146l20.989-12.119a14.331,14.331,0,0,1,21.5,12.412v50.133c0,8.983,6.572,20.366,14.351,24.857l59.759,34.5c7.648,4.417,14.74,5.185,19.962,2.171s8.1-9.542,8.1-18.372V458.8c0-10.841,6.932-23.337,15.783-28.447l14.584-8.421a2.394,2.394,0,1,1,2.394,4.146l-14.584,8.421c-7.258,4.19-13.39,15.318-13.39,24.3V522.8c0,10.613-3.727,18.61-10.495,22.517A18.717,18.717,0,0,1,1354.706,547.779Z" transform="translate(-1224.043 -415.158)" fill="#37474f"/>
        </g>
        <g id="Plug" transform="translate(28.959)">
          <g id="Group_4902" data-name="Group 4902">
            <path id="Path_9172" data-name="Path 9172" d="M1260.55,438.128v3.915c0,6.263-4.4,13.879-9.822,17.012l-36.251,20.929L1177.626,458.7l-.007-31.912,35.78-16.527c5.687-2.626,14.693-2.217,20.119.916l17.211,9.937C1256.152,424.248,1260.55,431.865,1260.55,438.128Z" transform="translate(-1139.001 -408.535)" fill="#37474f"/>
            <path id="Path_9173" data-name="Path 9173" d="M1213.4,410.265c5.687-2.626,14.693-2.217,20.119.916l17.211,9.937c5.424,3.131,5.212,7.8-.474,10.426l-35.773,16.522-36.862-21.274Z" transform="translate(-1139.001 -408.535)" fill="#455a64"/>
            <path id="Path_9174" data-name="Path 9174" d="M1217.959,438.091a10.855,10.855,0,0,1,4.911,8.505v26.247l-8.393,4.846-36.851-21.281-.008-31.912,9.331-4.31Z" transform="translate(-1139.001 -406.24)" opacity="0.15"/>
            <g id="Group_4899" data-name="Group 4899" transform="translate(29.413 12.439)">
              <path id="Path_9175" data-name="Path 9175" d="M1176,419.251a3.429,3.429,0,0,1,3.449.342l36.247,20.928a10.855,10.855,0,0,1,4.911,8.505v31.215a3.416,3.416,0,0,1-1.446,3.168c-.828.468-3.789,2.177-4.609,2.661a3.416,3.416,0,0,1-3.468-.332l-36.245-20.927a10.854,10.854,0,0,1-4.911-8.505V425.091a3.454,3.454,0,0,1,1.428-3.174C1172.185,421.438,1175.17,419.73,1176,419.251Z" transform="translate(-1169.928 -418.927)" fill="#37474f"/>
              <path id="Path_9176" data-name="Path 9176" d="M1211.085,442.746l-36.245-20.927c-2.712-1.567-4.911-.3-4.911,2.834V455.87a10.854,10.854,0,0,0,4.911,8.505l36.245,20.927c2.712,1.566,4.911.3,4.911-2.835V451.251A10.854,10.854,0,0,0,1211.085,442.746Z" transform="translate(-1169.928 -418.49)" fill="#455a64"/>
            </g>
            <g id="Group_4900" data-name="Group 4900" transform="translate(27.639 43.809)">
              <path id="Path_9177" data-name="Path 9177" d="M1168.446,474.353v5.4c0,2.189.759,3.715,2,4.426.551.317,2.71,1.564,3.264,1.888,1.249.728,2.975.637,4.876-.461l29.979-17.308,0-21.279-3.258-1.883-29.979,17.308A15.193,15.193,0,0,0,1168.446,474.353Zm13.563-6.719a4.912,4.912,0,0,1,.168,1.281,10.185,10.185,0,0,1-4.606,7.98,4.9,4.9,0,0,1-1.179.482,4.848,4.848,0,0,1-.17-1.259,10.181,10.181,0,0,1,4.607-7.98A4.973,4.973,0,0,1,1182.009,467.634Z" transform="translate(-1168.446 -445.137)" fill="#38ada2"/>
              <path id="Path_9178" data-name="Path 9178" d="M1173.528,482.255a2.284,2.284,0,0,0,.211.139c-.012,0-.012-.012-.024-.012-.036-.024-.085-.048-.12-.072-.718-.419-2.645-1.532-3.148-1.831-1.257-.694-2-2.214-2-4.417v-5.4a13.936,13.936,0,0,1,2.023-6.786l3.256,1.879a14.12,14.12,0,0,0-2.011,6.786v5.4a5.494,5.494,0,0,0,1.256,3.854A2.732,2.732,0,0,0,1173.528,482.255Z" transform="translate(-1168.446 -441.447)" opacity="0.2"/>
              <path id="Path_9179" data-name="Path 9179" d="M1208.211,447.017l-29.958,17.307a14.029,14.029,0,0,0-4.86,5.123l-3.256-1.879a14.1,14.1,0,0,1,4.847-5.123l29.982-17.307Z" transform="translate(-1168.113 -445.137)" fill="#fff" opacity="0.5"/>
              <path id="Path_9180" data-name="Path 9180" d="M1172.992,479.426c-.024-.012-.06-.036-.084-.048a.2.2,0,0,1,.06.024C1172.98,479.414,1172.98,479.426,1172.992,479.426Z" transform="translate(-1167.567 -438.395)" fill="#fff" opacity="0.5"/>
              <path id="Path_9181" data-name="Path 9181" d="M1172.976,479.408a.2.2,0,0,0-.06-.024.169.169,0,0,1-.048-.036C1172.9,479.372,1172.94,479.384,1172.976,479.408Z" transform="translate(-1167.575 -438.401)" opacity="0.2"/>
              <path id="Path_9182" data-name="Path 9182" d="M1180.863,465.228a5.247,5.247,0,0,0-.161-1.273h0c1.969-.548,3.427.691,3.427,3.156a10.193,10.193,0,0,1-4.6,7.985c-2.132,1.247-3.946.59-4.445-1.406a3.89,3.89,0,0,0,1.179-.476A10.193,10.193,0,0,0,1180.863,465.228Z" transform="translate(-1167.14 -441.457)" opacity="0.2"/>
            </g>
            <g id="Group_4901" data-name="Group 4901" transform="translate(0 27.844)">
              <path id="Path_9183" data-name="Path 9183" d="M1145.354,461.019v5.4c0,2.189.759,3.715,1.995,4.426.551.317,2.71,1.564,3.264,1.888,1.248.728,2.974.637,4.876-.461l29.979-17.308,0-21.278-3.258-1.883-29.979,17.308A15.193,15.193,0,0,0,1145.354,461.019Zm13.563-6.719a4.918,4.918,0,0,1,.168,1.281,10.185,10.185,0,0,1-4.606,7.98.8.8,0,1,1-1.349-.777,10.183,10.183,0,0,1,4.607-7.98A4.981,4.981,0,0,1,1158.917,454.3Z" transform="translate(-1145.354 -431.797)" fill="#38ada2"/>
              <path id="Path_9184" data-name="Path 9184" d="M1150.756,469.124c-.024-.012-.036-.024-.06-.024a.322.322,0,0,0-.084-.048c-.564-.335-2.717-1.592-3.257-1.9-1.255-.706-2-2.226-2-4.429v-5.4a11.82,11.82,0,0,1,.539-3.4,16.12,16.12,0,0,1,1.472-3.375l.011.012,3.257,1.867a.012.012,0,0,1-.013.012,15.382,15.382,0,0,0-.825,1.652,13.036,13.036,0,0,0-1.173,5.123v5.4a5.514,5.514,0,0,0,1.257,3.854A3.356,3.356,0,0,0,1150.756,469.124Z" transform="translate(-1145.353 -428.106)" opacity="0.2"/>
              <path id="Path_9185" data-name="Path 9185" d="M1185.122,433.689,1155.163,451a13.934,13.934,0,0,0-4.86,5.123l-3.257-1.867a14.1,14.1,0,0,1,4.849-5.147l29.982-17.307Z" transform="translate(-1145.021 -431.798)" fill="#fff" opacity="0.5"/>
              <path id="Path_9186" data-name="Path 9186" d="M1149.9,466.1a.7.7,0,0,1-.084-.048c.024,0,.036.012.06.024S1149.89,466.1,1149.9,466.1Z" transform="translate(-1144.475 -425.054)" fill="#fff" opacity="0.5"/>
              <path id="Path_9187" data-name="Path 9187" d="M1157.771,451.894a5.26,5.26,0,0,0-.16-1.274h0c1.969-.548,3.427.691,3.427,3.156a10.193,10.193,0,0,1-4.6,7.984c-2.131,1.247-3.946.59-4.445-1.406a3.9,3.9,0,0,0,1.179-.476A10.19,10.19,0,0,0,1157.771,451.894Z" transform="translate(-1144.048 -428.117)" opacity="0.2"/>
            </g>
          </g>
        </g>
        <g id="Group_4903" data-name="Group 4903" transform="translate(0 16.521)">
          <line id="Line_166" data-name="Line 166" x1="4.821" y1="18.769" transform="translate(33.202)" fill="none" stroke="#e0e0e0" stroke-linecap="round" stroke-linejoin="round" stroke-width="3"/>
          <line id="Line_167" data-name="Line 167" x1="17.831" y1="14.086" transform="translate(6.73 12.513)" fill="none" stroke="#e0e0e0" stroke-linecap="round" stroke-linejoin="round" stroke-width="3"/>
          <line id="Line_168" data-name="Line 168" x1="20.837" y2="1.616" transform="translate(0 42.172)" fill="none" stroke="#e0e0e0" stroke-linecap="round" stroke-linejoin="round" stroke-width="3"/>
        </g>
      </g>
    </g>
    <path id="Path_9188" data-name="Path 9188" d="M1049.379,525.962l92.376,53.333v19.649l-92.376-53.333Z" transform="translate(-784.461 -100.051)" fill="#db422d"/>
    <path id="Path_9189" data-name="Path 9189" d="M1049.379,525.962l92.376,53.333v19.649l-92.376-53.333Z" transform="translate(-784.461 -100.051)" opacity="0.35"/>
    <path id="Path_9190" data-name="Path 9190" d="M1218.934,525.962,1126.558,579.3v19.649l92.375-53.333Z" transform="translate(-769.265 -100.051)" fill="#db422d"/>
    <path id="Path_9191" data-name="Path 9191" d="M1218.934,525.962,1126.558,579.3v19.649l92.375-53.333Z" transform="translate(-769.265 -100.051)" opacity="0.2"/>
    <path id="Path_9192" data-name="Path 9192" d="M1234.13,534.736,1141.754,481.4l-92.375,53.333,92.376,53.333Z" transform="translate(-784.461 -108.824)" fill="#db422d"/>
    <path id="Path_9193" data-name="Path 9193" d="M1234.13,534.736,1141.754,481.4l-92.375,53.333,92.376,53.333Z" transform="translate(-784.461 -108.824)" opacity="0.15"/>
    <path id="Path_9194" data-name="Path 9194" d="M1141.755,579.3v-5.614L1059.1,525.963h-9.723Z" transform="translate(-784.461 -100.051)" opacity="0.1"/>
    <path id="Path_9195" data-name="Path 9195" d="M1126.558,481.4v5.615l82.651,47.718h9.724Z" transform="translate(-769.264 -108.824)" opacity="0.1"/>
    <path id="Path_9196" data-name="Path 9196" d="M1218.934,525.962h-9.724l-82.651,47.719V579.3Z" transform="translate(-769.265 -100.051)" fill="#db422d"/>
    <path id="Path_9197" data-name="Path 9197" d="M1141.754,481.4v5.615L1059.1,534.736h-9.723Z" transform="translate(-784.461 -108.824)" fill="#db422d"/>
    <path id="Path_9198" data-name="Path 9198" d="M1133.842,506.865l39.7,22.918c2.97,1.714,2.97,4.494,0,6.21l-29.605,17.093a11.893,11.893,0,0,1-10.756,0l-39.694-22.918c-2.969-1.715-2.969-4.5,0-6.209l29.605-17.093A11.892,11.892,0,0,1,1133.842,506.865Z" transform="translate(-776.216 -104.064)" fill="#37474f"/>
    <path id="Path_9199" data-name="Path 9199" d="M1143.4,551.879l28.626-16.528L1133.314,513a11.884,11.884,0,0,0-10.755,0l-28.626,16.527,38.716,22.353A11.892,11.892,0,0,0,1143.4,551.879Z" transform="translate(-775.688 -102.857)" fill="#455a64"/>
    <path id="Path_9200" data-name="Path 9200" d="M1106.884,527.681l17.363-10.025a2.294,2.294,0,0,1,2.074,0l2.138,1.227a.63.63,0,0,1,0,1.194L1111.1,530.1a2.3,2.3,0,0,1-2.074,0l-2.136-1.227A.63.63,0,0,1,1106.884,527.681Z" transform="translate(-773.222 -101.735)" fill="#263238"/>
    <path id="Path_9201" data-name="Path 9201" d="M1128.554,540.211l17.363-10.025a2.3,2.3,0,0,1,2.074,0l2.136,1.227a.63.63,0,0,1,0,1.194l-17.364,10.026a2.3,2.3,0,0,1-2.074,0l-2.136-1.227A.63.63,0,0,1,1128.554,540.211Z" transform="translate(-768.956 -99.268)" fill="#263238"/>
    <path id="Path_9202" data-name="Path 9202" d="M1095.118,560a11.57,11.57,0,0,0-5.233-9.065,3.664,3.664,0,0,0-3.7-.359c-.192.111-2.073,1.242-2.267,1.355a3.667,3.667,0,0,0-1.528,3.378,11.566,11.566,0,0,0,5.233,9.064,3.659,3.659,0,0,0,3.7.358c.189-.111,2.063-1.239,2.256-1.349A3.666,3.666,0,0,0,1095.118,560Z" transform="translate(-777.961 -95.274)" fill="#db422d"/>
    <path id="Path_9203" data-name="Path 9203" d="M1087.624,552.065a11.568,11.568,0,0,1,5.233,9.065c0,3.337-2.342,4.69-5.233,3.021a11.566,11.566,0,0,1-5.233-9.064C1082.391,551.748,1084.733,550.4,1087.624,552.065Z" transform="translate(-777.961 -95.052)" opacity="0.1"/>
    <g id="Cable" transform="translate(163.265 384.389)">
      <path id="Path_9204" data-name="Path 9204" d="M1066.1,491.271c-7.841,2.761-11.409,7.147-20.619,12.463l-71,40.994c-3.381,1.952-5.244,4.4-5.244,6.9s1.863,4.952,5.244,6.9l61.28,35.38c7.913,4.569,20.791,4.57,28.7,0l45.076-26.011a2.481,2.481,0,0,1,3.15.482,2.4,2.4,0,0,1-.647,3.6l-45.185,26.075a36.532,36.532,0,0,1-33.492,0l-61.28-35.38c-4.925-2.844-7.638-6.768-7.638-11.051s2.714-8.206,7.638-11.05l71-40.994c7.779-4.491,11.694-6.919,18.224-8.316" transform="translate(-964.449 -491.271)" fill="#37474f"/>
    </g>
    <path id="Path_9205" data-name="Path 9205" d="M1025.549,506.653l-2.172-3.71L1047.4,488.88a7.431,7.431,0,0,1,11.185,6.413v2.844h-4.3v-2.844a3.132,3.132,0,0,0-4.714-2.7Z" transform="translate(-788.853 -105.395)" fill="#37474f"/>
  </g>
</svg>
