<svg xmlns="http://www.w3.org/2000/svg" xmlns:xlink="http://www.w3.org/1999/xlink" width="30" height="30" viewBox="0 0 30 30"><defs><style>.a,.c{fill:#26a59a;}.a{stroke:#707070;}.b{clip-path:url(#a);}</style><clipPath id="a"><rect class="a" width="30" height="30" transform="translate(898 219)"/></clipPath></defs><g class="b" transform="translate(-898 -219)"><g transform="translate(898 219)"><path class="c" d="M23.709,18.584a2.951,2.951,0,0,0-2.14-.981,3.051,3.051,0,0,0-2.165.975l-2,1.994c-.165-.089-.329-.171-.488-.253-.228-.114-.443-.222-.627-.336a21.746,21.746,0,0,1-5.211-4.749,12.829,12.829,0,0,1-1.71-2.7c.519-.475,1-.969,1.469-1.444.177-.177.355-.361.532-.538a2.9,2.9,0,0,0,0-4.382L9.64,4.445c-.2-.2-.4-.4-.589-.6-.38-.393-.779-.8-1.19-1.178A3,3,0,0,0,5.74,1.735a3.1,3.1,0,0,0-2.153.931l-.013.013L1.422,4.85A4.632,4.632,0,0,0,.048,7.795a11.1,11.1,0,0,0,.81,4.7A27.262,27.262,0,0,0,5.7,20.572a29.8,29.8,0,0,0,9.922,7.769A15.459,15.459,0,0,0,21.2,29.987c.133.006.272.013.4.013a4.771,4.771,0,0,0,3.653-1.57c.006-.013.019-.019.025-.032a14.394,14.394,0,0,1,1.108-1.146c.272-.26.551-.532.823-.817a3.159,3.159,0,0,0,.956-2.191,3.043,3.043,0,0,0-.975-2.172Zm2.267,6.667c-.006,0-.006.006,0,0-.247.266-.5.507-.772.772a16.649,16.649,0,0,0-1.222,1.266A3.052,3.052,0,0,1,21.6,28.3c-.095,0-.2,0-.291-.006a13.733,13.733,0,0,1-4.939-1.482,28.126,28.126,0,0,1-9.346-7.319A25.705,25.705,0,0,1,2.467,11.9a9.041,9.041,0,0,1-.709-3.964,2.907,2.907,0,0,1,.874-1.881L4.79,3.894a1.439,1.439,0,0,1,.962-.45,1.354,1.354,0,0,1,.924.443l.019.019c.386.361.753.734,1.14,1.133.2.2.4.405.6.614l1.729,1.729a1.208,1.208,0,0,1,0,1.963c-.184.184-.361.367-.545.545-.532.545-1.038,1.051-1.589,1.545-.013.013-.025.019-.032.032A1.291,1.291,0,0,0,7.671,12.9l.019.057A13.878,13.878,0,0,0,9.735,16.3l.006.006a23.24,23.24,0,0,0,5.623,5.116,8.645,8.645,0,0,0,.779.424c.228.114.443.222.627.336.025.013.051.032.076.044a1.373,1.373,0,0,0,.627.158,1.354,1.354,0,0,0,.962-.437L20.6,19.781a1.432,1.432,0,0,1,.956-.475,1.29,1.29,0,0,1,.912.462l.013.013,3.489,3.489A1.252,1.252,0,0,1,25.976,25.251Z"/><path class="c" d="M16.213,7.136a8.149,8.149,0,0,1,6.636,6.636.85.85,0,0,0,.842.709,1.13,1.13,0,0,0,.146-.013.856.856,0,0,0,.7-.988A9.853,9.853,0,0,0,16.51,5.452a.859.859,0,0,0-.988.7A.846.846,0,0,0,16.213,7.136Z"/><path class="c" d="M29.965,13.234A16.225,16.225,0,0,0,16.745.013.854.854,0,1,0,16.466,1.7,14.492,14.492,0,0,1,28.281,13.512a.85.85,0,0,0,.842.709,1.13,1.13,0,0,0,.146-.013A.839.839,0,0,0,29.965,13.234Z"/></g></g></svg>