<svg xmlns="http://www.w3.org/2000/svg" xmlns:xlink="http://www.w3.org/1999/xlink" width="64" height="62" viewBox="0 0 64 62">
  <defs>
    <clipPath id="clip-path">
      <rect id="Rectangle_2656" data-name="Rectangle 2656" width="39" height="39" transform="translate(30.478 13.478)" fill="#26a59a" stroke="#707070" stroke-width="1"/>
    </clipPath>
  </defs>
  <g id="Group_5701" data-name="Group 5701" transform="translate(-628 -187)">
    <path id="_5aa737ee-d142-476f-b3d8-e863e2b56648-getty-688398000" data-name="5aa737ee-d142-476f-b3d8-e863e2b56648-getty-688398000" d="M4,0H64a0,0,0,0,1,0,0V62a0,0,0,0,1,0,0H4a4,4,0,0,1-4-4V4A4,4,0,0,1,4,0Z" transform="translate(628 187)" fill="#26a59a" opacity="0.05"/>
    <g id="Mask_Group_106" data-name="Mask Group 106" transform="translate(610.522 185.521)" clip-path="url(#clip-path)">
      <g id="surface1" transform="translate(32.815 14.113)">
        <path id="Path_9520" data-name="Path 9520" d="M25.714,16.333V9.193a.827.827,0,0,0-.228-.543L17.481.244A.8.8,0,0,0,16.907,0H4.215A4.229,4.229,0,0,0,0,4.254v24a4.2,4.2,0,0,0,4.215,4.223H14.233A10.814,10.814,0,1,0,25.714,16.333ZM17.694,2.76l5.371,5.654H19.581a1.9,1.9,0,0,1-1.887-1.895ZM4.215,30.9a2.635,2.635,0,0,1-2.642-2.65v-24A2.656,2.656,0,0,1,4.215,1.573H16.121V6.519a3.467,3.467,0,0,0,3.46,3.468h4.561v6.141c-.236-.008-.425-.031-.629-.031A10.973,10.973,0,0,0,16.341,18.8H6.354a.786.786,0,1,0,0,1.573h8.524a12.512,12.512,0,0,0-1.384,2.438H6.354a.786.786,0,0,0,0,1.573h6.629a10.792,10.792,0,0,0,.472,6.527H4.215ZM23.5,36.165a9.24,9.24,0,1,1,9.24-9.24A9.25,9.25,0,0,1,23.5,36.165Zm0,0" fill="#26a59a"/>
        <path id="Path_9521" data-name="Path 9521" d="M3.885,9.845h7.966a.786.786,0,1,0,0-1.573H3.885a.786.786,0,1,0,0,1.573Zm0,0" transform="translate(2.469 6.59)" fill="#26a59a"/>
        <path id="Path_9522" data-name="Path 9522" d="M14.42,13.531a.785.785,0,0,0,.189.024.679.679,0,0,0,.22-.032,2.013,2.013,0,0,1,1.848,2.006.786.786,0,0,0,1.573,0A3.594,3.594,0,0,0,15.4,12.013v-.5a.786.786,0,0,0-1.573,0v.535a3.585,3.585,0,0,0,.841,7.07,2.017,2.017,0,1,1-2.013,2.021.786.786,0,1,0-1.573,0,3.584,3.584,0,0,0,2.744,3.484v.81a.786.786,0,0,0,1.573,0v-.786a3.588,3.588,0,0,0-.731-7.1,2.013,2.013,0,0,1-.244-4.01Zm0,0" transform="translate(8.825 8.543)" fill="#26a59a"/>
      </g>
    </g>
  </g>
</svg>
