<svg xmlns="http://www.w3.org/2000/svg" xmlns:xlink="http://www.w3.org/1999/xlink" width="25" height="25" viewBox="0 0 25 25">
  <defs>
    <clipPath id="clip-path">
      <rect id="Rectangle_605" data-name="Rectangle 605" width="12" height="13" transform="translate(1853 32)" fill="#db422d" stroke="#707070" stroke-width="1"/>
    </clipPath>
  </defs>
  <g id="Power" transform="translate(-1309 -21)">
    <rect id="Rectangle_1" data-name="Rectangle 1" width="25" height="25" rx="6" transform="translate(1309 21)" fill="#db422d" opacity="0.1"/>
    <g id="Mask_Group_11" data-name="Mask Group 11" transform="translate(-537 -5)" clip-path="url(#clip-path)">
      <g id="power-2" data-name="power" transform="translate(1852.5 32)">
        <g id="Group_4181" data-name="Group 4181">
          <path id="Path_507" data-name="Path 507" d="M.674,7.709a5.844,5.844,0,0,1,2.144-5.1.866.866,0,0,1,1.417.663h0a.878.878,0,0,1-.334.682,4.126,4.126,0,1,0,5.2,0,.875.875,0,0,1-.332-.679h0a.863.863,0,0,1,1.4-.679A5.851,5.851,0,1,1,.674,7.709ZM6.5,0a.862.862,0,0,0-.862.862V4.835a.862.862,0,0,0,1.725,0V.862A.862.862,0,0,0,6.5,0Z" fill="#db422d"/>
        </g>
      </g>
    </g>
  </g>
</svg>
