<svg xmlns="http://www.w3.org/2000/svg" xmlns:xlink="http://www.w3.org/1999/xlink" width="21" height="21" viewBox="0 0 21 21">
  <defs>
    <clipPath id="clip-path">
      <rect id="Rectangle_655" data-name="Rectangle 655" width="21" height="21" transform="translate(31 14)" fill="#717171" stroke="#717171" stroke-width="0.3"/>
    </clipPath>
  </defs>
  <g id="Price_List_Update_Summary" data-name="Price List Update Summary" transform="translate(-31 -14)" clip-path="url(#clip-path)">
    <g id="surface1" transform="translate(31.948 14)">
      <path id="Path_1134" data-name="Path 1134" d="M14.312,9.091V5.117a.46.46,0,0,0-.127-.3L9.73.136A.444.444,0,0,0,9.41,0H2.346A2.354,2.354,0,0,0,0,2.368V15.726a2.339,2.339,0,0,0,2.346,2.35H7.922a6.019,6.019,0,1,0,6.39-8.986ZM9.848,1.536l2.989,3.147H10.9a1.057,1.057,0,0,1-1.05-1.055ZM2.346,17.2a1.466,1.466,0,0,1-1.47-1.475V2.368A1.478,1.478,0,0,1,2.346.875H8.972V3.628A1.93,1.93,0,0,0,10.9,5.559h2.538V8.977c-.131,0-.236-.017-.35-.017A6.107,6.107,0,0,0,9.1,10.465H3.536a.438.438,0,1,0,0,.875H8.281a6.964,6.964,0,0,0-.77,1.357H3.536a.438.438,0,0,0,0,.875h3.69a6.007,6.007,0,0,0,.263,3.633H2.346Zm10.736,2.928a5.143,5.143,0,1,1,5.143-5.143A5.148,5.148,0,0,1,13.082,20.129Zm0,0" fill="#717171" stroke="#717171" stroke-width="0.3"/>
      <path id="Path_1135" data-name="Path 1135" d="M3.536,9.148H7.97a.438.438,0,1,0,0-.875H3.536a.438.438,0,1,0,0,.875Zm0,0" fill="#717171" stroke="#717171" stroke-width="0.3"/>
      <path id="Path_1136" data-name="Path 1136" d="M12.938,12.286a.437.437,0,0,0,.105.013.378.378,0,0,0,.123-.018A1.121,1.121,0,0,1,14.194,13.4a.438.438,0,0,0,.875,0,2,2,0,0,0-1.589-1.957v-.28a.438.438,0,0,0-.875,0v.3a2,2,0,0,0,.468,3.935,1.123,1.123,0,1,1-1.12,1.125.438.438,0,0,0-.875,0,2,2,0,0,0,1.528,1.939v.451a.438.438,0,1,0,.875,0V18.47a2,2,0,0,0-.407-3.952,1.12,1.12,0,0,1-.136-2.232Zm0,0" fill="#717171" stroke="#717171" stroke-width="0.3"/>
    </g>
  </g>
</svg>
