<svg xmlns="http://www.w3.org/2000/svg" xmlns:xlink="http://www.w3.org/1999/xlink" width="21" height="21" viewBox="0 0 21 21">
  <defs>
    <clipPath id="clip-path">
      <rect id="Rectangle_665" data-name="Rectangle 665" width="21" height="21" transform="translate(31 14)" fill="#db422d" stroke="#db422d" stroke-width="1"/>
    </clipPath>
  </defs>
  <g id="Products" transform="translate(-31 -14)" clip-path="url(#clip-path)">
    <g id="box" transform="translate(31 14)">
      <g id="Group_4392" data-name="Group 4392">
        <g id="Group_4391" data-name="Group 4391">
          <path id="Path_1153" data-name="Path 1153" d="M6.162,15.421,3.537,14.306a.656.656,0,0,0-.512,1.208L5.65,16.629a.656.656,0,0,0,.512-1.208Z" fill="#db422d"/>
        </g>
      </g>
      <g id="Group_4394" data-name="Group 4394">
        <g id="Group_4393" data-name="Group 4393">
          <path id="Path_1154" data-name="Path 1154" d="M20.991,4.563a.67.67,0,0,0-.033-.2.589.589,0,0,0-.062-.1c-.014-.024-.025-.045-.041-.066a.63.63,0,0,0-.273-.211s-.005-.005-.009-.007L10.073.044a.642.642,0,0,0-.488.009L.4,3.99c-.009,0-.013.014-.022.018a.635.635,0,0,0-.23.193.685.685,0,0,0-.05.071.534.534,0,0,0-.043.063A.658.658,0,0,0,0,4.592H0V16.406a.657.657,0,0,0,.4.6l9.188,3.938h0A.653.653,0,0,0,9.844,21a.666.666,0,0,0,.231-.042l.024-.009h0L20.575,17.02A.656.656,0,0,0,21,16.406V4.593C21,4.582,20.991,4.574,20.991,4.563ZM9.188,19.347,1.313,15.973V5.589L9.188,8.964ZM9.859,7.823,2.323,4.593,9.859,1.365l8.615,3.229-2.054.77-3.683-1.65a.645.645,0,0,0-.576.022L9.588,4.83a.658.658,0,0,0,.007,1.214l2.387.986Zm4.578-.315,1.313-.492v3.2l-1.312.492Zm-.654-1.156-2.244-.925.929-.4,2.2.987Zm5.9,9.6L10.5,19.4V8.985L13.125,8v3.654a.656.656,0,0,0,.656.656.671.671,0,0,0,.231-.042l2.625-.984a.657.657,0,0,0,.425-.614V6.524l2.625-.984Z" fill="#db422d"/>
        </g>
      </g>
    </g>
  </g>
</svg>
