<svg xmlns="http://www.w3.org/2000/svg" width="52" height="62" viewBox="0 0 52 62">
  <g id="Group_4991" data-name="Group 4991" transform="translate(-1488 -12231)">
    <path id="_5aa737ee-d142-476f-b3d8-e863e2b56648-getty-688398000" data-name="5aa737ee-d142-476f-b3d8-e863e2b56648-getty-688398000" d="M4,0H52a0,0,0,0,1,0,0V62a0,0,0,0,1,0,0H4a4,4,0,0,1-4-4V4A4,4,0,0,1,4,0Z" transform="translate(1488 12231)" fill="#26a59a" opacity="0.05"/>
    <g id="Icon_ionic-ios-stats" data-name="Icon ionic-ios-stats" transform="translate(1494 12243.5)">
      <path id="Path_6349" data-name="Path 6349" d="M12.938,31.5h3.375a.564.564,0,0,0,.563-.562V5.063a.564.564,0,0,0-.562-.562H12.938a.564.564,0,0,0-.562.563V30.938A.564.564,0,0,0,12.938,31.5Z" fill="#26a59a"/>
      <path id="Path_6350" data-name="Path 6350" d="M6.188,31.5H9.563a.564.564,0,0,0,.563-.562V20.813a.564.564,0,0,0-.562-.562H6.188a.564.564,0,0,0-.562.563V30.938A.564.564,0,0,0,6.188,31.5Z" fill="#26a59a"/>
      <path id="Path_6351" data-name="Path 6351" d="M19.695,31.5h3.361a.567.567,0,0,0,.57-.57V16.32a.567.567,0,0,0-.57-.57H19.695a.567.567,0,0,0-.57.57V30.93A.567.567,0,0,0,19.695,31.5Z" fill="#26a59a"/>
      <path id="Path_6352" data-name="Path 6352" d="M25.875,9.57V30.93a.567.567,0,0,0,.57.57h3.361a.567.567,0,0,0,.57-.57V9.57a.567.567,0,0,0-.57-.57H26.445A.567.567,0,0,0,25.875,9.57Z" fill="#26a59a"/>
    </g>
  </g>
</svg>
