<svg xmlns="http://www.w3.org/2000/svg" width="60" height="33.766" viewBox="0 0 60 33.766">
  <g id="PROFITABILITY" transform="translate(-1177.319 -891.611)">
    <g id="Group_4745" data-name="Group 4745">
      <path id="Path_6264" data-name="Path 6264" d="M1237.316,896.328a4.631,4.631,0,0,1-5.992,4.48.941.941,0,0,0-1.019.189q-5.571,4.849-11.177,9.658a1.36,1.36,0,0,0-.514.945,4.767,4.767,0,0,1-4.094,4.349,4.611,4.611,0,0,1-5.2-3.616,1.936,1.936,0,0,0-1.206-1.484c-2.354-1.147-4.685-2.344-7.013-3.546a.836.836,0,0,0-1.109.126,4.261,4.261,0,0,1-3.6,1.007,1.326,1.326,0,0,0-1.373.523q-2.845,3.3-5.709,6.587c-.829.955-1.651,1.915-2.487,2.864a1.01,1.01,0,0,0-.244,1.023,4.479,4.479,0,0,1-1.715,4.962,4.549,4.549,0,0,1-4.907.485,4.9,4.9,0,0,1-2.621-4.64,4.826,4.826,0,0,1,3.788-4.2,4.634,4.634,0,0,1,1.98.044.876.876,0,0,0,.987-.34q2.9-3.337,5.82-6.665c.817-.936,1.62-1.884,2.46-2.8a.9.9,0,0,0,.219-1.01,4.587,4.587,0,0,1,1.67-5.268,4.728,4.728,0,0,1,5.037-.316,4.269,4.269,0,0,1,2.269,3.117,1.107,1.107,0,0,0,.652.913q3.938,1.956,7.857,3.944a.787.787,0,0,0,.966-.065,4.445,4.445,0,0,1,5.283-.291.686.686,0,0,0,.972-.073q5.056-4.377,10.151-8.711a1.365,1.365,0,0,0,.567-1.5,4.679,4.679,0,1,1,9.3-.689Z" fill="#0061ad"/>
    </g>
  </g>
</svg>
