<svg xmlns="http://www.w3.org/2000/svg" xmlns:xlink="http://www.w3.org/1999/xlink" width="18" height="18" viewBox="0 0 18 18">
  <defs>
    <clipPath id="clip-path">
      <rect id="Rectangle_862" data-name="Rectangle 862" width="18" height="18" transform="translate(0 0.424)" fill="#db422d" stroke="#707070" stroke-width="1"/>
    </clipPath>
  </defs>
  <g id="Mask_Group_33" data-name="Mask Group 33" transform="translate(0 -0.424)" clip-path="url(#clip-path)">
    <g id="phone-call" transform="translate(0.013 0)">
      <g id="Group_1409" data-name="Group 1409">
        <path id="Path_1115" data-name="Path 1115" d="M14.226,11.15a1.77,1.77,0,0,0-1.284-.589,1.831,1.831,0,0,0-1.3.585l-1.2,1.2c-.1-.053-.2-.1-.293-.152-.137-.068-.266-.133-.376-.2A13.048,13.048,0,0,1,6.647,9.141,7.7,7.7,0,0,1,5.621,7.522c.312-.285.6-.581.881-.866.106-.106.213-.217.319-.323a1.743,1.743,0,0,0,0-2.629L5.784,2.667c-.118-.118-.239-.239-.353-.361-.228-.236-.467-.479-.714-.707a1.8,1.8,0,0,0-1.273-.558A1.861,1.861,0,0,0,2.152,1.6l-.008.008L.853,2.91A2.779,2.779,0,0,0,.029,4.677,6.66,6.66,0,0,0,.515,7.5a16.357,16.357,0,0,0,2.906,4.848A17.878,17.878,0,0,0,9.374,17a9.275,9.275,0,0,0,3.343.988c.08,0,.163.008.239.008a2.863,2.863,0,0,0,2.192-.942c0-.008.011-.011.015-.019a8.636,8.636,0,0,1,.665-.688c.163-.156.331-.319.494-.49a1.9,1.9,0,0,0,.574-1.314,1.826,1.826,0,0,0-.585-1.3Zm1.36,4s0,0,0,0c-.148.16-.3.3-.463.463a9.989,9.989,0,0,0-.733.76,1.831,1.831,0,0,1-1.428.6c-.057,0-.118,0-.175,0a8.24,8.24,0,0,1-2.963-.889,16.876,16.876,0,0,1-5.607-4.392A15.423,15.423,0,0,1,1.48,7.139,5.424,5.424,0,0,1,1.054,4.76a1.744,1.744,0,0,1,.524-1.128l1.3-1.3a.864.864,0,0,1,.577-.27.813.813,0,0,1,.555.266l.011.011c.232.217.452.441.684.68.118.122.239.243.361.369L6.1,4.43a.725.725,0,0,1,0,1.178c-.11.11-.217.22-.327.327-.319.327-.623.631-.954.927-.008.008-.015.011-.019.019a.775.775,0,0,0-.2.862l.011.034a8.327,8.327,0,0,0,1.227,2l0,0a13.944,13.944,0,0,0,3.374,3.07,5.187,5.187,0,0,0,.467.255c.137.068.266.133.376.2.015.008.03.019.046.027a.824.824,0,0,0,.376.095.812.812,0,0,0,.577-.262l1.3-1.3a.859.859,0,0,1,.574-.285.774.774,0,0,1,.547.277l.008.008,2.093,2.093A.751.751,0,0,1,15.586,15.151Z" transform="translate(-0.013 0)" fill="#db422d"/>
        <path id="Path_1116" data-name="Path 1116" d="M9.728,4.282a4.889,4.889,0,0,1,3.981,3.981.51.51,0,0,0,.505.425.678.678,0,0,0,.087-.008.513.513,0,0,0,.422-.593A5.912,5.912,0,0,0,9.906,3.271a.516.516,0,0,0-.593.418A.507.507,0,0,0,9.728,4.282Z" transform="translate(-0.013 0)" fill="#db422d"/>
        <path id="Path_1117" data-name="Path 1117" d="M17.979,7.94A9.735,9.735,0,0,0,10.047.008.512.512,0,1,0,9.88,1.018a8.7,8.7,0,0,1,7.089,7.089.51.51,0,0,0,.505.425.678.678,0,0,0,.087-.008A.5.5,0,0,0,17.979,7.94Z" transform="translate(-0.013 0)" fill="#db422d"/>
      </g>
    </g>
  </g>
</svg>
