<svg id="Group_4886" data-name="Group 4886" xmlns="http://www.w3.org/2000/svg" width="19.778" height="22.681" viewBox="0 0 19.778 22.681">
  <path id="Path_9154" data-name="Path 9154" d="M-536.18,189.2c-.253-.185-.322-.357-.216-.55a.433.433,0,0,1,.433-.206c1.011,0,.284,0,1.3,0h.261v-.327q0-10.485,0-20.97a2.084,2.084,0,0,1,.018-.308.357.357,0,0,1,.346-.316,1.6,1.6,0,0,1,.2,0h9.454c.464,0,.565.1.565.577q0,4.108,0,8.215v.284h5.133c.426,0,.535.109.535.536q0,6,0,12v.312h.521c.531,0-.1.008.435,0a.527.527,0,0,1,.534.271v.487Zm3.666-.761v-.254c0-1.034,0-2.067,0-3.1a1.117,1.117,0,0,1,1.106-1.169c.213-.014.428-.008.642-.006a1.146,1.146,0,0,1,1.27,1.275q0,1.506,0,3.012v.238h.756v-.293q0-6,0-12c0-.424.117-.541.537-.541h3.607v-8.308h-9.038v21.152Zm13.591-12.072h-9.046v12.066h9.046Zm-11.355,12.067c.011-.024.022-.037.022-.049,0-1.113.006-2.227,0-3.34a.348.348,0,0,0-.358-.371c-.206-.013-.413-.008-.619-.007-.407,0-.527.122-.527.527q0,1.515,0,3.031v.209Z" transform="translate(536.444 -166.517)" fill="#db422d"/>
  <path id="Path_9155" data-name="Path 9155" d="M-376.837,257.418c0,.346,0,.693,0,1.039s-.146.48-.49.481q-1.028,0-2.056,0c-.339,0-.479-.145-.481-.49q-.005-1.028,0-2.057c0-.335.138-.476.468-.478q1.05-.008,2.1,0c.318,0,.452.143.458.465C-376.832,256.725-376.837,257.072-376.837,257.418Zm-2.257-.738v1.488h1.481V256.68Z" transform="translate(387.572 -250.62)" fill="#db422d"/>
  <path id="Path_9156" data-name="Path 9156" d="M-443.677,257.417c0-.354,0-.708,0-1.062,0-.294.137-.44.432-.443q1.083-.012,2.167,0a.376.376,0,0,1,.418.431q.007,1.084,0,2.167a.375.375,0,0,1-.406.422q-1.094.014-2.189,0c-.287,0-.419-.158-.422-.455C-443.68,258.125-443.677,257.771-443.677,257.417Zm2.245.754v-1.489h-1.475v1.489Z" transform="translate(447.607 -250.618)" fill="#db422d"/>
  <path id="Path_9157" data-name="Path 9157" d="M-378.385,195.037c-.346,0-.693,0-1.039,0-.308-.005-.449-.138-.452-.445q-.01-1.061,0-2.123c0-.314.152-.452.472-.453q1.039-.005,2.079,0c.329,0,.472.141.475.473q.008,1.039,0,2.079c0,.337-.136.466-.472.47C-377.678,195.04-378.032,195.037-378.385,195.037Zm.764-2.254H-379.1v1.486h1.483Z" transform="translate(387.585 -190.503)" fill="#db422d"/>
  <path id="Path_9158" data-name="Path 9158" d="M-442.161,319.9c.354,0,.708,0,1.061,0,.3,0,.438.135.44.429q.007,1.084,0,2.167a.377.377,0,0,1-.428.419q-1.072.006-2.145,0c-.3,0-.442-.145-.444-.453q0-1.05,0-2.1c0-.324.136-.459.455-.462C-442.868,319.9-442.515,319.9-442.161,319.9Zm.735.77h-1.481v1.483h1.481Z" transform="translate(447.608 -310.827)" fill="#db422d"/>
  <path id="Path_9159" data-name="Path 9159" d="M-440.658,193.534c0,.354,0,.708,0,1.062,0,.3-.135.433-.435.435q-1.072.008-2.145,0c-.3,0-.437-.146-.438-.457q0-1.05,0-2.1c0-.316.143-.461.46-.463q1.05-.006,2.1,0c.318,0,.454.143.457.463C-440.655,192.827-440.658,193.181-440.658,193.534Zm-2.254.725h1.48v-1.483h-1.48Z" transform="translate(447.608 -190.499)" fill="#db422d"/>
  <path id="Path_9161" data-name="Path 9161" d="M-282.525,409.224c.332,0,.663,0,1,0,.36,0,.5.137.5.49q.006,1.028,0,2.057c0,.344-.139.478-.488.48q-1.028.006-2.056,0c-.345,0-.48-.14-.482-.487q-.006-1.028,0-2.057c0-.34.146-.479.489-.483S-282.871,409.224-282.525,409.224Zm-.76.767v1.488h1.485v-1.488Z" transform="translate(297.429 -394.862)" fill="#db422d"/>
  <path id="Path_9162" data-name="Path 9162" d="M-344.845,410.711c0,.354,0,.708,0,1.062,0,.312-.131.451-.441.454q-1.061.011-2.123,0c-.32,0-.453-.146-.454-.466q0-1.051,0-2.1c0-.3.14-.453.444-.456q1.061-.01,2.123,0c.316,0,.448.147.452.469C-344.842,410.018-344.845,410.365-344.845,410.711Zm-2.254.743h1.479V409.97H-347.1Z" transform="translate(357.464 -394.839)" fill="#db422d"/>
  <path id="Path_9163" data-name="Path 9163" d="M-282.577,348.433c-.346,0-.693,0-1.039,0-.3,0-.448-.132-.451-.423q-.013-1.083,0-2.167c0-.292.154-.426.449-.427q1.061,0,2.123,0a.393.393,0,0,1,.452.446q.01,1.061,0,2.123c0,.319-.145.445-.471.448C-281.87,348.435-282.223,348.433-282.577,348.433Zm.763-.767v-1.481h-1.481v1.481Z" transform="translate(297.446 -334.828)" fill="#db422d"/>
  <path id="Path_9165" data-name="Path 9165" d="M-344.842,346.927c0,.354,0,.708,0,1.062,0,.313-.135.448-.443.449q-1.061,0-2.123,0c-.318,0-.452-.139-.453-.464q0-1.039,0-2.079c0-.335.137-.472.469-.474q1.039,0,2.079,0c.337,0,.469.131.472.467S-344.842,346.58-344.842,346.927Zm-.766-.735H-347.1v1.479h1.489Z" transform="translate(357.461 -334.833)" fill="#db422d"/>
</svg>
