<svg id="noun-refund-2396691" xmlns="http://www.w3.org/2000/svg" width="19" height="17.565" viewBox="0 0 19 17.565">
  <g id="Group_5784" data-name="Group 5784">
    <path id="Path_9547" data-name="Path 9547" d="M50,77.395a.743.743,0,0,1,1.228.838,8.783,8.783,0,1,1,1.264-7.086l.3-.52a.745.745,0,0,1,1.286.751L52.7,73.743a.744.744,0,0,1-1.127.187L49.56,72.19a.743.743,0,0,1,.972-1.123l.521.452A7.3,7.3,0,1,0,50,77.395Zm-9.29-2.756,1.518-.151A1.552,1.552,0,0,0,43.9,75.963c.655,0,1.508-.266,1.508-1.06,0-.827-1.332-.979-1.957-1.135C42.225,73.459,41,72.919,41,71.446c0-1.315,1.031-1.943,2.16-2.11v-.975h1.362v.978a2.3,2.3,0,0,1,2.225,2.307l-1.561.054c-.139-.832-.582-1.119-1.4-1.119-.475,0-1.3.142-1.3.76,0,.666,1.176.872,1.658.986,1.5.352,2.831.8,2.831,2.565a2.255,2.255,0,0,1-1.408,2.1,3.769,3.769,0,0,1-1.043.25v.96H43.159v-.977a2.66,2.66,0,0,1-2.451-2.588Z" transform="translate(-35.19 -64.5)" fill="#26a59a"/>
  </g>
</svg>
