<svg id="Component_50_5" data-name="Component 50 – 5" xmlns="http://www.w3.org/2000/svg" width="16.492" height="15.382" viewBox="0 0 16.492 15.382">
  <path id="Path_9547" data-name="Path 9547" d="M48.044,75.792a.647.647,0,0,1,1.066.734,7.7,7.7,0,1,1,1.1-6.205l.263-.455a.648.648,0,0,1,1.116.657l-1.2,2.071a.642.642,0,0,1-.978.164l-1.744-1.523a.648.648,0,0,1,.844-.983l.453.4a6.378,6.378,0,1,0-.916,5.146ZM39.98,73.379l1.317-.132a1.352,1.352,0,0,0,1.456,1.291c.569,0,1.309-.233,1.309-.928,0-.724-1.156-.858-1.7-.994-1.067-.27-2.132-.743-2.132-2.033,0-1.152.895-1.7,1.875-1.847v-.854H43.29v.856a2.006,2.006,0,0,1,1.931,2.021l-1.355.047a1.044,1.044,0,0,0-1.218-.98c-.412,0-1.127.124-1.127.666,0,.583,1.02.763,1.439.864,1.3.308,2.457.7,2.457,2.246a1.975,1.975,0,0,1-1.222,1.839,3.248,3.248,0,0,1-.905.219v.84H42.108v-.855a2.32,2.32,0,0,1-2.127-2.267Z" transform="translate(-35.19 -64.5)" fill="#db422d"/>
</svg>
