<svg id="trash" xmlns="http://www.w3.org/2000/svg" width="10.806" height="13.299" viewBox="0 0 10.806 13.299">
  <path id="Path_1052" data-name="Path 1052" d="M57.767,1.662H55.481V1.247A1.247,1.247,0,0,0,54.234,0H52.572a1.247,1.247,0,0,0-1.247,1.247v.416H49.039A1.039,1.039,0,0,0,48,2.7v.831a.416.416,0,0,0,.416.416H58.39a.416.416,0,0,0,.416-.416V2.7A1.039,1.039,0,0,0,57.767,1.662Zm-5.611-.416a.416.416,0,0,1,.416-.416h1.662a.416.416,0,0,1,.416.416v.416H52.156Z" transform="translate(-48)" fill="#db422c"/>
  <path id="Path_1053" data-name="Path 1053" d="M73.494,184a.13.13,0,0,0-.13.136l.343,7.2a1.245,1.245,0,0,0,1.245,1.188h6.311a1.245,1.245,0,0,0,1.245-1.188l.343-7.2a.13.13,0,0,0-.13-.136Zm6.276,1.039a.416.416,0,1,1,.831,0v5.4a.416.416,0,1,1-.831,0Zm-2.078,0a.416.416,0,1,1,.831,0v5.4a.416.416,0,1,1-.831,0Zm-2.078,0a.416.416,0,1,1,.831,0v5.4a.416.416,0,1,1-.831,0Z" transform="translate(-72.705 -179.221)" fill="#db422c"/>
</svg>
