<svg xmlns="http://www.w3.org/2000/svg" width="20.905" height="20.899" viewBox="0 0 20.905 20.899">
  <g id="Reporting_grey" data-name="Reporting grey" transform="translate(-2419.638 426.427)">
    <path id="Path_1592" data-name="Path 1592" d="M2419.638-285.254c.165-.231.165-.231.857-.315,0-.074.011-.152.011-.231q0-2.194,0-4.387c0-.451.135-.587.583-.587h2.347c.418,0,.56.145.561.568q0,2.194,0,4.387v.255h1.735v-.259q0-4.347,0-8.693c0-.484.133-.617.616-.617h2.286c.442,0,.588.144.588.585q0,4.357,0,8.714v.272h1.735v-7.2c0-.5.123-.622.63-.622h2.306c.406,0,.554.148.554.554q0,3.5,0,7v.271h1.735v-.266q0-6.071,0-12.142c0-.075,0-.15,0-.224a.421.421,0,0,1,.442-.415q1.3-.008,2.592,0a.425.425,0,0,1,.449.429c.007.074,0,.15,0,.224q0,6.061,0,12.122v.284h.3c.329,0,.5.1.554.337.049.207-.055.382-.315.53h-20.25l-.327-.327Zm19.144-.322v-12.152h-1.707v12.152Zm-10.453,0v-8.676h-1.706v8.676Zm5.225,0v-6.937h-1.7v6.937Zm-10.451,0V-289.9h-1.7v4.325Z" transform="translate(0 -120.844)" fill="#717171"/>
    <path id="Path_1593" data-name="Path 1593" d="M2446.1-419.75c-.64-.184-1.265-.365-1.893-.54a.183.183,0,0,0-.153.047,1.75,1.75,0,0,1-2.51.44c-.8.637-1.6,1.283-2.41,1.911a.329.329,0,0,0-.133.46,1.706,1.706,0,0,1-.611,1.993,1.741,1.741,0,0,1-2.074-.029,1.739,1.739,0,0,1-.574-1.993,1.727,1.727,0,0,1,1.764-1.119,2.577,2.577,0,0,1,.661.188.213.213,0,0,0,.251-.032c.854-.686,1.711-1.367,2.524-2.014a6.726,6.726,0,0,1-.052-1.035,1.717,1.717,0,0,1,1.713-1.474,1.722,1.722,0,0,1,1.707,1.483.386.386,0,0,0,.345.4c.561.137,1.111.314,1.668.466a.262.262,0,0,0,.211-.037,1.756,1.756,0,0,1,2.176-.337c.042-.039.087-.079.13-.121q1.292-1.291,2.586-2.581a.2.2,0,0,0,.053-.275,1.717,1.717,0,0,1,.292-1.915,1.729,1.729,0,0,1,1.886-.452,1.746,1.746,0,0,1,1.136,1.6,1.74,1.74,0,0,1-2.441,1.621.255.255,0,0,0-.345.065q-1.27,1.284-2.554,2.555a.2.2,0,0,0-.062.274,1.719,1.719,0,0,1-.34,1.976,1.738,1.738,0,0,1-1.98.334,1.734,1.734,0,0,1-.977-1.754C2446.1-419.674,2446.1-419.7,2446.1-419.75Zm7.816-4.946a.868.868,0,0,0-.876-.862.868.868,0,0,0-.856.882.867.867,0,0,0,.876.861A.867.867,0,0,0,2453.915-424.7Zm-5.226,5.235a.872.872,0,0,0-.867-.871.87.87,0,0,0-.865.873.866.866,0,0,0,.866.869A.867.867,0,0,0,2448.689-419.461Zm-10.452,2.616a.872.872,0,0,0-.864-.875.869.869,0,0,0-.869.869.867.867,0,0,0,.863.873A.867.867,0,0,0,2438.238-416.845Zm4.366-3.491a.858.858,0,0,0,.86-.872.857.857,0,0,0-.872-.859.855.855,0,0,0-.86.872A.856.856,0,0,0,2442.6-420.336Z" transform="translate(-15.121)" fill="#717171"/>
  </g>
</svg>
