<svg xmlns="http://www.w3.org/2000/svg" width="20.828" height="20.828" viewBox="0 0 20.828 20.828">
  <g id="save-file-option_1_" data-name="save-file-option (1)" transform="translate(-0.003)">
    <path id="Path_1361" data-name="Path 1361" d="M20.56,5.749a3.153,3.153,0,0,0-.651-1.03l-3.8-3.8a3.157,3.157,0,0,0-1.03-.651A3.13,3.13,0,0,0,13.888,0H1.3A1.255,1.255,0,0,0,.383.38,1.255,1.255,0,0,0,0,1.3V19.526a1.255,1.255,0,0,0,.38.922,1.256,1.256,0,0,0,.922.38H19.529a1.3,1.3,0,0,0,1.3-1.3V6.943A3.132,3.132,0,0,0,20.56,5.749ZM8.681,2.169a.44.44,0,0,1,.434-.434h2.6a.44.44,0,0,1,.434.434V6.509a.44.44,0,0,1-.434.434h-2.6a.44.44,0,0,1-.434-.434V2.169Zm6.943,16.923H5.21V13.885H15.624Zm3.472,0H17.359V13.451a1.3,1.3,0,0,0-1.3-1.3H4.776a1.3,1.3,0,0,0-1.3,1.3v5.641H1.739V1.736H3.474V7.377a1.3,1.3,0,0,0,1.3,1.3h7.811a1.3,1.3,0,0,0,1.3-1.3V1.736a1.461,1.461,0,0,1,.529.136,1.461,1.461,0,0,1,.461.271l3.811,3.811a1.46,1.46,0,0,1,.271.468,1.493,1.493,0,0,1,.136.522v12.15Z" transform="translate(0 0)" fill="#db422d"/>
  </g>
</svg>
