<svg xmlns="http://www.w3.org/2000/svg" width="33.264" height="33.264" viewBox="0 0 33.264 33.264">
  <g id="Group_4960" data-name="Group 4960" transform="translate(-1521 -672)">
    <path id="Path_9211" data-name="Path 9211" d="M12,16a1,1,0,0,1-.64-.23l-6-5A1,1,0,0,1,6.64,9.23L12,13.71l5.36-4.32A1.025,1.025,0,1,1,18.63,11l-6,4.83A1,1,0,0,1,12,16Z" transform="translate(1526.001 679.817)" fill="#38ada2"/>
    <path id="Path_9214" data-name="Path 9214" d="M12,16a1,1,0,0,1-.64-.23l-6-5A1,1,0,0,1,6.64,9.23L12,13.71l5.36-4.32A1.025,1.025,0,1,1,18.63,11l-6,4.83A1,1,0,0,1,12,16Z" transform="translate(1526.001 674.445)" fill="#38ada2"/>
    <path id="Path_9213" data-name="Path 9213" d="M16.632,0A16.632,16.632,0,1,0,33.264,16.632,16.65,16.65,0,0,0,16.632,0Zm0,30.687A14.055,14.055,0,1,1,30.687,16.632,14.072,14.072,0,0,1,16.632,30.687Z" transform="translate(1521 672)" fill="#38ada2"/>
  </g>
</svg>
