<svg xmlns="http://www.w3.org/2000/svg" width="68" height="68" viewBox="0 0 68 68">
  <g id="Group_7232" data-name="Group 7232" transform="translate(-358 -403)">
    <rect id="Rectangle_2881" data-name="Rectangle 2881" width="68" height="68" rx="10" transform="translate(358 403)" fill="#38ada2" opacity="0.1"/>
    <path id="Arrow" d="M5.413,29.089a.835.835,0,0,1-.271-.044.874.874,0,0,1-.6-.874c0-.131.9-12.821,13.625-13.817V9.793a.874.874,0,0,1,1.5-.612l8.626,8.809a.874.874,0,0,1,0,1.224l-8.626,8.809a.874.874,0,0,1-1.5-.612V22.937c-8.495.323-11.977,5.681-12.012,5.746A.874.874,0,0,1,5.413,29.089Zm14.5-17.155v3.238a.874.874,0,0,1-.843.874c-8.232.3-11.178,5.785-12.235,9.312a18.076,18.076,0,0,1,12.152-4.195h.039a.874.874,0,0,1,.874.874v3.238l6.555-6.668Z" transform="translate(375.463 418.082)" fill="#38ada2"/>
  </g>
</svg>
