<svg width="45" height="45" viewBox="0 0 45 45" fill="none" xmlns="http://www.w3.org/2000/svg">
<g id="EzeI8y">
<g id="Group">
<path id="Vector" d="M6.31078 38.3332C6.31078 40.0017 6.27904 41.5078 6.32166 43.0113C6.3534 44.1493 5.89003 44.8756 4.95151 44.9681C3.98034 45.0643 3.22408 44.3869 3.21229 43.2625C3.17874 40.1422 3.17874 37.022 3.21138 33.9017C3.22317 32.722 3.83888 32.1915 5.02224 32.1906C8.0908 32.187 11.1594 32.1852 14.2279 32.1924C15.1256 32.1942 15.7577 32.624 15.9191 33.3395C16.0814 34.0568 15.8656 34.6797 15.2299 35.0452C14.908 35.2302 14.4773 35.2882 14.0946 35.2945C12.4017 35.3199 10.7087 35.3045 9.01572 35.3081C8.76092 35.3081 8.50702 35.3308 8.25221 35.3435C8.20687 35.4106 8.16244 35.4777 8.1171 35.5448C9.04021 36.3745 9.89621 37.2967 10.8964 38.0176C16.6255 42.148 22.9004 42.7646 29.4692 40.5521C33.4409 39.2146 36.3472 36.418 38.6586 32.9904C40.7306 29.9173 41.7843 26.5141 41.865 22.809C41.8904 21.6374 42.4807 20.9265 43.4246 20.9156C44.3332 20.9056 44.9898 21.6819 44.9635 22.8453C44.9027 25.5031 44.5073 28.1191 43.479 30.5756C40.4513 37.8136 35.1983 42.5833 27.5024 44.3769C21.747 45.718 16.212 44.9337 11.1231 41.8307C9.60695 40.9057 8.25039 39.7197 6.81949 38.6551C6.7007 38.5662 6.56921 38.4946 6.31259 38.3323L6.31078 38.3332Z" fill="#DB422D"/>
<path id="Vector_2" d="M38.6095 6.74253C38.634 6.26284 38.6585 5.98627 38.6594 5.71061C38.6639 4.30962 38.6503 2.90863 38.6676 1.50856C38.6784 0.68066 39.305 0.0486299 40.1012 0.0096381C40.9155 -0.0311673 41.669 0.60721 41.6754 1.44962C41.698 4.75304 41.6971 8.05737 41.6781 11.3608C41.6736 12.2059 41.0832 12.7636 40.1873 12.7681C36.9619 12.7872 33.7356 12.7899 30.5101 12.7636C29.5426 12.7554 28.9813 12.1279 28.9822 11.2094C28.9831 10.298 29.5589 9.68505 30.5246 9.67054C32.3219 9.64334 34.12 9.66147 35.9182 9.66147C36.202 9.66147 36.4849 9.66147 36.7688 9.66147C36.8141 9.58621 36.8585 9.51095 36.9039 9.43568C35.823 8.5026 34.8237 7.44891 33.6476 6.65729C27.4878 2.51237 20.8955 1.89847 14.2152 5.03868C8.05989 7.93133 4.41733 12.9395 3.40173 19.7386C3.26571 20.649 3.20587 21.5712 3.117 22.488C3.0236 23.4564 2.35258 24.0812 1.45486 24.0259C0.59976 23.9733 -0.031363 23.2071 -0.00687979 22.2712C0.135486 17.0745 1.73596 12.3855 5.02851 8.34845C8.69464 3.85441 13.4235 1.15219 19.1825 0.276233C24.0973 -0.470959 28.7646 0.327013 33.1026 2.69645C34.8155 3.63134 36.3208 4.94709 37.9149 6.0978C38.1162 6.24289 38.2822 6.43603 38.6095 6.74343V6.74253Z" fill="#DB422D"/>
</g>
</g>
</svg>
