<svg width="61" height="45" viewBox="0 0 61 45" fill="none" xmlns="http://www.w3.org/2000/svg">
<path d="M41.0496 28.4679C44.7554 28.4679 48.4611 28.4647 52.1663 28.4684C57.1796 28.4742 60.8992 32.4857 60.5349 37.4872C60.2447 41.4678 56.7008 44.8487 52.6915 44.9296C50.6288 44.9712 48.565 44.9563 46.5012 44.9531C45.6725 44.952 45.2326 44.552 45.2198 43.841C45.207 43.1343 45.6336 42.713 46.4783 42.7023C48.386 42.6779 50.2948 42.688 52.2026 42.6853C56.7407 42.6794 59.6258 38.3554 57.7809 34.2193C56.7429 31.8919 54.7861 30.7468 52.2787 30.7324C44.8012 30.6893 37.3231 30.6967 29.8456 30.7255C26.2586 30.7393 23.6494 33.3485 23.6585 36.8029C23.667 39.9478 26.3411 42.6512 29.4967 42.681C31.405 42.6992 33.3132 42.6779 35.2215 42.6917C35.5453 42.6938 35.892 42.729 36.1871 42.8493C36.6675 43.0459 36.8853 43.4789 36.8006 43.98C36.7133 44.4982 36.3884 44.9259 35.8319 44.9185C33.089 44.8838 30.3286 45.2444 27.6082 44.6772C24.5926 44.0487 21.9238 41.0503 21.5585 37.99C21.1271 34.3764 22.4383 31.5835 25.498 29.6257C26.7603 28.8183 28.1764 28.4748 29.6655 28.4705C33.4597 28.4593 37.2544 28.4668 41.0486 28.4668L41.0496 28.4679Z" fill="#DB422D"/>
<path d="M40.9463 3.58149C44.652 3.58149 48.3578 3.58042 52.0635 3.58149C57.1647 3.58308 60.8432 7.48057 60.5381 12.5572C60.3011 16.4941 56.6965 19.9676 52.7309 20.0427C50.6458 20.0821 48.5596 20.0736 46.474 20.0619C45.5633 20.0566 45.076 19.4707 45.2666 18.6543C45.4179 18.0067 45.8919 17.7979 46.5113 17.7995C48.4195 17.8037 50.3278 17.8011 52.2361 17.7989C56.713 17.7931 59.6449 13.4152 57.8101 9.35315C56.7705 7.0513 54.833 5.85884 52.3122 5.84552C44.8123 5.80611 37.3119 5.80664 29.812 5.84233C26.2537 5.85937 23.6558 8.46639 23.6595 11.8808C23.6627 15.0577 26.3448 17.7691 29.5318 17.7957C31.529 17.8123 33.5262 17.7888 35.5229 17.8048C36.505 17.8128 37.0882 18.5845 36.6898 19.3738C36.5492 19.6523 36.1865 20.0076 35.925 20.0076C33.1161 20.0065 30.2743 20.4262 27.508 19.7525C23.8086 18.8513 21.2751 15.2654 21.4439 11.4041C21.609 7.63342 24.518 4.3351 28.2435 3.7157C28.7649 3.62889 29.3001 3.58788 29.829 3.58628C33.5348 3.57563 37.2405 3.58042 40.9463 3.58042V3.58149Z" fill="#DB422D"/>
<path d="M3.58833 35.572C3.58833 35.2599 3.58833 35.0234 3.58833 34.787C3.58833 33.1018 3.58567 31.4167 3.5894 29.7322C3.59526 27.205 5.43695 25.1679 7.86502 24.9974C10.4518 24.8158 12.5965 26.4743 12.8836 29.0414C13.0503 30.531 12.9699 32.0489 12.9933 33.554C13.0034 34.1926 12.9949 34.8317 12.9949 35.572C13.7517 35.572 14.4515 35.5656 15.1514 35.5736C16.0994 35.5842 16.5175 35.9278 16.5324 36.8779C16.5686 39.1611 16.5659 41.4448 16.5388 43.7281C16.5286 44.5802 16.0919 44.9535 15.2195 44.9546C10.6281 44.9605 6.03611 44.9621 1.44466 44.9535C0.388006 44.9514 0.007738 44.5504 0.00614024 43.4964C0.00294471 41.3458 0.00241212 39.1952 0.00614024 37.0446C0.00827059 36.0029 0.403984 35.5976 1.45052 35.5747C2.13223 35.5597 2.81501 35.572 3.58833 35.572ZM2.30533 37.8989C2.30533 39.282 2.33941 40.6076 2.29041 41.9295C2.26645 42.5707 2.50664 42.7007 3.09196 42.697C6.57029 42.6741 10.0486 42.6863 13.5264 42.6842C13.7421 42.6842 13.9578 42.6602 14.2076 42.6458V37.8994H2.30586L2.30533 37.8989ZM10.6558 35.5257C10.6558 33.3894 10.7053 31.3321 10.6334 29.2789C10.6015 28.3629 10.03 27.6796 9.13151 27.36C7.41977 26.7513 5.88485 27.9027 5.84704 29.8552C5.81402 31.5808 5.83852 33.308 5.84278 35.0341C5.84278 35.1843 5.87899 35.3339 5.90349 35.5251H10.6563L10.6558 35.5257Z" fill="#DB422D"/>
<path d="M8.26661 20.0698C6.02707 20.0698 3.78753 20.0756 1.54747 20.0682C0.372577 20.0644 0.0258615 19.6868 0.00242756 18.5119C-0.0444402 16.1659 0.584014 14.0739 2.17645 12.2913C4.79359 9.36154 9.33604 8.70167 12.6312 10.8278C15.5567 12.7153 16.6922 15.4927 16.5409 18.8746C16.5036 19.7129 16.0882 20.0612 15.1855 20.0655C12.8794 20.0767 10.5732 20.0692 8.26714 20.0698H8.26661ZM14.2481 17.7477C14.1741 15.6152 13.3246 13.9455 11.6113 12.8132C9.44416 11.3806 7.16415 11.3886 4.99172 12.7824C3.24429 13.9035 2.36659 15.587 2.3309 17.7477H14.2481Z" fill="#DB422D"/>
<path d="M41.0218 12.983C37.4072 12.983 33.7925 12.983 30.1778 12.983C29.0343 12.983 28.5065 12.6245 28.4911 11.8438C28.4751 11.0422 28.9811 10.6849 30.14 10.6849C37.4135 10.6843 44.6876 10.6838 51.9612 10.6854C52.9721 10.6854 53.4136 10.9783 53.4935 11.6792C53.5845 12.4791 53.0759 12.9787 52.1322 12.9808C49.2935 12.9872 46.4553 12.983 43.6166 12.983C42.7517 12.983 41.8868 12.983 41.0218 12.983Z" fill="#DB422D"/>
<path d="M3.58894 4.66874C3.59373 2.11658 5.74539 -0.0143075 8.30235 7.23572e-05C10.8795 0.0144523 13.0365 2.21404 12.9939 4.78325C12.9518 7.30346 10.8018 9.41304 8.27945 9.40878C5.65432 9.40452 3.58361 7.31145 3.58894 4.66928V4.66874ZM8.29436 2.31524C6.98632 2.31417 5.87587 3.3655 5.85404 4.6256C5.83114 5.94376 6.98579 7.14741 8.26347 7.13729C9.58163 7.12717 10.6654 6.04282 10.675 4.72573C10.6846 3.38201 9.63222 2.3163 8.29383 2.31524H8.29436Z" fill="#DB422D"/>
<path d="M42.2841 18.909C42.2766 19.5231 41.7494 20.0402 41.1262 20.0434C40.4781 20.0471 39.9284 19.489 39.9567 18.8557C39.9838 18.2481 40.5399 17.7288 41.1459 17.7442C41.7552 17.7597 42.291 18.3077 42.2835 18.9085L42.2841 18.909Z" fill="#DB422D"/>
<path d="M37.1132 37.6102C36.4906 37.6038 35.965 37.084 35.9607 36.4704C35.9565 35.8702 36.4949 35.3243 37.1042 35.3115C37.7348 35.2982 38.31 35.8718 38.2903 36.4944C38.2706 37.1095 37.7358 37.6165 37.1138 37.6107L37.1132 37.6102Z" fill="#DB422D"/>
<path d="M44.2957 35.312C44.9012 35.3002 45.4562 35.8248 45.4786 36.4304C45.5009 37.0354 44.9848 37.584 44.3681 37.6111C43.7194 37.6394 43.1543 37.1094 43.1511 36.4693C43.1479 35.869 43.6869 35.3237 44.2962 35.312H44.2957Z" fill="#DB422D"/>
<path d="M51.4809 37.6108C50.8594 37.5985 50.3374 37.0707 50.3411 36.4583C50.3449 35.8586 50.8913 35.3164 51.4963 35.3111C52.1264 35.3057 52.6963 35.8873 52.6686 36.5073C52.6403 37.1261 52.1056 37.623 51.4809 37.6108Z" fill="#DB422D"/>
<path d="M41.1082 42.4978C41.7142 42.4909 42.2655 43.0192 42.283 43.6243C42.3006 44.2309 41.7829 44.7736 41.1641 44.7965C40.5143 44.8205 39.9535 44.2868 39.9556 43.6466C39.9578 43.0459 40.501 42.5042 41.1082 42.4973V42.4978Z" fill="#DB422D"/>
<path d="M31.1018 36.4543C31.1077 37.0731 30.7312 37.6579 30.3211 37.5967C29.7049 37.504 29.6154 36.9773 29.5738 36.4905C29.5227 35.8876 29.928 35.3369 30.3493 35.3481C30.7503 35.3587 31.0965 35.8673 31.1018 36.4548V36.4543Z" fill="#DB422D"/>
</svg>
