<svg xmlns="http://www.w3.org/2000/svg" xmlns:xlink="http://www.w3.org/1999/xlink" width="149" height="149" viewBox="0 0 149 149">
  <defs>
    <filter id="Rectangle_2602" x="0" y="0" width="149" height="149" filterUnits="userSpaceOnUse">
      <feOffset dy="3" input="SourceAlpha"/>
      <feGaussianBlur stdDeviation="3" result="blur"/>
      <feFlood flood-opacity="0.161"/>
      <feComposite operator="in" in2="blur"/>
      <feComposite in="SourceGraphic"/>
    </filter>
    <clipPath id="clip-path">
      <rect id="Rectangle_2643" data-name="Rectangle 2643" width="55.516" height="48.582" fill="#db422d"/>
    </clipPath>
  </defs>
  <g id="Group_5562" data-name="Group 5562" transform="translate(-768 -1678)">
    <g id="Group_5471" data-name="Group 5471" transform="translate(232 102)">
      <g transform="matrix(1, 0, 0, 1, 536, 1576)" filter="url(#Rectangle_2602)">
        <rect id="Rectangle_2602-2" data-name="Rectangle 2602" width="131" height="131" transform="translate(9 6)" fill="#fff"/>
      </g>
    </g>
    <g id="Group_5539" data-name="Group 5539" transform="translate(3.217 2.815)">
      <g id="Group_5537" data-name="Group 5537" transform="translate(812 1726.735)">
        <g id="Group_5536" data-name="Group 5536" clip-path="url(#clip-path)">
          <path id="Path_9509" data-name="Path 9509" d="M46.89,24.254c-.131-.131-.333-.223-.34-.464.178-.054.351-.1.523-.159A12.076,12.076,0,0,0,43.685.039q-15.938-.08-31.877,0A12.017,12.017,0,0,0,.3,9.406,3.715,3.715,0,0,1,0,10.638v2.928c.131.053.1.175.119.276a11.12,11.12,0,0,0,.9,3.111c2.25,4.671,5.975,7.157,11.16,7.218,6.595.078,13.192.025,19.788.007.48,0,.6.118.593.594-.019,5.06-.012,10.121-.011,15.181,0,.578-.014,1.157.005,1.735a1.629,1.629,0,0,0,1.483,1.652,1.8,1.8,0,0,0,1.483-.645c1.963-1.973,3.938-3.934,5.9-5.911.28-.282.4-.316.557.1.3.794.642,1.57.966,2.353q1.7,4.1,3.4,8.2a1.638,1.638,0,0,0,2.339.934,1.668,1.668,0,0,0,.635-2.261q-2.152-5.2-4.317-10.4c-.174-.415-.153-.55.346-.542,1.644.026,3.289.011,4.933.009,1.211,0,2.422.014,3.632-.013a1.587,1.587,0,0,0,1.6-1.4,1.787,1.787,0,0,0-.639-1.537q-3.995-3.979-7.973-7.975m-12.407-12a1.626,1.626,0,0,0-1.933,1.719c-.013,2.132-.017,4.265.006,6.4,0,.442-.1.575-.56.573-6.613-.016-13.227,0-19.84-.014a8.824,8.824,0,0,1-1.712-17.5,9.413,9.413,0,0,1,1.885-.166q7.724,0,15.449,0c5.2,0,10.408-.011,15.612,0a8.834,8.834,0,0,1,.583,17.652.9.9,0,0,1-.748-.325q-3.844-3.861-7.7-7.71a1.92,1.92,0,0,0-1.044-.636m9.785,19.674c-3.045.018-2.283-.279-4.414,1.822-1.2,1.179-2.376,2.375-3.565,3.562-.125.125-.258.243-.449.422V18.058L49.7,31.929c-1.756,0-3.6-.009-5.437,0" transform="translate(0 0)" fill="#db422d"/>
        </g>
      </g>
      <g id="Group_5538" data-name="Group 5538" transform="translate(836.306 1734.157) rotate(-22)">
        <rect id="Rectangle_2644" data-name="Rectangle 2644" width="1.514" height="7.57" rx="0.757" transform="translate(6.091 0)" fill="#db422d"/>
        <rect id="Rectangle_2645" data-name="Rectangle 2645" width="1.514" height="7.57" rx="0.757" transform="matrix(0.788, -0.616, 0.616, 0.788, 0, 2.446)" fill="#db422d"/>
        <rect id="Rectangle_2646" data-name="Rectangle 2646" width="1.514" height="7.57" rx="0.757" transform="matrix(0.788, 0.616, -0.616, 0.788, 12.266, 1.514)" fill="#db422d"/>
      </g>
    </g>
  </g>
</svg>
