<svg xmlns="http://www.w3.org/2000/svg" xmlns:xlink="http://www.w3.org/1999/xlink" width="149" height="149" viewBox="0 0 149 149">
  <defs>
    <filter id="Rectangle_2612" x="0" y="0" width="149" height="149" filterUnits="userSpaceOnUse">
      <feOffset dy="3" input="SourceAlpha"/>
      <feGaussianBlur stdDeviation="3" result="blur"/>
      <feFlood flood-opacity="0.161"/>
      <feComposite operator="in" in2="blur"/>
      <feComposite in="SourceGraphic"/>
    </filter>
    <clipPath id="clip-path">
      <rect id="Rectangle_2613" data-name="Rectangle 2613" width="58.287" height="58.297" fill="#db422d"/>
    </clipPath>
  </defs>
  <g id="Group_5530" data-name="Group 5530" transform="translate(-849 -14549)">
    <g transform="matrix(1, 0, 0, 1, 849, 14549)" filter="url(#Rectangle_2612)">
      <rect id="Rectangle_2612-2" data-name="Rectangle 2612" width="131" height="131" transform="translate(9 6)" fill="#fff"/>
    </g>
    <g id="step_4" data-name="step 4" transform="translate(894 14591)">
      <g id="Group_5468" data-name="Group 5468" clip-path="url(#clip-path)">
        <path id="Path_9323" data-name="Path 9323" d="M0,43.145c.182-.885.308-1.786.555-2.653a13.961,13.961,0,0,1,19.027-8.937c.152.067.306.129.548.23v-.713q0-13.169,0-26.337A4.277,4.277,0,0,1,23.6.073c.031-.01.054-.048.081-.073H54.643c.322.106.654.189.963.323A4.211,4.211,0,0,1,58.28,4.1c.011.132.006.266.006.4q0,24.646,0,49.292a4.27,4.27,0,0,1-3.718,4.452,11.306,11.306,0,0,1-1.591.044q-2.7.007-5.407,0c-.7,0-1.111-.327-1.1-.865s.41-.84,1.125-.841c2.049,0,4.1,0,6.147,0a2.6,2.6,0,0,0,2.838-2.824q0-24.618,0-49.235a2.584,2.584,0,0,0-2.794-2.809q-14.571,0-29.143,0a2.567,2.567,0,0,0-2.8,2.8q0,13.888-.009,27.777a.912.912,0,0,0,.417.845,13.46,13.46,0,0,1,3.6,3.9c.07.112.146.221.221.33.007.01.03.009.131.035,0-.613,0-1.206,0-1.8a2.029,2.029,0,0,1,2.254-2.249c1.043,0,2.087-.008,3.13,0a1.945,1.945,0,0,1,2.049,1.923c.05,1.174.047,2.353,0,3.528a1.957,1.957,0,0,1-2.073,1.961c-1.359.01-2.718,0-4.062,0l.46,2.923h2.09c.531,0,1.063-.01,1.594.007a1.918,1.918,0,0,1,1.981,1.868c.057,1.23.059,2.468,0,3.7a1.931,1.931,0,0,1-2.006,1.848c-1.119.015-2.244.068-3.356-.023a7.924,7.924,0,0,1-1.775-.588A14.112,14.112,0,0,1,22.325,55.5a2.6,2.6,0,0,0,2.223,1.079q3.956,0,7.912,0c3.681,0,11.875-.021,15.556-.02a2.735,2.735,0,0,1,.511.013.847.847,0,0,1,.043,1.669,2.749,2.749,0,0,1-.623.025c-6.166,0-16.846,0-23.012.032a4.548,4.548,0,0,1-3.945-1.7c-1.433.478-2.78,1.052-4.185,1.375A13.956,13.956,0,0,1,.226,46.813c-.07-.427-.15-.852-.226-1.278V43.145m26.206,1.2A12.247,12.247,0,1,0,13.923,56.575,12.229,12.229,0,0,0,26.206,44.343m1.717-7.288c0,.511,0,1.021,0,1.532,0,.33.141.473.482.469q1.531-.019,3.063,0c.345,0,.48-.144.479-.471q0-1.532,0-3.064c0-.328-.139-.475-.481-.471q-1.531.018-3.063,0c-.341,0-.484.143-.481.472,0,.511,0,1.021,0,1.532M29.977,45.4c-.529,0-1.059.008-1.588,0-.3-.006-.466.108-.465.422q0,1.56,0,3.12c0,.334.164.467.5.463,1-.009,2-.014,3.006,0,.407.007.529-.182.526-.551-.009-.964-.013-1.929,0-2.893.007-.4-.126-.592-.557-.568-.471.027-.945.006-1.418.007" fill="#db422d"/>
        <path id="Path_9324" data-name="Path 9324" d="M185.266,48.754q-5.065,0-10.13,0a2.584,2.584,0,0,1-2.821-2.835q-.007-2.931,0-5.862a2.588,2.588,0,0,1,2.829-2.828c1.252-.005,7.219-.128,8.471-.122.68,0,1.044.307,1.043.85s-.378.856-1.045.86c-1.271.007-7.257.121-8.528.126-.744,0-1.051.289-1.055,1.025q-.016,3.016,0,6.033c0,.744.3,1.044,1.037,1.044q10.244.005,20.488,0c.71,0,1.012-.292,1.016-1q.015-3.045,0-6.089c0-.735-.3-1.016-1.052-1.017q-6.289,0-12.577,0a2.2,2.2,0,0,1-.725-.087.688.688,0,0,1-.5-.894,1.884,1.884,0,0,1,.7-.7c.113-.083.332-.025.5-.025q6.232,0,12.464,0a2.592,2.592,0,0,1,2.9,2.913q.005,2.874,0,5.748a2.58,2.58,0,0,1-2.893,2.864q-5.065,0-10.13,0" transform="translate(-146.106 -31.55)" fill="#db422d"/>
        <path id="Path_9325" data-name="Path 9325" d="M301.654,228.156q0,3.269,0,6.539a2.035,2.035,0,0,1-2.3,2.312c-1,0-2.009.006-3.014,0a2,2,0,0,1-2.12-2.1q-.013-6.795,0-13.59a1.977,1.977,0,0,1,2.076-2.074c1.061-.01,2.123-.006,3.184,0a1.975,1.975,0,0,1,2.168,2.145c.013,2.255,0,4.511,0,6.766m-1.714-.025c0-2.2-.008-4.4.007-6.6,0-.441-.144-.6-.594-.592-.966.026-1.933.02-2.9,0-.4-.007-.529.16-.528.543q.01,6.624,0,13.249c0,.415.151.577.569.568.909-.019,1.821-.04,2.729.006.6.03.736-.2.729-.755-.027-2.141-.011-4.284-.011-6.425" transform="translate(-249.469 -185.897)" fill="#db422d"/>
        <path id="Path_9326" data-name="Path 9326" d="M175.975,158.623c-.569,0-1.138.013-1.707,0a1.957,1.957,0,0,1-2.026-1.95c-.04-1.175-.043-2.353,0-3.527a1.966,1.966,0,0,1,2.043-1.938c1.1-.011,2.2-.009,3.3,0a1.967,1.967,0,0,1,2.08,1.957c.044,1.174.046,2.353,0,3.527a1.946,1.946,0,0,1-2.04,1.933c-.55.015-1.1,0-1.65,0m-.062-1.713c.529,0,1.059-.008,1.588,0,.3.006.464-.111.464-.424q0-1.56,0-3.12c0-.333-.16-.467-.494-.463-1,.011-2,.015-3.007,0-.4-.007-.53.178-.527.55.009.964.014,1.929,0,2.893-.007.405.129.592.558.569.471-.026.945-.006,1.418-.007" transform="translate(-146.021 -128.203)" fill="#db422d"/>
        <path id="Path_9327" data-name="Path 9327" d="M233.388,222.905c0-.588-.016-1.176,0-1.764a1.934,1.934,0,0,1,1.923-1.922c1.194-.021,2.39-.023,3.584,0a1.935,1.935,0,0,1,1.9,1.893c.029,1.194.027,2.39,0,3.584a1.945,1.945,0,0,1-1.931,1.923c-1.194.023-2.39.025-3.584,0a1.93,1.93,0,0,1-1.892-1.894c-.022-.606,0-1.214,0-1.82m3.661,2.012c.511,0,1.022-.012,1.531,0,.35.011.526-.1.521-.481-.013-1.021-.011-2.042,0-3.063,0-.349-.159-.462-.486-.46-1.021.009-2.042.01-3.063,0-.35,0-.462.156-.459.483q.014,1.532,0,3.063c0,.348.149.468.482.458.491-.015.983,0,1.475,0" transform="translate(-197.888 -185.866)" fill="#db422d"/>
        <path id="Path_9328" data-name="Path 9328" d="M237.038,158.6c-.588,0-1.177.019-1.764-.005a1.924,1.924,0,0,1-1.917-1.926q-.035-1.763,0-3.527a1.944,1.944,0,0,1,1.956-1.954c1.157-.02,2.314-.018,3.471,0a1.969,1.969,0,0,1,1.985,1.993q.026,1.707,0,3.414a1.959,1.959,0,0,1-1.967,2c-.587.021-1.176,0-1.764,0m-.013-1.71c.531,0,1.063-.006,1.594,0,.309,0,.449-.125.447-.441-.007-1.044.015-2.088-.023-3.13a.618.618,0,0,0-.44-.412c-1.023-.038-2.048-.013-3.073-.023-.343,0-.473.143-.47.478.009,1.024.011,2.049,0,3.073,0,.355.161.464.487.455.493-.012.986,0,1.48,0" transform="translate(-197.853 -128.179)" fill="#db422d"/>
        <path id="Path_9329" data-name="Path 9329" d="M237.085,287.249c.588,0,1.176-.019,1.764,0a1.943,1.943,0,0,1,1.922,1.928q.035,1.763,0,3.527a1.965,1.965,0,0,1-1.968,1.952q-1.735.033-3.47,0a1.957,1.957,0,0,1-1.973-2q-.027-1.706,0-3.413a1.93,1.93,0,0,1,1.962-2c.587-.02,1.176,0,1.764,0v0m-.034,5.709c.512,0,1.025-.007,1.537,0,.332.006.486-.129.483-.472q-.013-1.537,0-3.073c0-.351-.158-.463-.486-.46q-1.537.013-3.073,0c-.308,0-.45.115-.448.434q.012,1.565,0,3.13c0,.316.142.444.45.44.512-.007,1.024,0,1.537,0" transform="translate(-197.859 -243.556)" fill="#db422d"/>
        <path id="Path_9330" data-name="Path 9330" d="M297.854,158.6c-.588,0-1.177.02-1.763,0a1.949,1.949,0,0,1-1.923-1.933q-.047-1.763,0-3.527a1.966,1.966,0,0,1,1.975-1.946q1.735-.029,3.471,0a1.928,1.928,0,0,1,1.961,1.886c.041,1.212.04,2.428,0,3.64a1.9,1.9,0,0,1-1.9,1.88c-.606.025-1.213,0-1.82,0m0-1.708c.512,0,1.024-.01,1.536,0,.326.008.5-.1.494-.453-.008-1.024-.007-2.048,0-3.073,0-.328-.124-.485-.47-.482-1.024.01-2.048.009-3.073,0-.345,0-.472.161-.471.488q.008,1.536,0,3.073c0,.308.134.449.447.444.512-.009,1.024,0,1.536,0" transform="translate(-249.409 -128.18)" fill="#db422d"/>
        <path id="Path_9331" data-name="Path 9331" d="M47.264,237.214a9.728,9.728,0,0,1-19.338,1.532,9.607,9.607,0,0,1,.814-5.655c.3-.644.752-.864,1.251-.63.483.226.588.717.3,1.37a8,8,0,1,0,2.256-2.857,1.347,1.347,0,0,1-.786.373,1.258,1.258,0,0,1-.784-.511c-.25-.363-.05-.73.264-1a9.574,9.574,0,0,1,4.067-2.065,9.733,9.733,0,0,1,11.962,9.443" transform="translate(-23.577 -192.904)" fill="#db422d"/>
        <path id="Path_9332" data-name="Path 9332" d="M73.99,260.471c-.612-.27-1.2-.487-1.739-.78a.822.822,0,0,1-.4-1.193.86.86,0,0,1,1.281-.258c.2.107.4.206.61.3a1.118,1.118,0,0,0,.269.034c0-.989.023-1.953-.021-2.914-.008-.169-.27-.371-.459-.479a2.609,2.609,0,0,1-.825-4.2,1.679,1.679,0,0,1,.468-.409c.5-.243.92-.469.941-1.153.006-.186.518-.473.82-.507a.689.689,0,0,1,.752.7c.007.442.224.565.574.688a3.2,3.2,0,0,1,.839.466.85.85,0,1,1-.954,1.407c-.11-.064-.219-.13-.42-.25,0,.774-.015,1.465.015,2.154,0,.11.191.259.324.31a2.8,2.8,0,0,1,2.02,2.739,3.187,3.187,0,0,1-1.976,3.008.719.719,0,0,0-.37.448c-.1.705-.354,1.036-.887,1.032s-.794-.329-.842-1.053a.3.3,0,0,0-.017-.092m1.765-2.118c.828-.832.809-1.687,0-2.162Zm-1.775-6.115c-.4.531-.388.763,0,1.076Z" transform="translate(-60.818 -211.056)" fill="#db422d"/>
      </g>
    </g>
  </g>
</svg>
