<svg width="52" height="45" viewBox="0 0 52 45" fill="none" xmlns="http://www.w3.org/2000/svg">
<g id="_8YQdpB">
<g id="Group">
<path id="Vector" d="M42.932 22.1204C43.361 22.447 43.6514 22.6205 43.884 22.8525C46.2054 25.1709 48.5124 27.5038 50.8357 29.8204C51.3743 30.3573 51.6702 30.9363 51.3719 31.6912C51.0731 32.4474 50.4399 32.5582 49.7217 32.554C47.3189 32.5408 44.9167 32.5456 42.5139 32.551C41.6143 32.5534 41.5432 32.6546 41.8879 33.4885C43.1001 36.4215 44.322 39.3503 45.5397 42.2809C45.6288 42.4954 45.7192 42.7093 45.7951 42.9286C46.0777 43.7474 45.7475 44.6126 45.0528 44.8879C44.3009 45.1862 43.5038 44.8807 43.1188 44.0715C42.7314 43.257 42.409 42.4116 42.0662 41.5766C41.0962 39.2135 40.1328 36.8481 39.1615 34.4857C38.8675 33.7717 38.7609 33.7464 38.2132 34.2941C36.5689 35.9377 34.9331 37.5898 33.2937 39.2388C33.1479 39.3852 33.0069 39.5371 32.8533 39.6751C32.3514 40.1275 31.7959 40.2854 31.1428 40.0094C30.5017 39.7389 30.2914 39.2286 30.2902 38.5845C30.2866 35.9238 30.28 33.2632 30.28 30.6025C30.28 28.2774 30.2872 25.9524 30.2896 23.6279C30.2914 22.3241 30.283 22.3174 29.0093 22.3174C23.1704 22.3174 17.3321 22.3168 11.4932 22.3168C8.77712 22.3168 6.24056 21.6788 4.1577 19.8791C1.6826 17.7396 0.179947 15.0578 0.0184748 11.7025C-0.109859 9.03818 0.632429 6.65768 2.20919 4.53384C4.3276 1.68037 7.19975 0.14217 10.7316 0.0542039C14.8112 -0.0470172 18.895 0.0246811 22.9764 0.0240786C28.7376 0.0228736 34.4987 0.015041 40.2599 0.0264886C46.012 0.0373337 50.6682 4.00725 51.4201 9.71902C52.1413 15.1958 48.8715 20.0357 44.0268 21.7113C43.7472 21.8083 43.4725 21.918 42.9314 22.1204H42.932ZM25.8853 2.92214C21.0544 2.92214 16.2235 2.93358 11.3926 2.91551C9.80379 2.90948 8.32343 3.26918 6.95996 4.07112C3.51603 6.09614 2.15316 10.0685 3.30093 13.6407C4.47401 17.2919 7.5462 19.4079 11.4101 19.42C17.3779 19.4387 23.3457 19.4152 29.313 19.4374C30.0565 19.4405 30.3167 19.191 30.3029 18.4493C30.2667 16.5641 30.2746 14.6776 30.2981 12.7924C30.3125 11.6302 31.397 10.9951 32.4231 11.5374C32.7123 11.6904 32.9641 11.9314 33.1991 12.1658C35.3416 14.2975 37.4986 16.4159 39.6008 18.5873C40.2177 19.2242 40.7895 19.4272 41.6987 19.2983C46.3922 18.6331 49.7265 13.4503 48.2907 8.93576C47.0839 5.14057 44.1153 2.9366 40.1454 2.92575C35.3923 2.9125 30.6385 2.92274 25.8847 2.92214H25.8853ZM45.8524 29.6439C41.6493 25.4402 37.4016 21.1913 33.2823 17.0714V34.8954C33.3449 34.9375 33.4076 34.9803 33.4703 35.0225C34.9422 33.5108 36.4262 32.0106 37.8788 30.4808C38.453 29.8765 39.0935 29.612 39.9364 29.6301C41.9722 29.6734 44.0099 29.6439 45.8518 29.6439H45.8524Z" fill="white"/>
<path id="Vector_2" d="M34.8151 4.64554C34.6795 5.12273 34.5886 5.44447 34.4964 5.76681C34.0915 7.18029 33.6878 8.59497 33.2805 10.0079C33.1528 10.4513 32.9799 10.8899 32.3942 10.7194C31.8562 10.5622 31.9056 10.1139 32.0231 9.69696C32.493 8.03344 32.9485 6.36449 33.4793 4.72025C33.5661 4.45214 33.9812 4.21776 34.2909 4.12919C34.4162 4.09365 34.6651 4.4907 34.8145 4.64614L34.8151 4.64554Z" fill="white"/>
<path id="Vector_3" d="M28.8882 4.42769C29.0027 4.56265 29.2575 4.75304 29.3642 5.0061C30.0504 6.6413 30.6975 8.29277 31.3741 9.93219C31.5561 10.3732 31.482 10.7624 31.0325 10.8456C30.7831 10.892 30.3095 10.66 30.2101 10.4341C29.4877 8.78683 28.8219 7.11487 28.1676 5.4387C27.9483 4.87656 28.2363 4.41082 28.8888 4.42769H28.8882Z" fill="white"/>
<path id="Vector_4" d="M24.3031 7.96875C24.5911 8.09949 24.808 8.17782 25.0056 8.29109C26.4359 9.1093 27.8627 9.93352 29.29 10.7572C29.6895 10.9873 30.0823 11.2518 29.7672 11.782C29.4575 12.3026 29.037 12.1062 28.6327 11.8724C27.162 11.0217 25.6762 10.195 24.229 9.30511C23.991 9.1587 23.8524 8.75141 23.8048 8.44353C23.7849 8.31579 24.1235 8.13203 24.3031 7.96935V7.96875Z" fill="white"/>
</g>
</g>
</svg>
