<svg width="52" height="45" viewBox="0 0 52 45" fill="none" xmlns="http://www.w3.org/2000/svg">
<g id="_8YQdpB">
<g id="Group">
<path id="Vector" d="M42.932 22.1207C43.361 22.4472 43.6514 22.6207 43.884 22.8527C46.2054 25.1712 48.5124 27.5041 50.8357 29.8207C51.3743 30.3575 51.6702 30.9365 51.3719 31.6915C51.0731 32.4476 50.4399 32.5585 49.7217 32.5543C47.3189 32.541 44.9167 32.5458 42.5139 32.5513C41.6143 32.5537 41.5432 32.6549 41.8879 33.4888C43.1001 36.4218 44.322 39.3505 45.5397 42.2811C45.6288 42.4956 45.7192 42.7095 45.7951 42.9288C46.0777 43.7476 45.7475 44.6128 45.0528 44.8882C44.3009 45.1864 43.5038 44.881 43.1188 44.0718C42.7314 43.2572 42.409 42.4119 42.0662 41.5768C41.0962 39.2138 40.1328 36.8483 39.1615 34.4859C38.8675 33.7719 38.7609 33.7466 38.2132 34.2943C36.5689 35.9379 34.9331 37.59 33.2937 39.2391C33.1479 39.3855 33.0069 39.5373 32.8533 39.6753C32.3514 40.1278 31.7959 40.2856 31.1428 40.0097C30.5017 39.7392 30.2914 39.2288 30.2902 38.5848C30.2866 35.9241 30.28 33.2634 30.28 30.6027C30.28 28.2777 30.2872 25.9526 30.2896 23.6281C30.2914 22.3243 30.283 22.3177 29.0093 22.3177C23.1704 22.3177 17.3321 22.3171 11.4932 22.3171C8.77712 22.3171 6.24056 21.679 4.1577 19.8793C1.6826 17.7398 0.179947 15.0581 0.0184748 11.7027C-0.109859 9.03843 0.632429 6.65792 2.20919 4.53409C4.3276 1.68061 7.19975 0.142414 10.7316 0.0544481C14.8112 -0.0467731 18.895 0.0249252 22.9764 0.0243227C28.7376 0.0231177 34.4987 0.0152851 40.2599 0.0267328C46.012 0.0375779 50.6682 4.00749 51.4201 9.71926C52.1413 15.196 48.8715 20.036 44.0268 21.7116C43.7472 21.8086 43.4725 21.9182 42.9314 22.1207H42.932ZM25.8853 2.92238C21.0544 2.92238 16.2235 2.93383 11.3926 2.91575C9.80379 2.90973 8.32343 3.26942 6.95996 4.07136C3.51603 6.09639 2.15316 10.0687 3.30093 13.641C4.47401 17.2922 7.5462 19.4082 11.4101 19.4202C17.3779 19.4389 23.3457 19.4154 29.313 19.4377C30.0565 19.4407 30.3167 19.1913 30.3029 18.4496C30.2667 16.5643 30.2746 14.6779 30.2981 12.7926C30.3125 11.6304 31.397 10.9954 32.4231 11.5376C32.7123 11.6907 32.9641 11.9317 33.1991 12.166C35.3416 14.2977 37.4986 16.4161 39.6008 18.5876C40.2177 19.2244 40.7895 19.4275 41.6987 19.2985C46.3922 18.6333 49.7265 13.4506 48.2907 8.936C47.0839 5.14081 44.1153 2.93684 40.1454 2.926C35.3923 2.91274 30.6385 2.92298 25.8847 2.92238H25.8853ZM45.8524 29.6442C41.6493 25.4405 37.4016 21.1916 33.2823 17.0716V34.8956C33.3449 34.9378 33.4076 34.9806 33.4703 35.0227C34.9422 33.5111 36.4262 32.0108 37.8788 30.481C38.453 29.8767 39.0935 29.6122 39.9364 29.6303C41.9722 29.6737 44.0099 29.6442 45.8518 29.6442H45.8524Z" fill="#DB422D"/>
<path id="Vector_2" d="M34.8151 4.64554C34.6795 5.12273 34.5886 5.44447 34.4964 5.76681C34.0915 7.18029 33.6878 8.59497 33.2805 10.0079C33.1528 10.4513 32.9799 10.8899 32.3942 10.7194C31.8562 10.5622 31.9056 10.1139 32.0231 9.69696C32.493 8.03344 32.9485 6.36449 33.4793 4.72025C33.5661 4.45214 33.9812 4.21776 34.2909 4.12919C34.4162 4.09365 34.6651 4.4907 34.8145 4.64614L34.8151 4.64554Z" fill="#DB422D"/>
<path id="Vector_3" d="M28.8882 4.42793C29.0027 4.5629 29.2575 4.75329 29.3642 5.00634C30.0504 6.64154 30.6975 8.29302 31.3741 9.93244C31.5561 10.3735 31.482 10.7627 31.0325 10.8458C30.7831 10.8922 30.3095 10.6603 30.2101 10.4343C29.4877 8.78707 28.8219 7.11511 28.1676 5.43894C27.9483 4.8768 28.2363 4.41106 28.8888 4.42793H28.8882Z" fill="#DB422D"/>
<path id="Vector_4" d="M24.3031 7.96899C24.5911 8.09974 24.808 8.17806 25.0056 8.29134C26.4359 9.10954 27.8627 9.93377 29.29 10.7574C29.6895 10.9876 30.0823 11.2521 29.7672 11.7823C29.4575 12.3028 29.037 12.1064 28.6327 11.8726C27.162 11.0219 25.6762 10.1953 24.229 9.30535C23.991 9.15895 23.8524 8.75165 23.8048 8.44377C23.7849 8.31604 24.1235 8.13227 24.3031 7.9696V7.96899Z" fill="#DB422D"/>
</g>
</g>
</svg>
