<svg width="49" height="45" viewBox="0 0 49 45" fill="none" xmlns="http://www.w3.org/2000/svg">
<g id="XNQmb7">
<g id="NN13uD">
<g id="Group">
<path id="Vector" d="M39.982 45.0002H0.211079C-0.762449 39.1366 1.63046 31.4387 7.4938 26.6646C14.3674 21.0685 23.0366 20.8955 29.6846 24.6474C37.2724 28.9289 40.9088 37.2093 39.9812 45.0002H39.982ZM37.5998 42.4072C37.1493 35.5056 34.2754 30.0599 28.1237 26.7628C21.9675 23.4635 15.7952 23.9379 10.1024 27.9497C5.15061 31.4387 2.84259 36.41 2.55504 42.4072H37.5998Z" fill="white"/>
<path id="Vector_2" d="M19.629 7.89456e-06C25.0136 0.00680753 29.4484 4.40693 29.43 9.72349C29.4109 15.0446 24.9532 19.4122 19.5678 19.3865C14.2138 19.3608 9.80802 14.9887 9.8042 9.69931C9.80114 4.37973 14.2436 -0.00679174 19.629 7.89456e-06ZM19.6488 2.58689C15.6278 2.58085 12.4296 5.71246 12.4227 9.66154C12.4158 13.6318 15.588 16.7936 19.5846 16.7996C23.6026 16.8064 26.8046 13.6718 26.8107 9.725C26.8176 5.75552 23.6447 2.59294 19.6488 2.58689Z" fill="white"/>
<path id="Vector_3" d="M48.9479 17.3605C49.1457 18.7914 48.5905 19.5069 47.2823 19.5069C45.7918 19.5069 44.3005 19.5333 42.8108 19.494C42.2043 19.4782 42.0545 19.6943 42.0636 20.2579C42.0942 22.0243 42.0743 23.7914 42.0743 25.5586C42.0743 25.8238 42.0743 26.0882 42.0743 26.4047H39.8015C39.8015 25.0078 39.8015 23.6403 39.8015 22.2728C39.8015 21.5853 39.7694 20.8963 39.8114 20.2118C39.8451 19.6671 39.6654 19.4857 39.1017 19.4948C37.2885 19.5258 35.4745 19.5061 33.6605 19.5061C33.3936 19.5061 33.1267 19.5061 32.814 19.5061V17.3673H39.8007C39.8007 16.3647 39.8007 15.4634 39.8007 14.5628C39.8007 13.36 39.8137 12.1572 39.7946 10.9552C39.7877 10.5495 39.9216 10.3659 40.3445 10.378C40.8851 10.3939 41.4266 10.3818 42.0743 10.3818C42.0743 10.7429 42.0743 11.0293 42.0743 11.3156C42.0743 13.0827 42.095 14.8499 42.0629 16.6163C42.0529 17.1882 42.2219 17.3831 42.8169 17.3718C44.5804 17.3371 46.3447 17.3597 48.109 17.3597C48.3774 17.3597 48.6451 17.3597 48.9479 17.3597V17.3605Z" fill="white"/>
</g>
</g>
</g>
</svg>
