<svg xmlns="http://www.w3.org/2000/svg" xmlns:xlink="http://www.w3.org/1999/xlink" width="149" height="149" viewBox="0 0 149 149">
  <defs>
    <filter id="Rectangle_2602" x="0" y="0" width="149" height="149" filterUnits="userSpaceOnUse">
      <feOffset dy="3" input="SourceAlpha"/>
      <feGaussianBlur stdDeviation="3" result="blur"/>
      <feFlood flood-opacity="0.161"/>
      <feComposite operator="in" in2="blur"/>
      <feComposite in="SourceGraphic"/>
    </filter>
  </defs>
  <g id="Group_5527" data-name="Group 5527" transform="translate(32 -14549)">
    <g transform="matrix(1, 0, 0, 1, -32, 14549)" filter="url(#Rectangle_2602)">
      <rect id="Rectangle_2602-2" data-name="Rectangle 2602" width="131" height="131" transform="translate(9 6)" fill="#fff"/>
    </g>
    <g id="step_2" data-name="step 2" transform="translate(-569 12973)">
      <text id="_" data-name="+" transform="translate(633 1655)" fill="#db422d" font-size="36" font-family="SamaTamil-Book, Sama Tamil"><tspan x="-10.368" y="0">+</tspan></text>
      <g id="Ellipse_148" data-name="Ellipse 148" transform="translate(598 1625)" fill="none" stroke="#db422d" stroke-width="3">
        <circle cx="11" cy="11" r="11" stroke="none"/>
        <circle cx="11" cy="11" r="9.5" fill="none"/>
      </g>
      <g id="Subtraction_15" data-name="Subtraction 15" transform="translate(587 1650)" fill="none">
        <path d="M44.863,26H.137A24.716,24.716,0,0,1,0,23.4a24.058,24.058,0,0,1,1.768-9.107A23.393,23.393,0,0,1,6.59,6.853a22.372,22.372,0,0,1,7.152-5.014,21.765,21.765,0,0,1,17.516,0A22.37,22.37,0,0,1,38.41,6.853a23.393,23.393,0,0,1,4.822,7.438A24.058,24.058,0,0,1,45,23.4a24.759,24.759,0,0,1-.137,2.6Z" stroke="none"/>
        <path d="M 41.99625778198242 22.9990234375 C 41.94857406616211 20.37116241455078 41.4299430847168 17.82376289367676 40.45284652709961 15.42123317718506 C 39.46316909790039 12.98784351348877 38.04827880859375 10.80457305908203 36.24698638916016 8.931563377380371 C 34.45451736450195 7.066853523254395 32.36981964111328 5.60455322265625 30.04931831359863 4.584633350372314 C 27.65906715393066 3.532493352890015 25.11903762817383 2.9990234375 22.49975776672363 2.9990234375 C 19.88054847717285 2.9990234375 17.34055709838867 3.532493352890015 14.94891834259033 4.585243225097656 C 12.62983798980713 5.60464334487915 10.54514789581299 7.066953659057617 8.752287864685059 8.932063102722168 C 6.951478004455566 10.80457305908203 5.536587715148926 12.98784351348877 4.546917915344238 15.42120361328125 C 3.569812774658203 17.82376098632812 3.05118203163147 20.37116241455078 3.003496885299683 22.9990234375 L 41.99625778198242 22.9990234375 M 44.862548828125 25.9990234375 L 0.1373279243707657 25.9990234375 C 0.04577792808413506 25.13672256469727 -0.0001220703125 24.26269340515137 -0.0001220703125 23.39843368530273 C -0.0001220703125 20.240234375 0.5947279334068298 17.17578315734863 1.767947912216187 14.29101371765137 C 2.901487827301025 11.50390338897705 4.523808002471924 9.000973701477051 6.589967727661133 6.852543354034424 C 8.6561279296875 4.703123569488525 11.0623779296875 3.016603469848633 13.74169826507568 1.838863492012024 C 16.51488876342773 0.6181634664535522 19.4615478515625 -0.0009765625 22.49975776672363 -0.0009765625 C 25.53808784484863 -0.0009765625 28.48473739624023 0.6181634664535522 31.25793838500977 1.838863492012024 C 33.93749618530273 3.016603469848633 36.3436279296875 4.703123569488525 38.40978622436523 6.852543354034424 C 40.47594833374023 9.000973701477051 42.0982666015625 11.50390338897705 43.23180770874023 14.29101371765137 C 44.405029296875 17.17578315734863 44.9998779296875 20.240234375 44.9998779296875 23.39843368530273 C 44.9998779296875 24.2646541595459 44.95373916625977 25.13867378234863 44.86266708374023 25.99804306030273 L 44.862548828125 25.9990234375 Z" stroke="none" fill="#db422d"/>
      </g>
    </g>
  </g>
</svg>
