<svg width="49" height="45" viewBox="0 0 49 45" fill="none" xmlns="http://www.w3.org/2000/svg">
<path d="M39.982 44.9999H0.211079C-0.762449 39.1364 1.63046 31.4384 7.4938 26.6643C14.3674 21.0682 23.0366 20.8952 29.6846 24.6471C37.2724 28.9286 40.9088 37.2091 39.9812 44.9999H39.982ZM37.5998 42.407C37.1493 35.5054 34.2754 30.0596 28.1237 26.7625C21.9675 23.4632 15.7952 23.9377 10.1024 27.9495C5.15061 31.4384 2.84259 36.4097 2.55504 42.407H37.5998Z" fill="#DB422D"/>
<path d="M19.629 7.89456e-06C25.0136 0.00680753 29.4484 4.40693 29.43 9.72349C29.4109 15.0446 24.9532 19.4122 19.5678 19.3865C14.2138 19.3608 9.80802 14.9887 9.8042 9.69931C9.80114 4.37973 14.2436 -0.00679174 19.629 7.89456e-06ZM19.6488 2.58689C15.6278 2.58085 12.4296 5.71246 12.4227 9.66154C12.4158 13.6318 15.588 16.7936 19.5846 16.7996C23.6026 16.8064 26.8046 13.6718 26.8107 9.725C26.8176 5.75552 23.6447 2.59294 19.6488 2.58689Z" fill="#DB422D"/>
<path d="M48.9479 17.3602C49.1457 18.7912 48.5905 19.5066 47.2823 19.5066C45.7918 19.5066 44.3005 19.5331 42.8108 19.4938C42.2043 19.4779 42.0545 19.694 42.0636 20.2576C42.0942 22.024 42.0743 23.7912 42.0743 25.5583C42.0743 25.8235 42.0743 26.0879 42.0743 26.4045H39.8015C39.8015 25.0076 39.8015 23.6401 39.8015 22.2726C39.8015 21.5851 39.7694 20.896 39.8114 20.2115C39.8451 19.6668 39.6654 19.4855 39.1017 19.4946C37.2885 19.5255 35.4745 19.5059 33.6605 19.5059C33.3936 19.5059 33.1267 19.5059 32.814 19.5059V17.367H39.8007C39.8007 16.3645 39.8007 15.4631 39.8007 14.5626C39.8007 13.3598 39.8137 12.157 39.7946 10.955C39.7877 10.5493 39.9216 10.3657 40.3445 10.3778C40.8851 10.3936 41.4266 10.3815 42.0743 10.3815C42.0743 10.7427 42.0743 11.029 42.0743 11.3154C42.0743 13.0825 42.095 14.8497 42.0629 16.616C42.0529 17.188 42.2219 17.3829 42.8169 17.3716C44.5804 17.3368 46.3447 17.3595 48.109 17.3595C48.3774 17.3595 48.6451 17.3595 48.9479 17.3595V17.3602Z" fill="#DB422D"/>
</svg>
