<svg width="46" height="45" viewBox="0 0 46 45" fill="none" xmlns="http://www.w3.org/2000/svg">
<g id="_9Kt1FJ">
<g id="Group">
<path id="Vector" d="M45.0881 22.4801C45.0881 28.7459 45.0792 35.0117 45.0945 41.2775C45.0977 42.5742 44.6695 43.6171 43.6362 44.4289C43.0356 44.9004 42.3631 44.9672 41.6524 44.9672C34.5715 44.9659 27.49 44.9672 20.4092 44.9665C19.7366 44.9665 19.0628 44.9837 18.391 44.9557C17.8132 44.9322 17.2635 44.7349 16.8684 44.3176C16.402 43.8251 15.942 43.8162 15.356 44.0631C12.9198 45.0868 10.4264 45.3101 7.86734 44.5415C3.85895 43.3377 1.35402 40.6706 0.353831 36.6488C-0.581461 32.8886 0.440997 29.5934 3.06363 26.7888C5.64173 24.0319 8.8828 23.103 12.5546 23.5045C13.1858 23.5738 13.7998 23.8334 14.4125 24.0332C15.4998 24.3876 15.524 24.3787 15.5259 23.2003C15.5285 20.8965 15.5266 18.5919 15.5266 16.2881C15.5266 12.3261 15.5234 8.36418 15.531 4.40223C15.5323 3.92695 15.5717 3.44849 15.6347 2.97703C15.8829 1.10326 17.1484 0.00636253 19.0756 0.00509002C26.6063 0 34.137 0.00445377 41.6676 0C42.1817 0 42.6672 0.0763504 43.1425 0.283769C44.5225 0.8863 45.0939 1.96666 45.0907 3.4294C45.0824 7.47534 45.0881 11.5219 45.0888 15.5678C45.0888 17.8717 45.0888 20.1762 45.0888 22.4801H45.0881ZM43.6763 22.5666C43.6763 16.6654 43.6808 10.7641 43.6693 4.86225C43.668 4.21899 43.5917 3.57447 43.5166 2.9344C43.432 2.21289 42.9764 1.78914 42.3096 1.57091C41.8471 1.41948 41.3673 1.43475 40.8895 1.43475C33.864 1.43475 26.8379 1.43475 19.8124 1.43539C17.5778 1.43539 17.0497 1.97048 17.0485 4.23617C17.0459 10.5593 17.0956 16.8823 17.0084 23.2041C16.9874 24.7254 17.3214 25.8611 18.5971 26.7245C18.9999 26.9975 19.262 27.4772 19.589 27.8622C19.7131 28.0085 19.8054 28.2585 20.023 28.2121C20.3194 28.1491 20.2183 27.8532 20.2374 27.6458C20.3716 26.2054 20.8806 25.7116 22.3211 25.6779C23.0515 25.6607 23.7832 25.6575 24.5124 25.6913C25.3414 25.7294 25.8682 26.1627 26.0432 26.9956C26.2423 27.943 26.2398 28.898 26.0966 29.8447C25.9185 31.0256 25.3853 31.499 24.184 31.5804C23.5682 31.6218 22.9478 31.583 22.33 31.6033C21.9597 31.6154 21.3973 31.5174 21.5391 32.1403C21.6613 32.678 21.3056 33.5757 22.3726 33.591C23.0471 33.6005 23.7228 33.577 24.3953 33.6107C25.3331 33.6578 25.8784 34.1649 26.0508 35.0964C26.2315 36.073 26.2347 37.0516 26.0553 38.0288C25.8943 38.9062 25.3484 39.4833 24.4812 39.5081C23.3671 39.5406 22.2327 39.7117 21.1421 39.2918C20.7445 39.1385 20.4454 39.2422 20.2189 39.6239C19.5998 40.6699 18.8605 41.6224 17.9322 42.4139C17.4239 42.8472 17.6656 43.138 18.104 43.3689C18.543 43.6005 19.0361 43.5432 19.5114 43.5432C26.7055 43.5458 33.9003 43.5452 41.0944 43.5432C41.375 43.5432 41.6581 43.5471 41.9361 43.514C42.867 43.4033 43.3855 42.8784 43.5325 41.9469C43.6381 41.2788 43.6795 40.6095 43.6788 39.9331C43.6725 34.1445 43.675 28.3552 43.675 22.5666H43.6763ZM10.5218 43.5299C15.7791 43.5127 20.0624 40.0025 20.1744 34.2775C20.2685 29.4738 16.6782 24.9615 10.8495 24.8788C5.9764 24.8094 1.99664 28.4914 1.58371 33.3619C1.10588 38.9953 5.39741 43.3861 10.5218 43.5299ZM24.6313 28.6168C24.6313 27.5975 24.1482 27.0874 23.1819 27.0866C21.6645 27.0853 21.6575 27.0917 21.6575 28.5633C21.6575 29.5639 22.1521 30.0644 23.1412 30.0649C24.1304 30.0653 24.6271 29.5824 24.6313 28.6161V28.6168ZM23.0636 37.9977C23.3308 37.9977 23.5281 37.9818 23.7221 38.0002C24.4233 38.0683 24.6536 37.7425 24.6396 37.063C24.5951 34.8762 24.8629 35.1746 22.6933 35.1511C22.526 35.1492 22.3574 35.1574 22.19 35.1733C22.0157 35.1892 21.8318 35.2516 21.7822 35.4234C21.5703 36.1627 21.5232 36.9447 21.7777 37.649C21.996 38.2528 22.6679 37.9035 23.0623 37.9977H23.0636Z" fill="white"/>
<path id="Vector_2" d="M30.4327 13.3894C27.8775 13.3894 25.3223 13.3945 22.7665 13.3875C21.0142 13.383 20.2342 12.6062 20.2297 10.8775C20.2259 9.44526 20.2164 8.01305 20.2336 6.58148C20.2501 5.2269 20.9258 4.47867 22.2575 4.38768C24.7484 4.21717 27.2374 4.23434 29.736 4.34887C32.4821 4.47485 35.2383 4.39277 37.9901 4.3775C39.624 4.36859 40.3697 5.06847 40.3767 6.70364C40.3824 8.10785 40.3811 9.51143 40.3767 10.9156C40.3716 12.6373 39.631 13.3868 37.929 13.3888C35.4298 13.3919 32.9306 13.3894 30.4314 13.3888L30.4327 13.3894ZM30.357 11.8592C32.8574 11.8592 35.3579 11.8414 37.8584 11.8694C38.6569 11.8783 38.9769 11.5665 38.9585 10.775C38.9286 9.48343 38.9279 8.18993 38.9591 6.89834C38.9782 6.09984 38.6442 5.80334 37.8533 5.80653C32.853 5.82498 27.852 5.81225 22.8517 5.81925C21.9012 5.82052 21.6778 6.05021 21.6632 7.03258C21.6454 8.2122 21.6467 9.39245 21.6619 10.5721C21.6766 11.6709 21.8624 11.8541 22.9402 11.8567C25.4127 11.863 27.8851 11.8586 30.357 11.8579V11.8592Z" fill="white"/>
<path id="Vector_3" d="M40.3766 32.6352C40.3766 34.3194 40.388 36.0036 40.3734 37.6877C40.3632 38.9068 39.7728 39.5029 38.5683 39.5271C37.7826 39.543 36.9955 39.5538 36.211 39.5188C35.1962 39.473 34.572 38.8718 34.565 37.8633C34.5428 34.355 34.5421 30.8461 34.565 27.3372C34.5714 26.3261 35.1911 25.7204 36.2015 25.6708C37.0133 25.6307 37.8297 25.6358 38.6428 25.6625C39.746 25.6988 40.3568 26.3115 40.3702 27.4148C40.3912 29.1549 40.3759 30.8951 40.3766 32.6359V32.6352ZM35.9794 32.5767C35.9794 33.7569 35.9692 34.9372 35.982 36.1168C36.0042 38.1923 35.6798 37.9963 37.8729 37.9988C38.8756 38.0001 38.9482 37.9161 38.9501 36.8676C38.9545 34.2545 38.959 31.6414 38.9495 29.0289C38.9418 26.9535 39.232 27.0871 36.9128 27.0737C36.2282 27.0699 35.9578 27.3352 35.9712 28.0256C36.0011 29.5424 35.9807 31.0599 35.9794 32.5767Z" fill="white"/>
<path id="Vector_4" d="M33.2647 36.5908C33.2647 39.2669 33.0001 39.5315 30.3291 39.5315C27.667 39.5315 27.3501 39.2096 27.3508 36.5043C27.3508 36.167 27.3406 35.8292 27.3603 35.4932C27.4316 34.2704 28.0576 33.6437 29.2767 33.6048C29.9499 33.5832 30.6249 33.6049 31.2987 33.6195C32.6826 33.65 33.2329 34.2004 33.2635 35.5791C33.2711 35.9157 33.2647 36.2529 33.2654 36.5901L33.2647 36.5908ZM30.3208 35.1465C29.3613 35.1465 28.881 35.5866 28.8797 36.4667C28.8784 37.4902 29.3471 38.0022 30.2858 38.0026C31.2521 38.0026 31.7352 37.5303 31.7352 36.5857C31.7352 35.6267 31.2635 35.1471 30.3202 35.1471L30.3208 35.1465Z" fill="white"/>
<path id="Vector_5" d="M33.2647 28.6236C33.2647 31.2481 32.93 31.584 30.3157 31.5834C30.0351 31.5834 29.7545 31.5898 29.4739 31.5777C27.9583 31.5121 27.366 30.9001 27.3533 29.368C27.3475 28.6675 27.3227 27.9612 27.3946 27.2664C27.5034 26.216 28.0582 25.7222 29.1144 25.6796C29.8709 25.6491 30.6293 25.6561 31.3865 25.6745C32.7022 25.7057 33.2431 26.2732 33.2634 27.6138C33.2685 27.9504 33.2641 28.287 33.2647 28.6236ZM30.3481 30.0539C31.2724 30.053 31.7347 29.5915 31.7351 28.6694C31.7356 27.6878 31.2431 27.1973 30.2578 27.1977C29.3386 27.1981 28.8792 27.6902 28.8796 28.6738C28.8801 29.5943 29.3698 30.0541 30.3487 30.0532L30.3481 30.0539Z" fill="white"/>
<path id="Vector_6" d="M30.2527 23.5384C27.5696 23.5384 27.3501 23.3157 27.3501 20.5977C27.3501 18.0247 27.6644 17.7123 30.2508 17.7129C33.063 17.7129 33.2806 17.9286 33.2806 20.7122C33.2806 23.303 33.028 23.5384 30.252 23.5384H30.2527ZM28.8803 20.5181C28.8803 20.7822 28.9 20.98 28.8771 21.1728C28.788 21.9204 29.1342 22.1304 29.8493 22.1259C31.7199 22.1132 32.192 21.5158 31.7091 19.6535C31.6652 19.4855 31.6168 19.2902 31.4482 19.2526C30.7076 19.0872 29.9225 19.0051 29.2194 19.2374C28.6143 19.4371 28.9859 20.1256 28.8816 20.5188L28.8803 20.5181Z" fill="white"/>
<path id="Vector_7" d="M23.175 23.5374C20.4461 23.5374 20.2285 23.3173 20.2285 20.5553C20.2285 17.9868 20.5027 17.7125 23.0662 17.7125C23.4308 17.7125 23.7947 17.7093 24.1593 17.7138C25.4929 17.7303 26.0642 18.2413 26.1393 19.5647C26.1819 20.3186 26.187 21.0809 26.1253 21.8323C26.0261 23.0284 25.4598 23.5171 24.2674 23.5362C23.9029 23.5419 23.5389 23.5368 23.1744 23.5374H23.175ZM23.1966 19.139C22.1706 19.1382 21.6571 19.6113 21.6563 20.5585C21.655 21.5926 22.1243 22.1101 23.0643 22.1109C24.1073 22.1118 24.6293 21.6531 24.6301 20.7347C24.6314 19.6722 24.1536 19.1405 23.1966 19.1396V19.139Z" fill="white"/>
<path id="Vector_8" d="M40.3787 20.694C40.3787 23.3924 40.233 23.5381 37.5295 23.5381C34.6689 23.5381 34.5538 23.4223 34.5525 20.5541C34.5519 17.9588 34.7962 17.7126 37.3705 17.7119C40.2011 17.7119 40.378 17.8869 40.378 20.6934L40.3787 20.694ZM37.4595 22.111C38.4534 22.111 38.9509 21.6541 38.9522 20.7405C38.9535 19.6737 38.4752 19.1399 37.5174 19.139C36.4935 19.1382 35.9811 19.6099 35.9802 20.5541C35.9794 21.5916 36.4725 22.1105 37.4595 22.111Z" fill="white"/>
<path id="Vector_9" d="M3.31122 34.1979C3.34303 33.2664 3.45756 32.3534 3.82277 31.483C4.05118 30.9396 4.21343 30.2022 4.99666 30.5152C5.71562 30.8028 5.38922 31.4327 5.18499 31.9672C4.16507 34.6382 5.12454 37.7023 7.46214 39.2733C9.51723 40.6539 12.2302 40.6304 14.2789 39.2141C16.3932 37.7526 17.3381 35.2967 16.754 32.7841C16.196 30.3829 14.2592 28.6408 11.7976 28.2133C10.2012 27.9359 8.80208 28.3596 7.46723 29.1664C7.29925 29.2682 7.13574 29.3783 6.97413 29.4902C6.52303 29.8014 6.09928 29.746 5.80342 29.3032C5.51456 28.8718 5.82569 28.5887 6.14955 28.3195C8.71683 26.1874 12.6501 26.0475 15.304 28.1038C17.828 30.0597 18.9573 32.6658 18.2294 35.8267C17.4939 39.0219 15.4325 41.0242 12.1812 41.6541C7.60529 42.5404 3.21197 38.8234 3.31122 34.1972V34.1979Z" fill="white"/>
<path id="Vector_10" d="M11.2033 30.748C11.5456 30.748 11.8803 30.8059 12.2073 30.9211C12.5343 31.0362 12.8156 31.2182 13.0529 31.4676L12.3804 32.1217C12.2372 31.941 12.0641 31.7997 11.8618 31.6967C11.6595 31.5942 11.44 31.5395 11.2033 31.5331V33.7371L11.1848 33.7467C11.4527 33.8211 11.7091 33.9038 11.9553 33.9942C12.2009 34.0845 12.4179 34.1997 12.6043 34.3397C12.7914 34.4796 12.9403 34.6559 13.0529 34.8671C13.1649 35.079 13.2209 35.3437 13.2209 35.6612C13.2209 35.9475 13.1661 36.2058 13.0573 36.4361C12.9485 36.6664 12.8022 36.8643 12.6183 37.0291C12.4344 37.1939 12.22 37.323 11.9738 37.4166C11.7276 37.5101 11.4712 37.5661 11.2033 37.5845V38.2571H10.6987V37.5845C10.2877 37.5845 9.90661 37.5177 9.55476 37.3835C9.20292 37.2499 8.89942 37.0176 8.64429 36.6874L9.36325 36.0429C9.50641 36.2796 9.69919 36.4616 9.94224 36.5894C10.1853 36.7173 10.4372 36.7873 10.6987 36.7994V34.5019C10.4436 34.4396 10.2025 34.3607 9.97469 34.2639C9.74755 34.1672 9.54522 34.0444 9.36771 33.8949C9.19019 33.7454 9.05022 33.5647 8.94714 33.3535C8.84471 33.1416 8.79317 32.8865 8.79317 32.5874C8.79317 32.3196 8.84598 32.0784 8.95223 31.8634C9.05785 31.6483 9.19846 31.4619 9.3728 31.3028C9.54713 31.1438 9.74946 31.0165 9.97978 30.9198C10.2101 30.8231 10.45 30.7658 10.6987 30.7467V30.0742H11.2033V30.7467V30.748ZM10.6987 31.5325C10.3997 31.5821 10.1573 31.696 9.97024 31.8735C9.78318 32.0511 9.69029 32.289 9.69029 32.5881C9.69029 32.7376 9.71828 32.8667 9.77427 32.9755C9.83026 33.0843 9.9047 33.1798 9.99823 33.2606C10.0918 33.3414 10.1993 33.4101 10.3202 33.4661C10.4411 33.5221 10.5677 33.5685 10.6987 33.6061V31.5325ZM11.2033 36.8C11.3585 36.7816 11.5036 36.7441 11.6379 36.6881C11.7715 36.6321 11.8898 36.5576 11.9929 36.4641C12.096 36.3706 12.1768 36.2605 12.2359 36.1326C12.2951 36.0054 12.3244 35.8603 12.3244 35.6981C12.3244 35.5358 12.2919 35.3977 12.2264 35.2826C12.1609 35.1674 12.0769 35.0694 11.9744 34.9886C11.8714 34.9078 11.7517 34.8391 11.615 34.7831C11.4782 34.7271 11.3407 34.6775 11.2039 34.6336V36.8007L11.2033 36.8Z" fill="white"/>
</g>
</g>
</svg>
