<svg xmlns="http://www.w3.org/2000/svg" xmlns:xlink="http://www.w3.org/1999/xlink" width="149" height="149" viewBox="0 0 149 149">
  <defs>
    <filter id="Rectangle_795" x="0" y="0" width="149" height="149" filterUnits="userSpaceOnUse">
      <feOffset dy="3" input="SourceAlpha"/>
      <feGaussianBlur stdDeviation="3" result="blur"/>
      <feFlood flood-opacity="0.161"/>
      <feComposite operator="in" in2="blur"/>
      <feComposite in="SourceGraphic"/>
    </filter>
  </defs>
  <g id="Group_1340" data-name="Group 1340" transform="translate(-1384 -1278)">
    <g transform="matrix(1, 0, 0, 1, 1384, 1278)" filter="url(#Rectangle_795)">
      <rect id="Rectangle_795-2" data-name="Rectangle 795" width="131" height="131" transform="translate(9 6)" fill="#fff"/>
    </g>
    <g id="certified" transform="translate(1418 1293.877)">
      <g id="Group_1339" data-name="Group 1339" transform="translate(0 17.123)">
        <path id="Path_1084" data-name="Path 1084" d="M176.932,116.7a18.4,18.4,0,0,0-14.778,7.491,1.564,1.564,0,0,0,1.263,2.488h0l27-.035a1.564,1.564,0,0,0,1.259-2.491,18.4,18.4,0,0,0-14.75-7.454Zm-11.758,7.582a15.92,15.92,0,0,1,23.488-.03Z" transform="translate(-135.945 -100.765)" fill="#db422d"/>
        <path id="Path_1085" data-name="Path 1085" d="M162.021,333.8a1.554,1.554,0,0,0,.133,1.63,18.322,18.322,0,0,0,29.528.038,1.564,1.564,0,0,0-1.258-2.491l-27.005-.035h0A1.558,1.558,0,0,0,162.021,333.8Zm26.641,1.57a15.921,15.921,0,0,1-23.488-.03Z" transform="translate(-135.945 -282.395)" fill="#db422d"/>
        <path id="Path_1086" data-name="Path 1086" d="M79.2,45.4h-4.96a2.3,2.3,0,0,1,.181-.549A9.254,9.254,0,0,0,66.8,31.641a2.287,2.287,0,0,1-2.108-2.108A9.254,9.254,0,0,0,51.48,21.907a2.287,2.287,0,0,1-2.88-.772,9.254,9.254,0,0,0-15.253,0,2.287,2.287,0,0,1-2.88.772,9.254,9.254,0,0,0-13.209,7.626,2.287,2.287,0,0,1-2.108,2.108A9.254,9.254,0,0,0,7.524,44.85,2.315,2.315,0,0,1,7.7,45.4H2.745A2.748,2.748,0,0,0,0,48.144V62.568a2.748,2.748,0,0,0,2.745,2.745H7.7a2.31,2.31,0,0,1-.18.549,9.254,9.254,0,0,0,7.626,13.209,2.287,2.287,0,0,1,2.108,2.108,9.254,9.254,0,0,0,13.209,7.626,2.287,2.287,0,0,1,2.88.772,9.254,9.254,0,0,0,15.253,0,2.288,2.288,0,0,1,2.88-.772,9.254,9.254,0,0,0,13.209-7.626A2.287,2.287,0,0,1,66.8,79.071a9.254,9.254,0,0,0,7.626-13.209,2.308,2.308,0,0,1-.18-.549H79.2a2.748,2.748,0,0,0,2.745-2.745V48.144A2.748,2.748,0,0,0,79.2,45.4ZM9.937,37.437a6.863,6.863,0,0,1,5.4-3.409,4.672,4.672,0,0,0,4.306-4.306,6.859,6.859,0,0,1,9.792-5.654,4.671,4.671,0,0,0,5.882-1.576,6.859,6.859,0,0,1,11.307,0,4.672,4.672,0,0,0,5.882,1.576A6.859,6.859,0,0,1,62.3,29.723a4.672,4.672,0,0,0,4.306,4.306,6.859,6.859,0,0,1,5.654,9.792,4.709,4.709,0,0,0-.436,1.578h-5.2a27.551,27.551,0,0,0-7.315-10.566,1.2,1.2,0,1,0-1.6,1.785A25.146,25.146,0,0,1,64.036,45.4H17.906a25.134,25.134,0,0,1,35.51-11.878,1.2,1.2,0,1,0,1.188-2.08A27.531,27.531,0,0,0,15.316,45.4H10.124a4.715,4.715,0,0,0-.437-1.578,6.863,6.863,0,0,1,.25-6.384ZM72.01,73.275a6.864,6.864,0,0,1-5.4,3.409A4.672,4.672,0,0,0,62.3,80.99a6.859,6.859,0,0,1-9.792,5.654,4.672,4.672,0,0,0-5.882,1.576,6.859,6.859,0,0,1-11.307,0,4.673,4.673,0,0,0-5.882-1.576,6.859,6.859,0,0,1-9.792-5.654,4.672,4.672,0,0,0-4.306-4.306,6.859,6.859,0,0,1-5.654-9.792,4.715,4.715,0,0,0,.437-1.578h5.193a27.521,27.521,0,0,0,51.314,0h5.192a4.714,4.714,0,0,0,.438,1.578A6.863,6.863,0,0,1,72.01,73.275Zm7.542-10.707a.35.35,0,0,1-.35.35H27.947a1.2,1.2,0,1,0,0,2.4H64.04a25.123,25.123,0,0,1-46.135,0h4.424a1.2,1.2,0,1,0,0-2.4H2.745a.35.35,0,0,1-.35-.35V48.144a.35.35,0,0,1,.35-.35H79.2a.35.35,0,0,1,.35.35Z" transform="translate(0 -17.123)" fill="#db422d"/>
        <path id="Path_1087" data-name="Path 1087" d="M274.042,218.953a1.2,1.2,0,0,0-1.2,1.2v9.464a1.2,1.2,0,0,0,2.4,0v-9.464A1.2,1.2,0,0,0,274.042,218.953Z" transform="translate(-229.174 -186.649)" fill="#db422d"/>
        <path id="Path_1088" data-name="Path 1088" d="M351.7,218.953a1.2,1.2,0,0,0-1.2,1.2v9.464a1.2,1.2,0,1,0,2.4,0v-9.464A1.2,1.2,0,0,0,351.7,218.953Z" transform="translate(-294.403 -186.649)" fill="#db422d"/>
        <path id="Path_1089" data-name="Path 1089" d="M306.1,221.782a1.2,1.2,0,1,0,0-2.4h-3.808a1.2,1.2,0,0,0-1.2,1.2v9.395a1.2,1.2,0,1,0,2.4,0V226.39H305.8a1.2,1.2,0,1,0,0-2.4h-2.307v-2.213h2.61Z" transform="translate(-252.904 -187.014)" fill="#db422d"/>
        <path id="Path_1090" data-name="Path 1090" d="M112.491,221.888a1.2,1.2,0,0,0,0-2.4H108.54a1.2,1.2,0,0,0-1.2,1.2v9.378a1.2,1.2,0,0,0,1.2,1.2h3.951a1.2,1.2,0,1,0,0-2.4h-2.754v-2.294H112.2a1.2,1.2,0,0,0,0-2.4h-2.462v-2.294Z" transform="translate(-90.162 -187.103)" fill="#db422d"/>
        <path id="Path_1091" data-name="Path 1091" d="M381.269,221.888a1.2,1.2,0,1,0,0-2.4h-3.951a1.2,1.2,0,0,0-1.2,1.2v9.378a1.2,1.2,0,0,0,1.2,1.2h3.951a1.2,1.2,0,1,0,0-2.4h-2.754v-2.294h2.462a1.2,1.2,0,0,0,0-2.4h-2.462v-2.294Z" transform="translate(-315.921 -187.103)" fill="#db422d"/>
        <path id="Path_1092" data-name="Path 1092" d="M430.224,220.7h-2.6a1.2,1.2,0,0,0-1.2,1.2v.007h0s.008,9.182.023,9.257a1.2,1.2,0,0,0,1.194,1.115h0c.079,0,1.933-.008,2.675-.02,2.787-.049,4.809-2.475,4.809-5.769C435.13,223.029,433.158,220.7,430.224,220.7Zm.055,9.164c-.333.006-.912.011-1.444.014,0-1.083-.008-2.621-.008-3.4,0-.65,0-2.257,0-3.384h1.4c2.33,0,2.511,2.6,2.511,3.394C432.735,228.793,431.5,229.844,430.279,229.866Z" transform="translate(-358.174 -188.118)" fill="#db422d"/>
        <path id="Path_1093" data-name="Path 1093" d="M40.867,227.36a1.2,1.2,0,0,0-1.687.148,2.589,2.589,0,0,1-.263.271,2.618,2.618,0,0,1-1.8.636,3.534,3.534,0,1,1,1.975-6.466,1.2,1.2,0,1,0,1.341-1.985,5.93,5.93,0,1,0-3.316,10.846,4.924,4.924,0,0,0,3.9-1.764,1.2,1.2,0,0,0-.148-1.687Z" transform="translate(-26.195 -186.649)" fill="#db422d"/>
        <path id="Path_1094" data-name="Path 1094" d="M220.582,218.953h-5.226a1.2,1.2,0,1,0,0,2.4h1.4v8.266a1.2,1.2,0,1,0,2.4,0v-8.266h1.426a1.2,1.2,0,0,0,0-2.4Z" transform="translate(-179.881 -186.649)" fill="#db422d"/>
        <path id="Path_1095" data-name="Path 1095" d="M167.505,222.609a3.733,3.733,0,0,0-3.8-3.657h-2.518a1.2,1.2,0,0,0-1.2,1.2v9.464a1.2,1.2,0,0,0,2.4,0v-2.64l3.02,3.432a1.2,1.2,0,1,0,1.8-1.582l-2.39-2.715A3.683,3.683,0,0,0,167.505,222.609Zm-3.8,1.262c-.306,0-.822,0-1.307,0,0-.472-.006-2.033-.007-2.528h1.314a1.269,1.269,0,1,1,0,2.524Z" transform="translate(-134.386 -186.649)" fill="#db422d"/>
      </g>
    </g>
  </g>
</svg>
