<svg xmlns="http://www.w3.org/2000/svg" xmlns:xlink="http://www.w3.org/1999/xlink" width="149" height="149" viewBox="0 0 149 149">
  <defs>
    <filter id="Rectangle_2602" x="0" y="0" width="149" height="149" filterUnits="userSpaceOnUse">
      <feOffset dy="3" input="SourceAlpha"/>
      <feGaussianBlur stdDeviation="3" result="blur"/>
      <feFlood flood-opacity="0.161"/>
      <feComposite operator="in" in2="blur"/>
      <feComposite in="SourceGraphic"/>
    </filter>
    <clipPath id="clip-path">
      <rect id="Rectangle_2642" data-name="Rectangle 2642" width="60.013" height="52.415" fill="#db422d"/>
    </clipPath>
  </defs>
  <g id="Group_5528" data-name="Group 5528" transform="translate(-262 -14549)">
    <g transform="matrix(1, 0, 0, 1, 262, 14549)" filter="url(#Rectangle_2602)">
      <rect id="Rectangle_2602-2" data-name="Rectangle 2602" width="131" height="131" transform="translate(9 6)" fill="#fff"/>
    </g>
    <g id="Group_5525" data-name="Group 5525" transform="translate(306.741 14594.027)">
      <g id="Group_5525-2" data-name="Group 5525" clip-path="url(#clip-path)">
        <path id="Path_9502" data-name="Path 9502" d="M60.013,9.636a.914.914,0,0,0-.879-.961c-1.107-.016-2.214-.021-3.321,0a.845.845,0,0,0-.858.919c-.007.511,0,1.022,0,1.533,0,.372-.01.383-.379.383-1.677,0-3.355-.019-5.032.009-.613.01-1.225.068-1.836.128a12.654,12.654,0,0,0-4.243,1.17h0a14.79,14.79,0,0,0-4.6,3.244,14.575,14.575,0,0,0-3.153,4.992,13.448,13.448,0,0,0-.912,4.225c-.047,1.205-.038,2.412-.054,3.619,0,.308-.024.329-.328.33-.52,0-1.04,0-1.56,0a.885.885,0,0,0-.962.952q-.011,1.571,0,3.142a.9.9,0,0,0,.964.955c.545,0,1.09,0,1.635,0,.167,0,.242.062.2.224a5.055,5.055,0,0,1-.238.814,3.152,3.152,0,0,1-2.6,2,23.66,23.66,0,0,1-2.938.048,2.827,2.827,0,0,1-1.024-.218,3.345,3.345,0,0,1-2.189-3.244c-.031-1.952,0-3.9-.012-5.857,0-.248.1-.317.331-.312.528.012,1.057.007,1.585,0a.861.861,0,0,0,.942-.914q.023-1.609,0-3.218a.881.881,0,0,0-.95-.917c-.528,0-1.057-.013-1.585,0-.257.008-.327-.08-.325-.332.011-1.5,0-3,.006-4.5a15.308,15.308,0,0,0-.361-3.463,14.413,14.413,0,0,0-1.114-3.187,14.828,14.828,0,0,0-5.955-6.385,14.125,14.125,0,0,0-5.031-1.784,18.91,18.91,0,0,0-2.53-.18C8.942,2.837,7.172,2.856,5.4,2.855c-.322,0-.342-.023-.343-.342,0-.528,0-1.056,0-1.584a.863.863,0,0,0-.91-.922C3.073,0,2,0,.926,0A.916.916,0,0,0,0,.947q.014,9.4,0,18.8a.956.956,0,0,0,.944.953c1.056-.016,2.113,0,3.17-.006a.875.875,0,0,0,.943-.94c.006-.536.011-1.073,0-1.609-.006-.224.079-.29.292-.29q2.541.008,5.082,0c.2,0,.26.072.259.265q-.008,2.162,0,4.324c0,.188-.065.246-.249.244-.553-.009-1.107-.007-1.661,0a.878.878,0,0,0-.925.935q-.007,1.584,0,3.168a.871.871,0,0,0,.956.947c.5,0,1.006,0,1.51,0,.364,0,.365,0,.365.356,0,1.676,0,6.373,0,8.049,0,.079,0,.158,0,.236v0a16.55,16.55,0,0,0,.543,4.548A14.793,14.793,0,0,0,13.307,45.5a15.638,15.638,0,0,0,12.9,6.907c2.675.013,5.351.023,8.026-.006a18.269,18.269,0,0,0,2.677-.228,14.565,14.565,0,0,0,4.452-1.494,15.521,15.521,0,0,0,5.809-5.205,15.006,15.006,0,0,0,1.968-4.234A13.243,13.243,0,0,0,49.7,38.08c.043-1.163.056-2.328.065-3.492,0-.246.079-.316.317-.309.52.015,1.04.007,1.56,0a.9.9,0,0,0,.969-.973q.006-1.559,0-3.117a.883.883,0,0,0-.953-.958c-.537-.006-1.074-.01-1.61,0-.212,0-.28-.08-.278-.28q.009-1.093,0-2.187c0-.183.071-.253.254-.252q2.327.006,4.655,0c.209,0,.277.081.273.285-.01.519.019,1.04-.008,1.558a.942.942,0,0,0,1.008,1.016c1.014-.026,2.029-.006,3.044-.008a.9.9,0,0,0,1.007-1q0-4.664,0-9.327c0-3.134-.008-6.268.007-9.4M3.3,2.239V10.38q0,4.108,0,8.217c0,.344,0,.344-.344.345-.319,0-.637-.007-.956,0-.169,0-.256-.047-.236-.227a1.343,1.343,0,0,0,0-.151V2.158c0-.4,0-.4.4-.4.293,0,.587.007.88,0,.186-.006.262.072.251.253,0,.075,0,.151,0,.226M10.66,16.106c-1.744-.008-3.489,0-5.233,0-.356,0-.367-.011-.367-.368q0-5.392,0-10.784c0-.225.045-.338.3-.336,2.155.018,4.311,0,6.465.048a11.068,11.068,0,0,1,3.642.782,13.088,13.088,0,0,1,7.766,7.964,13.063,13.063,0,0,1,.712,4.362q-.011,2.3,0,4.6c0,.257-.077.325-.329.324-1.811-.01-3.623-.005-5.434-.005H12.8c-.351,0-.352,0-.352-.341,0-1.525,0-3.05,0-4.575A1.509,1.509,0,0,0,11.4,16.2a2.24,2.24,0,0,0-.741-.093m-.7,9.875c-.344,0-.345,0-.345-.345,0-.327,0-.654,0-.98,0-.148.049-.221.2-.209.058,0,.117,0,.176,0h16.4c.408,0,.408,0,.408.417,0,.276-.011.553,0,.829.011.222-.077.292-.293.291-.973-.008-1.945,0-2.918,0H9.958M29.121,50.311c0,.313-.026.335-.352.336-.8,0-1.593,0-2.39,0a14.569,14.569,0,0,1-3.922-.53,13.554,13.554,0,0,1-3.413-1.492A13.739,13.739,0,0,1,14,43.223a12.194,12.194,0,0,1-1.3-3.8c-.149-.965-.169-1.949-.252-2.924,0-.009,0-.019,0-.028,0-.049.007-.1.007-.15-.007-1.718,0-6.456,0-8.174,0-.4,0-.4.4-.4H23.567c.371,0,.372,0,.372.38,0,1.885,0,3.771,0,5.656a5.262,5.262,0,0,0,.627,2.631,5.081,5.081,0,0,0,4.221,2.719c.236.02.337.092.337.348q-.01,5.418-.005,10.835M48.012,34.63c-.021,1.164-.021,2.329-.077,3.491a11.808,11.808,0,0,1-.669,3.207,13.529,13.529,0,0,1-2.651,4.6A13.7,13.7,0,0,1,39.964,49.4a14.09,14.09,0,0,1-6.048,1.251c-.88,0-1.761,0-2.641,0-.379,0-.39-.01-.39-.4q0-3.783,0-7.565,0-1.558,0-3.117c0-.393,0-.4.382-.4a5.168,5.168,0,0,0,4.291-2.215,4.676,4.676,0,0,0,.9-2.412c.019-.245.155-.252.338-.252q2.729,0,5.458,0h5.408c.348,0,.354,0,.348.346m2.4-3.639c.084,0,.168,0,.252,0,.139,0,.192.065.19.2,0,.369-.009.738,0,1.106.005.184-.078.228-.242.226-.646,0-1.292,0-1.937,0H34.036c-.38,0-.38,0-.38-.389,0-.31,0-.62,0-.93,0-.15.058-.218.206-.214.075,0,.151,0,.226,0H50.416m4.146-6.235c-1.585,0-3.17,0-4.755,0a2.222,2.222,0,0,0-.766.1A1.513,1.513,0,0,0,48.014,26.4q0,1.244,0,2.489c0,.323-.021.343-.343.343q-5.422,0-10.844.005c-.249,0-.321-.089-.319-.322.009-.913,0-1.827.008-2.74a12.714,12.714,0,0,1,.548-3.637,13.074,13.074,0,0,1,7.32-8.192l.009,0a14.612,14.612,0,0,1,3.633-.985c.162-.018.324-.033.486-.035,2.021-.027,4.042-.033,6.062-.046.377,0,.379,0,.379.376q0,5.355,0,10.71c0,.39,0,.394-.39.394m3.686-5.7q0,4.11,0,8.22c0,.333,0,.334-.323.334s-.671,0-1.006,0c-.15,0-.219-.054-.206-.206.005-.058,0-.117,0-.176q0-8.182,0-16.364c0-.075,0-.151,0-.226,0-.144.062-.213.213-.211.377,0,.755-.007,1.132.01.065,0,.147.1.18.175a.655.655,0,0,1,.009.248q0,4.1,0,8.195" transform="translate(0 0)" fill="#db422d"/>
      </g>
    </g>
  </g>
</svg>
