<svg width="53" height="45" viewBox="0 0 53 45" fill="none" xmlns="http://www.w3.org/2000/svg">
<g id="g6ugsh">
<path id="Vector" d="M30.8127 29.4099C30.3338 29.4099 29.8645 29.4099 29.3943 29.4099C28.7481 29.4099 28.4238 29.1039 28.4349 28.441C28.4484 27.6513 28.4476 26.8609 28.4349 26.0712C28.4262 25.4805 28.6934 25.2006 29.2888 25.1657C30.8817 25.0722 30.9166 25.0618 30.8825 23.4365C30.7992 19.4793 32.0234 16.0502 34.9324 13.3037C37.4791 10.8989 40.5642 9.87057 44.0282 9.87057C45.2492 9.87057 46.471 9.85392 47.692 9.87771C48.1582 9.88722 48.3287 9.7342 48.3088 9.26165C48.2351 7.53955 48.224 7.3905 50.1919 7.42697C50.7184 7.43648 51.2464 7.41587 51.7713 7.44758C52.266 7.47771 52.5451 7.72033 52.5443 8.27295C52.534 13.6343 52.5356 18.9964 52.5388 24.3578C52.5388 24.9429 52.243 25.1649 51.6865 25.157C50.8968 25.1459 50.1063 25.1625 49.3158 25.1633C48.5832 25.1641 48.3366 24.9255 48.2985 24.1873C48.2473 23.2021 47.729 22.7094 46.7437 22.7094C45.9295 22.7094 45.1152 22.7221 44.3017 22.7055C43.8989 22.6975 43.7229 22.8561 43.7626 23.2557C43.7697 23.3271 43.7634 23.3992 43.7626 23.4714C43.7475 25.0698 43.7475 25.0801 45.338 25.1633C45.931 25.1943 46.2125 25.4654 46.2078 26.0561C46.2014 26.8458 46.1967 27.6363 46.2093 28.426C46.2197 29.0801 45.912 29.3719 45.2619 29.4155C43.7721 29.5154 43.7483 29.5296 43.7538 31.0781C43.7673 34.4161 42.9277 37.4686 40.7616 40.0708C38.23 43.113 35.0157 44.8636 31.0181 44.9627C28.2898 45.0301 25.5584 44.996 22.8294 44.9683C16.8107 44.9064 10.9816 39.7925 10.3727 33.8143C10.073 30.8751 10.2133 27.89 10.1665 24.9255C10.1483 23.7417 10.1634 23.7417 9.0153 23.7394C7.76019 23.7362 7.7261 23.7037 7.72134 22.4406C7.71897 21.7707 7.74592 21.0991 7.71659 20.4299C7.68725 19.7711 8.03373 19.5459 8.62204 19.4936C9.12471 19.4492 9.80816 19.5285 10.0706 19.2414C10.3267 18.9623 10.157 18.2868 10.1626 17.7857C10.1697 17.1396 10.1554 16.4934 10.1689 15.8472C10.1768 15.442 10.0532 15.2264 9.59647 15.2335C8.30331 15.2525 7.01014 15.2216 5.71778 15.2636C5.54493 15.2692 5.25316 15.5697 5.23492 15.7544C5.0486 17.6795 5.06128 17.6811 3.14969 17.6811C2.79052 17.6811 2.43135 17.6827 2.07219 17.6811C1.08745 17.6755 0.978827 17.5661 0.978827 16.5449C0.977241 13.1459 0.978827 9.74689 0.978827 6.34788C0.978827 4.55283 0.999442 2.757 0.966934 0.962746C0.95742 0.288019 1.20876 -0.00851227 1.88031 0.00417356C2.67001 0.019238 3.46128 0.0216166 4.25098 0.00258783C4.91857 -0.0140623 5.19528 0.29674 5.21906 0.950853C5.27139 2.40259 5.28646 2.3566 6.78101 2.4121C8.97565 2.49377 11.2171 2.39704 13.3499 2.82201C18.1816 3.78455 22.1642 8.19684 22.7699 13.0508C22.9911 14.8212 22.9277 16.6289 22.9705 18.42C22.9959 19.4936 22.9753 19.4936 24.0155 19.4967C24.2312 19.4967 24.4468 19.4967 24.6617 19.507C25.1453 19.5316 25.4315 19.798 25.4442 20.2722C25.468 21.18 25.4704 22.0902 25.4442 22.998C25.4292 23.5205 25.1001 23.7227 24.5848 23.7457C22.976 23.8178 22.9745 23.8289 22.976 25.4242C22.9776 26.5968 22.9649 27.7703 22.9959 28.9429C23.049 30.9409 24.0314 32.0089 26.0088 32.1453C26.8627 32.204 27.7348 32.1635 28.5856 32.062C29.8105 31.9162 30.6851 30.864 30.8127 29.4107V29.4099ZM21.5592 23.8147C18.2934 23.8147 15.1386 23.8083 11.9838 23.8369C11.8466 23.8385 11.5937 24.1675 11.5945 24.3427C11.6095 27.2121 11.5318 30.0894 11.7269 32.9485C12.0076 37.0603 14.2181 40.0406 17.7114 42.0918C20.1368 43.5165 22.8341 43.6846 25.5624 43.5721C25.7217 43.5657 26.0016 43.2819 26.0032 43.1257C26.0317 40.135 26.0357 37.1443 26.008 34.1536C26.0064 33.9665 25.7416 33.6946 25.5378 33.6129C25.0343 33.4099 24.4492 33.379 23.9782 33.1277C22.2347 32.1984 21.5497 30.65 21.5576 28.7328C21.5648 27.1336 21.5592 25.5344 21.5592 23.8147ZM16.5523 19.4967C17.9644 19.4967 19.3764 19.4737 20.7877 19.5078C21.3594 19.5213 21.5981 19.3849 21.5751 18.7586C21.5259 17.3964 21.5671 16.0319 21.5441 14.669C21.4601 9.7564 17.7162 5.06899 12.8869 4.22221C10.532 3.80992 8.07972 3.94392 5.6702 3.87176C5.52511 3.8678 5.23968 4.223 5.23809 4.41408C5.21034 7.3564 5.2262 10.2987 5.21034 13.241C5.20796 13.7191 5.38874 13.8571 5.84463 13.8508C7.28051 13.8309 8.71639 13.8317 10.1523 13.8508C11.0767 13.8634 11.562 14.3653 11.5715 15.2827C11.5826 16.4307 11.6032 17.5804 11.5636 18.7269C11.5429 19.3088 11.7039 19.5269 12.3176 19.5086C13.7281 19.4674 15.141 19.4959 16.5531 19.4959L16.5523 19.4967ZM48.2454 11.3437C46.555 11.3437 44.9083 11.2858 43.267 11.3556C39.4319 11.5189 36.4008 13.1982 34.2149 16.3594C32.4801 18.868 32.2153 21.7247 32.2985 24.6591C32.3104 25.0848 32.5507 25.1697 32.9083 25.1697C35.8522 25.1657 38.7961 25.1618 41.7408 25.1736C42.2181 25.1752 42.3735 24.9683 42.3584 24.5211C42.3394 23.9479 42.3497 23.373 42.3568 22.799C42.3711 21.7231 42.7509 21.3314 43.8228 21.3195C45.043 21.3061 46.2648 21.295 47.4851 21.3235C48.0987 21.3378 48.3207 21.1229 48.3144 20.4902C48.2867 17.6668 48.3033 14.8434 48.3001 12.0208C48.3001 11.8131 48.2676 11.6046 48.2462 11.3461L48.2454 11.3437ZM37.3507 29.4511C35.8902 29.4511 34.4298 29.4646 32.9693 29.4432C32.5118 29.4361 32.3192 29.5558 32.2129 30.049C31.742 32.2301 30.2712 33.4773 28.0551 33.6169C27.6206 33.6438 27.4756 33.7897 27.4771 34.2163C27.489 37.1602 27.4914 40.1041 27.4771 43.0472C27.4748 43.507 27.665 43.6117 28.0797 43.6006C29.0129 43.5752 29.9493 43.6283 30.8801 43.576C34.8325 43.3564 37.9659 41.6311 40.2637 38.4026C42.0793 35.8519 42.3933 32.9334 42.3497 29.9237C42.3433 29.4726 42.0777 29.4464 41.732 29.448C40.2716 29.4567 38.8111 29.4511 37.3507 29.4511ZM49.786 23.6545C50.9768 23.8971 51.1489 23.8242 51.1497 23.0718C51.1536 18.554 51.1473 14.0363 51.1576 9.51854C51.1584 9.08722 51.0664 8.88584 50.5717 8.85333C49.8946 8.80814 49.7241 9.06027 49.7273 9.70328C49.7503 14.1013 49.7384 18.4993 49.7416 22.8973C49.7416 23.155 49.7717 23.4127 49.7868 23.6545H49.786ZM37.3261 27.9725C39.5762 27.9725 41.8264 27.9621 44.0765 27.9804C44.5697 27.9843 44.8163 27.886 44.8155 27.3152C44.8147 26.7459 44.6276 26.5778 44.0631 26.5802C39.5628 26.6 35.0625 26.5968 30.563 26.5826C30.0595 26.581 29.8335 26.6959 29.8272 27.2557C29.8208 27.8321 30.0199 27.9899 30.5764 27.9836C32.8266 27.9574 35.0767 27.9725 37.3269 27.9725H37.3261ZM3.76495 8.87553C3.76495 6.62935 3.75227 4.38316 3.77447 2.13698C3.77922 1.60417 3.65871 1.379 3.06327 1.37821C2.46069 1.37741 2.36 1.60972 2.36158 2.14094C2.37902 6.60952 2.37902 11.0773 2.36158 15.5459C2.3592 16.0771 2.46386 16.3078 3.06406 16.3063C3.66347 16.3055 3.77922 16.0708 3.77447 15.5419C3.75385 13.3195 3.76574 11.0979 3.76495 8.87553ZM16.5538 22.332C18.8016 22.332 21.0502 22.3146 23.298 22.3439C23.8641 22.351 24.044 22.1845 24.0409 21.6153C24.0385 21.0753 23.8633 20.9247 23.336 20.9271C18.8159 20.9445 14.2958 20.9469 9.77565 20.9255C9.19607 20.9231 9.12551 21.1641 9.1152 21.6533C9.10331 22.1893 9.27298 22.3503 9.80975 22.3431C12.0575 22.3162 14.3061 22.332 16.5538 22.332Z" fill="#DB422D"/>
</g>
</svg>
