<svg xmlns="http://www.w3.org/2000/svg" width="33.563" height="33.563" viewBox="0 0 33.563 33.563">
  <path id="Subscriptions_Cancelled" data-name="Subscriptions Cancelled" d="M20.156,3.375A16.781,16.781,0,1,0,36.938,20.156,16.779,16.779,0,0,0,20.156,3.375Zm4.252,22.856L20.156,21.98,15.9,26.231a1.289,1.289,0,1,1-1.823-1.823l4.252-4.252L14.081,15.9A1.289,1.289,0,1,1,15.9,14.081l4.252,4.252,4.252-4.252A1.289,1.289,0,0,1,26.231,15.9L21.98,20.156l4.252,4.252a1.3,1.3,0,0,1,0,1.823A1.281,1.281,0,0,1,24.408,26.231Z" transform="translate(-3.375 -3.375)" fill="#fff"/>
</svg>
