<svg xmlns="http://www.w3.org/2000/svg" width="42.003" height="323.849" viewBox="0 0 42.003 323.849">
  <path id="Subtraction_16" data-name="Subtraction 16" d="M-12313-4039.074v-323.849a246.906,246.906,0,0,1,17.532,34.139,294.879,294.879,0,0,1,13.22,38.952,334.444,334.444,0,0,1,8.345,42.887A362.2,362.2,0,0,1-12271-4201a362.207,362.207,0,0,1-2.906,45.947,334.475,334.475,0,0,1-8.345,42.888,294.993,294.993,0,0,1-13.22,38.951,246.841,246.841,0,0,1-17.53,34.137Z" transform="translate(12313.001 4362.924)" fill="#f8d9d5"/>
</svg>
