<svg xmlns="http://www.w3.org/2000/svg" xmlns:xlink="http://www.w3.org/1999/xlink" width="40" height="40" viewBox="0 0 40 40">
  <defs>
    <clipPath id="clip-path">
      <rect id="Rectangle_2112" data-name="Rectangle 2112" width="40" height="40" transform="translate(562 198)" fill="#db422d" stroke="#707070" stroke-width="1"/>
    </clipPath>
  </defs>
  <g id="Mask_Group_85" data-name="Mask Group 85" transform="translate(-562 -198)" clip-path="url(#clip-path)">
    <g id="souvenir" transform="translate(562 198)">
      <g id="Group_4611" data-name="Group 4611">
        <g id="Group_4610" data-name="Group 4610">
          <path id="Path_1458" data-name="Path 1458" d="M21.637,38.828H6.133a.465.465,0,0,1-.464-.505L7.408,17.971a.586.586,0,0,0-1.168-.1L4.5,38.223A1.637,1.637,0,0,0,6.133,40h15.5a.586.586,0,0,0,0-1.172Z" fill="#db422d"/>
          <path id="Path_1459" data-name="Path 1459" d="M35.5,38.223,33.138,10.6a1.628,1.628,0,0,0-1.631-1.5H26.238V6.238a6.238,6.238,0,1,0-12.476,0V9.1H8.493a1.628,1.628,0,0,0-1.631,1.5l-.387,4.534a.586.586,0,0,0,1.168.1L8.03,10.7a.463.463,0,0,1,.464-.426h5.269v1.3a1.954,1.954,0,1,0,1.172,0v-1.3H25.066v1.3a1.954,1.954,0,1,0,1.172,0v-1.3h5.269a.463.463,0,0,1,.464.426l2.361,27.622a.465.465,0,0,1-.464.505H24.376a.586.586,0,0,0,0,1.172h9.492A1.637,1.637,0,0,0,35.5,38.223ZM15.13,13.437a.782.782,0,1,1-.782-.782A.783.783,0,0,1,15.13,13.437Zm-.2-4.334V6.238a5.066,5.066,0,1,1,10.132,0V9.1Zm11.5,4.334a.782.782,0,1,1-.782-.782A.783.783,0,0,1,26.434,13.437Z" fill="#db422d"/>
          <path id="Path_1460" data-name="Path 1460" d="M24.395,22.045a1.268,1.268,0,0,0-.7-2.163l-1.715-.249a.1.1,0,0,1-.072-.053l-.767-1.554a1.268,1.268,0,0,0-2.275,0L18.1,19.58a.1.1,0,0,1-.072.053l-1.715.249a1.268,1.268,0,0,0-.7,2.163l1.241,1.21a.1.1,0,0,1,.028.085l-.293,1.708a1.268,1.268,0,0,0,1.84,1.337l1.534-.807a.1.1,0,0,1,.089,0l1.534.807a1.268,1.268,0,0,0,1.84-1.337l-.293-1.708a.1.1,0,0,1,.028-.085Zm-2.059.371a1.268,1.268,0,0,0-.365,1.123l.293,1.708a.1.1,0,0,1-.139.1l-1.534-.806a1.268,1.268,0,0,0-1.18,0l-1.534.807a.1.1,0,0,1-.14-.1l.293-1.708a1.268,1.268,0,0,0-.365-1.123l-1.241-1.21a.1.1,0,0,1,.053-.164l1.715-.249a1.268,1.268,0,0,0,.955-.694l.767-1.554a.1.1,0,0,1,.173,0l.767,1.554a1.268,1.268,0,0,0,.955.694l1.715.249a.1.1,0,0,1,.053.164Z" fill="#db422d"/>
          <path id="Path_1461" data-name="Path 1461" d="M14.5,28.34a.583.583,0,0,0,.247.789c.063.034,1.533.873,1.714,3.63a.586.586,0,0,0,.584.548h.039a.586.586,0,0,0,.546-.623c-.227-3.454-2.251-4.545-2.337-4.59A.589.589,0,0,0,14.5,28.34Z" fill="#db422d"/>
          <path id="Path_1462" data-name="Path 1462" d="M25.248,29.129a.586.586,0,0,0-.546-1.037c-.086.045-2.11,1.136-2.337,4.59a.586.586,0,0,0,.546.623h.039a.586.586,0,0,0,.584-.548c.18-2.747,1.64-3.589,1.713-3.629Z" fill="#db422d"/>
          <path id="Path_1463" data-name="Path 1463" d="M19.414,28.116v4.6a.586.586,0,0,0,1.172,0v-4.6a.586.586,0,1,0-1.172,0Z" fill="#db422d"/>
        </g>
      </g>
    </g>
  </g>
</svg>
