<svg xmlns="http://www.w3.org/2000/svg" width="119" height="119" viewBox="0 0 119 119">
  <g id="Group_4205" data-name="Group 4205" transform="translate(-617 -595)">
    <rect id="Rectangle_878" data-name="Rectangle 878" width="119" height="119" rx="10" transform="translate(617 595)" fill="#38ada2" opacity="0.1"/>
    <path id="Path_1124" data-name="Path 1124" d="M373.041-750.707H306.5c-.287-.032-.576-.048-.86-.1a7.354,7.354,0,0,1-5.854-4.548,6.994,6.994,0,0,1-.581-2.824q.021-16.242.007-32.486a7.63,7.63,0,0,1,.159-1.643,7.254,7.254,0,0,1,3.857-5.116,11,11,0,0,1,2.218-.773,2.333,2.333,0,0,1,.62-.086q33.4,0,66.8,0a6.923,6.923,0,0,1,1.312.108,7.477,7.477,0,0,1,6.112,7.353v32.606a7.121,7.121,0,0,1-.677,3.125,7.318,7.318,0,0,1-5.59,4.259C373.694-750.775,373.366-750.747,373.041-750.707Zm-24.308-4.4h22.391c.607,0,1.215.01,1.821-.024a2.906,2.906,0,0,0,2.6-1.663,3.862,3.862,0,0,0,.368-1.765q0-9.122,0-18.243c0-.079,0-.158,0-.237-.009-.317-.012-.32-.326-.32q-21.638,0-43.276,0c-.314,0-.314,0-.314.317q0,3,0,6c0,.283,0,.284-.278.284q-3.378,0-6.757,0c-.424,0-.387-.049-.387.378q0,7.437,0,14.875c0,.426-.056.4.389.4Zm.117-38.795H324.874c-.295,0-.3,0-.3.288v5.427c0,.284,0,.284.283.284h6.855c.273,0,.273,0,.273.271q0,2.763,0,5.525c0,.3,0,.3.306.3h43.294c.3,0,.32-.015.32-.286,0-2.892,0-5.784-.011-8.676a3,3,0,0,0-1.008-2.345,3.264,3.264,0,0,0-2.244-.79Zm-45.26,26.266q0,3.634,0,7.269c0,.824-.024,1.653.047,2.473a2.854,2.854,0,0,0,1.959,2.569,3.767,3.767,0,0,0,1.359.217q5.935,0,11.869,0c.33,0,.659-.011.989-.021s.32-.012.32-.333v-15.013c0-.312,0-.312-.317-.312h-6.875c-.3,0-.3,0-.3-.3v-5.982c0-.269,0-.269-.274-.269h-8.5c-.283,0-.283,0-.283.278Zm9.578-26.266v.005h-6.519a3.068,3.068,0,0,0-2.907,2.137,5.3,5.3,0,0,0-.141,1.609c-.01,2.68-.008,5.362-.008,8.042,0,.276.031.3.308.306h8.5c.271,0,.272,0,.272-.275q0-2.763,0-5.527c0-.306,0-.307.3-.307q3.439,0,6.876,0c.274,0,.275,0,.275-.274q0-2.645,0-5.289c0-.4.1-.426-.436-.426Zm5.42,18.746c.429,0,.858,0,1.287,0,.162,0,.237-.036.234-.221-.011-.594-.008-1.189,0-1.783,0-.14-.035-.205-.187-.2q-1.327,0-2.655,0c-.144,0-.2.055-.194.2,0,.6.005,1.2,0,1.8,0,.159.062.207.211.205C317.714-775.161,318.15-775.158,318.587-775.158Zm7.517-.018c.442,0,.883-.005,1.325,0,.152,0,.209-.043.206-.2q-.011-.889,0-1.78c0-.152-.045-.212-.2-.211q-1.327.007-2.651,0c-.14,0-.2.043-.2.194.007.6.008,1.2,0,1.8,0,.165.064.2.211.2C325.233-775.18,325.668-775.176,326.1-775.176Zm-7.526-6.63c.441,0,.883,0,1.325,0,.155,0,.206-.052.2-.207-.009-.441-.008-.883,0-1.324,0-.15-.041-.214-.2-.213q-1.325.007-2.651,0c-.144,0-.2.054-.193.2.008.448.009.9,0,1.344,0,.163.061.2.21.2C317.708-781.809,318.142-781.8,318.578-781.806Zm7.509.008c.449,0,.9,0,1.345,0,.144,0,.2-.044.2-.192q-.01-.673,0-1.345c0-.147-.052-.193-.2-.192q-1.335.007-2.67,0c-.152,0-.211.043-.207.2.01.441.009.883,0,1.324,0,.158.052.206.207.2C325.2-781.8,325.646-781.8,326.087-781.8Z" transform="translate(336.801 1429.283)" fill="#38ada2"/>
  </g>
</svg>
