<svg xmlns="http://www.w3.org/2000/svg" width="86.568" height="86.556" viewBox="0 0 86.568 86.556">
  <g id="Group_5658" data-name="Group 5658" transform="translate(-865.499 -207.364)">
    <path id="Union_4" data-name="Union 4" d="M-21934.209,8164.381a43.2,43.2,0,0,1-15.873-14.539,43.558,43.558,0,0,1,3.412-51.713,42.661,42.661,0,0,1,6.955-6.5,42.961,42.961,0,0,1,8.057-4.74,44.29,44.29,0,0,1,8.813-2.9,44.157,44.157,0,0,1,9.232-.981,43.383,43.383,0,0,1,8.861.915,42.921,42.921,0,0,1,8.631,2.789,4.505,4.505,0,0,1,2.283,5.941,4.5,4.5,0,0,1-4.111,2.673,4.449,4.449,0,0,1-1.83-.391,33.84,33.84,0,0,0-13.855-2.932,35.094,35.094,0,0,0-14.309,3.076,34.573,34.573,0,0,0-6.381,3.758,33.571,33.571,0,0,0-5.506,5.148,34.5,34.5,0,0,0-2.7,40.966,34.2,34.2,0,0,0,12.566,11.513,34.848,34.848,0,0,0,16.346,4.106,33.861,33.861,0,0,0,9.6-1.389,34.521,34.521,0,0,0,24.586-32.886v-3.565a4.507,4.507,0,0,1,4.5-4.5,4.512,4.512,0,0,1,4.5,4.5v3.571a43.571,43.571,0,0,1-31.035,41.511,42.763,42.763,0,0,1-12.131,1.753A43.861,43.861,0,0,1-21934.209,8164.381Z" transform="translate(22822.5 -7875.637)" fill="#38ada2"/>
    <path id="Union_5" data-name="Union 5" d="M-21940.867,8130.852a4.478,4.478,0,0,1-3.168-1.317l-11.648-11.644a4.488,4.488,0,0,1-1.318-3.185,4.466,4.466,0,0,1,1.318-3.18,4.486,4.486,0,0,1,3.184-1.317,4.467,4.467,0,0,1,3.18,1.317l8.465,8.458,35.631-35.664a4.451,4.451,0,0,1,3.18-1.323,4.471,4.471,0,0,1,3.18,1.317,4.453,4.453,0,0,1,1.322,3.179,4.484,4.484,0,0,1-1.316,3.185l-38.811,38.849a4.422,4.422,0,0,1-3.137,1.322Z" transform="translate(22849.609 -7867.896)" fill="#db422d"/>
  </g>
</svg>
