<svg xmlns="http://www.w3.org/2000/svg" xmlns:xlink="http://www.w3.org/1999/xlink" width="40" height="40" viewBox="0 0 40 40">
  <defs>
    <clipPath id="clip-path">
      <rect id="Rectangle_2113" data-name="Rectangle 2113" width="40" height="40" transform="translate(308 293)" fill="#db422d" stroke="#707070" stroke-width="1"/>
    </clipPath>
  </defs>
  <g id="Mask_Group_86" data-name="Mask Group 86" transform="translate(-308 -293)" clip-path="url(#clip-path)">
    <g id="Outline" transform="translate(306.667 290.257)">
      <g id="Group_4612" data-name="Group 4612">
        <path id="Path_1464" data-name="Path 1464" d="M40.667,10.667a.667.667,0,0,0-.667.667v24H36.38a56.71,56.71,0,0,0-12.742,1.451,1.328,1.328,0,0,1-1.405-.555A15.155,15.155,0,0,1,30.141,34H38a.667.667,0,0,0,.667-.667V28.667a.667.667,0,1,0-1.333,0v4H30.141A16.485,16.485,0,0,0,22,34.808V16.667a.667.667,0,1,0-1.333,0V34.807a16.483,16.483,0,0,0-8.141-2.141H5.333v-24H15.6a5.07,5.07,0,0,1,5.067,5.07.667.667,0,1,0,1.333,0,5.07,5.07,0,0,1,5.067-5.07H37.333V26a.667.667,0,1,0,1.333,0V8A.667.667,0,0,0,38,7.333H27.067a6.409,6.409,0,0,0-5.733,3.555A6.409,6.409,0,0,0,15.6,7.333H4.667A.667.667,0,0,0,4,8V33.333A.667.667,0,0,0,4.667,34h7.859a15.152,15.152,0,0,1,7.906,2.228,1.333,1.333,0,0,1-1.4.558A56.713,56.713,0,0,0,6.287,35.333H2.667v-24a.667.667,0,1,0-1.333,0V36A.667.667,0,0,0,2,36.667H6.287a55.393,55.393,0,0,1,12.438,1.416,2.653,2.653,0,0,0,2.608-.843,2.652,2.652,0,0,0,2.6.845A55.43,55.43,0,0,1,36.38,36.667h4.287A.667.667,0,0,0,41.333,36V11.333A.667.667,0,0,0,40.667,10.667Z" fill="#db422d"/>
        <path id="Path_1465" data-name="Path 1465" d="M19.149,13.075A6.386,6.386,0,0,0,15.6,12H8a.667.667,0,0,0,0,1.333h7.6a5.051,5.051,0,0,1,2.812.851.667.667,0,0,0,.74-1.109Z" fill="#db422d"/>
        <path id="Path_1466" data-name="Path 1466" d="M34.667,12h-7.6a6.387,6.387,0,0,0-3.552,1.075.667.667,0,1,0,.74,1.109,5.054,5.054,0,0,1,2.812-.851h7.6a.667.667,0,1,0,0-1.333Z" fill="#db422d"/>
        <path id="Path_1467" data-name="Path 1467" d="M19.149,16.409A6.386,6.386,0,0,0,15.6,15.333H8a.667.667,0,0,0,0,1.333h7.6a5.051,5.051,0,0,1,2.812.851.667.667,0,1,0,.74-1.109Z" fill="#db422d"/>
        <path id="Path_1468" data-name="Path 1468" d="M34.667,15.333h-7.6a6.387,6.387,0,0,0-3.552,1.075.667.667,0,1,0,.74,1.109,5.054,5.054,0,0,1,2.812-.851h7.6a.667.667,0,1,0,0-1.333Z" fill="#db422d"/>
        <path id="Path_1469" data-name="Path 1469" d="M19.149,19.742A6.386,6.386,0,0,0,15.6,18.667H8A.667.667,0,1,0,8,20h7.6a5.051,5.051,0,0,1,2.812.851.667.667,0,1,0,.74-1.109Z" fill="#db422d"/>
        <path id="Path_1470" data-name="Path 1470" d="M34.667,18.667h-7.6a6.387,6.387,0,0,0-3.552,1.075.667.667,0,1,0,.74,1.109A5.054,5.054,0,0,1,27.067,20h7.6a.667.667,0,1,0,0-1.333Z" fill="#db422d"/>
        <path id="Path_1471" data-name="Path 1471" d="M19.149,23.075A6.386,6.386,0,0,0,15.6,22H8a.667.667,0,0,0,0,1.333h7.6a5.051,5.051,0,0,1,2.812.851.667.667,0,0,0,.74-1.109Z" fill="#db422d"/>
        <path id="Path_1472" data-name="Path 1472" d="M34.667,22h-7.6a6.387,6.387,0,0,0-3.552,1.075.667.667,0,1,0,.74,1.109,5.054,5.054,0,0,1,2.812-.851h7.6a.667.667,0,1,0,0-1.333Z" fill="#db422d"/>
        <path id="Path_1473" data-name="Path 1473" d="M19.149,26.409A6.386,6.386,0,0,0,15.6,25.333H8a.667.667,0,0,0,0,1.333h7.6a5.051,5.051,0,0,1,2.812.851.667.667,0,1,0,.74-1.109Z" fill="#db422d"/>
        <path id="Path_1474" data-name="Path 1474" d="M34.667,25.333h-7.6a6.387,6.387,0,0,0-3.552,1.075.667.667,0,1,0,.74,1.109,5.054,5.054,0,0,1,2.812-.851h7.6a.667.667,0,1,0,0-1.333Z" fill="#db422d"/>
        <path id="Path_1475" data-name="Path 1475" d="M15.6,28.667H8A.667.667,0,1,0,8,30h7.6a5.051,5.051,0,0,1,2.812.851.667.667,0,1,0,.74-1.109A6.386,6.386,0,0,0,15.6,28.667Z" fill="#db422d"/>
        <path id="Path_1476" data-name="Path 1476" d="M34.667,28.667h-7.6a6.387,6.387,0,0,0-3.552,1.075.667.667,0,0,0,.74,1.109A5.054,5.054,0,0,1,27.067,30h7.6a.667.667,0,1,0,0-1.333Z" fill="#db422d"/>
      </g>
    </g>
  </g>
</svg>
