<svg xmlns="http://www.w3.org/2000/svg" xmlns:xlink="http://www.w3.org/1999/xlink" width="21" height="21" viewBox="0 0 21 21">
  <defs>
    <clipPath id="clip-path">
      <rect id="Rectangle_647" data-name="Rectangle 647" width="21" height="21" transform="translate(31 14)" fill="#717171" stroke="#707070" stroke-width="1"/>
    </clipPath>
    <clipPath id="clip-path-2">
      <rect id="Rectangle_730" data-name="Rectangle 730" width="21" height="21" transform="translate(60.529 207.529)" fill="#717171" stroke="#707070" stroke-width="1.235"/>
    </clipPath>
  </defs>
  <g id="Users" transform="translate(-31 -14)" clip-path="url(#clip-path)">
    <g id="Mask_Group_116" data-name="Mask Group 116" transform="translate(-29.529 -193.529)" clip-path="url(#clip-path-2)">
      <g id="group" transform="translate(60.529 207.529)">
        <g id="Group_1330" data-name="Group 1330">
          <g id="Group_1329" data-name="Group 1329">
            <path id="Path_1039" data-name="Path 1039" d="M17.924,10.994H15.869a3.069,3.069,0,0,0-.808.109A3.078,3.078,0,0,0,12.317,9.42H8.683a3.078,3.078,0,0,0-2.742,1.686,3.069,3.069,0,0,0-.809-.112H3.076A3.08,3.08,0,0,0,0,14.075v3.286a1.853,1.853,0,0,0,1.846,1.846H19.154A1.853,1.853,0,0,0,21,17.361V14.075A3.08,3.08,0,0,0,17.924,10.994ZM5.607,12.5v5.48H1.846a.618.618,0,0,1-.618-.618V14.072a1.853,1.853,0,0,1,1.848-1.843H5.131a1.839,1.839,0,0,1,.483.064C5.609,12.36,5.607,12.428,5.607,12.5Zm8.556,5.48H6.837V12.5a1.853,1.853,0,0,1,1.846-1.846h3.634A1.853,1.853,0,0,1,14.163,12.5Zm5.607-.618a.618.618,0,0,1-.618.618H15.393V12.5a1.874,1.874,0,0,0-.007-.2,1.842,1.842,0,0,1,.483-.064h2.056a1.853,1.853,0,0,1,1.841,1.847Z" fill="#717171"/>
          </g>
        </g>
        <g id="Group_1332" data-name="Group 1332">
          <g id="Group_1331" data-name="Group 1331">
            <path id="Path_1040" data-name="Path 1040" d="M4.1,5.188A2.734,2.734,0,1,0,6.837,7.922,2.734,2.734,0,0,0,4.1,5.188Zm0,4.237a1.5,1.5,0,1,1,1.5-1.5A1.5,1.5,0,0,1,4.1,9.425Z" fill="#717171"/>
          </g>
        </g>
        <g id="Group_1334" data-name="Group 1334">
          <g id="Group_1333" data-name="Group 1333">
            <path id="Path_1041" data-name="Path 1041" d="M10.5,1.794a3.652,3.652,0,1,0,3.652,3.652A3.652,3.652,0,0,0,10.5,1.794Zm0,6.074a2.421,2.421,0,1,1,2.421-2.421A2.421,2.421,0,0,1,10.5,7.868Z" fill="#717171"/>
          </g>
        </g>
        <g id="Group_1336" data-name="Group 1336">
          <g id="Group_1335" data-name="Group 1335">
            <path id="Path_1042" data-name="Path 1042" d="M16.9,5.188A2.734,2.734,0,1,0,19.63,7.922,2.734,2.734,0,0,0,16.9,5.188Zm0,4.237a1.5,1.5,0,1,1,1.5-1.5A1.5,1.5,0,0,1,16.9,9.425Z" fill="#717171"/>
          </g>
        </g>
      </g>
    </g>
  </g>
</svg>
