<svg xmlns="http://www.w3.org/2000/svg" width="33.961" height="33.953" viewBox="0 0 33.961 33.953">
  <g id="Users_Logged_In_Today_" data-name="Users Logged In (Today)" transform="translate(0 0)">
    <path id="Path_1587" data-name="Path 1587" d="M-1417.72-137.81c-.158.043-.317.085-.475.13a2.8,2.8,0,0,0-2.041,2.644c-.014.762,0,1.525,0,2.288q0,11.49,0,22.98a2.868,2.868,0,0,0,2.167,3.029q4.081,1.364,8.164,2.72a2.829,2.829,0,0,0,3.759-2.116,4.065,4.065,0,0,0,.051-.726c.008-.4,0-.792,0-1.232h.379c1.271,0,2.542,0,3.813,0a4.232,4.232,0,0,0,4.3-4.28c.007-.951.011-1.9-.006-2.852a1.39,1.39,0,0,0-1.227-1.35,1.4,1.4,0,0,0-1.524,1.006,2.129,2.129,0,0,0-.058.557c-.006.84,0,1.68,0,2.52a1.428,1.428,0,0,1-1.565,1.563q-1.873,0-3.746,0c-.107,0-.215-.009-.358-.016v-.446c0-6.731-.021-13.463.015-20.194a3.148,3.148,0,0,0-2.123-3.373c.1-.005.2-.015.306-.015q2.934,0,5.868,0a1.44,1.44,0,0,1,1.6,1.623c0,.4-.007.8,0,1.194a1.411,1.411,0,0,0,1.4,1.425,1.389,1.389,0,0,0,1.408-1.411,10.746,10.746,0,0,0-.126-2.406,4.08,4.08,0,0,0-3.41-3.2,1.735,1.735,0,0,1-.186-.059Z" transform="translate(1420.244 137.81)" fill="#fff"/>
    <path id="Path_1588" data-name="Path 1588" d="M-1702.512,54.975a1.6,1.6,0,0,0-1.755-1.137c-1.635.033-3.271.01-4.906.01h-.419v-.362c0-1.238-.01-2.476,0-3.713a1.436,1.436,0,0,0-.864-1.468,1.426,1.426,0,0,0-1.679.426q-2.709,2.706-5.414,5.416a1.427,1.427,0,0,0,0,2.235q2.741,2.745,5.486,5.484a1.407,1.407,0,0,0,2.407-.556,2.245,2.245,0,0,0,.054-.591c0-1.2,0-2.409,0-3.614v-.4c.147-.008.274-.02.4-.021,1.624,0,3.249-.025,4.873.009a1.649,1.649,0,0,0,1.807-1.121Z" transform="translate(1736.473 -41.111)" fill="#fff"/>
  </g>
</svg>
