<svg xmlns="http://www.w3.org/2000/svg" width="25.297" height="30.321" viewBox="0 0 25.297 30.321"><defs><style>.a{fill:#26a59a;}</style></defs><path class="a" d="M94.335,14.606a7.067,7.067,0,0,0,5.164-2.14A7.067,7.067,0,0,0,101.638,7.3,7.067,7.067,0,0,0,99.5,2.139a7.3,7.3,0,0,0-10.327,0A7.066,7.066,0,0,0,87.032,7.3a7.067,7.067,0,0,0,2.14,5.164A7.069,7.069,0,0,0,94.335,14.606ZM90.428,3.4a5.524,5.524,0,0,1,7.814,0A5.28,5.28,0,0,1,99.861,7.3a5.28,5.28,0,0,1-1.619,3.907,5.524,5.524,0,0,1-7.814,0A5.278,5.278,0,0,1,88.809,7.3,5.279,5.279,0,0,1,90.428,3.4Zm0,0" transform="translate(-81.878 0)"/><path class="a" d="M25.235,255.985a18.037,18.037,0,0,0-.246-1.916,15.1,15.1,0,0,0-.471-1.926,9.516,9.516,0,0,0-.792-1.8,6.771,6.771,0,0,0-1.194-1.556,5.265,5.265,0,0,0-1.715-1.078,5.928,5.928,0,0,0-2.19-.4,2.222,2.222,0,0,0-1.187.5c-.356.232-.772.5-1.236.8a7.085,7.085,0,0,1-1.6.7,6.213,6.213,0,0,1-3.914,0,7.063,7.063,0,0,1-1.6-.7c-.46-.294-.877-.562-1.238-.8a2.22,2.22,0,0,0-1.186-.5,5.92,5.92,0,0,0-2.19.4,5.26,5.26,0,0,0-1.716,1.078,6.774,6.774,0,0,0-1.194,1.556,9.532,9.532,0,0,0-.792,1.8,15.131,15.131,0,0,0-.471,1.926,17.914,17.914,0,0,0-.246,1.917c-.04.579-.061,1.182-.061,1.79a5.035,5.035,0,0,0,1.5,3.809,5.382,5.382,0,0,0,3.853,1.405h14.6a5.383,5.383,0,0,0,3.853-1.405,5.033,5.033,0,0,0,1.5-3.809c0-.611-.021-1.214-.061-1.791ZM22.576,260.3a3.624,3.624,0,0,1-2.628.916H5.348A3.624,3.624,0,0,1,2.72,260.3a3.288,3.288,0,0,1-.944-2.522c0-.568.019-1.129.056-1.668a16.159,16.159,0,0,1,.222-1.725,13.346,13.346,0,0,1,.414-1.7,7.76,7.76,0,0,1,.644-1.461,5.021,5.021,0,0,1,.877-1.15,3.493,3.493,0,0,1,1.141-.71,4.089,4.089,0,0,1,1.4-.27c.062.033.173.1.353.213.365.238.786.51,1.252.807a8.8,8.8,0,0,0,2.008.9,7.988,7.988,0,0,0,5.007,0,8.815,8.815,0,0,0,2.009-.9c.476-.3.886-.568,1.251-.806.18-.117.29-.18.353-.213a4.091,4.091,0,0,1,1.4.27,3.5,3.5,0,0,1,1.141.71,5.006,5.006,0,0,1,.877,1.15,7.735,7.735,0,0,1,.645,1.46,13.314,13.314,0,0,1,.415,1.7,16.3,16.3,0,0,1,.222,1.726h0c.038.536.057,1.1.057,1.667a3.287,3.287,0,0,1-.944,2.522Zm0,0" transform="translate(0 -232.67)"/></svg>