<svg xmlns="http://www.w3.org/2000/svg" xmlns:xlink="http://www.w3.org/1999/xlink" width="19" height="19" viewBox="0 0 19 19"> <defs> <clipPath id="clip-path"> <rect id="Rectangle_855" data-name="Rectangle 855" width="19" height="19" transform="translate(303 1504)" fill="#38ada2" stroke="#707070" stroke-width="1"/> </clipPath> </defs> <g id="Mask_Group_31" data-name="Mask Group 31" transform="translate(-303 -1504)" clip-path="url(#clip-path)"> <g id="user_1_" data-name="user (1)" transform="translate(304.574 1504)"> <path id="Path_1111" data-name="Path 1111" d="M7.806,9.152a4.428,4.428,0,0,0,3.236-1.341,4.428,4.428,0,0,0,1.341-3.236A4.428,4.428,0,0,0,11.042,1.34,4.429,4.429,0,0,0,7.806,0,4.428,4.428,0,0,0,4.57,1.341,4.428,4.428,0,0,0,3.23,4.576,4.428,4.428,0,0,0,4.571,7.812,4.429,4.429,0,0,0,7.806,9.152Zm0,0" fill="#38ada2"/> <path id="Path_1112" data-name="Path 1112" d="M15.813,14.61a11.3,11.3,0,0,0-.154-1.2,9.459,9.459,0,0,0-.3-1.207,5.962,5.962,0,0,0-.5-1.126,4.248,4.248,0,0,0-.748-.975,3.3,3.3,0,0,0-1.075-.675,3.715,3.715,0,0,0-1.372-.248,1.393,1.393,0,0,0-.744.315c-.223.145-.484.314-.775.5a4.44,4.44,0,0,1-1,.442,3.893,3.893,0,0,1-2.452,0,4.429,4.429,0,0,1-1-.442c-.288-.184-.549-.352-.776-.5a1.391,1.391,0,0,0-.743-.315,3.71,3.71,0,0,0-1.372.249,3.3,3.3,0,0,0-1.075.675,4.249,4.249,0,0,0-.748.975,5.974,5.974,0,0,0-.5,1.126,9.481,9.481,0,0,0-.3,1.207,11.263,11.263,0,0,0-.154,1.2C.013,14.974,0,15.351,0,15.732a3.155,3.155,0,0,0,.937,2.387A3.373,3.373,0,0,0,3.352,19H12.5a3.372,3.372,0,0,0,2.414-.881,3.154,3.154,0,0,0,.937-2.387c0-.383-.013-.76-.038-1.122Zm0,0" fill="#38ada2"/> </g> </g> </svg> 