<svg xmlns="http://www.w3.org/2000/svg" xmlns:xlink="http://www.w3.org/1999/xlink" width="21" height="21" viewBox="0 0 21 21">
  <defs>
    <clipPath id="clip-path">
      <rect id="Rectangle_631" data-name="Rectangle 631" width="21" height="21" transform="translate(31 14)" fill="#26a59a"/>
    </clipPath>
  </defs>
  <g id="View_All_Comments" data-name="View All Comments" transform="translate(-31 -14)" clip-path="url(#clip-path)">
    <g id="conversation" transform="translate(31 14)">
      <g id="Group_4346" data-name="Group 4346">
        <g id="Group_4345" data-name="Group 4345">
          <path id="Path_1120" data-name="Path 1120" d="M20.924,16.482l-1.22-3.55A8.88,8.88,0,0,0,11.879.166,8.87,8.87,0,0,0,2.866,8.919,6.463,6.463,0,0,0,.9,16.861l-.84,2.445a1.155,1.155,0,0,0,1.088,1.53,1.163,1.163,0,0,0,.378-.064l2.445-.84a6.491,6.491,0,0,0,2.763.624h.01A6.454,6.454,0,0,0,11.967,17.9a8.9,8.9,0,0,0,3.665-.9l3.55,1.22a1.382,1.382,0,0,0,.449.076,1.373,1.373,0,0,0,1.293-1.818ZM6.748,19.306H6.74a5.228,5.228,0,0,1-2.428-.6.625.625,0,0,0-.5-.039l-2.507.861.861-2.507a.625.625,0,0,0-.039-.5,5.212,5.212,0,0,1,.849-6.042A8.9,8.9,0,0,0,10.4,17.806,5.2,5.2,0,0,1,6.748,19.306Zm12.965-2.292a.113.113,0,0,1-.125.029l-3.8-1.306a.625.625,0,0,0-.5.039,7.635,7.635,0,0,1-3.546.88h-.012a7.651,7.651,0,0,1-7.62-7.5,7.62,7.62,0,0,1,7.743-7.743,7.622,7.622,0,0,1,6.616,11.177.625.625,0,0,0-.039.5l1.306,3.8A.113.113,0,0,1,19.713,17.013Z" fill="#26a59a"/>
        </g>
      </g>
      <g id="Group_4348" data-name="Group 4348">
        <g id="Group_4347" data-name="Group 4347">
          <path id="Path_1121" data-name="Path 1121" d="M15.458,5.722H8.012a.625.625,0,1,0,0,1.25h7.447a.625.625,0,1,0,0-1.25Z" fill="#26a59a"/>
        </g>
      </g>
      <g id="Group_4350" data-name="Group 4350">
        <g id="Group_4349" data-name="Group 4349">
          <path id="Path_1122" data-name="Path 1122" d="M15.458,8.293H8.012a.625.625,0,0,0,0,1.25h7.447a.625.625,0,0,0,0-1.25Z" fill="#26a59a"/>
        </g>
      </g>
      <g id="Group_4352" data-name="Group 4352">
        <g id="Group_4351" data-name="Group 4351">
          <path id="Path_1123" data-name="Path 1123" d="M12.592,10.863H8.012a.625.625,0,1,0,0,1.25h4.58a.625.625,0,0,0,0-1.25Z" fill="#26a59a"/>
        </g>
      </g>
    </g>
  </g>
</svg>
