<svg xmlns="http://www.w3.org/2000/svg" xmlns:xlink="http://www.w3.org/1999/xlink" width="64" height="62" viewBox="0 0 64 62"><defs><style>.a,.b,.d{fill:#26a59a;}.a{stroke:#707070;}.b{opacity:0.05;}.c{clip-path:url(#a);}</style><clipPath id="a"><rect class="a" width="40" height="40" transform="translate(649 196)"/></clipPath></defs><g transform="translate(-637 -185)"><path class="b" d="M4,0H64a0,0,0,0,1,0,0V62a0,0,0,0,1,0,0H4a4,4,0,0,1-4-4V4A4,4,0,0,1,4,0Z" transform="translate(637 185)"/><g class="c"><g transform="translate(649 193.084)"><path class="d" d="M24.167,36.667H15.833c-.333,0-.5-.167-.667-.5a.744.744,0,0,1,0-.833l4.167-6.667c.333-.5,1.167-.5,1.333,0l4.167,6.667a.757.757,0,0,1,0,.833c-.167.333-.333.5-.667.5ZM17.333,35h5.333L20,30.667Z"/><path class="d" d="M39.167,28.333H.833a.833.833,0,1,1,0-1.667H39.167a.833.833,0,1,1,0,1.667Z"/><path class="d" d="M6.667,16.667A3.333,3.333,0,1,1,10,13.333,3.343,3.343,0,0,1,6.667,16.667Zm0-5A1.575,1.575,0,0,0,5,13.333,1.575,1.575,0,0,0,6.667,15a1.575,1.575,0,0,0,1.667-1.667A1.575,1.575,0,0,0,6.667,11.667Z"/><path class="d" d="M12.5,25a.787.787,0,0,1-.833-.833V22.5a2.563,2.563,0,0,0-2.5-2.5h-5a2.563,2.563,0,0,0-2.5,2.5v1.667A.787.787,0,0,1,.833,25,.787.787,0,0,1,0,24.167V22.5a4.126,4.126,0,0,1,4.167-4.167h5A4.126,4.126,0,0,1,13.333,22.5v1.667A.787.787,0,0,1,12.5,25Z"/><path class="d" d="M34.167,25.833A.787.787,0,0,1,33.333,25V22.5A.833.833,0,1,1,35,22.5V25A.787.787,0,0,1,34.167,25.833Z"/><path class="d" d="M35,23.333H30.833a.833.833,0,0,1,0-1.667H35a1.667,1.667,0,0,0,0-3.333H33.333a3.333,3.333,0,0,1,0-6.667H37.5a.833.833,0,0,1,0,1.667H33.333A1.575,1.575,0,0,0,31.667,15a1.575,1.575,0,0,0,1.667,1.667H35a3.333,3.333,0,0,1,0,6.667Z"/><path class="d" d="M34.167,13.333a.787.787,0,0,1-.833-.833V10A.833.833,0,1,1,35,10v2.5A.787.787,0,0,1,34.167,13.333Z"/></g></g></g></svg>