<svg xmlns="http://www.w3.org/2000/svg" width="64" height="62" viewBox="0 0 64 62"><defs><style>.a,.b,.c{fill:#26a59a;}.a{opacity:0.05;}.c{opacity:0.6;}</style></defs><g transform="translate(-305 -185)"><path class="a" d="M4,0H64a0,0,0,0,1,0,0V62a0,0,0,0,1,0,0H4a4,4,0,0,1-4-4V4A4,4,0,0,1,4,0Z" transform="translate(305 185)"/><g transform="translate(322.638 202.637)"><path class="b" d="M14.362,28.724A14.362,14.362,0,0,1,4.206,4.206,14.362,14.362,0,0,1,24.517,24.517a14.268,14.268,0,0,1-10.155,4.206Zm0-26.928A12.567,12.567,0,1,0,26.928,14.362,12.581,12.581,0,0,0,14.362,1.8Z" transform="translate(0 0)"/><path class="c" d="M188.039,104.079a2.244,2.244,0,1,1,2.244-2.244.9.9,0,1,0,1.8,0,4.046,4.046,0,0,0-3.142-3.938v-1a.9.9,0,0,0-1.8,0v1a4.039,4.039,0,0,0,.9,7.977,2.244,2.244,0,1,1-2.244,2.244.9.9,0,1,0-1.8,0,4.045,4.045,0,0,0,3.142,3.937v1a.9.9,0,1,0,1.8,0v-1a4.039,4.039,0,0,0-.9-7.977Z" transform="translate(-173.677 -90.614)"/></g></g></svg>