<svg id="Group_5572" data-name="Group 5572" xmlns="http://www.w3.org/2000/svg" xmlns:xlink="http://www.w3.org/1999/xlink" width="49.741" height="41.123" viewBox="0 0 49.741 41.123">
  <defs>
    <clipPath id="clip-path">
      <rect id="Rectangle_2720" data-name="Rectangle 2720" width="49.741" height="8.669" fill="#fff"/>
    </clipPath>
  </defs>
  <g id="Group_5561" data-name="Group 5561" transform="translate(-532.695 -262.744)">
    <path id="Path_9947" data-name="Path 9947" d="M172.887,123.786a3.074,3.074,0,0,1,2.365.946c.1.113.266.234.218.391a6,6,0,0,1-1.174,2.449c-.119-.17.025-.3.114-.445a4.649,4.649,0,0,0,.424-.956c.1-.287.184-.473.266-.7.075-.2.108-.322-.039-.466a2.935,2.935,0,0,0-2.348-.892,1.612,1.612,0,0,1,.957,1.013l-.067.053c-.666-.423-1.066-.456-1.465-.12a7.986,7.986,0,0,1,1.653.449l-.011.339a1.353,1.353,0,0,1-.082.341,1.706,1.706,0,0,1-.783.846c-.634.272-1.187.089-1.762-.593l-.109-.253a2.457,2.457,0,0,1,.037-1.349l-.685.5a.594.594,0,0,0-.358.224l-.725.381c.037-.531.08-1.008.1-1.486a.64.64,0,0,1,.473-.623c.62-.234,1.233-.485,1.849-.73l2.048-.8a45.11,45.11,0,0,1-10.316-1.387c-1.524-.377-3.012-.87-4.506-1.345l-.128-.047-.123-.042-.2-.092a.482.482,0,0,1,.131-.348,10.631,10.631,0,0,1,6.98-4.793,11.745,11.745,0,0,1,4.129.067,11.012,11.012,0,0,1,4.636,2.251l1.016.987a13.212,13.212,0,0,1,1.234,1.723c.074.132.14.191.3.1a6.559,6.559,0,0,0,2.573-2.344,6.172,6.172,0,0,0,1.018-2.8,3.474,3.474,0,0,1-.22,4.33,12.367,12.367,0,0,1-1.523.972,8.033,8.033,0,0,0,5.731-3.542,3.342,3.342,0,0,1-.072,1.195,6.76,6.76,0,0,1-.838,2.386,3.48,3.48,0,0,1-2.359,1.655,13.639,13.639,0,0,1-3.766-.234,7.084,7.084,0,0,1,.232.931l-2.214.26.785.375a8.129,8.129,0,0,1-1.176-.041" transform="translate(389.646 165.207)" fill="#020202"/>
    <path id="Path_9948" data-name="Path 9948" d="M3.6,271.089a4.064,4.064,0,0,1-.323-.351,13.749,13.749,0,0,1-3.257-8.457,13.957,13.957,0,0,1,.709-5.2,5.481,5.481,0,0,1,.517-1.215,1.387,1.387,0,0,1,.564.234c.941.448,1.88.9,2.819,1.354-.033.093-.063.186-.1.278a10.291,10.291,0,0,0-.752,3.328,10.556,10.556,0,0,0,.529,4.051,10.989,10.989,0,0,0,1.962,3.475c-.3.253-.608.494-.89.763-.57.542-1.219,1.189-1.78,1.74" transform="translate(542.948 28.086)" fill="#d6d8d9"/>
    <path id="Path_9949" data-name="Path 9949" d="M41.437,15.694c-.939-.452-1.878-.906-2.819-1.354-.163-.078-.4-.176-.564-.234a2.061,2.061,0,0,1,.154-.406,14.073,14.073,0,0,1,9.91-7.711c.2-.046.416-.055.624-.081q.038.421.076.842c.086.954.29,1.895.3,2.856A10.631,10.631,0,0,0,42.14,14.4a.482.482,0,0,0-.131.348,3.55,3.55,0,0,0-.572.947" transform="translate(506.142 269.848)" fill="#949598"/>
    <path id="Path_9950" data-name="Path 9950" d="M467.318,593.252a13.44,13.44,0,0,1-4.2,4.81,14.043,14.043,0,0,1-6.861,2.588,2.2,2.2,0,0,1-.254,0c-.009-.126-.017-.253-.029-.38-.1-1.036-.3-2.062-.314-3.106a.44.44,0,0,1,.282-.068,10.292,10.292,0,0,0,6.04-2.617,13.116,13.116,0,0,0,2.2-2.674.609.609,0,0,1,.363.1q1.387.674,2.773,1.35" transform="translate(102.233 -296.829)" fill="#bd2642"/>
    <path id="Path_9951" data-name="Path 9951" d="M364.3,3.892c-.012-.961-.216-1.9-.3-2.856l-.076-.842a12.8,12.8,0,0,1,4.167-.046,13.8,13.8,0,0,1,4.614,1.466,10.748,10.748,0,0,1,2.9,2.112c-.113.1-.182.181-.288.273-.8.69-1.516,1.456-2.248,2.211a11.012,11.012,0,0,0-4.636-2.251,11.745,11.745,0,0,0-4.129-.067" transform="translate(190.96 275.562)" fill="#d6d8d9"/>
    <path id="Path_9952" data-name="Path 9952" d="M152.5,675.992c.017,1.044.217,2.07.314,3.106.012.126.019.253.028.379A13.923,13.923,0,0,1,142.22,675.9l2.566-2.6a10.935,10.935,0,0,0,3.953,2.22,12.318,12.318,0,0,0,3.762.47" transform="translate(405.393 -375.658)" fill="#fd3259"/>
    <path id="Path_9953" data-name="Path 9953" d="M718.592,334.637l-2.773-1.35a.609.609,0,0,0-.363-.1,16.751,16.751,0,0,0,.738-1.781l.241-.793a10.434,10.434,0,0,0,.191-4.24,4.68,4.68,0,0,0-.234-1.029,7.1,7.1,0,0,0-.232-.931,13.636,13.636,0,0,0,3.765.234,14.211,14.211,0,0,1-1.081,9.548c-.074.152-.168.294-.252.44" transform="translate(-149.041 -38.215)" fill="#fd3259"/>
    <path id="Path_9954" data-name="Path 9954" d="M677.757,145.484a6.559,6.559,0,0,1-2.573,2.344c-.156.087-.222.029-.3-.1A13.208,13.208,0,0,0,673.654,146c.848-.809,1.685-1.63,2.481-2.49" transform="translate(-108.611 136.757)" fill="#fa335a"/>
    <path id="Path_9955" data-name="Path 9955" d="M113.449,644.642l-2.566,2.6a9.763,9.763,0,0,1-1.063-1.072c.561-.551,1.21-1.2,1.78-1.74.283-.269.593-.509.89-.763l.958.972" transform="translate(436.73 -346.997)" fill="#f3f1f1"/>
    <path id="Path_9956" data-name="Path 9956" d="M646.169,114.6c-.8.861-1.633,1.682-2.481,2.49l-1.016-.987c.732-.755,1.452-1.521,2.248-2.211.106-.092.171-.175.288-.273a6.151,6.151,0,0,1,.962.98" transform="translate(-78.645 165.665)" fill="#f3f1f1"/>
    <path id="Path_9957" data-name="Path 9957" d="M778.428,250.836a6.2,6.2,0,0,1-1.761.419,12.364,12.364,0,0,0,1.523-.973l.238.553" transform="translate(-208.245 33.487)" fill="#fa335a"/>
    <path id="Path_9958" data-name="Path 9958" d="M135.883,278.968a10.438,10.438,0,0,1-.191,4.24,12.928,12.928,0,0,0-1.478.517,53.087,53.087,0,0,1-5.694,1.486c-.323.069-.7.015-.971.292a28.907,28.907,0,0,1-8.324-.477c-1.249-.25-2.455-.65-3.67-1.021a10.558,10.558,0,0,1-.529-4.052,10.291,10.291,0,0,1,.752-3.328c.035-.092.065-.185.1-.278a3.548,3.548,0,0,1,.572-.947l.2.092a.094.094,0,0,0,.123.042l.128.047a2.375,2.375,0,0,0,1.057.562A40.7,40.7,0,0,0,123.58,278a42.9,42.9,0,0,0,4.775.9c.439.058,1.048-.094,1.456.163-.616.244-1.363.548-1.983.782a.64.64,0,0,0-.473.623c-.02.478-.064.955-.1,1.486l.725-.381A5.883,5.883,0,0,0,127.9,284a.268.268,0,0,0,.262.233c.6.1,1.192.18,1.789.265.035.005.089.007.091-.056-.01-.108-.138-.077-.189-.17.235-.039.364-.083.591-.121.279-.055-.028-.035.3-.105a3.392,3.392,0,0,0,.737-.2c.249-.107.538-.059.766-.266a6.007,6.007,0,0,0,1.174-2.449c.049-.157-.114-.278-.218-.391a3.074,3.074,0,0,0-2.365-.946,4.716,4.716,0,0,1,.469-.325,2.829,2.829,0,0,1,1.74.278c.038-.27-.3-.445-.383-.594a1.355,1.355,0,0,1,.309-.012c.972-.063,1.945-.121,2.917-.179m-15.827,4.878-.254.1c.288.2.663.049.948.239-.014.11-.181.015-.166.145a8.888,8.888,0,0,0,1.766-.176c.4-.029.519-.262.518-.619a13.133,13.133,0,0,0-.1-2.162c.312.175.636.4.991.6-.039-.535-.09-1.013-.1-1.492a.638.638,0,0,0-.473-.624q-2.346-.92-4.69-1.849c-.117-.046-.232-.117-.363-.055q-.674.314-1.346.633a5.393,5.393,0,0,0,1.12-.039.81.81,0,0,1,.8.345c-.657.249-.722.324-.82.779.467-.486,1.138-.3,1.674-.281a.842.842,0,0,1,.383.258l-.625.076a2.812,2.812,0,0,0-1.843.945c-.091.1-.221.213-.175.365a5.9,5.9,0,0,0,1.126,2.382.521.521,0,0,0,.424.235l1.2.206" transform="translate(431.702 9.194)" fill="#f7c78a"/>
    <path id="Path_9959" data-name="Path 9959" d="M185.386,284.416c-.808-.1-1.017-.1-1.456-.163a42.9,42.9,0,0,1-4.775-.9,40.69,40.69,0,0,1-5.619-1.86,2.374,2.374,0,0,1-1.057-.562c1.494.475,2.982.968,4.506,1.345a45.113,45.113,0,0,0,10.316,1.387l-1.914.749" transform="translate(376.126 3.841)" fill="#d29e63"/>
    <path id="Path_9960" data-name="Path 9960" d="M519.274,484.209a1.51,1.51,0,0,1-.766.266l-.345.065-.185.042-.408.052-.263,0-.321.012-.448,0H516.3a1.906,1.906,0,0,1-1.124-.2,2.553,2.553,0,0,1,.951-1.368c.575.682,1.128.866,1.762.593a1.706,1.706,0,0,0,.783-.846c.408.179.467.671.674,1-.073.107-.175.211-.074.385" transform="translate(44.668 -191.43)" fill="#faf9f8"/>
    <path id="Path_9961" data-name="Path 9961" d="M635.8,353.831c-.973.059-1.945.124-2.917.179-.063,0-.17.009-.271.012a1.665,1.665,0,0,0-.723-.108c.334-.221.613-.555,1.071-.518a8.117,8.117,0,0,0,1.176.041l-.785-.375,2.214-.26a4.683,4.683,0,0,1,.234,1.029" transform="translate(-68.218 -65.669)" fill="#d29e63"/>
    <path id="Path_9962" data-name="Path 9962" d="M575.878,420.8a7.994,7.994,0,0,0-1.653-.449c.4-.336.8-.3,1.465.12l.052.138c.091-.057.04-.125.015-.191a1.613,1.613,0,0,0-.957-1.013,2.935,2.935,0,0,1,2.348.892.346.346,0,0,1,.05.438c-.407.234-.9.055-1.32.065" transform="translate(-12.443 -130.087)" fill="#d6d8d9"/>
    <path id="Path_9963" data-name="Path 9963" d="M507.76,459.448a10.3,10.3,0,0,0,1.519-.305,5.389,5.389,0,0,1-2.233.58c.051.092.382.154.366.228,0,0-.019.031-.267,0-.6-.079-1.194-.17-1.789-.265a.268.268,0,0,1-.262-.233,5.882,5.882,0,0,1,.084-2.426.593.593,0,0,1,.358-.223c.014.258-.153.489-.112.751l-.052.1-.016.252a2.543,2.543,0,0,0-.013,1.369,2.475,2.475,0,0,0,1.124.2h.236l.448,0" transform="translate(54.502 -166.257)" fill="#d88864"/>
    <path id="Path_9964" data-name="Path 9964" d="M515.648,442.924c-.04-.262.126-.493.112-.752l.686-.5a2.457,2.457,0,0,0-.037,1.349c-.267.114-.58.077-.829.252q.008-.126.016-.252l.052-.1" transform="translate(44.279 -151.628)" fill="#d6d8d9"/>
    <path id="Path_9965" data-name="Path 9965" d="M512.6,483.063c.248-.175.562-.139.829-.252l.109.253a2.552,2.552,0,0,0-.951,1.368,2.543,2.543,0,0,1,.013-1.369" transform="translate(47.259 -191.413)" fill="#bfc1c2"/>
    <path id="Path_9966" data-name="Path 9966" d="M622.461,473.764c-.206-.324-.265-.816-.674-1,.035-.1.05-.207.082-.341.162.161.328.336.584.215.169-.08.339.049.489.056-.068.175-.1.284-.168.462a2.428,2.428,0,0,1-.314.6" transform="translate(-58.445 -181.372)" fill="#bfc1c2"/>
    <path id="Path_9967" data-name="Path 9967" d="M625.372,460.366c-.15-.007-.321-.135-.489-.056-.255.12-.422-.055-.584-.216q.006-.169.011-.339c.423-.01.919.155,1.326-.079-.087.254-.152.418-.264.689" transform="translate(-60.874 -169.039)" fill="#d6d8d9"/>
    <path id="Path_9968" data-name="Path 9968" d="M612.087,386.489a1.384,1.384,0,0,1,.85.174.589.589,0,0,1,.218.528,2.828,2.828,0,0,0-1.74-.278c.262-.177.425-.281.672-.423" transform="translate(-48.413 -98.245)" fill="#d88864"/>
    <path id="Path_9969" data-name="Path 9969" d="M164.959,278.254a.094.094,0,0,1-.123-.042l.123.042" transform="translate(383.518 6.474)" fill="#d29e63"/>
    <path id="Path_9970" data-name="Path 9970" d="M131.4,537.632c1.214.371,2.42.771,3.669,1.021a28.915,28.915,0,0,0,8.324.477c.409-.03.82-.045,1.227-.091a36.643,36.643,0,0,0,6.675-1.41,16.742,16.742,0,0,1-.738,1.781,13.126,13.126,0,0,1-2.2,2.674,10.291,10.291,0,0,1-6.04,2.617.44.44,0,0,0-.282.068,12.318,12.318,0,0,1-3.762-.47,10.934,10.934,0,0,1-3.953-2.22l-.958-.972a10.987,10.987,0,0,1-1.962-3.475" transform="translate(415.853 -244.434)" fill="#020101"/>
    <path id="Path_9971" data-name="Path 9971" d="M504.958,514.241a36.654,36.654,0,0,1-6.675,1.41c-.407.046-.818.062-1.227.091.267-.277.648-.223.971-.292a53.135,53.135,0,0,0,5.694-1.486,12.923,12.923,0,0,1,1.478-.517l-.241.793" transform="translate(62.194 -221.046)" fill="#d29e63"/>
    <path id="Path_9972" data-name="Path 9972" d="M203.384,381.528a2.382,2.382,0,0,1,.855.5c-.537-.021-1.208-.206-1.675.281.031-.473.163-.53.82-.779" transform="translate(347.028 -93.453)" fill="#d88864"/>
    <path id="Path_9973" data-name="Path 9973" d="M188.817,405.7c0,.2.122.342.072.509a1.512,1.512,0,0,0-1.881-.337l1.885.417c.1.232,0,.462-.01.693l-.172.338a1.368,1.368,0,0,1-2.476-.245.584.584,0,0,1-.072-.218,1.517,1.517,0,0,1-.034-.554,1.676,1.676,0,0,1,1.094-1.357,2.936,2.936,0,0,0-2.24.76c-.2.186-.3.36-.13.609l.185.508a3.3,3.3,0,0,0,.472,1.1c.022.142.127.274.049.427a5.9,5.9,0,0,1-1.126-2.382c-.046-.152.085-.261.175-.365a2.812,2.812,0,0,1,1.843-.945l.625-.076" transform="translate(364.573 -115.756)" fill="#080706"/>
    <path id="Path_9974" data-name="Path 9974" d="M170.05,352.819a5.391,5.391,0,0,1-1.12.039q.673-.316,1.346-.633c.131-.061.246.009.363.055q2.344.926,4.69,1.848a.638.638,0,0,1,.473.625c.014.479.065.957.1,1.492" transform="translate(379.559 -65.089)" fill="#080706"/>
    <path id="Path_9975" data-name="Path 9975" d="M217.611,481.685c.079-.153-.027-.285-.049-.427.189-.047.119-.233.186-.346.132-.221.184-.524.54-.506a1.368,1.368,0,0,0,2.476.245c.225-.047.4.169.543.307a1.62,1.62,0,0,1,.433.81c.025.274-.153.309-.368.339a8.927,8.927,0,0,1-2.134.019l-1.2-.206a.521.521,0,0,1-.424-.235" transform="translate(332.521 -189.086)" fill="#faf9f8"/>
    <path id="Path_9976" data-name="Path 9976" d="M225.917,451.7a8.923,8.923,0,0,0,2.134-.019c.215-.031.393-.065.368-.339a4.685,4.685,0,0,0-.083-1.8c-.054-.264-.188-.384-.194-.6.169.1.324.179.5.291a12.947,12.947,0,0,1,.091,2.147c0,.358-.121.59-.518.619a10.2,10.2,0,0,1-1.891.192c.1-.142.277-.051.292-.161a8.784,8.784,0,0,1-2.142-.609c.081-.031,1.144.227,1.448.274" transform="translate(325.841 -158.659)" fill="#d88864"/>
    <path id="Path_9977" data-name="Path 9977" d="M600.546,535.057l.185-.042" transform="translate(-37.901 -241.906)" fill="#f7c78a"/>
    <path id="Path_9978" data-name="Path 9978" d="M618.948,450.454c.025.066.076.134-.015.19l-.052-.138.067-.053" transform="translate(-55.634 -160.118)" fill="#020202"/>
    <path id="Path_9979" data-name="Path 9979" d="M516.106,479.711l-.052.1.052-.1" transform="translate(43.82 -188.416)" fill="#bfc1c2"/>
    <path id="Path_9980" data-name="Path 9980" d="M194.945,416.8c-.171-.249-.073-.423.13-.609a2.936,2.936,0,0,1,2.24-.76,1.676,1.676,0,0,0-1.094,1.357,1.883,1.883,0,0,0-1.277.012" transform="translate(354.481 -126.239)" fill="#d6d8d9"/>
    <path id="Path_9981" data-name="Path 9981" d="M316.013,461.783a4.376,4.376,0,0,1,.14,1.974,4,4,0,0,0-.408-.7c-.17-.182-.326-.421-.567-.417l.172-.337c.257-.062.59-.086.664-.519" transform="translate(238.108 -171.076)" fill="#bfc1c2"/>
    <path id="Path_9982" data-name="Path 9982" d="M197.534,453.651a1.884,1.884,0,0,1,1.277-.012,2.965,2.965,0,0,0,.038.592l-1.13-.072-.185-.508" transform="translate(351.893 -163.092)" fill="#d6d8d9"/>
    <path id="Path_9983" data-name="Path 9983" d="M319.138,439.5c-.074.433-.437.281-.694.343.007-.231.109-.46.01-.693a.133.133,0,0,1,0-.079c.05-.167-.072-.311-.072-.509a1.268,1.268,0,0,1,.594.341c.006.213.169.371.167.6" transform="translate(235.013 -148.616)" fill="#d6d8d9"/>
    <path id="Path_9984" data-name="Path 9984" d="M203.169,472.767l1.13.072a1.041,1.041,0,0,0,.068.18.819.819,0,0,0-.485.514c-.048.143-.114.313-.189.513a4.364,4.364,0,0,1-.524-1.278" transform="translate(346.443 -181.699)" fill="#bfc1c2"/>
    <path id="Path_9985" data-name="Path 9985" d="M265.119,438.886a.134.134,0,0,0,0,.079l-1.885-.416a1.512,1.512,0,0,1,1.881.337" transform="translate(288.344 -148.432)" fill="#f3f1f1"/>
    <rect id="Rectangle_2718" data-name="Rectangle 2718" width="31.235" height="28.306" transform="translate(542.948 275.561)" fill="none"/>
  </g>
  <g id="Group_5562" data-name="Group 5562">
    <g id="Group_5562-2" data-name="Group 5562" clip-path="url(#clip-path)">
      <path id="Path_9986" data-name="Path 9986" d="M0,8.471,3.843,3.958l-1-1.976C2.516,1.328,2.185.674,1.852.006c.052,0,.082,0,.114,0h2.4a.25.25,0,0,1,.066,0,.1.1,0,0,1,.05.034A.3.3,0,0,1,4.51.106l.811,1.966c.012.028.025.057.044.1.025-.032.045-.055.062-.078q.7-.98,1.405-1.957C6.949-.027,6.894,0,7.089,0Q8.267,0,9.444,0h.114c.01.048-.023.069-.043.094l-.793.969L6.41,3.885c-.02.024-.038.049-.058.078L8.225,7.63c.044-.016.05-.053.065-.082l.8-1.528q.979-1.884,1.955-3.768a.149.149,0,0,1,.152-.095c.515,0,1.03,0,1.545,0,.034,0,.068,0,.1.006.035.076,1.32,6.206,1.326,6.321-.03.029-.07.017-.105.017H12.521c-.092,0-.094,0-.114-.089-.042-.2-.083-.4-.125-.6l-.072-.341c0-.018-.01-.035-.016-.057-.034,0-.065,0-.1,0q-.942,0-1.883,0a.139.139,0,0,0-.146.086c-.157.3-.321.6-.477.909a.161.161,0,0,1-.169.1q-1.6,0-3.2,0H6.157a.076.076,0,0,1-.08-.053c-.009-.023-.021-.045-.032-.068L4.879,5.861c-.014-.031-.03-.061-.047-.1-.045.017-.063.056-.088.086l-1.3,1.567c-.278.336-.557.671-.834,1.009a.186.186,0,0,1-.16.076c-.782,0-1.563,0-2.345,0-.033,0-.066,0-.1-.005ZM11.783,4.278c-.06.072-.874,1.721-.891,1.8a11.89,11.89,0,0,0,1.2-.007c-.1-.6-.209-1.19-.314-1.793Z" transform="translate(0 0)" fill="#fff"/>
      <path id="Path_9987" data-name="Path 9987" d="M686.41,63.239c.013-.05.02-.086.031-.121q.691-2.2,1.381-4.4.268-.852.536-1.7c.007-.021.015-.041.02-.063a.064.064,0,0,1,.068-.053h1.468c.073,0,.076,0,.093.078q.1.478.2.957.232,1.081.46,2.161c0,.015.009.03.018.062.024-.042.042-.072.059-.1l1.628-3.036c.067-.126.038-.12.2-.12h1.337c.043,0,.086,0,.137.008,0,.041.005.076,0,.108q0,.843-.009,1.685c0,.5-.008,1-.012,1.5q0,.575-.007,1.149-.006.834-.012,1.667c0,.076-.007.148-.011.219-.1.02-1.543.018-1.627,0,0-.027-.006-.058-.006-.088q.014-.518.029-1.035c.008-.282.018-.565.027-.847.011-.364.024-.727.033-1.092,0-.121,0-.242,0-.385-.026.041-.043.065-.057.091l-1.791,3.247c-.078.142-.049.124-.208.125h-.443c-.1,0-.1,0-.118-.094q-.273-1.183-.545-2.365l-.21-.917c-.005-.024-.013-.048-.022-.076-.036.013-.035.045-.041.069q-.237.813-.474,1.625l-.483,1.652c-.01.033-.021.064-.034.1Z" transform="translate(-660.404 -54.744)" fill="#fff"/>
      <path id="Path_9988" data-name="Path 9988" d="M892.463,62.183h-1.978a.146.146,0,0,0-.152.091c-.156.3-.32.6-.477.909a.148.148,0,0,1-.151.1c-.508,0-1.017,0-1.525,0h-.11c.022-.05.035-.084.051-.116l.672-1.295q1.25-2.405,2.5-4.812c.068-.131.038-.124.207-.124H893c.109,0,.11,0,.131.1q.2.962.4,1.925l.518,2.477q.181.865.362,1.731c.006.03.008.061.013.1a.4.4,0,0,1-.068.013h-1.591c-.076,0-.079,0-.1-.084-.061-.288-.12-.577-.18-.866-.009-.043-.019-.086-.031-.142m-.414-3.123-.02,0c-.015.027-.029.054-.043.081l-.251.506-.55,1.114c-.014.029-.038.056-.028.094h1.205c-.105-.6-.208-1.2-.313-1.791Z" transform="translate(-854.424 -54.773)" fill="#fff"/>
      <path id="Path_9989" data-name="Path 9989" d="M1161.754,59.05c-.076.493-.148.968-.227,1.448-.05,0-.09.006-.13.006h-1.6c-.1,0-.1,0-.119.1q-.063.395-.125.79c0,.03,0,.062-.008.1.047,0,.089.011.131.011h1.648c.043,0,.086,0,.14.008-.014.095-.025.181-.038.265-.055.35-.109.7-.168,1.049-.025.149,0,.141-.16.141h-3.45l-.02-.019a.016.016,0,0,1,0-.008.3.3,0,0,1,0-.047q.493-3.112.987-6.226a.145.145,0,0,1,.014-.032c.083-.019,3.2-.031,3.532-.014a.6.6,0,0,1,.083.013c-.076.482-.151.957-.229,1.44-.05,0-.093.008-.136.008h-1.8c-.06.316-.1.625-.155.942.05,0,.091.006.13.006h1.553c.044.006.087.008.145.011" transform="translate(-1113.765 -54.476)" fill="#fff"/>
      <path id="Path_9990" data-name="Path 9990" d="M377.906,54.524c-.106.682-.214,1.361-.325,2.046-.056-.026-.07-.07-.095-.1a1.335,1.335,0,0,0-.857-.568,1.828,1.828,0,0,0-1.862.652,1.963,1.963,0,0,0-.442,1.013,1.5,1.5,0,0,0,.041.672,1.208,1.208,0,0,0,.968.874,1.957,1.957,0,0,0,1.591-.377c.093-.069.177-.152.265-.227a.189.189,0,0,1,.084-.049c-.007.051-.012.1-.02.154-.093.588-.185,1.177-.281,1.765-.025.149.009.129-.145.169-.3.078-.6.152-.905.216a2.64,2.64,0,0,1-.806.029,2.869,2.869,0,0,1-.987-.258,2.584,2.584,0,0,1-1.5-1.955,3.053,3.053,0,0,1,0-.985,3.846,3.846,0,0,1,.6-1.609,3.9,3.9,0,0,1,2.449-1.7,3.435,3.435,0,0,1,2.138.2c.027.012.054.027.1.047" transform="translate(-358.468 -52.137)" fill="#fff"/>
      <path id="Path_9991" data-name="Path 9991" d="M1046.232,58.413c-.049,0-.086-.005-.123-.005h-1.083c-.04,0-.08,0-.119-.007-.012-.079.19-1.358.225-1.44.088-.021,4.268-.019,4.357,0-.009.069-.017.139-.028.21q-.092.572-.184,1.143c-.015.089-.016.092-.108.092h-1.12c-.04,0-.08,0-.126.006-.02.123-.041.24-.059.357l-.24,1.515q-.127.8-.253,1.608-.1.65-.207,1.3c-.014.091-.019.1-.114.1h-1.478c-.03,0-.061,0-.1-.007.043-.331.1-.651.151-.971s.1-.651.155-.976.1-.644.154-.966.1-.65.156-.976.1-.646.147-.984" transform="translate(-1005.319 -54.789)" fill="#fff"/>
      <path id="Path_9992" data-name="Path 9992" d="M520.19,58.182c-.024.144-.046.271-.066.4q-.12.752-.239,1.505l-.214,1.347q-.123.776-.246,1.553c-.012.076-.018.081-.1.081h-1.515a.7.7,0,0,1-.076-.008.8.8,0,0,1,.007-.1q.1-.618.2-1.236.109-.682.216-1.366.089-.563.179-1.124.078-.488.155-.976a.406.406,0,0,0,0-.062c-.042,0-.079-.006-.116-.006h-1.083c-.04,0-.08,0-.132-.007.029-.249.076-.489.111-.729s.076-.475.114-.709c.091-.023,3.954-.038,4.293-.017a.7.7,0,0,1,.081.014c-.076.482-.152.958-.23,1.44-.049,0-.089.008-.129.008h-1.083Z" transform="translate(-497.566 -54.564)" fill="#fff"/>
      <path id="Path_9993" data-name="Path 9993" d="M626.419,63.776c-.119.022-1.794.017-1.869-.006.013-.088.024-.178.038-.265q.127-.8.255-1.607.136-.865.271-1.728.128-.809.257-1.617c.051-.319.1-.638.151-.957.015-.094.016-.094.114-.095h1.639c.04,0,.08,0,.118.006.011.085-.1.834-.227,1.577-.089.522-.168,1.046-.251,1.57s-.165,1.04-.247,1.561-.162,1.043-.249,1.561" transform="translate(-600.888 -55.322)" fill="#fff"/>
      <path id="Path_9994" data-name="Path 9994" d="M1275.706,186.378a.707.707,0,0,1,.72.694c0,.007,0,.013,0,.02a.718.718,0,1,1-.721-.714h0m-.551.713a.624.624,0,1,0,0-.009s0,.006,0,.009Z" transform="translate(-1226.685 -179.316)" fill="#fff"/>
      <path id="Path_9995" data-name="Path 9995" d="M1285.786,196c-.032,0-.044.008-.056.009-.146.007-.145.007-.215-.124a.99.99,0,0,0-.076-.12.123.123,0,0,0-.152-.047V196h-.157a4.1,4.1,0,0,1-.01-.746c.007,0,.015-.012.023-.012.135,0,.27,0,.4,0a.2.2,0,0,1,.189.167.217.217,0,0,1-.1.234c-.015.01-.031.019-.051.03a1.7,1.7,0,0,1,.2.321m-.487-.606v.164c.07,0,.132,0,.192-.01a.073.073,0,0,0,.062-.081.071.071,0,0,0-.058-.076.417.417,0,0,0-.2,0Z" transform="translate(-1236.419 -187.84)" fill="#fff"/>
      <path id="Path_9996" data-name="Path 9996" d="M0,8.471,3.843,3.958l-1-1.976C2.516,1.328,2.185.674,1.852.006c.052,0,.082,0,.114,0h2.4a.25.25,0,0,1,.066,0,.1.1,0,0,1,.05.034A.3.3,0,0,1,4.51.106l.811,1.966c.012.028.025.057.044.1.025-.032.045-.055.062-.078q.7-.98,1.405-1.957C6.949-.027,6.894,0,7.089,0Q8.267,0,9.444,0h.114c.01.048-.023.069-.043.094l-.793.969L6.41,3.885c-.02.024-.038.049-.058.078L8.225,7.63c.044-.016.05-.053.065-.082l.8-1.528q.979-1.884,1.955-3.768a.149.149,0,0,1,.152-.095c.515,0,1.03,0,1.545,0,.034,0,.068,0,.1.006.035.076,1.32,6.206,1.326,6.321-.03.029-.07.017-.105.017H12.521c-.092,0-.094,0-.114-.089-.042-.2-.083-.4-.125-.6l-.072-.341c0-.018-.01-.035-.016-.057-.034,0-.065,0-.1,0q-.942,0-1.883,0a.139.139,0,0,0-.146.086c-.157.3-.321.6-.477.909a.161.161,0,0,1-.169.1q-1.6,0-3.2,0H6.157a.076.076,0,0,1-.08-.053c-.009-.023-.021-.045-.032-.068L4.879,5.861c-.014-.031-.03-.061-.047-.1-.045.017-.063.056-.088.086l-1.3,1.567c-.278.336-.557.671-.834,1.009a.186.186,0,0,1-.16.076c-.782,0-1.563,0-2.345,0-.033,0-.066,0-.1-.005ZM11.783,4.278c-.06.072-.874,1.721-.891,1.8a11.89,11.89,0,0,0,1.2-.007c-.1-.6-.209-1.19-.314-1.793Z" transform="translate(0 0)" fill="#fff"/>
      <path id="Path_9997" data-name="Path 9997" d="M686.41,63.239c.013-.05.02-.086.031-.121q.691-2.2,1.381-4.4.268-.852.536-1.7c.007-.021.015-.041.02-.063a.064.064,0,0,1,.068-.053h1.468c.073,0,.076,0,.093.078q.1.478.2.957.232,1.081.46,2.161c0,.015.009.03.018.062.024-.042.042-.072.059-.1l1.628-3.036c.067-.126.038-.12.2-.12h1.337c.043,0,.086,0,.137.008,0,.041.005.076,0,.108q0,.843-.009,1.685c0,.5-.008,1-.012,1.5q0,.575-.007,1.149-.006.834-.012,1.667c0,.076-.007.148-.011.219-.1.02-1.543.018-1.627,0,0-.027-.006-.058-.006-.088q.014-.518.029-1.035c.008-.282.018-.565.027-.847.011-.364.024-.727.033-1.092,0-.121,0-.242,0-.385-.026.041-.043.065-.057.091l-1.791,3.247c-.078.142-.049.124-.208.125h-.443c-.1,0-.1,0-.118-.094q-.273-1.183-.545-2.365l-.21-.917c-.005-.024-.013-.048-.022-.076-.036.013-.035.045-.041.069q-.237.813-.474,1.625l-.483,1.652c-.01.033-.021.064-.034.1Z" transform="translate(-660.404 -54.744)" fill="#fff"/>
      <path id="Path_9998" data-name="Path 9998" d="M892.463,62.183h-1.978a.146.146,0,0,0-.152.091c-.156.3-.32.6-.477.909a.148.148,0,0,1-.151.1c-.508,0-1.017,0-1.525,0h-.11c.022-.05.035-.084.051-.116l.672-1.295q1.25-2.405,2.5-4.812c.068-.131.038-.124.207-.124H893c.109,0,.11,0,.131.1q.2.962.4,1.925l.518,2.477q.181.865.362,1.731c.006.03.008.061.013.1a.4.4,0,0,1-.068.013h-1.591c-.076,0-.079,0-.1-.084-.061-.288-.12-.577-.18-.866-.009-.043-.019-.086-.031-.142m-.414-3.123-.02,0c-.015.027-.029.054-.043.081l-.251.506-.55,1.114c-.014.029-.038.056-.028.094h1.205c-.105-.6-.208-1.2-.313-1.791Z" transform="translate(-854.424 -54.773)" fill="#fff"/>
      <path id="Path_9999" data-name="Path 9999" d="M1161.754,59.05c-.076.493-.148.968-.227,1.448-.05,0-.09.006-.13.006h-1.6c-.1,0-.1,0-.119.1q-.063.395-.125.79c0,.03,0,.062-.008.1.047,0,.089.011.131.011h1.648c.043,0,.086,0,.14.008-.014.095-.025.181-.038.265-.055.35-.109.7-.168,1.049-.025.149,0,.141-.16.141h-3.45l-.02-.019a.016.016,0,0,1,0-.008.3.3,0,0,1,0-.047q.493-3.112.987-6.226a.145.145,0,0,1,.014-.032c.083-.019,3.2-.031,3.532-.014a.6.6,0,0,1,.083.013c-.076.482-.151.957-.229,1.44-.05,0-.093.008-.136.008h-1.8c-.06.316-.1.625-.155.942.05,0,.091.006.13.006h1.553c.044.006.087.008.145.011" transform="translate(-1113.765 -54.476)" fill="#fff"/>
      <path id="Path_10000" data-name="Path 10000" d="M377.906,54.524c-.106.682-.214,1.361-.325,2.046-.056-.026-.07-.07-.095-.1a1.335,1.335,0,0,0-.857-.568,1.828,1.828,0,0,0-1.862.652,1.963,1.963,0,0,0-.442,1.013,1.5,1.5,0,0,0,.041.672,1.208,1.208,0,0,0,.968.874,1.957,1.957,0,0,0,1.591-.377c.093-.069.177-.152.265-.227a.189.189,0,0,1,.084-.049c-.007.051-.012.1-.02.154-.093.588-.185,1.177-.281,1.765-.025.149.009.129-.145.169-.3.078-.6.152-.905.216a2.64,2.64,0,0,1-.806.029,2.869,2.869,0,0,1-.987-.258,2.584,2.584,0,0,1-1.5-1.955,3.053,3.053,0,0,1,0-.985,3.846,3.846,0,0,1,.6-1.609,3.9,3.9,0,0,1,2.449-1.7,3.435,3.435,0,0,1,2.138.2c.027.012.054.027.1.047" transform="translate(-358.468 -52.137)" fill="#fff"/>
      <path id="Path_10001" data-name="Path 10001" d="M1046.232,58.413c-.049,0-.086-.005-.123-.005h-1.083c-.04,0-.08,0-.119-.007-.012-.079.19-1.358.225-1.44.088-.021,4.268-.019,4.357,0-.009.069-.017.139-.028.21q-.092.572-.184,1.143c-.015.089-.016.092-.108.092h-1.12c-.04,0-.08,0-.126.006-.02.123-.041.24-.059.357l-.24,1.515q-.127.8-.253,1.608-.1.65-.207,1.3c-.014.091-.019.1-.114.1h-1.478c-.03,0-.061,0-.1-.007.043-.331.1-.651.151-.971s.1-.651.155-.976.1-.644.154-.966.1-.65.156-.976.1-.646.147-.984" transform="translate(-1005.319 -54.789)" fill="#fff"/>
      <path id="Path_10002" data-name="Path 10002" d="M520.19,58.182c-.024.144-.046.271-.066.4q-.12.752-.239,1.505l-.214,1.347q-.123.776-.246,1.553c-.012.076-.018.081-.1.081h-1.515a.7.7,0,0,1-.076-.008.8.8,0,0,1,.007-.1q.1-.618.2-1.236.109-.682.216-1.366.089-.563.179-1.124.078-.488.155-.976a.406.406,0,0,0,0-.062c-.042,0-.079-.006-.116-.006h-1.083c-.04,0-.08,0-.132-.007.029-.249.076-.489.111-.729s.076-.475.114-.709c.091-.023,3.954-.038,4.293-.017a.7.7,0,0,1,.081.014c-.076.482-.152.958-.23,1.44-.049,0-.089.008-.129.008h-1.083Z" transform="translate(-497.566 -54.564)" fill="#fff"/>
      <path id="Path_10003" data-name="Path 10003" d="M626.419,63.776c-.119.022-1.794.017-1.869-.006.013-.088.024-.178.038-.265q.127-.8.255-1.607.136-.865.271-1.728.128-.809.257-1.617c.051-.319.1-.638.151-.957.015-.094.016-.094.114-.095h1.639c.04,0,.08,0,.118.006.011.085-.1.834-.227,1.577-.089.522-.168,1.046-.251,1.57s-.165,1.04-.247,1.561-.162,1.043-.249,1.561" transform="translate(-600.888 -55.322)" fill="#fff"/>
      <path id="Path_10004" data-name="Path 10004" d="M1275.706,186.378a.707.707,0,0,1,.72.694c0,.007,0,.013,0,.02a.718.718,0,1,1-.721-.714h0m-.551.713a.624.624,0,1,0,0-.009s0,.006,0,.009Z" transform="translate(-1226.685 -179.316)" fill="#fff"/>
      <path id="Path_10005" data-name="Path 10005" d="M1285.786,196c-.032,0-.044.008-.056.009-.146.007-.145.007-.215-.124a.99.99,0,0,0-.076-.12.123.123,0,0,0-.152-.047V196h-.157a4.1,4.1,0,0,1-.01-.746c.007,0,.015-.012.023-.012.135,0,.27,0,.4,0a.2.2,0,0,1,.189.167.217.217,0,0,1-.1.234c-.015.01-.031.019-.051.03a1.7,1.7,0,0,1,.2.321m-.487-.606v.164c.07,0,.132,0,.192-.01a.073.073,0,0,0,.062-.081.071.071,0,0,0-.058-.076.417.417,0,0,0-.2,0Z" transform="translate(-1236.419 -187.84)" fill="#fff"/>
    </g>
  </g>
</svg>
