<svg xmlns="http://www.w3.org/2000/svg" xmlns:xlink="http://www.w3.org/1999/xlink" width="19" height="19" viewBox="0 0 19 19">
  <defs>
    <clipPath id="clip-path">
      <rect id="Rectangle_2272" data-name="Rectangle 2272" width="19" height="19" transform="translate(0 0)" fill="#db422d"/>
    </clipPath>
  </defs>
  <g id="Xact_tango" data-name="Xact tango" transform="translate(0.154 0.154)">
    <g id="Group_4982" data-name="Group 4982" transform="translate(-0.154 -0.154)" clip-path="url(#clip-path)">
      <path id="Path_6353" data-name="Path 6353" d="M0,17.952V.394A.82.82,0,0,1,.394,0H17.952a.822.822,0,0,1,.394.394V17.952a.827.827,0,0,1-.394.394H8.1a.677.677,0,0,1-.4-.72c.018-.571,0-1.144,0-1.716v-.353a2.291,2.291,0,0,0-1.782,2.1.692.692,0,0,1-.4.684H.394A.826.826,0,0,1,0,17.952m8.779-.694h4.192v-.226q0-2.409,0-4.818c0-.06,0-.12,0-.179a.546.546,0,0,1,.485-.495.527.527,0,0,1,.557.382.965.965,0,0,1,.029.264q0,2.436,0,4.872v.2H17.26V9.71H5.824A.553.553,0,0,1,5.2,9.086q0-.788,0-1.576c0-.195,0-.389,0-.593-.043.008-.066.01-.089.016a2.333,2.333,0,0,0-1.7,2.153c-.014.435-.211.625-.648.625H1.084v7.552H4.875c.012-.052.025-.1.035-.156a3.418,3.418,0,0,1,3.219-2.7.559.559,0,0,1,.649.638c0,.734,0,1.468,0,2.214M11.424,3.941H9.244a.548.548,0,0,1-.608-.609q0-1.03,0-2.06V1.084H1.086V8.627H2.368c.013-.058.024-.11.035-.162A3.417,3.417,0,0,1,5.646,5.77a.55.55,0,0,1,.624.61q0,1.03,0,2.06v.186H8.635v-.2q0-1.048,0-2.1a.546.546,0,0,1,.586-.6c.113,0,.226-.017.338-.033a2.309,2.309,0,0,0,1.864-1.757M9.715,2.867h2.253a.55.55,0,0,1,.609.626,3.418,3.418,0,0,1-2.7,3.242c-.056.012-.111.028-.155.039V8.626h7.534V1.089H9.715Z" transform="translate(0.13 0.13)" fill="#db422d"/>
    </g>
  </g>
</svg>
