<svg xmlns="http://www.w3.org/2000/svg" width="119" height="119" viewBox="0 0 119 119">
  <g id="Xactimate_Training" data-name="Xactimate Training" transform="translate(-617 -419)">
    <rect id="Rectangle_874" data-name="Rectangle 874" width="119" height="119" rx="10" transform="translate(617 419)" fill="#38ada2" opacity="0.1"/>
    <g id="noun-training-6088779" transform="translate(631 424.826)">
      <path id="Path_14109" data-name="Path 14109" d="M55.476,33.071a19.443,19.443,0,0,0-10.038,2.771L37.7,13.444a4.865,4.865,0,0,0-4.594-3.27H29.85a4.855,4.855,0,0,0-4.594,3.27l-14.7,42.547H9.834a4.84,4.84,0,0,0,0,9.68H40.985a19.5,19.5,0,0,0,14.477,6.455s0,0,.015,0a19.528,19.528,0,0,0,0-39.055ZM70.313,62.014H64.061a2.963,2.963,0,0,0-.866.133l-2.7-3.708a2.964,2.964,0,0,0,.4-.791l1.61-4.954a2.975,2.975,0,0,0,.141-.848L67.6,50.232a2.97,2.97,0,0,0,.616.607l4.756,3.45A17.393,17.393,0,0,1,70.313,62.014ZM67.9,65.035a17.5,17.5,0,0,1-6.234,4.009l1.42-4.378a1.019,1.019,0,0,1,.97-.708h4.82C68.568,64.326,68.249,64.69,67.9,65.035ZM42.076,63.957l4.8,0a1.016,1.016,0,0,1,.97.7l1.42,4.376A17.665,17.665,0,0,1,42.076,63.957Zm5.667-1.813a2.97,2.97,0,0,0-.867-.133l-6.235,0a17.406,17.406,0,0,1-2.655-7.736l4.743-3.44a2.972,2.972,0,0,0,.614-.607L48.3,51.843a2.967,2.967,0,0,0,.14.849l1.61,4.958a2.98,2.98,0,0,0,.4.783ZM18.282,39.6H40.917c-.32.36-.633.729-.93,1.116a19.388,19.388,0,0,0-3.024,5.633H15.952ZM48.8,36.348l4.934,3.587a2.981,2.981,0,0,0,.77.4v5.582a2.966,2.966,0,0,0-.776.4l-4.215,3.063a2.97,2.97,0,0,0-.62.615l-4.946-1.612a2.969,2.969,0,0,0-.142-.864l-1.954-6A17.446,17.446,0,0,1,48.8,36.348Zm6.675-1.333a17.493,17.493,0,0,1,4.4.582l-3.8,2.765a1.02,1.02,0,0,1-1.2,0l-3.815-2.774A17.738,17.738,0,0,1,55.476,35.015ZM37.914,51.928a17.333,17.333,0,0,1,2.534-8.438l1.508,4.632a1.016,1.016,0,0,1-.37,1.141ZM51.9,57.049l-1.61-4.956a1.018,1.018,0,0,1,.37-1.141l4.216-3.063a1.02,1.02,0,0,1,1.2,0l4.216,3.063a1.016,1.016,0,0,1,.37,1.141l-1.61,4.956a1.016,1.016,0,0,1-.968.7h-5.21A1.018,1.018,0,0,1,51.9,57.049Zm21.125-5.127L69.36,49.267a1.019,1.019,0,0,1-.372-1.143l1.5-4.617A17.445,17.445,0,0,1,73.021,51.922ZM69.1,41.506l-1.957,6.016a2.969,2.969,0,0,0-.141.857l-4.949,1.613a2.966,2.966,0,0,0-.62-.612l-4.216-3.063a2.972,2.972,0,0,0-.764-.4V40.334a2.954,2.954,0,0,0,.772-.4l4.932-3.59A17.675,17.675,0,0,1,69.1,41.506ZM42.911,37.649H18.955l2.127-6.161H41.874l1.891,5.48Q43.329,37.3,42.911,37.649ZM24.084,22.794H38.873L41.2,29.543H21.753Zm3.01-8.715a2.913,2.913,0,0,1,2.756-1.958h3.259a2.923,2.923,0,0,1,2.756,1.958L38.2,20.849H24.756ZM15.28,48.291H36.431a19.659,19.659,0,0,0-.488,4.312c0,.429.017.862.045,1.284a19.45,19.45,0,0,0,.261,2.1H12.62ZM9.834,63.724a2.893,2.893,0,0,1,0-5.786H36.7a19.387,19.387,0,0,0,2.751,5.786Zm45.641,6.457a.016.016,0,0,0-.013,0,17.461,17.461,0,0,1-3.93-.463L49.7,64.059a2.963,2.963,0,0,0-.384-.768L52,59.565a2.966,2.966,0,0,0,.866.133h5.21a2.964,2.964,0,0,0,.861-.132l2.7,3.718a2.974,2.974,0,0,0-.393.781l-1.834,5.66A17.7,17.7,0,0,1,55.476,70.181Z" transform="translate(6 13)" fill="#38ada2" stroke="#38ada2" stroke-width="0.5"/>
    </g>
  </g>
</svg>
