<svg xmlns="http://www.w3.org/2000/svg" width="31.789" height="22.345" viewBox="0 0 31.789 22.345">
  <path id="Icon_awesome-youtube" data-name="Icon awesome-youtube" d="M32.173,8A4,4,0,0,0,29.36,5.168C26.884,4.5,16.944,4.5,16.944,4.5S7,4.5,4.525,5.168A4,4,0,0,0,1.715,8a41.9,41.9,0,0,0-.665,7.7,41.9,41.9,0,0,0,.665,7.7,3.937,3.937,0,0,0,2.81,2.779c2.479.668,12.419.668,12.419.668s9.94,0,12.419-.668a3.937,3.937,0,0,0,2.81-2.779,41.9,41.9,0,0,0,.665-7.7A41.9,41.9,0,0,0,32.173,8ZM13.693,20.424V10.971L22,15.7l-8.309,4.726Z" transform="translate(-1.049 -4.5)" fill="#cb4e38"/>
</svg>
